<svg width="372" height="65" viewBox="0 0 372 65" fill="none" xmlns="http://www.w3.org/2000/svg">
<g filter="url(#filter0_dd_43_10057)">
<path d="M10.0089 7.97778V3H360.99V5.48889H368.5V55.2667H360.99V59H10.0089V53.1926H3.5V7.97778H10.0089Z" fill="#FFE14C"/>
<path d="M10.0089 7.97778V3H360.99V5.48889H368.5V55.2667H360.99V59H10.0089V53.1926H3.5V7.97778H10.0089Z" stroke="#C99810" stroke-width="3"/>
</g>
<g filter="url(#filter1_d_43_10057)">
<mask id="path-2-outside-1_43_10057" maskUnits="userSpaceOnUse" x="87.5" y="22" width="51" height="17" fill="black">
<rect fill="white" x="87.5" y="22" width="51" height="17"/>
<path d="M93.0199 35.36C92.3265 35.3387 91.7079 35.2747 91.1639 35.168C90.6199 35.0507 90.1239 34.8907 89.6759 34.688V32.624C90.1132 32.8373 90.6412 33.0347 91.2599 33.216C91.8785 33.3867 92.4652 33.488 93.0199 33.52V31.104C92.4012 30.8587 91.8732 30.624 91.4359 30.4C91.0092 30.176 90.6625 29.9413 90.3959 29.696C90.1399 29.44 89.9532 29.1627 89.8359 28.864C89.7185 28.5547 89.6599 28.2027 89.6599 27.808C89.6599 27.2747 89.7985 26.816 90.0759 26.432C90.3639 26.0373 90.7585 25.7227 91.2599 25.488C91.7719 25.2533 92.3585 25.1093 93.0199 25.056V23.856H94.0919V25.024C94.6892 25.0453 95.2492 25.1147 95.7719 25.232C96.3052 25.3493 96.8225 25.52 97.3239 25.744L96.5879 27.568C96.1612 27.3867 95.7292 27.248 95.2919 27.152C94.8652 27.056 94.4652 26.992 94.0919 26.96V29.264C94.6679 29.4773 95.2172 29.712 95.7399 29.968C96.2625 30.2133 96.6839 30.528 97.0039 30.912C97.3345 31.296 97.4999 31.8027 97.4999 32.432C97.4999 33.2107 97.2172 33.8613 96.6519 34.384C96.0865 34.9067 95.2332 35.2213 94.0919 35.328V36.928H93.0199V35.36ZM94.0919 33.472C94.4545 33.408 94.7212 33.3013 94.8919 33.152C95.0625 32.992 95.1479 32.7893 95.1479 32.544C95.1479 32.3947 95.1052 32.2667 95.0199 32.16C94.9452 32.0427 94.8279 31.936 94.6679 31.84C94.5185 31.7333 94.3265 31.6267 94.0919 31.52V33.472ZM93.0199 26.992C92.8065 27.024 92.6252 27.0773 92.4759 27.152C92.3265 27.216 92.2092 27.3067 92.1239 27.424C92.0492 27.5307 92.0119 27.6587 92.0119 27.808C92.0119 27.9573 92.0439 28.0907 92.1079 28.208C92.1825 28.3147 92.2945 28.4213 92.4439 28.528C92.5932 28.624 92.7852 28.7253 93.0199 28.832V26.992ZM102.834 26.625V29.75H108.303V31.3125H109.866V34.4375H108.303V36H98.9281V34.4375H106.741V31.3125H98.9281V25.0625H109.866V26.625H102.834ZM113.791 25.0625H121.603V26.625H123.166V34.4375H121.603V36H113.791V34.4375H112.228V26.625H113.791V25.0625ZM115.353 26.625V34.4375H118.478V26.625H115.353ZM130.216 25.0625V28.1875H131.778V26.625H133.341V25.0625H136.466V26.625H134.903V28.1875H133.341V29.75H131.778V31.3125H134.903V32.875H136.466V36H131.778V32.875H130.216V31.3125H128.653V36H125.528V25.0625H130.216Z"/>
</mask>
<path d="M93.0199 35.36C92.3265 35.3387 91.7079 35.2747 91.1639 35.168C90.6199 35.0507 90.1239 34.8907 89.6759 34.688V32.624C90.1132 32.8373 90.6412 33.0347 91.2599 33.216C91.8785 33.3867 92.4652 33.488 93.0199 33.52V31.104C92.4012 30.8587 91.8732 30.624 91.4359 30.4C91.0092 30.176 90.6625 29.9413 90.3959 29.696C90.1399 29.44 89.9532 29.1627 89.8359 28.864C89.7185 28.5547 89.6599 28.2027 89.6599 27.808C89.6599 27.2747 89.7985 26.816 90.0759 26.432C90.3639 26.0373 90.7585 25.7227 91.2599 25.488C91.7719 25.2533 92.3585 25.1093 93.0199 25.056V23.856H94.0919V25.024C94.6892 25.0453 95.2492 25.1147 95.7719 25.232C96.3052 25.3493 96.8225 25.52 97.3239 25.744L96.5879 27.568C96.1612 27.3867 95.7292 27.248 95.2919 27.152C94.8652 27.056 94.4652 26.992 94.0919 26.96V29.264C94.6679 29.4773 95.2172 29.712 95.7399 29.968C96.2625 30.2133 96.6839 30.528 97.0039 30.912C97.3345 31.296 97.4999 31.8027 97.4999 32.432C97.4999 33.2107 97.2172 33.8613 96.6519 34.384C96.0865 34.9067 95.2332 35.2213 94.0919 35.328V36.928H93.0199V35.36ZM94.0919 33.472C94.4545 33.408 94.7212 33.3013 94.8919 33.152C95.0625 32.992 95.1479 32.7893 95.1479 32.544C95.1479 32.3947 95.1052 32.2667 95.0199 32.16C94.9452 32.0427 94.8279 31.936 94.6679 31.84C94.5185 31.7333 94.3265 31.6267 94.0919 31.52V33.472ZM93.0199 26.992C92.8065 27.024 92.6252 27.0773 92.4759 27.152C92.3265 27.216 92.2092 27.3067 92.1239 27.424C92.0492 27.5307 92.0119 27.6587 92.0119 27.808C92.0119 27.9573 92.0439 28.0907 92.1079 28.208C92.1825 28.3147 92.2945 28.4213 92.4439 28.528C92.5932 28.624 92.7852 28.7253 93.0199 28.832V26.992ZM102.834 26.625V29.75H108.303V31.3125H109.866V34.4375H108.303V36H98.9281V34.4375H106.741V31.3125H98.9281V25.0625H109.866V26.625H102.834ZM113.791 25.0625H121.603V26.625H123.166V34.4375H121.603V36H113.791V34.4375H112.228V26.625H113.791V25.0625ZM115.353 26.625V34.4375H118.478V26.625H115.353ZM130.216 25.0625V28.1875H131.778V26.625H133.341V25.0625H136.466V26.625H134.903V28.1875H133.341V29.75H131.778V31.3125H134.903V32.875H136.466V36H131.778V32.875H130.216V31.3125H128.653V36H125.528V25.0625H130.216Z" fill="white"/>
<path d="M93.0199 35.36H94.5199V33.9054L93.066 33.8607L93.0199 35.36ZM91.1639 35.168L90.8476 36.6343L90.8614 36.6373L90.8753 36.64L91.1639 35.168ZM89.6759 34.688H88.1759V35.6558L89.0576 36.0547L89.6759 34.688ZM89.6759 32.624L90.3335 31.2758L88.1759 30.2233V32.624H89.6759ZM91.2599 33.216L90.838 34.6554L90.8494 34.6588L90.861 34.662L91.2599 33.216ZM93.0199 33.52L92.9335 35.0175L94.5199 35.109V33.52H93.0199ZM93.0199 31.104H94.5199V30.0852L93.5728 29.7096L93.0199 31.104ZM91.4359 30.4L90.7386 31.7281L90.7453 31.7316L90.7521 31.7351L91.4359 30.4ZM90.3959 29.696L89.3352 30.7567L89.3573 30.7787L89.3803 30.7999L90.3959 29.696ZM89.8359 28.864L88.4334 29.396L88.4365 29.4042L88.4397 29.4125L89.8359 28.864ZM90.0759 26.432L88.8642 25.5478L88.8599 25.5538L90.0759 26.432ZM91.2599 25.488L90.6349 24.1244L90.624 24.1295L91.2599 25.488ZM93.0199 25.056L93.1405 26.5511L94.5199 26.4399V25.056H93.0199ZM93.0199 23.856V22.356H91.5199V23.856H93.0199ZM94.0919 23.856H95.5919V22.356H94.0919V23.856ZM94.0919 25.024H92.5919V26.4714L94.0383 26.523L94.0919 25.024ZM95.7719 25.232L95.4433 26.6956L95.4496 26.697L95.7719 25.232ZM97.3239 25.744L98.7149 26.3053L99.256 24.9644L97.9358 24.3745L97.3239 25.744ZM96.5879 27.568L96.0012 28.9485L97.4072 29.5461L97.9789 28.1293L96.5879 27.568ZM95.2919 27.152L94.9626 28.6154L94.9703 28.6171L95.2919 27.152ZM94.0919 26.96L94.22 25.4655L92.5919 25.3259V26.96H94.0919ZM94.0919 29.264H92.5919V30.308L93.5709 30.6706L94.0919 29.264ZM95.7399 29.968L95.0801 31.3151L95.0912 31.3206L95.1025 31.3259L95.7399 29.968ZM97.0039 30.912L95.8515 31.8723L95.8593 31.8816L95.8672 31.8908L97.0039 30.912ZM96.6519 34.384L95.6336 33.2826H95.6336L96.6519 34.384ZM94.0919 35.328L93.9523 33.8345L92.5919 33.9616V35.328H94.0919ZM94.0919 36.928V38.428H95.5919V36.928H94.0919ZM93.0199 36.928H91.5199V38.428H93.0199V36.928ZM94.0919 33.472H92.5919V35.2599L94.3526 34.9492L94.0919 33.472ZM94.8919 33.152L95.8796 34.2809L95.899 34.2639L95.9178 34.2463L94.8919 33.152ZM95.0199 32.16L93.7544 32.9653L93.7979 33.0337L93.8486 33.097L95.0199 32.16ZM94.6679 31.84L93.796 33.0606L93.8448 33.0954L93.8961 33.1262L94.6679 31.84ZM94.0919 31.52L94.7126 30.1545L92.5919 29.1905V31.52H94.0919ZM93.0199 26.992H94.5199V25.2502L92.7974 25.5086L93.0199 26.992ZM92.4759 27.152L93.0668 28.5307L93.1073 28.5134L93.1467 28.4936L92.4759 27.152ZM92.1239 27.424L90.9108 26.5417L90.9028 26.5527L90.895 26.5638L92.1239 27.424ZM92.1079 28.208L90.791 28.9263L90.8311 28.9997L90.879 29.0682L92.1079 28.208ZM92.4439 28.528L91.572 29.7486L91.6019 29.7699L91.6327 29.7898L92.4439 28.528ZM93.0199 28.832L92.3992 30.1975L94.5199 31.1615V28.832H93.0199ZM93.0199 35.36L93.066 33.8607C92.4348 33.8413 91.8996 33.7837 91.4525 33.696L91.1639 35.168L90.8753 36.64C91.5161 36.7656 92.2183 36.836 92.9737 36.8593L93.0199 35.36ZM91.1639 35.168L91.4801 33.7017C91.0267 33.6039 90.6336 33.4749 90.2941 33.3213L89.6759 34.688L89.0576 36.0547C89.6142 36.3064 90.2131 36.4974 90.8476 36.6343L91.1639 35.168ZM89.6759 34.688H91.1759V32.624H89.6759H88.1759V34.688H89.6759ZM89.6759 32.624L89.0182 33.9722C89.5513 34.2322 90.1626 34.4575 90.838 34.6554L91.2599 33.216L91.6818 31.7766C91.1198 31.6118 90.6751 31.4425 90.3335 31.2758L89.6759 32.624ZM91.2599 33.216L90.861 34.662C91.5664 34.8566 92.2583 34.9786 92.9335 35.0175L93.0199 33.52L93.1063 32.0225C92.6721 31.9974 92.1907 31.9168 91.6588 31.77L91.2599 33.216ZM93.0199 33.52H94.5199V31.104H93.0199H91.5199V33.52H93.0199ZM93.0199 31.104L93.5728 29.7096C92.9842 29.4762 92.5025 29.261 92.1197 29.0649L91.4359 30.4L90.7521 31.7351C91.2439 31.987 91.8182 32.2411 92.4669 32.4984L93.0199 31.104ZM91.4359 30.4L92.1331 29.0719C91.7864 28.8899 91.5566 28.7257 91.4115 28.5921L90.3959 29.696L89.3803 30.7999C89.7684 31.157 90.232 31.4621 90.7386 31.7281L91.4359 30.4ZM90.3959 29.696L91.4565 28.6353C91.3277 28.5065 91.2648 28.399 91.232 28.3155L89.8359 28.864L88.4397 29.4125C88.6416 29.9263 88.9521 30.3735 89.3352 30.7567L90.3959 29.696ZM89.8359 28.864L91.2384 28.332C91.1966 28.2219 91.1599 28.0551 91.1599 27.808H89.6599H88.1599C88.1599 28.3502 88.2405 28.8874 88.4334 29.396L89.8359 28.864ZM89.6599 27.808H91.1599C91.1599 27.5485 91.222 27.4069 91.2919 27.3102L90.0759 26.432L88.8599 25.5538C88.375 26.2251 88.1599 27.0008 88.1599 27.808H89.6599ZM90.0759 26.432L91.2876 27.3162C91.4078 27.1515 91.5924 26.9885 91.8958 26.8465L91.2599 25.488L90.624 24.1295C89.9247 24.4568 89.32 24.9232 88.8642 25.5478L90.0759 26.432ZM91.2599 25.488L91.8849 26.8516C92.2122 26.7016 92.6233 26.5929 93.1405 26.5511L93.0199 25.056L92.8993 23.5609C92.0938 23.6258 91.3316 23.8051 90.6349 24.1244L91.2599 25.488ZM93.0199 25.056H94.5199V23.856H93.0199H91.5199V25.056H93.0199ZM93.0199 23.856V25.356H94.0919V23.856V22.356H93.0199V23.856ZM94.0919 23.856H92.5919V25.024H94.0919H95.5919V23.856H94.0919ZM94.0919 25.024L94.0383 26.523C94.5536 26.5414 95.0207 26.6007 95.4433 26.6956L95.7719 25.232L96.1004 23.7684C95.4777 23.6286 94.8248 23.5492 94.1454 23.525L94.0919 25.024ZM95.7719 25.232L95.4496 26.697C95.8828 26.7923 96.3032 26.9309 96.712 27.1135L97.3239 25.744L97.9358 24.3745C97.3419 24.1091 96.7276 23.9064 96.0942 23.767L95.7719 25.232ZM97.3239 25.744L95.9328 25.1827L95.1968 27.0067L96.5879 27.568L97.9789 28.1293L98.7149 26.3053L97.3239 25.744ZM96.5879 27.568L97.1746 26.1875C96.6654 25.9711 96.1448 25.8035 95.6135 25.6869L95.2919 27.152L94.9703 28.6171C95.3136 28.6925 95.657 28.8022 96.0012 28.9485L96.5879 27.568ZM95.2919 27.152L95.6211 25.6886C95.1389 25.5801 94.6711 25.5041 94.22 25.4655L94.0919 26.96L93.9638 28.4545C94.2594 28.4799 94.5916 28.5319 94.9626 28.6154L95.2919 27.152ZM94.0919 26.96H92.5919V29.264H94.0919H95.5919V26.96H94.0919ZM94.0919 29.264L93.5709 30.6706C94.1022 30.8674 94.6051 31.0824 95.0801 31.3151L95.7399 29.968L96.3997 28.6209C95.8294 28.3416 95.2335 28.0873 94.6128 27.8574L94.0919 29.264ZM95.7399 29.968L95.1025 31.3259C95.4572 31.4923 95.6923 31.6811 95.8515 31.8723L97.0039 30.912L98.1562 29.9517C97.6755 29.3749 97.0679 28.9343 96.3772 28.6101L95.7399 29.968ZM97.0039 30.912L95.8672 31.8908C95.9108 31.9413 95.9999 32.0719 95.9999 32.432H97.4999H98.9999C98.9999 31.5334 98.7583 30.6507 98.1405 29.9332L97.0039 30.912ZM97.4999 32.432H95.9999C95.9999 32.7978 95.8879 33.0475 95.6336 33.2826L96.6519 34.384L97.6702 35.4854C98.5465 34.6752 98.9999 33.6235 98.9999 32.432H97.4999ZM96.6519 34.384L95.6336 33.2826C95.403 33.4958 94.9188 33.7442 93.9523 33.8345L94.0919 35.328L94.2315 36.8215C95.5476 36.6985 96.7701 36.3175 97.6702 35.4854L96.6519 34.384ZM94.0919 35.328H92.5919V36.928H94.0919H95.5919V35.328H94.0919ZM94.0919 36.928V35.428H93.0199V36.928V38.428H94.0919V36.928ZM93.0199 36.928H94.5199V35.36H93.0199H91.5199V36.928H93.0199ZM94.0919 33.472L94.3526 34.9492C94.8334 34.8643 95.4118 34.6902 95.8796 34.2809L94.8919 33.152L93.9041 32.0231C93.9404 31.9914 93.9704 31.9718 93.9881 31.9615C94.0056 31.9512 94.0132 31.9487 94.0068 31.9513C94.0004 31.9538 93.9834 31.9601 93.9533 31.9683C93.9233 31.9764 93.883 31.9857 93.8312 31.9948L94.0919 33.472ZM94.8919 33.152L95.9178 34.2463C96.4071 33.7876 96.6479 33.1812 96.6479 32.544H95.1479H93.6479C93.6479 32.4899 93.658 32.401 93.7014 32.2979C93.7455 32.1932 93.8078 32.1122 93.866 32.0577L94.8919 33.152ZM95.1479 32.544H96.6479C96.6479 32.0879 96.5095 31.6209 96.1912 31.223L95.0199 32.16L93.8486 33.097C93.7821 33.0139 93.7282 32.9163 93.6928 32.8103C93.6581 32.706 93.6479 32.6135 93.6479 32.544H95.1479ZM95.0199 32.16L96.2854 31.3547C96.0505 30.9856 95.7342 30.7305 95.4396 30.5538L94.6679 31.84L93.8961 33.1262C93.9215 33.1415 93.8399 33.0998 93.7544 32.9653L95.0199 32.16ZM94.6679 31.84L95.5397 30.6194C95.2871 30.4389 95.003 30.2865 94.7126 30.1545L94.0919 31.52L93.4712 32.8855C93.65 32.9669 93.75 33.0277 93.796 33.0606L94.6679 31.84ZM94.0919 31.52H92.5919V33.472H94.0919H95.5919V31.52H94.0919ZM93.0199 26.992L92.7974 25.5086C92.4711 25.5575 92.1297 25.648 91.8051 25.8104L92.4759 27.152L93.1467 28.4936C93.1323 28.5008 93.1307 28.4999 93.1471 28.495C93.1635 28.4902 93.1943 28.4826 93.2424 28.4754L93.0199 26.992ZM92.4759 27.152L91.885 25.7733C91.5178 25.9306 91.1735 26.1805 90.9108 26.5417L92.1239 27.424L93.337 28.3063C93.245 28.4328 93.1353 28.5014 93.0668 28.5307L92.4759 27.152ZM92.1239 27.424L90.895 26.5638C90.6188 26.9584 90.5119 27.3977 90.5119 27.808H92.0119H93.5119C93.5119 27.9197 93.4796 28.103 93.3527 28.2842L92.1239 27.424ZM92.0119 27.808H90.5119C90.5119 28.1783 90.5933 28.5637 90.791 28.9263L92.1079 28.208L93.4247 27.4897C93.4945 27.6176 93.5119 27.7363 93.5119 27.808H92.0119ZM92.1079 28.208L90.879 29.0682C91.0824 29.3587 91.3363 29.5802 91.572 29.7486L92.4439 28.528L93.3157 27.3074C93.2881 27.2877 93.279 27.2786 93.2824 27.2818C93.2855 27.2848 93.3075 27.306 93.3367 27.3478L92.1079 28.208ZM92.4439 28.528L91.6327 29.7898C91.8634 29.9381 92.1252 30.073 92.3992 30.1975L93.0199 28.832L93.6406 27.4665C93.4452 27.3776 93.323 27.3099 93.255 27.2662L92.4439 28.528ZM93.0199 28.832H94.5199V26.992H93.0199H91.5199V28.832H93.0199ZM102.834 26.625V25.125H101.334V26.625H102.834ZM102.834 29.75H101.334V31.25H102.834V29.75ZM108.303 29.75H109.803V28.25H108.303V29.75ZM108.303 31.3125H106.803V32.8125H108.303V31.3125ZM109.866 31.3125H111.366V29.8125H109.866V31.3125ZM109.866 34.4375V35.9375H111.366V34.4375H109.866ZM108.303 34.4375V32.9375H106.803V34.4375H108.303ZM108.303 36V37.5H109.803V36H108.303ZM98.9281 36H97.4281V37.5H98.9281V36ZM98.9281 34.4375V32.9375H97.4281V34.4375H98.9281ZM106.741 34.4375V35.9375H108.241V34.4375H106.741ZM106.741 31.3125H108.241V29.8125H106.741V31.3125ZM98.9281 31.3125H97.4281V32.8125H98.9281V31.3125ZM98.9281 25.0625V23.5625H97.4281V25.0625H98.9281ZM109.866 25.0625H111.366V23.5625H109.866V25.0625ZM109.866 26.625V28.125H111.366V26.625H109.866ZM102.834 26.625H101.334V29.75H102.834H104.334V26.625H102.834ZM102.834 29.75V31.25H108.303V29.75V28.25H102.834V29.75ZM108.303 29.75H106.803V31.3125H108.303H109.803V29.75H108.303ZM108.303 31.3125V32.8125H109.866V31.3125V29.8125H108.303V31.3125ZM109.866 31.3125H108.366V34.4375H109.866H111.366V31.3125H109.866ZM109.866 34.4375V32.9375H108.303V34.4375V35.9375H109.866V34.4375ZM108.303 34.4375H106.803V36H108.303H109.803V34.4375H108.303ZM108.303 36V34.5H98.9281V36V37.5H108.303V36ZM98.9281 36H100.428V34.4375H98.9281H97.4281V36H98.9281ZM98.9281 34.4375V35.9375H106.741V34.4375V32.9375H98.9281V34.4375ZM106.741 34.4375H108.241V31.3125H106.741H105.241V34.4375H106.741ZM106.741 31.3125V29.8125H98.9281V31.3125V32.8125H106.741V31.3125ZM98.9281 31.3125H100.428V25.0625H98.9281H97.4281V31.3125H98.9281ZM98.9281 25.0625V26.5625H109.866V25.0625V23.5625H98.9281V25.0625ZM109.866 25.0625H108.366V26.625H109.866H111.366V25.0625H109.866ZM109.866 26.625V25.125H102.834V26.625V28.125H109.866V26.625ZM113.791 25.0625V23.5625H112.291V25.0625H113.791ZM121.603 25.0625H123.103V23.5625H121.603V25.0625ZM121.603 26.625H120.103V28.125H121.603V26.625ZM123.166 26.625H124.666V25.125H123.166V26.625ZM123.166 34.4375V35.9375H124.666V34.4375H123.166ZM121.603 34.4375V32.9375H120.103V34.4375H121.603ZM121.603 36V37.5H123.103V36H121.603ZM113.791 36H112.291V37.5H113.791V36ZM113.791 34.4375H115.291V32.9375H113.791V34.4375ZM112.228 34.4375H110.728V35.9375H112.228V34.4375ZM112.228 26.625V25.125H110.728V26.625H112.228ZM113.791 26.625V28.125H115.291V26.625H113.791ZM115.353 26.625V25.125H113.853V26.625H115.353ZM115.353 34.4375H113.853V35.9375H115.353V34.4375ZM118.478 34.4375V35.9375H119.978V34.4375H118.478ZM118.478 26.625H119.978V25.125H118.478V26.625ZM113.791 25.0625V26.5625H121.603V25.0625V23.5625H113.791V25.0625ZM121.603 25.0625H120.103V26.625H121.603H123.103V25.0625H121.603ZM121.603 26.625V28.125H123.166V26.625V25.125H121.603V26.625ZM123.166 26.625H121.666V34.4375H123.166H124.666V26.625H123.166ZM123.166 34.4375V32.9375H121.603V34.4375V35.9375H123.166V34.4375ZM121.603 34.4375H120.103V36H121.603H123.103V34.4375H121.603ZM121.603 36V34.5H113.791V36V37.5H121.603V36ZM113.791 36H115.291V34.4375H113.791H112.291V36H113.791ZM113.791 34.4375V32.9375H112.228V34.4375V35.9375H113.791V34.4375ZM112.228 34.4375H113.728V26.625H112.228H110.728V34.4375H112.228ZM112.228 26.625V28.125H113.791V26.625V25.125H112.228V26.625ZM113.791 26.625H115.291V25.0625H113.791H112.291V26.625H113.791ZM115.353 26.625H113.853V34.4375H115.353H116.853V26.625H115.353ZM115.353 34.4375V35.9375H118.478V34.4375V32.9375H115.353V34.4375ZM118.478 34.4375H119.978V26.625H118.478H116.978V34.4375H118.478ZM118.478 26.625V25.125H115.353V26.625V28.125H118.478V26.625ZM130.216 25.0625H131.716V23.5625H130.216V25.0625ZM130.216 28.1875H128.716V29.6875H130.216V28.1875ZM131.778 28.1875V29.6875H133.278V28.1875H131.778ZM131.778 26.625V25.125H130.278V26.625H131.778ZM133.341 26.625V28.125H134.841V26.625H133.341ZM133.341 25.0625V23.5625H131.841V25.0625H133.341ZM136.466 25.0625H137.966V23.5625H136.466V25.0625ZM136.466 26.625V28.125H137.966V26.625H136.466ZM134.903 26.625V25.125H133.403V26.625H134.903ZM134.903 28.1875V29.6875H136.403V28.1875H134.903ZM133.341 28.1875V26.6875H131.841V28.1875H133.341ZM133.341 29.75V31.25H134.841V29.75H133.341ZM131.778 29.75V28.25H130.278V29.75H131.778ZM131.778 31.3125H130.278V32.8125H131.778V31.3125ZM134.903 31.3125H136.403V29.8125H134.903V31.3125ZM134.903 32.875H133.403V34.375H134.903V32.875ZM136.466 32.875H137.966V31.375H136.466V32.875ZM136.466 36V37.5H137.966V36H136.466ZM131.778 36H130.278V37.5H131.778V36ZM131.778 32.875H133.278V31.375H131.778V32.875ZM130.216 32.875H128.716V34.375H130.216V32.875ZM130.216 31.3125H131.716V29.8125H130.216V31.3125ZM128.653 31.3125V29.8125H127.153V31.3125H128.653ZM128.653 36V37.5H130.153V36H128.653ZM125.528 36H124.028V37.5H125.528V36ZM125.528 25.0625V23.5625H124.028V25.0625H125.528ZM130.216 25.0625H128.716V28.1875H130.216H131.716V25.0625H130.216ZM130.216 28.1875V29.6875H131.778V28.1875V26.6875H130.216V28.1875ZM131.778 28.1875H133.278V26.625H131.778H130.278V28.1875H131.778ZM131.778 26.625V28.125H133.341V26.625V25.125H131.778V26.625ZM133.341 26.625H134.841V25.0625H133.341H131.841V26.625H133.341ZM133.341 25.0625V26.5625H136.466V25.0625V23.5625H133.341V25.0625ZM136.466 25.0625H134.966V26.625H136.466H137.966V25.0625H136.466ZM136.466 26.625V25.125H134.903V26.625V28.125H136.466V26.625ZM134.903 26.625H133.403V28.1875H134.903H136.403V26.625H134.903ZM134.903 28.1875V26.6875H133.341V28.1875V29.6875H134.903V28.1875ZM133.341 28.1875H131.841V29.75H133.341H134.841V28.1875H133.341ZM133.341 29.75V28.25H131.778V29.75V31.25H133.341V29.75ZM131.778 29.75H130.278V31.3125H131.778H133.278V29.75H131.778ZM131.778 31.3125V32.8125H134.903V31.3125V29.8125H131.778V31.3125ZM134.903 31.3125H133.403V32.875H134.903H136.403V31.3125H134.903ZM134.903 32.875V34.375H136.466V32.875V31.375H134.903V32.875ZM136.466 32.875H134.966V36H136.466H137.966V32.875H136.466ZM136.466 36V34.5H131.778V36V37.5H136.466V36ZM131.778 36H133.278V32.875H131.778H130.278V36H131.778ZM131.778 32.875V31.375H130.216V32.875V34.375H131.778V32.875ZM130.216 32.875H131.716V31.3125H130.216H128.716V32.875H130.216ZM130.216 31.3125V29.8125H128.653V31.3125V32.8125H130.216V31.3125ZM128.653 31.3125H127.153V36H128.653H130.153V31.3125H128.653ZM128.653 36V34.5H125.528V36V37.5H128.653V36ZM125.528 36H127.028V25.0625H125.528H124.028V36H125.528ZM125.528 25.0625V26.5625H130.216V25.0625V23.5625H125.528V25.0625Z" fill="#222256" mask="url(#path-2-outside-1_43_10057)"/>
</g>
<g filter="url(#filter2_d_43_10057)">
<mask id="path-4-outside-2_43_10057" maskUnits="userSpaceOnUse" x="148.5" y="23" width="135" height="15" fill="black">
<rect fill="white" x="148.5" y="23" width="135" height="15"/>
<path d="M155.588 26.625V34.4375H161.838V36H152.463V34.4375H150.9V26.625H152.463V25.0625H161.838V26.625H155.588ZM164.2 36V26.625H165.763V25.0625H173.575V26.625H175.138V36H172.013V31.3125H168.888V36H164.2ZM168.888 26.8672V29.75H172.013V26.8672H168.888ZM177.5 32.875H180.625V34.4375H185.313V31.3125H179.063V29.75H177.5V26.625H179.063V25.0625H186.875V26.625H188.438V28.1875H185.313V26.625H182.188V29.75H186.875V31.3125H188.438V34.4375H186.875V36H179.063V34.4375H177.5V32.875ZM201.738 25.0625V36H198.613V31.3125H195.488V36H190.8V25.0625H195.488V29.75H198.613V25.0625H201.738ZM222.095 31.3125L222.111 36H217.4V25.0625H226.775V26.625H228.338V29.75H226.775V31.3125H222.095ZM222.088 26.625V29.75H225.213V26.625H222.088ZM230.7 36V25.0625H240.075V26.625H241.638V29.75H240.075V31.3125H241.638V36H236.95V31.3125H233.833V36H230.7ZM235.388 26.625V29.75H238.513V26.625H235.388ZM253.375 25.0625V26.625H251.812V34.4375H253.375V36H245.562V34.4375H247.125V26.625H245.562V25.0625H253.375ZM257.3 36V32.875H258.863V31.3125H260.425V29.75H261.988V28.1875H263.55V26.625H257.3V25.0625H268.238V28.1875H266.675V29.75H265.113V31.3125H263.55V32.875H261.988V34.4375H268.238V36H257.3ZM281.537 36H270.6V25.0625H281.537V26.625H275.287V29.75H279.975V31.3125H275.287V34.4375H281.537V36Z"/>
</mask>
<path d="M155.588 26.625V34.4375H161.838V36H152.463V34.4375H150.9V26.625H152.463V25.0625H161.838V26.625H155.588ZM164.2 36V26.625H165.763V25.0625H173.575V26.625H175.138V36H172.013V31.3125H168.888V36H164.2ZM168.888 26.8672V29.75H172.013V26.8672H168.888ZM177.5 32.875H180.625V34.4375H185.313V31.3125H179.063V29.75H177.5V26.625H179.063V25.0625H186.875V26.625H188.438V28.1875H185.313V26.625H182.188V29.75H186.875V31.3125H188.438V34.4375H186.875V36H179.063V34.4375H177.5V32.875ZM201.738 25.0625V36H198.613V31.3125H195.488V36H190.8V25.0625H195.488V29.75H198.613V25.0625H201.738ZM222.095 31.3125L222.111 36H217.4V25.0625H226.775V26.625H228.338V29.75H226.775V31.3125H222.095ZM222.088 26.625V29.75H225.213V26.625H222.088ZM230.7 36V25.0625H240.075V26.625H241.638V29.75H240.075V31.3125H241.638V36H236.95V31.3125H233.833V36H230.7ZM235.388 26.625V29.75H238.513V26.625H235.388ZM253.375 25.0625V26.625H251.812V34.4375H253.375V36H245.562V34.4375H247.125V26.625H245.562V25.0625H253.375ZM257.3 36V32.875H258.863V31.3125H260.425V29.75H261.988V28.1875H263.55V26.625H257.3V25.0625H268.238V28.1875H266.675V29.75H265.113V31.3125H263.55V32.875H261.988V34.4375H268.238V36H257.3ZM281.537 36H270.6V25.0625H281.537V26.625H275.287V29.75H279.975V31.3125H275.287V34.4375H281.537V36Z" fill="white"/>
<path d="M155.588 26.625V25.125H154.088V26.625H155.588ZM155.588 34.4375H154.088V35.9375H155.588V34.4375ZM161.838 34.4375H163.338V32.9375H161.838V34.4375ZM161.838 36V37.5H163.338V36H161.838ZM152.463 36H150.963V37.5H152.463V36ZM152.463 34.4375H153.963V32.9375H152.463V34.4375ZM150.9 34.4375H149.4V35.9375H150.9V34.4375ZM150.9 26.625V25.125H149.4V26.625H150.9ZM152.463 26.625V28.125H153.963V26.625H152.463ZM152.463 25.0625V23.5625H150.963V25.0625H152.463ZM161.838 25.0625H163.338V23.5625H161.838V25.0625ZM161.838 26.625V28.125H163.338V26.625H161.838ZM155.588 26.625H154.088V34.4375H155.588H157.088V26.625H155.588ZM155.588 34.4375V35.9375H161.838V34.4375V32.9375H155.588V34.4375ZM161.838 34.4375H160.338V36H161.838H163.338V34.4375H161.838ZM161.838 36V34.5H152.463V36V37.5H161.838V36ZM152.463 36H153.963V34.4375H152.463H150.963V36H152.463ZM152.463 34.4375V32.9375H150.9V34.4375V35.9375H152.463V34.4375ZM150.9 34.4375H152.4V26.625H150.9H149.4V34.4375H150.9ZM150.9 26.625V28.125H152.463V26.625V25.125H150.9V26.625ZM152.463 26.625H153.963V25.0625H152.463H150.963V26.625H152.463ZM152.463 25.0625V26.5625H161.838V25.0625V23.5625H152.463V25.0625ZM161.838 25.0625H160.338V26.625H161.838H163.338V25.0625H161.838ZM161.838 26.625V25.125H155.588V26.625V28.125H161.838V26.625ZM164.2 36H162.7V37.5H164.2V36ZM164.2 26.625V25.125H162.7V26.625H164.2ZM165.763 26.625V28.125H167.263V26.625H165.763ZM165.763 25.0625V23.5625H164.263V25.0625H165.763ZM173.575 25.0625H175.075V23.5625H173.575V25.0625ZM173.575 26.625H172.075V28.125H173.575V26.625ZM175.138 26.625H176.638V25.125H175.138V26.625ZM175.138 36V37.5H176.638V36H175.138ZM172.013 36H170.513V37.5H172.013V36ZM172.013 31.3125H173.513V29.8125H172.013V31.3125ZM168.888 31.3125V29.8125H167.388V31.3125H168.888ZM168.888 36V37.5H170.388V36H168.888ZM168.888 26.8672V25.3672H167.388V26.8672H168.888ZM168.888 29.75H167.388V31.25H168.888V29.75ZM172.013 29.75V31.25H173.513V29.75H172.013ZM172.013 26.8672H173.513V25.3672H172.013V26.8672ZM164.2 36H165.7V26.625H164.2H162.7V36H164.2ZM164.2 26.625V28.125H165.763V26.625V25.125H164.2V26.625ZM165.763 26.625H167.263V25.0625H165.763H164.263V26.625H165.763ZM165.763 25.0625V26.5625H173.575V25.0625V23.5625H165.763V25.0625ZM173.575 25.0625H172.075V26.625H173.575H175.075V25.0625H173.575ZM173.575 26.625V28.125H175.138V26.625V25.125H173.575V26.625ZM175.138 26.625H173.638V36H175.138H176.638V26.625H175.138ZM175.138 36V34.5H172.013V36V37.5H175.138V36ZM172.013 36H173.513V31.3125H172.013H170.513V36H172.013ZM172.013 31.3125V29.8125H168.888V31.3125V32.8125H172.013V31.3125ZM168.888 31.3125H167.388V36H168.888H170.388V31.3125H168.888ZM168.888 36V34.5H164.2V36V37.5H168.888V36ZM168.888 26.8672H167.388V29.75H168.888H170.388V26.8672H168.888ZM168.888 29.75V31.25H172.013V29.75V28.25H168.888V29.75ZM172.013 29.75H173.513V26.8672H172.013H170.513V29.75H172.013ZM172.013 26.8672V25.3672H168.888V26.8672V28.3672H172.013V26.8672ZM177.5 32.875V31.375H176V32.875H177.5ZM180.625 32.875H182.125V31.375H180.625V32.875ZM180.625 34.4375H179.125V35.9375H180.625V34.4375ZM185.312 34.4375V35.9375H186.812V34.4375H185.312ZM185.312 31.3125H186.812V29.8125H185.312V31.3125ZM179.063 31.3125H177.563V32.8125H179.063V31.3125ZM179.063 29.75H180.563V28.25H179.063V29.75ZM177.5 29.75H176V31.25H177.5V29.75ZM177.5 26.625V25.125H176V26.625H177.5ZM179.063 26.625V28.125H180.563V26.625H179.063ZM179.063 25.0625V23.5625H177.563V25.0625H179.063ZM186.875 25.0625H188.375V23.5625H186.875V25.0625ZM186.875 26.625H185.375V28.125H186.875V26.625ZM188.438 26.625H189.938V25.125H188.438V26.625ZM188.438 28.1875V29.6875H189.938V28.1875H188.438ZM185.312 28.1875H183.812V29.6875H185.312V28.1875ZM185.312 26.625H186.812V25.125H185.312V26.625ZM182.188 26.625V25.125H180.688V26.625H182.188ZM182.188 29.75H180.688V31.25H182.188V29.75ZM186.875 29.75H188.375V28.25H186.875V29.75ZM186.875 31.3125H185.375V32.8125H186.875V31.3125ZM188.438 31.3125H189.938V29.8125H188.438V31.3125ZM188.438 34.4375V35.9375H189.938V34.4375H188.438ZM186.875 34.4375V32.9375H185.375V34.4375H186.875ZM186.875 36V37.5H188.375V36H186.875ZM179.063 36H177.563V37.5H179.063V36ZM179.063 34.4375H180.563V32.9375H179.063V34.4375ZM177.5 34.4375H176V35.9375H177.5V34.4375ZM177.5 32.875V34.375H180.625V32.875V31.375H177.5V32.875ZM180.625 32.875H179.125V34.4375H180.625H182.125V32.875H180.625ZM180.625 34.4375V35.9375H185.312V34.4375V32.9375H180.625V34.4375ZM185.312 34.4375H186.812V31.3125H185.312H183.812V34.4375H185.312ZM185.312 31.3125V29.8125H179.063V31.3125V32.8125H185.312V31.3125ZM179.063 31.3125H180.563V29.75H179.063H177.563V31.3125H179.063ZM179.063 29.75V28.25H177.5V29.75V31.25H179.063V29.75ZM177.5 29.75H179V26.625H177.5H176V29.75H177.5ZM177.5 26.625V28.125H179.063V26.625V25.125H177.5V26.625ZM179.063 26.625H180.563V25.0625H179.063H177.563V26.625H179.063ZM179.063 25.0625V26.5625H186.875V25.0625V23.5625H179.063V25.0625ZM186.875 25.0625H185.375V26.625H186.875H188.375V25.0625H186.875ZM186.875 26.625V28.125H188.438V26.625V25.125H186.875V26.625ZM188.438 26.625H186.938V28.1875H188.438H189.938V26.625H188.438ZM188.438 28.1875V26.6875H185.312V28.1875V29.6875H188.438V28.1875ZM185.312 28.1875H186.812V26.625H185.312H183.812V28.1875H185.312ZM185.312 26.625V25.125H182.188V26.625V28.125H185.312V26.625ZM182.188 26.625H180.688V29.75H182.188H183.688V26.625H182.188ZM182.188 29.75V31.25H186.875V29.75V28.25H182.188V29.75ZM186.875 29.75H185.375V31.3125H186.875H188.375V29.75H186.875ZM186.875 31.3125V32.8125H188.438V31.3125V29.8125H186.875V31.3125ZM188.438 31.3125H186.938V34.4375H188.438H189.938V31.3125H188.438ZM188.438 34.4375V32.9375H186.875V34.4375V35.9375H188.438V34.4375ZM186.875 34.4375H185.375V36H186.875H188.375V34.4375H186.875ZM186.875 36V34.5H179.063V36V37.5H186.875V36ZM179.063 36H180.563V34.4375H179.063H177.563V36H179.063ZM179.063 34.4375V32.9375H177.5V34.4375V35.9375H179.063V34.4375ZM177.5 34.4375H179V32.875H177.5H176V34.4375H177.5ZM201.738 25.0625H203.238V23.5625H201.738V25.0625ZM201.738 36V37.5H203.238V36H201.738ZM198.613 36H197.113V37.5H198.613V36ZM198.613 31.3125H200.113V29.8125H198.613V31.3125ZM195.488 31.3125V29.8125H193.988V31.3125H195.488ZM195.488 36V37.5H196.988V36H195.488ZM190.8 36H189.3V37.5H190.8V36ZM190.8 25.0625V23.5625H189.3V25.0625H190.8ZM195.488 25.0625H196.988V23.5625H195.488V25.0625ZM195.488 29.75H193.988V31.25H195.488V29.75ZM198.613 29.75V31.25H200.113V29.75H198.613ZM198.613 25.0625V23.5625H197.113V25.0625H198.613ZM201.738 25.0625H200.238V36H201.738H203.238V25.0625H201.738ZM201.738 36V34.5H198.613V36V37.5H201.738V36ZM198.613 36H200.113V31.3125H198.613H197.113V36H198.613ZM198.613 31.3125V29.8125H195.488V31.3125V32.8125H198.613V31.3125ZM195.488 31.3125H193.988V36H195.488H196.988V31.3125H195.488ZM195.488 36V34.5H190.8V36V37.5H195.488V36ZM190.8 36H192.3V25.0625H190.8H189.3V36H190.8ZM190.8 25.0625V26.5625H195.488V25.0625V23.5625H190.8V25.0625ZM195.488 25.0625H193.988V29.75H195.488H196.988V25.0625H195.488ZM195.488 29.75V31.25H198.613V29.75V28.25H195.488V29.75ZM198.613 29.75H200.113V25.0625H198.613H197.113V29.75H198.613ZM198.613 25.0625V26.5625H201.738V25.0625V23.5625H198.613V25.0625ZM222.095 31.3125V29.8125H220.59L220.595 31.3175L222.095 31.3125ZM222.111 36V37.5H223.616L223.611 35.995L222.111 36ZM217.4 36H215.9V37.5H217.4V36ZM217.4 25.0625V23.5625H215.9V25.0625H217.4ZM226.775 25.0625H228.275V23.5625H226.775V25.0625ZM226.775 26.625H225.275V28.125H226.775V26.625ZM228.338 26.625H229.838V25.125H228.338V26.625ZM228.338 29.75V31.25H229.838V29.75H228.338ZM226.775 29.75V28.25H225.275V29.75H226.775ZM226.775 31.3125V32.8125H228.275V31.3125H226.775ZM222.088 26.625V25.125H220.588V26.625H222.088ZM222.088 29.75H220.588V31.25H222.088V29.75ZM225.213 29.75V31.25H226.713V29.75H225.213ZM225.213 26.625H226.713V25.125H225.213V26.625ZM222.095 31.3125L220.595 31.3175L220.611 36.005L222.111 36L223.611 35.995L223.595 31.3075L222.095 31.3125ZM222.111 36V34.5H217.4V36V37.5H222.111V36ZM217.4 36H218.9V25.0625H217.4H215.9V36H217.4ZM217.4 25.0625V26.5625H226.775V25.0625V23.5625H217.4V25.0625ZM226.775 25.0625H225.275V26.625H226.775H228.275V25.0625H226.775ZM226.775 26.625V28.125H228.338V26.625V25.125H226.775V26.625ZM228.338 26.625H226.838V29.75H228.338H229.838V26.625H228.338ZM228.338 29.75V28.25H226.775V29.75V31.25H228.338V29.75ZM226.775 29.75H225.275V31.3125H226.775H228.275V29.75H226.775ZM226.775 31.3125V29.8125H222.095V31.3125V32.8125H226.775V31.3125ZM222.088 26.625H220.588V29.75H222.088H223.588V26.625H222.088ZM222.088 29.75V31.25H225.213V29.75V28.25H222.088V29.75ZM225.213 29.75H226.713V26.625H225.213H223.713V29.75H225.213ZM225.213 26.625V25.125H222.088V26.625V28.125H225.213V26.625ZM230.7 36H229.2V37.5H230.7V36ZM230.7 25.0625V23.5625H229.2V25.0625H230.7ZM240.075 25.0625H241.575V23.5625H240.075V25.0625ZM240.075 26.625H238.575V28.125H240.075V26.625ZM241.638 26.625H243.138V25.125H241.638V26.625ZM241.638 29.75V31.25H243.138V29.75H241.638ZM240.075 29.75V28.25H238.575V29.75H240.075ZM240.075 31.3125H238.575V32.8125H240.075V31.3125ZM241.638 31.3125H243.138V29.8125H241.638V31.3125ZM241.638 36V37.5H243.138V36H241.638ZM236.95 36H235.45V37.5H236.95V36ZM236.95 31.3125H238.45V29.8125H236.95V31.3125ZM233.833 31.3125V29.8125H232.333V31.3125H233.833ZM233.833 36V37.5H235.333V36H233.833ZM235.388 26.625V25.125H233.888V26.625H235.388ZM235.388 29.75H233.888V31.25H235.388V29.75ZM238.513 29.75V31.25H240.013V29.75H238.513ZM238.513 26.625H240.013V25.125H238.513V26.625ZM230.7 36H232.2V25.0625H230.7H229.2V36H230.7ZM230.7 25.0625V26.5625H240.075V25.0625V23.5625H230.7V25.0625ZM240.075 25.0625H238.575V26.625H240.075H241.575V25.0625H240.075ZM240.075 26.625V28.125H241.638V26.625V25.125H240.075V26.625ZM241.638 26.625H240.138V29.75H241.638H243.138V26.625H241.638ZM241.638 29.75V28.25H240.075V29.75V31.25H241.638V29.75ZM240.075 29.75H238.575V31.3125H240.075H241.575V29.75H240.075ZM240.075 31.3125V32.8125H241.638V31.3125V29.8125H240.075V31.3125ZM241.638 31.3125H240.138V36H241.638H243.138V31.3125H241.638ZM241.638 36V34.5H236.95V36V37.5H241.638V36ZM236.95 36H238.45V31.3125H236.95H235.45V36H236.95ZM236.95 31.3125V29.8125H233.833V31.3125V32.8125H236.95V31.3125ZM233.833 31.3125H232.333V36H233.833H235.333V31.3125H233.833ZM233.833 36V34.5H230.7V36V37.5H233.833V36ZM235.388 26.625H233.888V29.75H235.388H236.888V26.625H235.388ZM235.388 29.75V31.25H238.513V29.75V28.25H235.388V29.75ZM238.513 29.75H240.013V26.625H238.513H237.013V29.75H238.513ZM238.513 26.625V25.125H235.388V26.625V28.125H238.513V26.625ZM253.375 25.0625H254.875V23.5625H253.375V25.0625ZM253.375 26.625V28.125H254.875V26.625H253.375ZM251.812 26.625V25.125H250.312V26.625H251.812ZM251.812 34.4375H250.312V35.9375H251.812V34.4375ZM253.375 34.4375H254.875V32.9375H253.375V34.4375ZM253.375 36V37.5H254.875V36H253.375ZM245.562 36H244.062V37.5H245.562V36ZM245.562 34.4375V32.9375H244.062V34.4375H245.562ZM247.125 34.4375V35.9375H248.625V34.4375H247.125ZM247.125 26.625H248.625V25.125H247.125V26.625ZM245.562 26.625H244.062V28.125H245.562V26.625ZM245.562 25.0625V23.5625H244.062V25.0625H245.562ZM253.375 25.0625H251.875V26.625H253.375H254.875V25.0625H253.375ZM253.375 26.625V25.125H251.812V26.625V28.125H253.375V26.625ZM251.812 26.625H250.312V34.4375H251.812H253.312V26.625H251.812ZM251.812 34.4375V35.9375H253.375V34.4375V32.9375H251.812V34.4375ZM253.375 34.4375H251.875V36H253.375H254.875V34.4375H253.375ZM253.375 36V34.5H245.562V36V37.5H253.375V36ZM245.562 36H247.062V34.4375H245.562H244.062V36H245.562ZM245.562 34.4375V35.9375H247.125V34.4375V32.9375H245.562V34.4375ZM247.125 34.4375H248.625V26.625H247.125H245.625V34.4375H247.125ZM247.125 26.625V25.125H245.562V26.625V28.125H247.125V26.625ZM245.562 26.625H247.062V25.0625H245.562H244.062V26.625H245.562ZM245.562 25.0625V26.5625H253.375V25.0625V23.5625H245.562V25.0625ZM257.3 36H255.8V37.5H257.3V36ZM257.3 32.875V31.375H255.8V32.875H257.3ZM258.863 32.875V34.375H260.363V32.875H258.863ZM258.863 31.3125V29.8125H257.363V31.3125H258.863ZM260.425 31.3125V32.8125H261.925V31.3125H260.425ZM260.425 29.75V28.25H258.925V29.75H260.425ZM261.988 29.75V31.25H263.488V29.75H261.988ZM261.988 28.1875V26.6875H260.488V28.1875H261.988ZM263.55 28.1875V29.6875H265.05V28.1875H263.55ZM263.55 26.625H265.05V25.125H263.55V26.625ZM257.3 26.625H255.8V28.125H257.3V26.625ZM257.3 25.0625V23.5625H255.8V25.0625H257.3ZM268.238 25.0625H269.738V23.5625H268.238V25.0625ZM268.238 28.1875V29.6875H269.738V28.1875H268.238ZM266.675 28.1875V26.6875H265.175V28.1875H266.675ZM266.675 29.75V31.25H268.175V29.75H266.675ZM265.113 29.75V28.25H263.613V29.75H265.113ZM265.113 31.3125V32.8125H266.613V31.3125H265.113ZM263.55 31.3125V29.8125H262.05V31.3125H263.55ZM263.55 32.875V34.375H265.05V32.875H263.55ZM261.988 32.875V31.375H260.488V32.875H261.988ZM261.988 34.4375H260.488V35.9375H261.988V34.4375ZM268.238 34.4375H269.738V32.9375H268.238V34.4375ZM268.238 36V37.5H269.738V36H268.238ZM257.3 36H258.8V32.875H257.3H255.8V36H257.3ZM257.3 32.875V34.375H258.863V32.875V31.375H257.3V32.875ZM258.863 32.875H260.363V31.3125H258.863H257.363V32.875H258.863ZM258.863 31.3125V32.8125H260.425V31.3125V29.8125H258.863V31.3125ZM260.425 31.3125H261.925V29.75H260.425H258.925V31.3125H260.425ZM260.425 29.75V31.25H261.988V29.75V28.25H260.425V29.75ZM261.988 29.75H263.488V28.1875H261.988H260.488V29.75H261.988ZM261.988 28.1875V29.6875H263.55V28.1875V26.6875H261.988V28.1875ZM263.55 28.1875H265.05V26.625H263.55H262.05V28.1875H263.55ZM263.55 26.625V25.125H257.3V26.625V28.125H263.55V26.625ZM257.3 26.625H258.8V25.0625H257.3H255.8V26.625H257.3ZM257.3 25.0625V26.5625H268.238V25.0625V23.5625H257.3V25.0625ZM268.238 25.0625H266.738V28.1875H268.238H269.738V25.0625H268.238ZM268.238 28.1875V26.6875H266.675V28.1875V29.6875H268.238V28.1875ZM266.675 28.1875H265.175V29.75H266.675H268.175V28.1875H266.675ZM266.675 29.75V28.25H265.113V29.75V31.25H266.675V29.75ZM265.113 29.75H263.613V31.3125H265.113H266.613V29.75H265.113ZM265.113 31.3125V29.8125H263.55V31.3125V32.8125H265.113V31.3125ZM263.55 31.3125H262.05V32.875H263.55H265.05V31.3125H263.55ZM263.55 32.875V31.375H261.988V32.875V34.375H263.55V32.875ZM261.988 32.875H260.488V34.4375H261.988H263.488V32.875H261.988ZM261.988 34.4375V35.9375H268.238V34.4375V32.9375H261.988V34.4375ZM268.238 34.4375H266.738V36H268.238H269.738V34.4375H268.238ZM268.238 36V34.5H257.3V36V37.5H268.238V36ZM281.538 36V37.5H283.038V36H281.538ZM270.6 36H269.1V37.5H270.6V36ZM270.6 25.0625V23.5625H269.1V25.0625H270.6ZM281.538 25.0625H283.038V23.5625H281.538V25.0625ZM281.538 26.625V28.125H283.038V26.625H281.538ZM275.287 26.625V25.125H273.787V26.625H275.287ZM275.287 29.75H273.787V31.25H275.287V29.75ZM279.975 29.75H281.475V28.25H279.975V29.75ZM279.975 31.3125V32.8125H281.475V31.3125H279.975ZM275.287 31.3125V29.8125H273.787V31.3125H275.287ZM275.287 34.4375H273.787V35.9375H275.287V34.4375ZM281.538 34.4375H283.038V32.9375H281.538V34.4375ZM281.538 36V34.5H270.6V36V37.5H281.538V36ZM270.6 36H272.1V25.0625H270.6H269.1V36H270.6ZM270.6 25.0625V26.5625H281.538V25.0625V23.5625H270.6V25.0625ZM281.538 25.0625H280.038V26.625H281.538H283.038V25.0625H281.538ZM281.538 26.625V25.125H275.287V26.625V28.125H281.538V26.625ZM275.287 26.625H273.787V29.75H275.287H276.787V26.625H275.287ZM275.287 29.75V31.25H279.975V29.75V28.25H275.287V29.75ZM279.975 29.75H278.475V31.3125H279.975H281.475V29.75H279.975ZM279.975 31.3125V29.8125H275.287V31.3125V32.8125H279.975V31.3125ZM275.287 31.3125H273.787V34.4375H275.287H276.787V31.3125H275.287ZM275.287 34.4375V35.9375H281.538V34.4375V32.9375H275.287V34.4375ZM281.538 34.4375H280.038V36H281.538H283.038V34.4375H281.538Z" fill="#222256" mask="url(#path-4-outside-2_43_10057)"/>
</g>
<defs>
<filter id="filter0_dd_43_10057" x="2" y="1.5" width="368" height="63" filterUnits="userSpaceOnUse" color-interpolation-filters="sRGB">
<feFlood flood-opacity="0" result="BackgroundImageFix"/>
<feColorMatrix in="SourceAlpha" type="matrix" values="0 0 0 0 0 0 0 0 0 0 0 0 0 0 0 0 0 0 127 0" result="hardAlpha"/>
<feOffset dy="4"/>
<feComposite in2="hardAlpha" operator="out"/>
<feColorMatrix type="matrix" values="0 0 0 0 1 0 0 0 0 0.447059 0 0 0 0 0.152941 0 0 0 1 0"/>
<feBlend mode="normal" in2="BackgroundImageFix" result="effect1_dropShadow_43_10057"/>
<feColorMatrix in="SourceAlpha" type="matrix" values="0 0 0 0 0 0 0 0 0 0 0 0 0 0 0 0 0 0 127 0" result="hardAlpha"/>
<feOffset dy="2"/>
<feComposite in2="hardAlpha" operator="out"/>
<feColorMatrix type="matrix" values="0 0 0 0 0 0 0 0 0 0 0 0 0 0 0 0 0 0 0.25 0"/>
<feBlend mode="normal" in2="effect1_dropShadow_43_10057" result="effect2_dropShadow_43_10057"/>
<feBlend mode="normal" in="SourceGraphic" in2="effect2_dropShadow_43_10057" result="shape"/>
</filter>
<filter id="filter1_d_43_10057" x="84.1599" y="22.356" width="57.8057" height="24.072" filterUnits="userSpaceOnUse" color-interpolation-filters="sRGB">
<feFlood flood-opacity="0" result="BackgroundImageFix"/>
<feColorMatrix in="SourceAlpha" type="matrix" values="0 0 0 0 0 0 0 0 0 0 0 0 0 0 0 0 0 0 127 0" result="hardAlpha"/>
<feOffset dy="4"/>
<feGaussianBlur stdDeviation="2"/>
<feComposite in2="hardAlpha" operator="out"/>
<feColorMatrix type="matrix" values="0 0 0 0 0 0 0 0 0 0 0 0 0 0 0 0 0 0 0.25 0"/>
<feBlend mode="normal" in2="BackgroundImageFix" result="effect1_dropShadow_43_10057"/>
<feBlend mode="normal" in="SourceGraphic" in2="effect1_dropShadow_43_10057" result="shape"/>
</filter>
<filter id="filter2_d_43_10057" x="149.4" y="23.5625" width="133.637" height="15.6193" filterUnits="userSpaceOnUse" color-interpolation-filters="sRGB">
<feFlood flood-opacity="0" result="BackgroundImageFix"/>
<feColorMatrix in="SourceAlpha" type="matrix" values="0 0 0 0 0 0 0 0 0 0 0 0 0 0 0 0 0 0 127 0" result="hardAlpha"/>
<feOffset dy="1.68182"/>
<feComposite in2="hardAlpha" operator="out"/>
<feColorMatrix type="matrix" values="0 0 0 0 1 0 0 0 0 0.447059 0 0 0 0 0.152941 0 0 0 1 0"/>
<feBlend mode="normal" in2="BackgroundImageFix" result="effect1_dropShadow_43_10057"/>
<feBlend mode="normal" in="SourceGraphic" in2="effect1_dropShadow_43_10057" result="shape"/>
</filter>
</defs>
</svg>
