<svg width="372" height="65" viewBox="0 0 372 65" fill="none" xmlns="http://www.w3.org/2000/svg">
<g filter="url(#filter0_dd_43_10057)">
<path d="M10.0089 7.97778V3H360.99V5.48889H368.5V55.2667H360.99V59H10.0089V53.1926H3.5V7.97778H10.0089Z" fill="#FFE14C"/>
<path d="M10.0089 7.97778V3H360.99V5.48889H368.5V55.2667H360.99V59H10.0089V53.1926H3.5V7.97778H10.0089Z" stroke="#C99810" stroke-width="3"/>
</g>
<g filter="url(#filter1_df_43_10057)">
<mask id="path-2-outside-1_43_10057" maskUnits="userSpaceOnUse" x="81" y="22" width="64" height="17" fill="black">
<rect fill="white" x="81" y="22" width="64" height="17"/>
<path d="M86.3699 35.36C85.6765 35.3387 85.0579 35.2747 84.5139 35.168C83.9699 35.0507 83.4739 34.8907 83.0259 34.688V32.624C83.4632 32.8373 83.9912 33.0347 84.6099 33.216C85.2285 33.3867 85.8152 33.488 86.3699 33.52V31.104C85.7512 30.8587 85.2232 30.624 84.7859 30.4C84.3592 30.176 84.0125 29.9413 83.7459 29.696C83.4899 29.44 83.3032 29.1627 83.1859 28.864C83.0685 28.5547 83.0099 28.2027 83.0099 27.808C83.0099 27.2747 83.1485 26.816 83.4259 26.432C83.7139 26.0373 84.1085 25.7227 84.6099 25.488C85.1219 25.2533 85.7085 25.1093 86.3699 25.056V23.856H87.4419V25.024C88.0392 25.0453 88.5992 25.1147 89.1219 25.232C89.6552 25.3493 90.1725 25.52 90.6739 25.744L89.9379 27.568C89.5112 27.3867 89.0792 27.248 88.6419 27.152C88.2152 27.056 87.8152 26.992 87.4419 26.96V29.264C88.0179 29.4773 88.5672 29.712 89.0899 29.968C89.6125 30.2133 90.0339 30.528 90.3539 30.912C90.6845 31.296 90.8499 31.8027 90.8499 32.432C90.8499 33.2107 90.5672 33.8613 90.0019 34.384C89.4365 34.9067 88.5832 35.2213 87.4419 35.328V36.928H86.3699V35.36ZM87.4419 33.472C87.8045 33.408 88.0712 33.3013 88.2419 33.152C88.4125 32.992 88.4979 32.7893 88.4979 32.544C88.4979 32.3947 88.4552 32.2667 88.3699 32.16C88.2952 32.0427 88.1779 31.936 88.0179 31.84C87.8685 31.7333 87.6765 31.6267 87.4419 31.52V33.472ZM86.3699 26.992C86.1565 27.024 85.9752 27.0773 85.8259 27.152C85.6765 27.216 85.5592 27.3067 85.4739 27.424C85.3992 27.5307 85.3619 27.6587 85.3619 27.808C85.3619 27.9573 85.3939 28.0907 85.4579 28.208C85.5325 28.3147 85.6445 28.4213 85.7939 28.528C85.9432 28.624 86.1352 28.7253 86.3699 28.832V26.992ZM95.4031 25.0625H101.653V36H96.9656V26.625H95.4031V25.0625ZM107.141 25.0625H114.953V26.625H116.516V34.4375H114.953V36H107.141V34.4375H105.578V26.625H107.141V25.0625ZM108.703 26.625V34.4375H111.828V26.625H108.703ZM120.441 25.0625H128.253V26.625H129.816V34.4375H128.253V36H120.441V34.4375H118.878V26.625H120.441V25.0625ZM122.003 26.625V34.4375H125.128V26.625H122.003ZM136.866 25.0625V28.1875H138.428V26.625H139.991V25.0625H143.116V26.625H141.553V28.1875H139.991V29.75H138.428V31.3125H141.553V32.875H143.116V36H138.428V32.875H136.866V31.3125H135.303V36H132.178V25.0625H136.866Z"/>
</mask>
<path d="M86.3699 35.36C85.6765 35.3387 85.0579 35.2747 84.5139 35.168C83.9699 35.0507 83.4739 34.8907 83.0259 34.688V32.624C83.4632 32.8373 83.9912 33.0347 84.6099 33.216C85.2285 33.3867 85.8152 33.488 86.3699 33.52V31.104C85.7512 30.8587 85.2232 30.624 84.7859 30.4C84.3592 30.176 84.0125 29.9413 83.7459 29.696C83.4899 29.44 83.3032 29.1627 83.1859 28.864C83.0685 28.5547 83.0099 28.2027 83.0099 27.808C83.0099 27.2747 83.1485 26.816 83.4259 26.432C83.7139 26.0373 84.1085 25.7227 84.6099 25.488C85.1219 25.2533 85.7085 25.1093 86.3699 25.056V23.856H87.4419V25.024C88.0392 25.0453 88.5992 25.1147 89.1219 25.232C89.6552 25.3493 90.1725 25.52 90.6739 25.744L89.9379 27.568C89.5112 27.3867 89.0792 27.248 88.6419 27.152C88.2152 27.056 87.8152 26.992 87.4419 26.96V29.264C88.0179 29.4773 88.5672 29.712 89.0899 29.968C89.6125 30.2133 90.0339 30.528 90.3539 30.912C90.6845 31.296 90.8499 31.8027 90.8499 32.432C90.8499 33.2107 90.5672 33.8613 90.0019 34.384C89.4365 34.9067 88.5832 35.2213 87.4419 35.328V36.928H86.3699V35.36ZM87.4419 33.472C87.8045 33.408 88.0712 33.3013 88.2419 33.152C88.4125 32.992 88.4979 32.7893 88.4979 32.544C88.4979 32.3947 88.4552 32.2667 88.3699 32.16C88.2952 32.0427 88.1779 31.936 88.0179 31.84C87.8685 31.7333 87.6765 31.6267 87.4419 31.52V33.472ZM86.3699 26.992C86.1565 27.024 85.9752 27.0773 85.8259 27.152C85.6765 27.216 85.5592 27.3067 85.4739 27.424C85.3992 27.5307 85.3619 27.6587 85.3619 27.808C85.3619 27.9573 85.3939 28.0907 85.4579 28.208C85.5325 28.3147 85.6445 28.4213 85.7939 28.528C85.9432 28.624 86.1352 28.7253 86.3699 28.832V26.992ZM95.4031 25.0625H101.653V36H96.9656V26.625H95.4031V25.0625ZM107.141 25.0625H114.953V26.625H116.516V34.4375H114.953V36H107.141V34.4375H105.578V26.625H107.141V25.0625ZM108.703 26.625V34.4375H111.828V26.625H108.703ZM120.441 25.0625H128.253V26.625H129.816V34.4375H128.253V36H120.441V34.4375H118.878V26.625H120.441V25.0625ZM122.003 26.625V34.4375H125.128V26.625H122.003ZM136.866 25.0625V28.1875H138.428V26.625H139.991V25.0625H143.116V26.625H141.553V28.1875H139.991V29.75H138.428V31.3125H141.553V32.875H143.116V36H138.428V32.875H136.866V31.3125H135.303V36H132.178V25.0625H136.866Z" fill="white"/>
<path d="M86.3699 35.36H87.8699V33.9054L86.416 33.8607L86.3699 35.36ZM84.5139 35.168L84.1976 36.6343L84.2114 36.6373L84.2253 36.64L84.5139 35.168ZM83.0259 34.688H81.5259V35.6558L82.4076 36.0547L83.0259 34.688ZM83.0259 32.624L83.6835 31.2758L81.5259 30.2233V32.624H83.0259ZM84.6099 33.216L84.188 34.6554L84.1994 34.6588L84.211 34.662L84.6099 33.216ZM86.3699 33.52L86.2835 35.0175L87.8699 35.109V33.52H86.3699ZM86.3699 31.104H87.8699V30.0852L86.9228 29.7096L86.3699 31.104ZM84.7859 30.4L84.0886 31.7281L84.0953 31.7316L84.1021 31.7351L84.7859 30.4ZM83.7459 29.696L82.6852 30.7567L82.7073 30.7787L82.7303 30.7999L83.7459 29.696ZM83.1859 28.864L81.7834 29.396L81.7865 29.4042L81.7897 29.4125L83.1859 28.864ZM83.4259 26.432L82.2142 25.5478L82.2099 25.5538L83.4259 26.432ZM84.6099 25.488L83.9849 24.1244L83.974 24.1295L84.6099 25.488ZM86.3699 25.056L86.4905 26.5511L87.8699 26.4399V25.056H86.3699ZM86.3699 23.856V22.356H84.8699V23.856H86.3699ZM87.4419 23.856H88.9419V22.356H87.4419V23.856ZM87.4419 25.024H85.9419V26.4714L87.3883 26.523L87.4419 25.024ZM89.1219 25.232L88.7933 26.6956L88.7996 26.697L89.1219 25.232ZM90.6739 25.744L92.0649 26.3053L92.606 24.9644L91.2858 24.3745L90.6739 25.744ZM89.9379 27.568L89.3512 28.9485L90.7572 29.5461L91.3289 28.1293L89.9379 27.568ZM88.6419 27.152L88.3126 28.6154L88.3203 28.6171L88.6419 27.152ZM87.4419 26.96L87.57 25.4655L85.9419 25.3259V26.96H87.4419ZM87.4419 29.264H85.9419V30.308L86.9209 30.6706L87.4419 29.264ZM89.0899 29.968L88.4301 31.3151L88.4412 31.3206L88.4525 31.3259L89.0899 29.968ZM90.3539 30.912L89.2015 31.8723L89.2093 31.8816L89.2172 31.8908L90.3539 30.912ZM90.0019 34.384L88.9836 33.2826L88.9836 33.2826L90.0019 34.384ZM87.4419 35.328L87.3023 33.8345L85.9419 33.9617V35.328H87.4419ZM87.4419 36.928V38.428H88.9419V36.928H87.4419ZM86.3699 36.928H84.8699V38.428H86.3699V36.928ZM87.4419 33.472H85.9419V35.2599L87.7026 34.9492L87.4419 33.472ZM88.2419 33.152L89.2296 34.2809L89.249 34.2639L89.2678 34.2463L88.2419 33.152ZM88.3699 32.16L87.1044 32.9653L87.1479 33.0337L87.1986 33.097L88.3699 32.16ZM88.0179 31.84L87.146 33.0606L87.1948 33.0954L87.2461 33.1262L88.0179 31.84ZM87.4419 31.52L88.0626 30.1545L85.9419 29.1905V31.52H87.4419ZM86.3699 26.992H87.8699V25.2502L86.1474 25.5086L86.3699 26.992ZM85.8259 27.152L86.4168 28.5307L86.4573 28.5134L86.4967 28.4936L85.8259 27.152ZM85.4739 27.424L84.2608 26.5417L84.2528 26.5527L84.245 26.5638L85.4739 27.424ZM85.4579 28.208L84.141 28.9263L84.1811 28.9997L84.229 29.0682L85.4579 28.208ZM85.7939 28.528L84.922 29.7486L84.9519 29.7699L84.9827 29.7898L85.7939 28.528ZM86.3699 28.832L85.7492 30.1975L87.8699 31.1615V28.832H86.3699ZM86.3699 35.36L86.416 33.8607C85.7848 33.8413 85.2496 33.7837 84.8025 33.696L84.5139 35.168L84.2253 36.64C84.8661 36.7656 85.5683 36.836 86.3237 36.8593L86.3699 35.36ZM84.5139 35.168L84.8301 33.7017C84.3767 33.6039 83.9836 33.4749 83.6441 33.3213L83.0259 34.688L82.4076 36.0547C82.9642 36.3064 83.5631 36.4974 84.1976 36.6343L84.5139 35.168ZM83.0259 34.688H84.5259V32.624H83.0259H81.5259V34.688H83.0259ZM83.0259 32.624L82.3682 33.9722C82.9013 34.2322 83.5126 34.4575 84.188 34.6554L84.6099 33.216L85.0318 31.7766C84.4698 31.6118 84.0251 31.4425 83.6835 31.2758L83.0259 32.624ZM84.6099 33.216L84.211 34.662C84.9164 34.8566 85.6083 34.9786 86.2835 35.0175L86.3699 33.52L86.4563 32.0225C86.0221 31.9974 85.5407 31.9168 85.0088 31.77L84.6099 33.216ZM86.3699 33.52H87.8699V31.104H86.3699H84.8699V33.52H86.3699ZM86.3699 31.104L86.9228 29.7096C86.3342 29.4762 85.8525 29.261 85.4697 29.0649L84.7859 30.4L84.1021 31.7351C84.5939 31.987 85.1682 32.2411 85.8169 32.4984L86.3699 31.104ZM84.7859 30.4L85.4831 29.0719C85.1364 28.8899 84.9066 28.7257 84.7615 28.5921L83.7459 29.696L82.7303 30.7999C83.1184 31.157 83.582 31.4621 84.0886 31.7281L84.7859 30.4ZM83.7459 29.696L84.8065 28.6353C84.6777 28.5065 84.6148 28.399 84.582 28.3155L83.1859 28.864L81.7897 29.4125C81.9916 29.9263 82.3021 30.3735 82.6852 30.7567L83.7459 29.696ZM83.1859 28.864L84.5884 28.332C84.5466 28.2219 84.5099 28.0551 84.5099 27.808H83.0099H81.5099C81.5099 28.3502 81.5905 28.8874 81.7834 29.396L83.1859 28.864ZM83.0099 27.808H84.5099C84.5099 27.5485 84.572 27.4069 84.6419 27.3102L83.4259 26.432L82.2099 25.5538C81.725 26.2251 81.5099 27.0008 81.5099 27.808H83.0099ZM83.4259 26.432L84.6376 27.3162C84.7578 27.1515 84.9424 26.9885 85.2458 26.8465L84.6099 25.488L83.974 24.1295C83.2747 24.4568 82.67 24.9232 82.2142 25.5478L83.4259 26.432ZM84.6099 25.488L85.2349 26.8516C85.5622 26.7016 85.9733 26.5929 86.4905 26.5511L86.3699 25.056L86.2493 23.5609C85.4438 23.6258 84.6816 23.8051 83.9849 24.1244L84.6099 25.488ZM86.3699 25.056H87.8699V23.856H86.3699H84.8699V25.056H86.3699ZM86.3699 23.856V25.356H87.4419V23.856V22.356H86.3699V23.856ZM87.4419 23.856H85.9419V25.024H87.4419H88.9419V23.856H87.4419ZM87.4419 25.024L87.3883 26.523C87.9036 26.5414 88.3707 26.6007 88.7933 26.6956L89.1219 25.232L89.4504 23.7684C88.8277 23.6286 88.1748 23.5492 87.4954 23.525L87.4419 25.024ZM89.1219 25.232L88.7996 26.697C89.2328 26.7923 89.6532 26.9309 90.062 27.1135L90.6739 25.744L91.2858 24.3745C90.6919 24.1091 90.0776 23.9064 89.4442 23.767L89.1219 25.232ZM90.6739 25.744L89.2828 25.1827L88.5468 27.0067L89.9379 27.568L91.3289 28.1293L92.0649 26.3053L90.6739 25.744ZM89.9379 27.568L90.5246 26.1875C90.0154 25.9711 89.4948 25.8035 88.9635 25.6869L88.6419 27.152L88.3203 28.6171C88.6636 28.6925 89.007 28.8022 89.3512 28.9485L89.9379 27.568ZM88.6419 27.152L88.9711 25.6886C88.4889 25.5801 88.0211 25.5041 87.57 25.4655L87.4419 26.96L87.3138 28.4545C87.6094 28.4799 87.9416 28.5319 88.3126 28.6154L88.6419 27.152ZM87.4419 26.96H85.9419V29.264H87.4419H88.9419V26.96H87.4419ZM87.4419 29.264L86.9209 30.6706C87.4522 30.8674 87.9551 31.0824 88.4301 31.3151L89.0899 29.968L89.7497 28.6209C89.1794 28.3416 88.5835 28.0873 87.9628 27.8574L87.4419 29.264ZM89.0899 29.968L88.4525 31.3259C88.8072 31.4923 89.0423 31.6811 89.2015 31.8723L90.3539 30.912L91.5062 29.9517C91.0255 29.3749 90.4179 28.9343 89.7272 28.6101L89.0899 29.968ZM90.3539 30.912L89.2172 31.8908C89.2608 31.9413 89.3499 32.0719 89.3499 32.432H90.8499H92.3499C92.3499 31.5334 92.1083 30.6507 91.4905 29.9332L90.3539 30.912ZM90.8499 32.432H89.3499C89.3499 32.7978 89.2379 33.0475 88.9836 33.2826L90.0019 34.384L91.0202 35.4854C91.8965 34.6752 92.3499 33.6235 92.3499 32.432H90.8499ZM90.0019 34.384L88.9836 33.2826C88.753 33.4958 88.2688 33.7442 87.3023 33.8345L87.4419 35.328L87.5815 36.8215C88.8976 36.6985 90.1201 36.3175 91.0202 35.4854L90.0019 34.384ZM87.4419 35.328H85.9419V36.928H87.4419H88.9419V35.328H87.4419ZM87.4419 36.928V35.428H86.3699V36.928V38.428H87.4419V36.928ZM86.3699 36.928H87.8699V35.36H86.3699H84.8699V36.928H86.3699ZM87.4419 33.472L87.7026 34.9492C88.1834 34.8643 88.7618 34.6902 89.2296 34.2809L88.2419 33.152L87.2541 32.0231C87.2904 31.9914 87.3204 31.9718 87.3381 31.9615C87.3556 31.9512 87.3632 31.9487 87.3568 31.9513C87.3504 31.9538 87.3334 31.9601 87.3033 31.9683C87.2733 31.9764 87.233 31.9857 87.1812 31.9948L87.4419 33.472ZM88.2419 33.152L89.2678 34.2463C89.7571 33.7876 89.9979 33.1812 89.9979 32.544H88.4979H86.9979C86.9979 32.4899 87.008 32.401 87.0514 32.2979C87.0955 32.1932 87.1578 32.1122 87.216 32.0577L88.2419 33.152ZM88.4979 32.544H89.9979C89.9979 32.0879 89.8595 31.6209 89.5412 31.223L88.3699 32.16L87.1986 33.097C87.1321 33.0139 87.0782 32.9163 87.0428 32.8103C87.0081 32.706 86.9979 32.6135 86.9979 32.544H88.4979ZM88.3699 32.16L89.6354 31.3547C89.4005 30.9856 89.0842 30.7305 88.7896 30.5538L88.0179 31.84L87.2461 33.1262C87.2715 33.1415 87.1899 33.0998 87.1044 32.9653L88.3699 32.16ZM88.0179 31.84L88.8897 30.6194C88.6371 30.4389 88.353 30.2865 88.0626 30.1545L87.4419 31.52L86.8212 32.8855C87 32.9669 87.1 33.0277 87.146 33.0606L88.0179 31.84ZM87.4419 31.52H85.9419V33.472H87.4419H88.9419V31.52H87.4419ZM86.3699 26.992L86.1474 25.5086C85.8211 25.5575 85.4797 25.648 85.1551 25.8104L85.8259 27.152L86.4967 28.4936C86.4823 28.5008 86.4807 28.4999 86.4971 28.495C86.5135 28.4902 86.5443 28.4826 86.5924 28.4754L86.3699 26.992ZM85.8259 27.152L85.235 25.7733C84.8678 25.9306 84.5235 26.1805 84.2608 26.5417L85.4739 27.424L86.687 28.3063C86.595 28.4328 86.4853 28.5014 86.4168 28.5307L85.8259 27.152ZM85.4739 27.424L84.245 26.5638C83.9688 26.9584 83.8619 27.3977 83.8619 27.808H85.3619H86.8619C86.8619 27.9197 86.8296 28.103 86.7027 28.2842L85.4739 27.424ZM85.3619 27.808H83.8619C83.8619 28.1783 83.9433 28.5637 84.141 28.9263L85.4579 28.208L86.7747 27.4897C86.8445 27.6176 86.8619 27.7363 86.8619 27.808H85.3619ZM85.4579 28.208L84.229 29.0682C84.4324 29.3587 84.6863 29.5802 84.922 29.7486L85.7939 28.528L86.6657 27.3074C86.6381 27.2877 86.629 27.2786 86.6324 27.2818C86.6355 27.2848 86.6575 27.306 86.6867 27.3478L85.4579 28.208ZM85.7939 28.528L84.9827 29.7898C85.2134 29.9381 85.4752 30.073 85.7492 30.1975L86.3699 28.832L86.9906 27.4665C86.7952 27.3776 86.673 27.3099 86.605 27.2662L85.7939 28.528ZM86.3699 28.832H87.8699V26.992H86.3699H84.8699V28.832H86.3699ZM95.4031 25.0625V23.5625H93.9031V25.0625H95.4031ZM101.653 25.0625H103.153V23.5625H101.653V25.0625ZM101.653 36V37.5H103.153V36H101.653ZM96.9656 36H95.4656V37.5H96.9656V36ZM96.9656 26.625H98.4656V25.125H96.9656V26.625ZM95.4031 26.625H93.9031V28.125H95.4031V26.625ZM95.4031 25.0625V26.5625H101.653V25.0625V23.5625H95.4031V25.0625ZM101.653 25.0625H100.153V36H101.653H103.153V25.0625H101.653ZM101.653 36V34.5H96.9656V36V37.5H101.653V36ZM96.9656 36H98.4656V26.625H96.9656H95.4656V36H96.9656ZM96.9656 26.625V25.125H95.4031V26.625V28.125H96.9656V26.625ZM95.4031 26.625H96.9031V25.0625H95.4031H93.9031V26.625H95.4031ZM107.141 25.0625V23.5625H105.641V25.0625H107.141ZM114.953 25.0625H116.453V23.5625H114.953V25.0625ZM114.953 26.625H113.453V28.125H114.953V26.625ZM116.516 26.625H118.016V25.125H116.516V26.625ZM116.516 34.4375V35.9375H118.016V34.4375H116.516ZM114.953 34.4375V32.9375H113.453V34.4375H114.953ZM114.953 36V37.5H116.453V36H114.953ZM107.141 36H105.641V37.5H107.141V36ZM107.141 34.4375H108.641V32.9375H107.141V34.4375ZM105.578 34.4375H104.078V35.9375H105.578V34.4375ZM105.578 26.625V25.125H104.078V26.625H105.578ZM107.141 26.625V28.125H108.641V26.625H107.141ZM108.703 26.625V25.125H107.203V26.625H108.703ZM108.703 34.4375H107.203V35.9375H108.703V34.4375ZM111.828 34.4375V35.9375H113.328V34.4375H111.828ZM111.828 26.625H113.328V25.125H111.828V26.625ZM107.141 25.0625V26.5625H114.953V25.0625V23.5625H107.141V25.0625ZM114.953 25.0625H113.453V26.625H114.953H116.453V25.0625H114.953ZM114.953 26.625V28.125H116.516V26.625V25.125H114.953V26.625ZM116.516 26.625H115.016V34.4375H116.516H118.016V26.625H116.516ZM116.516 34.4375V32.9375H114.953V34.4375V35.9375H116.516V34.4375ZM114.953 34.4375H113.453V36H114.953H116.453V34.4375H114.953ZM114.953 36V34.5H107.141V36V37.5H114.953V36ZM107.141 36H108.641V34.4375H107.141H105.641V36H107.141ZM107.141 34.4375V32.9375H105.578V34.4375V35.9375H107.141V34.4375ZM105.578 34.4375H107.078V26.625H105.578H104.078V34.4375H105.578ZM105.578 26.625V28.125H107.141V26.625V25.125H105.578V26.625ZM107.141 26.625H108.641V25.0625H107.141H105.641V26.625H107.141ZM108.703 26.625H107.203V34.4375H108.703H110.203V26.625H108.703ZM108.703 34.4375V35.9375H111.828V34.4375V32.9375H108.703V34.4375ZM111.828 34.4375H113.328V26.625H111.828H110.328V34.4375H111.828ZM111.828 26.625V25.125H108.703V26.625V28.125H111.828V26.625ZM120.441 25.0625V23.5625H118.941V25.0625H120.441ZM128.253 25.0625H129.753V23.5625H128.253V25.0625ZM128.253 26.625H126.753V28.125H128.253V26.625ZM129.816 26.625H131.316V25.125H129.816V26.625ZM129.816 34.4375V35.9375H131.316V34.4375H129.816ZM128.253 34.4375V32.9375H126.753V34.4375H128.253ZM128.253 36V37.5H129.753V36H128.253ZM120.441 36H118.941V37.5H120.441V36ZM120.441 34.4375H121.941V32.9375H120.441V34.4375ZM118.878 34.4375H117.378V35.9375H118.878V34.4375ZM118.878 26.625V25.125H117.378V26.625H118.878ZM120.441 26.625V28.125H121.941V26.625H120.441ZM122.003 26.625V25.125H120.503V26.625H122.003ZM122.003 34.4375H120.503V35.9375H122.003V34.4375ZM125.128 34.4375V35.9375H126.628V34.4375H125.128ZM125.128 26.625H126.628V25.125H125.128V26.625ZM120.441 25.0625V26.5625H128.253V25.0625V23.5625H120.441V25.0625ZM128.253 25.0625H126.753V26.625H128.253H129.753V25.0625H128.253ZM128.253 26.625V28.125H129.816V26.625V25.125H128.253V26.625ZM129.816 26.625H128.316V34.4375H129.816H131.316V26.625H129.816ZM129.816 34.4375V32.9375H128.253V34.4375V35.9375H129.816V34.4375ZM128.253 34.4375H126.753V36H128.253H129.753V34.4375H128.253ZM128.253 36V34.5H120.441V36V37.5H128.253V36ZM120.441 36H121.941V34.4375H120.441H118.941V36H120.441ZM120.441 34.4375V32.9375H118.878V34.4375V35.9375H120.441V34.4375ZM118.878 34.4375H120.378V26.625H118.878H117.378V34.4375H118.878ZM118.878 26.625V28.125H120.441V26.625V25.125H118.878V26.625ZM120.441 26.625H121.941V25.0625H120.441H118.941V26.625H120.441ZM122.003 26.625H120.503V34.4375H122.003H123.503V26.625H122.003ZM122.003 34.4375V35.9375H125.128V34.4375V32.9375H122.003V34.4375ZM125.128 34.4375H126.628V26.625H125.128H123.628V34.4375H125.128ZM125.128 26.625V25.125H122.003V26.625V28.125H125.128V26.625ZM136.866 25.0625H138.366V23.5625H136.866V25.0625ZM136.866 28.1875H135.366V29.6875H136.866V28.1875ZM138.428 28.1875V29.6875H139.928V28.1875H138.428ZM138.428 26.625V25.125H136.928V26.625H138.428ZM139.991 26.625V28.125H141.491V26.625H139.991ZM139.991 25.0625V23.5625H138.491V25.0625H139.991ZM143.116 25.0625H144.616V23.5625H143.116V25.0625ZM143.116 26.625V28.125H144.616V26.625H143.116ZM141.553 26.625V25.125H140.053V26.625H141.553ZM141.553 28.1875V29.6875H143.053V28.1875H141.553ZM139.991 28.1875V26.6875H138.491V28.1875H139.991ZM139.991 29.75V31.25H141.491V29.75H139.991ZM138.428 29.75V28.25H136.928V29.75H138.428ZM138.428 31.3125H136.928V32.8125H138.428V31.3125ZM141.553 31.3125H143.053V29.8125H141.553V31.3125ZM141.553 32.875H140.053V34.375H141.553V32.875ZM143.116 32.875H144.616V31.375H143.116V32.875ZM143.116 36V37.5H144.616V36H143.116ZM138.428 36H136.928V37.5H138.428V36ZM138.428 32.875H139.928V31.375H138.428V32.875ZM136.866 32.875H135.366V34.375H136.866V32.875ZM136.866 31.3125H138.366V29.8125H136.866V31.3125ZM135.303 31.3125V29.8125H133.803V31.3125H135.303ZM135.303 36V37.5H136.803V36H135.303ZM132.178 36H130.678V37.5H132.178V36ZM132.178 25.0625V23.5625H130.678V25.0625H132.178ZM136.866 25.0625H135.366V28.1875H136.866H138.366V25.0625H136.866ZM136.866 28.1875V29.6875H138.428V28.1875V26.6875H136.866V28.1875ZM138.428 28.1875H139.928V26.625H138.428H136.928V28.1875H138.428ZM138.428 26.625V28.125H139.991V26.625V25.125H138.428V26.625ZM139.991 26.625H141.491V25.0625H139.991H138.491V26.625H139.991ZM139.991 25.0625V26.5625H143.116V25.0625V23.5625H139.991V25.0625ZM143.116 25.0625H141.616V26.625H143.116H144.616V25.0625H143.116ZM143.116 26.625V25.125H141.553V26.625V28.125H143.116V26.625ZM141.553 26.625H140.053V28.1875H141.553H143.053V26.625H141.553ZM141.553 28.1875V26.6875H139.991V28.1875V29.6875H141.553V28.1875ZM139.991 28.1875H138.491V29.75H139.991H141.491V28.1875H139.991ZM139.991 29.75V28.25H138.428V29.75V31.25H139.991V29.75ZM138.428 29.75H136.928V31.3125H138.428H139.928V29.75H138.428ZM138.428 31.3125V32.8125H141.553V31.3125V29.8125H138.428V31.3125ZM141.553 31.3125H140.053V32.875H141.553H143.053V31.3125H141.553ZM141.553 32.875V34.375H143.116V32.875V31.375H141.553V32.875ZM143.116 32.875H141.616V36H143.116H144.616V32.875H143.116ZM143.116 36V34.5H138.428V36V37.5H143.116V36ZM138.428 36H139.928V32.875H138.428H136.928V36H138.428ZM138.428 32.875V31.375H136.866V32.875V34.375H138.428V32.875ZM136.866 32.875H138.366V31.3125H136.866H135.366V32.875H136.866ZM136.866 31.3125V29.8125H135.303V31.3125V32.8125H136.866V31.3125ZM135.303 31.3125H133.803V36H135.303H136.803V31.3125H135.303ZM135.303 36V34.5H132.178V36V37.5H135.303V36ZM132.178 36H133.678V25.0625H132.178H130.678V36H132.178ZM132.178 25.0625V26.5625H136.866V25.0625V23.5625H132.178V25.0625Z" fill="#222256" mask="url(#path-2-outside-1_43_10057)"/>
</g>
<g filter="url(#filter2_d_43_10057)">
<mask id="path-4-outside-2_43_10057" maskUnits="userSpaceOnUse" x="155" y="23" width="135" height="15" fill="black">
<rect fill="white" x="155" y="23" width="135" height="15"/>
<path d="M162.088 26.625V34.4375H168.338V36H158.963V34.4375H157.4V26.625H158.963V25.0625H168.338V26.625H162.088ZM170.7 36V26.625H172.263V25.0625H180.075V26.625H181.638V36H178.513V31.3125H175.388V36H170.7ZM175.388 26.8672V29.75H178.513V26.8672H175.388ZM184 32.875H187.125V34.4375H191.813V31.3125H185.563V29.75H184V26.625H185.563V25.0625H193.375V26.625H194.938V28.1875H191.813V26.625H188.688V29.75H193.375V31.3125H194.938V34.4375H193.375V36H185.563V34.4375H184V32.875ZM208.238 25.0625V36H205.113V31.3125H201.988V36H197.3V25.0625H201.988V29.75H205.113V25.0625H208.238ZM228.595 31.3125L228.611 36H223.9V25.0625H233.275V26.625H234.838V29.75H233.275V31.3125H228.595ZM228.588 26.625V29.75H231.713V26.625H228.588ZM237.2 36V25.0625H246.575V26.625H248.138V29.75H246.575V31.3125H248.138V36H243.45V31.3125H240.333V36H237.2ZM241.888 26.625V29.75H245.013V26.625H241.888ZM259.875 25.0625V26.625H258.312V34.4375H259.875V36H252.062V34.4375H253.625V26.625H252.062V25.0625H259.875ZM263.8 36V32.875H265.363V31.3125H266.925V29.75H268.488V28.1875H270.05V26.625H263.8V25.0625H274.738V28.1875H273.175V29.75H271.613V31.3125H270.05V32.875H268.488V34.4375H274.738V36H263.8ZM288.037 36H277.1V25.0625H288.037V26.625H281.787V29.75H286.475V31.3125H281.787V34.4375H288.037V36Z"/>
</mask>
<path d="M162.088 26.625V34.4375H168.338V36H158.963V34.4375H157.4V26.625H158.963V25.0625H168.338V26.625H162.088ZM170.7 36V26.625H172.263V25.0625H180.075V26.625H181.638V36H178.513V31.3125H175.388V36H170.7ZM175.388 26.8672V29.75H178.513V26.8672H175.388ZM184 32.875H187.125V34.4375H191.813V31.3125H185.563V29.75H184V26.625H185.563V25.0625H193.375V26.625H194.938V28.1875H191.813V26.625H188.688V29.75H193.375V31.3125H194.938V34.4375H193.375V36H185.563V34.4375H184V32.875ZM208.238 25.0625V36H205.113V31.3125H201.988V36H197.3V25.0625H201.988V29.75H205.113V25.0625H208.238ZM228.595 31.3125L228.611 36H223.9V25.0625H233.275V26.625H234.838V29.75H233.275V31.3125H228.595ZM228.588 26.625V29.75H231.713V26.625H228.588ZM237.2 36V25.0625H246.575V26.625H248.138V29.75H246.575V31.3125H248.138V36H243.45V31.3125H240.333V36H237.2ZM241.888 26.625V29.75H245.013V26.625H241.888ZM259.875 25.0625V26.625H258.312V34.4375H259.875V36H252.062V34.4375H253.625V26.625H252.062V25.0625H259.875ZM263.8 36V32.875H265.363V31.3125H266.925V29.75H268.488V28.1875H270.05V26.625H263.8V25.0625H274.738V28.1875H273.175V29.75H271.613V31.3125H270.05V32.875H268.488V34.4375H274.738V36H263.8ZM288.037 36H277.1V25.0625H288.037V26.625H281.787V29.75H286.475V31.3125H281.787V34.4375H288.037V36Z" fill="white"/>
<path d="M162.088 26.625V25.125H160.588V26.625H162.088ZM162.088 34.4375H160.588V35.9375H162.088V34.4375ZM168.338 34.4375H169.838V32.9375H168.338V34.4375ZM168.338 36V37.5H169.838V36H168.338ZM158.963 36H157.463V37.5H158.963V36ZM158.963 34.4375H160.463V32.9375H158.963V34.4375ZM157.4 34.4375H155.9V35.9375H157.4V34.4375ZM157.4 26.625V25.125H155.9V26.625H157.4ZM158.963 26.625V28.125H160.463V26.625H158.963ZM158.963 25.0625V23.5625H157.463V25.0625H158.963ZM168.338 25.0625H169.838V23.5625H168.338V25.0625ZM168.338 26.625V28.125H169.838V26.625H168.338ZM162.088 26.625H160.588V34.4375H162.088H163.588V26.625H162.088ZM162.088 34.4375V35.9375H168.338V34.4375V32.9375H162.088V34.4375ZM168.338 34.4375H166.838V36H168.338H169.838V34.4375H168.338ZM168.338 36V34.5H158.963V36V37.5H168.338V36ZM158.963 36H160.463V34.4375H158.963H157.463V36H158.963ZM158.963 34.4375V32.9375H157.4V34.4375V35.9375H158.963V34.4375ZM157.4 34.4375H158.9V26.625H157.4H155.9V34.4375H157.4ZM157.4 26.625V28.125H158.963V26.625V25.125H157.4V26.625ZM158.963 26.625H160.463V25.0625H158.963H157.463V26.625H158.963ZM158.963 25.0625V26.5625H168.338V25.0625V23.5625H158.963V25.0625ZM168.338 25.0625H166.838V26.625H168.338H169.838V25.0625H168.338ZM168.338 26.625V25.125H162.088V26.625V28.125H168.338V26.625ZM170.7 36H169.2V37.5H170.7V36ZM170.7 26.625V25.125H169.2V26.625H170.7ZM172.263 26.625V28.125H173.763V26.625H172.263ZM172.263 25.0625V23.5625H170.763V25.0625H172.263ZM180.075 25.0625H181.575V23.5625H180.075V25.0625ZM180.075 26.625H178.575V28.125H180.075V26.625ZM181.638 26.625H183.138V25.125H181.638V26.625ZM181.638 36V37.5H183.138V36H181.638ZM178.513 36H177.013V37.5H178.513V36ZM178.513 31.3125H180.013V29.8125H178.513V31.3125ZM175.388 31.3125V29.8125H173.888V31.3125H175.388ZM175.388 36V37.5H176.888V36H175.388ZM175.388 26.8672V25.3672H173.888V26.8672H175.388ZM175.388 29.75H173.888V31.25H175.388V29.75ZM178.513 29.75V31.25H180.013V29.75H178.513ZM178.513 26.8672H180.013V25.3672H178.513V26.8672ZM170.7 36H172.2V26.625H170.7H169.2V36H170.7ZM170.7 26.625V28.125H172.263V26.625V25.125H170.7V26.625ZM172.263 26.625H173.763V25.0625H172.263H170.763V26.625H172.263ZM172.263 25.0625V26.5625H180.075V25.0625V23.5625H172.263V25.0625ZM180.075 25.0625H178.575V26.625H180.075H181.575V25.0625H180.075ZM180.075 26.625V28.125H181.638V26.625V25.125H180.075V26.625ZM181.638 26.625H180.138V36H181.638H183.138V26.625H181.638ZM181.638 36V34.5H178.513V36V37.5H181.638V36ZM178.513 36H180.013V31.3125H178.513H177.013V36H178.513ZM178.513 31.3125V29.8125H175.388V31.3125V32.8125H178.513V31.3125ZM175.388 31.3125H173.888V36H175.388H176.888V31.3125H175.388ZM175.388 36V34.5H170.7V36V37.5H175.388V36ZM175.388 26.8672H173.888V29.75H175.388H176.888V26.8672H175.388ZM175.388 29.75V31.25H178.513V29.75V28.25H175.388V29.75ZM178.513 29.75H180.013V26.8672H178.513H177.013V29.75H178.513ZM178.513 26.8672V25.3672H175.388V26.8672V28.3672H178.513V26.8672ZM184 32.875V31.375H182.5V32.875H184ZM187.125 32.875H188.625V31.375H187.125V32.875ZM187.125 34.4375H185.625V35.9375H187.125V34.4375ZM191.813 34.4375V35.9375H193.313V34.4375H191.813ZM191.813 31.3125H193.313V29.8125H191.813V31.3125ZM185.563 31.3125H184.063V32.8125H185.563V31.3125ZM185.563 29.75H187.063V28.25H185.563V29.75ZM184 29.75H182.5V31.25H184V29.75ZM184 26.625V25.125H182.5V26.625H184ZM185.563 26.625V28.125H187.063V26.625H185.563ZM185.563 25.0625V23.5625H184.063V25.0625H185.563ZM193.375 25.0625H194.875V23.5625H193.375V25.0625ZM193.375 26.625H191.875V28.125H193.375V26.625ZM194.938 26.625H196.438V25.125H194.938V26.625ZM194.938 28.1875V29.6875H196.438V28.1875H194.938ZM191.813 28.1875H190.313V29.6875H191.813V28.1875ZM191.813 26.625H193.313V25.125H191.813V26.625ZM188.688 26.625V25.125H187.188V26.625H188.688ZM188.688 29.75H187.188V31.25H188.688V29.75ZM193.375 29.75H194.875V28.25H193.375V29.75ZM193.375 31.3125H191.875V32.8125H193.375V31.3125ZM194.938 31.3125H196.438V29.8125H194.938V31.3125ZM194.938 34.4375V35.9375H196.438V34.4375H194.938ZM193.375 34.4375V32.9375H191.875V34.4375H193.375ZM193.375 36V37.5H194.875V36H193.375ZM185.563 36H184.063V37.5H185.563V36ZM185.563 34.4375H187.063V32.9375H185.563V34.4375ZM184 34.4375H182.5V35.9375H184V34.4375ZM184 32.875V34.375H187.125V32.875V31.375H184V32.875ZM187.125 32.875H185.625V34.4375H187.125H188.625V32.875H187.125ZM187.125 34.4375V35.9375H191.813V34.4375V32.9375H187.125V34.4375ZM191.813 34.4375H193.313V31.3125H191.813H190.313V34.4375H191.813ZM191.813 31.3125V29.8125H185.563V31.3125V32.8125H191.813V31.3125ZM185.563 31.3125H187.063V29.75H185.563H184.063V31.3125H185.563ZM185.563 29.75V28.25H184V29.75V31.25H185.563V29.75ZM184 29.75H185.5V26.625H184H182.5V29.75H184ZM184 26.625V28.125H185.563V26.625V25.125H184V26.625ZM185.563 26.625H187.063V25.0625H185.563H184.063V26.625H185.563ZM185.563 25.0625V26.5625H193.375V25.0625V23.5625H185.563V25.0625ZM193.375 25.0625H191.875V26.625H193.375H194.875V25.0625H193.375ZM193.375 26.625V28.125H194.938V26.625V25.125H193.375V26.625ZM194.938 26.625H193.438V28.1875H194.938H196.438V26.625H194.938ZM194.938 28.1875V26.6875H191.813V28.1875V29.6875H194.938V28.1875ZM191.813 28.1875H193.313V26.625H191.813H190.313V28.1875H191.813ZM191.813 26.625V25.125H188.688V26.625V28.125H191.813V26.625ZM188.688 26.625H187.188V29.75H188.688H190.188V26.625H188.688ZM188.688 29.75V31.25H193.375V29.75V28.25H188.688V29.75ZM193.375 29.75H191.875V31.3125H193.375H194.875V29.75H193.375ZM193.375 31.3125V32.8125H194.938V31.3125V29.8125H193.375V31.3125ZM194.938 31.3125H193.438V34.4375H194.938H196.438V31.3125H194.938ZM194.938 34.4375V32.9375H193.375V34.4375V35.9375H194.938V34.4375ZM193.375 34.4375H191.875V36H193.375H194.875V34.4375H193.375ZM193.375 36V34.5H185.563V36V37.5H193.375V36ZM185.563 36H187.063V34.4375H185.563H184.063V36H185.563ZM185.563 34.4375V32.9375H184V34.4375V35.9375H185.563V34.4375ZM184 34.4375H185.5V32.875H184H182.5V34.4375H184ZM208.238 25.0625H209.738V23.5625H208.238V25.0625ZM208.238 36V37.5H209.738V36H208.238ZM205.113 36H203.613V37.5H205.113V36ZM205.113 31.3125H206.613V29.8125H205.113V31.3125ZM201.988 31.3125V29.8125H200.488V31.3125H201.988ZM201.988 36V37.5H203.488V36H201.988ZM197.3 36H195.8V37.5H197.3V36ZM197.3 25.0625V23.5625H195.8V25.0625H197.3ZM201.988 25.0625H203.488V23.5625H201.988V25.0625ZM201.988 29.75H200.488V31.25H201.988V29.75ZM205.113 29.75V31.25H206.613V29.75H205.113ZM205.113 25.0625V23.5625H203.613V25.0625H205.113ZM208.238 25.0625H206.738V36H208.238H209.738V25.0625H208.238ZM208.238 36V34.5H205.113V36V37.5H208.238V36ZM205.113 36H206.613V31.3125H205.113H203.613V36H205.113ZM205.113 31.3125V29.8125H201.988V31.3125V32.8125H205.113V31.3125ZM201.988 31.3125H200.488V36H201.988H203.488V31.3125H201.988ZM201.988 36V34.5H197.3V36V37.5H201.988V36ZM197.3 36H198.8V25.0625H197.3H195.8V36H197.3ZM197.3 25.0625V26.5625H201.988V25.0625V23.5625H197.3V25.0625ZM201.988 25.0625H200.488V29.75H201.988H203.488V25.0625H201.988ZM201.988 29.75V31.25H205.113V29.75V28.25H201.988V29.75ZM205.113 29.75H206.613V25.0625H205.113H203.613V29.75H205.113ZM205.113 25.0625V26.5625H208.238V25.0625V23.5625H205.113V25.0625ZM228.595 31.3125V29.8125H227.09L227.095 31.3175L228.595 31.3125ZM228.611 36V37.5H230.116L230.111 35.995L228.611 36ZM223.9 36H222.4V37.5H223.9V36ZM223.9 25.0625V23.5625H222.4V25.0625H223.9ZM233.275 25.0625H234.775V23.5625H233.275V25.0625ZM233.275 26.625H231.775V28.125H233.275V26.625ZM234.838 26.625H236.338V25.125H234.838V26.625ZM234.838 29.75V31.25H236.338V29.75H234.838ZM233.275 29.75V28.25H231.775V29.75H233.275ZM233.275 31.3125V32.8125H234.775V31.3125H233.275ZM228.588 26.625V25.125H227.088V26.625H228.588ZM228.588 29.75H227.088V31.25H228.588V29.75ZM231.713 29.75V31.25H233.213V29.75H231.713ZM231.713 26.625H233.213V25.125H231.713V26.625ZM228.595 31.3125L227.095 31.3175L227.111 36.005L228.611 36L230.111 35.995L230.095 31.3075L228.595 31.3125ZM228.611 36V34.5H223.9V36V37.5H228.611V36ZM223.9 36H225.4V25.0625H223.9H222.4V36H223.9ZM223.9 25.0625V26.5625H233.275V25.0625V23.5625H223.9V25.0625ZM233.275 25.0625H231.775V26.625H233.275H234.775V25.0625H233.275ZM233.275 26.625V28.125H234.838V26.625V25.125H233.275V26.625ZM234.838 26.625H233.338V29.75H234.838H236.338V26.625H234.838ZM234.838 29.75V28.25H233.275V29.75V31.25H234.838V29.75ZM233.275 29.75H231.775V31.3125H233.275H234.775V29.75H233.275ZM233.275 31.3125V29.8125H228.595V31.3125V32.8125H233.275V31.3125ZM228.588 26.625H227.088V29.75H228.588H230.088V26.625H228.588ZM228.588 29.75V31.25H231.713V29.75V28.25H228.588V29.75ZM231.713 29.75H233.213V26.625H231.713H230.213V29.75H231.713ZM231.713 26.625V25.125H228.588V26.625V28.125H231.713V26.625ZM237.2 36H235.7V37.5H237.2V36ZM237.2 25.0625V23.5625H235.7V25.0625H237.2ZM246.575 25.0625H248.075V23.5625H246.575V25.0625ZM246.575 26.625H245.075V28.125H246.575V26.625ZM248.138 26.625H249.638V25.125H248.138V26.625ZM248.138 29.75V31.25H249.638V29.75H248.138ZM246.575 29.75V28.25H245.075V29.75H246.575ZM246.575 31.3125H245.075V32.8125H246.575V31.3125ZM248.138 31.3125H249.638V29.8125H248.138V31.3125ZM248.138 36V37.5H249.638V36H248.138ZM243.45 36H241.95V37.5H243.45V36ZM243.45 31.3125H244.95V29.8125H243.45V31.3125ZM240.333 31.3125V29.8125H238.833V31.3125H240.333ZM240.333 36V37.5H241.833V36H240.333ZM241.888 26.625V25.125H240.388V26.625H241.888ZM241.888 29.75H240.388V31.25H241.888V29.75ZM245.013 29.75V31.25H246.513V29.75H245.013ZM245.013 26.625H246.513V25.125H245.013V26.625ZM237.2 36H238.7V25.0625H237.2H235.7V36H237.2ZM237.2 25.0625V26.5625H246.575V25.0625V23.5625H237.2V25.0625ZM246.575 25.0625H245.075V26.625H246.575H248.075V25.0625H246.575ZM246.575 26.625V28.125H248.138V26.625V25.125H246.575V26.625ZM248.138 26.625H246.638V29.75H248.138H249.638V26.625H248.138ZM248.138 29.75V28.25H246.575V29.75V31.25H248.138V29.75ZM246.575 29.75H245.075V31.3125H246.575H248.075V29.75H246.575ZM246.575 31.3125V32.8125H248.138V31.3125V29.8125H246.575V31.3125ZM248.138 31.3125H246.638V36H248.138H249.638V31.3125H248.138ZM248.138 36V34.5H243.45V36V37.5H248.138V36ZM243.45 36H244.95V31.3125H243.45H241.95V36H243.45ZM243.45 31.3125V29.8125H240.333V31.3125V32.8125H243.45V31.3125ZM240.333 31.3125H238.833V36H240.333H241.833V31.3125H240.333ZM240.333 36V34.5H237.2V36V37.5H240.333V36ZM241.888 26.625H240.388V29.75H241.888H243.388V26.625H241.888ZM241.888 29.75V31.25H245.013V29.75V28.25H241.888V29.75ZM245.013 29.75H246.513V26.625H245.013H243.513V29.75H245.013ZM245.013 26.625V25.125H241.888V26.625V28.125H245.013V26.625ZM259.875 25.0625H261.375V23.5625H259.875V25.0625ZM259.875 26.625V28.125H261.375V26.625H259.875ZM258.312 26.625V25.125H256.812V26.625H258.312ZM258.312 34.4375H256.812V35.9375H258.312V34.4375ZM259.875 34.4375H261.375V32.9375H259.875V34.4375ZM259.875 36V37.5H261.375V36H259.875ZM252.062 36H250.562V37.5H252.062V36ZM252.062 34.4375V32.9375H250.562V34.4375H252.062ZM253.625 34.4375V35.9375H255.125V34.4375H253.625ZM253.625 26.625H255.125V25.125H253.625V26.625ZM252.062 26.625H250.562V28.125H252.062V26.625ZM252.062 25.0625V23.5625H250.562V25.0625H252.062ZM259.875 25.0625H258.375V26.625H259.875H261.375V25.0625H259.875ZM259.875 26.625V25.125H258.312V26.625V28.125H259.875V26.625ZM258.312 26.625H256.812V34.4375H258.312H259.812V26.625H258.312ZM258.312 34.4375V35.9375H259.875V34.4375V32.9375H258.312V34.4375ZM259.875 34.4375H258.375V36H259.875H261.375V34.4375H259.875ZM259.875 36V34.5H252.062V36V37.5H259.875V36ZM252.062 36H253.562V34.4375H252.062H250.562V36H252.062ZM252.062 34.4375V35.9375H253.625V34.4375V32.9375H252.062V34.4375ZM253.625 34.4375H255.125V26.625H253.625H252.125V34.4375H253.625ZM253.625 26.625V25.125H252.062V26.625V28.125H253.625V26.625ZM252.062 26.625H253.562V25.0625H252.062H250.562V26.625H252.062ZM252.062 25.0625V26.5625H259.875V25.0625V23.5625H252.062V25.0625ZM263.8 36H262.3V37.5H263.8V36ZM263.8 32.875V31.375H262.3V32.875H263.8ZM265.363 32.875V34.375H266.863V32.875H265.363ZM265.363 31.3125V29.8125H263.863V31.3125H265.363ZM266.925 31.3125V32.8125H268.425V31.3125H266.925ZM266.925 29.75V28.25H265.425V29.75H266.925ZM268.488 29.75V31.25H269.988V29.75H268.488ZM268.488 28.1875V26.6875H266.988V28.1875H268.488ZM270.05 28.1875V29.6875H271.55V28.1875H270.05ZM270.05 26.625H271.55V25.125H270.05V26.625ZM263.8 26.625H262.3V28.125H263.8V26.625ZM263.8 25.0625V23.5625H262.3V25.0625H263.8ZM274.738 25.0625H276.238V23.5625H274.738V25.0625ZM274.738 28.1875V29.6875H276.238V28.1875H274.738ZM273.175 28.1875V26.6875H271.675V28.1875H273.175ZM273.175 29.75V31.25H274.675V29.75H273.175ZM271.613 29.75V28.25H270.113V29.75H271.613ZM271.613 31.3125V32.8125H273.113V31.3125H271.613ZM270.05 31.3125V29.8125H268.55V31.3125H270.05ZM270.05 32.875V34.375H271.55V32.875H270.05ZM268.488 32.875V31.375H266.988V32.875H268.488ZM268.488 34.4375H266.988V35.9375H268.488V34.4375ZM274.738 34.4375H276.238V32.9375H274.738V34.4375ZM274.738 36V37.5H276.238V36H274.738ZM263.8 36H265.3V32.875H263.8H262.3V36H263.8ZM263.8 32.875V34.375H265.363V32.875V31.375H263.8V32.875ZM265.363 32.875H266.863V31.3125H265.363H263.863V32.875H265.363ZM265.363 31.3125V32.8125H266.925V31.3125V29.8125H265.363V31.3125ZM266.925 31.3125H268.425V29.75H266.925H265.425V31.3125H266.925ZM266.925 29.75V31.25H268.488V29.75V28.25H266.925V29.75ZM268.488 29.75H269.988V28.1875H268.488H266.988V29.75H268.488ZM268.488 28.1875V29.6875H270.05V28.1875V26.6875H268.488V28.1875ZM270.05 28.1875H271.55V26.625H270.05H268.55V28.1875H270.05ZM270.05 26.625V25.125H263.8V26.625V28.125H270.05V26.625ZM263.8 26.625H265.3V25.0625H263.8H262.3V26.625H263.8ZM263.8 25.0625V26.5625H274.738V25.0625V23.5625H263.8V25.0625ZM274.738 25.0625H273.238V28.1875H274.738H276.238V25.0625H274.738ZM274.738 28.1875V26.6875H273.175V28.1875V29.6875H274.738V28.1875ZM273.175 28.1875H271.675V29.75H273.175H274.675V28.1875H273.175ZM273.175 29.75V28.25H271.613V29.75V31.25H273.175V29.75ZM271.613 29.75H270.113V31.3125H271.613H273.113V29.75H271.613ZM271.613 31.3125V29.8125H270.05V31.3125V32.8125H271.613V31.3125ZM270.05 31.3125H268.55V32.875H270.05H271.55V31.3125H270.05ZM270.05 32.875V31.375H268.488V32.875V34.375H270.05V32.875ZM268.488 32.875H266.988V34.4375H268.488H269.988V32.875H268.488ZM268.488 34.4375V35.9375H274.738V34.4375V32.9375H268.488V34.4375ZM274.738 34.4375H273.238V36H274.738H276.238V34.4375H274.738ZM274.738 36V34.5H263.8V36V37.5H274.738V36ZM288.037 36V37.5H289.537V36H288.037ZM277.1 36H275.6V37.5H277.1V36ZM277.1 25.0625V23.5625H275.6V25.0625H277.1ZM288.037 25.0625H289.537V23.5625H288.037V25.0625ZM288.037 26.625V28.125H289.537V26.625H288.037ZM281.787 26.625V25.125H280.287V26.625H281.787ZM281.787 29.75H280.287V31.25H281.787V29.75ZM286.475 29.75H287.975V28.25H286.475V29.75ZM286.475 31.3125V32.8125H287.975V31.3125H286.475ZM281.787 31.3125V29.8125H280.287V31.3125H281.787ZM281.787 34.4375H280.287V35.9375H281.787V34.4375ZM288.037 34.4375H289.537V32.9375H288.037V34.4375ZM288.037 36V34.5H277.1V36V37.5H288.037V36ZM277.1 36H278.6V25.0625H277.1H275.6V36H277.1ZM277.1 25.0625V26.5625H288.037V25.0625V23.5625H277.1V25.0625ZM288.037 25.0625H286.537V26.625H288.037H289.537V25.0625H288.037ZM288.037 26.625V25.125H281.787V26.625V28.125H288.037V26.625ZM281.787 26.625H280.287V29.75H281.787H283.287V26.625H281.787ZM281.787 29.75V31.25H286.475V29.75V28.25H281.787V29.75ZM286.475 29.75H284.975V31.3125H286.475H287.975V29.75H286.475ZM286.475 31.3125V29.8125H281.787V31.3125V32.8125H286.475V31.3125ZM281.787 31.3125H280.287V34.4375H281.787H283.287V31.3125H281.787ZM281.787 34.4375V35.9375H288.037V34.4375V32.9375H281.787V34.4375ZM288.037 34.4375H286.537V36H288.037H289.537V34.4375H288.037Z" fill="#222256" mask="url(#path-4-outside-2_43_10057)"/>
</g>
<defs>
<filter id="filter0_dd_43_10057" x="2" y="1.5" width="368" height="63" filterUnits="userSpaceOnUse" color-interpolation-filters="sRGB">
<feFlood flood-opacity="0" result="BackgroundImageFix"/>
<feColorMatrix in="SourceAlpha" type="matrix" values="0 0 0 0 0 0 0 0 0 0 0 0 0 0 0 0 0 0 127 0" result="hardAlpha"/>
<feOffset dy="4"/>
<feComposite in2="hardAlpha" operator="out"/>
<feColorMatrix type="matrix" values="0 0 0 0 1 0 0 0 0 0.447059 0 0 0 0 0.152941 0 0 0 1 0"/>
<feBlend mode="normal" in2="BackgroundImageFix" result="effect1_dropShadow_43_10057"/>
<feColorMatrix in="SourceAlpha" type="matrix" values="0 0 0 0 0 0 0 0 0 0 0 0 0 0 0 0 0 0 127 0" result="hardAlpha"/>
<feOffset dy="2"/>
<feComposite in2="hardAlpha" operator="out"/>
<feColorMatrix type="matrix" values="0 0 0 0 0 0 0 0 0 0 0 0 0 0 0 0 0 0 0.25 0"/>
<feBlend mode="normal" in2="effect1_dropShadow_43_10057" result="effect2_dropShadow_43_10057"/>
<feBlend mode="normal" in="SourceGraphic" in2="effect2_dropShadow_43_10057" result="shape"/>
</filter>
<filter id="filter1_df_43_10057" x="75.5099" y="16.356" width="75.1057" height="30.072" filterUnits="userSpaceOnUse" color-interpolation-filters="sRGB">
<feFlood flood-opacity="0" result="BackgroundImageFix"/>
<feColorMatrix in="SourceAlpha" type="matrix" values="0 0 0 0 0 0 0 0 0 0 0 0 0 0 0 0 0 0 127 0" result="hardAlpha"/>
<feOffset dy="4"/>
<feGaussianBlur stdDeviation="2"/>
<feComposite in2="hardAlpha" operator="out"/>
<feColorMatrix type="matrix" values="0 0 0 0 0 0 0 0 0 0 0 0 0 0 0 0 0 0 0.25 0"/>
<feBlend mode="normal" in2="BackgroundImageFix" result="effect1_dropShadow_43_10057"/>
<feBlend mode="normal" in="SourceGraphic" in2="effect1_dropShadow_43_10057" result="shape"/>
<feGaussianBlur stdDeviation="3" result="effect2_foregroundBlur_43_10057"/>
</filter>
<filter id="filter2_d_43_10057" x="155.9" y="23.5625" width="133.637" height="15.6193" filterUnits="userSpaceOnUse" color-interpolation-filters="sRGB">
<feFlood flood-opacity="0" result="BackgroundImageFix"/>
<feColorMatrix in="SourceAlpha" type="matrix" values="0 0 0 0 0 0 0 0 0 0 0 0 0 0 0 0 0 0 127 0" result="hardAlpha"/>
<feOffset dy="1.68182"/>
<feComposite in2="hardAlpha" operator="out"/>
<feColorMatrix type="matrix" values="0 0 0 0 1 0 0 0 0 0.447059 0 0 0 0 0.152941 0 0 0 1 0"/>
<feBlend mode="normal" in2="BackgroundImageFix" result="effect1_dropShadow_43_10057"/>
<feBlend mode="normal" in="SourceGraphic" in2="effect1_dropShadow_43_10057" result="shape"/>
</filter>
</defs>
</svg>
