<svg width="372" height="65" viewBox="0 0 372 65" fill="none" xmlns="http://www.w3.org/2000/svg">
<g filter="url(#filter0_dd_43_10057)">
<path d="M10.0089 7.97778V3H360.99V5.48889H368.5V55.2667H360.99V59H10.0089V53.1926H3.5V7.97778H10.0089Z" fill="#FFE14C"/>
<path d="M10.0089 7.97778V3H360.99V5.48889H368.5V55.2667H360.99V59H10.0089V53.1926H3.5V7.97778H10.0089Z" stroke="#C99810" stroke-width="3"/>
</g>
<g filter="url(#filter1_d_43_10057)">
<mask id="path-2-outside-1_43_10057" maskUnits="userSpaceOnUse" x="81.5" y="22" width="210" height="17" fill="black">
<rect fill="white" x="81.5" y="22" width="210" height="17"/>
<path d="M86.7199 35.36C86.0265 35.3387 85.4079 35.2747 84.8639 35.168C84.3199 35.0507 83.8239 34.8907 83.3759 34.688V32.624C83.8132 32.8373 84.3412 33.0347 84.9599 33.216C85.5785 33.3867 86.1652 33.488 86.7199 33.52V31.104C86.1012 30.8587 85.5732 30.624 85.1359 30.4C84.7092 30.176 84.3625 29.9413 84.0959 29.696C83.8399 29.44 83.6532 29.1627 83.5359 28.864C83.4185 28.5547 83.3599 28.2027 83.3599 27.808C83.3599 27.2747 83.4985 26.816 83.7759 26.432C84.0639 26.0373 84.4585 25.7227 84.9599 25.488C85.4719 25.2533 86.0585 25.1093 86.7199 25.056V23.856H87.7919V25.024C88.3892 25.0453 88.9492 25.1147 89.4719 25.232C90.0052 25.3493 90.5225 25.52 91.0239 25.744L90.2879 27.568C89.8612 27.3867 89.4292 27.248 88.9919 27.152C88.5652 27.056 88.1652 26.992 87.7919 26.96V29.264C88.3679 29.4773 88.9172 29.712 89.4399 29.968C89.9625 30.2133 90.3839 30.528 90.7039 30.912C91.0345 31.296 91.1999 31.8027 91.1999 32.432C91.1999 33.2107 90.9172 33.8613 90.3519 34.384C89.7865 34.9067 88.9332 35.2213 87.7919 35.328V36.928H86.7199V35.36ZM87.7919 33.472C88.1545 33.408 88.4212 33.3013 88.5919 33.152C88.7625 32.992 88.8479 32.7893 88.8479 32.544C88.8479 32.3947 88.8052 32.2667 88.7199 32.16C88.6452 32.0427 88.5279 31.936 88.3679 31.84C88.2185 31.7333 88.0265 31.6267 87.7919 31.52V33.472ZM86.7199 26.992C86.5065 27.024 86.3252 27.0773 86.1759 27.152C86.0265 27.216 85.9092 27.3067 85.8239 27.424C85.7492 27.5307 85.7119 27.6587 85.7119 27.808C85.7119 27.9573 85.7439 28.0907 85.8079 28.208C85.8825 28.3147 85.9945 28.4213 86.1439 28.528C86.2932 28.624 86.4852 28.7253 86.7199 28.832V26.992ZM95.7531 25.0625H102.003V36H97.3156V26.625H95.7531V25.0625ZM107.491 25.0625H115.303V26.625H116.866V34.4375H115.303V36H107.491V34.4375H105.928V26.625H107.491V25.0625ZM109.053 26.625V34.4375H112.178V26.625H109.053ZM120.791 25.0625H128.603V26.625H130.166V34.4375H128.603V36H120.791V34.4375H119.228V26.625H120.791V25.0625ZM122.353 26.625V34.4375H125.478V26.625H122.353ZM137.216 25.0625V28.1875H138.778V26.625H140.341V25.0625H143.466V26.625H141.903V28.1875H140.341V29.75H138.778V31.3125H141.903V32.875H143.466V36H138.778V32.875H137.216V31.3125H135.653V36H132.528V25.0625H137.216ZM163.816 26.625V34.4375H170.066V36H160.691V34.4375H159.128V26.625H160.691V25.0625H170.066V26.625H163.816ZM172.428 36V26.625H173.991V25.0625H181.803V26.625H183.366V36H180.241V31.3125H177.116V36H172.428ZM177.116 26.8672V29.75H180.241V26.8672H177.116ZM185.728 32.875H188.853V34.4375H193.541V31.3125H187.291V29.75H185.728V26.625H187.291V25.0625H195.103V26.625H196.666V28.1875H193.541V26.625H190.416V29.75H195.103V31.3125H196.666V34.4375H195.103V36H187.291V34.4375H185.728V32.875ZM209.966 25.0625V36H206.841V31.3125H203.716V36H199.028V25.0625H203.716V29.75H206.841V25.0625H209.966ZM230.323 31.3125L230.339 36H225.628V25.0625H235.003V26.625H236.566V29.75H235.003V31.3125H230.323ZM230.316 26.625V29.75H233.441V26.625H230.316ZM238.928 36V25.0625H248.303V26.625H249.866V29.75H248.303V31.3125H249.866V36H245.178V31.3125H242.061V36H238.928ZM243.616 26.625V29.75H246.741V26.625H243.616ZM261.603 25.0625V26.625H260.041V34.4375H261.603V36H253.791V34.4375H255.353V26.625H253.791V25.0625H261.603ZM265.528 36V32.875H267.091V31.3125H268.653V29.75H270.216V28.1875H271.778V26.625H265.528V25.0625H276.466V28.1875H274.903V29.75H273.341V31.3125H271.778V32.875H270.216V34.4375H276.466V36H265.528ZM289.766 36H278.828V25.0625H289.766V26.625H283.516V29.75H288.203V31.3125H283.516V34.4375H289.766V36Z"/>
</mask>
<path d="M86.7199 35.36C86.0265 35.3387 85.4079 35.2747 84.8639 35.168C84.3199 35.0507 83.8239 34.8907 83.3759 34.688V32.624C83.8132 32.8373 84.3412 33.0347 84.9599 33.216C85.5785 33.3867 86.1652 33.488 86.7199 33.52V31.104C86.1012 30.8587 85.5732 30.624 85.1359 30.4C84.7092 30.176 84.3625 29.9413 84.0959 29.696C83.8399 29.44 83.6532 29.1627 83.5359 28.864C83.4185 28.5547 83.3599 28.2027 83.3599 27.808C83.3599 27.2747 83.4985 26.816 83.7759 26.432C84.0639 26.0373 84.4585 25.7227 84.9599 25.488C85.4719 25.2533 86.0585 25.1093 86.7199 25.056V23.856H87.7919V25.024C88.3892 25.0453 88.9492 25.1147 89.4719 25.232C90.0052 25.3493 90.5225 25.52 91.0239 25.744L90.2879 27.568C89.8612 27.3867 89.4292 27.248 88.9919 27.152C88.5652 27.056 88.1652 26.992 87.7919 26.96V29.264C88.3679 29.4773 88.9172 29.712 89.4399 29.968C89.9625 30.2133 90.3839 30.528 90.7039 30.912C91.0345 31.296 91.1999 31.8027 91.1999 32.432C91.1999 33.2107 90.9172 33.8613 90.3519 34.384C89.7865 34.9067 88.9332 35.2213 87.7919 35.328V36.928H86.7199V35.36ZM87.7919 33.472C88.1545 33.408 88.4212 33.3013 88.5919 33.152C88.7625 32.992 88.8479 32.7893 88.8479 32.544C88.8479 32.3947 88.8052 32.2667 88.7199 32.16C88.6452 32.0427 88.5279 31.936 88.3679 31.84C88.2185 31.7333 88.0265 31.6267 87.7919 31.52V33.472ZM86.7199 26.992C86.5065 27.024 86.3252 27.0773 86.1759 27.152C86.0265 27.216 85.9092 27.3067 85.8239 27.424C85.7492 27.5307 85.7119 27.6587 85.7119 27.808C85.7119 27.9573 85.7439 28.0907 85.8079 28.208C85.8825 28.3147 85.9945 28.4213 86.1439 28.528C86.2932 28.624 86.4852 28.7253 86.7199 28.832V26.992ZM95.7531 25.0625H102.003V36H97.3156V26.625H95.7531V25.0625ZM107.491 25.0625H115.303V26.625H116.866V34.4375H115.303V36H107.491V34.4375H105.928V26.625H107.491V25.0625ZM109.053 26.625V34.4375H112.178V26.625H109.053ZM120.791 25.0625H128.603V26.625H130.166V34.4375H128.603V36H120.791V34.4375H119.228V26.625H120.791V25.0625ZM122.353 26.625V34.4375H125.478V26.625H122.353ZM137.216 25.0625V28.1875H138.778V26.625H140.341V25.0625H143.466V26.625H141.903V28.1875H140.341V29.75H138.778V31.3125H141.903V32.875H143.466V36H138.778V32.875H137.216V31.3125H135.653V36H132.528V25.0625H137.216ZM163.816 26.625V34.4375H170.066V36H160.691V34.4375H159.128V26.625H160.691V25.0625H170.066V26.625H163.816ZM172.428 36V26.625H173.991V25.0625H181.803V26.625H183.366V36H180.241V31.3125H177.116V36H172.428ZM177.116 26.8672V29.75H180.241V26.8672H177.116ZM185.728 32.875H188.853V34.4375H193.541V31.3125H187.291V29.75H185.728V26.625H187.291V25.0625H195.103V26.625H196.666V28.1875H193.541V26.625H190.416V29.75H195.103V31.3125H196.666V34.4375H195.103V36H187.291V34.4375H185.728V32.875ZM209.966 25.0625V36H206.841V31.3125H203.716V36H199.028V25.0625H203.716V29.75H206.841V25.0625H209.966ZM230.323 31.3125L230.339 36H225.628V25.0625H235.003V26.625H236.566V29.75H235.003V31.3125H230.323ZM230.316 26.625V29.75H233.441V26.625H230.316ZM238.928 36V25.0625H248.303V26.625H249.866V29.75H248.303V31.3125H249.866V36H245.178V31.3125H242.061V36H238.928ZM243.616 26.625V29.75H246.741V26.625H243.616ZM261.603 25.0625V26.625H260.041V34.4375H261.603V36H253.791V34.4375H255.353V26.625H253.791V25.0625H261.603ZM265.528 36V32.875H267.091V31.3125H268.653V29.75H270.216V28.1875H271.778V26.625H265.528V25.0625H276.466V28.1875H274.903V29.75H273.341V31.3125H271.778V32.875H270.216V34.4375H276.466V36H265.528ZM289.766 36H278.828V25.0625H289.766V26.625H283.516V29.75H288.203V31.3125H283.516V34.4375H289.766V36Z" fill="white"/>
<path d="M86.7199 35.36H88.2199V33.9054L86.766 33.8607L86.7199 35.36ZM84.8639 35.168L84.5476 36.6343L84.5614 36.6373L84.5753 36.64L84.8639 35.168ZM83.3759 34.688H81.8759V35.6558L82.7576 36.0547L83.3759 34.688ZM83.3759 32.624L84.0335 31.2758L81.8759 30.2233V32.624H83.3759ZM84.9599 33.216L84.538 34.6554L84.5494 34.6588L84.561 34.662L84.9599 33.216ZM86.7199 33.52L86.6335 35.0175L88.2199 35.109V33.52H86.7199ZM86.7199 31.104H88.2199V30.0852L87.2728 29.7096L86.7199 31.104ZM85.1359 30.4L84.4386 31.7281L84.4453 31.7316L84.4521 31.7351L85.1359 30.4ZM84.0959 29.696L83.0352 30.7567L83.0573 30.7787L83.0803 30.7999L84.0959 29.696ZM83.5359 28.864L82.1334 29.396L82.1365 29.4042L82.1397 29.4125L83.5359 28.864ZM83.7759 26.432L82.5642 25.5478L82.5599 25.5538L83.7759 26.432ZM84.9599 25.488L84.3349 24.1244L84.324 24.1295L84.9599 25.488ZM86.7199 25.056L86.8405 26.5511L88.2199 26.4399V25.056H86.7199ZM86.7199 23.856V22.356H85.2199V23.856H86.7199ZM87.7919 23.856H89.2919V22.356H87.7919V23.856ZM87.7919 25.024H86.2919V26.4714L87.7383 26.523L87.7919 25.024ZM89.4719 25.232L89.1433 26.6956L89.1496 26.697L89.4719 25.232ZM91.0239 25.744L92.4149 26.3053L92.956 24.9644L91.6358 24.3745L91.0239 25.744ZM90.2879 27.568L89.7012 28.9485L91.1072 29.5461L91.6789 28.1293L90.2879 27.568ZM88.9919 27.152L88.6626 28.6154L88.6703 28.6171L88.9919 27.152ZM87.7919 26.96L87.92 25.4655L86.2919 25.3259V26.96H87.7919ZM87.7919 29.264H86.2919V30.308L87.2709 30.6706L87.7919 29.264ZM89.4399 29.968L88.7801 31.3151L88.7912 31.3206L88.8025 31.3259L89.4399 29.968ZM90.7039 30.912L89.5515 31.8723L89.5593 31.8816L89.5672 31.8908L90.7039 30.912ZM90.3519 34.384L89.3336 33.2826H89.3336L90.3519 34.384ZM87.7919 35.328L87.6523 33.8345L86.2919 33.9616V35.328H87.7919ZM87.7919 36.928V38.428H89.2919V36.928H87.7919ZM86.7199 36.928H85.2199V38.428H86.7199V36.928ZM87.7919 33.472H86.2919V35.2599L88.0526 34.9492L87.7919 33.472ZM88.5919 33.152L89.5796 34.2809L89.599 34.2639L89.6178 34.2463L88.5919 33.152ZM88.7199 32.16L87.4544 32.9653L87.4979 33.0337L87.5486 33.097L88.7199 32.16ZM88.3679 31.84L87.496 33.0606L87.5448 33.0954L87.5961 33.1262L88.3679 31.84ZM87.7919 31.52L88.4126 30.1545L86.2919 29.1905V31.52H87.7919ZM86.7199 26.992H88.2199V25.2502L86.4974 25.5086L86.7199 26.992ZM86.1759 27.152L86.7668 28.5307L86.8073 28.5134L86.8467 28.4936L86.1759 27.152ZM85.8239 27.424L84.6108 26.5417L84.6028 26.5527L84.595 26.5638L85.8239 27.424ZM85.8079 28.208L84.491 28.9263L84.5311 28.9997L84.579 29.0682L85.8079 28.208ZM86.1439 28.528L85.272 29.7486L85.3019 29.7699L85.3327 29.7898L86.1439 28.528ZM86.7199 28.832L86.0992 30.1975L88.2199 31.1615V28.832H86.7199ZM86.7199 35.36L86.766 33.8607C86.1348 33.8413 85.5996 33.7837 85.1525 33.696L84.8639 35.168L84.5753 36.64C85.2161 36.7656 85.9183 36.836 86.6737 36.8593L86.7199 35.36ZM84.8639 35.168L85.1801 33.7017C84.7267 33.6039 84.3336 33.4749 83.9941 33.3213L83.3759 34.688L82.7576 36.0547C83.3142 36.3064 83.9131 36.4974 84.5476 36.6343L84.8639 35.168ZM83.3759 34.688H84.8759V32.624H83.3759H81.8759V34.688H83.3759ZM83.3759 32.624L82.7182 33.9722C83.2513 34.2322 83.8626 34.4575 84.538 34.6554L84.9599 33.216L85.3818 31.7766C84.8198 31.6118 84.3751 31.4425 84.0335 31.2758L83.3759 32.624ZM84.9599 33.216L84.561 34.662C85.2664 34.8566 85.9583 34.9786 86.6335 35.0175L86.7199 33.52L86.8063 32.0225C86.3721 31.9974 85.8907 31.9168 85.3588 31.77L84.9599 33.216ZM86.7199 33.52H88.2199V31.104H86.7199H85.2199V33.52H86.7199ZM86.7199 31.104L87.2728 29.7096C86.6842 29.4762 86.2025 29.261 85.8197 29.0649L85.1359 30.4L84.4521 31.7351C84.9439 31.987 85.5182 32.2411 86.1669 32.4984L86.7199 31.104ZM85.1359 30.4L85.8331 29.0719C85.4864 28.8899 85.2566 28.7257 85.1115 28.5921L84.0959 29.696L83.0803 30.7999C83.4684 31.157 83.932 31.4621 84.4386 31.7281L85.1359 30.4ZM84.0959 29.696L85.1565 28.6353C85.0277 28.5065 84.9648 28.399 84.932 28.3155L83.5359 28.864L82.1397 29.4125C82.3416 29.9263 82.6521 30.3735 83.0352 30.7567L84.0959 29.696ZM83.5359 28.864L84.9384 28.332C84.8966 28.2219 84.8599 28.0551 84.8599 27.808H83.3599H81.8599C81.8599 28.3502 81.9405 28.8874 82.1334 29.396L83.5359 28.864ZM83.3599 27.808H84.8599C84.8599 27.5485 84.922 27.4069 84.9919 27.3102L83.7759 26.432L82.5599 25.5538C82.075 26.2251 81.8599 27.0008 81.8599 27.808H83.3599ZM83.7759 26.432L84.9876 27.3162C85.1078 27.1515 85.2924 26.9885 85.5958 26.8465L84.9599 25.488L84.324 24.1295C83.6247 24.4568 83.02 24.9232 82.5642 25.5478L83.7759 26.432ZM84.9599 25.488L85.5849 26.8516C85.9122 26.7016 86.3233 26.5929 86.8405 26.5511L86.7199 25.056L86.5993 23.5609C85.7938 23.6258 85.0316 23.8051 84.3349 24.1244L84.9599 25.488ZM86.7199 25.056H88.2199V23.856H86.7199H85.2199V25.056H86.7199ZM86.7199 23.856V25.356H87.7919V23.856V22.356H86.7199V23.856ZM87.7919 23.856H86.2919V25.024H87.7919H89.2919V23.856H87.7919ZM87.7919 25.024L87.7383 26.523C88.2536 26.5414 88.7207 26.6007 89.1433 26.6956L89.4719 25.232L89.8004 23.7684C89.1777 23.6286 88.5248 23.5492 87.8454 23.525L87.7919 25.024ZM89.4719 25.232L89.1496 26.697C89.5828 26.7923 90.0032 26.9309 90.412 27.1135L91.0239 25.744L91.6358 24.3745C91.0419 24.1091 90.4276 23.9064 89.7942 23.767L89.4719 25.232ZM91.0239 25.744L89.6328 25.1827L88.8968 27.0067L90.2879 27.568L91.6789 28.1293L92.4149 26.3053L91.0239 25.744ZM90.2879 27.568L90.8746 26.1875C90.3654 25.9711 89.8448 25.8035 89.3135 25.6869L88.9919 27.152L88.6703 28.6171C89.0136 28.6925 89.357 28.8022 89.7012 28.9485L90.2879 27.568ZM88.9919 27.152L89.3211 25.6886C88.8389 25.5801 88.3711 25.5041 87.92 25.4655L87.7919 26.96L87.6638 28.4545C87.9594 28.4799 88.2916 28.5319 88.6626 28.6154L88.9919 27.152ZM87.7919 26.96H86.2919V29.264H87.7919H89.2919V26.96H87.7919ZM87.7919 29.264L87.2709 30.6706C87.8022 30.8674 88.3051 31.0824 88.7801 31.3151L89.4399 29.968L90.0997 28.6209C89.5294 28.3416 88.9335 28.0873 88.3128 27.8574L87.7919 29.264ZM89.4399 29.968L88.8025 31.3259C89.1572 31.4923 89.3923 31.6811 89.5515 31.8723L90.7039 30.912L91.8562 29.9517C91.3755 29.3749 90.7679 28.9343 90.0772 28.6101L89.4399 29.968ZM90.7039 30.912L89.5672 31.8908C89.6108 31.9413 89.6999 32.0719 89.6999 32.432H91.1999H92.6999C92.6999 31.5334 92.4583 30.6507 91.8405 29.9332L90.7039 30.912ZM91.1999 32.432H89.6999C89.6999 32.7978 89.5879 33.0475 89.3336 33.2826L90.3519 34.384L91.3702 35.4854C92.2465 34.6752 92.6999 33.6235 92.6999 32.432H91.1999ZM90.3519 34.384L89.3336 33.2826C89.103 33.4958 88.6188 33.7442 87.6523 33.8345L87.7919 35.328L87.9315 36.8215C89.2476 36.6985 90.4701 36.3175 91.3702 35.4854L90.3519 34.384ZM87.7919 35.328H86.2919V36.928H87.7919H89.2919V35.328H87.7919ZM87.7919 36.928V35.428H86.7199V36.928V38.428H87.7919V36.928ZM86.7199 36.928H88.2199V35.36H86.7199H85.2199V36.928H86.7199ZM87.7919 33.472L88.0526 34.9492C88.5334 34.8643 89.1118 34.6902 89.5796 34.2809L88.5919 33.152L87.6041 32.0231C87.6404 31.9914 87.6704 31.9718 87.6881 31.9615C87.7056 31.9512 87.7132 31.9487 87.7068 31.9513C87.7004 31.9538 87.6834 31.9601 87.6533 31.9683C87.6233 31.9764 87.583 31.9857 87.5312 31.9948L87.7919 33.472ZM88.5919 33.152L89.6178 34.2463C90.1071 33.7876 90.3479 33.1812 90.3479 32.544H88.8479H87.3479C87.3479 32.4899 87.358 32.401 87.4014 32.2979C87.4455 32.1932 87.5078 32.1122 87.566 32.0577L88.5919 33.152ZM88.8479 32.544H90.3479C90.3479 32.0879 90.2095 31.6209 89.8912 31.223L88.7199 32.16L87.5486 33.097C87.4821 33.0139 87.4282 32.9163 87.3928 32.8103C87.3581 32.706 87.3479 32.6135 87.3479 32.544H88.8479ZM88.7199 32.16L89.9854 31.3547C89.7505 30.9856 89.4342 30.7305 89.1396 30.5538L88.3679 31.84L87.5961 33.1262C87.6215 33.1415 87.5399 33.0998 87.4544 32.9653L88.7199 32.16ZM88.3679 31.84L89.2397 30.6194C88.9871 30.4389 88.703 30.2865 88.4126 30.1545L87.7919 31.52L87.1712 32.8855C87.35 32.9669 87.45 33.0277 87.496 33.0606L88.3679 31.84ZM87.7919 31.52H86.2919V33.472H87.7919H89.2919V31.52H87.7919ZM86.7199 26.992L86.4974 25.5086C86.1711 25.5575 85.8297 25.648 85.5051 25.8104L86.1759 27.152L86.8467 28.4936C86.8323 28.5008 86.8307 28.4999 86.8471 28.495C86.8635 28.4902 86.8943 28.4826 86.9424 28.4754L86.7199 26.992ZM86.1759 27.152L85.585 25.7733C85.2178 25.9306 84.8735 26.1805 84.6108 26.5417L85.8239 27.424L87.037 28.3063C86.945 28.4328 86.8353 28.5014 86.7668 28.5307L86.1759 27.152ZM85.8239 27.424L84.595 26.5638C84.3188 26.9584 84.2119 27.3977 84.2119 27.808H85.7119H87.2119C87.2119 27.9197 87.1796 28.103 87.0527 28.2842L85.8239 27.424ZM85.7119 27.808H84.2119C84.2119 28.1783 84.2933 28.5637 84.491 28.9263L85.8079 28.208L87.1247 27.4897C87.1945 27.6176 87.2119 27.7363 87.2119 27.808H85.7119ZM85.8079 28.208L84.579 29.0682C84.7824 29.3587 85.0363 29.5802 85.272 29.7486L86.1439 28.528L87.0157 27.3074C86.9881 27.2877 86.979 27.2786 86.9824 27.2818C86.9855 27.2848 87.0075 27.306 87.0367 27.3478L85.8079 28.208ZM86.1439 28.528L85.3327 29.7898C85.5634 29.9381 85.8252 30.073 86.0992 30.1975L86.7199 28.832L87.3406 27.4665C87.1452 27.3776 87.023 27.3099 86.955 27.2662L86.1439 28.528ZM86.7199 28.832H88.2199V26.992H86.7199H85.2199V28.832H86.7199ZM95.7531 25.0625V23.5625H94.2531V25.0625H95.7531ZM102.003 25.0625H103.503V23.5625H102.003V25.0625ZM102.003 36V37.5H103.503V36H102.003ZM97.3156 36H95.8156V37.5H97.3156V36ZM97.3156 26.625H98.8156V25.125H97.3156V26.625ZM95.7531 26.625H94.2531V28.125H95.7531V26.625ZM95.7531 25.0625V26.5625H102.003V25.0625V23.5625H95.7531V25.0625ZM102.003 25.0625H100.503V36H102.003H103.503V25.0625H102.003ZM102.003 36V34.5H97.3156V36V37.5H102.003V36ZM97.3156 36H98.8156V26.625H97.3156H95.8156V36H97.3156ZM97.3156 26.625V25.125H95.7531V26.625V28.125H97.3156V26.625ZM95.7531 26.625H97.2531V25.0625H95.7531H94.2531V26.625H95.7531ZM107.491 25.0625V23.5625H105.991V25.0625H107.491ZM115.303 25.0625H116.803V23.5625H115.303V25.0625ZM115.303 26.625H113.803V28.125H115.303V26.625ZM116.866 26.625H118.366V25.125H116.866V26.625ZM116.866 34.4375V35.9375H118.366V34.4375H116.866ZM115.303 34.4375V32.9375H113.803V34.4375H115.303ZM115.303 36V37.5H116.803V36H115.303ZM107.491 36H105.991V37.5H107.491V36ZM107.491 34.4375H108.991V32.9375H107.491V34.4375ZM105.928 34.4375H104.428V35.9375H105.928V34.4375ZM105.928 26.625V25.125H104.428V26.625H105.928ZM107.491 26.625V28.125H108.991V26.625H107.491ZM109.053 26.625V25.125H107.553V26.625H109.053ZM109.053 34.4375H107.553V35.9375H109.053V34.4375ZM112.178 34.4375V35.9375H113.678V34.4375H112.178ZM112.178 26.625H113.678V25.125H112.178V26.625ZM107.491 25.0625V26.5625H115.303V25.0625V23.5625H107.491V25.0625ZM115.303 25.0625H113.803V26.625H115.303H116.803V25.0625H115.303ZM115.303 26.625V28.125H116.866V26.625V25.125H115.303V26.625ZM116.866 26.625H115.366V34.4375H116.866H118.366V26.625H116.866ZM116.866 34.4375V32.9375H115.303V34.4375V35.9375H116.866V34.4375ZM115.303 34.4375H113.803V36H115.303H116.803V34.4375H115.303ZM115.303 36V34.5H107.491V36V37.5H115.303V36ZM107.491 36H108.991V34.4375H107.491H105.991V36H107.491ZM107.491 34.4375V32.9375H105.928V34.4375V35.9375H107.491V34.4375ZM105.928 34.4375H107.428V26.625H105.928H104.428V34.4375H105.928ZM105.928 26.625V28.125H107.491V26.625V25.125H105.928V26.625ZM107.491 26.625H108.991V25.0625H107.491H105.991V26.625H107.491ZM109.053 26.625H107.553V34.4375H109.053H110.553V26.625H109.053ZM109.053 34.4375V35.9375H112.178V34.4375V32.9375H109.053V34.4375ZM112.178 34.4375H113.678V26.625H112.178H110.678V34.4375H112.178ZM112.178 26.625V25.125H109.053V26.625V28.125H112.178V26.625ZM120.791 25.0625V23.5625H119.291V25.0625H120.791ZM128.603 25.0625H130.103V23.5625H128.603V25.0625ZM128.603 26.625H127.103V28.125H128.603V26.625ZM130.166 26.625H131.666V25.125H130.166V26.625ZM130.166 34.4375V35.9375H131.666V34.4375H130.166ZM128.603 34.4375V32.9375H127.103V34.4375H128.603ZM128.603 36V37.5H130.103V36H128.603ZM120.791 36H119.291V37.5H120.791V36ZM120.791 34.4375H122.291V32.9375H120.791V34.4375ZM119.228 34.4375H117.728V35.9375H119.228V34.4375ZM119.228 26.625V25.125H117.728V26.625H119.228ZM120.791 26.625V28.125H122.291V26.625H120.791ZM122.353 26.625V25.125H120.853V26.625H122.353ZM122.353 34.4375H120.853V35.9375H122.353V34.4375ZM125.478 34.4375V35.9375H126.978V34.4375H125.478ZM125.478 26.625H126.978V25.125H125.478V26.625ZM120.791 25.0625V26.5625H128.603V25.0625V23.5625H120.791V25.0625ZM128.603 25.0625H127.103V26.625H128.603H130.103V25.0625H128.603ZM128.603 26.625V28.125H130.166V26.625V25.125H128.603V26.625ZM130.166 26.625H128.666V34.4375H130.166H131.666V26.625H130.166ZM130.166 34.4375V32.9375H128.603V34.4375V35.9375H130.166V34.4375ZM128.603 34.4375H127.103V36H128.603H130.103V34.4375H128.603ZM128.603 36V34.5H120.791V36V37.5H128.603V36ZM120.791 36H122.291V34.4375H120.791H119.291V36H120.791ZM120.791 34.4375V32.9375H119.228V34.4375V35.9375H120.791V34.4375ZM119.228 34.4375H120.728V26.625H119.228H117.728V34.4375H119.228ZM119.228 26.625V28.125H120.791V26.625V25.125H119.228V26.625ZM120.791 26.625H122.291V25.0625H120.791H119.291V26.625H120.791ZM122.353 26.625H120.853V34.4375H122.353H123.853V26.625H122.353ZM122.353 34.4375V35.9375H125.478V34.4375V32.9375H122.353V34.4375ZM125.478 34.4375H126.978V26.625H125.478H123.978V34.4375H125.478ZM125.478 26.625V25.125H122.353V26.625V28.125H125.478V26.625ZM137.216 25.0625H138.716V23.5625H137.216V25.0625ZM137.216 28.1875H135.716V29.6875H137.216V28.1875ZM138.778 28.1875V29.6875H140.278V28.1875H138.778ZM138.778 26.625V25.125H137.278V26.625H138.778ZM140.341 26.625V28.125H141.841V26.625H140.341ZM140.341 25.0625V23.5625H138.841V25.0625H140.341ZM143.466 25.0625H144.966V23.5625H143.466V25.0625ZM143.466 26.625V28.125H144.966V26.625H143.466ZM141.903 26.625V25.125H140.403V26.625H141.903ZM141.903 28.1875V29.6875H143.403V28.1875H141.903ZM140.341 28.1875V26.6875H138.841V28.1875H140.341ZM140.341 29.75V31.25H141.841V29.75H140.341ZM138.778 29.75V28.25H137.278V29.75H138.778ZM138.778 31.3125H137.278V32.8125H138.778V31.3125ZM141.903 31.3125H143.403V29.8125H141.903V31.3125ZM141.903 32.875H140.403V34.375H141.903V32.875ZM143.466 32.875H144.966V31.375H143.466V32.875ZM143.466 36V37.5H144.966V36H143.466ZM138.778 36H137.278V37.5H138.778V36ZM138.778 32.875H140.278V31.375H138.778V32.875ZM137.216 32.875H135.716V34.375H137.216V32.875ZM137.216 31.3125H138.716V29.8125H137.216V31.3125ZM135.653 31.3125V29.8125H134.153V31.3125H135.653ZM135.653 36V37.5H137.153V36H135.653ZM132.528 36H131.028V37.5H132.528V36ZM132.528 25.0625V23.5625H131.028V25.0625H132.528ZM137.216 25.0625H135.716V28.1875H137.216H138.716V25.0625H137.216ZM137.216 28.1875V29.6875H138.778V28.1875V26.6875H137.216V28.1875ZM138.778 28.1875H140.278V26.625H138.778H137.278V28.1875H138.778ZM138.778 26.625V28.125H140.341V26.625V25.125H138.778V26.625ZM140.341 26.625H141.841V25.0625H140.341H138.841V26.625H140.341ZM140.341 25.0625V26.5625H143.466V25.0625V23.5625H140.341V25.0625ZM143.466 25.0625H141.966V26.625H143.466H144.966V25.0625H143.466ZM143.466 26.625V25.125H141.903V26.625V28.125H143.466V26.625ZM141.903 26.625H140.403V28.1875H141.903H143.403V26.625H141.903ZM141.903 28.1875V26.6875H140.341V28.1875V29.6875H141.903V28.1875ZM140.341 28.1875H138.841V29.75H140.341H141.841V28.1875H140.341ZM140.341 29.75V28.25H138.778V29.75V31.25H140.341V29.75ZM138.778 29.75H137.278V31.3125H138.778H140.278V29.75H138.778ZM138.778 31.3125V32.8125H141.903V31.3125V29.8125H138.778V31.3125ZM141.903 31.3125H140.403V32.875H141.903H143.403V31.3125H141.903ZM141.903 32.875V34.375H143.466V32.875V31.375H141.903V32.875ZM143.466 32.875H141.966V36H143.466H144.966V32.875H143.466ZM143.466 36V34.5H138.778V36V37.5H143.466V36ZM138.778 36H140.278V32.875H138.778H137.278V36H138.778ZM138.778 32.875V31.375H137.216V32.875V34.375H138.778V32.875ZM137.216 32.875H138.716V31.3125H137.216H135.716V32.875H137.216ZM137.216 31.3125V29.8125H135.653V31.3125V32.8125H137.216V31.3125ZM135.653 31.3125H134.153V36H135.653H137.153V31.3125H135.653ZM135.653 36V34.5H132.528V36V37.5H135.653V36ZM132.528 36H134.028V25.0625H132.528H131.028V36H132.528ZM132.528 25.0625V26.5625H137.216V25.0625V23.5625H132.528V25.0625ZM163.816 26.625V25.125H162.316V26.625H163.816ZM163.816 34.4375H162.316V35.9375H163.816V34.4375ZM170.066 34.4375H171.566V32.9375H170.066V34.4375ZM170.066 36V37.5H171.566V36H170.066ZM160.691 36H159.191V37.5H160.691V36ZM160.691 34.4375H162.191V32.9375H160.691V34.4375ZM159.128 34.4375H157.628V35.9375H159.128V34.4375ZM159.128 26.625V25.125H157.628V26.625H159.128ZM160.691 26.625V28.125H162.191V26.625H160.691ZM160.691 25.0625V23.5625H159.191V25.0625H160.691ZM170.066 25.0625H171.566V23.5625H170.066V25.0625ZM170.066 26.625V28.125H171.566V26.625H170.066ZM163.816 26.625H162.316V34.4375H163.816H165.316V26.625H163.816ZM163.816 34.4375V35.9375H170.066V34.4375V32.9375H163.816V34.4375ZM170.066 34.4375H168.566V36H170.066H171.566V34.4375H170.066ZM170.066 36V34.5H160.691V36V37.5H170.066V36ZM160.691 36H162.191V34.4375H160.691H159.191V36H160.691ZM160.691 34.4375V32.9375H159.128V34.4375V35.9375H160.691V34.4375ZM159.128 34.4375H160.628V26.625H159.128H157.628V34.4375H159.128ZM159.128 26.625V28.125H160.691V26.625V25.125H159.128V26.625ZM160.691 26.625H162.191V25.0625H160.691H159.191V26.625H160.691ZM160.691 25.0625V26.5625H170.066V25.0625V23.5625H160.691V25.0625ZM170.066 25.0625H168.566V26.625H170.066H171.566V25.0625H170.066ZM170.066 26.625V25.125H163.816V26.625V28.125H170.066V26.625ZM172.428 36H170.928V37.5H172.428V36ZM172.428 26.625V25.125H170.928V26.625H172.428ZM173.991 26.625V28.125H175.491V26.625H173.991ZM173.991 25.0625V23.5625H172.491V25.0625H173.991ZM181.803 25.0625H183.303V23.5625H181.803V25.0625ZM181.803 26.625H180.303V28.125H181.803V26.625ZM183.366 26.625H184.866V25.125H183.366V26.625ZM183.366 36V37.5H184.866V36H183.366ZM180.241 36H178.741V37.5H180.241V36ZM180.241 31.3125H181.741V29.8125H180.241V31.3125ZM177.116 31.3125V29.8125H175.616V31.3125H177.116ZM177.116 36V37.5H178.616V36H177.116ZM177.116 26.8672V25.3672H175.616V26.8672H177.116ZM177.116 29.75H175.616V31.25H177.116V29.75ZM180.241 29.75V31.25H181.741V29.75H180.241ZM180.241 26.8672H181.741V25.3672H180.241V26.8672ZM172.428 36H173.928V26.625H172.428H170.928V36H172.428ZM172.428 26.625V28.125H173.991V26.625V25.125H172.428V26.625ZM173.991 26.625H175.491V25.0625H173.991H172.491V26.625H173.991ZM173.991 25.0625V26.5625H181.803V25.0625V23.5625H173.991V25.0625ZM181.803 25.0625H180.303V26.625H181.803H183.303V25.0625H181.803ZM181.803 26.625V28.125H183.366V26.625V25.125H181.803V26.625ZM183.366 26.625H181.866V36H183.366H184.866V26.625H183.366ZM183.366 36V34.5H180.241V36V37.5H183.366V36ZM180.241 36H181.741V31.3125H180.241H178.741V36H180.241ZM180.241 31.3125V29.8125H177.116V31.3125V32.8125H180.241V31.3125ZM177.116 31.3125H175.616V36H177.116H178.616V31.3125H177.116ZM177.116 36V34.5H172.428V36V37.5H177.116V36ZM177.116 26.8672H175.616V29.75H177.116H178.616V26.8672H177.116ZM177.116 29.75V31.25H180.241V29.75V28.25H177.116V29.75ZM180.241 29.75H181.741V26.8672H180.241H178.741V29.75H180.241ZM180.241 26.8672V25.3672H177.116V26.8672V28.3672H180.241V26.8672ZM185.728 32.875V31.375H184.228V32.875H185.728ZM188.853 32.875H190.353V31.375H188.853V32.875ZM188.853 34.4375H187.353V35.9375H188.853V34.4375ZM193.541 34.4375V35.9375H195.041V34.4375H193.541ZM193.541 31.3125H195.041V29.8125H193.541V31.3125ZM187.291 31.3125H185.791V32.8125H187.291V31.3125ZM187.291 29.75H188.791V28.25H187.291V29.75ZM185.728 29.75H184.228V31.25H185.728V29.75ZM185.728 26.625V25.125H184.228V26.625H185.728ZM187.291 26.625V28.125H188.791V26.625H187.291ZM187.291 25.0625V23.5625H185.791V25.0625H187.291ZM195.103 25.0625H196.603V23.5625H195.103V25.0625ZM195.103 26.625H193.603V28.125H195.103V26.625ZM196.666 26.625H198.166V25.125H196.666V26.625ZM196.666 28.1875V29.6875H198.166V28.1875H196.666ZM193.541 28.1875H192.041V29.6875H193.541V28.1875ZM193.541 26.625H195.041V25.125H193.541V26.625ZM190.416 26.625V25.125H188.916V26.625H190.416ZM190.416 29.75H188.916V31.25H190.416V29.75ZM195.103 29.75H196.603V28.25H195.103V29.75ZM195.103 31.3125H193.603V32.8125H195.103V31.3125ZM196.666 31.3125H198.166V29.8125H196.666V31.3125ZM196.666 34.4375V35.9375H198.166V34.4375H196.666ZM195.103 34.4375V32.9375H193.603V34.4375H195.103ZM195.103 36V37.5H196.603V36H195.103ZM187.291 36H185.791V37.5H187.291V36ZM187.291 34.4375H188.791V32.9375H187.291V34.4375ZM185.728 34.4375H184.228V35.9375H185.728V34.4375ZM185.728 32.875V34.375H188.853V32.875V31.375H185.728V32.875ZM188.853 32.875H187.353V34.4375H188.853H190.353V32.875H188.853ZM188.853 34.4375V35.9375H193.541V34.4375V32.9375H188.853V34.4375ZM193.541 34.4375H195.041V31.3125H193.541H192.041V34.4375H193.541ZM193.541 31.3125V29.8125H187.291V31.3125V32.8125H193.541V31.3125ZM187.291 31.3125H188.791V29.75H187.291H185.791V31.3125H187.291ZM187.291 29.75V28.25H185.728V29.75V31.25H187.291V29.75ZM185.728 29.75H187.228V26.625H185.728H184.228V29.75H185.728ZM185.728 26.625V28.125H187.291V26.625V25.125H185.728V26.625ZM187.291 26.625H188.791V25.0625H187.291H185.791V26.625H187.291ZM187.291 25.0625V26.5625H195.103V25.0625V23.5625H187.291V25.0625ZM195.103 25.0625H193.603V26.625H195.103H196.603V25.0625H195.103ZM195.103 26.625V28.125H196.666V26.625V25.125H195.103V26.625ZM196.666 26.625H195.166V28.1875H196.666H198.166V26.625H196.666ZM196.666 28.1875V26.6875H193.541V28.1875V29.6875H196.666V28.1875ZM193.541 28.1875H195.041V26.625H193.541H192.041V28.1875H193.541ZM193.541 26.625V25.125H190.416V26.625V28.125H193.541V26.625ZM190.416 26.625H188.916V29.75H190.416H191.916V26.625H190.416ZM190.416 29.75V31.25H195.103V29.75V28.25H190.416V29.75ZM195.103 29.75H193.603V31.3125H195.103H196.603V29.75H195.103ZM195.103 31.3125V32.8125H196.666V31.3125V29.8125H195.103V31.3125ZM196.666 31.3125H195.166V34.4375H196.666H198.166V31.3125H196.666ZM196.666 34.4375V32.9375H195.103V34.4375V35.9375H196.666V34.4375ZM195.103 34.4375H193.603V36H195.103H196.603V34.4375H195.103ZM195.103 36V34.5H187.291V36V37.5H195.103V36ZM187.291 36H188.791V34.4375H187.291H185.791V36H187.291ZM187.291 34.4375V32.9375H185.728V34.4375V35.9375H187.291V34.4375ZM185.728 34.4375H187.228V32.875H185.728H184.228V34.4375H185.728ZM209.966 25.0625H211.466V23.5625H209.966V25.0625ZM209.966 36V37.5H211.466V36H209.966ZM206.841 36H205.341V37.5H206.841V36ZM206.841 31.3125H208.341V29.8125H206.841V31.3125ZM203.716 31.3125V29.8125H202.216V31.3125H203.716ZM203.716 36V37.5H205.216V36H203.716ZM199.028 36H197.528V37.5H199.028V36ZM199.028 25.0625V23.5625H197.528V25.0625H199.028ZM203.716 25.0625H205.216V23.5625H203.716V25.0625ZM203.716 29.75H202.216V31.25H203.716V29.75ZM206.841 29.75V31.25H208.341V29.75H206.841ZM206.841 25.0625V23.5625H205.341V25.0625H206.841ZM209.966 25.0625H208.466V36H209.966H211.466V25.0625H209.966ZM209.966 36V34.5H206.841V36V37.5H209.966V36ZM206.841 36H208.341V31.3125H206.841H205.341V36H206.841ZM206.841 31.3125V29.8125H203.716V31.3125V32.8125H206.841V31.3125ZM203.716 31.3125H202.216V36H203.716H205.216V31.3125H203.716ZM203.716 36V34.5H199.028V36V37.5H203.716V36ZM199.028 36H200.528V25.0625H199.028H197.528V36H199.028ZM199.028 25.0625V26.5625H203.716V25.0625V23.5625H199.028V25.0625ZM203.716 25.0625H202.216V29.75H203.716H205.216V25.0625H203.716ZM203.716 29.75V31.25H206.841V29.75V28.25H203.716V29.75ZM206.841 29.75H208.341V25.0625H206.841H205.341V29.75H206.841ZM206.841 25.0625V26.5625H209.966V25.0625V23.5625H206.841V25.0625ZM230.323 31.3125V29.8125H228.818L228.823 31.3175L230.323 31.3125ZM230.339 36V37.5H231.844L231.839 35.995L230.339 36ZM225.628 36H224.128V37.5H225.628V36ZM225.628 25.0625V23.5625H224.128V25.0625H225.628ZM235.003 25.0625H236.503V23.5625H235.003V25.0625ZM235.003 26.625H233.503V28.125H235.003V26.625ZM236.566 26.625H238.066V25.125H236.566V26.625ZM236.566 29.75V31.25H238.066V29.75H236.566ZM235.003 29.75V28.25H233.503V29.75H235.003ZM235.003 31.3125V32.8125H236.503V31.3125H235.003ZM230.316 26.625V25.125H228.816V26.625H230.316ZM230.316 29.75H228.816V31.25H230.316V29.75ZM233.441 29.75V31.25H234.941V29.75H233.441ZM233.441 26.625H234.941V25.125H233.441V26.625ZM230.323 31.3125L228.823 31.3175L228.839 36.005L230.339 36L231.839 35.995L231.823 31.3075L230.323 31.3125ZM230.339 36V34.5H225.628V36V37.5H230.339V36ZM225.628 36H227.128V25.0625H225.628H224.128V36H225.628ZM225.628 25.0625V26.5625H235.003V25.0625V23.5625H225.628V25.0625ZM235.003 25.0625H233.503V26.625H235.003H236.503V25.0625H235.003ZM235.003 26.625V28.125H236.566V26.625V25.125H235.003V26.625ZM236.566 26.625H235.066V29.75H236.566H238.066V26.625H236.566ZM236.566 29.75V28.25H235.003V29.75V31.25H236.566V29.75ZM235.003 29.75H233.503V31.3125H235.003H236.503V29.75H235.003ZM235.003 31.3125V29.8125H230.323V31.3125V32.8125H235.003V31.3125ZM230.316 26.625H228.816V29.75H230.316H231.816V26.625H230.316ZM230.316 29.75V31.25H233.441V29.75V28.25H230.316V29.75ZM233.441 29.75H234.941V26.625H233.441H231.941V29.75H233.441ZM233.441 26.625V25.125H230.316V26.625V28.125H233.441V26.625ZM238.928 36H237.428V37.5H238.928V36ZM238.928 25.0625V23.5625H237.428V25.0625H238.928ZM248.303 25.0625H249.803V23.5625H248.303V25.0625ZM248.303 26.625H246.803V28.125H248.303V26.625ZM249.866 26.625H251.366V25.125H249.866V26.625ZM249.866 29.75V31.25H251.366V29.75H249.866ZM248.303 29.75V28.25H246.803V29.75H248.303ZM248.303 31.3125H246.803V32.8125H248.303V31.3125ZM249.866 31.3125H251.366V29.8125H249.866V31.3125ZM249.866 36V37.5H251.366V36H249.866ZM245.178 36H243.678V37.5H245.178V36ZM245.178 31.3125H246.678V29.8125H245.178V31.3125ZM242.061 31.3125V29.8125H240.561V31.3125H242.061ZM242.061 36V37.5H243.561V36H242.061ZM243.616 26.625V25.125H242.116V26.625H243.616ZM243.616 29.75H242.116V31.25H243.616V29.75ZM246.741 29.75V31.25H248.241V29.75H246.741ZM246.741 26.625H248.241V25.125H246.741V26.625ZM238.928 36H240.428V25.0625H238.928H237.428V36H238.928ZM238.928 25.0625V26.5625H248.303V25.0625V23.5625H238.928V25.0625ZM248.303 25.0625H246.803V26.625H248.303H249.803V25.0625H248.303ZM248.303 26.625V28.125H249.866V26.625V25.125H248.303V26.625ZM249.866 26.625H248.366V29.75H249.866H251.366V26.625H249.866ZM249.866 29.75V28.25H248.303V29.75V31.25H249.866V29.75ZM248.303 29.75H246.803V31.3125H248.303H249.803V29.75H248.303ZM248.303 31.3125V32.8125H249.866V31.3125V29.8125H248.303V31.3125ZM249.866 31.3125H248.366V36H249.866H251.366V31.3125H249.866ZM249.866 36V34.5H245.178V36V37.5H249.866V36ZM245.178 36H246.678V31.3125H245.178H243.678V36H245.178ZM245.178 31.3125V29.8125H242.061V31.3125V32.8125H245.178V31.3125ZM242.061 31.3125H240.561V36H242.061H243.561V31.3125H242.061ZM242.061 36V34.5H238.928V36V37.5H242.061V36ZM243.616 26.625H242.116V29.75H243.616H245.116V26.625H243.616ZM243.616 29.75V31.25H246.741V29.75V28.25H243.616V29.75ZM246.741 29.75H248.241V26.625H246.741H245.241V29.75H246.741ZM246.741 26.625V25.125H243.616V26.625V28.125H246.741V26.625ZM261.603 25.0625H263.103V23.5625H261.603V25.0625ZM261.603 26.625V28.125H263.103V26.625H261.603ZM260.041 26.625V25.125H258.541V26.625H260.041ZM260.041 34.4375H258.541V35.9375H260.041V34.4375ZM261.603 34.4375H263.103V32.9375H261.603V34.4375ZM261.603 36V37.5H263.103V36H261.603ZM253.791 36H252.291V37.5H253.791V36ZM253.791 34.4375V32.9375H252.291V34.4375H253.791ZM255.353 34.4375V35.9375H256.853V34.4375H255.353ZM255.353 26.625H256.853V25.125H255.353V26.625ZM253.791 26.625H252.291V28.125H253.791V26.625ZM253.791 25.0625V23.5625H252.291V25.0625H253.791ZM261.603 25.0625H260.103V26.625H261.603H263.103V25.0625H261.603ZM261.603 26.625V25.125H260.041V26.625V28.125H261.603V26.625ZM260.041 26.625H258.541V34.4375H260.041H261.541V26.625H260.041ZM260.041 34.4375V35.9375H261.603V34.4375V32.9375H260.041V34.4375ZM261.603 34.4375H260.103V36H261.603H263.103V34.4375H261.603ZM261.603 36V34.5H253.791V36V37.5H261.603V36ZM253.791 36H255.291V34.4375H253.791H252.291V36H253.791ZM253.791 34.4375V35.9375H255.353V34.4375V32.9375H253.791V34.4375ZM255.353 34.4375H256.853V26.625H255.353H253.853V34.4375H255.353ZM255.353 26.625V25.125H253.791V26.625V28.125H255.353V26.625ZM253.791 26.625H255.291V25.0625H253.791H252.291V26.625H253.791ZM253.791 25.0625V26.5625H261.603V25.0625V23.5625H253.791V25.0625ZM265.528 36H264.028V37.5H265.528V36ZM265.528 32.875V31.375H264.028V32.875H265.528ZM267.091 32.875V34.375H268.591V32.875H267.091ZM267.091 31.3125V29.8125H265.591V31.3125H267.091ZM268.653 31.3125V32.8125H270.153V31.3125H268.653ZM268.653 29.75V28.25H267.153V29.75H268.653ZM270.216 29.75V31.25H271.716V29.75H270.216ZM270.216 28.1875V26.6875H268.716V28.1875H270.216ZM271.778 28.1875V29.6875H273.278V28.1875H271.778ZM271.778 26.625H273.278V25.125H271.778V26.625ZM265.528 26.625H264.028V28.125H265.528V26.625ZM265.528 25.0625V23.5625H264.028V25.0625H265.528ZM276.466 25.0625H277.966V23.5625H276.466V25.0625ZM276.466 28.1875V29.6875H277.966V28.1875H276.466ZM274.903 28.1875V26.6875H273.403V28.1875H274.903ZM274.903 29.75V31.25H276.403V29.75H274.903ZM273.341 29.75V28.25H271.841V29.75H273.341ZM273.341 31.3125V32.8125H274.841V31.3125H273.341ZM271.778 31.3125V29.8125H270.278V31.3125H271.778ZM271.778 32.875V34.375H273.278V32.875H271.778ZM270.216 32.875V31.375H268.716V32.875H270.216ZM270.216 34.4375H268.716V35.9375H270.216V34.4375ZM276.466 34.4375H277.966V32.9375H276.466V34.4375ZM276.466 36V37.5H277.966V36H276.466ZM265.528 36H267.028V32.875H265.528H264.028V36H265.528ZM265.528 32.875V34.375H267.091V32.875V31.375H265.528V32.875ZM267.091 32.875H268.591V31.3125H267.091H265.591V32.875H267.091ZM267.091 31.3125V32.8125H268.653V31.3125V29.8125H267.091V31.3125ZM268.653 31.3125H270.153V29.75H268.653H267.153V31.3125H268.653ZM268.653 29.75V31.25H270.216V29.75V28.25H268.653V29.75ZM270.216 29.75H271.716V28.1875H270.216H268.716V29.75H270.216ZM270.216 28.1875V29.6875H271.778V28.1875V26.6875H270.216V28.1875ZM271.778 28.1875H273.278V26.625H271.778H270.278V28.1875H271.778ZM271.778 26.625V25.125H265.528V26.625V28.125H271.778V26.625ZM265.528 26.625H267.028V25.0625H265.528H264.028V26.625H265.528ZM265.528 25.0625V26.5625H276.466V25.0625V23.5625H265.528V25.0625ZM276.466 25.0625H274.966V28.1875H276.466H277.966V25.0625H276.466ZM276.466 28.1875V26.6875H274.903V28.1875V29.6875H276.466V28.1875ZM274.903 28.1875H273.403V29.75H274.903H276.403V28.1875H274.903ZM274.903 29.75V28.25H273.341V29.75V31.25H274.903V29.75ZM273.341 29.75H271.841V31.3125H273.341H274.841V29.75H273.341ZM273.341 31.3125V29.8125H271.778V31.3125V32.8125H273.341V31.3125ZM271.778 31.3125H270.278V32.875H271.778H273.278V31.3125H271.778ZM271.778 32.875V31.375H270.216V32.875V34.375H271.778V32.875ZM270.216 32.875H268.716V34.4375H270.216H271.716V32.875H270.216ZM270.216 34.4375V35.9375H276.466V34.4375V32.9375H270.216V34.4375ZM276.466 34.4375H274.966V36H276.466H277.966V34.4375H276.466ZM276.466 36V34.5H265.528V36V37.5H276.466V36ZM289.766 36V37.5H291.266V36H289.766ZM278.828 36H277.328V37.5H278.828V36ZM278.828 25.0625V23.5625H277.328V25.0625H278.828ZM289.766 25.0625H291.266V23.5625H289.766V25.0625ZM289.766 26.625V28.125H291.266V26.625H289.766ZM283.516 26.625V25.125H282.016V26.625H283.516ZM283.516 29.75H282.016V31.25H283.516V29.75ZM288.203 29.75H289.703V28.25H288.203V29.75ZM288.203 31.3125V32.8125H289.703V31.3125H288.203ZM283.516 31.3125V29.8125H282.016V31.3125H283.516ZM283.516 34.4375H282.016V35.9375H283.516V34.4375ZM289.766 34.4375H291.266V32.9375H289.766V34.4375ZM289.766 36V34.5H278.828V36V37.5H289.766V36ZM278.828 36H280.328V25.0625H278.828H277.328V36H278.828ZM278.828 25.0625V26.5625H289.766V25.0625V23.5625H278.828V25.0625ZM289.766 25.0625H288.266V26.625H289.766H291.266V25.0625H289.766ZM289.766 26.625V25.125H283.516V26.625V28.125H289.766V26.625ZM283.516 26.625H282.016V29.75H283.516H285.016V26.625H283.516ZM283.516 29.75V31.25H288.203V29.75V28.25H283.516V29.75ZM288.203 29.75H286.703V31.3125H288.203H289.703V29.75H288.203ZM288.203 31.3125V29.8125H283.516V31.3125V32.8125H288.203V31.3125ZM283.516 31.3125H282.016V34.4375H283.516H285.016V31.3125H283.516ZM283.516 34.4375V35.9375H289.766V34.4375V32.9375H283.516V34.4375ZM289.766 34.4375H288.266V36H289.766H291.266V34.4375H289.766Z" fill="#222256" mask="url(#path-2-outside-1_43_10057)"/>
</g>
<defs>
<filter id="filter0_dd_43_10057" x="2" y="1.5" width="368" height="63" filterUnits="userSpaceOnUse" color-interpolation-filters="sRGB">
<feFlood flood-opacity="0" result="BackgroundImageFix"/>
<feColorMatrix in="SourceAlpha" type="matrix" values="0 0 0 0 0 0 0 0 0 0 0 0 0 0 0 0 0 0 127 0" result="hardAlpha"/>
<feOffset dy="4"/>
<feComposite in2="hardAlpha" operator="out"/>
<feColorMatrix type="matrix" values="0 0 0 0 1 0 0 0 0 0.447059 0 0 0 0 0.152941 0 0 0 1 0"/>
<feBlend mode="normal" in2="BackgroundImageFix" result="effect1_dropShadow_43_10057"/>
<feColorMatrix in="SourceAlpha" type="matrix" values="0 0 0 0 0 0 0 0 0 0 0 0 0 0 0 0 0 0 127 0" result="hardAlpha"/>
<feOffset dy="2"/>
<feComposite in2="hardAlpha" operator="out"/>
<feColorMatrix type="matrix" values="0 0 0 0 0 0 0 0 0 0 0 0 0 0 0 0 0 0 0.25 0"/>
<feBlend mode="normal" in2="effect1_dropShadow_43_10057" result="effect2_dropShadow_43_10057"/>
<feBlend mode="normal" in="SourceGraphic" in2="effect2_dropShadow_43_10057" result="shape"/>
</filter>
<filter id="filter1_d_43_10057" x="81.8599" y="22.356" width="209.406" height="17.7538" filterUnits="userSpaceOnUse" color-interpolation-filters="sRGB">
<feFlood flood-opacity="0" result="BackgroundImageFix"/>
<feColorMatrix in="SourceAlpha" type="matrix" values="0 0 0 0 0 0 0 0 0 0 0 0 0 0 0 0 0 0 127 0" result="hardAlpha"/>
<feOffset dy="1.68182"/>
<feComposite in2="hardAlpha" operator="out"/>
<feColorMatrix type="matrix" values="0 0 0 0 1 0 0 0 0 0.447059 0 0 0 0 0.152941 0 0 0 1 0"/>
<feBlend mode="normal" in2="BackgroundImageFix" result="effect1_dropShadow_43_10057"/>
<feBlend mode="normal" in="SourceGraphic" in2="effect1_dropShadow_43_10057" result="shape"/>
</filter>
</defs>
</svg>
