<svg width="372" height="65" viewBox="0 0 372 65" fill="none" xmlns="http://www.w3.org/2000/svg">
<g filter="url(#filter0_dd_43_10060)">
<path d="M10.0089 7.97778V3H360.99V5.48889H368.5V55.2667H360.99V59H10.0089V53.1926H3.5V7.97778H10.0089Z" fill="#FFE14C"/>
<path d="M10.0089 7.97778V3H360.99V5.48889H368.5V55.2667H360.99V59H10.0089V53.1926H3.5V7.97778H10.0089Z" stroke="#C99810" stroke-width="3"/>
</g>
<g filter="url(#filter1_d_43_10060)">
<mask id="path-2-outside-1_43_10060" maskUnits="userSpaceOnUse" x="102.5" y="23" width="171" height="15" fill="black">
<rect fill="white" x="102.5" y="23" width="171" height="15"/>
<path d="M104.075 25.0625H110.325V36H105.637V26.625H104.075V25.0625ZM115.812 25.0625H123.625V26.625H125.187V34.4375H123.625V36H115.812V34.4375H114.25V26.625H115.812V25.0625ZM117.375 26.625V34.4375H120.5V26.625H117.375ZM132.237 29.75V26.625H133.8V29.75H136.925V31.3125H133.8V34.4375H132.237V31.3125H129.112V29.75H132.237ZM158.837 26.625V34.4375H165.087V36H155.712V34.4375H154.15V26.625H155.712V25.0625H165.087V26.625H158.837ZM176.825 36H169.012V34.4375H167.45V26.625H169.012V25.0625H176.825V26.625H178.387V34.4375H176.825V36ZM175.262 34.4375V26.625H172.137V34.4375H175.262ZM185.438 25.0625V34.4375H188.562V25.0625H191.688V34.4375H190.125V36H182.312V34.4375H180.75V25.0625H185.438ZM194.05 36V25.0625H203.425V26.625H204.987V36H201.862V26.625H198.737L198.745 36H194.05ZM218.287 25.0625V26.625H215.162V36H210.475V26.625H207.35V25.0625H218.287ZM220.65 36V25.0625H230.025V26.625H231.587V29.75H230.025V31.3125H231.587V36H226.9V31.3125H223.783V36H220.65ZM225.337 26.625V29.75H228.462V26.625H225.337ZM243.325 25.0625V26.625H241.762V34.4375H243.325V36H235.512V34.4375H237.075V26.625H235.512V25.0625H243.325ZM258.188 36H247.25V25.0625H258.188V26.625H251.938V29.75H256.625V31.3125H251.938V34.4375H258.188V36ZM260.55 32.875H263.675V34.4375H268.363V31.3125H262.113V29.75H260.55V26.625H262.113V25.0625H269.925V26.625H271.488V28.1875H268.363V26.625H265.238V29.75H269.925V31.3125H271.488V34.4375H269.925V36H262.113V34.4375H260.55V32.875Z"/>
</mask>
<path d="M104.075 25.0625H110.325V36H105.637V26.625H104.075V25.0625ZM115.812 25.0625H123.625V26.625H125.187V34.4375H123.625V36H115.812V34.4375H114.25V26.625H115.812V25.0625ZM117.375 26.625V34.4375H120.5V26.625H117.375ZM132.237 29.75V26.625H133.8V29.75H136.925V31.3125H133.8V34.4375H132.237V31.3125H129.112V29.75H132.237ZM158.837 26.625V34.4375H165.087V36H155.712V34.4375H154.15V26.625H155.712V25.0625H165.087V26.625H158.837ZM176.825 36H169.012V34.4375H167.45V26.625H169.012V25.0625H176.825V26.625H178.387V34.4375H176.825V36ZM175.262 34.4375V26.625H172.137V34.4375H175.262ZM185.438 25.0625V34.4375H188.562V25.0625H191.688V34.4375H190.125V36H182.312V34.4375H180.75V25.0625H185.438ZM194.05 36V25.0625H203.425V26.625H204.987V36H201.862V26.625H198.737L198.745 36H194.05ZM218.287 25.0625V26.625H215.162V36H210.475V26.625H207.35V25.0625H218.287ZM220.65 36V25.0625H230.025V26.625H231.587V29.75H230.025V31.3125H231.587V36H226.9V31.3125H223.783V36H220.65ZM225.337 26.625V29.75H228.462V26.625H225.337ZM243.325 25.0625V26.625H241.762V34.4375H243.325V36H235.512V34.4375H237.075V26.625H235.512V25.0625H243.325ZM258.188 36H247.25V25.0625H258.188V26.625H251.938V29.75H256.625V31.3125H251.938V34.4375H258.188V36ZM260.55 32.875H263.675V34.4375H268.363V31.3125H262.113V29.75H260.55V26.625H262.113V25.0625H269.925V26.625H271.488V28.1875H268.363V26.625H265.238V29.75H269.925V31.3125H271.488V34.4375H269.925V36H262.113V34.4375H260.55V32.875Z" fill="white"/>
<path d="M104.075 25.0625V23.5625H102.575V25.0625H104.075ZM110.325 25.0625H111.825V23.5625H110.325V25.0625ZM110.325 36V37.5H111.825V36H110.325ZM105.637 36H104.137V37.5H105.637V36ZM105.637 26.625H107.137V25.125H105.637V26.625ZM104.075 26.625H102.575V28.125H104.075V26.625ZM104.075 25.0625V26.5625H110.325V25.0625V23.5625H104.075V25.0625ZM110.325 25.0625H108.825V36H110.325H111.825V25.0625H110.325ZM110.325 36V34.5H105.637V36V37.5H110.325V36ZM105.637 36H107.137V26.625H105.637H104.137V36H105.637ZM105.637 26.625V25.125H104.075V26.625V28.125H105.637V26.625ZM104.075 26.625H105.575V25.0625H104.075H102.575V26.625H104.075ZM115.812 25.0625V23.5625H114.312V25.0625H115.812ZM123.625 25.0625H125.125V23.5625H123.625V25.0625ZM123.625 26.625H122.125V28.125H123.625V26.625ZM125.187 26.625H126.687V25.125H125.187V26.625ZM125.187 34.4375V35.9375H126.687V34.4375H125.187ZM123.625 34.4375V32.9375H122.125V34.4375H123.625ZM123.625 36V37.5H125.125V36H123.625ZM115.812 36H114.312V37.5H115.812V36ZM115.812 34.4375H117.312V32.9375H115.812V34.4375ZM114.25 34.4375H112.75V35.9375H114.25V34.4375ZM114.25 26.625V25.125H112.75V26.625H114.25ZM115.812 26.625V28.125H117.312V26.625H115.812ZM117.375 26.625V25.125H115.875V26.625H117.375ZM117.375 34.4375H115.875V35.9375H117.375V34.4375ZM120.5 34.4375V35.9375H122V34.4375H120.5ZM120.5 26.625H122V25.125H120.5V26.625ZM115.812 25.0625V26.5625H123.625V25.0625V23.5625H115.812V25.0625ZM123.625 25.0625H122.125V26.625H123.625H125.125V25.0625H123.625ZM123.625 26.625V28.125H125.187V26.625V25.125H123.625V26.625ZM125.187 26.625H123.687V34.4375H125.187H126.687V26.625H125.187ZM125.187 34.4375V32.9375H123.625V34.4375V35.9375H125.187V34.4375ZM123.625 34.4375H122.125V36H123.625H125.125V34.4375H123.625ZM123.625 36V34.5H115.812V36V37.5H123.625V36ZM115.812 36H117.312V34.4375H115.812H114.312V36H115.812ZM115.812 34.4375V32.9375H114.25V34.4375V35.9375H115.812V34.4375ZM114.25 34.4375H115.75V26.625H114.25H112.75V34.4375H114.25ZM114.25 26.625V28.125H115.812V26.625V25.125H114.25V26.625ZM115.812 26.625H117.312V25.0625H115.812H114.312V26.625H115.812ZM117.375 26.625H115.875V34.4375H117.375H118.875V26.625H117.375ZM117.375 34.4375V35.9375H120.5V34.4375V32.9375H117.375V34.4375ZM120.5 34.4375H122V26.625H120.5H119V34.4375H120.5ZM120.5 26.625V25.125H117.375V26.625V28.125H120.5V26.625ZM132.237 29.75V31.25H133.737V29.75H132.237ZM132.237 26.625V25.125H130.737V26.625H132.237ZM133.8 26.625H135.3V25.125H133.8V26.625ZM133.8 29.75H132.3V31.25H133.8V29.75ZM136.925 29.75H138.425V28.25H136.925V29.75ZM136.925 31.3125V32.8125H138.425V31.3125H136.925ZM133.8 31.3125V29.8125H132.3V31.3125H133.8ZM133.8 34.4375V35.9375H135.3V34.4375H133.8ZM132.237 34.4375H130.737V35.9375H132.237V34.4375ZM132.237 31.3125H133.737V29.8125H132.237V31.3125ZM129.112 31.3125H127.612V32.8125H129.112V31.3125ZM129.112 29.75V28.25H127.612V29.75H129.112ZM132.237 29.75H133.737V26.625H132.237H130.737V29.75H132.237ZM132.237 26.625V28.125H133.8V26.625V25.125H132.237V26.625ZM133.8 26.625H132.3V29.75H133.8H135.3V26.625H133.8ZM133.8 29.75V31.25H136.925V29.75V28.25H133.8V29.75ZM136.925 29.75H135.425V31.3125H136.925H138.425V29.75H136.925ZM136.925 31.3125V29.8125H133.8V31.3125V32.8125H136.925V31.3125ZM133.8 31.3125H132.3V34.4375H133.8H135.3V31.3125H133.8ZM133.8 34.4375V32.9375H132.237V34.4375V35.9375H133.8V34.4375ZM132.237 34.4375H133.737V31.3125H132.237H130.737V34.4375H132.237ZM132.237 31.3125V29.8125H129.112V31.3125V32.8125H132.237V31.3125ZM129.112 31.3125H130.612V29.75H129.112H127.612V31.3125H129.112ZM129.112 29.75V31.25H132.237V29.75V28.25H129.112V29.75ZM158.837 26.625V25.125H157.337V26.625H158.837ZM158.837 34.4375H157.337V35.9375H158.837V34.4375ZM165.087 34.4375H166.587V32.9375H165.087V34.4375ZM165.087 36V37.5H166.587V36H165.087ZM155.712 36H154.212V37.5H155.712V36ZM155.712 34.4375H157.212V32.9375H155.712V34.4375ZM154.15 34.4375H152.65V35.9375H154.15V34.4375ZM154.15 26.625V25.125H152.65V26.625H154.15ZM155.712 26.625V28.125H157.212V26.625H155.712ZM155.712 25.0625V23.5625H154.212V25.0625H155.712ZM165.087 25.0625H166.587V23.5625H165.087V25.0625ZM165.087 26.625V28.125H166.587V26.625H165.087ZM158.837 26.625H157.337V34.4375H158.837H160.337V26.625H158.837ZM158.837 34.4375V35.9375H165.087V34.4375V32.9375H158.837V34.4375ZM165.087 34.4375H163.587V36H165.087H166.587V34.4375H165.087ZM165.087 36V34.5H155.712V36V37.5H165.087V36ZM155.712 36H157.212V34.4375H155.712H154.212V36H155.712ZM155.712 34.4375V32.9375H154.15V34.4375V35.9375H155.712V34.4375ZM154.15 34.4375H155.65V26.625H154.15H152.65V34.4375H154.15ZM154.15 26.625V28.125H155.712V26.625V25.125H154.15V26.625ZM155.712 26.625H157.212V25.0625H155.712H154.212V26.625H155.712ZM155.712 25.0625V26.5625H165.087V25.0625V23.5625H155.712V25.0625ZM165.087 25.0625H163.587V26.625H165.087H166.587V25.0625H165.087ZM165.087 26.625V25.125H158.837V26.625V28.125H165.087V26.625ZM176.825 36V37.5H178.325V36H176.825ZM169.012 36H167.512V37.5H169.012V36ZM169.012 34.4375H170.512V32.9375H169.012V34.4375ZM167.45 34.4375H165.95V35.9375H167.45V34.4375ZM167.45 26.625V25.125H165.95V26.625H167.45ZM169.012 26.625V28.125H170.512V26.625H169.012ZM169.012 25.0625V23.5625H167.512V25.0625H169.012ZM176.825 25.0625H178.325V23.5625H176.825V25.0625ZM176.825 26.625H175.325V28.125H176.825V26.625ZM178.387 26.625H179.887V25.125H178.387V26.625ZM178.387 34.4375V35.9375H179.887V34.4375H178.387ZM176.825 34.4375V32.9375H175.325V34.4375H176.825ZM175.262 34.4375V35.9375H176.762V34.4375H175.262ZM175.262 26.625H176.762V25.125H175.262V26.625ZM172.137 26.625V25.125H170.637V26.625H172.137ZM172.137 34.4375H170.637V35.9375H172.137V34.4375ZM176.825 36V34.5H169.012V36V37.5H176.825V36ZM169.012 36H170.512V34.4375H169.012H167.512V36H169.012ZM169.012 34.4375V32.9375H167.45V34.4375V35.9375H169.012V34.4375ZM167.45 34.4375H168.95V26.625H167.45H165.95V34.4375H167.45ZM167.45 26.625V28.125H169.012V26.625V25.125H167.45V26.625ZM169.012 26.625H170.512V25.0625H169.012H167.512V26.625H169.012ZM169.012 25.0625V26.5625H176.825V25.0625V23.5625H169.012V25.0625ZM176.825 25.0625H175.325V26.625H176.825H178.325V25.0625H176.825ZM176.825 26.625V28.125H178.387V26.625V25.125H176.825V26.625ZM178.387 26.625H176.887V34.4375H178.387H179.887V26.625H178.387ZM178.387 34.4375V32.9375H176.825V34.4375V35.9375H178.387V34.4375ZM176.825 34.4375H175.325V36H176.825H178.325V34.4375H176.825ZM175.262 34.4375H176.762V26.625H175.262H173.762V34.4375H175.262ZM175.262 26.625V25.125H172.137V26.625V28.125H175.262V26.625ZM172.137 26.625H170.637V34.4375H172.137H173.637V26.625H172.137ZM172.137 34.4375V35.9375H175.262V34.4375V32.9375H172.137V34.4375ZM185.438 25.0625H186.938V23.5625H185.438V25.0625ZM185.438 34.4375H183.938V35.9375H185.438V34.4375ZM188.562 34.4375V35.9375H190.062V34.4375H188.562ZM188.562 25.0625V23.5625H187.062V25.0625H188.562ZM191.688 25.0625H193.188V23.5625H191.688V25.0625ZM191.688 34.4375V35.9375H193.188V34.4375H191.688ZM190.125 34.4375V32.9375H188.625V34.4375H190.125ZM190.125 36V37.5H191.625V36H190.125ZM182.312 36H180.812V37.5H182.312V36ZM182.312 34.4375H183.812V32.9375H182.312V34.4375ZM180.75 34.4375H179.25V35.9375H180.75V34.4375ZM180.75 25.0625V23.5625H179.25V25.0625H180.75ZM185.438 25.0625H183.938V34.4375H185.438H186.938V25.0625H185.438ZM185.438 34.4375V35.9375H188.562V34.4375V32.9375H185.438V34.4375ZM188.562 34.4375H190.062V25.0625H188.562H187.062V34.4375H188.562ZM188.562 25.0625V26.5625H191.688V25.0625V23.5625H188.562V25.0625ZM191.688 25.0625H190.188V34.4375H191.688H193.188V25.0625H191.688ZM191.688 34.4375V32.9375H190.125V34.4375V35.9375H191.688V34.4375ZM190.125 34.4375H188.625V36H190.125H191.625V34.4375H190.125ZM190.125 36V34.5H182.312V36V37.5H190.125V36ZM182.312 36H183.812V34.4375H182.312H180.812V36H182.312ZM182.312 34.4375V32.9375H180.75V34.4375V35.9375H182.312V34.4375ZM180.75 34.4375H182.25V25.0625H180.75H179.25V34.4375H180.75ZM180.75 25.0625V26.5625H185.438V25.0625V23.5625H180.75V25.0625ZM194.05 36H192.55V37.5H194.05V36ZM194.05 25.0625V23.5625H192.55V25.0625H194.05ZM203.425 25.0625H204.925V23.5625H203.425V25.0625ZM203.425 26.625H201.925V28.125H203.425V26.625ZM204.987 26.625H206.487V25.125H204.987V26.625ZM204.987 36V37.5H206.487V36H204.987ZM201.862 36H200.362V37.5H201.862V36ZM201.862 26.625H203.362V25.125H201.862V26.625ZM198.737 26.625V25.125H197.236L197.237 26.6262L198.737 26.625ZM198.745 36V37.5H200.247L200.245 35.9987L198.745 36ZM194.05 36H195.55V25.0625H194.05H192.55V36H194.05ZM194.05 25.0625V26.5625H203.425V25.0625V23.5625H194.05V25.0625ZM203.425 25.0625H201.925V26.625H203.425H204.925V25.0625H203.425ZM203.425 26.625V28.125H204.987V26.625V25.125H203.425V26.625ZM204.987 26.625H203.487V36H204.987H206.487V26.625H204.987ZM204.987 36V34.5H201.862V36V37.5H204.987V36ZM201.862 36H203.362V26.625H201.862H200.362V36H201.862ZM201.862 26.625V25.125H198.737V26.625V28.125H201.862V26.625ZM198.737 26.625L197.237 26.6262L197.245 36.0013L198.745 36L200.245 35.9987L200.237 26.6238L198.737 26.625ZM198.745 36V34.5H194.05V36V37.5H198.745V36ZM218.287 25.0625H219.787V23.5625H218.287V25.0625ZM218.287 26.625V28.125H219.787V26.625H218.287ZM215.162 26.625V25.125H213.662V26.625H215.162ZM215.162 36V37.5H216.662V36H215.162ZM210.475 36H208.975V37.5H210.475V36ZM210.475 26.625H211.975V25.125H210.475V26.625ZM207.35 26.625H205.85V28.125H207.35V26.625ZM207.35 25.0625V23.5625H205.85V25.0625H207.35ZM218.287 25.0625H216.787V26.625H218.287H219.787V25.0625H218.287ZM218.287 26.625V25.125H215.162V26.625V28.125H218.287V26.625ZM215.162 26.625H213.662V36H215.162H216.662V26.625H215.162ZM215.162 36V34.5H210.475V36V37.5H215.162V36ZM210.475 36H211.975V26.625H210.475H208.975V36H210.475ZM210.475 26.625V25.125H207.35V26.625V28.125H210.475V26.625ZM207.35 26.625H208.85V25.0625H207.35H205.85V26.625H207.35ZM207.35 25.0625V26.5625H218.287V25.0625V23.5625H207.35V25.0625ZM220.65 36H219.15V37.5H220.65V36ZM220.65 25.0625V23.5625H219.15V25.0625H220.65ZM230.025 25.0625H231.525V23.5625H230.025V25.0625ZM230.025 26.625H228.525V28.125H230.025V26.625ZM231.587 26.625H233.087V25.125H231.587V26.625ZM231.587 29.75V31.25H233.087V29.75H231.587ZM230.025 29.75V28.25H228.525V29.75H230.025ZM230.025 31.3125H228.525V32.8125H230.025V31.3125ZM231.587 31.3125H233.087V29.8125H231.587V31.3125ZM231.587 36V37.5H233.087V36H231.587ZM226.9 36H225.4V37.5H226.9V36ZM226.9 31.3125H228.4V29.8125H226.9V31.3125ZM223.783 31.3125V29.8125H222.283V31.3125H223.783ZM223.783 36V37.5H225.283V36H223.783ZM225.337 26.625V25.125H223.837V26.625H225.337ZM225.337 29.75H223.837V31.25H225.337V29.75ZM228.462 29.75V31.25H229.962V29.75H228.462ZM228.462 26.625H229.962V25.125H228.462V26.625ZM220.65 36H222.15V25.0625H220.65H219.15V36H220.65ZM220.65 25.0625V26.5625H230.025V25.0625V23.5625H220.65V25.0625ZM230.025 25.0625H228.525V26.625H230.025H231.525V25.0625H230.025ZM230.025 26.625V28.125H231.587V26.625V25.125H230.025V26.625ZM231.587 26.625H230.087V29.75H231.587H233.087V26.625H231.587ZM231.587 29.75V28.25H230.025V29.75V31.25H231.587V29.75ZM230.025 29.75H228.525V31.3125H230.025H231.525V29.75H230.025ZM230.025 31.3125V32.8125H231.587V31.3125V29.8125H230.025V31.3125ZM231.587 31.3125H230.087V36H231.587H233.087V31.3125H231.587ZM231.587 36V34.5H226.9V36V37.5H231.587V36ZM226.9 36H228.4V31.3125H226.9H225.4V36H226.9ZM226.9 31.3125V29.8125H223.783V31.3125V32.8125H226.9V31.3125ZM223.783 31.3125H222.283V36H223.783H225.283V31.3125H223.783ZM223.783 36V34.5H220.65V36V37.5H223.783V36ZM225.337 26.625H223.837V29.75H225.337H226.837V26.625H225.337ZM225.337 29.75V31.25H228.462V29.75V28.25H225.337V29.75ZM228.462 29.75H229.962V26.625H228.462H226.962V29.75H228.462ZM228.462 26.625V25.125H225.337V26.625V28.125H228.462V26.625ZM243.325 25.0625H244.825V23.5625H243.325V25.0625ZM243.325 26.625V28.125H244.825V26.625H243.325ZM241.762 26.625V25.125H240.262V26.625H241.762ZM241.762 34.4375H240.262V35.9375H241.762V34.4375ZM243.325 34.4375H244.825V32.9375H243.325V34.4375ZM243.325 36V37.5H244.825V36H243.325ZM235.512 36H234.012V37.5H235.512V36ZM235.512 34.4375V32.9375H234.012V34.4375H235.512ZM237.075 34.4375V35.9375H238.575V34.4375H237.075ZM237.075 26.625H238.575V25.125H237.075V26.625ZM235.512 26.625H234.012V28.125H235.512V26.625ZM235.512 25.0625V23.5625H234.012V25.0625H235.512ZM243.325 25.0625H241.825V26.625H243.325H244.825V25.0625H243.325ZM243.325 26.625V25.125H241.762V26.625V28.125H243.325V26.625ZM241.762 26.625H240.262V34.4375H241.762H243.262V26.625H241.762ZM241.762 34.4375V35.9375H243.325V34.4375V32.9375H241.762V34.4375ZM243.325 34.4375H241.825V36H243.325H244.825V34.4375H243.325ZM243.325 36V34.5H235.512V36V37.5H243.325V36ZM235.512 36H237.012V34.4375H235.512H234.012V36H235.512ZM235.512 34.4375V35.9375H237.075V34.4375V32.9375H235.512V34.4375ZM237.075 34.4375H238.575V26.625H237.075H235.575V34.4375H237.075ZM237.075 26.625V25.125H235.512V26.625V28.125H237.075V26.625ZM235.512 26.625H237.012V25.0625H235.512H234.012V26.625H235.512ZM235.512 25.0625V26.5625H243.325V25.0625V23.5625H235.512V25.0625ZM258.188 36V37.5H259.688V36H258.188ZM247.25 36H245.75V37.5H247.25V36ZM247.25 25.0625V23.5625H245.75V25.0625H247.25ZM258.188 25.0625H259.688V23.5625H258.188V25.0625ZM258.188 26.625V28.125H259.688V26.625H258.188ZM251.938 26.625V25.125H250.438V26.625H251.938ZM251.938 29.75H250.438V31.25H251.938V29.75ZM256.625 29.75H258.125V28.25H256.625V29.75ZM256.625 31.3125V32.8125H258.125V31.3125H256.625ZM251.938 31.3125V29.8125H250.438V31.3125H251.938ZM251.938 34.4375H250.438V35.9375H251.938V34.4375ZM258.188 34.4375H259.688V32.9375H258.188V34.4375ZM258.188 36V34.5H247.25V36V37.5H258.188V36ZM247.25 36H248.75V25.0625H247.25H245.75V36H247.25ZM247.25 25.0625V26.5625H258.188V25.0625V23.5625H247.25V25.0625ZM258.188 25.0625H256.688V26.625H258.188H259.688V25.0625H258.188ZM258.188 26.625V25.125H251.938V26.625V28.125H258.188V26.625ZM251.938 26.625H250.438V29.75H251.938H253.438V26.625H251.938ZM251.938 29.75V31.25H256.625V29.75V28.25H251.938V29.75ZM256.625 29.75H255.125V31.3125H256.625H258.125V29.75H256.625ZM256.625 31.3125V29.8125H251.938V31.3125V32.8125H256.625V31.3125ZM251.938 31.3125H250.438V34.4375H251.938H253.438V31.3125H251.938ZM251.938 34.4375V35.9375H258.188V34.4375V32.9375H251.938V34.4375ZM258.188 34.4375H256.688V36H258.188H259.688V34.4375H258.188ZM260.55 32.875V31.375H259.05V32.875H260.55ZM263.675 32.875H265.175V31.375H263.675V32.875ZM263.675 34.4375H262.175V35.9375H263.675V34.4375ZM268.363 34.4375V35.9375H269.863V34.4375H268.363ZM268.363 31.3125H269.863V29.8125H268.363V31.3125ZM262.113 31.3125H260.613V32.8125H262.113V31.3125ZM262.113 29.75H263.613V28.25H262.113V29.75ZM260.55 29.75H259.05V31.25H260.55V29.75ZM260.55 26.625V25.125H259.05V26.625H260.55ZM262.113 26.625V28.125H263.613V26.625H262.113ZM262.113 25.0625V23.5625H260.613V25.0625H262.113ZM269.925 25.0625H271.425V23.5625H269.925V25.0625ZM269.925 26.625H268.425V28.125H269.925V26.625ZM271.488 26.625H272.988V25.125H271.488V26.625ZM271.488 28.1875V29.6875H272.988V28.1875H271.488ZM268.363 28.1875H266.863V29.6875H268.363V28.1875ZM268.363 26.625H269.863V25.125H268.363V26.625ZM265.238 26.625V25.125H263.738V26.625H265.238ZM265.238 29.75H263.738V31.25H265.238V29.75ZM269.925 29.75H271.425V28.25H269.925V29.75ZM269.925 31.3125H268.425V32.8125H269.925V31.3125ZM271.488 31.3125H272.988V29.8125H271.488V31.3125ZM271.488 34.4375V35.9375H272.988V34.4375H271.488ZM269.925 34.4375V32.9375H268.425V34.4375H269.925ZM269.925 36V37.5H271.425V36H269.925ZM262.113 36H260.613V37.5H262.113V36ZM262.113 34.4375H263.613V32.9375H262.113V34.4375ZM260.55 34.4375H259.05V35.9375H260.55V34.4375ZM260.55 32.875V34.375H263.675V32.875V31.375H260.55V32.875ZM263.675 32.875H262.175V34.4375H263.675H265.175V32.875H263.675ZM263.675 34.4375V35.9375H268.363V34.4375V32.9375H263.675V34.4375ZM268.363 34.4375H269.863V31.3125H268.363H266.863V34.4375H268.363ZM268.363 31.3125V29.8125H262.113V31.3125V32.8125H268.363V31.3125ZM262.113 31.3125H263.613V29.75H262.113H260.613V31.3125H262.113ZM262.113 29.75V28.25H260.55V29.75V31.25H262.113V29.75ZM260.55 29.75H262.05V26.625H260.55H259.05V29.75H260.55ZM260.55 26.625V28.125H262.113V26.625V25.125H260.55V26.625ZM262.113 26.625H263.613V25.0625H262.113H260.613V26.625H262.113ZM262.113 25.0625V26.5625H269.925V25.0625V23.5625H262.113V25.0625ZM269.925 25.0625H268.425V26.625H269.925H271.425V25.0625H269.925ZM269.925 26.625V28.125H271.488V26.625V25.125H269.925V26.625ZM271.488 26.625H269.988V28.1875H271.488H272.988V26.625H271.488ZM271.488 28.1875V26.6875H268.363V28.1875V29.6875H271.488V28.1875ZM268.363 28.1875H269.863V26.625H268.363H266.863V28.1875H268.363ZM268.363 26.625V25.125H265.238V26.625V28.125H268.363V26.625ZM265.238 26.625H263.738V29.75H265.238H266.738V26.625H265.238ZM265.238 29.75V31.25H269.925V29.75V28.25H265.238V29.75ZM269.925 29.75H268.425V31.3125H269.925H271.425V29.75H269.925ZM269.925 31.3125V32.8125H271.488V31.3125V29.8125H269.925V31.3125ZM271.488 31.3125H269.988V34.4375H271.488H272.988V31.3125H271.488ZM271.488 34.4375V32.9375H269.925V34.4375V35.9375H271.488V34.4375ZM269.925 34.4375H268.425V36H269.925H271.425V34.4375H269.925ZM269.925 36V34.5H262.113V36V37.5H269.925V36ZM262.113 36H263.613V34.4375H262.113H260.613V36H262.113ZM262.113 34.4375V32.9375H260.55V34.4375V35.9375H262.113V34.4375ZM260.55 34.4375H262.05V32.875H260.55H259.05V34.4375H260.55Z" fill="#222256" mask="url(#path-2-outside-1_43_10060)"/>
</g>
<defs>
<filter id="filter0_dd_43_10060" x="2" y="1.5" width="368" height="63" filterUnits="userSpaceOnUse" color-interpolation-filters="sRGB">
<feFlood flood-opacity="0" result="BackgroundImageFix"/>
<feColorMatrix in="SourceAlpha" type="matrix" values="0 0 0 0 0 0 0 0 0 0 0 0 0 0 0 0 0 0 127 0" result="hardAlpha"/>
<feOffset dy="4"/>
<feComposite in2="hardAlpha" operator="out"/>
<feColorMatrix type="matrix" values="0 0 0 0 1 0 0 0 0 0.447059 0 0 0 0 0.152941 0 0 0 1 0"/>
<feBlend mode="normal" in2="BackgroundImageFix" result="effect1_dropShadow_43_10060"/>
<feColorMatrix in="SourceAlpha" type="matrix" values="0 0 0 0 0 0 0 0 0 0 0 0 0 0 0 0 0 0 127 0" result="hardAlpha"/>
<feOffset dy="2"/>
<feComposite in2="hardAlpha" operator="out"/>
<feColorMatrix type="matrix" values="0 0 0 0 0 0 0 0 0 0 0 0 0 0 0 0 0 0 0.25 0"/>
<feBlend mode="normal" in2="effect1_dropShadow_43_10060" result="effect2_dropShadow_43_10060"/>
<feBlend mode="normal" in="SourceGraphic" in2="effect2_dropShadow_43_10060" result="shape"/>
</filter>
<filter id="filter1_d_43_10060" x="102.575" y="23.5625" width="170.412" height="15.6193" filterUnits="userSpaceOnUse" color-interpolation-filters="sRGB">
<feFlood flood-opacity="0" result="BackgroundImageFix"/>
<feColorMatrix in="SourceAlpha" type="matrix" values="0 0 0 0 0 0 0 0 0 0 0 0 0 0 0 0 0 0 127 0" result="hardAlpha"/>
<feOffset dy="1.68182"/>
<feComposite in2="hardAlpha" operator="out"/>
<feColorMatrix type="matrix" values="0 0 0 0 1 0 0 0 0 0.447059 0 0 0 0 0.152941 0 0 0 1 0"/>
<feBlend mode="normal" in2="BackgroundImageFix" result="effect1_dropShadow_43_10060"/>
<feBlend mode="normal" in="SourceGraphic" in2="effect1_dropShadow_43_10060" result="shape"/>
</filter>
</defs>
</svg>
