<svg width="372" height="65" viewBox="0 0 372 65" fill="none" xmlns="http://www.w3.org/2000/svg">
<g filter="url(#filter0_dd_43_10063)">
<path d="M10.0089 7.97778V3H360.99V5.48889H368.5V55.2667H360.99V59H10.0089V53.1926H3.5V7.97778H10.0089Z" fill="#FFE14C"/>
<path d="M10.0089 7.97778V3H360.99V5.48889H368.5V55.2667H360.99V59H10.0089V53.1926H3.5V7.97778H10.0089Z" stroke="#C99810" stroke-width="3"/>
</g>
<g filter="url(#filter1_d_43_10063)">
<mask id="path-2-outside-1_43_10063" maskUnits="userSpaceOnUse" x="71.5" y="13" width="228" height="34" fill="black">
<rect fill="white" x="71.5" y="13" width="228" height="34"/>
<path d="M83.225 26H75.4125V24.4375H73.85V16.625H75.4125V15.0625H83.225V16.625H84.7875V24.4375H83.225V26ZM81.6625 24.4375V16.625H78.5375V24.4375H81.6625ZM91.8453 21.3125L91.8609 26H87.15V15.0625H96.525V16.625H98.0875V19.75H96.525V21.3125H91.8453ZM91.8375 16.625V19.75H94.9625V16.625H91.8375ZM111.387 26H100.45V15.0625H111.387V16.625H105.137V19.75H109.825V21.3125H105.137V24.4375H111.387V26ZM113.75 26V15.0625H123.125V16.625H124.688V26H121.562V16.625H118.438L118.445 26H113.75ZM151.287 15.0625V16.625H148.162V26H143.475V16.625H140.35V15.0625H151.287ZM163.025 26H155.213V24.4375H153.65V16.625H155.213V15.0625H163.025V16.625H164.588V24.4375H163.025V26ZM161.463 24.4375V16.625H158.338V24.4375H161.463ZM180.25 26V16.625H181.812V15.0625H189.625V16.625H191.188V26H188.062V21.3125H184.938V26H180.25ZM184.938 16.8672V19.75H188.062V16.8672H184.938ZM204.487 26H193.55V15.0625H198.237V24.4375H204.487V26ZM217.788 26H206.85V15.0625H211.538V24.4375H217.788V26ZM244.388 15.0625V16.625H241.263V26H236.575V16.625H233.45V15.0625H244.388ZM257.688 26H246.75V15.0625H257.688V16.625H251.438V19.75H256.125V21.3125H251.438V24.4375H257.688V26ZM260.05 26V16.625H261.612V15.0625H269.425V16.625H270.987V26H267.862V21.3125H264.737V26H260.05ZM264.737 16.8672V19.75H267.862V16.8672H264.737ZM281.163 16.625V26H278.038V16.625H276.475V26H273.35V15.0625H282.733V16.625H284.288V26H282.725V16.625H281.163ZM286.65 22.875H289.775V24.4375H294.462V21.3125H288.212V19.75H286.65V16.625H288.212V15.0625H296.025V16.625H297.587V18.1875H294.462V16.625H291.337V19.75H296.025V21.3125H297.587V24.4375H296.025V26H288.212V24.4375H286.65V22.875ZM93.8 45V35.625H95.3625V34.0625H103.175V35.625H104.738V45H101.613V40.3125H98.4875V45H93.8ZM98.4875 35.8672V38.75H101.613V35.8672H98.4875ZM107.1 45V34.0625H116.475V35.625H118.038V45H114.913V35.625H111.788L111.795 45H107.1ZM120.4 45V34.0625H129.775V35.625H131.338V43.4375H129.775V45H120.4ZM125.095 43.4375H128.213V35.625H125.088L125.095 43.4375ZM147 45V34.0625H156.375V35.625H157.938V43.4375H156.375V45H147ZM151.695 43.4375H154.812V35.625H151.688L151.695 43.4375ZM171.238 45H160.3V34.0625H171.238V35.625H164.988V38.75H169.675V40.3125H164.988V43.4375H171.238V45ZM173.6 34.0625H178.288V41.875H179.85V40.3125H181.413V34.0625H184.538V40.625H182.975V41.875H181.413V43.4375H179.85V45H178.288V43.4375H176.725V41.875H175.163V40.3125H173.6V34.0625ZM197.838 45H186.9V34.0625H197.838V35.625H191.588V38.75H196.275V40.3125H191.588V43.4375H197.838V45ZM211.138 45H200.2V34.0625H204.888V43.4375H211.138V45ZM222.875 45H215.062V43.4375H213.5V35.625H215.062V34.0625H222.875V35.625H224.438V43.4375H222.875V45ZM221.312 43.4375V35.625H218.188V43.4375H221.312ZM231.495 40.3125L231.511 45H226.8V34.0625H236.175V35.625H237.738V38.75H236.175V40.3125H231.495ZM231.488 35.625V38.75H234.613V35.625H231.488ZM251.038 45H240.1V34.0625H251.038V35.625H244.788V38.75H249.475V40.3125H244.788V43.4375H251.038V45ZM253.4 45V34.0625H262.775V35.625H264.338V38.75H262.775V40.3125H264.338V45H259.65V40.3125H256.533V45H253.4ZM258.088 35.625V38.75H261.213V35.625H258.088ZM266.7 41.875H269.825V43.4375H274.512V40.3125H268.262V38.75H266.7V35.625H268.262V34.0625H276.075V35.625H277.637V37.1875H274.512V35.625H271.387V38.75H276.075V40.3125H277.637V43.4375H276.075V45H268.262V43.4375H266.7V41.875Z"/>
</mask>
<path d="M83.225 26H75.4125V24.4375H73.85V16.625H75.4125V15.0625H83.225V16.625H84.7875V24.4375H83.225V26ZM81.6625 24.4375V16.625H78.5375V24.4375H81.6625ZM91.8453 21.3125L91.8609 26H87.15V15.0625H96.525V16.625H98.0875V19.75H96.525V21.3125H91.8453ZM91.8375 16.625V19.75H94.9625V16.625H91.8375ZM111.387 26H100.45V15.0625H111.387V16.625H105.137V19.75H109.825V21.3125H105.137V24.4375H111.387V26ZM113.75 26V15.0625H123.125V16.625H124.688V26H121.562V16.625H118.438L118.445 26H113.75ZM151.287 15.0625V16.625H148.162V26H143.475V16.625H140.35V15.0625H151.287ZM163.025 26H155.213V24.4375H153.65V16.625H155.213V15.0625H163.025V16.625H164.588V24.4375H163.025V26ZM161.463 24.4375V16.625H158.338V24.4375H161.463ZM180.25 26V16.625H181.812V15.0625H189.625V16.625H191.188V26H188.062V21.3125H184.938V26H180.25ZM184.938 16.8672V19.75H188.062V16.8672H184.938ZM204.487 26H193.55V15.0625H198.237V24.4375H204.487V26ZM217.788 26H206.85V15.0625H211.538V24.4375H217.788V26ZM244.388 15.0625V16.625H241.263V26H236.575V16.625H233.45V15.0625H244.388ZM257.688 26H246.75V15.0625H257.688V16.625H251.438V19.75H256.125V21.3125H251.438V24.4375H257.688V26ZM260.05 26V16.625H261.612V15.0625H269.425V16.625H270.987V26H267.862V21.3125H264.737V26H260.05ZM264.737 16.8672V19.75H267.862V16.8672H264.737ZM281.163 16.625V26H278.038V16.625H276.475V26H273.35V15.0625H282.733V16.625H284.288V26H282.725V16.625H281.163ZM286.65 22.875H289.775V24.4375H294.462V21.3125H288.212V19.75H286.65V16.625H288.212V15.0625H296.025V16.625H297.587V18.1875H294.462V16.625H291.337V19.75H296.025V21.3125H297.587V24.4375H296.025V26H288.212V24.4375H286.65V22.875ZM93.8 45V35.625H95.3625V34.0625H103.175V35.625H104.738V45H101.613V40.3125H98.4875V45H93.8ZM98.4875 35.8672V38.75H101.613V35.8672H98.4875ZM107.1 45V34.0625H116.475V35.625H118.038V45H114.913V35.625H111.788L111.795 45H107.1ZM120.4 45V34.0625H129.775V35.625H131.338V43.4375H129.775V45H120.4ZM125.095 43.4375H128.213V35.625H125.088L125.095 43.4375ZM147 45V34.0625H156.375V35.625H157.938V43.4375H156.375V45H147ZM151.695 43.4375H154.812V35.625H151.688L151.695 43.4375ZM171.238 45H160.3V34.0625H171.238V35.625H164.988V38.75H169.675V40.3125H164.988V43.4375H171.238V45ZM173.6 34.0625H178.288V41.875H179.85V40.3125H181.413V34.0625H184.538V40.625H182.975V41.875H181.413V43.4375H179.85V45H178.288V43.4375H176.725V41.875H175.163V40.3125H173.6V34.0625ZM197.838 45H186.9V34.0625H197.838V35.625H191.588V38.75H196.275V40.3125H191.588V43.4375H197.838V45ZM211.138 45H200.2V34.0625H204.888V43.4375H211.138V45ZM222.875 45H215.062V43.4375H213.5V35.625H215.062V34.0625H222.875V35.625H224.438V43.4375H222.875V45ZM221.312 43.4375V35.625H218.188V43.4375H221.312ZM231.495 40.3125L231.511 45H226.8V34.0625H236.175V35.625H237.738V38.75H236.175V40.3125H231.495ZM231.488 35.625V38.75H234.613V35.625H231.488ZM251.038 45H240.1V34.0625H251.038V35.625H244.788V38.75H249.475V40.3125H244.788V43.4375H251.038V45ZM253.4 45V34.0625H262.775V35.625H264.338V38.75H262.775V40.3125H264.338V45H259.65V40.3125H256.533V45H253.4ZM258.088 35.625V38.75H261.213V35.625H258.088ZM266.7 41.875H269.825V43.4375H274.512V40.3125H268.262V38.75H266.7V35.625H268.262V34.0625H276.075V35.625H277.637V37.1875H274.512V35.625H271.387V38.75H276.075V40.3125H277.637V43.4375H276.075V45H268.262V43.4375H266.7V41.875Z" fill="white"/>
<path d="M83.225 26V27.5H84.725V26H83.225ZM75.4125 26H73.9125V27.5H75.4125V26ZM75.4125 24.4375H76.9125V22.9375H75.4125V24.4375ZM73.85 24.4375H72.35V25.9375H73.85V24.4375ZM73.85 16.625V15.125H72.35V16.625H73.85ZM75.4125 16.625V18.125H76.9125V16.625H75.4125ZM75.4125 15.0625V13.5625H73.9125V15.0625H75.4125ZM83.225 15.0625H84.725V13.5625H83.225V15.0625ZM83.225 16.625H81.725V18.125H83.225V16.625ZM84.7875 16.625H86.2875V15.125H84.7875V16.625ZM84.7875 24.4375V25.9375H86.2875V24.4375H84.7875ZM83.225 24.4375V22.9375H81.725V24.4375H83.225ZM81.6625 24.4375V25.9375H83.1625V24.4375H81.6625ZM81.6625 16.625H83.1625V15.125H81.6625V16.625ZM78.5375 16.625V15.125H77.0375V16.625H78.5375ZM78.5375 24.4375H77.0375V25.9375H78.5375V24.4375ZM83.225 26V24.5H75.4125V26V27.5H83.225V26ZM75.4125 26H76.9125V24.4375H75.4125H73.9125V26H75.4125ZM75.4125 24.4375V22.9375H73.85V24.4375V25.9375H75.4125V24.4375ZM73.85 24.4375H75.35V16.625H73.85H72.35V24.4375H73.85ZM73.85 16.625V18.125H75.4125V16.625V15.125H73.85V16.625ZM75.4125 16.625H76.9125V15.0625H75.4125H73.9125V16.625H75.4125ZM75.4125 15.0625V16.5625H83.225V15.0625V13.5625H75.4125V15.0625ZM83.225 15.0625H81.725V16.625H83.225H84.725V15.0625H83.225ZM83.225 16.625V18.125H84.7875V16.625V15.125H83.225V16.625ZM84.7875 16.625H83.2875V24.4375H84.7875H86.2875V16.625H84.7875ZM84.7875 24.4375V22.9375H83.225V24.4375V25.9375H84.7875V24.4375ZM83.225 24.4375H81.725V26H83.225H84.725V24.4375H83.225ZM81.6625 24.4375H83.1625V16.625H81.6625H80.1625V24.4375H81.6625ZM81.6625 16.625V15.125H78.5375V16.625V18.125H81.6625V16.625ZM78.5375 16.625H77.0375V24.4375H78.5375H80.0375V16.625H78.5375ZM78.5375 24.4375V25.9375H81.6625V24.4375V22.9375H78.5375V24.4375ZM91.8453 21.3125V19.8125H90.3403L90.3453 21.3175L91.8453 21.3125ZM91.8609 26V27.5H93.3659L93.3609 25.995L91.8609 26ZM87.15 26H85.65V27.5H87.15V26ZM87.15 15.0625V13.5625H85.65V15.0625H87.15ZM96.525 15.0625H98.025V13.5625H96.525V15.0625ZM96.525 16.625H95.025V18.125H96.525V16.625ZM98.0875 16.625H99.5875V15.125H98.0875V16.625ZM98.0875 19.75V21.25H99.5875V19.75H98.0875ZM96.525 19.75V18.25H95.025V19.75H96.525ZM96.525 21.3125V22.8125H98.025V21.3125H96.525ZM91.8375 16.625V15.125H90.3375V16.625H91.8375ZM91.8375 19.75H90.3375V21.25H91.8375V19.75ZM94.9625 19.75V21.25H96.4625V19.75H94.9625ZM94.9625 16.625H96.4625V15.125H94.9625V16.625ZM91.8453 21.3125L90.3453 21.3175L90.3609 26.005L91.8609 26L93.3609 25.995L93.3453 21.3075L91.8453 21.3125ZM91.8609 26V24.5H87.15V26V27.5H91.8609V26ZM87.15 26H88.65V15.0625H87.15H85.65V26H87.15ZM87.15 15.0625V16.5625H96.525V15.0625V13.5625H87.15V15.0625ZM96.525 15.0625H95.025V16.625H96.525H98.025V15.0625H96.525ZM96.525 16.625V18.125H98.0875V16.625V15.125H96.525V16.625ZM98.0875 16.625H96.5875V19.75H98.0875H99.5875V16.625H98.0875ZM98.0875 19.75V18.25H96.525V19.75V21.25H98.0875V19.75ZM96.525 19.75H95.025V21.3125H96.525H98.025V19.75H96.525ZM96.525 21.3125V19.8125H91.8453V21.3125V22.8125H96.525V21.3125ZM91.8375 16.625H90.3375V19.75H91.8375H93.3375V16.625H91.8375ZM91.8375 19.75V21.25H94.9625V19.75V18.25H91.8375V19.75ZM94.9625 19.75H96.4625V16.625H94.9625H93.4625V19.75H94.9625ZM94.9625 16.625V15.125H91.8375V16.625V18.125H94.9625V16.625ZM111.387 26V27.5H112.887V26H111.387ZM100.45 26H98.95V27.5H100.45V26ZM100.45 15.0625V13.5625H98.95V15.0625H100.45ZM111.387 15.0625H112.887V13.5625H111.387V15.0625ZM111.387 16.625V18.125H112.887V16.625H111.387ZM105.137 16.625V15.125H103.637V16.625H105.137ZM105.137 19.75H103.637V21.25H105.137V19.75ZM109.825 19.75H111.325V18.25H109.825V19.75ZM109.825 21.3125V22.8125H111.325V21.3125H109.825ZM105.137 21.3125V19.8125H103.637V21.3125H105.137ZM105.137 24.4375H103.637V25.9375H105.137V24.4375ZM111.387 24.4375H112.887V22.9375H111.387V24.4375ZM111.387 26V24.5H100.45V26V27.5H111.387V26ZM100.45 26H101.95V15.0625H100.45H98.95V26H100.45ZM100.45 15.0625V16.5625H111.387V15.0625V13.5625H100.45V15.0625ZM111.387 15.0625H109.887V16.625H111.387H112.887V15.0625H111.387ZM111.387 16.625V15.125H105.137V16.625V18.125H111.387V16.625ZM105.137 16.625H103.637V19.75H105.137H106.637V16.625H105.137ZM105.137 19.75V21.25H109.825V19.75V18.25H105.137V19.75ZM109.825 19.75H108.325V21.3125H109.825H111.325V19.75H109.825ZM109.825 21.3125V19.8125H105.137V21.3125V22.8125H109.825V21.3125ZM105.137 21.3125H103.637V24.4375H105.137H106.637V21.3125H105.137ZM105.137 24.4375V25.9375H111.387V24.4375V22.9375H105.137V24.4375ZM111.387 24.4375H109.887V26H111.387H112.887V24.4375H111.387ZM113.75 26H112.25V27.5H113.75V26ZM113.75 15.0625V13.5625H112.25V15.0625H113.75ZM123.125 15.0625H124.625V13.5625H123.125V15.0625ZM123.125 16.625H121.625V18.125H123.125V16.625ZM124.688 16.625H126.188V15.125H124.688V16.625ZM124.688 26V27.5H126.188V26H124.688ZM121.562 26H120.062V27.5H121.562V26ZM121.562 16.625H123.062V15.125H121.562V16.625ZM118.438 16.625V15.125H116.936L116.938 16.6262L118.438 16.625ZM118.445 26V27.5H119.947L119.945 25.9987L118.445 26ZM113.75 26H115.25V15.0625H113.75H112.25V26H113.75ZM113.75 15.0625V16.5625H123.125V15.0625V13.5625H113.75V15.0625ZM123.125 15.0625H121.625V16.625H123.125H124.625V15.0625H123.125ZM123.125 16.625V18.125H124.688V16.625V15.125H123.125V16.625ZM124.688 16.625H123.188V26H124.688H126.188V16.625H124.688ZM124.688 26V24.5H121.562V26V27.5H124.688V26ZM121.562 26H123.062V16.625H121.562H120.062V26H121.562ZM121.562 16.625V15.125H118.438V16.625V18.125H121.562V16.625ZM118.438 16.625L116.938 16.6262L116.945 26.0013L118.445 26L119.945 25.9987L119.938 16.6238L118.438 16.625ZM118.445 26V24.5H113.75V26V27.5H118.445V26ZM151.287 15.0625H152.787V13.5625H151.287V15.0625ZM151.287 16.625V18.125H152.787V16.625H151.287ZM148.162 16.625V15.125H146.662V16.625H148.162ZM148.162 26V27.5H149.662V26H148.162ZM143.475 26H141.975V27.5H143.475V26ZM143.475 16.625H144.975V15.125H143.475V16.625ZM140.35 16.625H138.85V18.125H140.35V16.625ZM140.35 15.0625V13.5625H138.85V15.0625H140.35ZM151.287 15.0625H149.787V16.625H151.287H152.787V15.0625H151.287ZM151.287 16.625V15.125H148.162V16.625V18.125H151.287V16.625ZM148.162 16.625H146.662V26H148.162H149.662V16.625H148.162ZM148.162 26V24.5H143.475V26V27.5H148.162V26ZM143.475 26H144.975V16.625H143.475H141.975V26H143.475ZM143.475 16.625V15.125H140.35V16.625V18.125H143.475V16.625ZM140.35 16.625H141.85V15.0625H140.35H138.85V16.625H140.35ZM140.35 15.0625V16.5625H151.287V15.0625V13.5625H140.35V15.0625ZM163.025 26V27.5H164.525V26H163.025ZM155.213 26H153.713V27.5H155.213V26ZM155.213 24.4375H156.713V22.9375H155.213V24.4375ZM153.65 24.4375H152.15V25.9375H153.65V24.4375ZM153.65 16.625V15.125H152.15V16.625H153.65ZM155.213 16.625V18.125H156.713V16.625H155.213ZM155.213 15.0625V13.5625H153.713V15.0625H155.213ZM163.025 15.0625H164.525V13.5625H163.025V15.0625ZM163.025 16.625H161.525V18.125H163.025V16.625ZM164.588 16.625H166.088V15.125H164.588V16.625ZM164.588 24.4375V25.9375H166.088V24.4375H164.588ZM163.025 24.4375V22.9375H161.525V24.4375H163.025ZM161.463 24.4375V25.9375H162.963V24.4375H161.463ZM161.463 16.625H162.963V15.125H161.463V16.625ZM158.338 16.625V15.125H156.838V16.625H158.338ZM158.338 24.4375H156.838V25.9375H158.338V24.4375ZM163.025 26V24.5H155.213V26V27.5H163.025V26ZM155.213 26H156.713V24.4375H155.213H153.713V26H155.213ZM155.213 24.4375V22.9375H153.65V24.4375V25.9375H155.213V24.4375ZM153.65 24.4375H155.15V16.625H153.65H152.15V24.4375H153.65ZM153.65 16.625V18.125H155.213V16.625V15.125H153.65V16.625ZM155.213 16.625H156.713V15.0625H155.213H153.713V16.625H155.213ZM155.213 15.0625V16.5625H163.025V15.0625V13.5625H155.213V15.0625ZM163.025 15.0625H161.525V16.625H163.025H164.525V15.0625H163.025ZM163.025 16.625V18.125H164.588V16.625V15.125H163.025V16.625ZM164.588 16.625H163.088V24.4375H164.588H166.088V16.625H164.588ZM164.588 24.4375V22.9375H163.025V24.4375V25.9375H164.588V24.4375ZM163.025 24.4375H161.525V26H163.025H164.525V24.4375H163.025ZM161.463 24.4375H162.963V16.625H161.463H159.963V24.4375H161.463ZM161.463 16.625V15.125H158.338V16.625V18.125H161.463V16.625ZM158.338 16.625H156.838V24.4375H158.338H159.838V16.625H158.338ZM158.338 24.4375V25.9375H161.463V24.4375V22.9375H158.338V24.4375ZM180.25 26H178.75V27.5H180.25V26ZM180.25 16.625V15.125H178.75V16.625H180.25ZM181.812 16.625V18.125H183.312V16.625H181.812ZM181.812 15.0625V13.5625H180.312V15.0625H181.812ZM189.625 15.0625H191.125V13.5625H189.625V15.0625ZM189.625 16.625H188.125V18.125H189.625V16.625ZM191.188 16.625H192.688V15.125H191.188V16.625ZM191.188 26V27.5H192.688V26H191.188ZM188.062 26H186.562V27.5H188.062V26ZM188.062 21.3125H189.562V19.8125H188.062V21.3125ZM184.938 21.3125V19.8125H183.438V21.3125H184.938ZM184.938 26V27.5H186.438V26H184.938ZM184.938 16.8672V15.3672H183.438V16.8672H184.938ZM184.938 19.75H183.438V21.25H184.938V19.75ZM188.062 19.75V21.25H189.562V19.75H188.062ZM188.062 16.8672H189.562V15.3672H188.062V16.8672ZM180.25 26H181.75V16.625H180.25H178.75V26H180.25ZM180.25 16.625V18.125H181.812V16.625V15.125H180.25V16.625ZM181.812 16.625H183.312V15.0625H181.812H180.312V16.625H181.812ZM181.812 15.0625V16.5625H189.625V15.0625V13.5625H181.812V15.0625ZM189.625 15.0625H188.125V16.625H189.625H191.125V15.0625H189.625ZM189.625 16.625V18.125H191.188V16.625V15.125H189.625V16.625ZM191.188 16.625H189.688V26H191.188H192.688V16.625H191.188ZM191.188 26V24.5H188.062V26V27.5H191.188V26ZM188.062 26H189.562V21.3125H188.062H186.562V26H188.062ZM188.062 21.3125V19.8125H184.938V21.3125V22.8125H188.062V21.3125ZM184.938 21.3125H183.438V26H184.938H186.438V21.3125H184.938ZM184.938 26V24.5H180.25V26V27.5H184.938V26ZM184.938 16.8672H183.438V19.75H184.938H186.438V16.8672H184.938ZM184.938 19.75V21.25H188.062V19.75V18.25H184.938V19.75ZM188.062 19.75H189.562V16.8672H188.062H186.562V19.75H188.062ZM188.062 16.8672V15.3672H184.938V16.8672V18.3672H188.062V16.8672ZM204.487 26V27.5H205.987V26H204.487ZM193.55 26H192.05V27.5H193.55V26ZM193.55 15.0625V13.5625H192.05V15.0625H193.55ZM198.237 15.0625H199.737V13.5625H198.237V15.0625ZM198.237 24.4375H196.737V25.9375H198.237V24.4375ZM204.487 24.4375H205.987V22.9375H204.487V24.4375ZM204.487 26V24.5H193.55V26V27.5H204.487V26ZM193.55 26H195.05V15.0625H193.55H192.05V26H193.55ZM193.55 15.0625V16.5625H198.237V15.0625V13.5625H193.55V15.0625ZM198.237 15.0625H196.737V24.4375H198.237H199.737V15.0625H198.237ZM198.237 24.4375V25.9375H204.487V24.4375V22.9375H198.237V24.4375ZM204.487 24.4375H202.987V26H204.487H205.987V24.4375H204.487ZM217.788 26V27.5H219.288V26H217.788ZM206.85 26H205.35V27.5H206.85V26ZM206.85 15.0625V13.5625H205.35V15.0625H206.85ZM211.538 15.0625H213.038V13.5625H211.538V15.0625ZM211.538 24.4375H210.038V25.9375H211.538V24.4375ZM217.788 24.4375H219.288V22.9375H217.788V24.4375ZM217.788 26V24.5H206.85V26V27.5H217.788V26ZM206.85 26H208.35V15.0625H206.85H205.35V26H206.85ZM206.85 15.0625V16.5625H211.538V15.0625V13.5625H206.85V15.0625ZM211.538 15.0625H210.038V24.4375H211.538H213.038V15.0625H211.538ZM211.538 24.4375V25.9375H217.788V24.4375V22.9375H211.538V24.4375ZM217.788 24.4375H216.288V26H217.788H219.288V24.4375H217.788ZM244.388 15.0625H245.888V13.5625H244.388V15.0625ZM244.388 16.625V18.125H245.888V16.625H244.388ZM241.263 16.625V15.125H239.763V16.625H241.263ZM241.263 26V27.5H242.763V26H241.263ZM236.575 26H235.075V27.5H236.575V26ZM236.575 16.625H238.075V15.125H236.575V16.625ZM233.45 16.625H231.95V18.125H233.45V16.625ZM233.45 15.0625V13.5625H231.95V15.0625H233.45ZM244.388 15.0625H242.888V16.625H244.388H245.888V15.0625H244.388ZM244.388 16.625V15.125H241.263V16.625V18.125H244.388V16.625ZM241.263 16.625H239.763V26H241.263H242.763V16.625H241.263ZM241.263 26V24.5H236.575V26V27.5H241.263V26ZM236.575 26H238.075V16.625H236.575H235.075V26H236.575ZM236.575 16.625V15.125H233.45V16.625V18.125H236.575V16.625ZM233.45 16.625H234.95V15.0625H233.45H231.95V16.625H233.45ZM233.45 15.0625V16.5625H244.388V15.0625V13.5625H233.45V15.0625ZM257.688 26V27.5H259.188V26H257.688ZM246.75 26H245.25V27.5H246.75V26ZM246.75 15.0625V13.5625H245.25V15.0625H246.75ZM257.688 15.0625H259.188V13.5625H257.688V15.0625ZM257.688 16.625V18.125H259.188V16.625H257.688ZM251.438 16.625V15.125H249.938V16.625H251.438ZM251.438 19.75H249.938V21.25H251.438V19.75ZM256.125 19.75H257.625V18.25H256.125V19.75ZM256.125 21.3125V22.8125H257.625V21.3125H256.125ZM251.438 21.3125V19.8125H249.938V21.3125H251.438ZM251.438 24.4375H249.938V25.9375H251.438V24.4375ZM257.688 24.4375H259.188V22.9375H257.688V24.4375ZM257.688 26V24.5H246.75V26V27.5H257.688V26ZM246.75 26H248.25V15.0625H246.75H245.25V26H246.75ZM246.75 15.0625V16.5625H257.688V15.0625V13.5625H246.75V15.0625ZM257.688 15.0625H256.188V16.625H257.688H259.188V15.0625H257.688ZM257.688 16.625V15.125H251.438V16.625V18.125H257.688V16.625ZM251.438 16.625H249.938V19.75H251.438H252.938V16.625H251.438ZM251.438 19.75V21.25H256.125V19.75V18.25H251.438V19.75ZM256.125 19.75H254.625V21.3125H256.125H257.625V19.75H256.125ZM256.125 21.3125V19.8125H251.438V21.3125V22.8125H256.125V21.3125ZM251.438 21.3125H249.938V24.4375H251.438H252.938V21.3125H251.438ZM251.438 24.4375V25.9375H257.688V24.4375V22.9375H251.438V24.4375ZM257.688 24.4375H256.188V26H257.688H259.188V24.4375H257.688ZM260.05 26H258.55V27.5H260.05V26ZM260.05 16.625V15.125H258.55V16.625H260.05ZM261.612 16.625V18.125H263.112V16.625H261.612ZM261.612 15.0625V13.5625H260.112V15.0625H261.612ZM269.425 15.0625H270.925V13.5625H269.425V15.0625ZM269.425 16.625H267.925V18.125H269.425V16.625ZM270.987 16.625H272.487V15.125H270.987V16.625ZM270.987 26V27.5H272.487V26H270.987ZM267.862 26H266.362V27.5H267.862V26ZM267.862 21.3125H269.362V19.8125H267.862V21.3125ZM264.737 21.3125V19.8125H263.237V21.3125H264.737ZM264.737 26V27.5H266.237V26H264.737ZM264.737 16.8672V15.3672H263.237V16.8672H264.737ZM264.737 19.75H263.237V21.25H264.737V19.75ZM267.862 19.75V21.25H269.362V19.75H267.862ZM267.862 16.8672H269.362V15.3672H267.862V16.8672ZM260.05 26H261.55V16.625H260.05H258.55V26H260.05ZM260.05 16.625V18.125H261.612V16.625V15.125H260.05V16.625ZM261.612 16.625H263.112V15.0625H261.612H260.112V16.625H261.612ZM261.612 15.0625V16.5625H269.425V15.0625V13.5625H261.612V15.0625ZM269.425 15.0625H267.925V16.625H269.425H270.925V15.0625H269.425ZM269.425 16.625V18.125H270.987V16.625V15.125H269.425V16.625ZM270.987 16.625H269.487V26H270.987H272.487V16.625H270.987ZM270.987 26V24.5H267.862V26V27.5H270.987V26ZM267.862 26H269.362V21.3125H267.862H266.362V26H267.862ZM267.862 21.3125V19.8125H264.737V21.3125V22.8125H267.862V21.3125ZM264.737 21.3125H263.237V26H264.737H266.237V21.3125H264.737ZM264.737 26V24.5H260.05V26V27.5H264.737V26ZM264.737 16.8672H263.237V19.75H264.737H266.237V16.8672H264.737ZM264.737 19.75V21.25H267.862V19.75V18.25H264.737V19.75ZM267.862 19.75H269.362V16.8672H267.862H266.362V19.75H267.862ZM267.862 16.8672V15.3672H264.737V16.8672V18.3672H267.862V16.8672ZM281.163 16.625V15.125H279.663V16.625H281.163ZM281.163 26V27.5H282.663V26H281.163ZM278.038 26H276.538V27.5H278.038V26ZM278.038 16.625H279.538V15.125H278.038V16.625ZM276.475 16.625V15.125H274.975V16.625H276.475ZM276.475 26V27.5H277.975V26H276.475ZM273.35 26H271.85V27.5H273.35V26ZM273.35 15.0625V13.5625H271.85V15.0625H273.35ZM282.733 15.0625H284.233V13.5625H282.733V15.0625ZM282.733 16.625H281.233V18.125H282.733V16.625ZM284.288 16.625H285.788V15.125H284.288V16.625ZM284.288 26V27.5H285.788V26H284.288ZM282.725 26H281.225V27.5H282.725V26ZM282.725 16.625H284.225V15.125H282.725V16.625ZM281.163 16.625H279.663V26H281.163H282.663V16.625H281.163ZM281.163 26V24.5H278.038V26V27.5H281.163V26ZM278.038 26H279.538V16.625H278.038H276.538V26H278.038ZM278.038 16.625V15.125H276.475V16.625V18.125H278.038V16.625ZM276.475 16.625H274.975V26H276.475H277.975V16.625H276.475ZM276.475 26V24.5H273.35V26V27.5H276.475V26ZM273.35 26H274.85V15.0625H273.35H271.85V26H273.35ZM273.35 15.0625V16.5625H282.733V15.0625V13.5625H273.35V15.0625ZM282.733 15.0625H281.233V16.625H282.733H284.233V15.0625H282.733ZM282.733 16.625V18.125H284.288V16.625V15.125H282.733V16.625ZM284.288 16.625H282.788V26H284.288H285.788V16.625H284.288ZM284.288 26V24.5H282.725V26V27.5H284.288V26ZM282.725 26H284.225V16.625H282.725H281.225V26H282.725ZM282.725 16.625V15.125H281.163V16.625V18.125H282.725V16.625ZM286.65 22.875V21.375H285.15V22.875H286.65ZM289.775 22.875H291.275V21.375H289.775V22.875ZM289.775 24.4375H288.275V25.9375H289.775V24.4375ZM294.462 24.4375V25.9375H295.962V24.4375H294.462ZM294.462 21.3125H295.962V19.8125H294.462V21.3125ZM288.212 21.3125H286.712V22.8125H288.212V21.3125ZM288.212 19.75H289.712V18.25H288.212V19.75ZM286.65 19.75H285.15V21.25H286.65V19.75ZM286.65 16.625V15.125H285.15V16.625H286.65ZM288.212 16.625V18.125H289.712V16.625H288.212ZM288.212 15.0625V13.5625H286.712V15.0625H288.212ZM296.025 15.0625H297.525V13.5625H296.025V15.0625ZM296.025 16.625H294.525V18.125H296.025V16.625ZM297.587 16.625H299.087V15.125H297.587V16.625ZM297.587 18.1875V19.6875H299.087V18.1875H297.587ZM294.462 18.1875H292.962V19.6875H294.462V18.1875ZM294.462 16.625H295.962V15.125H294.462V16.625ZM291.337 16.625V15.125H289.837V16.625H291.337ZM291.337 19.75H289.837V21.25H291.337V19.75ZM296.025 19.75H297.525V18.25H296.025V19.75ZM296.025 21.3125H294.525V22.8125H296.025V21.3125ZM297.587 21.3125H299.087V19.8125H297.587V21.3125ZM297.587 24.4375V25.9375H299.087V24.4375H297.587ZM296.025 24.4375V22.9375H294.525V24.4375H296.025ZM296.025 26V27.5H297.525V26H296.025ZM288.212 26H286.712V27.5H288.212V26ZM288.212 24.4375H289.712V22.9375H288.212V24.4375ZM286.65 24.4375H285.15V25.9375H286.65V24.4375ZM286.65 22.875V24.375H289.775V22.875V21.375H286.65V22.875ZM289.775 22.875H288.275V24.4375H289.775H291.275V22.875H289.775ZM289.775 24.4375V25.9375H294.462V24.4375V22.9375H289.775V24.4375ZM294.462 24.4375H295.962V21.3125H294.462H292.962V24.4375H294.462ZM294.462 21.3125V19.8125H288.212V21.3125V22.8125H294.462V21.3125ZM288.212 21.3125H289.712V19.75H288.212H286.712V21.3125H288.212ZM288.212 19.75V18.25H286.65V19.75V21.25H288.212V19.75ZM286.65 19.75H288.15V16.625H286.65H285.15V19.75H286.65ZM286.65 16.625V18.125H288.212V16.625V15.125H286.65V16.625ZM288.212 16.625H289.712V15.0625H288.212H286.712V16.625H288.212ZM288.212 15.0625V16.5625H296.025V15.0625V13.5625H288.212V15.0625ZM296.025 15.0625H294.525V16.625H296.025H297.525V15.0625H296.025ZM296.025 16.625V18.125H297.587V16.625V15.125H296.025V16.625ZM297.587 16.625H296.087V18.1875H297.587H299.087V16.625H297.587ZM297.587 18.1875V16.6875H294.462V18.1875V19.6875H297.587V18.1875ZM294.462 18.1875H295.962V16.625H294.462H292.962V18.1875H294.462ZM294.462 16.625V15.125H291.337V16.625V18.125H294.462V16.625ZM291.337 16.625H289.837V19.75H291.337H292.837V16.625H291.337ZM291.337 19.75V21.25H296.025V19.75V18.25H291.337V19.75ZM296.025 19.75H294.525V21.3125H296.025H297.525V19.75H296.025ZM296.025 21.3125V22.8125H297.587V21.3125V19.8125H296.025V21.3125ZM297.587 21.3125H296.087V24.4375H297.587H299.087V21.3125H297.587ZM297.587 24.4375V22.9375H296.025V24.4375V25.9375H297.587V24.4375ZM296.025 24.4375H294.525V26H296.025H297.525V24.4375H296.025ZM296.025 26V24.5H288.212V26V27.5H296.025V26ZM288.212 26H289.712V24.4375H288.212H286.712V26H288.212ZM288.212 24.4375V22.9375H286.65V24.4375V25.9375H288.212V24.4375ZM286.65 24.4375H288.15V22.875H286.65H285.15V24.4375H286.65ZM93.8 45H92.3V46.5H93.8V45ZM93.8 35.625V34.125H92.3V35.625H93.8ZM95.3625 35.625V37.125H96.8625V35.625H95.3625ZM95.3625 34.0625V32.5625H93.8625V34.0625H95.3625ZM103.175 34.0625H104.675V32.5625H103.175V34.0625ZM103.175 35.625H101.675V37.125H103.175V35.625ZM104.738 35.625H106.238V34.125H104.738V35.625ZM104.738 45V46.5H106.238V45H104.738ZM101.613 45H100.113V46.5H101.613V45ZM101.613 40.3125H103.113V38.8125H101.613V40.3125ZM98.4875 40.3125V38.8125H96.9875V40.3125H98.4875ZM98.4875 45V46.5H99.9875V45H98.4875ZM98.4875 35.8672V34.3672H96.9875V35.8672H98.4875ZM98.4875 38.75H96.9875V40.25H98.4875V38.75ZM101.613 38.75V40.25H103.113V38.75H101.613ZM101.613 35.8672H103.113V34.3672H101.613V35.8672ZM93.8 45H95.3V35.625H93.8H92.3V45H93.8ZM93.8 35.625V37.125H95.3625V35.625V34.125H93.8V35.625ZM95.3625 35.625H96.8625V34.0625H95.3625H93.8625V35.625H95.3625ZM95.3625 34.0625V35.5625H103.175V34.0625V32.5625H95.3625V34.0625ZM103.175 34.0625H101.675V35.625H103.175H104.675V34.0625H103.175ZM103.175 35.625V37.125H104.738V35.625V34.125H103.175V35.625ZM104.738 35.625H103.238V45H104.738H106.238V35.625H104.738ZM104.738 45V43.5H101.613V45V46.5H104.738V45ZM101.613 45H103.113V40.3125H101.613H100.113V45H101.613ZM101.613 40.3125V38.8125H98.4875V40.3125V41.8125H101.613V40.3125ZM98.4875 40.3125H96.9875V45H98.4875H99.9875V40.3125H98.4875ZM98.4875 45V43.5H93.8V45V46.5H98.4875V45ZM98.4875 35.8672H96.9875V38.75H98.4875H99.9875V35.8672H98.4875ZM98.4875 38.75V40.25H101.613V38.75V37.25H98.4875V38.75ZM101.613 38.75H103.113V35.8672H101.613H100.113V38.75H101.613ZM101.613 35.8672V34.3672H98.4875V35.8672V37.3672H101.613V35.8672ZM107.1 45H105.6V46.5H107.1V45ZM107.1 34.0625V32.5625H105.6V34.0625H107.1ZM116.475 34.0625H117.975V32.5625H116.475V34.0625ZM116.475 35.625H114.975V37.125H116.475V35.625ZM118.038 35.625H119.538V34.125H118.038V35.625ZM118.038 45V46.5H119.538V45H118.038ZM114.913 45H113.413V46.5H114.913V45ZM114.913 35.625H116.413V34.125H114.913V35.625ZM111.788 35.625V34.125H110.286L110.288 35.6262L111.788 35.625ZM111.795 45V46.5H113.297L113.295 44.9987L111.795 45ZM107.1 45H108.6V34.0625H107.1H105.6V45H107.1ZM107.1 34.0625V35.5625H116.475V34.0625V32.5625H107.1V34.0625ZM116.475 34.0625H114.975V35.625H116.475H117.975V34.0625H116.475ZM116.475 35.625V37.125H118.038V35.625V34.125H116.475V35.625ZM118.038 35.625H116.538V45H118.038H119.538V35.625H118.038ZM118.038 45V43.5H114.913V45V46.5H118.038V45ZM114.913 45H116.413V35.625H114.913H113.413V45H114.913ZM114.913 35.625V34.125H111.788V35.625V37.125H114.913V35.625ZM111.788 35.625L110.288 35.6262L110.295 45.0013L111.795 45L113.295 44.9987L113.288 35.6238L111.788 35.625ZM111.795 45V43.5H107.1V45V46.5H111.795V45ZM120.4 45H118.9V46.5H120.4V45ZM120.4 34.0625V32.5625H118.9V34.0625H120.4ZM129.775 34.0625H131.275V32.5625H129.775V34.0625ZM129.775 35.625H128.275V37.125H129.775V35.625ZM131.338 35.625H132.838V34.125H131.338V35.625ZM131.338 43.4375V44.9375H132.838V43.4375H131.338ZM129.775 43.4375V41.9375H128.275V43.4375H129.775ZM129.775 45V46.5H131.275V45H129.775ZM125.095 43.4375L123.595 43.439L123.597 44.9375H125.095V43.4375ZM128.213 43.4375V44.9375H129.713V43.4375H128.213ZM128.213 35.625H129.713V34.125H128.213V35.625ZM125.088 35.625V34.125H123.586L123.588 35.6265L125.088 35.625ZM120.4 45H121.9V34.0625H120.4H118.9V45H120.4ZM120.4 34.0625V35.5625H129.775V34.0625V32.5625H120.4V34.0625ZM129.775 34.0625H128.275V35.625H129.775H131.275V34.0625H129.775ZM129.775 35.625V37.125H131.338V35.625V34.125H129.775V35.625ZM131.338 35.625H129.838V43.4375H131.338H132.838V35.625H131.338ZM131.338 43.4375V41.9375H129.775V43.4375V44.9375H131.338V43.4375ZM129.775 43.4375H128.275V45H129.775H131.275V43.4375H129.775ZM129.775 45V43.5H120.4V45V46.5H129.775V45ZM125.095 43.4375V44.9375H128.213V43.4375V41.9375H125.095V43.4375ZM128.213 43.4375H129.713V35.625H128.213H126.713V43.4375H128.213ZM128.213 35.625V34.125H125.088V35.625V37.125H128.213V35.625ZM125.088 35.625L123.588 35.6265L123.595 43.439L125.095 43.4375L126.595 43.436L126.588 35.6235L125.088 35.625ZM147 45H145.5V46.5H147V45ZM147 34.0625V32.5625H145.5V34.0625H147ZM156.375 34.0625H157.875V32.5625H156.375V34.0625ZM156.375 35.625H154.875V37.125H156.375V35.625ZM157.938 35.625H159.438V34.125H157.938V35.625ZM157.938 43.4375V44.9375H159.438V43.4375H157.938ZM156.375 43.4375V41.9375H154.875V43.4375H156.375ZM156.375 45V46.5H157.875V45H156.375ZM151.695 43.4375L150.195 43.439L150.197 44.9375H151.695V43.4375ZM154.812 43.4375V44.9375H156.312V43.4375H154.812ZM154.812 35.625H156.312V34.125H154.812V35.625ZM151.688 35.625V34.125H150.186L150.188 35.6265L151.688 35.625ZM147 45H148.5V34.0625H147H145.5V45H147ZM147 34.0625V35.5625H156.375V34.0625V32.5625H147V34.0625ZM156.375 34.0625H154.875V35.625H156.375H157.875V34.0625H156.375ZM156.375 35.625V37.125H157.938V35.625V34.125H156.375V35.625ZM157.938 35.625H156.438V43.4375H157.938H159.438V35.625H157.938ZM157.938 43.4375V41.9375H156.375V43.4375V44.9375H157.938V43.4375ZM156.375 43.4375H154.875V45H156.375H157.875V43.4375H156.375ZM156.375 45V43.5H147V45V46.5H156.375V45ZM151.695 43.4375V44.9375H154.812V43.4375V41.9375H151.695V43.4375ZM154.812 43.4375H156.312V35.625H154.812H153.312V43.4375H154.812ZM154.812 35.625V34.125H151.688V35.625V37.125H154.812V35.625ZM151.688 35.625L150.188 35.6265L150.195 43.439L151.695 43.4375L153.195 43.436L153.188 35.6235L151.688 35.625ZM171.238 45V46.5H172.738V45H171.238ZM160.3 45H158.8V46.5H160.3V45ZM160.3 34.0625V32.5625H158.8V34.0625H160.3ZM171.238 34.0625H172.738V32.5625H171.238V34.0625ZM171.238 35.625V37.125H172.738V35.625H171.238ZM164.988 35.625V34.125H163.488V35.625H164.988ZM164.988 38.75H163.488V40.25H164.988V38.75ZM169.675 38.75H171.175V37.25H169.675V38.75ZM169.675 40.3125V41.8125H171.175V40.3125H169.675ZM164.988 40.3125V38.8125H163.488V40.3125H164.988ZM164.988 43.4375H163.488V44.9375H164.988V43.4375ZM171.238 43.4375H172.738V41.9375H171.238V43.4375ZM171.238 45V43.5H160.3V45V46.5H171.238V45ZM160.3 45H161.8V34.0625H160.3H158.8V45H160.3ZM160.3 34.0625V35.5625H171.238V34.0625V32.5625H160.3V34.0625ZM171.238 34.0625H169.738V35.625H171.238H172.738V34.0625H171.238ZM171.238 35.625V34.125H164.988V35.625V37.125H171.238V35.625ZM164.988 35.625H163.488V38.75H164.988H166.488V35.625H164.988ZM164.988 38.75V40.25H169.675V38.75V37.25H164.988V38.75ZM169.675 38.75H168.175V40.3125H169.675H171.175V38.75H169.675ZM169.675 40.3125V38.8125H164.988V40.3125V41.8125H169.675V40.3125ZM164.988 40.3125H163.488V43.4375H164.988H166.488V40.3125H164.988ZM164.988 43.4375V44.9375H171.238V43.4375V41.9375H164.988V43.4375ZM171.238 43.4375H169.738V45H171.238H172.738V43.4375H171.238ZM173.6 34.0625V32.5625H172.1V34.0625H173.6ZM178.288 34.0625H179.788V32.5625H178.288V34.0625ZM178.288 41.875H176.788V43.375H178.288V41.875ZM179.85 41.875V43.375H181.35V41.875H179.85ZM179.85 40.3125V38.8125H178.35V40.3125H179.85ZM181.413 40.3125V41.8125H182.913V40.3125H181.413ZM181.413 34.0625V32.5625H179.913V34.0625H181.413ZM184.538 34.0625H186.038V32.5625H184.538V34.0625ZM184.538 40.625V42.125H186.038V40.625H184.538ZM182.975 40.625V39.125H181.475V40.625H182.975ZM182.975 41.875V43.375H184.475V41.875H182.975ZM181.413 41.875V40.375H179.913V41.875H181.413ZM181.413 43.4375V44.9375H182.913V43.4375H181.413ZM179.85 43.4375V41.9375H178.35V43.4375H179.85ZM179.85 45V46.5H181.35V45H179.85ZM178.288 45H176.788V46.5H178.288V45ZM178.288 43.4375H179.788V41.9375H178.288V43.4375ZM176.725 43.4375H175.225V44.9375H176.725V43.4375ZM176.725 41.875H178.225V40.375H176.725V41.875ZM175.163 41.875H173.663V43.375H175.163V41.875ZM175.163 40.3125H176.663V38.8125H175.163V40.3125ZM173.6 40.3125H172.1V41.8125H173.6V40.3125ZM173.6 34.0625V35.5625H178.288V34.0625V32.5625H173.6V34.0625ZM178.288 34.0625H176.788V41.875H178.288H179.788V34.0625H178.288ZM178.288 41.875V43.375H179.85V41.875V40.375H178.288V41.875ZM179.85 41.875H181.35V40.3125H179.85H178.35V41.875H179.85ZM179.85 40.3125V41.8125H181.413V40.3125V38.8125H179.85V40.3125ZM181.413 40.3125H182.913V34.0625H181.413H179.913V40.3125H181.413ZM181.413 34.0625V35.5625H184.538V34.0625V32.5625H181.413V34.0625ZM184.538 34.0625H183.038V40.625H184.538H186.038V34.0625H184.538ZM184.538 40.625V39.125H182.975V40.625V42.125H184.538V40.625ZM182.975 40.625H181.475V41.875H182.975H184.475V40.625H182.975ZM182.975 41.875V40.375H181.413V41.875V43.375H182.975V41.875ZM181.413 41.875H179.913V43.4375H181.413H182.913V41.875H181.413ZM181.413 43.4375V41.9375H179.85V43.4375V44.9375H181.413V43.4375ZM179.85 43.4375H178.35V45H179.85H181.35V43.4375H179.85ZM179.85 45V43.5H178.288V45V46.5H179.85V45ZM178.288 45H179.788V43.4375H178.288H176.788V45H178.288ZM178.288 43.4375V41.9375H176.725V43.4375V44.9375H178.288V43.4375ZM176.725 43.4375H178.225V41.875H176.725H175.225V43.4375H176.725ZM176.725 41.875V40.375H175.163V41.875V43.375H176.725V41.875ZM175.163 41.875H176.663V40.3125H175.163H173.663V41.875H175.163ZM175.163 40.3125V38.8125H173.6V40.3125V41.8125H175.163V40.3125ZM173.6 40.3125H175.1V34.0625H173.6H172.1V40.3125H173.6ZM197.838 45V46.5H199.338V45H197.838ZM186.9 45H185.4V46.5H186.9V45ZM186.9 34.0625V32.5625H185.4V34.0625H186.9ZM197.838 34.0625H199.338V32.5625H197.838V34.0625ZM197.838 35.625V37.125H199.338V35.625H197.838ZM191.588 35.625V34.125H190.088V35.625H191.588ZM191.588 38.75H190.088V40.25H191.588V38.75ZM196.275 38.75H197.775V37.25H196.275V38.75ZM196.275 40.3125V41.8125H197.775V40.3125H196.275ZM191.588 40.3125V38.8125H190.088V40.3125H191.588ZM191.588 43.4375H190.088V44.9375H191.588V43.4375ZM197.838 43.4375H199.338V41.9375H197.838V43.4375ZM197.838 45V43.5H186.9V45V46.5H197.838V45ZM186.9 45H188.4V34.0625H186.9H185.4V45H186.9ZM186.9 34.0625V35.5625H197.838V34.0625V32.5625H186.9V34.0625ZM197.838 34.0625H196.338V35.625H197.838H199.338V34.0625H197.838ZM197.838 35.625V34.125H191.588V35.625V37.125H197.838V35.625ZM191.588 35.625H190.088V38.75H191.588H193.088V35.625H191.588ZM191.588 38.75V40.25H196.275V38.75V37.25H191.588V38.75ZM196.275 38.75H194.775V40.3125H196.275H197.775V38.75H196.275ZM196.275 40.3125V38.8125H191.588V40.3125V41.8125H196.275V40.3125ZM191.588 40.3125H190.088V43.4375H191.588H193.088V40.3125H191.588ZM191.588 43.4375V44.9375H197.838V43.4375V41.9375H191.588V43.4375ZM197.838 43.4375H196.338V45H197.838H199.338V43.4375H197.838ZM211.138 45V46.5H212.638V45H211.138ZM200.2 45H198.7V46.5H200.2V45ZM200.2 34.0625V32.5625H198.7V34.0625H200.2ZM204.888 34.0625H206.388V32.5625H204.888V34.0625ZM204.888 43.4375H203.388V44.9375H204.888V43.4375ZM211.138 43.4375H212.638V41.9375H211.138V43.4375ZM211.138 45V43.5H200.2V45V46.5H211.138V45ZM200.2 45H201.7V34.0625H200.2H198.7V45H200.2ZM200.2 34.0625V35.5625H204.888V34.0625V32.5625H200.2V34.0625ZM204.888 34.0625H203.388V43.4375H204.888H206.388V34.0625H204.888ZM204.888 43.4375V44.9375H211.138V43.4375V41.9375H204.888V43.4375ZM211.138 43.4375H209.638V45H211.138H212.638V43.4375H211.138ZM222.875 45V46.5H224.375V45H222.875ZM215.062 45H213.562V46.5H215.062V45ZM215.062 43.4375H216.562V41.9375H215.062V43.4375ZM213.5 43.4375H212V44.9375H213.5V43.4375ZM213.5 35.625V34.125H212V35.625H213.5ZM215.062 35.625V37.125H216.562V35.625H215.062ZM215.062 34.0625V32.5625H213.562V34.0625H215.062ZM222.875 34.0625H224.375V32.5625H222.875V34.0625ZM222.875 35.625H221.375V37.125H222.875V35.625ZM224.438 35.625H225.938V34.125H224.438V35.625ZM224.438 43.4375V44.9375H225.938V43.4375H224.438ZM222.875 43.4375V41.9375H221.375V43.4375H222.875ZM221.312 43.4375V44.9375H222.812V43.4375H221.312ZM221.312 35.625H222.812V34.125H221.312V35.625ZM218.188 35.625V34.125H216.688V35.625H218.188ZM218.188 43.4375H216.688V44.9375H218.188V43.4375ZM222.875 45V43.5H215.062V45V46.5H222.875V45ZM215.062 45H216.562V43.4375H215.062H213.562V45H215.062ZM215.062 43.4375V41.9375H213.5V43.4375V44.9375H215.062V43.4375ZM213.5 43.4375H215V35.625H213.5H212V43.4375H213.5ZM213.5 35.625V37.125H215.062V35.625V34.125H213.5V35.625ZM215.062 35.625H216.562V34.0625H215.062H213.562V35.625H215.062ZM215.062 34.0625V35.5625H222.875V34.0625V32.5625H215.062V34.0625ZM222.875 34.0625H221.375V35.625H222.875H224.375V34.0625H222.875ZM222.875 35.625V37.125H224.438V35.625V34.125H222.875V35.625ZM224.438 35.625H222.938V43.4375H224.438H225.938V35.625H224.438ZM224.438 43.4375V41.9375H222.875V43.4375V44.9375H224.438V43.4375ZM222.875 43.4375H221.375V45H222.875H224.375V43.4375H222.875ZM221.312 43.4375H222.812V35.625H221.312H219.812V43.4375H221.312ZM221.312 35.625V34.125H218.188V35.625V37.125H221.312V35.625ZM218.188 35.625H216.688V43.4375H218.188H219.688V35.625H218.188ZM218.188 43.4375V44.9375H221.312V43.4375V41.9375H218.188V43.4375ZM231.495 40.3125V38.8125H229.99L229.995 40.3175L231.495 40.3125ZM231.511 45V46.5H233.016L233.011 44.995L231.511 45ZM226.8 45H225.3V46.5H226.8V45ZM226.8 34.0625V32.5625H225.3V34.0625H226.8ZM236.175 34.0625H237.675V32.5625H236.175V34.0625ZM236.175 35.625H234.675V37.125H236.175V35.625ZM237.738 35.625H239.238V34.125H237.738V35.625ZM237.738 38.75V40.25H239.238V38.75H237.738ZM236.175 38.75V37.25H234.675V38.75H236.175ZM236.175 40.3125V41.8125H237.675V40.3125H236.175ZM231.488 35.625V34.125H229.988V35.625H231.488ZM231.488 38.75H229.988V40.25H231.488V38.75ZM234.613 38.75V40.25H236.113V38.75H234.613ZM234.613 35.625H236.113V34.125H234.613V35.625ZM231.495 40.3125L229.995 40.3175L230.011 45.005L231.511 45L233.011 44.995L232.995 40.3075L231.495 40.3125ZM231.511 45V43.5H226.8V45V46.5H231.511V45ZM226.8 45H228.3V34.0625H226.8H225.3V45H226.8ZM226.8 34.0625V35.5625H236.175V34.0625V32.5625H226.8V34.0625ZM236.175 34.0625H234.675V35.625H236.175H237.675V34.0625H236.175ZM236.175 35.625V37.125H237.738V35.625V34.125H236.175V35.625ZM237.738 35.625H236.238V38.75H237.738H239.238V35.625H237.738ZM237.738 38.75V37.25H236.175V38.75V40.25H237.738V38.75ZM236.175 38.75H234.675V40.3125H236.175H237.675V38.75H236.175ZM236.175 40.3125V38.8125H231.495V40.3125V41.8125H236.175V40.3125ZM231.488 35.625H229.988V38.75H231.488H232.988V35.625H231.488ZM231.488 38.75V40.25H234.613V38.75V37.25H231.488V38.75ZM234.613 38.75H236.113V35.625H234.613H233.113V38.75H234.613ZM234.613 35.625V34.125H231.488V35.625V37.125H234.613V35.625ZM251.038 45V46.5H252.538V45H251.038ZM240.1 45H238.6V46.5H240.1V45ZM240.1 34.0625V32.5625H238.6V34.0625H240.1ZM251.038 34.0625H252.538V32.5625H251.038V34.0625ZM251.038 35.625V37.125H252.538V35.625H251.038ZM244.788 35.625V34.125H243.288V35.625H244.788ZM244.788 38.75H243.288V40.25H244.788V38.75ZM249.475 38.75H250.975V37.25H249.475V38.75ZM249.475 40.3125V41.8125H250.975V40.3125H249.475ZM244.788 40.3125V38.8125H243.288V40.3125H244.788ZM244.788 43.4375H243.288V44.9375H244.788V43.4375ZM251.038 43.4375H252.538V41.9375H251.038V43.4375ZM251.038 45V43.5H240.1V45V46.5H251.038V45ZM240.1 45H241.6V34.0625H240.1H238.6V45H240.1ZM240.1 34.0625V35.5625H251.038V34.0625V32.5625H240.1V34.0625ZM251.038 34.0625H249.538V35.625H251.038H252.538V34.0625H251.038ZM251.038 35.625V34.125H244.788V35.625V37.125H251.038V35.625ZM244.788 35.625H243.288V38.75H244.788H246.288V35.625H244.788ZM244.788 38.75V40.25H249.475V38.75V37.25H244.788V38.75ZM249.475 38.75H247.975V40.3125H249.475H250.975V38.75H249.475ZM249.475 40.3125V38.8125H244.788V40.3125V41.8125H249.475V40.3125ZM244.788 40.3125H243.288V43.4375H244.788H246.288V40.3125H244.788ZM244.788 43.4375V44.9375H251.038V43.4375V41.9375H244.788V43.4375ZM251.038 43.4375H249.538V45H251.038H252.538V43.4375H251.038ZM253.4 45H251.9V46.5H253.4V45ZM253.4 34.0625V32.5625H251.9V34.0625H253.4ZM262.775 34.0625H264.275V32.5625H262.775V34.0625ZM262.775 35.625H261.275V37.125H262.775V35.625ZM264.338 35.625H265.838V34.125H264.338V35.625ZM264.338 38.75V40.25H265.838V38.75H264.338ZM262.775 38.75V37.25H261.275V38.75H262.775ZM262.775 40.3125H261.275V41.8125H262.775V40.3125ZM264.338 40.3125H265.838V38.8125H264.338V40.3125ZM264.338 45V46.5H265.838V45H264.338ZM259.65 45H258.15V46.5H259.65V45ZM259.65 40.3125H261.15V38.8125H259.65V40.3125ZM256.533 40.3125V38.8125H255.033V40.3125H256.533ZM256.533 45V46.5H258.033V45H256.533ZM258.088 35.625V34.125H256.588V35.625H258.088ZM258.088 38.75H256.588V40.25H258.088V38.75ZM261.213 38.75V40.25H262.713V38.75H261.213ZM261.213 35.625H262.713V34.125H261.213V35.625ZM253.4 45H254.9V34.0625H253.4H251.9V45H253.4ZM253.4 34.0625V35.5625H262.775V34.0625V32.5625H253.4V34.0625ZM262.775 34.0625H261.275V35.625H262.775H264.275V34.0625H262.775ZM262.775 35.625V37.125H264.338V35.625V34.125H262.775V35.625ZM264.338 35.625H262.838V38.75H264.338H265.838V35.625H264.338ZM264.338 38.75V37.25H262.775V38.75V40.25H264.338V38.75ZM262.775 38.75H261.275V40.3125H262.775H264.275V38.75H262.775ZM262.775 40.3125V41.8125H264.338V40.3125V38.8125H262.775V40.3125ZM264.338 40.3125H262.838V45H264.338H265.838V40.3125H264.338ZM264.338 45V43.5H259.65V45V46.5H264.338V45ZM259.65 45H261.15V40.3125H259.65H258.15V45H259.65ZM259.65 40.3125V38.8125H256.533V40.3125V41.8125H259.65V40.3125ZM256.533 40.3125H255.033V45H256.533H258.033V40.3125H256.533ZM256.533 45V43.5H253.4V45V46.5H256.533V45ZM258.088 35.625H256.588V38.75H258.088H259.588V35.625H258.088ZM258.088 38.75V40.25H261.213V38.75V37.25H258.088V38.75ZM261.213 38.75H262.713V35.625H261.213H259.713V38.75H261.213ZM261.213 35.625V34.125H258.088V35.625V37.125H261.213V35.625ZM266.7 41.875V40.375H265.2V41.875H266.7ZM269.825 41.875H271.325V40.375H269.825V41.875ZM269.825 43.4375H268.325V44.9375H269.825V43.4375ZM274.512 43.4375V44.9375H276.012V43.4375H274.512ZM274.512 40.3125H276.012V38.8125H274.512V40.3125ZM268.262 40.3125H266.762V41.8125H268.262V40.3125ZM268.262 38.75H269.762V37.25H268.262V38.75ZM266.7 38.75H265.2V40.25H266.7V38.75ZM266.7 35.625V34.125H265.2V35.625H266.7ZM268.262 35.625V37.125H269.762V35.625H268.262ZM268.262 34.0625V32.5625H266.762V34.0625H268.262ZM276.075 34.0625H277.575V32.5625H276.075V34.0625ZM276.075 35.625H274.575V37.125H276.075V35.625ZM277.637 35.625H279.137V34.125H277.637V35.625ZM277.637 37.1875V38.6875H279.137V37.1875H277.637ZM274.512 37.1875H273.012V38.6875H274.512V37.1875ZM274.512 35.625H276.012V34.125H274.512V35.625ZM271.387 35.625V34.125H269.887V35.625H271.387ZM271.387 38.75H269.887V40.25H271.387V38.75ZM276.075 38.75H277.575V37.25H276.075V38.75ZM276.075 40.3125H274.575V41.8125H276.075V40.3125ZM277.637 40.3125H279.137V38.8125H277.637V40.3125ZM277.637 43.4375V44.9375H279.137V43.4375H277.637ZM276.075 43.4375V41.9375H274.575V43.4375H276.075ZM276.075 45V46.5H277.575V45H276.075ZM268.262 45H266.762V46.5H268.262V45ZM268.262 43.4375H269.762V41.9375H268.262V43.4375ZM266.7 43.4375H265.2V44.9375H266.7V43.4375ZM266.7 41.875V43.375H269.825V41.875V40.375H266.7V41.875ZM269.825 41.875H268.325V43.4375H269.825H271.325V41.875H269.825ZM269.825 43.4375V44.9375H274.512V43.4375V41.9375H269.825V43.4375ZM274.512 43.4375H276.012V40.3125H274.512H273.012V43.4375H274.512ZM274.512 40.3125V38.8125H268.262V40.3125V41.8125H274.512V40.3125ZM268.262 40.3125H269.762V38.75H268.262H266.762V40.3125H268.262ZM268.262 38.75V37.25H266.7V38.75V40.25H268.262V38.75ZM266.7 38.75H268.2V35.625H266.7H265.2V38.75H266.7ZM266.7 35.625V37.125H268.262V35.625V34.125H266.7V35.625ZM268.262 35.625H269.762V34.0625H268.262H266.762V35.625H268.262ZM268.262 34.0625V35.5625H276.075V34.0625V32.5625H268.262V34.0625ZM276.075 34.0625H274.575V35.625H276.075H277.575V34.0625H276.075ZM276.075 35.625V37.125H277.637V35.625V34.125H276.075V35.625ZM277.637 35.625H276.137V37.1875H277.637H279.137V35.625H277.637ZM277.637 37.1875V35.6875H274.512V37.1875V38.6875H277.637V37.1875ZM274.512 37.1875H276.012V35.625H274.512H273.012V37.1875H274.512ZM274.512 35.625V34.125H271.387V35.625V37.125H274.512V35.625ZM271.387 35.625H269.887V38.75H271.387H272.887V35.625H271.387ZM271.387 38.75V40.25H276.075V38.75V37.25H271.387V38.75ZM276.075 38.75H274.575V40.3125H276.075H277.575V38.75H276.075ZM276.075 40.3125V41.8125H277.637V40.3125V38.8125H276.075V40.3125ZM277.637 40.3125H276.137V43.4375H277.637H279.137V40.3125H277.637ZM277.637 43.4375V41.9375H276.075V43.4375V44.9375H277.637V43.4375ZM276.075 43.4375H274.575V45H276.075H277.575V43.4375H276.075ZM276.075 45V43.5H268.262V45V46.5H276.075V45ZM268.262 45H269.762V43.4375H268.262H266.762V45H268.262ZM268.262 43.4375V41.9375H266.7V43.4375V44.9375H268.262V43.4375ZM266.7 43.4375H268.2V41.875H266.7H265.2V43.4375H266.7Z" fill="#222256" mask="url(#path-2-outside-1_43_10063)"/>
</g>
<defs>
<filter id="filter0_dd_43_10063" x="2" y="1.5" width="368" height="63" filterUnits="userSpaceOnUse" color-interpolation-filters="sRGB">
<feFlood flood-opacity="0" result="BackgroundImageFix"/>
<feColorMatrix in="SourceAlpha" type="matrix" values="0 0 0 0 0 0 0 0 0 0 0 0 0 0 0 0 0 0 127 0" result="hardAlpha"/>
<feOffset dy="4"/>
<feComposite in2="hardAlpha" operator="out"/>
<feColorMatrix type="matrix" values="0 0 0 0 1 0 0 0 0 0.447059 0 0 0 0 0.152941 0 0 0 1 0"/>
<feBlend mode="normal" in2="BackgroundImageFix" result="effect1_dropShadow_43_10063"/>
<feColorMatrix in="SourceAlpha" type="matrix" values="0 0 0 0 0 0 0 0 0 0 0 0 0 0 0 0 0 0 127 0" result="hardAlpha"/>
<feOffset dy="2"/>
<feComposite in2="hardAlpha" operator="out"/>
<feColorMatrix type="matrix" values="0 0 0 0 0 0 0 0 0 0 0 0 0 0 0 0 0 0 0.25 0"/>
<feBlend mode="normal" in2="effect1_dropShadow_43_10063" result="effect2_dropShadow_43_10063"/>
<feBlend mode="normal" in="SourceGraphic" in2="effect2_dropShadow_43_10063" result="shape"/>
</filter>
<filter id="filter1_d_43_10063" x="72.35" y="13.5625" width="226.737" height="34.6193" filterUnits="userSpaceOnUse" color-interpolation-filters="sRGB">
<feFlood flood-opacity="0" result="BackgroundImageFix"/>
<feColorMatrix in="SourceAlpha" type="matrix" values="0 0 0 0 0 0 0 0 0 0 0 0 0 0 0 0 0 0 127 0" result="hardAlpha"/>
<feOffset dy="1.68182"/>
<feComposite in2="hardAlpha" operator="out"/>
<feColorMatrix type="matrix" values="0 0 0 0 1 0 0 0 0 0.447059 0 0 0 0 0.152941 0 0 0 1 0"/>
<feBlend mode="normal" in2="BackgroundImageFix" result="effect1_dropShadow_43_10063"/>
<feBlend mode="normal" in="SourceGraphic" in2="effect1_dropShadow_43_10063" result="shape"/>
</filter>
</defs>
</svg>
