<svg width="311" height="374" viewBox="0 0 311 374" fill="none" xmlns="http://www.w3.org/2000/svg">
<g filter="url(#filter0_d_32_920)">
<rect width="311" height="372" fill="#EC4EA2" shape-rendering="crispEdges"/>
<rect x="1" y="1" width="309" height="370" stroke="#4C28B8" stroke-width="2" shape-rendering="crispEdges"/>
<g clip-path="url(#clip0_32_920)">
<path d="M128.2 82.3999H124V90.7999H128.2V82.3999Z" fill="#991900"/>
<path d="M132.4 90.8H128.2V99.2H132.4V90.8Z" fill="#991900"/>
<path d="M132.4 69.8H128.2V82.4001H132.4V69.8Z" fill="#991900"/>
<path d="M136.6 61.3999H132.4V69.7999H136.6V61.3999Z" fill="#991900"/>
<path d="M140.8 57.2H136.6V61.4H140.8V57.2Z" fill="#991900"/>
<path d="M140.8 99.2H132.4V103.4H140.8V99.2Z" fill="#991900"/>
<path d="M145 103.4H140.8V107.6H145V103.4Z" fill="#991900"/>
<path d="M166 107.6H145V111.8H166V107.6Z" fill="#662014"/>
<path d="M149.2 53H140.8V57.2H149.2V53Z" fill="#991900"/>
<path d="M187 82.3999H182.8V90.7999H187V82.3999Z" fill="#662014"/>
<path d="M182.8 90.8H178.6V99.2H182.8V90.8Z" fill="#662014"/>
<path d="M182.8 69.8H178.6V82.4001H182.8V69.8Z" fill="#662014"/>
<path d="M178.6 61.3999H174.4V69.7999H178.6V61.3999Z" fill="#991900"/>
<path d="M174.4 57.2H170.2V61.4H174.4V57.2Z" fill="#991900"/>
<path d="M178.6 99.2H170.2V103.4H178.6V99.2Z" fill="#662014"/>
<path d="M170.2 103.4H166V107.6H170.2V103.4Z" fill="#662014"/>
<path d="M170.2 53H161.8V57.2H170.2V53Z" fill="#991900"/>
<path d="M182.8 82.4V90.8H178.6V99.2H170.2V103.4H166V107.6H145V103.4H140.8V99.2H132.4V90.8H128.2V82.4H132.4V69.8H136.6V61.4H140.8V57.2H149.2V53H161.8V57.2H170.2V61.4H174.4V69.8H178.6V82.4H182.8Z" fill="#C60045"/>
<path d="M161.8 48.8H149.2V53H161.8V48.8Z" fill="#991900"/>
<path d="M145 57.2H140.8V61.4H145V57.2Z" fill="#F8FFAF"/>
<path d="M136.6 69.8H132.4V74H136.6V69.8Z" fill="#F8FFAF"/>
<path d="M132.4 82.3999H128.2V86.5999H132.4V82.3999Z" fill="#F8FFAF"/>
<path d="M140.8 61.3999H136.6V69.7999H140.8V61.3999Z" fill="#F8FFAF"/>
<path d="M136.6 99.1999V95H140.8V86.5999H145V82.4H149.2V61.4H153.4V57.2H157.6V61.4H161.8V82.4H166V86.5999H170.2V95.2099H174.4V99.1999H170.2V103.4H166V107.6H145V103.4H140.8V99.1999H136.6Z" fill="#F8FFAF"/>
<path d="M153.4 61.3999H149.2V73.9999H153.4V61.3999Z" fill="white"/>
<path d="M166 82.4V86.6H170.2V95H174.4V99.2H178.6V90.8H182.8V82.4H178.6V74H174.4V78.2H170.2V82.4H166Z" fill="#C60000"/>
<path d="M157.6 90.8001V86.6001H153.4V90.8001H149.2V95.0001H161.8V90.8001H157.6Z" fill="#662014"/>
<path d="M157.6 95H153.4V99.2H157.6V95Z" fill="#AF7923"/>
<path d="M153.4 99.2H149.2V103.4H153.4V99.2Z" fill="#AF7923"/>
<path d="M149.2 95H145V99.2H149.2V95Z" fill="#AF7923"/>
<path d="M161.8 99.2H166V95H161.8V99.2Z" fill="#662014"/>
<path d="M157.6 103.4H161.8V99.1999H157.6V103.4Z" fill="#662014"/>
<path d="M166 74H161.8V82.4H166V74Z" fill="#AF7923"/>
<path d="M174.4 74H170.2V82.4H174.4V74Z" fill="#662014"/>
<path d="M170.2 69.8H166V74H170.2V69.8Z" fill="#AF7923"/>
<path d="M170.2 74H166V82.4H170.2V74Z" fill="white"/>
<path d="M170.2 82.3999H166V86.5999H170.2V82.3999Z" fill="#662014"/>
<path d="M140.8 74H136.6V82.4H140.8V74Z" fill="#AF7923"/>
<path d="M149.2 74H145V82.4H149.2V74Z" fill="#662014"/>
<path d="M145 69.8H140.8V74H145V69.8Z" fill="#AF7923"/>
<path d="M145 74H140.8V82.4H145V74Z" fill="white"/>
<path d="M145 82.3999H140.8V86.5999H145V82.3999Z" fill="#662014"/>
<path d="M178.6 69.7999H182.8V57.2H178.6V44.6H174.4V36.2H170.2V57.2H174.4V61.4H178.6V69.7999Z" fill="#C60045"/>
<path d="M178.6 57.2H182.8V44.6H178.6V57.2Z" fill="#662014"/>
<path d="M174.4 44.6001H178.6V36.2001H174.4V44.6001Z" fill="#662014"/>
<path d="M166 53H170.2V36.2H166V53Z" fill="#991900"/>
<path d="M170.2 36.2H174.4V32H170.2V36.2Z" fill="#991900"/>
<path d="M182.8 69.8H187V57.2001H182.8V69.8Z" fill="#662014"/>
<path d="M178.6 48.8H174.4V61.4H178.6V48.8Z" fill="#662014"/>
<path d="M132.4 44.6001H128.2V57.2001H132.4V44.6001Z" fill="#991900"/>
<path d="M136.6 36.2H132.4V44.6H136.6V36.2Z" fill="#991900"/>
<path d="M145 36.2H140.8V53H145V36.2Z" fill="#662014"/>
<path d="M140.8 32H136.6V36.2H140.8V32Z" fill="#991900"/>
<path d="M128.2 57.2H124V69.7999H128.2V57.2Z" fill="#991900"/>
<path d="M132.4 69.7999H128.2V57.2H132.4V44.6H136.6V36.2H140.8V57.2H136.6V61.4H132.4V69.7999Z" fill="#C60045"/>
<path d="M136.6 48.8H132.4V61.4H136.6V48.8Z" fill="#662014"/>
<path d="M174.4 36.2H170.2V44.6H174.4V36.2Z" fill="#C60045"/>
<path d="M161.8 82.3999H157.6V90.7999H161.8V94.9999H166V99.1999H161.8V103.4H157.6V107.6H166V103.4H170.2V99.1999H174.4V94.9999H170.2V86.5999H166V82.3999H161.8Z" fill="#AF7923"/>
</g>
<g filter="url(#filter1_d_32_920)">
<mask id="path-61-outside-1_32_920" maskUnits="userSpaceOnUse" x="13" y="137.8" width="282" height="35" fill="black">
<rect fill="white" x="13" y="137.8" width="282" height="35"/>
<path d="M20.5375 141.425V149.238H26.7875V150.8H17.4125V149.238H15.85V141.425H17.4125V139.863H26.7875V141.425H20.5375ZM29.15 150.8V139.863H38.525V141.425H40.0875V144.55H38.525V146.113H40.0875V150.8H35.4V146.113H32.2828V150.8H29.15ZM33.8375 141.425V144.55H36.9625V141.425H33.8375ZM42.45 150.8V141.425H44.0125V139.863H51.825V141.425H53.3875V150.8H50.2625V146.113H47.1375V150.8H42.45ZM47.1375 141.667V144.55H50.2625V141.667H47.1375ZM55.75 150.8V139.863H66.6875V141.425H60.4375V144.55H65.125V146.113H60.4375V150.8H55.75ZM79.9875 139.863V141.425H76.8625V150.8H72.175V141.425H69.05V139.863H79.9875ZM91.725 139.863V141.425H90.1625V149.238H91.725V150.8H83.9125V149.238H85.475V141.425H83.9125V139.863H91.725ZM95.65 150.8V139.863H105.025V141.425H106.588V150.8H103.463V141.425H100.338L100.345 150.8H95.65ZM119.888 144.55V149.238H118.325V150.8H110.513V149.238H108.95V141.425H110.513V139.863H118.333V141.425H119.888V142.988H118.325V141.425H113.638V149.238H116.763V146.113H115.2L115.208 144.55H119.888ZM135.55 150.8V141.425H137.113V139.863H144.925V141.425H146.488V150.8H143.363V146.113H140.238V150.8H135.55ZM140.238 141.667V144.55H143.363V141.667H140.238ZM166.838 141.425V149.238H173.088V150.8H163.713V149.238H162.15V141.425H163.713V139.863H173.088V141.425H166.838ZM184.825 150.8H177.013V149.238H175.45V141.425H177.013V139.863H184.825V141.425H186.388V149.238H184.825V150.8ZM183.263 149.238V141.425H180.138V149.238H183.263ZM196.562 141.425V150.8H193.438V141.425H191.875V150.8H188.75V139.863H198.133V141.425H199.688V150.8H198.125V141.425H196.562ZM206.745 146.113L206.761 150.8H202.05V139.863H211.425V141.425H212.988V144.55H211.425V146.113H206.745ZM206.738 141.425V144.55H209.863V141.425H206.738ZM226.288 150.8H215.35V139.863H226.288V141.425H220.038V144.55H224.725V146.113H220.038V149.238H226.288V150.8ZM239.588 150.8H228.65V139.863H233.338V149.238H239.588V150.8ZM252.888 150.8H241.95V139.863H246.638V149.238H252.888V150.8ZM264.625 139.863V141.425H263.062V149.238H264.625V150.8H256.812V149.238H258.375V141.425H256.812V139.863H264.625ZM268.55 150.8V139.863H277.925V141.425H279.488V150.8H276.363V141.425H273.238L273.245 150.8H268.55ZM292.788 144.55V149.238H291.225V150.8H283.413V149.238H281.85V141.425H283.413V139.863H291.233V141.425H292.788V142.988H291.225V141.425H286.538V149.238H289.663V146.113H288.1L288.108 144.55H292.788ZM32.275 169.238V159.863H33.8375V169.238H32.2828V170.8H24.4625V169.238H22.9V159.863H26.025V169.238H27.5875V159.863H30.7125V169.238H32.275ZM47.1375 170.8H36.2V159.863H47.1375V161.425H40.8875V164.55H45.575V166.113H40.8875V169.238H47.1375V170.8ZM49.5 170.8V159.863H58.875V161.425H60.4375V164.55H58.875V166.113H60.4375V169.238H58.875V170.8H49.5ZM54.1953 166.113V169.238H57.3125V166.113H54.1953ZM54.1875 161.425V164.55H57.3125V161.425H54.1875ZM64.3625 169.238H62.8V166.113H64.3703V169.238H69.05V166.113H65.925V164.55H69.05V161.425H64.3703V162.988H62.8V161.425H64.3625V159.863H72.175V161.425H73.7375V164.55H72.175V166.113H73.7375V169.238H72.175V170.8H64.3625V169.238ZM100.337 164.55V169.238H98.775V170.8H90.9625V169.238H89.4V161.425H90.9625V159.863H98.7828V161.425H100.337V162.988H98.775V161.425H94.0875V169.238H97.2125V166.113H95.65L95.6578 164.55H100.337ZM102.7 170.8V161.425H104.262V159.863H112.075V161.425H113.637V170.8H110.512V166.113H107.387V170.8H102.7ZM107.387 161.667V164.55H110.512V161.667H107.387ZM123.812 161.425V170.8H120.687V161.425H119.125V170.8H116V159.863H125.383V161.425H126.937V170.8H125.375V161.425H123.812ZM140.237 170.8H129.3V159.863H140.237V161.425H133.987V164.55H138.675V166.113H133.987V169.238H140.237V170.8ZM166.837 170.8H155.9V159.863H166.837V161.425H160.587V164.55H165.275V166.113H160.587V169.238H166.837V170.8ZM169.2 166.113H170.762V164.55H169.2V159.863H173.887V164.55H175.45V162.988H177.012V159.863H180.137V164.55H178.575V166.113H180.137V170.8H175.45V167.675H173.887V169.238H172.325V170.8H169.2V166.113ZM187.195 166.113L187.211 170.8H182.5V159.863H191.875V161.425H193.438V164.55H191.875V166.113H187.195ZM187.188 161.425V164.55H190.312V161.425H187.188ZM206.737 170.8H195.8V159.863H206.737V161.425H200.487V164.55H205.175V166.113H200.487V169.238H206.737V170.8ZM209.1 170.8V159.863H218.475V161.425H220.037V164.55H218.475V166.113H220.037V170.8H215.35V166.113H212.233V170.8H209.1ZM213.787 161.425V164.55H216.912V161.425H213.787ZM231.775 159.863V161.425H230.212V169.238H231.775V170.8H223.962V169.238H225.525V161.425H223.962V159.863H231.775ZM246.637 170.8H235.7V159.863H246.637V161.425H240.387V164.55H245.075V166.113H240.387V169.238H246.637V170.8ZM249 170.8V159.863H258.375V161.425H259.938V170.8H256.812V161.425H253.688L253.695 170.8H249ZM266.987 161.425V169.238H273.237V170.8H263.862V169.238H262.3V161.425H263.862V159.863H273.237V161.425H266.987ZM286.537 170.8H275.6V159.863H286.537V161.425H280.287V164.55H284.975V166.113H280.287V169.238H286.537V170.8Z"/>
</mask>
<path d="M20.5375 141.425V149.238H26.7875V150.8H17.4125V149.238H15.85V141.425H17.4125V139.863H26.7875V141.425H20.5375ZM29.15 150.8V139.863H38.525V141.425H40.0875V144.55H38.525V146.113H40.0875V150.8H35.4V146.113H32.2828V150.8H29.15ZM33.8375 141.425V144.55H36.9625V141.425H33.8375ZM42.45 150.8V141.425H44.0125V139.863H51.825V141.425H53.3875V150.8H50.2625V146.113H47.1375V150.8H42.45ZM47.1375 141.667V144.55H50.2625V141.667H47.1375ZM55.75 150.8V139.863H66.6875V141.425H60.4375V144.55H65.125V146.113H60.4375V150.8H55.75ZM79.9875 139.863V141.425H76.8625V150.8H72.175V141.425H69.05V139.863H79.9875ZM91.725 139.863V141.425H90.1625V149.238H91.725V150.8H83.9125V149.238H85.475V141.425H83.9125V139.863H91.725ZM95.65 150.8V139.863H105.025V141.425H106.588V150.8H103.463V141.425H100.338L100.345 150.8H95.65ZM119.888 144.55V149.238H118.325V150.8H110.513V149.238H108.95V141.425H110.513V139.863H118.333V141.425H119.888V142.988H118.325V141.425H113.638V149.238H116.763V146.113H115.2L115.208 144.55H119.888ZM135.55 150.8V141.425H137.113V139.863H144.925V141.425H146.488V150.8H143.363V146.113H140.238V150.8H135.55ZM140.238 141.667V144.55H143.363V141.667H140.238ZM166.838 141.425V149.238H173.088V150.8H163.713V149.238H162.15V141.425H163.713V139.863H173.088V141.425H166.838ZM184.825 150.8H177.013V149.238H175.45V141.425H177.013V139.863H184.825V141.425H186.388V149.238H184.825V150.8ZM183.263 149.238V141.425H180.138V149.238H183.263ZM196.562 141.425V150.8H193.438V141.425H191.875V150.8H188.75V139.863H198.133V141.425H199.688V150.8H198.125V141.425H196.562ZM206.745 146.113L206.761 150.8H202.05V139.863H211.425V141.425H212.988V144.55H211.425V146.113H206.745ZM206.738 141.425V144.55H209.863V141.425H206.738ZM226.288 150.8H215.35V139.863H226.288V141.425H220.038V144.55H224.725V146.113H220.038V149.238H226.288V150.8ZM239.588 150.8H228.65V139.863H233.338V149.238H239.588V150.8ZM252.888 150.8H241.95V139.863H246.638V149.238H252.888V150.8ZM264.625 139.863V141.425H263.062V149.238H264.625V150.8H256.812V149.238H258.375V141.425H256.812V139.863H264.625ZM268.55 150.8V139.863H277.925V141.425H279.488V150.8H276.363V141.425H273.238L273.245 150.8H268.55ZM292.788 144.55V149.238H291.225V150.8H283.413V149.238H281.85V141.425H283.413V139.863H291.233V141.425H292.788V142.988H291.225V141.425H286.538V149.238H289.663V146.113H288.1L288.108 144.55H292.788ZM32.275 169.238V159.863H33.8375V169.238H32.2828V170.8H24.4625V169.238H22.9V159.863H26.025V169.238H27.5875V159.863H30.7125V169.238H32.275ZM47.1375 170.8H36.2V159.863H47.1375V161.425H40.8875V164.55H45.575V166.113H40.8875V169.238H47.1375V170.8ZM49.5 170.8V159.863H58.875V161.425H60.4375V164.55H58.875V166.113H60.4375V169.238H58.875V170.8H49.5ZM54.1953 166.113V169.238H57.3125V166.113H54.1953ZM54.1875 161.425V164.55H57.3125V161.425H54.1875ZM64.3625 169.238H62.8V166.113H64.3703V169.238H69.05V166.113H65.925V164.55H69.05V161.425H64.3703V162.988H62.8V161.425H64.3625V159.863H72.175V161.425H73.7375V164.55H72.175V166.113H73.7375V169.238H72.175V170.8H64.3625V169.238ZM100.337 164.55V169.238H98.775V170.8H90.9625V169.238H89.4V161.425H90.9625V159.863H98.7828V161.425H100.337V162.988H98.775V161.425H94.0875V169.238H97.2125V166.113H95.65L95.6578 164.55H100.337ZM102.7 170.8V161.425H104.262V159.863H112.075V161.425H113.637V170.8H110.512V166.113H107.387V170.8H102.7ZM107.387 161.667V164.55H110.512V161.667H107.387ZM123.812 161.425V170.8H120.687V161.425H119.125V170.8H116V159.863H125.383V161.425H126.937V170.8H125.375V161.425H123.812ZM140.237 170.8H129.3V159.863H140.237V161.425H133.987V164.55H138.675V166.113H133.987V169.238H140.237V170.8ZM166.837 170.8H155.9V159.863H166.837V161.425H160.587V164.55H165.275V166.113H160.587V169.238H166.837V170.8ZM169.2 166.113H170.762V164.55H169.2V159.863H173.887V164.55H175.45V162.988H177.012V159.863H180.137V164.55H178.575V166.113H180.137V170.8H175.45V167.675H173.887V169.238H172.325V170.8H169.2V166.113ZM187.195 166.113L187.211 170.8H182.5V159.863H191.875V161.425H193.438V164.55H191.875V166.113H187.195ZM187.188 161.425V164.55H190.312V161.425H187.188ZM206.737 170.8H195.8V159.863H206.737V161.425H200.487V164.55H205.175V166.113H200.487V169.238H206.737V170.8ZM209.1 170.8V159.863H218.475V161.425H220.037V164.55H218.475V166.113H220.037V170.8H215.35V166.113H212.233V170.8H209.1ZM213.787 161.425V164.55H216.912V161.425H213.787ZM231.775 159.863V161.425H230.212V169.238H231.775V170.8H223.962V169.238H225.525V161.425H223.962V159.863H231.775ZM246.637 170.8H235.7V159.863H246.637V161.425H240.387V164.55H245.075V166.113H240.387V169.238H246.637V170.8ZM249 170.8V159.863H258.375V161.425H259.938V170.8H256.812V161.425H253.688L253.695 170.8H249ZM266.987 161.425V169.238H273.237V170.8H263.862V169.238H262.3V161.425H263.862V159.863H273.237V161.425H266.987ZM286.537 170.8H275.6V159.863H286.537V161.425H280.287V164.55H284.975V166.113H280.287V169.238H286.537V170.8Z" fill="white"/>
<path d="M20.5375 141.425V139.425H18.5375V141.425H20.5375ZM20.5375 149.238H18.5375V151.238H20.5375V149.238ZM26.7875 149.238H28.7875V147.238H26.7875V149.238ZM26.7875 150.8V152.8H28.7875V150.8H26.7875ZM17.4125 150.8H15.4125V152.8H17.4125V150.8ZM17.4125 149.238H19.4125V147.238H17.4125V149.238ZM15.85 149.238H13.85V151.238H15.85V149.238ZM15.85 141.425V139.425H13.85V141.425H15.85ZM17.4125 141.425V143.425H19.4125V141.425H17.4125ZM17.4125 139.863V137.863H15.4125V139.863H17.4125ZM26.7875 139.863H28.7875V137.863H26.7875V139.863ZM26.7875 141.425V143.425H28.7875V141.425H26.7875ZM20.5375 141.425H18.5375V149.238H20.5375H22.5375V141.425H20.5375ZM20.5375 149.238V151.238H26.7875V149.238V147.238H20.5375V149.238ZM26.7875 149.238H24.7875V150.8H26.7875H28.7875V149.238H26.7875ZM26.7875 150.8V148.8H17.4125V150.8V152.8H26.7875V150.8ZM17.4125 150.8H19.4125V149.238H17.4125H15.4125V150.8H17.4125ZM17.4125 149.238V147.238H15.85V149.238V151.238H17.4125V149.238ZM15.85 149.238H17.85V141.425H15.85H13.85V149.238H15.85ZM15.85 141.425V143.425H17.4125V141.425V139.425H15.85V141.425ZM17.4125 141.425H19.4125V139.863H17.4125H15.4125V141.425H17.4125ZM17.4125 139.863V141.863H26.7875V139.863V137.863H17.4125V139.863ZM26.7875 139.863H24.7875V141.425H26.7875H28.7875V139.863H26.7875ZM26.7875 141.425V139.425H20.5375V141.425V143.425H26.7875V141.425ZM29.15 150.8H27.15V152.8H29.15V150.8ZM29.15 139.863V137.863H27.15V139.863H29.15ZM38.525 139.863H40.525V137.863H38.525V139.863ZM38.525 141.425H36.525V143.425H38.525V141.425ZM40.0875 141.425H42.0875V139.425H40.0875V141.425ZM40.0875 144.55V146.55H42.0875V144.55H40.0875ZM38.525 144.55V142.55H36.525V144.55H38.525ZM38.525 146.113H36.525V148.113H38.525V146.113ZM40.0875 146.113H42.0875V144.113H40.0875V146.113ZM40.0875 150.8V152.8H42.0875V150.8H40.0875ZM35.4 150.8H33.4V152.8H35.4V150.8ZM35.4 146.113H37.4V144.113H35.4V146.113ZM32.2828 146.113V144.113H30.2828V146.113H32.2828ZM32.2828 150.8V152.8H34.2828V150.8H32.2828ZM33.8375 141.425V139.425H31.8375V141.425H33.8375ZM33.8375 144.55H31.8375V146.55H33.8375V144.55ZM36.9625 144.55V146.55H38.9625V144.55H36.9625ZM36.9625 141.425H38.9625V139.425H36.9625V141.425ZM29.15 150.8H31.15V139.863H29.15H27.15V150.8H29.15ZM29.15 139.863V141.863H38.525V139.863V137.863H29.15V139.863ZM38.525 139.863H36.525V141.425H38.525H40.525V139.863H38.525ZM38.525 141.425V143.425H40.0875V141.425V139.425H38.525V141.425ZM40.0875 141.425H38.0875V144.55H40.0875H42.0875V141.425H40.0875ZM40.0875 144.55V142.55H38.525V144.55V146.55H40.0875V144.55ZM38.525 144.55H36.525V146.113H38.525H40.525V144.55H38.525ZM38.525 146.113V148.113H40.0875V146.113V144.113H38.525V146.113ZM40.0875 146.113H38.0875V150.8H40.0875H42.0875V146.113H40.0875ZM40.0875 150.8V148.8H35.4V150.8V152.8H40.0875V150.8ZM35.4 150.8H37.4V146.113H35.4H33.4V150.8H35.4ZM35.4 146.113V144.113H32.2828V146.113V148.113H35.4V146.113ZM32.2828 146.113H30.2828V150.8H32.2828H34.2828V146.113H32.2828ZM32.2828 150.8V148.8H29.15V150.8V152.8H32.2828V150.8ZM33.8375 141.425H31.8375V144.55H33.8375H35.8375V141.425H33.8375ZM33.8375 144.55V146.55H36.9625V144.55V142.55H33.8375V144.55ZM36.9625 144.55H38.9625V141.425H36.9625H34.9625V144.55H36.9625ZM36.9625 141.425V139.425H33.8375V141.425V143.425H36.9625V141.425ZM42.45 150.8H40.45V152.8H42.45V150.8ZM42.45 141.425V139.425H40.45V141.425H42.45ZM44.0125 141.425V143.425H46.0125V141.425H44.0125ZM44.0125 139.863V137.863H42.0125V139.863H44.0125ZM51.825 139.863H53.825V137.863H51.825V139.863ZM51.825 141.425H49.825V143.425H51.825V141.425ZM53.3875 141.425H55.3875V139.425H53.3875V141.425ZM53.3875 150.8V152.8H55.3875V150.8H53.3875ZM50.2625 150.8H48.2625V152.8H50.2625V150.8ZM50.2625 146.113H52.2625V144.113H50.2625V146.113ZM47.1375 146.113V144.113H45.1375V146.113H47.1375ZM47.1375 150.8V152.8H49.1375V150.8H47.1375ZM47.1375 141.667V139.667H45.1375V141.667H47.1375ZM47.1375 144.55H45.1375V146.55H47.1375V144.55ZM50.2625 144.55V146.55H52.2625V144.55H50.2625ZM50.2625 141.667H52.2625V139.667H50.2625V141.667ZM42.45 150.8H44.45V141.425H42.45H40.45V150.8H42.45ZM42.45 141.425V143.425H44.0125V141.425V139.425H42.45V141.425ZM44.0125 141.425H46.0125V139.863H44.0125H42.0125V141.425H44.0125ZM44.0125 139.863V141.863H51.825V139.863V137.863H44.0125V139.863ZM51.825 139.863H49.825V141.425H51.825H53.825V139.863H51.825ZM51.825 141.425V143.425H53.3875V141.425V139.425H51.825V141.425ZM53.3875 141.425H51.3875V150.8H53.3875H55.3875V141.425H53.3875ZM53.3875 150.8V148.8H50.2625V150.8V152.8H53.3875V150.8ZM50.2625 150.8H52.2625V146.113H50.2625H48.2625V150.8H50.2625ZM50.2625 146.113V144.113H47.1375V146.113V148.113H50.2625V146.113ZM47.1375 146.113H45.1375V150.8H47.1375H49.1375V146.113H47.1375ZM47.1375 150.8V148.8H42.45V150.8V152.8H47.1375V150.8ZM47.1375 141.667H45.1375V144.55H47.1375H49.1375V141.667H47.1375ZM47.1375 144.55V146.55H50.2625V144.55V142.55H47.1375V144.55ZM50.2625 144.55H52.2625V141.667H50.2625H48.2625V144.55H50.2625ZM50.2625 141.667V139.667H47.1375V141.667V143.667H50.2625V141.667ZM55.75 150.8H53.75V152.8H55.75V150.8ZM55.75 139.863V137.863H53.75V139.863H55.75ZM66.6875 139.863H68.6875V137.863H66.6875V139.863ZM66.6875 141.425V143.425H68.6875V141.425H66.6875ZM60.4375 141.425V139.425H58.4375V141.425H60.4375ZM60.4375 144.55H58.4375V146.55H60.4375V144.55ZM65.125 144.55H67.125V142.55H65.125V144.55ZM65.125 146.113V148.113H67.125V146.113H65.125ZM60.4375 146.113V144.113H58.4375V146.113H60.4375ZM60.4375 150.8V152.8H62.4375V150.8H60.4375ZM55.75 150.8H57.75V139.863H55.75H53.75V150.8H55.75ZM55.75 139.863V141.863H66.6875V139.863V137.863H55.75V139.863ZM66.6875 139.863H64.6875V141.425H66.6875H68.6875V139.863H66.6875ZM66.6875 141.425V139.425H60.4375V141.425V143.425H66.6875V141.425ZM60.4375 141.425H58.4375V144.55H60.4375H62.4375V141.425H60.4375ZM60.4375 144.55V146.55H65.125V144.55V142.55H60.4375V144.55ZM65.125 144.55H63.125V146.113H65.125H67.125V144.55H65.125ZM65.125 146.113V144.113H60.4375V146.113V148.113H65.125V146.113ZM60.4375 146.113H58.4375V150.8H60.4375H62.4375V146.113H60.4375ZM60.4375 150.8V148.8H55.75V150.8V152.8H60.4375V150.8ZM79.9875 139.863H81.9875V137.863H79.9875V139.863ZM79.9875 141.425V143.425H81.9875V141.425H79.9875ZM76.8625 141.425V139.425H74.8625V141.425H76.8625ZM76.8625 150.8V152.8H78.8625V150.8H76.8625ZM72.175 150.8H70.175V152.8H72.175V150.8ZM72.175 141.425H74.175V139.425H72.175V141.425ZM69.05 141.425H67.05V143.425H69.05V141.425ZM69.05 139.863V137.863H67.05V139.863H69.05ZM79.9875 139.863H77.9875V141.425H79.9875H81.9875V139.863H79.9875ZM79.9875 141.425V139.425H76.8625V141.425V143.425H79.9875V141.425ZM76.8625 141.425H74.8625V150.8H76.8625H78.8625V141.425H76.8625ZM76.8625 150.8V148.8H72.175V150.8V152.8H76.8625V150.8ZM72.175 150.8H74.175V141.425H72.175H70.175V150.8H72.175ZM72.175 141.425V139.425H69.05V141.425V143.425H72.175V141.425ZM69.05 141.425H71.05V139.863H69.05H67.05V141.425H69.05ZM69.05 139.863V141.863H79.9875V139.863V137.863H69.05V139.863ZM91.725 139.863H93.725V137.863H91.725V139.863ZM91.725 141.425V143.425H93.725V141.425H91.725ZM90.1625 141.425V139.425H88.1625V141.425H90.1625ZM90.1625 149.238H88.1625V151.238H90.1625V149.238ZM91.725 149.238H93.725V147.238H91.725V149.238ZM91.725 150.8V152.8H93.725V150.8H91.725ZM83.9125 150.8H81.9125V152.8H83.9125V150.8ZM83.9125 149.238V147.238H81.9125V149.238H83.9125ZM85.475 149.238V151.238H87.475V149.238H85.475ZM85.475 141.425H87.475V139.425H85.475V141.425ZM83.9125 141.425H81.9125V143.425H83.9125V141.425ZM83.9125 139.863V137.863H81.9125V139.863H83.9125ZM91.725 139.863H89.725V141.425H91.725H93.725V139.863H91.725ZM91.725 141.425V139.425H90.1625V141.425V143.425H91.725V141.425ZM90.1625 141.425H88.1625V149.238H90.1625H92.1625V141.425H90.1625ZM90.1625 149.238V151.238H91.725V149.238V147.238H90.1625V149.238ZM91.725 149.238H89.725V150.8H91.725H93.725V149.238H91.725ZM91.725 150.8V148.8H83.9125V150.8V152.8H91.725V150.8ZM83.9125 150.8H85.9125V149.238H83.9125H81.9125V150.8H83.9125ZM83.9125 149.238V151.238H85.475V149.238V147.238H83.9125V149.238ZM85.475 149.238H87.475V141.425H85.475H83.475V149.238H85.475ZM85.475 141.425V139.425H83.9125V141.425V143.425H85.475V141.425ZM83.9125 141.425H85.9125V139.863H83.9125H81.9125V141.425H83.9125ZM83.9125 139.863V141.863H91.725V139.863V137.863H83.9125V139.863ZM95.65 150.8H93.65V152.8H95.65V150.8ZM95.65 139.863V137.863H93.65V139.863H95.65ZM105.025 139.863H107.025V137.863H105.025V139.863ZM105.025 141.425H103.025V143.425H105.025V141.425ZM106.588 141.425H108.588V139.425H106.588V141.425ZM106.588 150.8V152.8H108.588V150.8H106.588ZM103.463 150.8H101.463V152.8H103.463V150.8ZM103.463 141.425H105.463V139.425H103.463V141.425ZM100.338 141.425V139.425H98.3358L98.3375 141.427L100.338 141.425ZM100.345 150.8V152.8H102.347L102.345 150.798L100.345 150.8ZM95.65 150.8H97.65V139.863H95.65H93.65V150.8H95.65ZM95.65 139.863V141.863H105.025V139.863V137.863H95.65V139.863ZM105.025 139.863H103.025V141.425H105.025H107.025V139.863H105.025ZM105.025 141.425V143.425H106.588V141.425V139.425H105.025V141.425ZM106.588 141.425H104.588V150.8H106.588H108.588V141.425H106.588ZM106.588 150.8V148.8H103.463V150.8V152.8H106.588V150.8ZM103.463 150.8H105.463V141.425H103.463H101.463V150.8H103.463ZM103.463 141.425V139.425H100.338V141.425V143.425H103.463V141.425ZM100.338 141.425L98.3375 141.427L98.3453 150.802L100.345 150.8L102.345 150.798L102.338 141.423L100.338 141.425ZM100.345 150.8V148.8H95.65V150.8V152.8H100.345V150.8ZM119.888 144.55H121.888V142.55H119.888V144.55ZM119.888 149.238V151.238H121.888V149.238H119.888ZM118.325 149.238V147.238H116.325V149.238H118.325ZM118.325 150.8V152.8H120.325V150.8H118.325ZM110.513 150.8H108.513V152.8H110.513V150.8ZM110.513 149.238H112.513V147.238H110.513V149.238ZM108.95 149.238H106.95V151.238H108.95V149.238ZM108.95 141.425V139.425H106.95V141.425H108.95ZM110.513 141.425V143.425H112.513V141.425H110.513ZM110.513 139.863V137.863H108.513V139.863H110.513ZM118.333 139.863H120.333V137.863H118.333V139.863ZM118.333 141.425H116.333V143.425H118.333V141.425ZM119.888 141.425H121.888V139.425H119.888V141.425ZM119.888 142.988V144.988H121.888V142.988H119.888ZM118.325 142.988H116.325V144.988H118.325V142.988ZM118.325 141.425H120.325V139.425H118.325V141.425ZM113.638 141.425V139.425H111.638V141.425H113.638ZM113.638 149.238H111.638V151.238H113.638V149.238ZM116.763 149.238V151.238H118.763V149.238H116.763ZM116.763 146.113H118.763V144.113H116.763V146.113ZM115.2 146.113L113.2 146.103L113.19 148.113H115.2V146.113ZM115.208 144.55V142.55H113.218L113.208 144.54L115.208 144.55ZM119.888 144.55H117.888V149.238H119.888H121.888V144.55H119.888ZM119.888 149.238V147.238H118.325V149.238V151.238H119.888V149.238ZM118.325 149.238H116.325V150.8H118.325H120.325V149.238H118.325ZM118.325 150.8V148.8H110.513V150.8V152.8H118.325V150.8ZM110.513 150.8H112.513V149.238H110.513H108.513V150.8H110.513ZM110.513 149.238V147.238H108.95V149.238V151.238H110.513V149.238ZM108.95 149.238H110.95V141.425H108.95H106.95V149.238H108.95ZM108.95 141.425V143.425H110.513V141.425V139.425H108.95V141.425ZM110.513 141.425H112.513V139.863H110.513H108.513V141.425H110.513ZM110.513 139.863V141.863H118.333V139.863V137.863H110.513V139.863ZM118.333 139.863H116.333V141.425H118.333H120.333V139.863H118.333ZM118.333 141.425V143.425H119.888V141.425V139.425H118.333V141.425ZM119.888 141.425H117.888V142.988H119.888H121.888V141.425H119.888ZM119.888 142.988V140.988H118.325V142.988V144.988H119.888V142.988ZM118.325 142.988H120.325V141.425H118.325H116.325V142.988H118.325ZM118.325 141.425V139.425H113.638V141.425V143.425H118.325V141.425ZM113.638 141.425H111.638V149.238H113.638H115.638V141.425H113.638ZM113.638 149.238V151.238H116.763V149.238V147.238H113.638V149.238ZM116.763 149.238H118.763V146.113H116.763H114.763V149.238H116.763ZM116.763 146.113V144.113H115.2V146.113V148.113H116.763V146.113ZM115.2 146.113L117.2 146.123L117.208 144.56L115.208 144.55L113.208 144.54L113.2 146.103L115.2 146.113ZM115.208 144.55V146.55H119.888V144.55V142.55H115.208V144.55ZM135.55 150.8H133.55V152.8H135.55V150.8ZM135.55 141.425V139.425H133.55V141.425H135.55ZM137.113 141.425V143.425H139.113V141.425H137.113ZM137.113 139.863V137.863H135.113V139.863H137.113ZM144.925 139.863H146.925V137.863H144.925V139.863ZM144.925 141.425H142.925V143.425H144.925V141.425ZM146.488 141.425H148.488V139.425H146.488V141.425ZM146.488 150.8V152.8H148.488V150.8H146.488ZM143.363 150.8H141.363V152.8H143.363V150.8ZM143.363 146.113H145.363V144.113H143.363V146.113ZM140.238 146.113V144.113H138.238V146.113H140.238ZM140.238 150.8V152.8H142.238V150.8H140.238ZM140.238 141.667V139.667H138.238V141.667H140.238ZM140.238 144.55H138.238V146.55H140.238V144.55ZM143.363 144.55V146.55H145.363V144.55H143.363ZM143.363 141.667H145.363V139.667H143.363V141.667ZM135.55 150.8H137.55V141.425H135.55H133.55V150.8H135.55ZM135.55 141.425V143.425H137.113V141.425V139.425H135.55V141.425ZM137.113 141.425H139.113V139.863H137.113H135.113V141.425H137.113ZM137.113 139.863V141.863H144.925V139.863V137.863H137.113V139.863ZM144.925 139.863H142.925V141.425H144.925H146.925V139.863H144.925ZM144.925 141.425V143.425H146.488V141.425V139.425H144.925V141.425ZM146.488 141.425H144.488V150.8H146.488H148.488V141.425H146.488ZM146.488 150.8V148.8H143.363V150.8V152.8H146.488V150.8ZM143.363 150.8H145.363V146.113H143.363H141.363V150.8H143.363ZM143.363 146.113V144.113H140.238V146.113V148.113H143.363V146.113ZM140.238 146.113H138.238V150.8H140.238H142.238V146.113H140.238ZM140.238 150.8V148.8H135.55V150.8V152.8H140.238V150.8ZM140.238 141.667H138.238V144.55H140.238H142.238V141.667H140.238ZM140.238 144.55V146.55H143.363V144.55V142.55H140.238V144.55ZM143.363 144.55H145.363V141.667H143.363H141.363V144.55H143.363ZM143.363 141.667V139.667H140.238V141.667V143.667H143.363V141.667ZM166.838 141.425V139.425H164.838V141.425H166.838ZM166.838 149.238H164.838V151.238H166.838V149.238ZM173.088 149.238H175.088V147.238H173.088V149.238ZM173.088 150.8V152.8H175.088V150.8H173.088ZM163.713 150.8H161.713V152.8H163.713V150.8ZM163.713 149.238H165.713V147.238H163.713V149.238ZM162.15 149.238H160.15V151.238H162.15V149.238ZM162.15 141.425V139.425H160.15V141.425H162.15ZM163.713 141.425V143.425H165.713V141.425H163.713ZM163.713 139.863V137.863H161.713V139.863H163.713ZM173.088 139.863H175.088V137.863H173.088V139.863ZM173.088 141.425V143.425H175.088V141.425H173.088ZM166.838 141.425H164.838V149.238H166.838H168.838V141.425H166.838ZM166.838 149.238V151.238H173.088V149.238V147.238H166.838V149.238ZM173.088 149.238H171.088V150.8H173.088H175.088V149.238H173.088ZM173.088 150.8V148.8H163.713V150.8V152.8H173.088V150.8ZM163.713 150.8H165.713V149.238H163.713H161.713V150.8H163.713ZM163.713 149.238V147.238H162.15V149.238V151.238H163.713V149.238ZM162.15 149.238H164.15V141.425H162.15H160.15V149.238H162.15ZM162.15 141.425V143.425H163.713V141.425V139.425H162.15V141.425ZM163.713 141.425H165.713V139.863H163.713H161.713V141.425H163.713ZM163.713 139.863V141.863H173.088V139.863V137.863H163.713V139.863ZM173.088 139.863H171.088V141.425H173.088H175.088V139.863H173.088ZM173.088 141.425V139.425H166.838V141.425V143.425H173.088V141.425ZM184.825 150.8V152.8H186.825V150.8H184.825ZM177.013 150.8H175.013V152.8H177.013V150.8ZM177.013 149.238H179.013V147.238H177.013V149.238ZM175.45 149.238H173.45V151.238H175.45V149.238ZM175.45 141.425V139.425H173.45V141.425H175.45ZM177.013 141.425V143.425H179.013V141.425H177.013ZM177.013 139.863V137.863H175.013V139.863H177.013ZM184.825 139.863H186.825V137.863H184.825V139.863ZM184.825 141.425H182.825V143.425H184.825V141.425ZM186.388 141.425H188.388V139.425H186.388V141.425ZM186.388 149.238V151.238H188.388V149.238H186.388ZM184.825 149.238V147.238H182.825V149.238H184.825ZM183.263 149.238V151.238H185.263V149.238H183.263ZM183.263 141.425H185.263V139.425H183.263V141.425ZM180.138 141.425V139.425H178.138V141.425H180.138ZM180.138 149.238H178.138V151.238H180.138V149.238ZM184.825 150.8V148.8H177.013V150.8V152.8H184.825V150.8ZM177.013 150.8H179.013V149.238H177.013H175.013V150.8H177.013ZM177.013 149.238V147.238H175.45V149.238V151.238H177.013V149.238ZM175.45 149.238H177.45V141.425H175.45H173.45V149.238H175.45ZM175.45 141.425V143.425H177.013V141.425V139.425H175.45V141.425ZM177.013 141.425H179.013V139.863H177.013H175.013V141.425H177.013ZM177.013 139.863V141.863H184.825V139.863V137.863H177.013V139.863ZM184.825 139.863H182.825V141.425H184.825H186.825V139.863H184.825ZM184.825 141.425V143.425H186.388V141.425V139.425H184.825V141.425ZM186.388 141.425H184.388V149.238H186.388H188.388V141.425H186.388ZM186.388 149.238V147.238H184.825V149.238V151.238H186.388V149.238ZM184.825 149.238H182.825V150.8H184.825H186.825V149.238H184.825ZM183.263 149.238H185.263V141.425H183.263H181.263V149.238H183.263ZM183.263 141.425V139.425H180.138V141.425V143.425H183.263V141.425ZM180.138 141.425H178.138V149.238H180.138H182.138V141.425H180.138ZM180.138 149.238V151.238H183.263V149.238V147.238H180.138V149.238ZM196.562 141.425V139.425H194.562V141.425H196.562ZM196.562 150.8V152.8H198.562V150.8H196.562ZM193.438 150.8H191.438V152.8H193.438V150.8ZM193.438 141.425H195.438V139.425H193.438V141.425ZM191.875 141.425V139.425H189.875V141.425H191.875ZM191.875 150.8V152.8H193.875V150.8H191.875ZM188.75 150.8H186.75V152.8H188.75V150.8ZM188.75 139.863V137.863H186.75V139.863H188.75ZM198.133 139.863H200.133V137.863H198.133V139.863ZM198.133 141.425H196.133V143.425H198.133V141.425ZM199.688 141.425H201.688V139.425H199.688V141.425ZM199.688 150.8V152.8H201.688V150.8H199.688ZM198.125 150.8H196.125V152.8H198.125V150.8ZM198.125 141.425H200.125V139.425H198.125V141.425ZM196.562 141.425H194.562V150.8H196.562H198.562V141.425H196.562ZM196.562 150.8V148.8H193.438V150.8V152.8H196.562V150.8ZM193.438 150.8H195.438V141.425H193.438H191.438V150.8H193.438ZM193.438 141.425V139.425H191.875V141.425V143.425H193.438V141.425ZM191.875 141.425H189.875V150.8H191.875H193.875V141.425H191.875ZM191.875 150.8V148.8H188.75V150.8V152.8H191.875V150.8ZM188.75 150.8H190.75V139.863H188.75H186.75V150.8H188.75ZM188.75 139.863V141.863H198.133V139.863V137.863H188.75V139.863ZM198.133 139.863H196.133V141.425H198.133H200.133V139.863H198.133ZM198.133 141.425V143.425H199.688V141.425V139.425H198.133V141.425ZM199.688 141.425H197.688V150.8H199.688H201.688V141.425H199.688ZM199.688 150.8V148.8H198.125V150.8V152.8H199.688V150.8ZM198.125 150.8H200.125V141.425H198.125H196.125V150.8H198.125ZM198.125 141.425V139.425H196.562V141.425V143.425H198.125V141.425ZM206.745 146.113V144.113H204.739L204.745 146.119L206.745 146.113ZM206.761 150.8V152.8H208.768L208.761 150.793L206.761 150.8ZM202.05 150.8H200.05V152.8H202.05V150.8ZM202.05 139.863V137.863H200.05V139.863H202.05ZM211.425 139.863H213.425V137.863H211.425V139.863ZM211.425 141.425H209.425V143.425H211.425V141.425ZM212.988 141.425H214.988V139.425H212.988V141.425ZM212.988 144.55V146.55H214.988V144.55H212.988ZM211.425 144.55V142.55H209.425V144.55H211.425ZM211.425 146.113V148.113H213.425V146.113H211.425ZM206.738 141.425V139.425H204.738V141.425H206.738ZM206.738 144.55H204.738V146.55H206.738V144.55ZM209.863 144.55V146.55H211.863V144.55H209.863ZM209.863 141.425H211.863V139.425H209.863V141.425ZM206.745 146.113L204.745 146.119L204.761 150.807L206.761 150.8L208.761 150.793L208.745 146.106L206.745 146.113ZM206.761 150.8V148.8H202.05V150.8V152.8H206.761V150.8ZM202.05 150.8H204.05V139.863H202.05H200.05V150.8H202.05ZM202.05 139.863V141.863H211.425V139.863V137.863H202.05V139.863ZM211.425 139.863H209.425V141.425H211.425H213.425V139.863H211.425ZM211.425 141.425V143.425H212.988V141.425V139.425H211.425V141.425ZM212.988 141.425H210.988V144.55H212.988H214.988V141.425H212.988ZM212.988 144.55V142.55H211.425V144.55V146.55H212.988V144.55ZM211.425 144.55H209.425V146.113H211.425H213.425V144.55H211.425ZM211.425 146.113V144.113H206.745V146.113V148.113H211.425V146.113ZM206.738 141.425H204.738V144.55H206.738H208.738V141.425H206.738ZM206.738 144.55V146.55H209.863V144.55V142.55H206.738V144.55ZM209.863 144.55H211.863V141.425H209.863H207.863V144.55H209.863ZM209.863 141.425V139.425H206.738V141.425V143.425H209.863V141.425ZM226.288 150.8V152.8H228.288V150.8H226.288ZM215.35 150.8H213.35V152.8H215.35V150.8ZM215.35 139.863V137.863H213.35V139.863H215.35ZM226.288 139.863H228.288V137.863H226.288V139.863ZM226.288 141.425V143.425H228.288V141.425H226.288ZM220.038 141.425V139.425H218.038V141.425H220.038ZM220.038 144.55H218.038V146.55H220.038V144.55ZM224.725 144.55H226.725V142.55H224.725V144.55ZM224.725 146.113V148.113H226.725V146.113H224.725ZM220.038 146.113V144.113H218.038V146.113H220.038ZM220.038 149.238H218.038V151.238H220.038V149.238ZM226.288 149.238H228.288V147.238H226.288V149.238ZM226.288 150.8V148.8H215.35V150.8V152.8H226.288V150.8ZM215.35 150.8H217.35V139.863H215.35H213.35V150.8H215.35ZM215.35 139.863V141.863H226.288V139.863V137.863H215.35V139.863ZM226.288 139.863H224.288V141.425H226.288H228.288V139.863H226.288ZM226.288 141.425V139.425H220.038V141.425V143.425H226.288V141.425ZM220.038 141.425H218.038V144.55H220.038H222.038V141.425H220.038ZM220.038 144.55V146.55H224.725V144.55V142.55H220.038V144.55ZM224.725 144.55H222.725V146.113H224.725H226.725V144.55H224.725ZM224.725 146.113V144.113H220.038V146.113V148.113H224.725V146.113ZM220.038 146.113H218.038V149.238H220.038H222.038V146.113H220.038ZM220.038 149.238V151.238H226.288V149.238V147.238H220.038V149.238ZM226.288 149.238H224.288V150.8H226.288H228.288V149.238H226.288ZM239.588 150.8V152.8H241.588V150.8H239.588ZM228.65 150.8H226.65V152.8H228.65V150.8ZM228.65 139.863V137.863H226.65V139.863H228.65ZM233.338 139.863H235.338V137.863H233.338V139.863ZM233.338 149.238H231.338V151.238H233.338V149.238ZM239.588 149.238H241.588V147.238H239.588V149.238ZM239.588 150.8V148.8H228.65V150.8V152.8H239.588V150.8ZM228.65 150.8H230.65V139.863H228.65H226.65V150.8H228.65ZM228.65 139.863V141.863H233.338V139.863V137.863H228.65V139.863ZM233.338 139.863H231.338V149.238H233.338H235.338V139.863H233.338ZM233.338 149.238V151.238H239.588V149.238V147.238H233.338V149.238ZM239.588 149.238H237.588V150.8H239.588H241.588V149.238H239.588ZM252.888 150.8V152.8H254.888V150.8H252.888ZM241.95 150.8H239.95V152.8H241.95V150.8ZM241.95 139.863V137.863H239.95V139.863H241.95ZM246.638 139.863H248.638V137.863H246.638V139.863ZM246.638 149.238H244.638V151.238H246.638V149.238ZM252.888 149.238H254.888V147.238H252.888V149.238ZM252.888 150.8V148.8H241.95V150.8V152.8H252.888V150.8ZM241.95 150.8H243.95V139.863H241.95H239.95V150.8H241.95ZM241.95 139.863V141.863H246.638V139.863V137.863H241.95V139.863ZM246.638 139.863H244.638V149.238H246.638H248.638V139.863H246.638ZM246.638 149.238V151.238H252.888V149.238V147.238H246.638V149.238ZM252.888 149.238H250.888V150.8H252.888H254.888V149.238H252.888ZM264.625 139.863H266.625V137.863H264.625V139.863ZM264.625 141.425V143.425H266.625V141.425H264.625ZM263.062 141.425V139.425H261.062V141.425H263.062ZM263.062 149.238H261.062V151.238H263.062V149.238ZM264.625 149.238H266.625V147.238H264.625V149.238ZM264.625 150.8V152.8H266.625V150.8H264.625ZM256.812 150.8H254.812V152.8H256.812V150.8ZM256.812 149.238V147.238H254.812V149.238H256.812ZM258.375 149.238V151.238H260.375V149.238H258.375ZM258.375 141.425H260.375V139.425H258.375V141.425ZM256.812 141.425H254.812V143.425H256.812V141.425ZM256.812 139.863V137.863H254.812V139.863H256.812ZM264.625 139.863H262.625V141.425H264.625H266.625V139.863H264.625ZM264.625 141.425V139.425H263.062V141.425V143.425H264.625V141.425ZM263.062 141.425H261.062V149.238H263.062H265.062V141.425H263.062ZM263.062 149.238V151.238H264.625V149.238V147.238H263.062V149.238ZM264.625 149.238H262.625V150.8H264.625H266.625V149.238H264.625ZM264.625 150.8V148.8H256.812V150.8V152.8H264.625V150.8ZM256.812 150.8H258.812V149.238H256.812H254.812V150.8H256.812ZM256.812 149.238V151.238H258.375V149.238V147.238H256.812V149.238ZM258.375 149.238H260.375V141.425H258.375H256.375V149.238H258.375ZM258.375 141.425V139.425H256.812V141.425V143.425H258.375V141.425ZM256.812 141.425H258.812V139.863H256.812H254.812V141.425H256.812ZM256.812 139.863V141.863H264.625V139.863V137.863H256.812V139.863ZM268.55 150.8H266.55V152.8H268.55V150.8ZM268.55 139.863V137.863H266.55V139.863H268.55ZM277.925 139.863H279.925V137.863H277.925V139.863ZM277.925 141.425H275.925V143.425H277.925V141.425ZM279.487 141.425H281.487V139.425H279.487V141.425ZM279.487 150.8V152.8H281.487V150.8H279.487ZM276.362 150.8H274.362V152.8H276.362V150.8ZM276.362 141.425H278.362V139.425H276.362V141.425ZM273.237 141.425V139.425H271.236L271.238 141.427L273.237 141.425ZM273.245 150.8V152.8H275.247L275.245 150.798L273.245 150.8ZM268.55 150.8H270.55V139.863H268.55H266.55V150.8H268.55ZM268.55 139.863V141.863H277.925V139.863V137.863H268.55V139.863ZM277.925 139.863H275.925V141.425H277.925H279.925V139.863H277.925ZM277.925 141.425V143.425H279.487V141.425V139.425H277.925V141.425ZM279.487 141.425H277.487V150.8H279.487H281.487V141.425H279.487ZM279.487 150.8V148.8H276.362V150.8V152.8H279.487V150.8ZM276.362 150.8H278.362V141.425H276.362H274.362V150.8H276.362ZM276.362 141.425V139.425H273.237V141.425V143.425H276.362V141.425ZM273.237 141.425L271.238 141.427L271.245 150.802L273.245 150.8L275.245 150.798L275.237 141.423L273.237 141.425ZM273.245 150.8V148.8H268.55V150.8V152.8H273.245V150.8ZM292.788 144.55H294.788V142.55H292.788V144.55ZM292.788 149.238V151.238H294.788V149.238H292.788ZM291.225 149.238V147.238H289.225V149.238H291.225ZM291.225 150.8V152.8H293.225V150.8H291.225ZM283.413 150.8H281.413V152.8H283.413V150.8ZM283.413 149.238H285.413V147.238H283.413V149.238ZM281.85 149.238H279.85V151.238H281.85V149.238ZM281.85 141.425V139.425H279.85V141.425H281.85ZM283.413 141.425V143.425H285.413V141.425H283.413ZM283.413 139.863V137.863H281.413V139.863H283.413ZM291.233 139.863H293.233V137.863H291.233V139.863ZM291.233 141.425H289.233V143.425H291.233V141.425ZM292.788 141.425H294.788V139.425H292.788V141.425ZM292.788 142.988V144.988H294.788V142.988H292.788ZM291.225 142.988H289.225V144.988H291.225V142.988ZM291.225 141.425H293.225V139.425H291.225V141.425ZM286.538 141.425V139.425H284.538V141.425H286.538ZM286.538 149.238H284.538V151.238H286.538V149.238ZM289.663 149.238V151.238H291.663V149.238H289.663ZM289.663 146.113H291.663V144.113H289.663V146.113ZM288.1 146.113L286.1 146.103L286.09 148.113H288.1V146.113ZM288.108 144.55V142.55H286.118L286.108 144.54L288.108 144.55ZM292.788 144.55H290.788V149.238H292.788H294.788V144.55H292.788ZM292.788 149.238V147.238H291.225V149.238V151.238H292.788V149.238ZM291.225 149.238H289.225V150.8H291.225H293.225V149.238H291.225ZM291.225 150.8V148.8H283.413V150.8V152.8H291.225V150.8ZM283.413 150.8H285.413V149.238H283.413H281.413V150.8H283.413ZM283.413 149.238V147.238H281.85V149.238V151.238H283.413V149.238ZM281.85 149.238H283.85V141.425H281.85H279.85V149.238H281.85ZM281.85 141.425V143.425H283.413V141.425V139.425H281.85V141.425ZM283.413 141.425H285.413V139.863H283.413H281.413V141.425H283.413ZM283.413 139.863V141.863H291.233V139.863V137.863H283.413V139.863ZM291.233 139.863H289.233V141.425H291.233H293.233V139.863H291.233ZM291.233 141.425V143.425H292.788V141.425V139.425H291.233V141.425ZM292.788 141.425H290.788V142.988H292.788H294.788V141.425H292.788ZM292.788 142.988V140.988H291.225V142.988V144.988H292.788V142.988ZM291.225 142.988H293.225V141.425H291.225H289.225V142.988H291.225ZM291.225 141.425V139.425H286.538V141.425V143.425H291.225V141.425ZM286.538 141.425H284.538V149.238H286.538H288.538V141.425H286.538ZM286.538 149.238V151.238H289.663V149.238V147.238H286.538V149.238ZM289.663 149.238H291.663V146.113H289.663H287.663V149.238H289.663ZM289.663 146.113V144.113H288.1V146.113V148.113H289.663V146.113ZM288.1 146.113L290.1 146.123L290.108 144.56L288.108 144.55L286.108 144.54L286.1 146.103L288.1 146.113ZM288.108 144.55V146.55H292.788V144.55V142.55H288.108V144.55ZM32.275 169.238V171.238H34.275V169.238H32.275ZM32.275 159.863V157.863H30.275V159.863H32.275ZM33.8375 159.863H35.8375V157.863H33.8375V159.863ZM33.8375 169.238V171.238H35.8375V169.238H33.8375ZM32.2828 169.238V167.238H30.2828V169.238H32.2828ZM32.2828 170.8V172.8H34.2828V170.8H32.2828ZM24.4625 170.8H22.4625V172.8H24.4625V170.8ZM24.4625 169.238H26.4625V167.238H24.4625V169.238ZM22.9 169.238H20.9V171.238H22.9V169.238ZM22.9 159.863V157.863H20.9V159.863H22.9ZM26.025 159.863H28.025V157.863H26.025V159.863ZM26.025 169.238H24.025V171.238H26.025V169.238ZM27.5875 169.238V171.238H29.5875V169.238H27.5875ZM27.5875 159.863V157.863H25.5875V159.863H27.5875ZM30.7125 159.863H32.7125V157.863H30.7125V159.863ZM30.7125 169.238H28.7125V171.238H30.7125V169.238ZM32.275 169.238H34.275V159.863H32.275H30.275V169.238H32.275ZM32.275 159.863V161.863H33.8375V159.863V157.863H32.275V159.863ZM33.8375 159.863H31.8375V169.238H33.8375H35.8375V159.863H33.8375ZM33.8375 169.238V167.238H32.2828V169.238V171.238H33.8375V169.238ZM32.2828 169.238H30.2828V170.8H32.2828H34.2828V169.238H32.2828ZM32.2828 170.8V168.8H24.4625V170.8V172.8H32.2828V170.8ZM24.4625 170.8H26.4625V169.238H24.4625H22.4625V170.8H24.4625ZM24.4625 169.238V167.238H22.9V169.238V171.238H24.4625V169.238ZM22.9 169.238H24.9V159.863H22.9H20.9V169.238H22.9ZM22.9 159.863V161.863H26.025V159.863V157.863H22.9V159.863ZM26.025 159.863H24.025V169.238H26.025H28.025V159.863H26.025ZM26.025 169.238V171.238H27.5875V169.238V167.238H26.025V169.238ZM27.5875 169.238H29.5875V159.863H27.5875H25.5875V169.238H27.5875ZM27.5875 159.863V161.863H30.7125V159.863V157.863H27.5875V159.863ZM30.7125 159.863H28.7125V169.238H30.7125H32.7125V159.863H30.7125ZM30.7125 169.238V171.238H32.275V169.238V167.238H30.7125V169.238ZM47.1375 170.8V172.8H49.1375V170.8H47.1375ZM36.2 170.8H34.2V172.8H36.2V170.8ZM36.2 159.863V157.863H34.2V159.863H36.2ZM47.1375 159.863H49.1375V157.863H47.1375V159.863ZM47.1375 161.425V163.425H49.1375V161.425H47.1375ZM40.8875 161.425V159.425H38.8875V161.425H40.8875ZM40.8875 164.55H38.8875V166.55H40.8875V164.55ZM45.575 164.55H47.575V162.55H45.575V164.55ZM45.575 166.113V168.113H47.575V166.113H45.575ZM40.8875 166.113V164.113H38.8875V166.113H40.8875ZM40.8875 169.238H38.8875V171.238H40.8875V169.238ZM47.1375 169.238H49.1375V167.238H47.1375V169.238ZM47.1375 170.8V168.8H36.2V170.8V172.8H47.1375V170.8ZM36.2 170.8H38.2V159.863H36.2H34.2V170.8H36.2ZM36.2 159.863V161.863H47.1375V159.863V157.863H36.2V159.863ZM47.1375 159.863H45.1375V161.425H47.1375H49.1375V159.863H47.1375ZM47.1375 161.425V159.425H40.8875V161.425V163.425H47.1375V161.425ZM40.8875 161.425H38.8875V164.55H40.8875H42.8875V161.425H40.8875ZM40.8875 164.55V166.55H45.575V164.55V162.55H40.8875V164.55ZM45.575 164.55H43.575V166.113H45.575H47.575V164.55H45.575ZM45.575 166.113V164.113H40.8875V166.113V168.113H45.575V166.113ZM40.8875 166.113H38.8875V169.238H40.8875H42.8875V166.113H40.8875ZM40.8875 169.238V171.238H47.1375V169.238V167.238H40.8875V169.238ZM47.1375 169.238H45.1375V170.8H47.1375H49.1375V169.238H47.1375ZM49.5 170.8H47.5V172.8H49.5V170.8ZM49.5 159.863V157.863H47.5V159.863H49.5ZM58.875 159.863H60.875V157.863H58.875V159.863ZM58.875 161.425H56.875V163.425H58.875V161.425ZM60.4375 161.425H62.4375V159.425H60.4375V161.425ZM60.4375 164.55V166.55H62.4375V164.55H60.4375ZM58.875 164.55V162.55H56.875V164.55H58.875ZM58.875 166.113H56.875V168.113H58.875V166.113ZM60.4375 166.113H62.4375V164.113H60.4375V166.113ZM60.4375 169.238V171.238H62.4375V169.238H60.4375ZM58.875 169.238V167.238H56.875V169.238H58.875ZM58.875 170.8V172.8H60.875V170.8H58.875ZM54.1953 166.113V164.113H52.1953V166.113H54.1953ZM54.1953 169.238H52.1953V171.238H54.1953V169.238ZM57.3125 169.238V171.238H59.3125V169.238H57.3125ZM57.3125 166.113H59.3125V164.113H57.3125V166.113ZM54.1875 161.425V159.425H52.1875V161.425H54.1875ZM54.1875 164.55H52.1875V166.55H54.1875V164.55ZM57.3125 164.55V166.55H59.3125V164.55H57.3125ZM57.3125 161.425H59.3125V159.425H57.3125V161.425ZM49.5 170.8H51.5V159.863H49.5H47.5V170.8H49.5ZM49.5 159.863V161.863H58.875V159.863V157.863H49.5V159.863ZM58.875 159.863H56.875V161.425H58.875H60.875V159.863H58.875ZM58.875 161.425V163.425H60.4375V161.425V159.425H58.875V161.425ZM60.4375 161.425H58.4375V164.55H60.4375H62.4375V161.425H60.4375ZM60.4375 164.55V162.55H58.875V164.55V166.55H60.4375V164.55ZM58.875 164.55H56.875V166.113H58.875H60.875V164.55H58.875ZM58.875 166.113V168.113H60.4375V166.113V164.113H58.875V166.113ZM60.4375 166.113H58.4375V169.238H60.4375H62.4375V166.113H60.4375ZM60.4375 169.238V167.238H58.875V169.238V171.238H60.4375V169.238ZM58.875 169.238H56.875V170.8H58.875H60.875V169.238H58.875ZM58.875 170.8V168.8H49.5V170.8V172.8H58.875V170.8ZM54.1953 166.113H52.1953V169.238H54.1953H56.1953V166.113H54.1953ZM54.1953 169.238V171.238H57.3125V169.238V167.238H54.1953V169.238ZM57.3125 169.238H59.3125V166.113H57.3125H55.3125V169.238H57.3125ZM57.3125 166.113V164.113H54.1953V166.113V168.113H57.3125V166.113ZM54.1875 161.425H52.1875V164.55H54.1875H56.1875V161.425H54.1875ZM54.1875 164.55V166.55H57.3125V164.55V162.55H54.1875V164.55ZM57.3125 164.55H59.3125V161.425H57.3125H55.3125V164.55H57.3125ZM57.3125 161.425V159.425H54.1875V161.425V163.425H57.3125V161.425ZM64.3625 169.238H66.3625V167.238H64.3625V169.238ZM62.8 169.238H60.8V171.238H62.8V169.238ZM62.8 166.113V164.113H60.8V166.113H62.8ZM64.3703 166.113H66.3703V164.113H64.3703V166.113ZM64.3703 169.238H62.3703V171.238H64.3703V169.238ZM69.05 169.238V171.238H71.05V169.238H69.05ZM69.05 166.113H71.05V164.113H69.05V166.113ZM65.925 166.113H63.925V168.113H65.925V166.113ZM65.925 164.55V162.55H63.925V164.55H65.925ZM69.05 164.55V166.55H71.05V164.55H69.05ZM69.05 161.425H71.05V159.425H69.05V161.425ZM64.3703 161.425V159.425H62.3703V161.425H64.3703ZM64.3703 162.988V164.988H66.3703V162.988H64.3703ZM62.8 162.988H60.8V164.988H62.8V162.988ZM62.8 161.425V159.425H60.8V161.425H62.8ZM64.3625 161.425V163.425H66.3625V161.425H64.3625ZM64.3625 159.863V157.863H62.3625V159.863H64.3625ZM72.175 159.863H74.175V157.863H72.175V159.863ZM72.175 161.425H70.175V163.425H72.175V161.425ZM73.7375 161.425H75.7375V159.425H73.7375V161.425ZM73.7375 164.55V166.55H75.7375V164.55H73.7375ZM72.175 164.55V162.55H70.175V164.55H72.175ZM72.175 166.113H70.175V168.113H72.175V166.113ZM73.7375 166.113H75.7375V164.113H73.7375V166.113ZM73.7375 169.238V171.238H75.7375V169.238H73.7375ZM72.175 169.238V167.238H70.175V169.238H72.175ZM72.175 170.8V172.8H74.175V170.8H72.175ZM64.3625 170.8H62.3625V172.8H64.3625V170.8ZM64.3625 169.238V167.238H62.8V169.238V171.238H64.3625V169.238ZM62.8 169.238H64.8V166.113H62.8H60.8V169.238H62.8ZM62.8 166.113V168.113H64.3703V166.113V164.113H62.8V166.113ZM64.3703 166.113H62.3703V169.238H64.3703H66.3703V166.113H64.3703ZM64.3703 169.238V171.238H69.05V169.238V167.238H64.3703V169.238ZM69.05 169.238H71.05V166.113H69.05H67.05V169.238H69.05ZM69.05 166.113V164.113H65.925V166.113V168.113H69.05V166.113ZM65.925 166.113H67.925V164.55H65.925H63.925V166.113H65.925ZM65.925 164.55V166.55H69.05V164.55V162.55H65.925V164.55ZM69.05 164.55H71.05V161.425H69.05H67.05V164.55H69.05ZM69.05 161.425V159.425H64.3703V161.425V163.425H69.05V161.425ZM64.3703 161.425H62.3703V162.988H64.3703H66.3703V161.425H64.3703ZM64.3703 162.988V160.988H62.8V162.988V164.988H64.3703V162.988ZM62.8 162.988H64.8V161.425H62.8H60.8V162.988H62.8ZM62.8 161.425V163.425H64.3625V161.425V159.425H62.8V161.425ZM64.3625 161.425H66.3625V159.863H64.3625H62.3625V161.425H64.3625ZM64.3625 159.863V161.863H72.175V159.863V157.863H64.3625V159.863ZM72.175 159.863H70.175V161.425H72.175H74.175V159.863H72.175ZM72.175 161.425V163.425H73.7375V161.425V159.425H72.175V161.425ZM73.7375 161.425H71.7375V164.55H73.7375H75.7375V161.425H73.7375ZM73.7375 164.55V162.55H72.175V164.55V166.55H73.7375V164.55ZM72.175 164.55H70.175V166.113H72.175H74.175V164.55H72.175ZM72.175 166.113V168.113H73.7375V166.113V164.113H72.175V166.113ZM73.7375 166.113H71.7375V169.238H73.7375H75.7375V166.113H73.7375ZM73.7375 169.238V167.238H72.175V169.238V171.238H73.7375V169.238ZM72.175 169.238H70.175V170.8H72.175H74.175V169.238H72.175ZM72.175 170.8V168.8H64.3625V170.8V172.8H72.175V170.8ZM64.3625 170.8H66.3625V169.238H64.3625H62.3625V170.8H64.3625ZM100.337 164.55H102.337V162.55H100.337V164.55ZM100.337 169.238V171.238H102.337V169.238H100.337ZM98.775 169.238V167.238H96.775V169.238H98.775ZM98.775 170.8V172.8H100.775V170.8H98.775ZM90.9625 170.8H88.9625V172.8H90.9625V170.8ZM90.9625 169.238H92.9625V167.238H90.9625V169.238ZM89.4 169.238H87.4V171.238H89.4V169.238ZM89.4 161.425V159.425H87.4V161.425H89.4ZM90.9625 161.425V163.425H92.9625V161.425H90.9625ZM90.9625 159.863V157.863H88.9625V159.863H90.9625ZM98.7828 159.863H100.783V157.863H98.7828V159.863ZM98.7828 161.425H96.7828V163.425H98.7828V161.425ZM100.337 161.425H102.337V159.425H100.337V161.425ZM100.337 162.988V164.988H102.337V162.988H100.337ZM98.775 162.988H96.775V164.988H98.775V162.988ZM98.775 161.425H100.775V159.425H98.775V161.425ZM94.0875 161.425V159.425H92.0875V161.425H94.0875ZM94.0875 169.238H92.0875V171.238H94.0875V169.238ZM97.2125 169.238V171.238H99.2125V169.238H97.2125ZM97.2125 166.113H99.2125V164.113H97.2125V166.113ZM95.65 166.113L93.65 166.103L93.64 168.113H95.65V166.113ZM95.6578 164.55V162.55H93.6678L93.6578 164.54L95.6578 164.55ZM100.337 164.55H98.3375V169.238H100.337H102.337V164.55H100.337ZM100.337 169.238V167.238H98.775V169.238V171.238H100.337V169.238ZM98.775 169.238H96.775V170.8H98.775H100.775V169.238H98.775ZM98.775 170.8V168.8H90.9625V170.8V172.8H98.775V170.8ZM90.9625 170.8H92.9625V169.238H90.9625H88.9625V170.8H90.9625ZM90.9625 169.238V167.238H89.4V169.238V171.238H90.9625V169.238ZM89.4 169.238H91.4V161.425H89.4H87.4V169.238H89.4ZM89.4 161.425V163.425H90.9625V161.425V159.425H89.4V161.425ZM90.9625 161.425H92.9625V159.863H90.9625H88.9625V161.425H90.9625ZM90.9625 159.863V161.863H98.7828V159.863V157.863H90.9625V159.863ZM98.7828 159.863H96.7828V161.425H98.7828H100.783V159.863H98.7828ZM98.7828 161.425V163.425H100.337V161.425V159.425H98.7828V161.425ZM100.337 161.425H98.3375V162.988H100.337H102.337V161.425H100.337ZM100.337 162.988V160.988H98.775V162.988V164.988H100.337V162.988ZM98.775 162.988H100.775V161.425H98.775H96.775V162.988H98.775ZM98.775 161.425V159.425H94.0875V161.425V163.425H98.775V161.425ZM94.0875 161.425H92.0875V169.238H94.0875H96.0875V161.425H94.0875ZM94.0875 169.238V171.238H97.2125V169.238V167.238H94.0875V169.238ZM97.2125 169.238H99.2125V166.113H97.2125H95.2125V169.238H97.2125ZM97.2125 166.113V164.113H95.65V166.113V168.113H97.2125V166.113ZM95.65 166.113L97.65 166.123L97.6578 164.56L95.6578 164.55L93.6578 164.54L93.65 166.103L95.65 166.113ZM95.6578 164.55V166.55H100.337V164.55V162.55H95.6578V164.55ZM102.7 170.8H100.7V172.8H102.7V170.8ZM102.7 161.425V159.425H100.7V161.425H102.7ZM104.262 161.425V163.425H106.262V161.425H104.262ZM104.262 159.863V157.863H102.262V159.863H104.262ZM112.075 159.863H114.075V157.863H112.075V159.863ZM112.075 161.425H110.075V163.425H112.075V161.425ZM113.637 161.425H115.637V159.425H113.637V161.425ZM113.637 170.8V172.8H115.637V170.8H113.637ZM110.512 170.8H108.512V172.8H110.512V170.8ZM110.512 166.113H112.512V164.113H110.512V166.113ZM107.387 166.113V164.113H105.387V166.113H107.387ZM107.387 170.8V172.8H109.387V170.8H107.387ZM107.387 161.667V159.667H105.387V161.667H107.387ZM107.387 164.55H105.387V166.55H107.387V164.55ZM110.512 164.55V166.55H112.512V164.55H110.512ZM110.512 161.667H112.512V159.667H110.512V161.667ZM102.7 170.8H104.7V161.425H102.7H100.7V170.8H102.7ZM102.7 161.425V163.425H104.262V161.425V159.425H102.7V161.425ZM104.262 161.425H106.262V159.863H104.262H102.262V161.425H104.262ZM104.262 159.863V161.863H112.075V159.863V157.863H104.262V159.863ZM112.075 159.863H110.075V161.425H112.075H114.075V159.863H112.075ZM112.075 161.425V163.425H113.637V161.425V159.425H112.075V161.425ZM113.637 161.425H111.637V170.8H113.637H115.637V161.425H113.637ZM113.637 170.8V168.8H110.512V170.8V172.8H113.637V170.8ZM110.512 170.8H112.512V166.113H110.512H108.512V170.8H110.512ZM110.512 166.113V164.113H107.387V166.113V168.113H110.512V166.113ZM107.387 166.113H105.387V170.8H107.387H109.387V166.113H107.387ZM107.387 170.8V168.8H102.7V170.8V172.8H107.387V170.8ZM107.387 161.667H105.387V164.55H107.387H109.387V161.667H107.387ZM107.387 164.55V166.55H110.512V164.55V162.55H107.387V164.55ZM110.512 164.55H112.512V161.667H110.512H108.512V164.55H110.512ZM110.512 161.667V159.667H107.387V161.667V163.667H110.512V161.667ZM123.812 161.425V159.425H121.812V161.425H123.812ZM123.812 170.8V172.8H125.812V170.8H123.812ZM120.687 170.8H118.687V172.8H120.687V170.8ZM120.687 161.425H122.687V159.425H120.687V161.425ZM119.125 161.425V159.425H117.125V161.425H119.125ZM119.125 170.8V172.8H121.125V170.8H119.125ZM116 170.8H114V172.8H116V170.8ZM116 159.863V157.863H114V159.863H116ZM125.383 159.863H127.383V157.863H125.383V159.863ZM125.383 161.425H123.383V163.425H125.383V161.425ZM126.937 161.425H128.937V159.425H126.937V161.425ZM126.937 170.8V172.8H128.937V170.8H126.937ZM125.375 170.8H123.375V172.8H125.375V170.8ZM125.375 161.425H127.375V159.425H125.375V161.425ZM123.812 161.425H121.812V170.8H123.812H125.812V161.425H123.812ZM123.812 170.8V168.8H120.687V170.8V172.8H123.812V170.8ZM120.687 170.8H122.687V161.425H120.687H118.687V170.8H120.687ZM120.687 161.425V159.425H119.125V161.425V163.425H120.687V161.425ZM119.125 161.425H117.125V170.8H119.125H121.125V161.425H119.125ZM119.125 170.8V168.8H116V170.8V172.8H119.125V170.8ZM116 170.8H118V159.863H116H114V170.8H116ZM116 159.863V161.863H125.383V159.863V157.863H116V159.863ZM125.383 159.863H123.383V161.425H125.383H127.383V159.863H125.383ZM125.383 161.425V163.425H126.937V161.425V159.425H125.383V161.425ZM126.937 161.425H124.937V170.8H126.937H128.937V161.425H126.937ZM126.937 170.8V168.8H125.375V170.8V172.8H126.937V170.8ZM125.375 170.8H127.375V161.425H125.375H123.375V170.8H125.375ZM125.375 161.425V159.425H123.812V161.425V163.425H125.375V161.425ZM140.237 170.8V172.8H142.237V170.8H140.237ZM129.3 170.8H127.3V172.8H129.3V170.8ZM129.3 159.863V157.863H127.3V159.863H129.3ZM140.237 159.863H142.237V157.863H140.237V159.863ZM140.237 161.425V163.425H142.237V161.425H140.237ZM133.987 161.425V159.425H131.987V161.425H133.987ZM133.987 164.55H131.987V166.55H133.987V164.55ZM138.675 164.55H140.675V162.55H138.675V164.55ZM138.675 166.113V168.113H140.675V166.113H138.675ZM133.987 166.113V164.113H131.987V166.113H133.987ZM133.987 169.238H131.987V171.238H133.987V169.238ZM140.237 169.238H142.237V167.238H140.237V169.238ZM140.237 170.8V168.8H129.3V170.8V172.8H140.237V170.8ZM129.3 170.8H131.3V159.863H129.3H127.3V170.8H129.3ZM129.3 159.863V161.863H140.237V159.863V157.863H129.3V159.863ZM140.237 159.863H138.237V161.425H140.237H142.237V159.863H140.237ZM140.237 161.425V159.425H133.987V161.425V163.425H140.237V161.425ZM133.987 161.425H131.987V164.55H133.987H135.987V161.425H133.987ZM133.987 164.55V166.55H138.675V164.55V162.55H133.987V164.55ZM138.675 164.55H136.675V166.113H138.675H140.675V164.55H138.675ZM138.675 166.113V164.113H133.987V166.113V168.113H138.675V166.113ZM133.987 166.113H131.987V169.238H133.987H135.987V166.113H133.987ZM133.987 169.238V171.238H140.237V169.238V167.238H133.987V169.238ZM140.237 169.238H138.237V170.8H140.237H142.237V169.238H140.237ZM166.837 170.8V172.8H168.837V170.8H166.837ZM155.9 170.8H153.9V172.8H155.9V170.8ZM155.9 159.863V157.863H153.9V159.863H155.9ZM166.837 159.863H168.837V157.863H166.837V159.863ZM166.837 161.425V163.425H168.837V161.425H166.837ZM160.587 161.425V159.425H158.587V161.425H160.587ZM160.587 164.55H158.587V166.55H160.587V164.55ZM165.275 164.55H167.275V162.55H165.275V164.55ZM165.275 166.113V168.113H167.275V166.113H165.275ZM160.587 166.113V164.113H158.587V166.113H160.587ZM160.587 169.238H158.587V171.238H160.587V169.238ZM166.837 169.238H168.837V167.238H166.837V169.238ZM166.837 170.8V168.8H155.9V170.8V172.8H166.837V170.8ZM155.9 170.8H157.9V159.863H155.9H153.9V170.8H155.9ZM155.9 159.863V161.863H166.837V159.863V157.863H155.9V159.863ZM166.837 159.863H164.837V161.425H166.837H168.837V159.863H166.837ZM166.837 161.425V159.425H160.587V161.425V163.425H166.837V161.425ZM160.587 161.425H158.587V164.55H160.587H162.587V161.425H160.587ZM160.587 164.55V166.55H165.275V164.55V162.55H160.587V164.55ZM165.275 164.55H163.275V166.113H165.275H167.275V164.55H165.275ZM165.275 166.113V164.113H160.587V166.113V168.113H165.275V166.113ZM160.587 166.113H158.587V169.238H160.587H162.587V166.113H160.587ZM160.587 169.238V171.238H166.837V169.238V167.238H160.587V169.238ZM166.837 169.238H164.837V170.8H166.837H168.837V169.238H166.837ZM169.2 166.113V164.113H167.2V166.113H169.2ZM170.762 166.113V168.113H172.762V166.113H170.762ZM170.762 164.55H172.762V162.55H170.762V164.55ZM169.2 164.55H167.2V166.55H169.2V164.55ZM169.2 159.863V157.863H167.2V159.863H169.2ZM173.887 159.863H175.887V157.863H173.887V159.863ZM173.887 164.55H171.887V166.55H173.887V164.55ZM175.45 164.55V166.55H177.45V164.55H175.45ZM175.45 162.988V160.988H173.45V162.988H175.45ZM177.012 162.988V164.988H179.012V162.988H177.012ZM177.012 159.863V157.863H175.012V159.863H177.012ZM180.137 159.863H182.137V157.863H180.137V159.863ZM180.137 164.55V166.55H182.137V164.55H180.137ZM178.575 164.55V162.55H176.575V164.55H178.575ZM178.575 166.113H176.575V168.113H178.575V166.113ZM180.137 166.113H182.137V164.113H180.137V166.113ZM180.137 170.8V172.8H182.137V170.8H180.137ZM175.45 170.8H173.45V172.8H175.45V170.8ZM175.45 167.675H177.45V165.675H175.45V167.675ZM173.887 167.675V165.675H171.887V167.675H173.887ZM173.887 169.238V171.238H175.887V169.238H173.887ZM172.325 169.238V167.238H170.325V169.238H172.325ZM172.325 170.8V172.8H174.325V170.8H172.325ZM169.2 170.8H167.2V172.8H169.2V170.8ZM169.2 166.113V168.113H170.762V166.113V164.113H169.2V166.113ZM170.762 166.113H172.762V164.55H170.762H168.762V166.113H170.762ZM170.762 164.55V162.55H169.2V164.55V166.55H170.762V164.55ZM169.2 164.55H171.2V159.863H169.2H167.2V164.55H169.2ZM169.2 159.863V161.863H173.887V159.863V157.863H169.2V159.863ZM173.887 159.863H171.887V164.55H173.887H175.887V159.863H173.887ZM173.887 164.55V166.55H175.45V164.55V162.55H173.887V164.55ZM175.45 164.55H177.45V162.988H175.45H173.45V164.55H175.45ZM175.45 162.988V164.988H177.012V162.988V160.988H175.45V162.988ZM177.012 162.988H179.012V159.863H177.012H175.012V162.988H177.012ZM177.012 159.863V161.863H180.137V159.863V157.863H177.012V159.863ZM180.137 159.863H178.137V164.55H180.137H182.137V159.863H180.137ZM180.137 164.55V162.55H178.575V164.55V166.55H180.137V164.55ZM178.575 164.55H176.575V166.113H178.575H180.575V164.55H178.575ZM178.575 166.113V168.113H180.137V166.113V164.113H178.575V166.113ZM180.137 166.113H178.137V170.8H180.137H182.137V166.113H180.137ZM180.137 170.8V168.8H175.45V170.8V172.8H180.137V170.8ZM175.45 170.8H177.45V167.675H175.45H173.45V170.8H175.45ZM175.45 167.675V165.675H173.887V167.675V169.675H175.45V167.675ZM173.887 167.675H171.887V169.238H173.887H175.887V167.675H173.887ZM173.887 169.238V167.238H172.325V169.238V171.238H173.887V169.238ZM172.325 169.238H170.325V170.8H172.325H174.325V169.238H172.325ZM172.325 170.8V168.8H169.2V170.8V172.8H172.325V170.8ZM169.2 170.8H171.2V166.113H169.2H167.2V170.8H169.2ZM187.195 166.113V164.113H185.189L185.195 166.119L187.195 166.113ZM187.211 170.8V172.8H189.218L189.211 170.793L187.211 170.8ZM182.5 170.8H180.5V172.8H182.5V170.8ZM182.5 159.863V157.863H180.5V159.863H182.5ZM191.875 159.863H193.875V157.863H191.875V159.863ZM191.875 161.425H189.875V163.425H191.875V161.425ZM193.438 161.425H195.438V159.425H193.438V161.425ZM193.438 164.55V166.55H195.438V164.55H193.438ZM191.875 164.55V162.55H189.875V164.55H191.875ZM191.875 166.113V168.113H193.875V166.113H191.875ZM187.188 161.425V159.425H185.188V161.425H187.188ZM187.188 164.55H185.188V166.55H187.188V164.55ZM190.312 164.55V166.55H192.312V164.55H190.312ZM190.312 161.425H192.312V159.425H190.312V161.425ZM187.195 166.113L185.195 166.119L185.211 170.807L187.211 170.8L189.211 170.793L189.195 166.106L187.195 166.113ZM187.211 170.8V168.8H182.5V170.8V172.8H187.211V170.8ZM182.5 170.8H184.5V159.863H182.5H180.5V170.8H182.5ZM182.5 159.863V161.863H191.875V159.863V157.863H182.5V159.863ZM191.875 159.863H189.875V161.425H191.875H193.875V159.863H191.875ZM191.875 161.425V163.425H193.438V161.425V159.425H191.875V161.425ZM193.438 161.425H191.438V164.55H193.438H195.438V161.425H193.438ZM193.438 164.55V162.55H191.875V164.55V166.55H193.438V164.55ZM191.875 164.55H189.875V166.113H191.875H193.875V164.55H191.875ZM191.875 166.113V164.113H187.195V166.113V168.113H191.875V166.113ZM187.188 161.425H185.188V164.55H187.188H189.188V161.425H187.188ZM187.188 164.55V166.55H190.312V164.55V162.55H187.188V164.55ZM190.312 164.55H192.312V161.425H190.312H188.312V164.55H190.312ZM190.312 161.425V159.425H187.188V161.425V163.425H190.312V161.425ZM206.737 170.8V172.8H208.737V170.8H206.737ZM195.8 170.8H193.8V172.8H195.8V170.8ZM195.8 159.863V157.863H193.8V159.863H195.8ZM206.737 159.863H208.737V157.863H206.737V159.863ZM206.737 161.425V163.425H208.737V161.425H206.737ZM200.487 161.425V159.425H198.487V161.425H200.487ZM200.487 164.55H198.487V166.55H200.487V164.55ZM205.175 164.55H207.175V162.55H205.175V164.55ZM205.175 166.113V168.113H207.175V166.113H205.175ZM200.487 166.113V164.113H198.487V166.113H200.487ZM200.487 169.238H198.487V171.238H200.487V169.238ZM206.737 169.238H208.737V167.238H206.737V169.238ZM206.737 170.8V168.8H195.8V170.8V172.8H206.737V170.8ZM195.8 170.8H197.8V159.863H195.8H193.8V170.8H195.8ZM195.8 159.863V161.863H206.737V159.863V157.863H195.8V159.863ZM206.737 159.863H204.737V161.425H206.737H208.737V159.863H206.737ZM206.737 161.425V159.425H200.487V161.425V163.425H206.737V161.425ZM200.487 161.425H198.487V164.55H200.487H202.487V161.425H200.487ZM200.487 164.55V166.55H205.175V164.55V162.55H200.487V164.55ZM205.175 164.55H203.175V166.113H205.175H207.175V164.55H205.175ZM205.175 166.113V164.113H200.487V166.113V168.113H205.175V166.113ZM200.487 166.113H198.487V169.238H200.487H202.487V166.113H200.487ZM200.487 169.238V171.238H206.737V169.238V167.238H200.487V169.238ZM206.737 169.238H204.737V170.8H206.737H208.737V169.238H206.737ZM209.1 170.8H207.1V172.8H209.1V170.8ZM209.1 159.863V157.863H207.1V159.863H209.1ZM218.475 159.863H220.475V157.863H218.475V159.863ZM218.475 161.425H216.475V163.425H218.475V161.425ZM220.037 161.425H222.037V159.425H220.037V161.425ZM220.037 164.55V166.55H222.037V164.55H220.037ZM218.475 164.55V162.55H216.475V164.55H218.475ZM218.475 166.113H216.475V168.113H218.475V166.113ZM220.037 166.113H222.037V164.113H220.037V166.113ZM220.037 170.8V172.8H222.037V170.8H220.037ZM215.35 170.8H213.35V172.8H215.35V170.8ZM215.35 166.113H217.35V164.113H215.35V166.113ZM212.233 166.113V164.113H210.233V166.113H212.233ZM212.233 170.8V172.8H214.233V170.8H212.233ZM213.787 161.425V159.425H211.787V161.425H213.787ZM213.787 164.55H211.787V166.55H213.787V164.55ZM216.912 164.55V166.55H218.912V164.55H216.912ZM216.912 161.425H218.912V159.425H216.912V161.425ZM209.1 170.8H211.1V159.863H209.1H207.1V170.8H209.1ZM209.1 159.863V161.863H218.475V159.863V157.863H209.1V159.863ZM218.475 159.863H216.475V161.425H218.475H220.475V159.863H218.475ZM218.475 161.425V163.425H220.037V161.425V159.425H218.475V161.425ZM220.037 161.425H218.037V164.55H220.037H222.037V161.425H220.037ZM220.037 164.55V162.55H218.475V164.55V166.55H220.037V164.55ZM218.475 164.55H216.475V166.113H218.475H220.475V164.55H218.475ZM218.475 166.113V168.113H220.037V166.113V164.113H218.475V166.113ZM220.037 166.113H218.037V170.8H220.037H222.037V166.113H220.037ZM220.037 170.8V168.8H215.35V170.8V172.8H220.037V170.8ZM215.35 170.8H217.35V166.113H215.35H213.35V170.8H215.35ZM215.35 166.113V164.113H212.233V166.113V168.113H215.35V166.113ZM212.233 166.113H210.233V170.8H212.233H214.233V166.113H212.233ZM212.233 170.8V168.8H209.1V170.8V172.8H212.233V170.8ZM213.787 161.425H211.787V164.55H213.787H215.787V161.425H213.787ZM213.787 164.55V166.55H216.912V164.55V162.55H213.787V164.55ZM216.912 164.55H218.912V161.425H216.912H214.912V164.55H216.912ZM216.912 161.425V159.425H213.787V161.425V163.425H216.912V161.425ZM231.775 159.863H233.775V157.863H231.775V159.863ZM231.775 161.425V163.425H233.775V161.425H231.775ZM230.212 161.425V159.425H228.212V161.425H230.212ZM230.212 169.238H228.212V171.238H230.212V169.238ZM231.775 169.238H233.775V167.238H231.775V169.238ZM231.775 170.8V172.8H233.775V170.8H231.775ZM223.962 170.8H221.962V172.8H223.962V170.8ZM223.962 169.238V167.238H221.962V169.238H223.962ZM225.525 169.238V171.238H227.525V169.238H225.525ZM225.525 161.425H227.525V159.425H225.525V161.425ZM223.962 161.425H221.962V163.425H223.962V161.425ZM223.962 159.863V157.863H221.962V159.863H223.962ZM231.775 159.863H229.775V161.425H231.775H233.775V159.863H231.775ZM231.775 161.425V159.425H230.212V161.425V163.425H231.775V161.425ZM230.212 161.425H228.212V169.238H230.212H232.212V161.425H230.212ZM230.212 169.238V171.238H231.775V169.238V167.238H230.212V169.238ZM231.775 169.238H229.775V170.8H231.775H233.775V169.238H231.775ZM231.775 170.8V168.8H223.962V170.8V172.8H231.775V170.8ZM223.962 170.8H225.962V169.238H223.962H221.962V170.8H223.962ZM223.962 169.238V171.238H225.525V169.238V167.238H223.962V169.238ZM225.525 169.238H227.525V161.425H225.525H223.525V169.238H225.525ZM225.525 161.425V159.425H223.962V161.425V163.425H225.525V161.425ZM223.962 161.425H225.962V159.863H223.962H221.962V161.425H223.962ZM223.962 159.863V161.863H231.775V159.863V157.863H223.962V159.863ZM246.637 170.8V172.8H248.637V170.8H246.637ZM235.7 170.8H233.7V172.8H235.7V170.8ZM235.7 159.863V157.863H233.7V159.863H235.7ZM246.637 159.863H248.637V157.863H246.637V159.863ZM246.637 161.425V163.425H248.637V161.425H246.637ZM240.387 161.425V159.425H238.387V161.425H240.387ZM240.387 164.55H238.387V166.55H240.387V164.55ZM245.075 164.55H247.075V162.55H245.075V164.55ZM245.075 166.113V168.113H247.075V166.113H245.075ZM240.387 166.113V164.113H238.387V166.113H240.387ZM240.387 169.238H238.387V171.238H240.387V169.238ZM246.637 169.238H248.637V167.238H246.637V169.238ZM246.637 170.8V168.8H235.7V170.8V172.8H246.637V170.8ZM235.7 170.8H237.7V159.863H235.7H233.7V170.8H235.7ZM235.7 159.863V161.863H246.637V159.863V157.863H235.7V159.863ZM246.637 159.863H244.637V161.425H246.637H248.637V159.863H246.637ZM246.637 161.425V159.425H240.387V161.425V163.425H246.637V161.425ZM240.387 161.425H238.387V164.55H240.387H242.387V161.425H240.387ZM240.387 164.55V166.55H245.075V164.55V162.55H240.387V164.55ZM245.075 164.55H243.075V166.113H245.075H247.075V164.55H245.075ZM245.075 166.113V164.113H240.387V166.113V168.113H245.075V166.113ZM240.387 166.113H238.387V169.238H240.387H242.387V166.113H240.387ZM240.387 169.238V171.238H246.637V169.238V167.238H240.387V169.238ZM246.637 169.238H244.637V170.8H246.637H248.637V169.238H246.637ZM249 170.8H247V172.8H249V170.8ZM249 159.863V157.863H247V159.863H249ZM258.375 159.863H260.375V157.863H258.375V159.863ZM258.375 161.425H256.375V163.425H258.375V161.425ZM259.938 161.425H261.938V159.425H259.938V161.425ZM259.938 170.8V172.8H261.938V170.8H259.938ZM256.812 170.8H254.812V172.8H256.812V170.8ZM256.812 161.425H258.812V159.425H256.812V161.425ZM253.688 161.425V159.425H251.686L251.688 161.427L253.688 161.425ZM253.695 170.8V172.8H255.697L255.695 170.798L253.695 170.8ZM249 170.8H251V159.863H249H247V170.8H249ZM249 159.863V161.863H258.375V159.863V157.863H249V159.863ZM258.375 159.863H256.375V161.425H258.375H260.375V159.863H258.375ZM258.375 161.425V163.425H259.938V161.425V159.425H258.375V161.425ZM259.938 161.425H257.938V170.8H259.938H261.938V161.425H259.938ZM259.938 170.8V168.8H256.812V170.8V172.8H259.938V170.8ZM256.812 170.8H258.812V161.425H256.812H254.812V170.8H256.812ZM256.812 161.425V159.425H253.688V161.425V163.425H256.812V161.425ZM253.688 161.425L251.688 161.427L251.695 170.802L253.695 170.8L255.695 170.798L255.688 161.423L253.688 161.425ZM253.695 170.8V168.8H249V170.8V172.8H253.695V170.8ZM266.987 161.425V159.425H264.987V161.425H266.987ZM266.987 169.238H264.987V171.238H266.987V169.238ZM273.237 169.238H275.237V167.238H273.237V169.238ZM273.237 170.8V172.8H275.237V170.8H273.237ZM263.862 170.8H261.862V172.8H263.862V170.8ZM263.862 169.238H265.862V167.238H263.862V169.238ZM262.3 169.238H260.3V171.238H262.3V169.238ZM262.3 161.425V159.425H260.3V161.425H262.3ZM263.862 161.425V163.425H265.862V161.425H263.862ZM263.862 159.863V157.863H261.862V159.863H263.862ZM273.237 159.863H275.237V157.863H273.237V159.863ZM273.237 161.425V163.425H275.237V161.425H273.237ZM266.987 161.425H264.987V169.238H266.987H268.987V161.425H266.987ZM266.987 169.238V171.238H273.237V169.238V167.238H266.987V169.238ZM273.237 169.238H271.237V170.8H273.237H275.237V169.238H273.237ZM273.237 170.8V168.8H263.862V170.8V172.8H273.237V170.8ZM263.862 170.8H265.862V169.238H263.862H261.862V170.8H263.862ZM263.862 169.238V167.238H262.3V169.238V171.238H263.862V169.238ZM262.3 169.238H264.3V161.425H262.3H260.3V169.238H262.3ZM262.3 161.425V163.425H263.862V161.425V159.425H262.3V161.425ZM263.862 161.425H265.862V159.863H263.862H261.862V161.425H263.862ZM263.862 159.863V161.863H273.237V159.863V157.863H263.862V159.863ZM273.237 159.863H271.237V161.425H273.237H275.237V159.863H273.237ZM273.237 161.425V159.425H266.987V161.425V163.425H273.237V161.425ZM286.537 170.8V172.8H288.537V170.8H286.537ZM275.6 170.8H273.6V172.8H275.6V170.8ZM275.6 159.863V157.863H273.6V159.863H275.6ZM286.537 159.863H288.537V157.863H286.537V159.863ZM286.537 161.425V163.425H288.537V161.425H286.537ZM280.287 161.425V159.425H278.287V161.425H280.287ZM280.287 164.55H278.287V166.55H280.287V164.55ZM284.975 164.55H286.975V162.55H284.975V164.55ZM284.975 166.113V168.113H286.975V166.113H284.975ZM280.287 166.113V164.113H278.287V166.113H280.287ZM280.287 169.238H278.287V171.238H280.287V169.238ZM286.537 169.238H288.537V167.238H286.537V169.238ZM286.537 170.8V168.8H275.6V170.8V172.8H286.537V170.8ZM275.6 170.8H277.6V159.863H275.6H273.6V170.8H275.6ZM275.6 159.863V161.863H286.537V159.863V157.863H275.6V159.863ZM286.537 159.863H284.537V161.425H286.537H288.537V159.863H286.537ZM286.537 161.425V159.425H280.287V161.425V163.425H286.537V161.425ZM280.287 161.425H278.287V164.55H280.287H282.287V161.425H280.287ZM280.287 164.55V166.55H284.975V164.55V162.55H280.287V164.55ZM284.975 164.55H282.975V166.113H284.975H286.975V164.55H284.975ZM284.975 166.113V164.113H280.287V166.113V168.113H284.975V166.113ZM280.287 166.113H278.287V169.238H280.287H282.287V166.113H280.287ZM280.287 169.238V171.238H286.537V169.238V167.238H280.287V169.238ZM286.537 169.238H284.537V170.8H286.537H288.537V169.238H286.537Z" fill="#7E27E0" mask="url(#path-61-outside-1_32_920)"/>
</g>
<path d="M24.1143 209.04V205.848H27.2923V209.026L24.1143 209.04ZM44.952 212.218V213.8H38.582V212.218H37V204.266H38.582V212.218H44.952ZM44.952 212.218V209.04H41.76V207.444H46.534V212.218H44.952ZM38.582 204.266V202.684H44.938V204.266H46.534V205.848H44.938V204.266H38.582ZM56.0708 210.622H51.2968V209.04H56.0708V207.444H51.2968V205.848H56.0708V207.444H57.6668V213.8H51.2968V212.218H49.7148V210.622H51.2968V212.218H56.0708V210.622ZM68.7958 207.444V213.8H67.1998V207.444H62.4398V213.8H60.8438V205.848H67.1998V207.444H68.7958ZM73.5558 213.8V207.444H68.7958V205.848H73.5558V207.444H75.1378V213.8H73.5558ZM84.6861 207.444H79.9121V205.848H84.6861V207.444H86.2821V210.622H79.9121V212.218H84.6861V213.8H79.9121V212.218H78.3301V207.444H79.9121V209.04H84.6861V207.444ZM102.155 210.622V205.848H100.573V204.266H95.7988V212.218H100.573V213.8H94.2168V202.684H100.573V204.266H102.155V205.848H103.751V210.622H102.155ZM102.155 212.218H100.573V210.622H102.155V212.218ZM113.288 207.444H108.514V205.848H113.288V207.444H114.884V210.622H108.514V212.218H113.288V213.8H108.514V212.218H106.932V207.444H108.514V209.04H113.288V207.444ZM118.057 207.444V209.026H122.817V210.622H124.413V212.218H122.817V210.622H118.057V209.026H116.461V207.444H118.057ZM118.057 207.444V205.848H124.413V207.444H118.057ZM122.817 212.218V213.8H116.461V212.218H122.817ZM127.572 204.266V202.684H129.168V204.266H127.572ZM127.586 213.8V207.444H125.99V205.848H129.168V213.8H127.586ZM138.704 207.444H133.944V205.862H140.3V215.396H138.704V213.8H133.944V212.218H132.348V207.444H133.944V212.218H138.704V207.444ZM138.704 215.396V216.978H133.93V215.396H138.704ZM149.833 213.8V207.444H145.073V213.8H143.477V205.848H149.833V207.444H151.429V213.8H149.833ZM24.1143 229.04V225.848H27.2923V229.026L24.1143 229.04ZM46.534 233.8V232.218H44.938V230.622H43.356V229.04H41.76V227.444H40.178V225.848H38.596V233.8H37V222.684H38.582V224.266H40.178V225.848H41.76V227.444H43.356V229.04H44.938V230.622H46.534V222.684H48.13V233.8H46.534ZM52.8965 224.266V227.444H57.6705V229.04H52.9105V233.8H51.3145V222.684H59.2665V224.266H52.8965ZM65.6178 224.266V233.8H64.0218V224.266H59.2477V222.684H70.3778V224.266H65.6178ZM84.6861 224.266H79.9121V222.67H84.6861V224.266H86.2681V227.444H89.4601V229.026H86.2681V232.204H84.6861V229.026H79.9261V227.444H84.6861V224.266ZM84.6861 233.8H79.9261V232.218H84.6861V233.8ZM86.2821 233.8V232.204H89.4601V233.8H86.2821ZM78.3301 229.04H79.9121V232.218H78.3301V229.04ZM79.9121 224.266V227.444H78.3301V224.266H79.9121ZM79.9121 229.04V229.026H79.9261V229.04H79.9121ZM102.176 224.266V233.8H100.58V224.266H95.8063V222.684H106.936V224.266H102.176ZM114.887 232.218V227.444H110.113V225.848H114.887V227.444H116.469L116.483 232.218H114.887ZM114.887 233.8H110.113V232.218H108.531V227.444H110.113V232.218H114.887V233.8ZM124.417 233.8V232.204H121.239V230.622H119.657V233.8H118.061V222.684H119.643V229.04H121.239V230.622H124.417V232.204H126.013V233.8H124.417ZM121.239 229.04V227.444H124.417V229.04H121.239ZM124.417 227.444V225.848H126.013V227.444H124.417ZM133.946 227.444H129.172V225.848H133.946V227.444H135.542V230.622H129.172V232.218H133.946V233.8H129.172V232.218H127.59V227.444H129.172V229.04H133.946V227.444ZM143.475 233.8V227.444H138.715V233.8H137.119V225.848H143.475V227.444H145.071V233.8H143.475ZM154.604 232.218V227.444H149.83V225.848H154.604V227.444H156.186L156.2 232.218H154.604ZM154.604 233.8H149.83V232.218H148.248V227.444H149.83V232.218H154.604V233.8ZM165.729 227.444V233.8H164.133V227.444H159.373V233.8H157.777V225.848H164.133V227.444H165.729ZM170.489 233.8V227.444H165.729V225.848H170.489V227.444H172.071V233.8H170.489ZM176.846 224.266V222.684H178.442V224.266H176.846ZM176.86 233.8V227.444H175.264V225.848H178.442V233.8H176.86ZM187.977 232.218V233.8H183.203V232.218H181.621V227.444H183.203V232.218H187.977ZM183.203 227.444V225.848H187.977V227.444H189.559V229.04H187.977V227.444H183.203ZM187.977 232.218V230.622H189.573V232.218H187.977ZM192.746 227.444V229.026H197.506V230.622H199.102V232.218H197.506V230.622H192.746V229.026H191.15V227.444H192.746ZM192.746 227.444V225.848H199.102V227.444H192.746ZM197.506 232.218V233.8H191.15V232.218H197.506ZM214.975 230.622V225.848H213.393V224.266H208.619V232.218H213.393V233.8H207.037V222.684H213.393V224.266H214.975V225.848H216.571V230.622H214.975ZM214.975 232.218H213.393V230.622H214.975V232.218ZM226.108 227.444H221.334V225.848H226.108V227.444H227.704V230.622H221.334V232.218H226.108V233.8H221.334V232.218H219.752V227.444H221.334V229.04H226.108V227.444ZM230.877 227.444V229.026H235.637V230.622H237.233V232.218H235.637V230.622H230.877V229.026H229.281V227.444H230.877ZM230.877 227.444V225.848H237.233V227.444H230.877ZM235.637 232.218V233.8H229.281V232.218H235.637ZM240.393 224.266V222.684H241.989V224.266H240.393ZM240.407 233.8V227.444H238.811V225.848H241.989V233.8H240.407ZM251.524 227.444H246.764V225.862H253.12V235.396H251.524V233.8H246.764V232.218H245.168V227.444H246.764V232.218H251.524V227.444ZM251.524 235.396V236.978H246.75V235.396H251.524ZM262.653 233.8V227.444H257.893V233.8H256.297V225.848H262.653V227.444H264.249V233.8H262.653ZM24.1143 249.04V245.848H27.2923V249.026L24.1143 249.04ZM41.774 244.266V253.8H40.178V244.266H35.404V242.684H46.534V244.266H41.774ZM51.3069 247.444V249.026H49.7249V253.8H48.1289V245.848H49.7109V247.444H51.3069ZM51.3069 247.444V245.848H54.4849V247.444H51.3069ZM62.4419 247.444H57.6679V245.848H62.4419V247.444H64.0379V250.622H57.6679V252.218H62.4419V253.8H57.6679V252.218H56.0859V247.444H57.6679V249.04H62.4419V247.444ZM71.9712 253.8V247.444H67.2112V253.8H65.6152V245.848H71.9712V247.444H73.5672V253.8H71.9712ZM83.1001 247.444H78.3261V245.848H83.1001V242.684H84.6961V253.8H78.3261V252.204H76.7441V247.444H78.3261V252.204H83.1001V247.444ZM89.455 244.266V242.684H91.051V244.266H89.455ZM89.469 253.8V247.444H87.873V245.848H91.051V253.8H89.469ZM100.586 253.8V247.444H95.8265V253.8H94.2305V245.848H100.586V247.444H102.182V253.8H100.586ZM111.715 247.444H106.955V245.862H113.311V255.396H111.715V253.8H106.955V252.218H105.359V247.444H106.955V252.218H111.715V247.444ZM111.715 255.396V256.978H106.941V255.396H111.715ZM135.544 252.218V253.8H133.962V252.218H132.366V247.458H130.784V242.684H132.366V247.458H133.962V252.218H135.544ZM129.188 252.218V253.8H127.606V252.218H126.024V249.04H124.428V245.848H122.846V242.684H124.428V245.848H126.024V249.04H127.606V252.218H129.188ZM130.784 247.458V252.218H129.188V247.458H130.784ZM138.736 245.848V249.04H137.14V245.848H138.736ZM135.544 252.218V249.04H137.14V252.218H135.544ZM138.736 245.848V242.684H140.318V245.848H138.736ZM148.274 247.444H143.5V245.848H148.274V247.444H149.87V250.622H143.5V252.218H148.274V253.8H143.5V252.218H141.918V247.444H143.5V249.04H148.274V247.444ZM157.803 253.8H151.447V242.684H153.029V245.848H157.803V247.444H159.399V252.204H157.803V247.444H153.029V252.204H157.803V253.8ZM167.333 247.444V244.266H162.573V245.862H160.977V244.266H162.559V242.67H167.333V244.266H168.929V247.444H167.333ZM167.333 252.204V249.04H164.155V247.444H167.333V249.026H168.929V252.204H167.333ZM167.333 252.218V253.8H162.573V252.218H167.333ZM162.559 252.218H160.977V250.622H162.559V252.218ZM186.415 252.218V253.8H180.045V252.218H178.463V244.266H180.045V252.218H186.415ZM186.415 252.218V249.04H183.223V247.444H187.997V252.218H186.415ZM180.045 244.266V242.684H186.401V244.266H187.997V245.848H186.401V244.266H180.045ZM197.534 250.622H192.76V249.04H197.534V247.444H192.76V245.848H197.534V247.444H199.13V253.8H192.76V252.218H191.178V250.622H192.76V252.218H197.534V250.622ZM210.259 247.444V253.8H208.663V247.444H203.903V253.8H202.307V245.848H208.663V247.444H210.259ZM215.019 253.8V247.444H210.259V245.848H215.019V247.444H216.601V253.8H215.019ZM226.149 247.444H221.375V245.848H226.149V247.444H227.745V250.622H221.375V252.218H226.149V253.8H221.375V252.218H219.793V247.444H221.375V249.04H226.149V247.444ZM230.918 247.444V249.026H235.678V250.622H237.274V252.218H235.678V250.622H230.918V249.026H229.322V247.444H230.918ZM230.918 247.444V245.848H237.274V247.444H230.918ZM235.678 252.218V253.8H229.322V252.218H235.678ZM24.1143 269.04V265.848H27.2923V269.026L24.1143 269.04ZM44.938 269.04V270.622H43.356V269.04H41.76V267.444H40.178V265.848H38.596V273.8H37V262.684H38.582V264.266H40.178V265.848H41.76V267.444H43.356V269.04H44.938ZM49.712 273.8V265.848H48.116V264.266H49.712V262.684H51.308V273.8H49.712ZM46.534 267.444V269.04H44.938V267.444H46.534ZM48.116 265.848V267.444H46.534V265.848H48.116ZM60.8423 270.622H56.0683V269.04H60.8423V267.444H56.0683V265.848H60.8423V267.444H62.4383V273.8H56.0683V272.218H54.4863V270.622H56.0683V272.218H60.8423V270.622ZM71.9712 273.8V272.204H68.7932V270.622H67.2112V273.8H65.6152V262.684H67.1972V269.04H68.7932V270.622H71.9712V272.204H73.5672V273.8H71.9712ZM68.7932 269.04V267.444H71.9712V269.04H68.7932ZM71.9712 267.444V265.848H73.5672V267.444H71.9712ZM81.5005 267.444H76.7265V265.848H81.5005V267.444H83.0965V270.622H76.7265V272.218H81.5005V273.8H76.7265V272.218H75.1445V267.444H76.7265V269.04H81.5005V267.444ZM97.3873 267.444V273.8H95.7913V267.444H94.2093V265.848H92.6133V264.266H91.0312V262.684H92.6133V264.266H94.2093V265.848H95.7913V267.444H97.3873ZM100.565 264.266V265.848H98.9693V264.266H100.565ZM98.9693 265.848V267.444H97.3873V265.848H98.9693ZM100.565 264.266V262.684H102.161V264.266H100.565ZM110.102 272.218V267.444H105.328V265.848H110.102V267.444H111.684L111.698 272.218H110.102ZM110.102 273.8H105.328V272.218H103.746V267.444H105.328V272.218H110.102V273.8ZM114.857 273.8V272.204H113.275V265.848H114.857V272.204H119.631V265.848H121.227V273.8H114.857ZM127.582 267.444V269.026H126V273.8H124.404V265.848H125.986V267.444H127.582ZM127.582 267.444V265.848H130.76V267.444H127.582ZM146.671 272.218V273.8H140.301V272.218H138.719V264.266H140.301V272.218H146.671ZM146.671 272.218V269.04H143.479V267.444H148.253V272.218H146.671ZM140.301 264.266V262.684H146.657V264.266H148.253V265.848H146.657V264.266H140.301ZM157.79 270.622H153.016V269.04H157.79V267.444H153.016V265.848H157.79V267.444H159.386V273.8H153.016V272.218H151.434V270.622H153.016V272.218H157.79V270.622ZM170.515 267.444V273.8H168.919V267.444H164.159V273.8H162.562V265.848H168.919V267.444H170.515ZM175.275 273.8V267.444H170.515V265.848H175.275V267.444H176.857V273.8H175.275ZM186.405 267.444H181.631V265.848H186.405V267.444H188.001V270.622H181.631V272.218H186.405V273.8H181.631V272.218H180.049V267.444H181.631V269.04H186.405V267.444ZM203.888 272.218V269.026H197.518V267.444H195.936V264.266H197.518V267.444H203.888V269.026H205.47V272.218H203.888ZM203.888 272.218V273.8H197.518V272.218H195.936V270.622H197.518V272.218H203.888ZM197.518 264.266V262.684H203.888V264.266H205.47V265.848H203.888V264.266H197.518ZM211.828 273.8V272.218H210.246V267.444H208.65V265.848H210.232V262.684H211.828V265.848H215.006V267.444H211.828V272.218H215.006V273.8H211.828ZM218.189 264.266V262.684H219.785V264.266H218.189ZM218.203 273.8V267.444H216.607V265.848H219.785V273.8H218.203ZM229.321 272.218V273.8H224.547V272.218H222.965V267.444H224.547V272.218H229.321ZM224.547 267.444V265.848H229.321V267.444H230.903V269.04H229.321V267.444H224.547ZM229.321 272.218V270.622H230.917V272.218H229.321ZM238.85 273.8V272.204H235.672V270.622H234.09V273.8H232.494V262.684H234.076V269.04H235.672V270.622H238.85V272.204H240.446V273.8H238.85ZM235.672 269.04V267.444H238.85V269.04H235.672ZM238.85 267.444V265.848H240.446V267.444H238.85ZM254.737 270.622H249.963V269.04H254.737V267.444H249.963V265.848H254.737V267.444H256.333V273.8H249.963V272.218H248.381V270.622H249.963V272.218H254.737V270.622ZM265.866 273.8V267.444H261.106V273.8H259.51V265.848H265.866V267.444H267.462V273.8H265.866ZM276.995 267.444H272.221V265.848H276.995V262.684H278.591V273.8H272.221V272.204H270.639V267.444H272.221V272.204H276.995V267.444ZM38.582 284.266V287.444H43.356V289.04H38.596V293.8H37V282.684H44.952V284.266H38.582ZM48.1113 293.8V292.204H46.5293V285.848H48.1113V292.204H52.8853V285.848H54.4813V293.8H48.1113ZM64.0142 293.8V287.444H59.2542V293.8H57.6582V285.848H64.0142V287.444H65.6102V293.8H64.0142Z" fill="white"/>
</g>
<defs>
<filter id="filter0_d_32_920" x="0" y="0" width="311" height="374" filterUnits="userSpaceOnUse" color-interpolation-filters="sRGB">
<feFlood flood-opacity="0" result="BackgroundImageFix"/>
<feColorMatrix in="SourceAlpha" type="matrix" values="0 0 0 0 0 0 0 0 0 0 0 0 0 0 0 0 0 0 127 0" result="hardAlpha"/>
<feOffset dy="2"/>
<feComposite in2="hardAlpha" operator="out"/>
<feColorMatrix type="matrix" values="0 0 0 0 0.0901961 0 0 0 0 0.72549 0 0 0 0 0.0313726 0 0 0 1 0"/>
<feBlend mode="normal" in2="BackgroundImageFix" result="effect1_dropShadow_32_920"/>
<feBlend mode="normal" in="SourceGraphic" in2="effect1_dropShadow_32_920" result="shape"/>
</filter>
<filter id="filter1_d_32_920" x="13.85" y="137.863" width="280.938" height="36.9375" filterUnits="userSpaceOnUse" color-interpolation-filters="sRGB">
<feFlood flood-opacity="0" result="BackgroundImageFix"/>
<feColorMatrix in="SourceAlpha" type="matrix" values="0 0 0 0 0 0 0 0 0 0 0 0 0 0 0 0 0 0 127 0" result="hardAlpha"/>
<feOffset dy="2"/>
<feComposite in2="hardAlpha" operator="out"/>
<feColorMatrix type="matrix" values="0 0 0 0 1 0 0 0 0 0.882228 0 0 0 0 0.298077 0 0 0 1 0"/>
<feBlend mode="normal" in2="BackgroundImageFix" result="effect1_dropShadow_32_920"/>
<feBlend mode="normal" in="SourceGraphic" in2="effect1_dropShadow_32_920" result="shape"/>
</filter>
<clipPath id="clip0_32_920">
<rect width="63" height="79.8" fill="white" transform="translate(124 32)"/>
</clipPath>
</defs>
</svg>
