<svg width="311" height="359" viewBox="0 0 311 359" fill="none" xmlns="http://www.w3.org/2000/svg">
<g filter="url(#filter0_d_32_983)">
<rect width="311" height="357" fill="#509E00" shape-rendering="crispEdges"/>
<rect x="1" y="1" width="309" height="355" stroke="#4C28B8" stroke-width="2" shape-rendering="crispEdges"/>
<g clip-path="url(#clip0_32_983)">
<path d="M153.4 61.4001H145V65.6001H153.4V61.4001Z" fill="#662014"/>
<path d="M166 61.4001H153.4V65.6001H166V61.4001Z" fill="#991900"/>
<path d="M145 65.6001H132.4V69.8001H145V65.6001Z" fill="#991900"/>
<path d="M178.6 65.6001H166V69.8001H178.6V65.6001Z" fill="#991900"/>
<path d="M161.8 120.2H149.2V124.4H161.8V120.2Z" fill="#991900"/>
<path d="M149.2 116H128.2V120.2H149.2V116Z" fill="#991900"/>
<path d="M182.8 116H161.8V120.2H182.8V116Z" fill="#662014"/>
<path d="M132.4 69.8H128.2V103.4H132.4V69.8Z" fill="#FFE617"/>
<path d="M182.8 69.8H178.6V103.4H182.8V69.8Z" fill="#662014"/>
<path d="M128.2 103.4H124V116H128.2V103.4Z" fill="#FFE617"/>
<path d="M182.8 103.4V116H161.8V120.2H149.2V116H128.2V103.4H132.4V69.8001H145V65.6001H166V69.8001H178.6V103.4H182.8Z" fill="#F8FFAF"/>
<path d="M178.6 86.6001H174.4V90.8001H170.2V95.0001H166V99.2001H161.8V103.4H157.6V107.6H161.8V116H182.8V103.4H178.6V86.6001Z" fill="#AF7923"/>
<path d="M187 103.4H182.8V116H187V103.4Z" fill="#662014"/>
<path d="M136.6 69.8H132.4V103.4H136.6V69.8Z" fill="white"/>
<path d="M149.2 65.6001H145V69.8001H149.2V65.6001Z" fill="white"/>
<path d="M132.4 103.4H128.2V116H132.4V103.4Z" fill="white"/>
<path d="M161.8 116H149.2V120.2H161.8V116Z" fill="#662014"/>
<path d="M182.8 111.8H161.8V116H182.8V111.8Z" fill="#991900"/>
<path d="M182.8 103.4H178.6V111.8H182.8V103.4Z" fill="#991900"/>
<path d="M166 86.6001H161.8V90.8001H166V86.6001Z" fill="#AF7923"/>
<path d="M174.4 86.6001H170.2V90.8001H174.4V86.6001Z" fill="#662014"/>
<path d="M170.2 82.4001H166V86.6001H170.2V82.4001Z" fill="#AF7923"/>
<path d="M170.2 86.6001H166V90.8001H170.2V86.6001Z" fill="white"/>
<path d="M170.2 90.8H166V95H170.2V90.8Z" fill="#662014"/>
<path d="M140.8 86.6001H136.6V90.8001H140.8V86.6001Z" fill="#AF7923"/>
<path d="M149.2 86.6001H145V90.8001H149.2V86.6001Z" fill="#662014"/>
<path d="M145 82.4001H140.8V86.6001H145V82.4001Z" fill="#AF7923"/>
<path d="M145 86.6001H140.8V90.8001H145V86.6001Z" fill="white"/>
<path d="M145 90.8H140.8V95H145V90.8Z" fill="#662014"/>
<path d="M157.6 107.6V103.4H153.4V107.6H149.2V116H153.4V111.8H157.6V116H161.8V107.6H157.6Z" fill="#C60000"/>
<path d="M166 95H145V99.2H166V95Z" fill="#FF6417"/>
<path d="M161.8 99.2H149.2V103.4H161.8V99.2Z" fill="#662014"/>
<path d="M157.6 90.8H153.4V95H157.6V90.8Z" fill="#FF6417"/>
<path d="M157.6 48.8V65.6H140.8V57.2H145V53H149.2V48.8H157.6Z" fill="#C60000"/>
<path d="M140.8 57.2002H136.6V65.6002H140.8V57.2002Z" fill="#FF6417"/>
<path d="M145 53H140.8V57.2H145V53Z" fill="#FF6417"/>
<path d="M149.2 53H145V57.2H149.2V53Z" fill="#991900"/>
<path d="M157.6 48.8H149.2V53H157.6V48.8Z" fill="#F8FFAF"/>
<path d="M145 57.2002H140.8V65.6002H145V57.2002Z" fill="#F8FFAF"/>
<path d="M149.2 48.8H145V53H149.2V48.8Z" fill="#FF6417"/>
<path d="M153.4 57.2002H149.2V61.4002H153.4V57.2002Z" fill="#991900"/>
<path d="M157.6 44.6001H149.2V48.8001H157.6V44.6001Z" fill="#C60000"/>
<path d="M161.8 48.8H157.6V65.6H161.8V48.8Z" fill="#991900"/>
<path d="M157.6 65.6001H140.8V69.8001H157.6V65.6001Z" fill="#991900"/>
</g>
<g filter="url(#filter1_d_32_983)">
<mask id="path-47-outside-1_32_983" maskUnits="userSpaceOnUse" x="20" y="150.4" width="269" height="15" fill="black">
<rect fill="white" x="20" y="150.4" width="269" height="15"/>
<path d="M33.8375 157.15V161.838H32.275V163.4H24.4625V161.838H22.9V154.025H24.4625V152.463H32.2828V154.025H33.8375V155.588H32.275V154.025H27.5875V161.838H30.7125V158.713H29.15L29.1578 157.15H33.8375ZM47.1375 152.463V154.025H44.0125V163.4H39.325V154.025H36.2V152.463H47.1375ZM57.3125 154.025V163.4H54.1875V154.025H52.625V163.4H49.5V152.463H58.8828V154.025H60.4375V163.4H58.875V154.025H57.3125ZM76.1 163.4V154.025H77.6625V152.463H85.475V154.025H87.0375V163.4H83.9125V158.713H80.7875V163.4H76.1ZM80.7875 154.267V157.15H83.9125V154.267H80.7875ZM89.4 163.4V152.463H98.775V154.025H100.337V163.4H97.2125V154.025H94.0875L94.0953 163.4H89.4ZM102.7 163.4V152.463H112.075V154.025H113.637V161.838H112.075V163.4H102.7ZM107.395 161.838H110.512V154.025H107.387L107.395 161.838ZM129.3 163.4V152.463H138.675V154.025H140.237V161.838H138.675V163.4H129.3ZM133.995 161.838H137.112V154.025H133.987L133.995 161.838ZM151.975 152.463V154.025H150.412V161.838H151.975V163.4H144.162V161.838H145.725V154.025H144.162V152.463H151.975ZM155.9 160.275H159.025V161.838H163.712V158.713H157.462V157.15H155.9V154.025H157.462V152.463H165.275V154.025H166.837V155.588H163.712V154.025H160.587V157.15H165.275V158.713H166.837V161.838H165.275V163.4H157.462V161.838H155.9V160.275ZM180.137 152.463V154.025H177.012V163.4H172.325V154.025H169.2V152.463H180.137ZM182.5 163.4V152.463H191.875V154.025H193.438V157.15H191.875V158.713H193.438V163.4H188.75V158.713H185.633V163.4H182.5ZM187.188 154.025V157.15H190.312V154.025H187.188ZM205.175 152.463V154.025H203.612V161.838H205.175V163.4H197.362V161.838H198.925V154.025H197.362V152.463H205.175ZM209.1 163.4V152.463H218.475V154.025H220.037V157.15H218.475V158.713H220.037V161.838H218.475V163.4H209.1ZM213.795 158.713V161.838H216.912V158.713H213.795ZM213.787 154.025V157.15H216.912V154.025H213.787ZM227.087 152.463V161.838H230.212V152.463H233.337V161.838H231.775V163.4H223.962V161.838H222.4V152.463H227.087ZM246.637 152.463V154.025H243.512V163.4H238.825V154.025H235.7V152.463H246.637ZM258.375 152.463V154.025H256.812V161.838H258.375V163.4H250.562V161.838H252.125V154.025H250.562V152.463H258.375ZM271.675 163.4H263.862V161.838H262.3V154.025H263.862V152.463H271.675V154.025H273.237V161.838H271.675V163.4ZM270.112 161.838V154.025H266.987V161.838H270.112ZM275.6 163.4V152.463H284.975V154.025H286.537V163.4H283.412V154.025H280.287L280.295 163.4H275.6Z"/>
</mask>
<path d="M33.8375 157.15V161.838H32.275V163.4H24.4625V161.838H22.9V154.025H24.4625V152.463H32.2828V154.025H33.8375V155.588H32.275V154.025H27.5875V161.838H30.7125V158.713H29.15L29.1578 157.15H33.8375ZM47.1375 152.463V154.025H44.0125V163.4H39.325V154.025H36.2V152.463H47.1375ZM57.3125 154.025V163.4H54.1875V154.025H52.625V163.4H49.5V152.463H58.8828V154.025H60.4375V163.4H58.875V154.025H57.3125ZM76.1 163.4V154.025H77.6625V152.463H85.475V154.025H87.0375V163.4H83.9125V158.713H80.7875V163.4H76.1ZM80.7875 154.267V157.15H83.9125V154.267H80.7875ZM89.4 163.4V152.463H98.775V154.025H100.337V163.4H97.2125V154.025H94.0875L94.0953 163.4H89.4ZM102.7 163.4V152.463H112.075V154.025H113.637V161.838H112.075V163.4H102.7ZM107.395 161.838H110.512V154.025H107.387L107.395 161.838ZM129.3 163.4V152.463H138.675V154.025H140.237V161.838H138.675V163.4H129.3ZM133.995 161.838H137.112V154.025H133.987L133.995 161.838ZM151.975 152.463V154.025H150.412V161.838H151.975V163.4H144.162V161.838H145.725V154.025H144.162V152.463H151.975ZM155.9 160.275H159.025V161.838H163.712V158.713H157.462V157.15H155.9V154.025H157.462V152.463H165.275V154.025H166.837V155.588H163.712V154.025H160.587V157.15H165.275V158.713H166.837V161.838H165.275V163.4H157.462V161.838H155.9V160.275ZM180.137 152.463V154.025H177.012V163.4H172.325V154.025H169.2V152.463H180.137ZM182.5 163.4V152.463H191.875V154.025H193.438V157.15H191.875V158.713H193.438V163.4H188.75V158.713H185.633V163.4H182.5ZM187.188 154.025V157.15H190.312V154.025H187.188ZM205.175 152.463V154.025H203.612V161.838H205.175V163.4H197.362V161.838H198.925V154.025H197.362V152.463H205.175ZM209.1 163.4V152.463H218.475V154.025H220.037V157.15H218.475V158.713H220.037V161.838H218.475V163.4H209.1ZM213.795 158.713V161.838H216.912V158.713H213.795ZM213.787 154.025V157.15H216.912V154.025H213.787ZM227.087 152.463V161.838H230.212V152.463H233.337V161.838H231.775V163.4H223.962V161.838H222.4V152.463H227.087ZM246.637 152.463V154.025H243.512V163.4H238.825V154.025H235.7V152.463H246.637ZM258.375 152.463V154.025H256.812V161.838H258.375V163.4H250.562V161.838H252.125V154.025H250.562V152.463H258.375ZM271.675 163.4H263.862V161.838H262.3V154.025H263.862V152.463H271.675V154.025H273.237V161.838H271.675V163.4ZM270.112 161.838V154.025H266.987V161.838H270.112ZM275.6 163.4V152.463H284.975V154.025H286.537V163.4H283.412V154.025H280.287L280.295 163.4H275.6Z" fill="white"/>
<path d="M33.8375 157.15H35.8375V155.15H33.8375V157.15ZM33.8375 161.838V163.838H35.8375V161.838H33.8375ZM32.275 161.838V159.838H30.275V161.838H32.275ZM32.275 163.4V165.4H34.275V163.4H32.275ZM24.4625 163.4H22.4625V165.4H24.4625V163.4ZM24.4625 161.838H26.4625V159.838H24.4625V161.838ZM22.9 161.838H20.9V163.838H22.9V161.838ZM22.9 154.025V152.025H20.9V154.025H22.9ZM24.4625 154.025V156.025H26.4625V154.025H24.4625ZM24.4625 152.463V150.463H22.4625V152.463H24.4625ZM32.2828 152.463H34.2828V150.463H32.2828V152.463ZM32.2828 154.025H30.2828V156.025H32.2828V154.025ZM33.8375 154.025H35.8375V152.025H33.8375V154.025ZM33.8375 155.588V157.588H35.8375V155.588H33.8375ZM32.275 155.588H30.275V157.588H32.275V155.588ZM32.275 154.025H34.275V152.025H32.275V154.025ZM27.5875 154.025V152.025H25.5875V154.025H27.5875ZM27.5875 161.838H25.5875V163.838H27.5875V161.838ZM30.7125 161.838V163.838H32.7125V161.838H30.7125ZM30.7125 158.713H32.7125V156.713H30.7125V158.713ZM29.15 158.713L27.15 158.703L27.14 160.713H29.15V158.713ZM29.1578 157.15V155.15H27.1678L27.1578 157.14L29.1578 157.15ZM33.8375 157.15H31.8375V161.838H33.8375H35.8375V157.15H33.8375ZM33.8375 161.838V159.838H32.275V161.838V163.838H33.8375V161.838ZM32.275 161.838H30.275V163.4H32.275H34.275V161.838H32.275ZM32.275 163.4V161.4H24.4625V163.4V165.4H32.275V163.4ZM24.4625 163.4H26.4625V161.838H24.4625H22.4625V163.4H24.4625ZM24.4625 161.838V159.838H22.9V161.838V163.838H24.4625V161.838ZM22.9 161.838H24.9V154.025H22.9H20.9V161.838H22.9ZM22.9 154.025V156.025H24.4625V154.025V152.025H22.9V154.025ZM24.4625 154.025H26.4625V152.463H24.4625H22.4625V154.025H24.4625ZM24.4625 152.463V154.463H32.2828V152.463V150.463H24.4625V152.463ZM32.2828 152.463H30.2828V154.025H32.2828H34.2828V152.463H32.2828ZM32.2828 154.025V156.025H33.8375V154.025V152.025H32.2828V154.025ZM33.8375 154.025H31.8375V155.588H33.8375H35.8375V154.025H33.8375ZM33.8375 155.588V153.588H32.275V155.588V157.588H33.8375V155.588ZM32.275 155.588H34.275V154.025H32.275H30.275V155.588H32.275ZM32.275 154.025V152.025H27.5875V154.025V156.025H32.275V154.025ZM27.5875 154.025H25.5875V161.838H27.5875H29.5875V154.025H27.5875ZM27.5875 161.838V163.838H30.7125V161.838V159.838H27.5875V161.838ZM30.7125 161.838H32.7125V158.713H30.7125H28.7125V161.838H30.7125ZM30.7125 158.713V156.713H29.15V158.713V160.713H30.7125V158.713ZM29.15 158.713L31.15 158.723L31.1578 157.16L29.1578 157.15L27.1578 157.14L27.15 158.703L29.15 158.713ZM29.1578 157.15V159.15H33.8375V157.15V155.15H29.1578V157.15ZM47.1375 152.463H49.1375V150.463H47.1375V152.463ZM47.1375 154.025V156.025H49.1375V154.025H47.1375ZM44.0125 154.025V152.025H42.0125V154.025H44.0125ZM44.0125 163.4V165.4H46.0125V163.4H44.0125ZM39.325 163.4H37.325V165.4H39.325V163.4ZM39.325 154.025H41.325V152.025H39.325V154.025ZM36.2 154.025H34.2V156.025H36.2V154.025ZM36.2 152.463V150.463H34.2V152.463H36.2ZM47.1375 152.463H45.1375V154.025H47.1375H49.1375V152.463H47.1375ZM47.1375 154.025V152.025H44.0125V154.025V156.025H47.1375V154.025ZM44.0125 154.025H42.0125V163.4H44.0125H46.0125V154.025H44.0125ZM44.0125 163.4V161.4H39.325V163.4V165.4H44.0125V163.4ZM39.325 163.4H41.325V154.025H39.325H37.325V163.4H39.325ZM39.325 154.025V152.025H36.2V154.025V156.025H39.325V154.025ZM36.2 154.025H38.2V152.463H36.2H34.2V154.025H36.2ZM36.2 152.463V154.463H47.1375V152.463V150.463H36.2V152.463ZM57.3125 154.025V152.025H55.3125V154.025H57.3125ZM57.3125 163.4V165.4H59.3125V163.4H57.3125ZM54.1875 163.4H52.1875V165.4H54.1875V163.4ZM54.1875 154.025H56.1875V152.025H54.1875V154.025ZM52.625 154.025V152.025H50.625V154.025H52.625ZM52.625 163.4V165.4H54.625V163.4H52.625ZM49.5 163.4H47.5V165.4H49.5V163.4ZM49.5 152.463V150.463H47.5V152.463H49.5ZM58.8828 152.463H60.8828V150.463H58.8828V152.463ZM58.8828 154.025H56.8828V156.025H58.8828V154.025ZM60.4375 154.025H62.4375V152.025H60.4375V154.025ZM60.4375 163.4V165.4H62.4375V163.4H60.4375ZM58.875 163.4H56.875V165.4H58.875V163.4ZM58.875 154.025H60.875V152.025H58.875V154.025ZM57.3125 154.025H55.3125V163.4H57.3125H59.3125V154.025H57.3125ZM57.3125 163.4V161.4H54.1875V163.4V165.4H57.3125V163.4ZM54.1875 163.4H56.1875V154.025H54.1875H52.1875V163.4H54.1875ZM54.1875 154.025V152.025H52.625V154.025V156.025H54.1875V154.025ZM52.625 154.025H50.625V163.4H52.625H54.625V154.025H52.625ZM52.625 163.4V161.4H49.5V163.4V165.4H52.625V163.4ZM49.5 163.4H51.5V152.463H49.5H47.5V163.4H49.5ZM49.5 152.463V154.463H58.8828V152.463V150.463H49.5V152.463ZM58.8828 152.463H56.8828V154.025H58.8828H60.8828V152.463H58.8828ZM58.8828 154.025V156.025H60.4375V154.025V152.025H58.8828V154.025ZM60.4375 154.025H58.4375V163.4H60.4375H62.4375V154.025H60.4375ZM60.4375 163.4V161.4H58.875V163.4V165.4H60.4375V163.4ZM58.875 163.4H60.875V154.025H58.875H56.875V163.4H58.875ZM58.875 154.025V152.025H57.3125V154.025V156.025H58.875V154.025ZM76.1 163.4H74.1V165.4H76.1V163.4ZM76.1 154.025V152.025H74.1V154.025H76.1ZM77.6625 154.025V156.025H79.6625V154.025H77.6625ZM77.6625 152.463V150.463H75.6625V152.463H77.6625ZM85.475 152.463H87.475V150.463H85.475V152.463ZM85.475 154.025H83.475V156.025H85.475V154.025ZM87.0375 154.025H89.0375V152.025H87.0375V154.025ZM87.0375 163.4V165.4H89.0375V163.4H87.0375ZM83.9125 163.4H81.9125V165.4H83.9125V163.4ZM83.9125 158.713H85.9125V156.713H83.9125V158.713ZM80.7875 158.713V156.713H78.7875V158.713H80.7875ZM80.7875 163.4V165.4H82.7875V163.4H80.7875ZM80.7875 154.267V152.267H78.7875V154.267H80.7875ZM80.7875 157.15H78.7875V159.15H80.7875V157.15ZM83.9125 157.15V159.15H85.9125V157.15H83.9125ZM83.9125 154.267H85.9125V152.267H83.9125V154.267ZM76.1 163.4H78.1V154.025H76.1H74.1V163.4H76.1ZM76.1 154.025V156.025H77.6625V154.025V152.025H76.1V154.025ZM77.6625 154.025H79.6625V152.463H77.6625H75.6625V154.025H77.6625ZM77.6625 152.463V154.463H85.475V152.463V150.463H77.6625V152.463ZM85.475 152.463H83.475V154.025H85.475H87.475V152.463H85.475ZM85.475 154.025V156.025H87.0375V154.025V152.025H85.475V154.025ZM87.0375 154.025H85.0375V163.4H87.0375H89.0375V154.025H87.0375ZM87.0375 163.4V161.4H83.9125V163.4V165.4H87.0375V163.4ZM83.9125 163.4H85.9125V158.713H83.9125H81.9125V163.4H83.9125ZM83.9125 158.713V156.713H80.7875V158.713V160.713H83.9125V158.713ZM80.7875 158.713H78.7875V163.4H80.7875H82.7875V158.713H80.7875ZM80.7875 163.4V161.4H76.1V163.4V165.4H80.7875V163.4ZM80.7875 154.267H78.7875V157.15H80.7875H82.7875V154.267H80.7875ZM80.7875 157.15V159.15H83.9125V157.15V155.15H80.7875V157.15ZM83.9125 157.15H85.9125V154.267H83.9125H81.9125V157.15H83.9125ZM83.9125 154.267V152.267H80.7875V154.267V156.267H83.9125V154.267ZM89.4 163.4H87.4V165.4H89.4V163.4ZM89.4 152.463V150.463H87.4V152.463H89.4ZM98.775 152.463H100.775V150.463H98.775V152.463ZM98.775 154.025H96.775V156.025H98.775V154.025ZM100.337 154.025H102.337V152.025H100.337V154.025ZM100.337 163.4V165.4H102.337V163.4H100.337ZM97.2125 163.4H95.2125V165.4H97.2125V163.4ZM97.2125 154.025H99.2125V152.025H97.2125V154.025ZM94.0875 154.025V152.025H92.0858L92.0875 154.027L94.0875 154.025ZM94.0953 163.4V165.4H96.097L96.0953 163.398L94.0953 163.4ZM89.4 163.4H91.4V152.463H89.4H87.4V163.4H89.4ZM89.4 152.463V154.463H98.775V152.463V150.463H89.4V152.463ZM98.775 152.463H96.775V154.025H98.775H100.775V152.463H98.775ZM98.775 154.025V156.025H100.337V154.025V152.025H98.775V154.025ZM100.337 154.025H98.3375V163.4H100.337H102.337V154.025H100.337ZM100.337 163.4V161.4H97.2125V163.4V165.4H100.337V163.4ZM97.2125 163.4H99.2125V154.025H97.2125H95.2125V163.4H97.2125ZM97.2125 154.025V152.025H94.0875V154.025V156.025H97.2125V154.025ZM94.0875 154.025L92.0875 154.027L92.0953 163.402L94.0953 163.4L96.0953 163.398L96.0875 154.023L94.0875 154.025ZM94.0953 163.4V161.4H89.4V163.4V165.4H94.0953V163.4ZM102.7 163.4H100.7V165.4H102.7V163.4ZM102.7 152.463V150.463H100.7V152.463H102.7ZM112.075 152.463H114.075V150.463H112.075V152.463ZM112.075 154.025H110.075V156.025H112.075V154.025ZM113.637 154.025H115.637V152.025H113.637V154.025ZM113.637 161.838V163.838H115.637V161.838H113.637ZM112.075 161.838V159.838H110.075V161.838H112.075ZM112.075 163.4V165.4H114.075V163.4H112.075ZM107.395 161.838L105.395 161.84L105.397 163.838H107.395V161.838ZM110.512 161.838V163.838H112.512V161.838H110.512ZM110.512 154.025H112.512V152.025H110.512V154.025ZM107.387 154.025V152.025H105.385L105.387 154.027L107.387 154.025ZM102.7 163.4H104.7V152.463H102.7H100.7V163.4H102.7ZM102.7 152.463V154.463H112.075V152.463V150.463H102.7V152.463ZM112.075 152.463H110.075V154.025H112.075H114.075V152.463H112.075ZM112.075 154.025V156.025H113.637V154.025V152.025H112.075V154.025ZM113.637 154.025H111.637V161.838H113.637H115.637V154.025H113.637ZM113.637 161.838V159.838H112.075V161.838V163.838H113.637V161.838ZM112.075 161.838H110.075V163.4H112.075H114.075V161.838H112.075ZM112.075 163.4V161.4H102.7V163.4V165.4H112.075V163.4ZM107.395 161.838V163.838H110.512V161.838V159.838H107.395V161.838ZM110.512 161.838H112.512V154.025H110.512H108.512V161.838H110.512ZM110.512 154.025V152.025H107.387V154.025V156.025H110.512V154.025ZM107.387 154.025L105.387 154.027L105.395 161.84L107.395 161.838L109.395 161.836L109.387 154.023L107.387 154.025ZM129.3 163.4H127.3V165.4H129.3V163.4ZM129.3 152.463V150.463H127.3V152.463H129.3ZM138.675 152.463H140.675V150.463H138.675V152.463ZM138.675 154.025H136.675V156.025H138.675V154.025ZM140.237 154.025H142.237V152.025H140.237V154.025ZM140.237 161.838V163.838H142.237V161.838H140.237ZM138.675 161.838V159.838H136.675V161.838H138.675ZM138.675 163.4V165.4H140.675V163.4H138.675ZM133.995 161.838L131.995 161.84L131.997 163.838H133.995V161.838ZM137.112 161.838V163.838H139.112V161.838H137.112ZM137.112 154.025H139.112V152.025H137.112V154.025ZM133.987 154.025V152.025H131.985L131.987 154.027L133.987 154.025ZM129.3 163.4H131.3V152.463H129.3H127.3V163.4H129.3ZM129.3 152.463V154.463H138.675V152.463V150.463H129.3V152.463ZM138.675 152.463H136.675V154.025H138.675H140.675V152.463H138.675ZM138.675 154.025V156.025H140.237V154.025V152.025H138.675V154.025ZM140.237 154.025H138.237V161.838H140.237H142.237V154.025H140.237ZM140.237 161.838V159.838H138.675V161.838V163.838H140.237V161.838ZM138.675 161.838H136.675V163.4H138.675H140.675V161.838H138.675ZM138.675 163.4V161.4H129.3V163.4V165.4H138.675V163.4ZM133.995 161.838V163.838H137.112V161.838V159.838H133.995V161.838ZM137.112 161.838H139.112V154.025H137.112H135.112V161.838H137.112ZM137.112 154.025V152.025H133.987V154.025V156.025H137.112V154.025ZM133.987 154.025L131.987 154.027L131.995 161.84L133.995 161.838L135.995 161.836L135.987 154.023L133.987 154.025ZM151.975 152.463H153.975V150.463H151.975V152.463ZM151.975 154.025V156.025H153.975V154.025H151.975ZM150.412 154.025V152.025H148.412V154.025H150.412ZM150.412 161.838H148.412V163.838H150.412V161.838ZM151.975 161.838H153.975V159.838H151.975V161.838ZM151.975 163.4V165.4H153.975V163.4H151.975ZM144.162 163.4H142.162V165.4H144.162V163.4ZM144.162 161.838V159.838H142.162V161.838H144.162ZM145.725 161.838V163.838H147.725V161.838H145.725ZM145.725 154.025H147.725V152.025H145.725V154.025ZM144.162 154.025H142.162V156.025H144.162V154.025ZM144.162 152.463V150.463H142.162V152.463H144.162ZM151.975 152.463H149.975V154.025H151.975H153.975V152.463H151.975ZM151.975 154.025V152.025H150.412V154.025V156.025H151.975V154.025ZM150.412 154.025H148.412V161.838H150.412H152.412V154.025H150.412ZM150.412 161.838V163.838H151.975V161.838V159.838H150.412V161.838ZM151.975 161.838H149.975V163.4H151.975H153.975V161.838H151.975ZM151.975 163.4V161.4H144.162V163.4V165.4H151.975V163.4ZM144.162 163.4H146.162V161.838H144.162H142.162V163.4H144.162ZM144.162 161.838V163.838H145.725V161.838V159.838H144.162V161.838ZM145.725 161.838H147.725V154.025H145.725H143.725V161.838H145.725ZM145.725 154.025V152.025H144.162V154.025V156.025H145.725V154.025ZM144.162 154.025H146.162V152.463H144.162H142.162V154.025H144.162ZM144.162 152.463V154.463H151.975V152.463V150.463H144.162V152.463ZM155.9 160.275V158.275H153.9V160.275H155.9ZM159.025 160.275H161.025V158.275H159.025V160.275ZM159.025 161.838H157.025V163.838H159.025V161.838ZM163.712 161.838V163.838H165.712V161.838H163.712ZM163.712 158.713H165.712V156.713H163.712V158.713ZM157.462 158.713H155.462V160.713H157.462V158.713ZM157.462 157.15H159.462V155.15H157.462V157.15ZM155.9 157.15H153.9V159.15H155.9V157.15ZM155.9 154.025V152.025H153.9V154.025H155.9ZM157.462 154.025V156.025H159.462V154.025H157.462ZM157.462 152.463V150.463H155.462V152.463H157.462ZM165.275 152.463H167.275V150.463H165.275V152.463ZM165.275 154.025H163.275V156.025H165.275V154.025ZM166.837 154.025H168.837V152.025H166.837V154.025ZM166.837 155.588V157.588H168.837V155.588H166.837ZM163.712 155.588H161.712V157.588H163.712V155.588ZM163.712 154.025H165.712V152.025H163.712V154.025ZM160.587 154.025V152.025H158.587V154.025H160.587ZM160.587 157.15H158.587V159.15H160.587V157.15ZM165.275 157.15H167.275V155.15H165.275V157.15ZM165.275 158.713H163.275V160.713H165.275V158.713ZM166.837 158.713H168.837V156.713H166.837V158.713ZM166.837 161.838V163.838H168.837V161.838H166.837ZM165.275 161.838V159.838H163.275V161.838H165.275ZM165.275 163.4V165.4H167.275V163.4H165.275ZM157.462 163.4H155.462V165.4H157.462V163.4ZM157.462 161.838H159.462V159.838H157.462V161.838ZM155.9 161.838H153.9V163.838H155.9V161.838ZM155.9 160.275V162.275H159.025V160.275V158.275H155.9V160.275ZM159.025 160.275H157.025V161.838H159.025H161.025V160.275H159.025ZM159.025 161.838V163.838H163.712V161.838V159.838H159.025V161.838ZM163.712 161.838H165.712V158.713H163.712H161.712V161.838H163.712ZM163.712 158.713V156.713H157.462V158.713V160.713H163.712V158.713ZM157.462 158.713H159.462V157.15H157.462H155.462V158.713H157.462ZM157.462 157.15V155.15H155.9V157.15V159.15H157.462V157.15ZM155.9 157.15H157.9V154.025H155.9H153.9V157.15H155.9ZM155.9 154.025V156.025H157.462V154.025V152.025H155.9V154.025ZM157.462 154.025H159.462V152.463H157.462H155.462V154.025H157.462ZM157.462 152.463V154.463H165.275V152.463V150.463H157.462V152.463ZM165.275 152.463H163.275V154.025H165.275H167.275V152.463H165.275ZM165.275 154.025V156.025H166.837V154.025V152.025H165.275V154.025ZM166.837 154.025H164.837V155.588H166.837H168.837V154.025H166.837ZM166.837 155.588V153.588H163.712V155.588V157.588H166.837V155.588ZM163.712 155.588H165.712V154.025H163.712H161.712V155.588H163.712ZM163.712 154.025V152.025H160.587V154.025V156.025H163.712V154.025ZM160.587 154.025H158.587V157.15H160.587H162.587V154.025H160.587ZM160.587 157.15V159.15H165.275V157.15V155.15H160.587V157.15ZM165.275 157.15H163.275V158.713H165.275H167.275V157.15H165.275ZM165.275 158.713V160.713H166.837V158.713V156.713H165.275V158.713ZM166.837 158.713H164.837V161.838H166.837H168.837V158.713H166.837ZM166.837 161.838V159.838H165.275V161.838V163.838H166.837V161.838ZM165.275 161.838H163.275V163.4H165.275H167.275V161.838H165.275ZM165.275 163.4V161.4H157.462V163.4V165.4H165.275V163.4ZM157.462 163.4H159.462V161.838H157.462H155.462V163.4H157.462ZM157.462 161.838V159.838H155.9V161.838V163.838H157.462V161.838ZM155.9 161.838H157.9V160.275H155.9H153.9V161.838H155.9ZM180.137 152.463H182.137V150.463H180.137V152.463ZM180.137 154.025V156.025H182.137V154.025H180.137ZM177.012 154.025V152.025H175.012V154.025H177.012ZM177.012 163.4V165.4H179.012V163.4H177.012ZM172.325 163.4H170.325V165.4H172.325V163.4ZM172.325 154.025H174.325V152.025H172.325V154.025ZM169.2 154.025H167.2V156.025H169.2V154.025ZM169.2 152.463V150.463H167.2V152.463H169.2ZM180.137 152.463H178.137V154.025H180.137H182.137V152.463H180.137ZM180.137 154.025V152.025H177.012V154.025V156.025H180.137V154.025ZM177.012 154.025H175.012V163.4H177.012H179.012V154.025H177.012ZM177.012 163.4V161.4H172.325V163.4V165.4H177.012V163.4ZM172.325 163.4H174.325V154.025H172.325H170.325V163.4H172.325ZM172.325 154.025V152.025H169.2V154.025V156.025H172.325V154.025ZM169.2 154.025H171.2V152.463H169.2H167.2V154.025H169.2ZM169.2 152.463V154.463H180.137V152.463V150.463H169.2V152.463ZM182.5 163.4H180.5V165.4H182.5V163.4ZM182.5 152.463V150.463H180.5V152.463H182.5ZM191.875 152.463H193.875V150.463H191.875V152.463ZM191.875 154.025H189.875V156.025H191.875V154.025ZM193.438 154.025H195.438V152.025H193.438V154.025ZM193.438 157.15V159.15H195.438V157.15H193.438ZM191.875 157.15V155.15H189.875V157.15H191.875ZM191.875 158.713H189.875V160.713H191.875V158.713ZM193.438 158.713H195.438V156.713H193.438V158.713ZM193.438 163.4V165.4H195.438V163.4H193.438ZM188.75 163.4H186.75V165.4H188.75V163.4ZM188.75 158.713H190.75V156.713H188.75V158.713ZM185.633 158.713V156.713H183.633V158.713H185.633ZM185.633 163.4V165.4H187.633V163.4H185.633ZM187.188 154.025V152.025H185.188V154.025H187.188ZM187.188 157.15H185.188V159.15H187.188V157.15ZM190.312 157.15V159.15H192.312V157.15H190.312ZM190.312 154.025H192.312V152.025H190.312V154.025ZM182.5 163.4H184.5V152.463H182.5H180.5V163.4H182.5ZM182.5 152.463V154.463H191.875V152.463V150.463H182.5V152.463ZM191.875 152.463H189.875V154.025H191.875H193.875V152.463H191.875ZM191.875 154.025V156.025H193.438V154.025V152.025H191.875V154.025ZM193.438 154.025H191.438V157.15H193.438H195.438V154.025H193.438ZM193.438 157.15V155.15H191.875V157.15V159.15H193.438V157.15ZM191.875 157.15H189.875V158.713H191.875H193.875V157.15H191.875ZM191.875 158.713V160.713H193.438V158.713V156.713H191.875V158.713ZM193.438 158.713H191.438V163.4H193.438H195.438V158.713H193.438ZM193.438 163.4V161.4H188.75V163.4V165.4H193.438V163.4ZM188.75 163.4H190.75V158.713H188.75H186.75V163.4H188.75ZM188.75 158.713V156.713H185.633V158.713V160.713H188.75V158.713ZM185.633 158.713H183.633V163.4H185.633H187.633V158.713H185.633ZM185.633 163.4V161.4H182.5V163.4V165.4H185.633V163.4ZM187.188 154.025H185.188V157.15H187.188H189.188V154.025H187.188ZM187.188 157.15V159.15H190.312V157.15V155.15H187.188V157.15ZM190.312 157.15H192.312V154.025H190.312H188.312V157.15H190.312ZM190.312 154.025V152.025H187.188V154.025V156.025H190.312V154.025ZM205.175 152.463H207.175V150.463H205.175V152.463ZM205.175 154.025V156.025H207.175V154.025H205.175ZM203.612 154.025V152.025H201.612V154.025H203.612ZM203.612 161.838H201.612V163.838H203.612V161.838ZM205.175 161.838H207.175V159.838H205.175V161.838ZM205.175 163.4V165.4H207.175V163.4H205.175ZM197.362 163.4H195.362V165.4H197.362V163.4ZM197.362 161.838V159.838H195.362V161.838H197.362ZM198.925 161.838V163.838H200.925V161.838H198.925ZM198.925 154.025H200.925V152.025H198.925V154.025ZM197.362 154.025H195.362V156.025H197.362V154.025ZM197.362 152.463V150.463H195.362V152.463H197.362ZM205.175 152.463H203.175V154.025H205.175H207.175V152.463H205.175ZM205.175 154.025V152.025H203.612V154.025V156.025H205.175V154.025ZM203.612 154.025H201.612V161.838H203.612H205.612V154.025H203.612ZM203.612 161.838V163.838H205.175V161.838V159.838H203.612V161.838ZM205.175 161.838H203.175V163.4H205.175H207.175V161.838H205.175ZM205.175 163.4V161.4H197.362V163.4V165.4H205.175V163.4ZM197.362 163.4H199.362V161.838H197.362H195.362V163.4H197.362ZM197.362 161.838V163.838H198.925V161.838V159.838H197.362V161.838ZM198.925 161.838H200.925V154.025H198.925H196.925V161.838H198.925ZM198.925 154.025V152.025H197.362V154.025V156.025H198.925V154.025ZM197.362 154.025H199.362V152.463H197.362H195.362V154.025H197.362ZM197.362 152.463V154.463H205.175V152.463V150.463H197.362V152.463ZM209.1 163.4H207.1V165.4H209.1V163.4ZM209.1 152.463V150.463H207.1V152.463H209.1ZM218.475 152.463H220.475V150.463H218.475V152.463ZM218.475 154.025H216.475V156.025H218.475V154.025ZM220.037 154.025H222.037V152.025H220.037V154.025ZM220.037 157.15V159.15H222.037V157.15H220.037ZM218.475 157.15V155.15H216.475V157.15H218.475ZM218.475 158.713H216.475V160.713H218.475V158.713ZM220.037 158.713H222.037V156.713H220.037V158.713ZM220.037 161.838V163.838H222.037V161.838H220.037ZM218.475 161.838V159.838H216.475V161.838H218.475ZM218.475 163.4V165.4H220.475V163.4H218.475ZM213.795 158.713V156.713H211.795V158.713H213.795ZM213.795 161.838H211.795V163.838H213.795V161.838ZM216.912 161.838V163.838H218.912V161.838H216.912ZM216.912 158.713H218.912V156.713H216.912V158.713ZM213.787 154.025V152.025H211.787V154.025H213.787ZM213.787 157.15H211.787V159.15H213.787V157.15ZM216.912 157.15V159.15H218.912V157.15H216.912ZM216.912 154.025H218.912V152.025H216.912V154.025ZM209.1 163.4H211.1V152.463H209.1H207.1V163.4H209.1ZM209.1 152.463V154.463H218.475V152.463V150.463H209.1V152.463ZM218.475 152.463H216.475V154.025H218.475H220.475V152.463H218.475ZM218.475 154.025V156.025H220.037V154.025V152.025H218.475V154.025ZM220.037 154.025H218.037V157.15H220.037H222.037V154.025H220.037ZM220.037 157.15V155.15H218.475V157.15V159.15H220.037V157.15ZM218.475 157.15H216.475V158.713H218.475H220.475V157.15H218.475ZM218.475 158.713V160.713H220.037V158.713V156.713H218.475V158.713ZM220.037 158.713H218.037V161.838H220.037H222.037V158.713H220.037ZM220.037 161.838V159.838H218.475V161.838V163.838H220.037V161.838ZM218.475 161.838H216.475V163.4H218.475H220.475V161.838H218.475ZM218.475 163.4V161.4H209.1V163.4V165.4H218.475V163.4ZM213.795 158.713H211.795V161.838H213.795H215.795V158.713H213.795ZM213.795 161.838V163.838H216.912V161.838V159.838H213.795V161.838ZM216.912 161.838H218.912V158.713H216.912H214.912V161.838H216.912ZM216.912 158.713V156.713H213.795V158.713V160.713H216.912V158.713ZM213.787 154.025H211.787V157.15H213.787H215.787V154.025H213.787ZM213.787 157.15V159.15H216.912V157.15V155.15H213.787V157.15ZM216.912 157.15H218.912V154.025H216.912H214.912V157.15H216.912ZM216.912 154.025V152.025H213.787V154.025V156.025H216.912V154.025ZM227.087 152.463H229.087V150.463H227.087V152.463ZM227.087 161.838H225.087V163.838H227.087V161.838ZM230.212 161.838V163.838H232.212V161.838H230.212ZM230.212 152.463V150.463H228.212V152.463H230.212ZM233.337 152.463H235.337V150.463H233.337V152.463ZM233.337 161.838V163.838H235.337V161.838H233.337ZM231.775 161.838V159.838H229.775V161.838H231.775ZM231.775 163.4V165.4H233.775V163.4H231.775ZM223.962 163.4H221.962V165.4H223.962V163.4ZM223.962 161.838H225.962V159.838H223.962V161.838ZM222.4 161.838H220.4V163.838H222.4V161.838ZM222.4 152.463V150.463H220.4V152.463H222.4ZM227.087 152.463H225.087V161.838H227.087H229.087V152.463H227.087ZM227.087 161.838V163.838H230.212V161.838V159.838H227.087V161.838ZM230.212 161.838H232.212V152.463H230.212H228.212V161.838H230.212ZM230.212 152.463V154.463H233.337V152.463V150.463H230.212V152.463ZM233.337 152.463H231.337V161.838H233.337H235.337V152.463H233.337ZM233.337 161.838V159.838H231.775V161.838V163.838H233.337V161.838ZM231.775 161.838H229.775V163.4H231.775H233.775V161.838H231.775ZM231.775 163.4V161.4H223.962V163.4V165.4H231.775V163.4ZM223.962 163.4H225.962V161.838H223.962H221.962V163.4H223.962ZM223.962 161.838V159.838H222.4V161.838V163.838H223.962V161.838ZM222.4 161.838H224.4V152.463H222.4H220.4V161.838H222.4ZM222.4 152.463V154.463H227.087V152.463V150.463H222.4V152.463ZM246.637 152.463H248.637V150.463H246.637V152.463ZM246.637 154.025V156.025H248.637V154.025H246.637ZM243.512 154.025V152.025H241.512V154.025H243.512ZM243.512 163.4V165.4H245.512V163.4H243.512ZM238.825 163.4H236.825V165.4H238.825V163.4ZM238.825 154.025H240.825V152.025H238.825V154.025ZM235.7 154.025H233.7V156.025H235.7V154.025ZM235.7 152.463V150.463H233.7V152.463H235.7ZM246.637 152.463H244.637V154.025H246.637H248.637V152.463H246.637ZM246.637 154.025V152.025H243.512V154.025V156.025H246.637V154.025ZM243.512 154.025H241.512V163.4H243.512H245.512V154.025H243.512ZM243.512 163.4V161.4H238.825V163.4V165.4H243.512V163.4ZM238.825 163.4H240.825V154.025H238.825H236.825V163.4H238.825ZM238.825 154.025V152.025H235.7V154.025V156.025H238.825V154.025ZM235.7 154.025H237.7V152.463H235.7H233.7V154.025H235.7ZM235.7 152.463V154.463H246.637V152.463V150.463H235.7V152.463ZM258.375 152.463H260.375V150.463H258.375V152.463ZM258.375 154.025V156.025H260.375V154.025H258.375ZM256.812 154.025V152.025H254.812V154.025H256.812ZM256.812 161.838H254.812V163.838H256.812V161.838ZM258.375 161.838H260.375V159.838H258.375V161.838ZM258.375 163.4V165.4H260.375V163.4H258.375ZM250.562 163.4H248.562V165.4H250.562V163.4ZM250.562 161.838V159.838H248.562V161.838H250.562ZM252.125 161.838V163.838H254.125V161.838H252.125ZM252.125 154.025H254.125V152.025H252.125V154.025ZM250.562 154.025H248.562V156.025H250.562V154.025ZM250.562 152.463V150.463H248.562V152.463H250.562ZM258.375 152.463H256.375V154.025H258.375H260.375V152.463H258.375ZM258.375 154.025V152.025H256.812V154.025V156.025H258.375V154.025ZM256.812 154.025H254.812V161.838H256.812H258.812V154.025H256.812ZM256.812 161.838V163.838H258.375V161.838V159.838H256.812V161.838ZM258.375 161.838H256.375V163.4H258.375H260.375V161.838H258.375ZM258.375 163.4V161.4H250.562V163.4V165.4H258.375V163.4ZM250.562 163.4H252.562V161.838H250.562H248.562V163.4H250.562ZM250.562 161.838V163.838H252.125V161.838V159.838H250.562V161.838ZM252.125 161.838H254.125V154.025H252.125H250.125V161.838H252.125ZM252.125 154.025V152.025H250.562V154.025V156.025H252.125V154.025ZM250.562 154.025H252.562V152.463H250.562H248.562V154.025H250.562ZM250.562 152.463V154.463H258.375V152.463V150.463H250.562V152.463ZM271.675 163.4V165.4H273.675V163.4H271.675ZM263.862 163.4H261.862V165.4H263.862V163.4ZM263.862 161.838H265.862V159.838H263.862V161.838ZM262.3 161.838H260.3V163.838H262.3V161.838ZM262.3 154.025V152.025H260.3V154.025H262.3ZM263.862 154.025V156.025H265.862V154.025H263.862ZM263.862 152.463V150.463H261.862V152.463H263.862ZM271.675 152.463H273.675V150.463H271.675V152.463ZM271.675 154.025H269.675V156.025H271.675V154.025ZM273.237 154.025H275.237V152.025H273.237V154.025ZM273.237 161.838V163.838H275.237V161.838H273.237ZM271.675 161.838V159.838H269.675V161.838H271.675ZM270.112 161.838V163.838H272.112V161.838H270.112ZM270.112 154.025H272.112V152.025H270.112V154.025ZM266.987 154.025V152.025H264.987V154.025H266.987ZM266.987 161.838H264.987V163.838H266.987V161.838ZM271.675 163.4V161.4H263.862V163.4V165.4H271.675V163.4ZM263.862 163.4H265.862V161.838H263.862H261.862V163.4H263.862ZM263.862 161.838V159.838H262.3V161.838V163.838H263.862V161.838ZM262.3 161.838H264.3V154.025H262.3H260.3V161.838H262.3ZM262.3 154.025V156.025H263.862V154.025V152.025H262.3V154.025ZM263.862 154.025H265.862V152.463H263.862H261.862V154.025H263.862ZM263.862 152.463V154.463H271.675V152.463V150.463H263.862V152.463ZM271.675 152.463H269.675V154.025H271.675H273.675V152.463H271.675ZM271.675 154.025V156.025H273.237V154.025V152.025H271.675V154.025ZM273.237 154.025H271.237V161.838H273.237H275.237V154.025H273.237ZM273.237 161.838V159.838H271.675V161.838V163.838H273.237V161.838ZM271.675 161.838H269.675V163.4H271.675H273.675V161.838H271.675ZM270.112 161.838H272.112V154.025H270.112H268.112V161.838H270.112ZM270.112 154.025V152.025H266.987V154.025V156.025H270.112V154.025ZM266.987 154.025H264.987V161.838H266.987H268.987V154.025H266.987ZM266.987 161.838V163.838H270.112V161.838V159.838H266.987V161.838ZM275.6 163.4H273.6V165.4H275.6V163.4ZM275.6 152.463V150.463H273.6V152.463H275.6ZM284.975 152.463H286.975V150.463H284.975V152.463ZM284.975 154.025H282.975V156.025H284.975V154.025ZM286.537 154.025H288.537V152.025H286.537V154.025ZM286.537 163.4V165.4H288.537V163.4H286.537ZM283.412 163.4H281.412V165.4H283.412V163.4ZM283.412 154.025H285.412V152.025H283.412V154.025ZM280.287 154.025V152.025H278.286L278.287 154.027L280.287 154.025ZM280.295 163.4V165.4H282.297L282.295 163.398L280.295 163.4ZM275.6 163.4H277.6V152.463H275.6H273.6V163.4H275.6ZM275.6 152.463V154.463H284.975V152.463V150.463H275.6V152.463ZM284.975 152.463H282.975V154.025H284.975H286.975V152.463H284.975ZM284.975 154.025V156.025H286.537V154.025V152.025H284.975V154.025ZM286.537 154.025H284.537V163.4H286.537H288.537V154.025H286.537ZM286.537 163.4V161.4H283.412V163.4V165.4H286.537V163.4ZM283.412 163.4H285.412V154.025H283.412H281.412V163.4H283.412ZM283.412 154.025V152.025H280.287V154.025V156.025H283.412V154.025ZM280.287 154.025L278.287 154.027L278.295 163.402L280.295 163.4L282.295 163.398L282.287 154.023L280.287 154.025ZM280.295 163.4V161.4H275.6V163.4V165.4H280.295V163.4Z" fill="#7E27E0" mask="url(#path-47-outside-1_32_983)"/>
</g>
<path d="M24.1143 201.64V198.448H27.2923V201.626L24.1143 201.64ZM44.952 204.818V206.4H38.582V204.818H37V196.866H38.582V204.818H44.952ZM38.582 196.866V195.284H44.952V196.866H46.534V198.448H44.952V196.866H38.582ZM44.952 204.818V203.222H46.534V204.818H44.952ZM54.4849 204.818V200.044H49.7109V198.448H54.4849V200.044H56.0669L56.0809 204.818H54.4849ZM54.4849 206.4H49.7109V204.818H48.1289V200.044H49.7109V204.818H54.4849V206.4ZM65.6102 200.044V206.4H64.0142V200.044H59.2542V206.4H57.6582V198.448H64.0142V200.044H65.6102ZM70.3702 206.4V200.044H65.6102V198.448H70.3702V200.044H71.9522V206.4H70.3702ZM83.0965 200.044V206.4H81.5005V200.044H76.7405V206.4H75.1445V198.448H81.5005V200.044H83.0965ZM87.8565 206.4V200.044H83.0965V198.448H87.8565V200.044H89.4385V206.4H87.8565ZM94.2129 206.4V204.804H92.6309V198.448H94.2129V204.804H98.9869V198.448H100.583V206.4H94.2129ZM110.116 206.4V200.044H105.356V206.4H103.76V198.448H110.116V200.044H111.712V206.4H110.116ZM116.471 196.866V195.284H118.067V196.866H116.471ZM116.485 206.4V200.044H114.889V198.448H118.067V206.4H116.485ZM124.424 206.4V204.818H122.842V200.044H121.246V198.448H122.828V195.284H124.424V198.448H127.602V200.044H124.424V204.818H127.602V206.4H124.424ZM135.559 207.996V206.4H130.785V204.804H129.203V198.448H130.785V204.804H135.559V198.448H137.155V207.996H135.559ZM135.559 207.996V209.578H130.785V207.996H135.559ZM154.641 201.64H156.223V204.818H154.641V201.64H148.271V204.818H154.641V206.4H146.689V195.284H154.641V196.866H156.223V200.044H154.641V196.866H148.271V200.044H154.641V201.64ZM160.986 206.4V204.804H159.404V198.448H160.986V204.804H165.76V198.448H167.356V206.4H160.986ZM172.115 196.866V195.284H173.711V196.866H172.115ZM172.129 206.4V200.044H170.533V198.448H173.711V206.4H172.129ZM178.487 206.4V196.866H176.891V195.284H180.069V206.4H178.487ZM189.604 200.044H184.83V198.448H189.604V195.284H191.2V206.4H184.83V204.804H183.248V200.044H184.83V204.804H189.604V200.044ZM195.959 196.866V195.284H197.555V196.866H195.959ZM195.973 206.4V200.044H194.377V198.448H197.555V206.4H195.973ZM207.09 206.4V200.044H202.33V206.4H200.734V198.448H207.09V200.044H208.686V206.4H207.09ZM218.219 200.044H213.459V198.462H219.815V207.996H218.219V206.4H213.459V204.818H211.863V200.044H213.459V204.818H218.219V200.044ZM218.219 207.996V209.578H213.445V207.996H218.219ZM24.1143 221.64V218.448H27.2923V221.626L24.1143 221.64ZM44.952 224.818V226.4H38.582V224.818H37V216.866H38.582V224.818H44.952ZM44.952 224.818V221.64H41.76V220.044H46.534V224.818H44.952ZM38.582 216.866V215.284H44.938V216.866H46.534V218.448H44.938V216.866H38.582ZM54.4888 216.866V226.4H52.8928V216.866H48.1188V215.284H59.2488V216.866H54.4888ZM68.7818 221.64V223.222H67.1998V221.64H65.6038V220.044H64.0218V218.448H62.4398V226.4H60.8438V215.284H62.4258V216.866H64.0218V218.448H65.6038V220.044H67.1998V221.64H68.7818ZM73.5558 226.4V218.448H71.9598V216.866H73.5558V215.284H75.1518V226.4H73.5558ZM70.3778 220.044V221.64H68.7818V220.044H70.3778ZM71.9598 218.448V220.044H70.3778V218.448H71.9598ZM87.8655 216.866V218.448H91.0435V220.044H87.8655V226.4H86.2835V220.044H84.6875V218.448H86.2695V216.866H87.8655ZM87.8655 216.866V215.284H92.6395V216.866H87.8655ZM99.0005 224.818V220.044H94.2265V218.448H99.0005V220.044H100.583L100.597 224.818H99.0005ZM99.0005 226.4H94.2265V224.818H92.6445V220.044H94.2265V224.818H99.0005V226.4ZM105.352 220.044V221.626H103.77V226.4H102.174V218.448H103.756V220.044H105.352ZM105.352 220.044V218.448H108.53V220.044H105.352ZM129.186 224.818V226.4H127.604V224.818H126.008V220.058H124.426V215.284H126.008V220.058H127.604V224.818H129.186ZM122.83 224.818V226.4H121.248V224.818H119.666V221.64H118.07V218.448H116.488V215.284H118.07V218.448H119.666V221.64H121.248V224.818H122.83ZM124.426 220.058V224.818H122.83V220.058H124.426ZM132.378 218.448V221.64H130.782V218.448H132.378ZM129.186 224.818V221.64H130.782V224.818H129.186ZM132.378 218.448V215.284H133.96V218.448H132.378ZM141.917 220.044H137.143V218.448H141.917V220.044H143.513V223.222H137.143V224.818H141.917V226.4H137.143V224.818H135.561V220.044H137.143V221.64H141.917V220.044ZM151.446 226.4H145.09V215.284H146.672V218.448H151.446V220.044H153.042V224.804H151.446V220.044H146.672V224.804H151.446V226.4ZM160.975 220.044V216.866H156.215V218.462H154.619V216.866H156.201V215.27H160.975V216.866H162.571V220.044H160.975ZM160.975 224.804V221.64H157.797V220.044H160.975V221.626H162.571V224.804H160.975ZM160.975 224.818V226.4H156.215V224.818H160.975ZM156.201 224.818H154.619V223.222H156.201V224.818ZM180.057 224.818V226.4H173.687V224.818H172.105V216.866H173.687V224.818H180.057ZM180.057 224.818V221.64H176.865V220.044H181.639V224.818H180.057ZM173.687 216.866V215.284H180.043V216.866H181.639V218.448H180.043V216.866H173.687ZM191.176 223.222H186.402V221.64H191.176V220.044H186.402V218.448H191.176V220.044H192.772V226.4H186.402V224.818H184.82V223.222H186.402V224.818H191.176V223.222ZM203.901 220.044V226.4H202.305V220.044H197.545V226.4H195.949V218.448H202.305V220.044H203.901ZM208.661 226.4V220.044H203.901V218.448H208.661V220.044H210.243V226.4H208.661ZM219.792 220.044H215.018V218.448H219.792V220.044H221.388V223.222H215.018V224.818H219.792V226.4H215.018V224.818H213.436V220.044H215.018V221.64H219.792V220.044ZM224.561 220.044V221.626H229.321V223.222H230.917V224.818H229.321V223.222H224.561V221.626H222.965V220.044H224.561ZM224.561 220.044V218.448H230.917V220.044H224.561ZM229.321 224.818V226.4H222.965V224.818H229.321ZM24.1143 241.64V238.448H27.2923V241.626L24.1143 241.64ZM44.938 243.222V238.448H43.356V236.866H38.582V244.818H43.356V246.4H37V235.284H43.356V236.866H44.938V238.448H46.534V243.222H44.938ZM44.938 244.818H43.356V243.222H44.938V244.818ZM51.2968 236.866V235.284H52.8928V236.866H51.2968ZM51.3108 246.4V240.044H49.7148V238.448H52.8928V246.4H51.3108ZM57.6683 240.044V241.626H62.4283V243.222H64.0243V244.818H62.4283V243.222H57.6683V241.626H56.0723V240.044H57.6683ZM57.6683 240.044V238.448H64.0243V240.044H57.6683ZM62.4283 244.818V246.4H56.0723V244.818H62.4283ZM68.7796 246.4V244.818H67.1976V240.044H65.6016V238.448H67.1836V235.284H68.7796V238.448H71.9576V240.044H68.7796V244.818H71.9576V246.4H68.7796ZM76.7366 240.044V241.626H75.1546V246.4H73.5586V238.448H75.1406V240.044H76.7366ZM76.7366 240.044V238.448H79.9146V240.044H76.7366ZM83.0976 236.866V235.284H84.6936V236.866H83.0976ZM83.1116 246.4V240.044H81.5156V238.448H84.6936V246.4H83.1116ZM94.229 246.4H87.873V235.284H89.455V238.448H94.229V240.044H95.825V244.804H94.229V240.044H89.455V244.804H94.229V246.4ZM98.9843 246.4V244.804H97.4023V238.448H98.9843V244.804H103.758V238.448H105.354V246.4H98.9843ZM111.709 246.4V244.818H110.127V240.044H108.531V238.448H110.113V235.284H111.709V238.448H114.887V240.044H111.709V244.818H114.887V246.4H111.709ZM118.07 236.866V235.284H119.666V236.866H118.07ZM118.084 246.4V240.044H116.488V238.448H119.666V246.4H118.084ZM129.202 244.818V240.044H124.428V238.448H129.202V240.044H130.784L130.798 244.818H129.202ZM129.202 246.4H124.428V244.818H122.846V240.044H124.428V244.818H129.202V246.4ZM138.731 246.4V240.044H133.971V246.4H132.375V238.448H138.731V240.044H140.327V246.4H138.731ZM157.813 244.818V241.626H151.443V240.044H149.861V236.866H151.443V240.044H157.813V241.626H159.395V244.818H157.813ZM157.813 244.818V246.4H151.443V244.818H149.861V243.222H151.443V244.818H157.813ZM151.443 236.866V235.284H157.813V236.866H159.395V238.448H157.813V236.866H151.443ZM165.754 246.4V244.818H164.172V240.044H162.576V238.448H164.158V235.284H165.754V238.448H168.932V240.044H165.754V244.818H168.932V246.4H165.754ZM173.711 240.044V241.626H172.129V246.4H170.533V238.448H172.115V240.044H173.711ZM173.711 240.044V238.448H176.889V240.044H173.711ZM184.846 243.222H180.072V241.64H184.846V240.044H180.072V238.448H184.846V240.044H186.442V246.4H180.072V244.818H178.49V243.222H180.072V244.818H184.846V243.222ZM192.797 246.4V244.818H191.215V240.044H189.619V238.448H191.201V235.284H192.797V238.448H195.975V240.044H192.797V244.818H195.975V246.4H192.797ZM203.932 240.044H199.158V238.448H203.932V240.044H205.528V243.222H199.158V244.818H203.932V246.4H199.158V244.818H197.576V240.044H199.158V241.64H203.932V240.044ZM213.461 240.044H208.701V238.462H215.057V247.996H213.461V246.4H208.701V244.818H207.105V240.044H208.701V244.818H213.461V240.044ZM213.461 247.996V249.578H208.687V247.996H213.461ZM219.816 236.866V235.284H221.412V236.866H219.816ZM219.83 246.4V240.044H218.234V238.448H221.412V246.4H219.83ZM230.948 240.044H226.174V238.448H230.948V240.044H232.544V243.222H226.174V244.818H230.948V246.4H226.174V244.818H224.592V240.044H226.174V241.64H230.948V240.044ZM235.717 240.044V241.626H240.477V243.222H242.073V244.818H240.477V243.222H235.717V241.626H234.121V240.044H235.717ZM235.717 240.044V238.448H242.073V240.044H235.717ZM240.477 244.818V246.4H234.121V244.818H240.477ZM245.232 240.044V238.448H246.828V240.044H245.232ZM245.232 246.4V244.804H246.828V246.4H245.232ZM267.477 244.818V246.4H265.895V244.818H264.299V240.058H262.717V235.284H264.299V240.058H265.895V244.818H267.477ZM261.121 244.818V246.4H259.539V244.818H257.957V241.64H256.361V238.448H254.779V235.284H256.361V238.448H257.957V241.64H259.539V244.818H261.121ZM262.717 240.058V244.818H261.121V240.058H262.717ZM270.669 238.448V241.64H269.073V238.448H270.669ZM267.477 244.818V241.64H269.073V244.818H267.477ZM270.669 238.448V235.284H272.251V238.448H270.669ZM280.208 240.044H275.434V238.448H280.208V240.044H281.804V243.222H275.434V244.818H280.208V246.4H275.434V244.818H273.852V240.044H275.434V241.64H280.208V240.044ZM289.737 246.4H283.381V235.284H284.963V238.448H289.737V240.044H291.333V244.804H289.737V240.044H284.963V244.804H289.737V246.4ZM44.952 261.64H46.534V264.818H44.952V261.64H38.582V264.818H44.952V266.4H37V255.284H44.952V256.866H46.534V260.044H44.952V256.866H38.582V260.044H44.952V261.64ZM52.8928 260.044V261.626H51.3108V266.4H49.7148V258.448H51.2968V260.044H52.8928ZM52.8928 260.044V258.448H56.0708V260.044H52.8928ZM64.0279 264.818V260.044H59.2539V258.448H64.0279V260.044H65.6099L65.6239 264.818H64.0279ZM64.0279 266.4H59.2539V264.818H57.6719V260.044H59.2539V264.818H64.0279V266.4ZM71.9612 264.818V266.4H70.3792V264.818H68.7832V261.64H67.2012V258.448H68.7832V261.64H70.3792V264.818H71.9612ZM78.3172 264.818V266.4H76.7352V264.818H75.1392V263.222H73.5572V260.044H75.1392V263.222H76.7352V264.818H78.3172ZM79.9132 261.64V258.448H81.5092V261.64H79.9132ZM79.9132 261.64V264.818H78.3172V261.64H79.9132ZM73.5572 263.222V264.818H71.9612V263.222H73.5572ZM84.6839 260.044V261.626H89.4439V263.222H91.0399V264.818H89.4439V263.222H84.6839V261.626H83.0879V260.044H84.6839ZM84.6839 260.044V258.448H91.0399V260.044H84.6839ZM89.4439 264.818V266.4H83.0879V264.818H89.4439ZM98.9732 260.044H94.1992V258.448H98.9732V260.044H100.569V263.222H94.1992V264.818H98.9732V266.4H94.1992V264.818H92.6172V260.044H94.1992V261.64H98.9732V260.044ZM105.324 260.044V261.626H103.742V266.4H102.146V258.448H103.728V260.044H105.324ZM105.324 260.044V258.448H108.502V260.044H105.324ZM122.817 264.818V266.4H121.221V264.818H119.639V263.222H118.043V261.64H116.461V258.448H118.043V261.64H119.639V263.222H121.221V264.818H122.817ZM125.995 261.64V258.448H127.591V261.64H125.995ZM124.399 263.222V264.818H122.817V263.222H124.399ZM125.995 261.64V263.222H124.399V261.64H125.995ZM130.772 260.044V261.626H135.532V263.222H137.128V264.818H135.532V263.222H130.772V261.626H129.176V260.044H130.772ZM130.772 260.044V258.448H137.128V260.044H130.772ZM135.532 264.818V266.4H129.176V264.818H135.532ZM153.001 260.044H151.419V256.866H149.837V255.284H151.419V256.866H153.001V260.044H154.597V263.222H156.193V266.4H154.597V263.222H146.659V266.4H145.062V263.222H146.645V260.044H148.241V261.626H153.001V260.044ZM149.837 256.866V260.044H148.241V256.866H149.837ZM164.133 266.4H159.373V269.578H157.777V258.448H164.133V260.044H165.729V264.804H164.133V260.044H159.359V264.804H164.133V266.4ZM173.663 266.4H168.903V269.578H167.307V258.448H173.663V260.044H175.259V264.804H173.663V260.044H168.889V264.804H173.663V266.4ZM178.432 266.4V256.866H176.836V255.284H180.014V266.4H178.432ZM189.549 260.044H184.775V258.448H189.549V260.044H191.145V263.222H184.775V264.818H189.549V266.4H184.775V264.818H183.193V260.044H184.775V261.64H189.549V260.044ZM195.901 260.044V263.222H194.319V266.4H192.723V263.222H194.305V260.044H195.901ZM197.497 256.866V260.044H195.901V256.866H197.497ZM197.497 256.866V255.284H199.079V256.866H197.497ZM208.632 261.64H202.276V266.4H200.68V255.284H208.632V256.866H210.214V260.044H208.632V256.866H202.262V260.044H208.632V261.64ZM213.405 266.4V256.866H211.809V255.284H214.987V266.4H213.405ZM224.522 263.222H219.748V261.64H224.522V260.044H219.748V258.448H224.522V260.044H226.118V266.4H219.748V264.818H218.166V263.222H219.748V264.818H224.522V263.222ZM235.651 267.996V266.4H230.877V264.804H229.295V258.448H230.877V264.804H235.651V258.448H237.247V267.996H235.651ZM235.651 267.996V269.578H230.877V267.996H235.651ZM254.733 264.818V261.626H248.363V260.044H246.781V256.866H248.363V260.044H254.733V261.626H256.315V264.818H254.733ZM254.733 264.818V266.4H248.363V264.818H246.781V263.222H248.363V264.818H254.733ZM248.363 256.866V255.284H254.733V256.866H256.315V258.448H254.733V256.866H248.363ZM262.674 266.4V264.818H261.092V260.044H259.496V258.448H261.078V255.284H262.674V258.448H265.852V260.044H262.674V264.818H265.852V266.4H262.674ZM273.809 264.818V260.044H269.035V258.448H273.809V260.044H275.391L275.405 264.818H273.809ZM273.809 266.4H269.035V264.818H267.453V260.044H269.035V264.818H273.809V266.4ZM280.16 260.044V261.626H278.578V266.4H276.982V258.448H278.564V260.044H280.16ZM280.16 260.044V258.448H283.338V260.044H280.16ZM291.295 260.044H286.521V258.448H291.295V260.044H292.891V263.222H286.521V264.818H291.295V266.4H286.521V264.818H284.939V260.044H286.521V261.64H291.295V260.044ZM43.356 284.818V286.4H41.76V284.818H40.178V283.222H38.582V281.64H37V278.448H38.582V281.64H40.178V283.222H41.76V284.818H43.356ZM46.534 281.64V278.448H48.13V281.64H46.534ZM44.938 283.222V284.818H43.356V283.222H44.938ZM46.534 281.64V283.222H44.938V281.64H46.534ZM51.3108 280.044V281.626H56.0708V283.222H57.6668V284.818H56.0708V283.222H51.3108V281.626H49.7148V280.044H51.3108ZM51.3108 280.044V278.448H57.6668V280.044H51.3108ZM56.0708 284.818V286.4H49.7148V284.818H56.0708ZM70.3756 276.866V286.4H68.7796V276.866H64.0056V275.284H75.1356V276.866H70.3756ZM83.0865 280.044H78.3125V278.448H83.0865V280.044H84.6825V283.222H78.3125V284.818H83.0865V286.4H78.3125V284.818H76.7305V280.044H78.3125V281.64H83.0865V280.044ZM87.8558 286.4V276.866H86.2598V275.284H89.4378V286.4H87.8558ZM98.9732 280.044H94.1992V278.448H98.9732V280.044H100.569V283.222H94.1992V284.818H98.9732V286.4H94.1992V284.818H92.6172V280.044H94.1992V281.64H98.9732V280.044ZM108.502 280.044H103.742V278.462H110.098V287.996H108.502V286.4H103.742V284.818H102.146V280.044H103.742V284.818H108.502V280.044ZM108.502 287.996V289.578H103.728V287.996H108.502ZM116.453 280.044V281.626H114.871V286.4H113.275V278.448H114.857V280.044H116.453ZM116.453 280.044V278.448H119.631V280.044H116.453ZM127.588 283.222H122.814V281.64H127.588V280.044H122.814V278.448H127.588V280.044H129.184V286.4H122.814V284.818H121.232V283.222H122.814V284.818H127.588V283.222ZM140.313 280.044V286.4H138.717V280.044H133.957V286.4H132.361V278.448H138.717V280.044H140.313ZM145.073 286.4V280.044H140.313V278.448H145.073V280.044H146.655V286.4H145.073ZM24.1143 301.64V298.448H27.2923V301.626L24.1143 301.64ZM38.582 296.866V300.044H43.356V301.64H38.596V306.4H37V295.284H44.952V296.866H38.582ZM48.1113 306.4V304.804H46.5293V298.448H48.1113V304.804H52.8853V298.448H54.4813V306.4H48.1113ZM64.0142 306.4V300.044H59.2542V306.4H57.6582V298.448H64.0142V300.044H65.6102V306.4H64.0142ZM75.1431 300.044H70.3691V298.448H75.1431V295.284H76.7391V306.4H70.3691V304.804H68.7871V300.044H70.3691V304.804H75.1431V300.044ZM94.2254 301.64H92.6294V303.222H94.2254V304.818H95.8074V306.4H94.2254V304.818H92.6294V303.222H91.0474V301.64H87.8694V306.4H86.2734V295.284H94.2254V296.866H95.8074V300.044H94.2254V296.866H87.8554V300.044H94.2254V301.64ZM105.344 303.222H100.57V301.64H105.344V300.044H100.57V298.448H105.344V300.044H106.94V306.4H100.57V304.818H98.9883V303.222H100.57V304.818H105.344V303.222ZM111.699 296.866V295.284H113.295V296.866H111.699ZM111.713 306.4V300.044H110.117V298.448H113.295V306.4H111.713ZM118.071 300.044V301.626H122.831V303.222H124.427V304.818H122.831V303.222H118.071V301.626H116.475V300.044H118.071ZM118.071 300.044V298.448H124.427V300.044H118.071ZM122.831 304.818V306.4H116.475V304.818H122.831ZM127.586 296.866V295.284H129.182V296.866H127.586ZM127.6 306.4V300.044H126.004V298.448H129.182V306.4H127.6ZM138.717 306.4V300.044H133.957V306.4H132.361V298.448H138.717V300.044H140.313V306.4H138.717ZM149.846 300.044H145.086V298.462H151.442V307.996H149.846V306.4H145.086V304.818H143.49V300.044H145.086V304.818H149.846V300.044ZM149.846 307.996V309.578H145.072V307.996H149.846Z" fill="white"/>
</g>
<defs>
<filter id="filter0_d_32_983" x="0" y="0" width="311" height="359" filterUnits="userSpaceOnUse" color-interpolation-filters="sRGB">
<feFlood flood-opacity="0" result="BackgroundImageFix"/>
<feColorMatrix in="SourceAlpha" type="matrix" values="0 0 0 0 0 0 0 0 0 0 0 0 0 0 0 0 0 0 127 0" result="hardAlpha"/>
<feOffset dy="2"/>
<feComposite in2="hardAlpha" operator="out"/>
<feColorMatrix type="matrix" values="0 0 0 0 0.0901961 0 0 0 0 0.72549 0 0 0 0 0.0313726 0 0 0 1 0"/>
<feBlend mode="normal" in2="BackgroundImageFix" result="effect1_dropShadow_32_983"/>
<feBlend mode="normal" in="SourceGraphic" in2="effect1_dropShadow_32_983" result="shape"/>
</filter>
<filter id="filter1_d_32_983" x="20.9" y="150.463" width="267.637" height="16.9375" filterUnits="userSpaceOnUse" color-interpolation-filters="sRGB">
<feFlood flood-opacity="0" result="BackgroundImageFix"/>
<feColorMatrix in="SourceAlpha" type="matrix" values="0 0 0 0 0 0 0 0 0 0 0 0 0 0 0 0 0 0 127 0" result="hardAlpha"/>
<feOffset dy="2"/>
<feComposite in2="hardAlpha" operator="out"/>
<feColorMatrix type="matrix" values="0 0 0 0 1 0 0 0 0 0.882228 0 0 0 0 0.298077 0 0 0 1 0"/>
<feBlend mode="normal" in2="BackgroundImageFix" result="effect1_dropShadow_32_983"/>
<feBlend mode="normal" in="SourceGraphic" in2="effect1_dropShadow_32_983" result="shape"/>
</filter>
<clipPath id="clip0_32_983">
<rect width="63" height="79.8" fill="white" transform="translate(124 44.6001)"/>
</clipPath>
</defs>
</svg>
