<svg width="311" height="374" viewBox="0 0 311 374" fill="none" xmlns="http://www.w3.org/2000/svg">
<g filter="url(#filter0_d_32_886)">
<rect width="311" height="372" fill="#241F42" shape-rendering="crispEdges"/>
<rect x="1" y="1" width="309" height="370" stroke="#392994" stroke-width="2" shape-rendering="crispEdges"/>
<g clip-path="url(#clip0_32_886)">
<path d="M172.3 48.3999H159.7V52.5999H172.3V48.3999Z" fill="#448700"/>
<path d="M151.3 56.7998H147.1V60.9998H151.3V56.7998Z" fill="#448700"/>
<path d="M159.7 52.5999H151.3V56.7999H159.7V52.5999Z" fill="#448700"/>
<path d="M147.1 61H142.9V65.2H147.1V61Z" fill="#448700"/>
<path d="M142.9 65.2H138.7V69.4H142.9V65.2Z" fill="#448700"/>
<path d="M138.7 69.3999H134.5V73.5999H138.7V69.3999Z" fill="#448700"/>
<path d="M134.5 73.5999H130.3V81.9999H134.5V73.5999Z" fill="#448700"/>
<path d="M134.5 98.7998H130.3V107.2H134.5V98.7998Z" fill="#304C0F"/>
<path d="M138.7 107.2H134.5V111.4H138.7V107.2Z" fill="#304C0F"/>
<path d="M172.3 107.2H168.1V111.4H172.3V107.2Z" fill="#662014"/>
<path d="M176.5 103H172.3V107.2H176.5V103Z" fill="#662014"/>
<path d="M176.5 52.5999H172.3V56.7999H176.5V52.5999Z" fill="#304C0F"/>
<path d="M180.7 90.3999H176.5V103H180.7V90.3999Z" fill="#662014"/>
<path d="M184.9 61H180.7V90.4H184.9V61Z" fill="#304C0F"/>
<path d="M180.7 56.7998H176.5V60.9998H180.7V56.7998Z" fill="#304C0F"/>
<path d="M168.1 111.4H138.7V115.6H168.1V111.4Z" fill="#304C0F"/>
<path d="M180.7 61V90.4H176.5V103H172.3V107.2H168.1V111.4H138.7V107.2H159.7V103H163.9V98.8H168.1V90.4H172.3V82H176.5V61H180.7Z" fill="#448700"/>
<path d="M176.5 56.7999V81.9999H172.3V90.3999H168.1V98.7999H163.9V103H159.7V107.2H134.5V98.7999H130.3V81.9999H134.5V73.5999H138.7V69.3999H142.9V65.1999H147.1V60.9999H151.3V56.7999H159.7V52.5999H172.3V56.7999H176.5Z" fill="#DDED8E"/>
<path d="M130.3 82H126.1V98.8H130.3V82Z" fill="#304C0F"/>
<path d="M176.5 61H172.3V82H176.5V61Z" fill="#87D62A"/>
<path d="M172.3 82H168.1V90.4H172.3V82Z" fill="#87D62A"/>
<path d="M168.1 90.3999H163.9V98.7999H168.1V90.3999Z" fill="#87D62A"/>
<path d="M163.9 98.7998H159.7V103H163.9V98.7998Z" fill="#87D62A"/>
<path d="M159.7 103H138.7V107.2H159.7V103Z" fill="#87D62A"/>
<path d="M163.9 77.7999V86.1999H159.7V94.5999H155.5V98.7999H142.9V94.5999H138.7V77.7999H142.9V73.5999H159.7V77.7999H163.9Z" fill="#AF7923"/>
<path d="M147.1 77.7998H142.9V81.9998H147.1V77.7998Z" fill="#F8FFAF"/>
<path d="M163.9 77.7998H159.7V86.1998H163.9V77.7998Z" fill="#991900"/>
<path d="M159.7 86.2H155.5V94.6H159.7V86.2Z" fill="#991900"/>
<path d="M155.5 94.5999H142.9V98.7999H155.5V94.5999Z" fill="#991900"/>
</g>
<g filter="url(#filter1_d_32_886)">
<mask id="path-32-outside-1_32_886" maskUnits="userSpaceOnUse" x="20" y="141.6" width="269" height="55" fill="black">
<rect fill="white" x="20" y="141.6" width="269" height="55"/>
<path d="M79.9875 143.663V145.225H76.8625V154.6H72.175V145.225H69.05V143.663H79.9875ZM93.2875 143.663V154.6H90.1625V149.913H87.0375V154.6H82.35V143.663H87.0375V148.35H90.1625V143.663H93.2875ZM106.588 154.6H95.65V143.663H106.588V145.225H100.338V148.35H105.025V149.913H100.338V153.038H106.588V154.6ZM131.625 153.038V143.663H133.188V153.038H131.633V154.6H123.812V153.038H122.25V143.663H125.375V153.038H126.938V143.663H130.062V153.038H131.625ZM146.488 154.6H135.55V143.663H146.488V145.225H140.238V148.35H144.925V149.913H140.238V153.038H146.488V154.6ZM148.85 154.6V143.663H158.225V145.225H159.788V148.35H158.225V149.913H159.788V153.038H158.225V154.6H148.85ZM153.545 149.913V153.038H156.663V149.913H153.545ZM153.538 145.225V148.35H156.663V145.225H153.538ZM163.712 153.038H162.15V149.913H163.72V153.038H168.4V149.913H165.275V148.35H168.4V145.225H163.72V146.788H162.15V145.225H163.712V143.663H171.525V145.225H173.087V148.35H171.525V149.913H173.087V153.038H171.525V154.6H163.712V153.038ZM199.688 148.35V153.038H198.125V154.6H190.312V153.038H188.75V145.225H190.312V143.663H198.133V145.225H199.688V146.788H198.125V145.225H193.438V153.038H196.562V149.913H195L195.008 148.35H199.688ZM202.05 154.6V145.225H203.613V143.663H211.425V145.225H212.988V154.6H209.863V149.913H206.738V154.6H202.05ZM206.738 145.467V148.35H209.863V145.467H206.738ZM223.163 145.225V154.6H220.038V145.225H218.475V154.6H215.35V143.663H224.733V145.225H226.288V154.6H224.725V145.225H223.163ZM239.588 154.6H228.65V143.663H239.588V145.225H233.338V148.35H238.025V149.913H233.338V153.038H239.588V154.6ZM22.5 174.6V163.663H31.875V165.225H33.4375V173.038H31.875V174.6H22.5ZM27.1953 173.038H30.3125V165.225H27.1875L27.1953 173.038ZM46.7375 174.6H35.8V163.663H46.7375V165.225H40.4875V168.35H45.175V169.913H40.4875V173.038H46.7375V174.6ZM49.1 163.663H53.7875V171.475H55.35V169.913H56.9125V163.663H60.0375V170.225H58.475V171.475H56.9125V173.038H55.35V174.6H53.7875V173.038H52.225V171.475H50.6625V169.913H49.1V163.663ZM73.3375 174.6H62.4V163.663H73.3375V165.225H67.0875V168.35H71.775V169.913H67.0875V173.038H73.3375V174.6ZM86.6375 174.6H75.7V163.663H80.3875V173.038H86.6375V174.6ZM98.375 174.6H90.5625V173.038H89V165.225H90.5625V163.663H98.375V165.225H99.9375V173.038H98.375V174.6ZM96.8125 173.038V165.225H93.6875V173.038H96.8125ZM106.995 169.913L107.011 174.6H102.3V163.663H111.675V165.225H113.238V168.35H111.675V169.913H106.995ZM106.988 165.225V168.35H110.113V165.225H106.988ZM123.412 165.225V174.6H120.287V165.225H118.725V174.6H115.6V163.663H124.983V165.225H126.537V174.6H124.975V165.225H123.412ZM139.838 174.6H128.9V163.663H139.838V165.225H133.588V168.35H138.275V169.913H133.588V173.038H139.838V174.6ZM142.2 174.6V163.663H151.575V165.225H153.137V174.6H150.012V165.225H146.887L146.895 174.6H142.2ZM166.438 163.663V165.225H163.312V174.6H158.625V165.225H155.5V163.663H166.438ZM182.1 171.475H185.225V173.038H189.913V169.913H183.663V168.35H182.1V165.225H183.663V163.663H191.475V165.225H193.038V166.788H189.913V165.225H186.788V168.35H191.475V169.913H193.038V173.038H191.475V174.6H183.663V173.038H182.1V171.475ZM206.337 163.663V165.225H203.212V174.6H198.525V165.225H195.4V163.663H206.337ZM208.7 174.6V165.225H210.262V163.663H218.075V165.225H219.637V174.6H216.512V169.913H213.387V174.6H208.7ZM213.387 165.467V168.35H216.512V165.467H213.387ZM226.688 165.225V173.038H232.938V174.6H223.562V173.038H222V165.225H223.562V163.663H232.938V165.225H226.688ZM239.988 163.663V166.788H241.55V165.225H243.113V163.663H246.238V165.225H244.675V166.788H243.113V168.35H241.55V169.913H244.675V171.475H246.238V174.6H241.55V171.475H239.988V169.913H238.425V174.6H235.3V163.663H239.988ZM271.275 174.6H263.462V173.038H261.9V165.225H263.462V163.663H271.275V165.225H272.837V173.038H271.275V174.6ZM269.712 173.038V165.225H266.587V173.038H269.712ZM275.2 174.6V163.663H284.575V165.225H286.138V174.6H283.013V165.225H279.888L279.895 174.6H275.2ZM116 191.475H119.125V193.038H123.812V189.913H117.562V188.35H116V185.225H117.562V183.663H125.375V185.225H126.938V186.788H123.812V185.225H120.688V188.35H125.375V189.913H126.938V193.038H125.375V194.6H117.562V193.038H116V191.475ZM138.675 194.6H130.863V193.038H129.3V185.225H130.863V183.663H138.675V185.225H140.238V193.038H138.675V194.6ZM137.113 193.038V185.225H133.988V193.038H137.113ZM153.537 194.6H142.6V183.663H147.287V193.038H153.537V194.6ZM155.9 194.6V185.225H157.462V183.663H165.275V185.225H166.837V194.6H163.712V189.913H160.587V194.6H155.9ZM160.587 185.467V188.35H163.712V185.467H160.587ZM169.2 194.6V183.663H178.575V185.225H180.137V194.6H177.012V185.225H173.887L173.895 194.6H169.2ZM182.5 194.6V185.225H184.062V183.663H191.875V185.225H193.438V194.6H190.312V189.913H187.188V194.6H182.5ZM187.188 185.467V188.35H190.312V185.467H187.188Z"/>
</mask>
<path d="M79.9875 143.663V145.225H76.8625V154.6H72.175V145.225H69.05V143.663H79.9875ZM93.2875 143.663V154.6H90.1625V149.913H87.0375V154.6H82.35V143.663H87.0375V148.35H90.1625V143.663H93.2875ZM106.588 154.6H95.65V143.663H106.588V145.225H100.338V148.35H105.025V149.913H100.338V153.038H106.588V154.6ZM131.625 153.038V143.663H133.188V153.038H131.633V154.6H123.812V153.038H122.25V143.663H125.375V153.038H126.938V143.663H130.062V153.038H131.625ZM146.488 154.6H135.55V143.663H146.488V145.225H140.238V148.35H144.925V149.913H140.238V153.038H146.488V154.6ZM148.85 154.6V143.663H158.225V145.225H159.788V148.35H158.225V149.913H159.788V153.038H158.225V154.6H148.85ZM153.545 149.913V153.038H156.663V149.913H153.545ZM153.538 145.225V148.35H156.663V145.225H153.538ZM163.712 153.038H162.15V149.913H163.72V153.038H168.4V149.913H165.275V148.35H168.4V145.225H163.72V146.788H162.15V145.225H163.712V143.663H171.525V145.225H173.087V148.35H171.525V149.913H173.087V153.038H171.525V154.6H163.712V153.038ZM199.688 148.35V153.038H198.125V154.6H190.312V153.038H188.75V145.225H190.312V143.663H198.133V145.225H199.688V146.788H198.125V145.225H193.438V153.038H196.562V149.913H195L195.008 148.35H199.688ZM202.05 154.6V145.225H203.613V143.663H211.425V145.225H212.988V154.6H209.863V149.913H206.738V154.6H202.05ZM206.738 145.467V148.35H209.863V145.467H206.738ZM223.163 145.225V154.6H220.038V145.225H218.475V154.6H215.35V143.663H224.733V145.225H226.288V154.6H224.725V145.225H223.163ZM239.588 154.6H228.65V143.663H239.588V145.225H233.338V148.35H238.025V149.913H233.338V153.038H239.588V154.6ZM22.5 174.6V163.663H31.875V165.225H33.4375V173.038H31.875V174.6H22.5ZM27.1953 173.038H30.3125V165.225H27.1875L27.1953 173.038ZM46.7375 174.6H35.8V163.663H46.7375V165.225H40.4875V168.35H45.175V169.913H40.4875V173.038H46.7375V174.6ZM49.1 163.663H53.7875V171.475H55.35V169.913H56.9125V163.663H60.0375V170.225H58.475V171.475H56.9125V173.038H55.35V174.6H53.7875V173.038H52.225V171.475H50.6625V169.913H49.1V163.663ZM73.3375 174.6H62.4V163.663H73.3375V165.225H67.0875V168.35H71.775V169.913H67.0875V173.038H73.3375V174.6ZM86.6375 174.6H75.7V163.663H80.3875V173.038H86.6375V174.6ZM98.375 174.6H90.5625V173.038H89V165.225H90.5625V163.663H98.375V165.225H99.9375V173.038H98.375V174.6ZM96.8125 173.038V165.225H93.6875V173.038H96.8125ZM106.995 169.913L107.011 174.6H102.3V163.663H111.675V165.225H113.238V168.35H111.675V169.913H106.995ZM106.988 165.225V168.35H110.113V165.225H106.988ZM123.412 165.225V174.6H120.287V165.225H118.725V174.6H115.6V163.663H124.983V165.225H126.537V174.6H124.975V165.225H123.412ZM139.838 174.6H128.9V163.663H139.838V165.225H133.588V168.35H138.275V169.913H133.588V173.038H139.838V174.6ZM142.2 174.6V163.663H151.575V165.225H153.137V174.6H150.012V165.225H146.887L146.895 174.6H142.2ZM166.438 163.663V165.225H163.312V174.6H158.625V165.225H155.5V163.663H166.438ZM182.1 171.475H185.225V173.038H189.913V169.913H183.663V168.35H182.1V165.225H183.663V163.663H191.475V165.225H193.038V166.788H189.913V165.225H186.788V168.35H191.475V169.913H193.038V173.038H191.475V174.6H183.663V173.038H182.1V171.475ZM206.337 163.663V165.225H203.212V174.6H198.525V165.225H195.4V163.663H206.337ZM208.7 174.6V165.225H210.262V163.663H218.075V165.225H219.637V174.6H216.512V169.913H213.387V174.6H208.7ZM213.387 165.467V168.35H216.512V165.467H213.387ZM226.688 165.225V173.038H232.938V174.6H223.562V173.038H222V165.225H223.562V163.663H232.938V165.225H226.688ZM239.988 163.663V166.788H241.55V165.225H243.113V163.663H246.238V165.225H244.675V166.788H243.113V168.35H241.55V169.913H244.675V171.475H246.238V174.6H241.55V171.475H239.988V169.913H238.425V174.6H235.3V163.663H239.988ZM271.275 174.6H263.462V173.038H261.9V165.225H263.462V163.663H271.275V165.225H272.837V173.038H271.275V174.6ZM269.712 173.038V165.225H266.587V173.038H269.712ZM275.2 174.6V163.663H284.575V165.225H286.138V174.6H283.013V165.225H279.888L279.895 174.6H275.2ZM116 191.475H119.125V193.038H123.812V189.913H117.562V188.35H116V185.225H117.562V183.663H125.375V185.225H126.938V186.788H123.812V185.225H120.688V188.35H125.375V189.913H126.938V193.038H125.375V194.6H117.562V193.038H116V191.475ZM138.675 194.6H130.863V193.038H129.3V185.225H130.863V183.663H138.675V185.225H140.238V193.038H138.675V194.6ZM137.113 193.038V185.225H133.988V193.038H137.113ZM153.537 194.6H142.6V183.663H147.287V193.038H153.537V194.6ZM155.9 194.6V185.225H157.462V183.663H165.275V185.225H166.837V194.6H163.712V189.913H160.587V194.6H155.9ZM160.587 185.467V188.35H163.712V185.467H160.587ZM169.2 194.6V183.663H178.575V185.225H180.137V194.6H177.012V185.225H173.887L173.895 194.6H169.2ZM182.5 194.6V185.225H184.062V183.663H191.875V185.225H193.438V194.6H190.312V189.913H187.188V194.6H182.5ZM187.188 185.467V188.35H190.312V185.467H187.188Z" fill="white"/>
<path d="M79.9875 143.663H81.9875V141.663H79.9875V143.663ZM79.9875 145.225V147.225H81.9875V145.225H79.9875ZM76.8625 145.225V143.225H74.8625V145.225H76.8625ZM76.8625 154.6V156.6H78.8625V154.6H76.8625ZM72.175 154.6H70.175V156.6H72.175V154.6ZM72.175 145.225H74.175V143.225H72.175V145.225ZM69.05 145.225H67.05V147.225H69.05V145.225ZM69.05 143.663V141.663H67.05V143.663H69.05ZM79.9875 143.663H77.9875V145.225H79.9875H81.9875V143.663H79.9875ZM79.9875 145.225V143.225H76.8625V145.225V147.225H79.9875V145.225ZM76.8625 145.225H74.8625V154.6H76.8625H78.8625V145.225H76.8625ZM76.8625 154.6V152.6H72.175V154.6V156.6H76.8625V154.6ZM72.175 154.6H74.175V145.225H72.175H70.175V154.6H72.175ZM72.175 145.225V143.225H69.05V145.225V147.225H72.175V145.225ZM69.05 145.225H71.05V143.663H69.05H67.05V145.225H69.05ZM69.05 143.663V145.663H79.9875V143.663V141.663H69.05V143.663ZM93.2875 143.663H95.2875V141.663H93.2875V143.663ZM93.2875 154.6V156.6H95.2875V154.6H93.2875ZM90.1625 154.6H88.1625V156.6H90.1625V154.6ZM90.1625 149.913H92.1625V147.913H90.1625V149.913ZM87.0375 149.913V147.913H85.0375V149.913H87.0375ZM87.0375 154.6V156.6H89.0375V154.6H87.0375ZM82.35 154.6H80.35V156.6H82.35V154.6ZM82.35 143.663V141.663H80.35V143.663H82.35ZM87.0375 143.663H89.0375V141.663H87.0375V143.663ZM87.0375 148.35H85.0375V150.35H87.0375V148.35ZM90.1625 148.35V150.35H92.1625V148.35H90.1625ZM90.1625 143.663V141.663H88.1625V143.663H90.1625ZM93.2875 143.663H91.2875V154.6H93.2875H95.2875V143.663H93.2875ZM93.2875 154.6V152.6H90.1625V154.6V156.6H93.2875V154.6ZM90.1625 154.6H92.1625V149.913H90.1625H88.1625V154.6H90.1625ZM90.1625 149.913V147.913H87.0375V149.913V151.913H90.1625V149.913ZM87.0375 149.913H85.0375V154.6H87.0375H89.0375V149.913H87.0375ZM87.0375 154.6V152.6H82.35V154.6V156.6H87.0375V154.6ZM82.35 154.6H84.35V143.663H82.35H80.35V154.6H82.35ZM82.35 143.663V145.663H87.0375V143.663V141.663H82.35V143.663ZM87.0375 143.663H85.0375V148.35H87.0375H89.0375V143.663H87.0375ZM87.0375 148.35V150.35H90.1625V148.35V146.35H87.0375V148.35ZM90.1625 148.35H92.1625V143.663H90.1625H88.1625V148.35H90.1625ZM90.1625 143.663V145.663H93.2875V143.663V141.663H90.1625V143.663ZM106.588 154.6V156.6H108.588V154.6H106.588ZM95.65 154.6H93.65V156.6H95.65V154.6ZM95.65 143.663V141.663H93.65V143.663H95.65ZM106.588 143.663H108.588V141.663H106.588V143.663ZM106.588 145.225V147.225H108.588V145.225H106.588ZM100.338 145.225V143.225H98.3375V145.225H100.338ZM100.338 148.35H98.3375V150.35H100.338V148.35ZM105.025 148.35H107.025V146.35H105.025V148.35ZM105.025 149.913V151.913H107.025V149.913H105.025ZM100.338 149.913V147.913H98.3375V149.913H100.338ZM100.338 153.038H98.3375V155.038H100.338V153.038ZM106.588 153.038H108.588V151.038H106.588V153.038ZM106.588 154.6V152.6H95.65V154.6V156.6H106.588V154.6ZM95.65 154.6H97.65V143.663H95.65H93.65V154.6H95.65ZM95.65 143.663V145.663H106.588V143.663V141.663H95.65V143.663ZM106.588 143.663H104.588V145.225H106.588H108.588V143.663H106.588ZM106.588 145.225V143.225H100.338V145.225V147.225H106.588V145.225ZM100.338 145.225H98.3375V148.35H100.338H102.338V145.225H100.338ZM100.338 148.35V150.35H105.025V148.35V146.35H100.338V148.35ZM105.025 148.35H103.025V149.913H105.025H107.025V148.35H105.025ZM105.025 149.913V147.913H100.338V149.913V151.913H105.025V149.913ZM100.338 149.913H98.3375V153.038H100.338H102.338V149.913H100.338ZM100.338 153.038V155.038H106.588V153.038V151.038H100.338V153.038ZM106.588 153.038H104.588V154.6H106.588H108.588V153.038H106.588ZM131.625 153.038V155.038H133.625V153.038H131.625ZM131.625 143.663V141.663H129.625V143.663H131.625ZM133.188 143.663H135.188V141.663H133.188V143.663ZM133.188 153.038V155.038H135.188V153.038H133.188ZM131.633 153.038V151.038H129.633V153.038H131.633ZM131.633 154.6V156.6H133.633V154.6H131.633ZM123.812 154.6H121.812V156.6H123.812V154.6ZM123.812 153.038H125.812V151.038H123.812V153.038ZM122.25 153.038H120.25V155.038H122.25V153.038ZM122.25 143.663V141.663H120.25V143.663H122.25ZM125.375 143.663H127.375V141.663H125.375V143.663ZM125.375 153.038H123.375V155.038H125.375V153.038ZM126.938 153.038V155.038H128.938V153.038H126.938ZM126.938 143.663V141.663H124.938V143.663H126.938ZM130.062 143.663H132.062V141.663H130.062V143.663ZM130.062 153.038H128.062V155.038H130.062V153.038ZM131.625 153.038H133.625V143.663H131.625H129.625V153.038H131.625ZM131.625 143.663V145.663H133.188V143.663V141.663H131.625V143.663ZM133.188 143.663H131.188V153.038H133.188H135.188V143.663H133.188ZM133.188 153.038V151.038H131.633V153.038V155.038H133.188V153.038ZM131.633 153.038H129.633V154.6H131.633H133.633V153.038H131.633ZM131.633 154.6V152.6H123.812V154.6V156.6H131.633V154.6ZM123.812 154.6H125.812V153.038H123.812H121.812V154.6H123.812ZM123.812 153.038V151.038H122.25V153.038V155.038H123.812V153.038ZM122.25 153.038H124.25V143.663H122.25H120.25V153.038H122.25ZM122.25 143.663V145.663H125.375V143.663V141.663H122.25V143.663ZM125.375 143.663H123.375V153.038H125.375H127.375V143.663H125.375ZM125.375 153.038V155.038H126.938V153.038V151.038H125.375V153.038ZM126.938 153.038H128.938V143.663H126.938H124.938V153.038H126.938ZM126.938 143.663V145.663H130.062V143.663V141.663H126.938V143.663ZM130.062 143.663H128.062V153.038H130.062H132.062V143.663H130.062ZM130.062 153.038V155.038H131.625V153.038V151.038H130.062V153.038ZM146.488 154.6V156.6H148.488V154.6H146.488ZM135.55 154.6H133.55V156.6H135.55V154.6ZM135.55 143.663V141.663H133.55V143.663H135.55ZM146.488 143.663H148.488V141.663H146.488V143.663ZM146.488 145.225V147.225H148.488V145.225H146.488ZM140.238 145.225V143.225H138.238V145.225H140.238ZM140.238 148.35H138.238V150.35H140.238V148.35ZM144.925 148.35H146.925V146.35H144.925V148.35ZM144.925 149.913V151.913H146.925V149.913H144.925ZM140.238 149.913V147.913H138.238V149.913H140.238ZM140.238 153.038H138.238V155.038H140.238V153.038ZM146.488 153.038H148.488V151.038H146.488V153.038ZM146.488 154.6V152.6H135.55V154.6V156.6H146.488V154.6ZM135.55 154.6H137.55V143.663H135.55H133.55V154.6H135.55ZM135.55 143.663V145.663H146.488V143.663V141.663H135.55V143.663ZM146.488 143.663H144.488V145.225H146.488H148.488V143.663H146.488ZM146.488 145.225V143.225H140.238V145.225V147.225H146.488V145.225ZM140.238 145.225H138.238V148.35H140.238H142.238V145.225H140.238ZM140.238 148.35V150.35H144.925V148.35V146.35H140.238V148.35ZM144.925 148.35H142.925V149.913H144.925H146.925V148.35H144.925ZM144.925 149.913V147.913H140.238V149.913V151.913H144.925V149.913ZM140.238 149.913H138.238V153.038H140.238H142.238V149.913H140.238ZM140.238 153.038V155.038H146.488V153.038V151.038H140.238V153.038ZM146.488 153.038H144.488V154.6H146.488H148.488V153.038H146.488ZM148.85 154.6H146.85V156.6H148.85V154.6ZM148.85 143.663V141.663H146.85V143.663H148.85ZM158.225 143.663H160.225V141.663H158.225V143.663ZM158.225 145.225H156.225V147.225H158.225V145.225ZM159.788 145.225H161.788V143.225H159.788V145.225ZM159.788 148.35V150.35H161.788V148.35H159.788ZM158.225 148.35V146.35H156.225V148.35H158.225ZM158.225 149.913H156.225V151.913H158.225V149.913ZM159.788 149.913H161.788V147.913H159.788V149.913ZM159.788 153.038V155.038H161.788V153.038H159.788ZM158.225 153.038V151.038H156.225V153.038H158.225ZM158.225 154.6V156.6H160.225V154.6H158.225ZM153.545 149.913V147.913H151.545V149.913H153.545ZM153.545 153.038H151.545V155.038H153.545V153.038ZM156.663 153.038V155.038H158.663V153.038H156.663ZM156.663 149.913H158.663V147.913H156.663V149.913ZM153.538 145.225V143.225H151.538V145.225H153.538ZM153.538 148.35H151.538V150.35H153.538V148.35ZM156.663 148.35V150.35H158.663V148.35H156.663ZM156.663 145.225H158.663V143.225H156.663V145.225ZM148.85 154.6H150.85V143.663H148.85H146.85V154.6H148.85ZM148.85 143.663V145.663H158.225V143.663V141.663H148.85V143.663ZM158.225 143.663H156.225V145.225H158.225H160.225V143.663H158.225ZM158.225 145.225V147.225H159.788V145.225V143.225H158.225V145.225ZM159.788 145.225H157.788V148.35H159.788H161.788V145.225H159.788ZM159.788 148.35V146.35H158.225V148.35V150.35H159.788V148.35ZM158.225 148.35H156.225V149.913H158.225H160.225V148.35H158.225ZM158.225 149.913V151.913H159.788V149.913V147.913H158.225V149.913ZM159.788 149.913H157.788V153.038H159.788H161.788V149.913H159.788ZM159.788 153.038V151.038H158.225V153.038V155.038H159.788V153.038ZM158.225 153.038H156.225V154.6H158.225H160.225V153.038H158.225ZM158.225 154.6V152.6H148.85V154.6V156.6H158.225V154.6ZM153.545 149.913H151.545V153.038H153.545H155.545V149.913H153.545ZM153.545 153.038V155.038H156.663V153.038V151.038H153.545V153.038ZM156.663 153.038H158.663V149.913H156.663H154.663V153.038H156.663ZM156.663 149.913V147.913H153.545V149.913V151.913H156.663V149.913ZM153.538 145.225H151.538V148.35H153.538H155.538V145.225H153.538ZM153.538 148.35V150.35H156.663V148.35V146.35H153.538V148.35ZM156.663 148.35H158.663V145.225H156.663H154.663V148.35H156.663ZM156.663 145.225V143.225H153.538V145.225V147.225H156.663V145.225ZM163.712 153.038H165.712V151.038H163.712V153.038ZM162.15 153.038H160.15V155.038H162.15V153.038ZM162.15 149.913V147.913H160.15V149.913H162.15ZM163.72 149.913H165.72V147.913H163.72V149.913ZM163.72 153.038H161.72V155.038H163.72V153.038ZM168.4 153.038V155.038H170.4V153.038H168.4ZM168.4 149.913H170.4V147.913H168.4V149.913ZM165.275 149.913H163.275V151.913H165.275V149.913ZM165.275 148.35V146.35H163.275V148.35H165.275ZM168.4 148.35V150.35H170.4V148.35H168.4ZM168.4 145.225H170.4V143.225H168.4V145.225ZM163.72 145.225V143.225H161.72V145.225H163.72ZM163.72 146.788V148.788H165.72V146.788H163.72ZM162.15 146.788H160.15V148.788H162.15V146.788ZM162.15 145.225V143.225H160.15V145.225H162.15ZM163.712 145.225V147.225H165.712V145.225H163.712ZM163.712 143.663V141.663H161.712V143.663H163.712ZM171.525 143.663H173.525V141.663H171.525V143.663ZM171.525 145.225H169.525V147.225H171.525V145.225ZM173.087 145.225H175.087V143.225H173.087V145.225ZM173.087 148.35V150.35H175.087V148.35H173.087ZM171.525 148.35V146.35H169.525V148.35H171.525ZM171.525 149.913H169.525V151.913H171.525V149.913ZM173.087 149.913H175.087V147.913H173.087V149.913ZM173.087 153.038V155.038H175.087V153.038H173.087ZM171.525 153.038V151.038H169.525V153.038H171.525ZM171.525 154.6V156.6H173.525V154.6H171.525ZM163.712 154.6H161.712V156.6H163.712V154.6ZM163.712 153.038V151.038H162.15V153.038V155.038H163.712V153.038ZM162.15 153.038H164.15V149.913H162.15H160.15V153.038H162.15ZM162.15 149.913V151.913H163.72V149.913V147.913H162.15V149.913ZM163.72 149.913H161.72V153.038H163.72H165.72V149.913H163.72ZM163.72 153.038V155.038H168.4V153.038V151.038H163.72V153.038ZM168.4 153.038H170.4V149.913H168.4H166.4V153.038H168.4ZM168.4 149.913V147.913H165.275V149.913V151.913H168.4V149.913ZM165.275 149.913H167.275V148.35H165.275H163.275V149.913H165.275ZM165.275 148.35V150.35H168.4V148.35V146.35H165.275V148.35ZM168.4 148.35H170.4V145.225H168.4H166.4V148.35H168.4ZM168.4 145.225V143.225H163.72V145.225V147.225H168.4V145.225ZM163.72 145.225H161.72V146.788H163.72H165.72V145.225H163.72ZM163.72 146.788V144.788H162.15V146.788V148.788H163.72V146.788ZM162.15 146.788H164.15V145.225H162.15H160.15V146.788H162.15ZM162.15 145.225V147.225H163.712V145.225V143.225H162.15V145.225ZM163.712 145.225H165.712V143.663H163.712H161.712V145.225H163.712ZM163.712 143.663V145.663H171.525V143.663V141.663H163.712V143.663ZM171.525 143.663H169.525V145.225H171.525H173.525V143.663H171.525ZM171.525 145.225V147.225H173.087V145.225V143.225H171.525V145.225ZM173.087 145.225H171.087V148.35H173.087H175.087V145.225H173.087ZM173.087 148.35V146.35H171.525V148.35V150.35H173.087V148.35ZM171.525 148.35H169.525V149.913H171.525H173.525V148.35H171.525ZM171.525 149.913V151.913H173.087V149.913V147.913H171.525V149.913ZM173.087 149.913H171.087V153.038H173.087H175.087V149.913H173.087ZM173.087 153.038V151.038H171.525V153.038V155.038H173.087V153.038ZM171.525 153.038H169.525V154.6H171.525H173.525V153.038H171.525ZM171.525 154.6V152.6H163.712V154.6V156.6H171.525V154.6ZM163.712 154.6H165.712V153.038H163.712H161.712V154.6H163.712ZM199.688 148.35H201.688V146.35H199.688V148.35ZM199.688 153.038V155.038H201.688V153.038H199.688ZM198.125 153.038V151.038H196.125V153.038H198.125ZM198.125 154.6V156.6H200.125V154.6H198.125ZM190.312 154.6H188.312V156.6H190.312V154.6ZM190.312 153.038H192.312V151.038H190.312V153.038ZM188.75 153.038H186.75V155.038H188.75V153.038ZM188.75 145.225V143.225H186.75V145.225H188.75ZM190.312 145.225V147.225H192.312V145.225H190.312ZM190.312 143.663V141.663H188.312V143.663H190.312ZM198.133 143.663H200.133V141.663H198.133V143.663ZM198.133 145.225H196.133V147.225H198.133V145.225ZM199.688 145.225H201.688V143.225H199.688V145.225ZM199.688 146.788V148.788H201.688V146.788H199.688ZM198.125 146.788H196.125V148.788H198.125V146.788ZM198.125 145.225H200.125V143.225H198.125V145.225ZM193.438 145.225V143.225H191.438V145.225H193.438ZM193.438 153.038H191.438V155.038H193.438V153.038ZM196.562 153.038V155.038H198.562V153.038H196.562ZM196.562 149.913H198.562V147.913H196.562V149.913ZM195 149.913L193 149.903L192.99 151.913H195V149.913ZM195.008 148.35V146.35H193.018L193.008 148.34L195.008 148.35ZM199.688 148.35H197.688V153.038H199.688H201.688V148.35H199.688ZM199.688 153.038V151.038H198.125V153.038V155.038H199.688V153.038ZM198.125 153.038H196.125V154.6H198.125H200.125V153.038H198.125ZM198.125 154.6V152.6H190.312V154.6V156.6H198.125V154.6ZM190.312 154.6H192.312V153.038H190.312H188.312V154.6H190.312ZM190.312 153.038V151.038H188.75V153.038V155.038H190.312V153.038ZM188.75 153.038H190.75V145.225H188.75H186.75V153.038H188.75ZM188.75 145.225V147.225H190.312V145.225V143.225H188.75V145.225ZM190.312 145.225H192.312V143.663H190.312H188.312V145.225H190.312ZM190.312 143.663V145.663H198.133V143.663V141.663H190.312V143.663ZM198.133 143.663H196.133V145.225H198.133H200.133V143.663H198.133ZM198.133 145.225V147.225H199.688V145.225V143.225H198.133V145.225ZM199.688 145.225H197.688V146.788H199.688H201.688V145.225H199.688ZM199.688 146.788V144.788H198.125V146.788V148.788H199.688V146.788ZM198.125 146.788H200.125V145.225H198.125H196.125V146.788H198.125ZM198.125 145.225V143.225H193.438V145.225V147.225H198.125V145.225ZM193.438 145.225H191.438V153.038H193.438H195.438V145.225H193.438ZM193.438 153.038V155.038H196.562V153.038V151.038H193.438V153.038ZM196.562 153.038H198.562V149.913H196.562H194.562V153.038H196.562ZM196.562 149.913V147.913H195V149.913V151.913H196.562V149.913ZM195 149.913L197 149.923L197.008 148.36L195.008 148.35L193.008 148.34L193 149.903L195 149.913ZM195.008 148.35V150.35H199.688V148.35V146.35H195.008V148.35ZM202.05 154.6H200.05V156.6H202.05V154.6ZM202.05 145.225V143.225H200.05V145.225H202.05ZM203.613 145.225V147.225H205.613V145.225H203.613ZM203.613 143.663V141.663H201.613V143.663H203.613ZM211.425 143.663H213.425V141.663H211.425V143.663ZM211.425 145.225H209.425V147.225H211.425V145.225ZM212.988 145.225H214.988V143.225H212.988V145.225ZM212.988 154.6V156.6H214.988V154.6H212.988ZM209.863 154.6H207.863V156.6H209.863V154.6ZM209.863 149.913H211.863V147.913H209.863V149.913ZM206.738 149.913V147.913H204.738V149.913H206.738ZM206.738 154.6V156.6H208.738V154.6H206.738ZM206.738 145.467V143.467H204.738V145.467H206.738ZM206.738 148.35H204.738V150.35H206.738V148.35ZM209.863 148.35V150.35H211.863V148.35H209.863ZM209.863 145.467H211.863V143.467H209.863V145.467ZM202.05 154.6H204.05V145.225H202.05H200.05V154.6H202.05ZM202.05 145.225V147.225H203.613V145.225V143.225H202.05V145.225ZM203.613 145.225H205.613V143.663H203.613H201.613V145.225H203.613ZM203.613 143.663V145.663H211.425V143.663V141.663H203.613V143.663ZM211.425 143.663H209.425V145.225H211.425H213.425V143.663H211.425ZM211.425 145.225V147.225H212.988V145.225V143.225H211.425V145.225ZM212.988 145.225H210.988V154.6H212.988H214.988V145.225H212.988ZM212.988 154.6V152.6H209.863V154.6V156.6H212.988V154.6ZM209.863 154.6H211.863V149.913H209.863H207.863V154.6H209.863ZM209.863 149.913V147.913H206.738V149.913V151.913H209.863V149.913ZM206.738 149.913H204.738V154.6H206.738H208.738V149.913H206.738ZM206.738 154.6V152.6H202.05V154.6V156.6H206.738V154.6ZM206.738 145.467H204.738V148.35H206.738H208.738V145.467H206.738ZM206.738 148.35V150.35H209.863V148.35V146.35H206.738V148.35ZM209.863 148.35H211.863V145.467H209.863H207.863V148.35H209.863ZM209.863 145.467V143.467H206.738V145.467V147.467H209.863V145.467ZM223.163 145.225V143.225H221.163V145.225H223.163ZM223.163 154.6V156.6H225.163V154.6H223.163ZM220.038 154.6H218.038V156.6H220.038V154.6ZM220.038 145.225H222.038V143.225H220.038V145.225ZM218.475 145.225V143.225H216.475V145.225H218.475ZM218.475 154.6V156.6H220.475V154.6H218.475ZM215.35 154.6H213.35V156.6H215.35V154.6ZM215.35 143.663V141.663H213.35V143.663H215.35ZM224.733 143.663H226.733V141.663H224.733V143.663ZM224.733 145.225H222.733V147.225H224.733V145.225ZM226.288 145.225H228.288V143.225H226.288V145.225ZM226.288 154.6V156.6H228.288V154.6H226.288ZM224.725 154.6H222.725V156.6H224.725V154.6ZM224.725 145.225H226.725V143.225H224.725V145.225ZM223.163 145.225H221.163V154.6H223.163H225.163V145.225H223.163ZM223.163 154.6V152.6H220.038V154.6V156.6H223.163V154.6ZM220.038 154.6H222.038V145.225H220.038H218.038V154.6H220.038ZM220.038 145.225V143.225H218.475V145.225V147.225H220.038V145.225ZM218.475 145.225H216.475V154.6H218.475H220.475V145.225H218.475ZM218.475 154.6V152.6H215.35V154.6V156.6H218.475V154.6ZM215.35 154.6H217.35V143.663H215.35H213.35V154.6H215.35ZM215.35 143.663V145.663H224.733V143.663V141.663H215.35V143.663ZM224.733 143.663H222.733V145.225H224.733H226.733V143.663H224.733ZM224.733 145.225V147.225H226.288V145.225V143.225H224.733V145.225ZM226.288 145.225H224.288V154.6H226.288H228.288V145.225H226.288ZM226.288 154.6V152.6H224.725V154.6V156.6H226.288V154.6ZM224.725 154.6H226.725V145.225H224.725H222.725V154.6H224.725ZM224.725 145.225V143.225H223.163V145.225V147.225H224.725V145.225ZM239.588 154.6V156.6H241.588V154.6H239.588ZM228.65 154.6H226.65V156.6H228.65V154.6ZM228.65 143.663V141.663H226.65V143.663H228.65ZM239.588 143.663H241.588V141.663H239.588V143.663ZM239.588 145.225V147.225H241.588V145.225H239.588ZM233.338 145.225V143.225H231.338V145.225H233.338ZM233.338 148.35H231.338V150.35H233.338V148.35ZM238.025 148.35H240.025V146.35H238.025V148.35ZM238.025 149.913V151.913H240.025V149.913H238.025ZM233.338 149.913V147.913H231.338V149.913H233.338ZM233.338 153.038H231.338V155.038H233.338V153.038ZM239.588 153.038H241.588V151.038H239.588V153.038ZM239.588 154.6V152.6H228.65V154.6V156.6H239.588V154.6ZM228.65 154.6H230.65V143.663H228.65H226.65V154.6H228.65ZM228.65 143.663V145.663H239.588V143.663V141.663H228.65V143.663ZM239.588 143.663H237.588V145.225H239.588H241.588V143.663H239.588ZM239.588 145.225V143.225H233.338V145.225V147.225H239.588V145.225ZM233.338 145.225H231.338V148.35H233.338H235.338V145.225H233.338ZM233.338 148.35V150.35H238.025V148.35V146.35H233.338V148.35ZM238.025 148.35H236.025V149.913H238.025H240.025V148.35H238.025ZM238.025 149.913V147.913H233.338V149.913V151.913H238.025V149.913ZM233.338 149.913H231.338V153.038H233.338H235.338V149.913H233.338ZM233.338 153.038V155.038H239.588V153.038V151.038H233.338V153.038ZM239.588 153.038H237.588V154.6H239.588H241.588V153.038H239.588ZM22.5 174.6H20.5V176.6H22.5V174.6ZM22.5 163.663V161.663H20.5V163.663H22.5ZM31.875 163.663H33.875V161.663H31.875V163.663ZM31.875 165.225H29.875V167.225H31.875V165.225ZM33.4375 165.225H35.4375V163.225H33.4375V165.225ZM33.4375 173.038V175.038H35.4375V173.038H33.4375ZM31.875 173.038V171.038H29.875V173.038H31.875ZM31.875 174.6V176.6H33.875V174.6H31.875ZM27.1953 173.038L25.1953 173.04L25.1973 175.038H27.1953V173.038ZM30.3125 173.038V175.038H32.3125V173.038H30.3125ZM30.3125 165.225H32.3125V163.225H30.3125V165.225ZM27.1875 165.225V163.225H25.1855L25.1875 165.227L27.1875 165.225ZM22.5 174.6H24.5V163.663H22.5H20.5V174.6H22.5ZM22.5 163.663V165.663H31.875V163.663V161.663H22.5V163.663ZM31.875 163.663H29.875V165.225H31.875H33.875V163.663H31.875ZM31.875 165.225V167.225H33.4375V165.225V163.225H31.875V165.225ZM33.4375 165.225H31.4375V173.038H33.4375H35.4375V165.225H33.4375ZM33.4375 173.038V171.038H31.875V173.038V175.038H33.4375V173.038ZM31.875 173.038H29.875V174.6H31.875H33.875V173.038H31.875ZM31.875 174.6V172.6H22.5V174.6V176.6H31.875V174.6ZM27.1953 173.038V175.038H30.3125V173.038V171.038H27.1953V173.038ZM30.3125 173.038H32.3125V165.225H30.3125H28.3125V173.038H30.3125ZM30.3125 165.225V163.225H27.1875V165.225V167.225H30.3125V165.225ZM27.1875 165.225L25.1875 165.227L25.1953 173.04L27.1953 173.038L29.1953 173.036L29.1875 165.223L27.1875 165.225ZM46.7375 174.6V176.6H48.7375V174.6H46.7375ZM35.8 174.6H33.8V176.6H35.8V174.6ZM35.8 163.663V161.663H33.8V163.663H35.8ZM46.7375 163.663H48.7375V161.663H46.7375V163.663ZM46.7375 165.225V167.225H48.7375V165.225H46.7375ZM40.4875 165.225V163.225H38.4875V165.225H40.4875ZM40.4875 168.35H38.4875V170.35H40.4875V168.35ZM45.175 168.35H47.175V166.35H45.175V168.35ZM45.175 169.913V171.913H47.175V169.913H45.175ZM40.4875 169.913V167.913H38.4875V169.913H40.4875ZM40.4875 173.038H38.4875V175.038H40.4875V173.038ZM46.7375 173.038H48.7375V171.038H46.7375V173.038ZM46.7375 174.6V172.6H35.8V174.6V176.6H46.7375V174.6ZM35.8 174.6H37.8V163.663H35.8H33.8V174.6H35.8ZM35.8 163.663V165.663H46.7375V163.663V161.663H35.8V163.663ZM46.7375 163.663H44.7375V165.225H46.7375H48.7375V163.663H46.7375ZM46.7375 165.225V163.225H40.4875V165.225V167.225H46.7375V165.225ZM40.4875 165.225H38.4875V168.35H40.4875H42.4875V165.225H40.4875ZM40.4875 168.35V170.35H45.175V168.35V166.35H40.4875V168.35ZM45.175 168.35H43.175V169.913H45.175H47.175V168.35H45.175ZM45.175 169.913V167.913H40.4875V169.913V171.913H45.175V169.913ZM40.4875 169.913H38.4875V173.038H40.4875H42.4875V169.913H40.4875ZM40.4875 173.038V175.038H46.7375V173.038V171.038H40.4875V173.038ZM46.7375 173.038H44.7375V174.6H46.7375H48.7375V173.038H46.7375ZM49.1 163.663V161.663H47.1V163.663H49.1ZM53.7875 163.663H55.7875V161.663H53.7875V163.663ZM53.7875 171.475H51.7875V173.475H53.7875V171.475ZM55.35 171.475V173.475H57.35V171.475H55.35ZM55.35 169.913V167.913H53.35V169.913H55.35ZM56.9125 169.913V171.913H58.9125V169.913H56.9125ZM56.9125 163.663V161.663H54.9125V163.663H56.9125ZM60.0375 163.663H62.0375V161.663H60.0375V163.663ZM60.0375 170.225V172.225H62.0375V170.225H60.0375ZM58.475 170.225V168.225H56.475V170.225H58.475ZM58.475 171.475V173.475H60.475V171.475H58.475ZM56.9125 171.475V169.475H54.9125V171.475H56.9125ZM56.9125 173.038V175.038H58.9125V173.038H56.9125ZM55.35 173.038V171.038H53.35V173.038H55.35ZM55.35 174.6V176.6H57.35V174.6H55.35ZM53.7875 174.6H51.7875V176.6H53.7875V174.6ZM53.7875 173.038H55.7875V171.038H53.7875V173.038ZM52.225 173.038H50.225V175.038H52.225V173.038ZM52.225 171.475H54.225V169.475H52.225V171.475ZM50.6625 171.475H48.6625V173.475H50.6625V171.475ZM50.6625 169.913H52.6625V167.913H50.6625V169.913ZM49.1 169.913H47.1V171.913H49.1V169.913ZM49.1 163.663V165.663H53.7875V163.663V161.663H49.1V163.663ZM53.7875 163.663H51.7875V171.475H53.7875H55.7875V163.663H53.7875ZM53.7875 171.475V173.475H55.35V171.475V169.475H53.7875V171.475ZM55.35 171.475H57.35V169.913H55.35H53.35V171.475H55.35ZM55.35 169.913V171.913H56.9125V169.913V167.913H55.35V169.913ZM56.9125 169.913H58.9125V163.663H56.9125H54.9125V169.913H56.9125ZM56.9125 163.663V165.663H60.0375V163.663V161.663H56.9125V163.663ZM60.0375 163.663H58.0375V170.225H60.0375H62.0375V163.663H60.0375ZM60.0375 170.225V168.225H58.475V170.225V172.225H60.0375V170.225ZM58.475 170.225H56.475V171.475H58.475H60.475V170.225H58.475ZM58.475 171.475V169.475H56.9125V171.475V173.475H58.475V171.475ZM56.9125 171.475H54.9125V173.038H56.9125H58.9125V171.475H56.9125ZM56.9125 173.038V171.038H55.35V173.038V175.038H56.9125V173.038ZM55.35 173.038H53.35V174.6H55.35H57.35V173.038H55.35ZM55.35 174.6V172.6H53.7875V174.6V176.6H55.35V174.6ZM53.7875 174.6H55.7875V173.038H53.7875H51.7875V174.6H53.7875ZM53.7875 173.038V171.038H52.225V173.038V175.038H53.7875V173.038ZM52.225 173.038H54.225V171.475H52.225H50.225V173.038H52.225ZM52.225 171.475V169.475H50.6625V171.475V173.475H52.225V171.475ZM50.6625 171.475H52.6625V169.913H50.6625H48.6625V171.475H50.6625ZM50.6625 169.913V167.913H49.1V169.913V171.913H50.6625V169.913ZM49.1 169.913H51.1V163.663H49.1H47.1V169.913H49.1ZM73.3375 174.6V176.6H75.3375V174.6H73.3375ZM62.4 174.6H60.4V176.6H62.4V174.6ZM62.4 163.663V161.663H60.4V163.663H62.4ZM73.3375 163.663H75.3375V161.663H73.3375V163.663ZM73.3375 165.225V167.225H75.3375V165.225H73.3375ZM67.0875 165.225V163.225H65.0875V165.225H67.0875ZM67.0875 168.35H65.0875V170.35H67.0875V168.35ZM71.775 168.35H73.775V166.35H71.775V168.35ZM71.775 169.913V171.913H73.775V169.913H71.775ZM67.0875 169.913V167.913H65.0875V169.913H67.0875ZM67.0875 173.038H65.0875V175.038H67.0875V173.038ZM73.3375 173.038H75.3375V171.038H73.3375V173.038ZM73.3375 174.6V172.6H62.4V174.6V176.6H73.3375V174.6ZM62.4 174.6H64.4V163.663H62.4H60.4V174.6H62.4ZM62.4 163.663V165.663H73.3375V163.663V161.663H62.4V163.663ZM73.3375 163.663H71.3375V165.225H73.3375H75.3375V163.663H73.3375ZM73.3375 165.225V163.225H67.0875V165.225V167.225H73.3375V165.225ZM67.0875 165.225H65.0875V168.35H67.0875H69.0875V165.225H67.0875ZM67.0875 168.35V170.35H71.775V168.35V166.35H67.0875V168.35ZM71.775 168.35H69.775V169.913H71.775H73.775V168.35H71.775ZM71.775 169.913V167.913H67.0875V169.913V171.913H71.775V169.913ZM67.0875 169.913H65.0875V173.038H67.0875H69.0875V169.913H67.0875ZM67.0875 173.038V175.038H73.3375V173.038V171.038H67.0875V173.038ZM73.3375 173.038H71.3375V174.6H73.3375H75.3375V173.038H73.3375ZM86.6375 174.6V176.6H88.6375V174.6H86.6375ZM75.7 174.6H73.7V176.6H75.7V174.6ZM75.7 163.663V161.663H73.7V163.663H75.7ZM80.3875 163.663H82.3875V161.663H80.3875V163.663ZM80.3875 173.038H78.3875V175.038H80.3875V173.038ZM86.6375 173.038H88.6375V171.038H86.6375V173.038ZM86.6375 174.6V172.6H75.7V174.6V176.6H86.6375V174.6ZM75.7 174.6H77.7V163.663H75.7H73.7V174.6H75.7ZM75.7 163.663V165.663H80.3875V163.663V161.663H75.7V163.663ZM80.3875 163.663H78.3875V173.038H80.3875H82.3875V163.663H80.3875ZM80.3875 173.038V175.038H86.6375V173.038V171.038H80.3875V173.038ZM86.6375 173.038H84.6375V174.6H86.6375H88.6375V173.038H86.6375ZM98.375 174.6V176.6H100.375V174.6H98.375ZM90.5625 174.6H88.5625V176.6H90.5625V174.6ZM90.5625 173.038H92.5625V171.038H90.5625V173.038ZM89 173.038H87V175.038H89V173.038ZM89 165.225V163.225H87V165.225H89ZM90.5625 165.225V167.225H92.5625V165.225H90.5625ZM90.5625 163.663V161.663H88.5625V163.663H90.5625ZM98.375 163.663H100.375V161.663H98.375V163.663ZM98.375 165.225H96.375V167.225H98.375V165.225ZM99.9375 165.225H101.938V163.225H99.9375V165.225ZM99.9375 173.038V175.038H101.938V173.038H99.9375ZM98.375 173.038V171.038H96.375V173.038H98.375ZM96.8125 173.038V175.038H98.8125V173.038H96.8125ZM96.8125 165.225H98.8125V163.225H96.8125V165.225ZM93.6875 165.225V163.225H91.6875V165.225H93.6875ZM93.6875 173.038H91.6875V175.038H93.6875V173.038ZM98.375 174.6V172.6H90.5625V174.6V176.6H98.375V174.6ZM90.5625 174.6H92.5625V173.038H90.5625H88.5625V174.6H90.5625ZM90.5625 173.038V171.038H89V173.038V175.038H90.5625V173.038ZM89 173.038H91V165.225H89H87V173.038H89ZM89 165.225V167.225H90.5625V165.225V163.225H89V165.225ZM90.5625 165.225H92.5625V163.663H90.5625H88.5625V165.225H90.5625ZM90.5625 163.663V165.663H98.375V163.663V161.663H90.5625V163.663ZM98.375 163.663H96.375V165.225H98.375H100.375V163.663H98.375ZM98.375 165.225V167.225H99.9375V165.225V163.225H98.375V165.225ZM99.9375 165.225H97.9375V173.038H99.9375H101.938V165.225H99.9375ZM99.9375 173.038V171.038H98.375V173.038V175.038H99.9375V173.038ZM98.375 173.038H96.375V174.6H98.375H100.375V173.038H98.375ZM96.8125 173.038H98.8125V165.225H96.8125H94.8125V173.038H96.8125ZM96.8125 165.225V163.225H93.6875V165.225V167.225H96.8125V165.225ZM93.6875 165.225H91.6875V173.038H93.6875H95.6875V165.225H93.6875ZM93.6875 173.038V175.038H96.8125V173.038V171.038H93.6875V173.038ZM106.995 169.913V167.913H104.989L104.995 169.919L106.995 169.913ZM107.011 174.6V176.6H109.018L109.011 174.593L107.011 174.6ZM102.3 174.6H100.3V176.6H102.3V174.6ZM102.3 163.663V161.663H100.3V163.663H102.3ZM111.675 163.663H113.675V161.663H111.675V163.663ZM111.675 165.225H109.675V167.225H111.675V165.225ZM113.238 165.225H115.238V163.225H113.238V165.225ZM113.238 168.35V170.35H115.238V168.35H113.238ZM111.675 168.35V166.35H109.675V168.35H111.675ZM111.675 169.913V171.913H113.675V169.913H111.675ZM106.988 165.225V163.225H104.988V165.225H106.988ZM106.988 168.35H104.988V170.35H106.988V168.35ZM110.113 168.35V170.35H112.113V168.35H110.113ZM110.113 165.225H112.113V163.225H110.113V165.225ZM106.995 169.913L104.995 169.919L105.011 174.607L107.011 174.6L109.011 174.593L108.995 169.906L106.995 169.913ZM107.011 174.6V172.6H102.3V174.6V176.6H107.011V174.6ZM102.3 174.6H104.3V163.663H102.3H100.3V174.6H102.3ZM102.3 163.663V165.663H111.675V163.663V161.663H102.3V163.663ZM111.675 163.663H109.675V165.225H111.675H113.675V163.663H111.675ZM111.675 165.225V167.225H113.238V165.225V163.225H111.675V165.225ZM113.238 165.225H111.238V168.35H113.238H115.238V165.225H113.238ZM113.238 168.35V166.35H111.675V168.35V170.35H113.238V168.35ZM111.675 168.35H109.675V169.913H111.675H113.675V168.35H111.675ZM111.675 169.913V167.913H106.995V169.913V171.913H111.675V169.913ZM106.988 165.225H104.988V168.35H106.988H108.988V165.225H106.988ZM106.988 168.35V170.35H110.113V168.35V166.35H106.988V168.35ZM110.113 168.35H112.113V165.225H110.113H108.113V168.35H110.113ZM110.113 165.225V163.225H106.988V165.225V167.225H110.113V165.225ZM123.412 165.225V163.225H121.412V165.225H123.412ZM123.412 174.6V176.6H125.412V174.6H123.412ZM120.287 174.6H118.287V176.6H120.287V174.6ZM120.287 165.225H122.287V163.225H120.287V165.225ZM118.725 165.225V163.225H116.725V165.225H118.725ZM118.725 174.6V176.6H120.725V174.6H118.725ZM115.6 174.6H113.6V176.6H115.6V174.6ZM115.6 163.663V161.663H113.6V163.663H115.6ZM124.983 163.663H126.983V161.663H124.983V163.663ZM124.983 165.225H122.983V167.225H124.983V165.225ZM126.537 165.225H128.537V163.225H126.537V165.225ZM126.537 174.6V176.6H128.537V174.6H126.537ZM124.975 174.6H122.975V176.6H124.975V174.6ZM124.975 165.225H126.975V163.225H124.975V165.225ZM123.412 165.225H121.412V174.6H123.412H125.412V165.225H123.412ZM123.412 174.6V172.6H120.287V174.6V176.6H123.412V174.6ZM120.287 174.6H122.287V165.225H120.287H118.287V174.6H120.287ZM120.287 165.225V163.225H118.725V165.225V167.225H120.287V165.225ZM118.725 165.225H116.725V174.6H118.725H120.725V165.225H118.725ZM118.725 174.6V172.6H115.6V174.6V176.6H118.725V174.6ZM115.6 174.6H117.6V163.663H115.6H113.6V174.6H115.6ZM115.6 163.663V165.663H124.983V163.663V161.663H115.6V163.663ZM124.983 163.663H122.983V165.225H124.983H126.983V163.663H124.983ZM124.983 165.225V167.225H126.537V165.225V163.225H124.983V165.225ZM126.537 165.225H124.537V174.6H126.537H128.537V165.225H126.537ZM126.537 174.6V172.6H124.975V174.6V176.6H126.537V174.6ZM124.975 174.6H126.975V165.225H124.975H122.975V174.6H124.975ZM124.975 165.225V163.225H123.412V165.225V167.225H124.975V165.225ZM139.838 174.6V176.6H141.838V174.6H139.838ZM128.9 174.6H126.9V176.6H128.9V174.6ZM128.9 163.663V161.663H126.9V163.663H128.9ZM139.838 163.663H141.838V161.663H139.838V163.663ZM139.838 165.225V167.225H141.838V165.225H139.838ZM133.588 165.225V163.225H131.588V165.225H133.588ZM133.588 168.35H131.588V170.35H133.588V168.35ZM138.275 168.35H140.275V166.35H138.275V168.35ZM138.275 169.913V171.913H140.275V169.913H138.275ZM133.588 169.913V167.913H131.588V169.913H133.588ZM133.588 173.038H131.588V175.038H133.588V173.038ZM139.838 173.038H141.838V171.038H139.838V173.038ZM139.838 174.6V172.6H128.9V174.6V176.6H139.838V174.6ZM128.9 174.6H130.9V163.663H128.9H126.9V174.6H128.9ZM128.9 163.663V165.663H139.838V163.663V161.663H128.9V163.663ZM139.838 163.663H137.838V165.225H139.838H141.838V163.663H139.838ZM139.838 165.225V163.225H133.588V165.225V167.225H139.838V165.225ZM133.588 165.225H131.588V168.35H133.588H135.588V165.225H133.588ZM133.588 168.35V170.35H138.275V168.35V166.35H133.588V168.35ZM138.275 168.35H136.275V169.913H138.275H140.275V168.35H138.275ZM138.275 169.913V167.913H133.588V169.913V171.913H138.275V169.913ZM133.588 169.913H131.588V173.038H133.588H135.588V169.913H133.588ZM133.588 173.038V175.038H139.838V173.038V171.038H133.588V173.038ZM139.838 173.038H137.838V174.6H139.838H141.838V173.038H139.838ZM142.2 174.6H140.2V176.6H142.2V174.6ZM142.2 163.663V161.663H140.2V163.663H142.2ZM151.575 163.663H153.575V161.663H151.575V163.663ZM151.575 165.225H149.575V167.225H151.575V165.225ZM153.137 165.225H155.137V163.225H153.137V165.225ZM153.137 174.6V176.6H155.137V174.6H153.137ZM150.012 174.6H148.012V176.6H150.012V174.6ZM150.012 165.225H152.012V163.225H150.012V165.225ZM146.887 165.225V163.225H144.886L144.887 165.227L146.887 165.225ZM146.895 174.6V176.6H148.897L148.895 174.598L146.895 174.6ZM142.2 174.6H144.2V163.663H142.2H140.2V174.6H142.2ZM142.2 163.663V165.663H151.575V163.663V161.663H142.2V163.663ZM151.575 163.663H149.575V165.225H151.575H153.575V163.663H151.575ZM151.575 165.225V167.225H153.137V165.225V163.225H151.575V165.225ZM153.137 165.225H151.137V174.6H153.137H155.137V165.225H153.137ZM153.137 174.6V172.6H150.012V174.6V176.6H153.137V174.6ZM150.012 174.6H152.012V165.225H150.012H148.012V174.6H150.012ZM150.012 165.225V163.225H146.887V165.225V167.225H150.012V165.225ZM146.887 165.225L144.887 165.227L144.895 174.602L146.895 174.6L148.895 174.598L148.887 165.223L146.887 165.225ZM146.895 174.6V172.6H142.2V174.6V176.6H146.895V174.6ZM166.438 163.663H168.438V161.663H166.438V163.663ZM166.438 165.225V167.225H168.438V165.225H166.438ZM163.312 165.225V163.225H161.312V165.225H163.312ZM163.312 174.6V176.6H165.312V174.6H163.312ZM158.625 174.6H156.625V176.6H158.625V174.6ZM158.625 165.225H160.625V163.225H158.625V165.225ZM155.5 165.225H153.5V167.225H155.5V165.225ZM155.5 163.663V161.663H153.5V163.663H155.5ZM166.438 163.663H164.438V165.225H166.438H168.438V163.663H166.438ZM166.438 165.225V163.225H163.312V165.225V167.225H166.438V165.225ZM163.312 165.225H161.312V174.6H163.312H165.312V165.225H163.312ZM163.312 174.6V172.6H158.625V174.6V176.6H163.312V174.6ZM158.625 174.6H160.625V165.225H158.625H156.625V174.6H158.625ZM158.625 165.225V163.225H155.5V165.225V167.225H158.625V165.225ZM155.5 165.225H157.5V163.663H155.5H153.5V165.225H155.5ZM155.5 163.663V165.663H166.438V163.663V161.663H155.5V163.663ZM182.1 171.475V169.475H180.1V171.475H182.1ZM185.225 171.475H187.225V169.475H185.225V171.475ZM185.225 173.038H183.225V175.038H185.225V173.038ZM189.913 173.038V175.038H191.913V173.038H189.913ZM189.913 169.913H191.913V167.913H189.913V169.913ZM183.663 169.913H181.663V171.913H183.663V169.913ZM183.663 168.35H185.663V166.35H183.663V168.35ZM182.1 168.35H180.1V170.35H182.1V168.35ZM182.1 165.225V163.225H180.1V165.225H182.1ZM183.663 165.225V167.225H185.663V165.225H183.663ZM183.663 163.663V161.663H181.663V163.663H183.663ZM191.475 163.663H193.475V161.663H191.475V163.663ZM191.475 165.225H189.475V167.225H191.475V165.225ZM193.038 165.225H195.038V163.225H193.038V165.225ZM193.038 166.788V168.788H195.038V166.788H193.038ZM189.913 166.788H187.913V168.788H189.913V166.788ZM189.913 165.225H191.913V163.225H189.913V165.225ZM186.788 165.225V163.225H184.788V165.225H186.788ZM186.788 168.35H184.788V170.35H186.788V168.35ZM191.475 168.35H193.475V166.35H191.475V168.35ZM191.475 169.913H189.475V171.913H191.475V169.913ZM193.038 169.913H195.038V167.913H193.038V169.913ZM193.038 173.038V175.038H195.038V173.038H193.038ZM191.475 173.038V171.038H189.475V173.038H191.475ZM191.475 174.6V176.6H193.475V174.6H191.475ZM183.663 174.6H181.663V176.6H183.663V174.6ZM183.663 173.038H185.663V171.038H183.663V173.038ZM182.1 173.038H180.1V175.038H182.1V173.038ZM182.1 171.475V173.475H185.225V171.475V169.475H182.1V171.475ZM185.225 171.475H183.225V173.038H185.225H187.225V171.475H185.225ZM185.225 173.038V175.038H189.913V173.038V171.038H185.225V173.038ZM189.913 173.038H191.913V169.913H189.913H187.913V173.038H189.913ZM189.913 169.913V167.913H183.663V169.913V171.913H189.913V169.913ZM183.663 169.913H185.663V168.35H183.663H181.663V169.913H183.663ZM183.663 168.35V166.35H182.1V168.35V170.35H183.663V168.35ZM182.1 168.35H184.1V165.225H182.1H180.1V168.35H182.1ZM182.1 165.225V167.225H183.663V165.225V163.225H182.1V165.225ZM183.663 165.225H185.663V163.663H183.663H181.663V165.225H183.663ZM183.663 163.663V165.663H191.475V163.663V161.663H183.663V163.663ZM191.475 163.663H189.475V165.225H191.475H193.475V163.663H191.475ZM191.475 165.225V167.225H193.038V165.225V163.225H191.475V165.225ZM193.038 165.225H191.038V166.788H193.038H195.038V165.225H193.038ZM193.038 166.788V164.788H189.913V166.788V168.788H193.038V166.788ZM189.913 166.788H191.913V165.225H189.913H187.913V166.788H189.913ZM189.913 165.225V163.225H186.788V165.225V167.225H189.913V165.225ZM186.788 165.225H184.788V168.35H186.788H188.788V165.225H186.788ZM186.788 168.35V170.35H191.475V168.35V166.35H186.788V168.35ZM191.475 168.35H189.475V169.913H191.475H193.475V168.35H191.475ZM191.475 169.913V171.913H193.038V169.913V167.913H191.475V169.913ZM193.038 169.913H191.038V173.038H193.038H195.038V169.913H193.038ZM193.038 173.038V171.038H191.475V173.038V175.038H193.038V173.038ZM191.475 173.038H189.475V174.6H191.475H193.475V173.038H191.475ZM191.475 174.6V172.6H183.663V174.6V176.6H191.475V174.6ZM183.663 174.6H185.663V173.038H183.663H181.663V174.6H183.663ZM183.663 173.038V171.038H182.1V173.038V175.038H183.663V173.038ZM182.1 173.038H184.1V171.475H182.1H180.1V173.038H182.1ZM206.337 163.663H208.337V161.663H206.337V163.663ZM206.337 165.225V167.225H208.337V165.225H206.337ZM203.212 165.225V163.225H201.212V165.225H203.212ZM203.212 174.6V176.6H205.212V174.6H203.212ZM198.525 174.6H196.525V176.6H198.525V174.6ZM198.525 165.225H200.525V163.225H198.525V165.225ZM195.4 165.225H193.4V167.225H195.4V165.225ZM195.4 163.663V161.663H193.4V163.663H195.4ZM206.337 163.663H204.337V165.225H206.337H208.337V163.663H206.337ZM206.337 165.225V163.225H203.212V165.225V167.225H206.337V165.225ZM203.212 165.225H201.212V174.6H203.212H205.212V165.225H203.212ZM203.212 174.6V172.6H198.525V174.6V176.6H203.212V174.6ZM198.525 174.6H200.525V165.225H198.525H196.525V174.6H198.525ZM198.525 165.225V163.225H195.4V165.225V167.225H198.525V165.225ZM195.4 165.225H197.4V163.663H195.4H193.4V165.225H195.4ZM195.4 163.663V165.663H206.337V163.663V161.663H195.4V163.663ZM208.7 174.6H206.7V176.6H208.7V174.6ZM208.7 165.225V163.225H206.7V165.225H208.7ZM210.262 165.225V167.225H212.262V165.225H210.262ZM210.262 163.663V161.663H208.262V163.663H210.262ZM218.075 163.663H220.075V161.663H218.075V163.663ZM218.075 165.225H216.075V167.225H218.075V165.225ZM219.637 165.225H221.637V163.225H219.637V165.225ZM219.637 174.6V176.6H221.637V174.6H219.637ZM216.512 174.6H214.512V176.6H216.512V174.6ZM216.512 169.913H218.512V167.913H216.512V169.913ZM213.387 169.913V167.913H211.387V169.913H213.387ZM213.387 174.6V176.6H215.387V174.6H213.387ZM213.387 165.467V163.467H211.387V165.467H213.387ZM213.387 168.35H211.387V170.35H213.387V168.35ZM216.512 168.35V170.35H218.512V168.35H216.512ZM216.512 165.467H218.512V163.467H216.512V165.467ZM208.7 174.6H210.7V165.225H208.7H206.7V174.6H208.7ZM208.7 165.225V167.225H210.262V165.225V163.225H208.7V165.225ZM210.262 165.225H212.262V163.663H210.262H208.262V165.225H210.262ZM210.262 163.663V165.663H218.075V163.663V161.663H210.262V163.663ZM218.075 163.663H216.075V165.225H218.075H220.075V163.663H218.075ZM218.075 165.225V167.225H219.637V165.225V163.225H218.075V165.225ZM219.637 165.225H217.637V174.6H219.637H221.637V165.225H219.637ZM219.637 174.6V172.6H216.512V174.6V176.6H219.637V174.6ZM216.512 174.6H218.512V169.913H216.512H214.512V174.6H216.512ZM216.512 169.913V167.913H213.387V169.913V171.913H216.512V169.913ZM213.387 169.913H211.387V174.6H213.387H215.387V169.913H213.387ZM213.387 174.6V172.6H208.7V174.6V176.6H213.387V174.6ZM213.387 165.467H211.387V168.35H213.387H215.387V165.467H213.387ZM213.387 168.35V170.35H216.512V168.35V166.35H213.387V168.35ZM216.512 168.35H218.512V165.467H216.512H214.512V168.35H216.512ZM216.512 165.467V163.467H213.387V165.467V167.467H216.512V165.467ZM226.688 165.225V163.225H224.688V165.225H226.688ZM226.688 173.038H224.688V175.038H226.688V173.038ZM232.938 173.038H234.938V171.038H232.938V173.038ZM232.938 174.6V176.6H234.938V174.6H232.938ZM223.562 174.6H221.562V176.6H223.562V174.6ZM223.562 173.038H225.562V171.038H223.562V173.038ZM222 173.038H220V175.038H222V173.038ZM222 165.225V163.225H220V165.225H222ZM223.562 165.225V167.225H225.562V165.225H223.562ZM223.562 163.663V161.663H221.562V163.663H223.562ZM232.938 163.663H234.938V161.663H232.938V163.663ZM232.938 165.225V167.225H234.938V165.225H232.938ZM226.688 165.225H224.688V173.038H226.688H228.688V165.225H226.688ZM226.688 173.038V175.038H232.938V173.038V171.038H226.688V173.038ZM232.938 173.038H230.938V174.6H232.938H234.938V173.038H232.938ZM232.938 174.6V172.6H223.562V174.6V176.6H232.938V174.6ZM223.562 174.6H225.562V173.038H223.562H221.562V174.6H223.562ZM223.562 173.038V171.038H222V173.038V175.038H223.562V173.038ZM222 173.038H224V165.225H222H220V173.038H222ZM222 165.225V167.225H223.562V165.225V163.225H222V165.225ZM223.562 165.225H225.562V163.663H223.562H221.562V165.225H223.562ZM223.562 163.663V165.663H232.938V163.663V161.663H223.562V163.663ZM232.938 163.663H230.938V165.225H232.938H234.938V163.663H232.938ZM232.938 165.225V163.225H226.688V165.225V167.225H232.938V165.225ZM239.988 163.663H241.988V161.663H239.988V163.663ZM239.988 166.788H237.988V168.788H239.988V166.788ZM241.55 166.788V168.788H243.55V166.788H241.55ZM241.55 165.225V163.225H239.55V165.225H241.55ZM243.113 165.225V167.225H245.113V165.225H243.113ZM243.113 163.663V161.663H241.113V163.663H243.113ZM246.238 163.663H248.238V161.663H246.238V163.663ZM246.238 165.225V167.225H248.238V165.225H246.238ZM244.675 165.225V163.225H242.675V165.225H244.675ZM244.675 166.788V168.788H246.675V166.788H244.675ZM243.113 166.788V164.788H241.113V166.788H243.113ZM243.113 168.35V170.35H245.113V168.35H243.113ZM241.55 168.35V166.35H239.55V168.35H241.55ZM241.55 169.913H239.55V171.913H241.55V169.913ZM244.675 169.913H246.675V167.913H244.675V169.913ZM244.675 171.475H242.675V173.475H244.675V171.475ZM246.238 171.475H248.238V169.475H246.238V171.475ZM246.238 174.6V176.6H248.238V174.6H246.238ZM241.55 174.6H239.55V176.6H241.55V174.6ZM241.55 171.475H243.55V169.475H241.55V171.475ZM239.988 171.475H237.988V173.475H239.988V171.475ZM239.988 169.913H241.988V167.913H239.988V169.913ZM238.425 169.913V167.913H236.425V169.913H238.425ZM238.425 174.6V176.6H240.425V174.6H238.425ZM235.3 174.6H233.3V176.6H235.3V174.6ZM235.3 163.663V161.663H233.3V163.663H235.3ZM239.988 163.663H237.988V166.788H239.988H241.988V163.663H239.988ZM239.988 166.788V168.788H241.55V166.788V164.788H239.988V166.788ZM241.55 166.788H243.55V165.225H241.55H239.55V166.788H241.55ZM241.55 165.225V167.225H243.113V165.225V163.225H241.55V165.225ZM243.113 165.225H245.113V163.663H243.113H241.113V165.225H243.113ZM243.113 163.663V165.663H246.238V163.663V161.663H243.113V163.663ZM246.238 163.663H244.238V165.225H246.238H248.238V163.663H246.238ZM246.238 165.225V163.225H244.675V165.225V167.225H246.238V165.225ZM244.675 165.225H242.675V166.788H244.675H246.675V165.225H244.675ZM244.675 166.788V164.788H243.113V166.788V168.788H244.675V166.788ZM243.113 166.788H241.113V168.35H243.113H245.113V166.788H243.113ZM243.113 168.35V166.35H241.55V168.35V170.35H243.113V168.35ZM241.55 168.35H239.55V169.913H241.55H243.55V168.35H241.55ZM241.55 169.913V171.913H244.675V169.913V167.913H241.55V169.913ZM244.675 169.913H242.675V171.475H244.675H246.675V169.913H244.675ZM244.675 171.475V173.475H246.238V171.475V169.475H244.675V171.475ZM246.238 171.475H244.238V174.6H246.238H248.238V171.475H246.238ZM246.238 174.6V172.6H241.55V174.6V176.6H246.238V174.6ZM241.55 174.6H243.55V171.475H241.55H239.55V174.6H241.55ZM241.55 171.475V169.475H239.988V171.475V173.475H241.55V171.475ZM239.988 171.475H241.988V169.913H239.988H237.988V171.475H239.988ZM239.988 169.913V167.913H238.425V169.913V171.913H239.988V169.913ZM238.425 169.913H236.425V174.6H238.425H240.425V169.913H238.425ZM238.425 174.6V172.6H235.3V174.6V176.6H238.425V174.6ZM235.3 174.6H237.3V163.663H235.3H233.3V174.6H235.3ZM235.3 163.663V165.663H239.988V163.663V161.663H235.3V163.663ZM271.275 174.6V176.6H273.275V174.6H271.275ZM263.462 174.6H261.462V176.6H263.462V174.6ZM263.462 173.038H265.462V171.038H263.462V173.038ZM261.9 173.038H259.9V175.038H261.9V173.038ZM261.9 165.225V163.225H259.9V165.225H261.9ZM263.462 165.225V167.225H265.462V165.225H263.462ZM263.462 163.663V161.663H261.462V163.663H263.462ZM271.275 163.663H273.275V161.663H271.275V163.663ZM271.275 165.225H269.275V167.225H271.275V165.225ZM272.837 165.225H274.837V163.225H272.837V165.225ZM272.837 173.038V175.038H274.837V173.038H272.837ZM271.275 173.038V171.038H269.275V173.038H271.275ZM269.712 173.038V175.038H271.712V173.038H269.712ZM269.712 165.225H271.712V163.225H269.712V165.225ZM266.587 165.225V163.225H264.587V165.225H266.587ZM266.587 173.038H264.587V175.038H266.587V173.038ZM271.275 174.6V172.6H263.462V174.6V176.6H271.275V174.6ZM263.462 174.6H265.462V173.038H263.462H261.462V174.6H263.462ZM263.462 173.038V171.038H261.9V173.038V175.038H263.462V173.038ZM261.9 173.038H263.9V165.225H261.9H259.9V173.038H261.9ZM261.9 165.225V167.225H263.462V165.225V163.225H261.9V165.225ZM263.462 165.225H265.462V163.663H263.462H261.462V165.225H263.462ZM263.462 163.663V165.663H271.275V163.663V161.663H263.462V163.663ZM271.275 163.663H269.275V165.225H271.275H273.275V163.663H271.275ZM271.275 165.225V167.225H272.837V165.225V163.225H271.275V165.225ZM272.837 165.225H270.837V173.038H272.837H274.837V165.225H272.837ZM272.837 173.038V171.038H271.275V173.038V175.038H272.837V173.038ZM271.275 173.038H269.275V174.6H271.275H273.275V173.038H271.275ZM269.712 173.038H271.712V165.225H269.712H267.712V173.038H269.712ZM269.712 165.225V163.225H266.587V165.225V167.225H269.712V165.225ZM266.587 165.225H264.587V173.038H266.587H268.587V165.225H266.587ZM266.587 173.038V175.038H269.712V173.038V171.038H266.587V173.038ZM275.2 174.6H273.2V176.6H275.2V174.6ZM275.2 163.663V161.663H273.2V163.663H275.2ZM284.575 163.663H286.575V161.663H284.575V163.663ZM284.575 165.225H282.575V167.225H284.575V165.225ZM286.138 165.225H288.138V163.225H286.138V165.225ZM286.138 174.6V176.6H288.138V174.6H286.138ZM283.013 174.6H281.013V176.6H283.013V174.6ZM283.013 165.225H285.013V163.225H283.013V165.225ZM279.888 165.225V163.225H277.886L277.888 165.227L279.888 165.225ZM279.895 174.6V176.6H281.897L281.895 174.598L279.895 174.6ZM275.2 174.6H277.2V163.663H275.2H273.2V174.6H275.2ZM275.2 163.663V165.663H284.575V163.663V161.663H275.2V163.663ZM284.575 163.663H282.575V165.225H284.575H286.575V163.663H284.575ZM284.575 165.225V167.225H286.138V165.225V163.225H284.575V165.225ZM286.138 165.225H284.138V174.6H286.138H288.138V165.225H286.138ZM286.138 174.6V172.6H283.013V174.6V176.6H286.138V174.6ZM283.013 174.6H285.013V165.225H283.013H281.013V174.6H283.013ZM283.013 165.225V163.225H279.888V165.225V167.225H283.013V165.225ZM279.888 165.225L277.888 165.227L277.895 174.602L279.895 174.6L281.895 174.598L281.888 165.223L279.888 165.225ZM279.895 174.6V172.6H275.2V174.6V176.6H279.895V174.6ZM116 191.475V189.475H114V191.475H116ZM119.125 191.475H121.125V189.475H119.125V191.475ZM119.125 193.038H117.125V195.038H119.125V193.038ZM123.812 193.038V195.038H125.812V193.038H123.812ZM123.812 189.913H125.812V187.913H123.812V189.913ZM117.562 189.913H115.562V191.913H117.562V189.913ZM117.562 188.35H119.562V186.35H117.562V188.35ZM116 188.35H114V190.35H116V188.35ZM116 185.225V183.225H114V185.225H116ZM117.562 185.225V187.225H119.562V185.225H117.562ZM117.562 183.663V181.663H115.562V183.663H117.562ZM125.375 183.663H127.375V181.663H125.375V183.663ZM125.375 185.225H123.375V187.225H125.375V185.225ZM126.938 185.225H128.938V183.225H126.938V185.225ZM126.938 186.788V188.788H128.938V186.788H126.938ZM123.812 186.788H121.812V188.788H123.812V186.788ZM123.812 185.225H125.812V183.225H123.812V185.225ZM120.688 185.225V183.225H118.688V185.225H120.688ZM120.688 188.35H118.688V190.35H120.688V188.35ZM125.375 188.35H127.375V186.35H125.375V188.35ZM125.375 189.913H123.375V191.913H125.375V189.913ZM126.938 189.913H128.938V187.913H126.938V189.913ZM126.938 193.038V195.038H128.938V193.038H126.938ZM125.375 193.038V191.038H123.375V193.038H125.375ZM125.375 194.6V196.6H127.375V194.6H125.375ZM117.562 194.6H115.562V196.6H117.562V194.6ZM117.562 193.038H119.562V191.038H117.562V193.038ZM116 193.038H114V195.038H116V193.038ZM116 191.475V193.475H119.125V191.475V189.475H116V191.475ZM119.125 191.475H117.125V193.038H119.125H121.125V191.475H119.125ZM119.125 193.038V195.038H123.812V193.038V191.038H119.125V193.038ZM123.812 193.038H125.812V189.913H123.812H121.812V193.038H123.812ZM123.812 189.913V187.913H117.562V189.913V191.913H123.812V189.913ZM117.562 189.913H119.562V188.35H117.562H115.562V189.913H117.562ZM117.562 188.35V186.35H116V188.35V190.35H117.562V188.35ZM116 188.35H118V185.225H116H114V188.35H116ZM116 185.225V187.225H117.562V185.225V183.225H116V185.225ZM117.562 185.225H119.562V183.663H117.562H115.562V185.225H117.562ZM117.562 183.663V185.663H125.375V183.663V181.663H117.562V183.663ZM125.375 183.663H123.375V185.225H125.375H127.375V183.663H125.375ZM125.375 185.225V187.225H126.938V185.225V183.225H125.375V185.225ZM126.938 185.225H124.938V186.788H126.938H128.938V185.225H126.938ZM126.938 186.788V184.788H123.812V186.788V188.788H126.938V186.788ZM123.812 186.788H125.812V185.225H123.812H121.812V186.788H123.812ZM123.812 185.225V183.225H120.688V185.225V187.225H123.812V185.225ZM120.688 185.225H118.688V188.35H120.688H122.688V185.225H120.688ZM120.688 188.35V190.35H125.375V188.35V186.35H120.688V188.35ZM125.375 188.35H123.375V189.913H125.375H127.375V188.35H125.375ZM125.375 189.913V191.913H126.938V189.913V187.913H125.375V189.913ZM126.938 189.913H124.938V193.038H126.938H128.938V189.913H126.938ZM126.938 193.038V191.038H125.375V193.038V195.038H126.938V193.038ZM125.375 193.038H123.375V194.6H125.375H127.375V193.038H125.375ZM125.375 194.6V192.6H117.562V194.6V196.6H125.375V194.6ZM117.562 194.6H119.562V193.038H117.562H115.562V194.6H117.562ZM117.562 193.038V191.038H116V193.038V195.038H117.562V193.038ZM116 193.038H118V191.475H116H114V193.038H116ZM138.675 194.6V196.6H140.675V194.6H138.675ZM130.863 194.6H128.863V196.6H130.863V194.6ZM130.863 193.038H132.863V191.038H130.863V193.038ZM129.3 193.038H127.3V195.038H129.3V193.038ZM129.3 185.225V183.225H127.3V185.225H129.3ZM130.863 185.225V187.225H132.863V185.225H130.863ZM130.863 183.663V181.663H128.863V183.663H130.863ZM138.675 183.663H140.675V181.663H138.675V183.663ZM138.675 185.225H136.675V187.225H138.675V185.225ZM140.238 185.225H142.238V183.225H140.238V185.225ZM140.238 193.038V195.038H142.238V193.038H140.238ZM138.675 193.038V191.038H136.675V193.038H138.675ZM137.113 193.038V195.038H139.113V193.038H137.113ZM137.113 185.225H139.113V183.225H137.113V185.225ZM133.988 185.225V183.225H131.988V185.225H133.988ZM133.988 193.038H131.988V195.038H133.988V193.038ZM138.675 194.6V192.6H130.863V194.6V196.6H138.675V194.6ZM130.863 194.6H132.863V193.038H130.863H128.863V194.6H130.863ZM130.863 193.038V191.038H129.3V193.038V195.038H130.863V193.038ZM129.3 193.038H131.3V185.225H129.3H127.3V193.038H129.3ZM129.3 185.225V187.225H130.863V185.225V183.225H129.3V185.225ZM130.863 185.225H132.863V183.663H130.863H128.863V185.225H130.863ZM130.863 183.663V185.663H138.675V183.663V181.663H130.863V183.663ZM138.675 183.663H136.675V185.225H138.675H140.675V183.663H138.675ZM138.675 185.225V187.225H140.238V185.225V183.225H138.675V185.225ZM140.238 185.225H138.238V193.038H140.238H142.238V185.225H140.238ZM140.238 193.038V191.038H138.675V193.038V195.038H140.238V193.038ZM138.675 193.038H136.675V194.6H138.675H140.675V193.038H138.675ZM137.113 193.038H139.113V185.225H137.113H135.113V193.038H137.113ZM137.113 185.225V183.225H133.988V185.225V187.225H137.113V185.225ZM133.988 185.225H131.988V193.038H133.988H135.988V185.225H133.988ZM133.988 193.038V195.038H137.113V193.038V191.038H133.988V193.038ZM153.538 194.6V196.6H155.538V194.6H153.538ZM142.6 194.6H140.6V196.6H142.6V194.6ZM142.6 183.663V181.663H140.6V183.663H142.6ZM147.288 183.663H149.288V181.663H147.288V183.663ZM147.288 193.038H145.288V195.038H147.288V193.038ZM153.538 193.038H155.538V191.038H153.538V193.038ZM153.538 194.6V192.6H142.6V194.6V196.6H153.538V194.6ZM142.6 194.6H144.6V183.663H142.6H140.6V194.6H142.6ZM142.6 183.663V185.663H147.288V183.663V181.663H142.6V183.663ZM147.288 183.663H145.288V193.038H147.288H149.288V183.663H147.288ZM147.288 193.038V195.038H153.538V193.038V191.038H147.288V193.038ZM153.538 193.038H151.538V194.6H153.538H155.538V193.038H153.538ZM155.9 194.6H153.9V196.6H155.9V194.6ZM155.9 185.225V183.225H153.9V185.225H155.9ZM157.462 185.225V187.225H159.462V185.225H157.462ZM157.462 183.663V181.663H155.462V183.663H157.462ZM165.275 183.663H167.275V181.663H165.275V183.663ZM165.275 185.225H163.275V187.225H165.275V185.225ZM166.837 185.225H168.837V183.225H166.837V185.225ZM166.837 194.6V196.6H168.837V194.6H166.837ZM163.712 194.6H161.712V196.6H163.712V194.6ZM163.712 189.913H165.712V187.913H163.712V189.913ZM160.587 189.913V187.913H158.587V189.913H160.587ZM160.587 194.6V196.6H162.587V194.6H160.587ZM160.587 185.467V183.467H158.587V185.467H160.587ZM160.587 188.35H158.587V190.35H160.587V188.35ZM163.712 188.35V190.35H165.712V188.35H163.712ZM163.712 185.467H165.712V183.467H163.712V185.467ZM155.9 194.6H157.9V185.225H155.9H153.9V194.6H155.9ZM155.9 185.225V187.225H157.462V185.225V183.225H155.9V185.225ZM157.462 185.225H159.462V183.663H157.462H155.462V185.225H157.462ZM157.462 183.663V185.663H165.275V183.663V181.663H157.462V183.663ZM165.275 183.663H163.275V185.225H165.275H167.275V183.663H165.275ZM165.275 185.225V187.225H166.837V185.225V183.225H165.275V185.225ZM166.837 185.225H164.837V194.6H166.837H168.837V185.225H166.837ZM166.837 194.6V192.6H163.712V194.6V196.6H166.837V194.6ZM163.712 194.6H165.712V189.913H163.712H161.712V194.6H163.712ZM163.712 189.913V187.913H160.587V189.913V191.913H163.712V189.913ZM160.587 189.913H158.587V194.6H160.587H162.587V189.913H160.587ZM160.587 194.6V192.6H155.9V194.6V196.6H160.587V194.6ZM160.587 185.467H158.587V188.35H160.587H162.587V185.467H160.587ZM160.587 188.35V190.35H163.712V188.35V186.35H160.587V188.35ZM163.712 188.35H165.712V185.467H163.712H161.712V188.35H163.712ZM163.712 185.467V183.467H160.587V185.467V187.467H163.712V185.467ZM169.2 194.6H167.2V196.6H169.2V194.6ZM169.2 183.663V181.663H167.2V183.663H169.2ZM178.575 183.663H180.575V181.663H178.575V183.663ZM178.575 185.225H176.575V187.225H178.575V185.225ZM180.137 185.225H182.137V183.225H180.137V185.225ZM180.137 194.6V196.6H182.137V194.6H180.137ZM177.012 194.6H175.012V196.6H177.012V194.6ZM177.012 185.225H179.012V183.225H177.012V185.225ZM173.887 185.225V183.225H171.886L171.887 185.227L173.887 185.225ZM173.895 194.6V196.6H175.897L175.895 194.598L173.895 194.6ZM169.2 194.6H171.2V183.663H169.2H167.2V194.6H169.2ZM169.2 183.663V185.663H178.575V183.663V181.663H169.2V183.663ZM178.575 183.663H176.575V185.225H178.575H180.575V183.663H178.575ZM178.575 185.225V187.225H180.137V185.225V183.225H178.575V185.225ZM180.137 185.225H178.137V194.6H180.137H182.137V185.225H180.137ZM180.137 194.6V192.6H177.012V194.6V196.6H180.137V194.6ZM177.012 194.6H179.012V185.225H177.012H175.012V194.6H177.012ZM177.012 185.225V183.225H173.887V185.225V187.225H177.012V185.225ZM173.887 185.225L171.887 185.227L171.895 194.602L173.895 194.6L175.895 194.598L175.887 185.223L173.887 185.225ZM173.895 194.6V192.6H169.2V194.6V196.6H173.895V194.6ZM182.5 194.6H180.5V196.6H182.5V194.6ZM182.5 185.225V183.225H180.5V185.225H182.5ZM184.062 185.225V187.225H186.062V185.225H184.062ZM184.062 183.663V181.663H182.062V183.663H184.062ZM191.875 183.663H193.875V181.663H191.875V183.663ZM191.875 185.225H189.875V187.225H191.875V185.225ZM193.438 185.225H195.438V183.225H193.438V185.225ZM193.438 194.6V196.6H195.438V194.6H193.438ZM190.312 194.6H188.312V196.6H190.312V194.6ZM190.312 189.913H192.312V187.913H190.312V189.913ZM187.188 189.913V187.913H185.188V189.913H187.188ZM187.188 194.6V196.6H189.188V194.6H187.188ZM187.188 185.467V183.467H185.188V185.467H187.188ZM187.188 188.35H185.188V190.35H187.188V188.35ZM190.312 188.35V190.35H192.312V188.35H190.312ZM190.312 185.467H192.312V183.467H190.312V185.467ZM182.5 194.6H184.5V185.225H182.5H180.5V194.6H182.5ZM182.5 185.225V187.225H184.062V185.225V183.225H182.5V185.225ZM184.062 185.225H186.062V183.663H184.062H182.062V185.225H184.062ZM184.062 183.663V185.663H191.875V183.663V181.663H184.062V183.663ZM191.875 183.663H189.875V185.225H191.875H193.875V183.663H191.875ZM191.875 185.225V187.225H193.438V185.225V183.225H191.875V185.225ZM193.438 185.225H191.438V194.6H193.438H195.438V185.225H193.438ZM193.438 194.6V192.6H190.312V194.6V196.6H193.438V194.6ZM190.312 194.6H192.312V189.913H190.312H188.312V194.6H190.312ZM190.312 189.913V187.913H187.188V189.913V191.913H190.312V189.913ZM187.188 189.913H185.188V194.6H187.188H189.188V189.913H187.188ZM187.188 194.6V192.6H182.5V194.6V196.6H187.188V194.6ZM187.188 185.467H185.188V188.35H187.188H189.188V185.467H187.188ZM187.188 188.35V190.35H190.312V188.35V186.35H187.188V188.35ZM190.312 188.35H192.312V185.467H190.312H188.312V188.35H190.312ZM190.312 185.467V183.467H187.188V185.467V187.467H190.312V185.467Z" fill="#3B00A4" mask="url(#path-32-outside-1_32_886)"/>
</g>
<path d="M24.1143 232.84V229.648H27.2923V232.826L24.1143 232.84ZM44.952 232.84H46.534V236.018H44.952V232.84H38.582V236.018H44.952V237.6H37V226.484H44.952V228.066H46.534V231.244H44.952V228.066H38.582V231.244H44.952V232.84ZM51.3108 237.6V228.066H49.7148V226.484H52.8928V237.6H51.3108ZM62.4283 236.018V231.244H57.6543V229.648H62.4283V231.244H64.0103L64.0243 236.018H62.4283ZM62.4283 237.6H57.6543V236.018H56.0723V231.244H57.6543V236.018H62.4283V237.6ZM71.9576 236.018V237.6H67.1836V236.018H65.6016V231.244H67.1836V236.018H71.9576ZM67.1836 231.244V229.648H71.9576V231.244H73.5396V232.84H71.9576V231.244H67.1836ZM71.9576 236.018V234.422H73.5536V236.018H71.9576ZM81.4869 237.6V236.004H78.3089V234.422H76.7269V237.6H75.1309V226.484H76.7129V232.84H78.3089V234.422H81.4869V236.004H83.0829V237.6H81.4869ZM78.3089 232.84V231.244H81.4869V232.84H78.3089ZM81.4869 231.244V229.648H83.0829V231.244H81.4869ZM91.0162 236.018V237.6H86.2422V236.018H84.6602V231.244H86.2422V236.018H91.0162ZM86.2422 231.244V229.648H91.0162V231.244H92.5982V232.84H91.0162V231.244H86.2422ZM91.0162 236.018V234.422H92.6122V236.018H91.0162ZM100.545 237.6V231.244H95.7855V237.6H94.1895V226.484H95.7715V229.648H100.545V231.244H102.141V237.6H100.545ZM111.674 234.422H106.9V232.84H111.674V231.244H106.9V229.648H111.674V231.244H113.27V237.6H106.9V236.018H105.318V234.422H106.9V236.018H111.674V234.422ZM118.029 228.066V226.484H119.625V228.066H118.029ZM118.043 237.6V231.244H116.447V229.648H119.625V237.6H118.043ZM129.161 237.6V231.244H124.401V237.6H122.805V229.648H129.161V231.244H130.757V237.6H129.161ZM148.229 234.422V229.648H146.647V228.066H141.873V236.018H146.647V237.6H140.291V226.484H146.647V228.066H148.229V229.648H149.825V234.422H148.229ZM148.229 236.018H146.647V234.422H148.229V236.018ZM159.362 231.244H154.588V229.648H159.362V231.244H160.958V234.422H154.588V236.018H159.362V237.6H154.588V236.018H153.006V231.244H154.588V232.84H159.362V231.244ZM168.891 236.018V237.6H167.295V236.018H165.713V234.422H164.117V232.84H162.535V229.648H164.117V232.84H165.713V234.422H167.295V236.018H168.891ZM172.069 232.84V229.648H173.665V232.84H172.069ZM170.473 234.422V236.018H168.891V234.422H170.473ZM172.069 232.84V234.422H170.473V232.84H172.069ZM181.606 231.244H176.832V229.648H181.606V231.244H183.202V234.422H176.832V236.018H181.606V237.6H176.832V236.018H175.25V231.244H176.832V232.84H181.606V231.244ZM186.375 237.6V228.066H184.779V226.484H187.957V237.6H186.375ZM197.493 236.018V231.244H192.719V229.648H197.493V231.244H199.075L199.089 236.018H197.493ZM197.493 237.6H192.719V236.018H191.137V231.244H192.719V236.018H197.493V237.6ZM207.022 237.6H202.262V240.778H200.666V229.648H207.022V231.244H208.618V236.004H207.022V231.244H202.248V236.004H207.022V237.6ZM218.147 231.244V237.6H216.551V231.244H211.791V237.6H210.195V229.648H216.551V231.244H218.147ZM222.907 237.6V231.244H218.147V229.648H222.907V231.244H224.489V237.6H222.907ZM234.038 231.244H229.264V229.648H234.038V231.244H235.634V234.422H229.264V236.018H234.038V237.6H229.264V236.018H227.682V231.244H229.264V232.84H234.038V231.244ZM243.567 237.6V231.244H238.807V237.6H237.211V229.648H243.567V231.244H245.163V237.6H243.567ZM251.518 237.6V236.018H249.936V231.244H248.34V229.648H249.922V226.484H251.518V229.648H254.696V231.244H251.518V236.018H254.696V237.6H251.518ZM41.774 248.066V257.6H40.178V248.066H35.404V246.484H46.534V248.066H41.774ZM54.4849 256.018V251.244H49.7109V249.648H54.4849V251.244H56.0669L56.0809 256.018H54.4849ZM54.4849 257.6H49.7109V256.018H48.1289V251.244H49.7109V256.018H54.4849V257.6ZM64.0142 256.018V251.244H59.2402V249.648H64.0142V251.244H65.5962L65.6102 256.018H64.0142ZM64.0142 257.6H59.2402V256.018H57.6582V251.244H59.2402V256.018H64.0142V257.6ZM68.7835 257.6V248.066H67.1875V246.484H70.3655V257.6H68.7835ZM75.1409 251.244V252.826H79.9009V254.422H81.4969V256.018H79.9009V254.422H75.1409V252.826H73.5449V251.244H75.1409ZM75.1409 251.244V249.648H81.4969V251.244H75.1409ZM79.9009 256.018V257.6H73.5449V256.018H79.9009ZM24.1143 272.84V269.648H27.2923V272.826L24.1143 272.84ZM49.698 276.018V277.6H48.116V276.018H46.52V271.258H44.938V266.484H46.52V271.258H48.116V276.018H49.698ZM43.342 276.018V277.6H41.76V276.018H40.178V272.84H38.582V269.648H37V266.484H38.582V269.648H40.178V272.84H41.76V276.018H43.342ZM44.938 271.258V276.018H43.342V271.258H44.938ZM52.89 269.648V272.84H51.294V269.648H52.89ZM49.698 276.018V272.84H51.294V276.018H49.698ZM52.89 269.648V266.484H54.472V269.648H52.89ZM62.4283 271.244H57.6543V269.648H62.4283V271.244H64.0243V274.422H57.6543V276.018H62.4283V277.6H57.6543V276.018H56.0723V271.244H57.6543V272.84H62.4283V271.244ZM71.9576 277.6H65.6016V266.484H67.1836V269.648H71.9576V271.244H73.5536V276.004H71.9576V271.244H67.1836V276.004H71.9576V277.6ZM81.4869 271.244V268.066H76.7269V269.662H75.1309V268.066H76.7129V266.47H81.4869V268.066H83.0829V271.244H81.4869ZM81.4869 276.004V272.84H78.3089V271.244H81.4869V272.826H83.0829V276.004H81.4869ZM81.4869 276.018V277.6H76.7269V276.018H81.4869ZM76.7129 276.018H75.1309V274.422H76.7129V276.018ZM92.6172 277.6V266.484H94.1992V276.018H100.569V277.6H92.6172ZM103.728 268.066V266.484H105.324V268.066H103.728ZM103.742 277.6V271.244H102.146V269.648H105.324V277.6H103.742ZM114.86 277.6H108.504V266.484H110.086V269.648H114.86V271.244H116.456V276.004H114.86V271.244H110.086V276.004H114.86V277.6ZM121.211 271.244V272.826H119.629V277.6H118.033V269.648H119.615V271.244H121.211ZM121.211 271.244V269.648H124.389V271.244H121.211ZM132.346 274.422H127.572V272.84H132.346V271.244H127.572V269.648H132.346V271.244H133.942V277.6H127.572V276.018H125.99V274.422H127.572V276.018H132.346V274.422ZM140.297 271.244V272.826H138.715V277.6H137.119V269.648H138.701V271.244H140.297ZM140.297 271.244V269.648H143.475V271.244H140.297ZM146.658 268.066V266.484H148.254V268.066H146.658ZM146.672 277.6V271.244H145.076V269.648H148.254V277.6H146.672ZM157.79 271.244H153.016V269.648H157.79V271.244H159.386V274.422H153.016V276.018H157.79V277.6H153.016V276.018H151.434V271.244H153.016V272.84H157.79V271.244ZM162.559 271.244V272.826H167.319V274.422H168.915V276.018H167.319V274.422H162.559V272.826H160.963V271.244H162.559ZM162.559 271.244V269.648H168.915V271.244H162.559ZM167.319 276.018V277.6H160.963V276.018H167.319ZM24.1143 292.84V289.648H27.2923V292.826L24.1143 292.84ZM44.952 296.018V297.6H38.582V296.018H37V288.066H38.582V296.018H44.952ZM44.952 296.018V292.84H41.76V291.244H46.534V296.018H44.952ZM38.582 288.066V286.484H44.938V288.066H46.534V289.648H44.938V288.066H38.582ZM56.0708 294.422H51.2968V292.84H56.0708V291.244H51.2968V289.648H56.0708V291.244H57.6668V297.6H51.2968V296.018H49.7148V294.422H51.2968V296.018H56.0708V294.422ZM68.7958 291.244V297.6H67.1998V291.244H62.4398V297.6H60.8438V289.648H67.1998V291.244H68.7958ZM73.5558 297.6V291.244H68.7958V289.648H73.5558V291.244H75.1378V297.6H73.5558ZM84.6861 291.244H79.9121V289.648H84.6861V291.244H86.2821V294.422H79.9121V296.018H84.6861V297.6H79.9121V296.018H78.3301V291.244H79.9121V292.84H84.6861V291.244ZM102.169 296.018V292.826H95.7988V291.244H94.2168V288.066H95.7988V291.244H102.169V292.826H103.751V296.018H102.169ZM102.169 296.018V297.6H95.7988V296.018H94.2168V294.422H95.7988V296.018H102.169ZM95.7988 288.066V286.484H102.169V288.066H103.751V289.648H102.169V288.066H95.7988ZM114.87 294.422V289.648H113.288V288.066H108.514V296.018H113.288V297.6H106.932V286.484H113.288V288.066H114.87V289.648H116.466V294.422H114.87ZM114.87 296.018H113.288V294.422H114.87V296.018ZM127.584 297.6V296.018H126.002V294.422H124.406V292.84H121.242V297.6H119.646V286.484H121.228V291.244H124.406V292.84H126.002V294.422H127.584V296.018H129.18V297.6H127.584ZM124.406 291.244V289.648H126.002V291.244H124.406ZM126.002 289.648V288.066H127.598V289.648H126.002ZM127.598 288.066V286.484H129.18V288.066H127.598ZM24.1143 312.84V309.648H27.2923V312.826L24.1143 312.84ZM44.952 316.018V317.6H38.582V316.018H37V308.066H38.582V316.018H44.952ZM44.952 316.018V312.84H41.76V311.244H46.534V316.018H44.952ZM38.582 308.066V306.484H44.938V308.066H46.534V309.648H44.938V308.066H38.582ZM56.0708 314.422H51.2968V312.84H56.0708V311.244H51.2968V309.648H56.0708V311.244H57.6668V317.6H51.2968V316.018H49.7148V314.422H51.2968V316.018H56.0708V314.422ZM68.7958 311.244V317.6H67.1998V311.244H62.4398V317.6H60.8438V309.648H67.1998V311.244H68.7958ZM73.5558 317.6V311.244H68.7958V309.648H73.5558V311.244H75.1378V317.6H73.5558ZM84.6861 311.244H79.9121V309.648H84.6861V311.244H86.2821V314.422H79.9121V316.018H84.6861V317.6H79.9121V316.018H78.3301V311.244H79.9121V312.84H84.6861V311.244ZM102.155 314.422V309.648H100.573V308.066H95.7988V316.018H100.573V317.6H94.2168V306.484H100.573V308.066H102.155V309.648H103.751V314.422H102.155ZM102.155 316.018H100.573V314.422H102.155V316.018ZM113.288 311.244H108.514V309.648H113.288V311.244H114.884V314.422H108.514V316.018H113.288V317.6H108.514V316.018H106.932V311.244H108.514V312.84H113.288V311.244ZM122.817 317.6H118.057V320.778H116.461V309.648H122.817V311.244H124.413V316.004H122.817V311.244H118.043V316.004H122.817V317.6ZM127.586 317.6V308.066H125.99V306.484H129.168V317.6H127.586ZM138.704 316.018V311.244H133.93V309.648H138.704V311.244H140.286L140.3 316.018H138.704ZM138.704 317.6H133.93V316.018H132.348V311.244H133.93V316.018H138.704V317.6ZM148.233 319.196V317.6H143.459V316.004H141.877V309.648H143.459V316.004H148.233V309.648H149.829V319.196H148.233ZM148.233 319.196V320.778H143.459V319.196H148.233ZM160.958 311.244V317.6H159.362V311.244H154.602V317.6H153.006V309.648H159.362V311.244H160.958ZM165.718 317.6V311.244H160.958V309.648H165.718V311.244H167.3V317.6H165.718ZM176.848 311.244H172.074V309.648H176.848V311.244H178.444V314.422H172.074V316.018H176.848V317.6H172.074V316.018H170.492V311.244H172.074V312.84H176.848V311.244ZM186.377 317.6V311.244H181.617V317.6H180.021V309.648H186.377V311.244H187.973V317.6H186.377ZM194.328 317.6V316.018H192.746V311.244H191.15V309.648H192.732V306.484H194.328V309.648H197.506V311.244H194.328V316.018H197.506V317.6H194.328Z" fill="white"/>
</g>
<defs>
<filter id="filter0_d_32_886" x="0" y="0" width="311" height="374" filterUnits="userSpaceOnUse" color-interpolation-filters="sRGB">
<feFlood flood-opacity="0" result="BackgroundImageFix"/>
<feColorMatrix in="SourceAlpha" type="matrix" values="0 0 0 0 0 0 0 0 0 0 0 0 0 0 0 0 0 0 127 0" result="hardAlpha"/>
<feOffset dy="2"/>
<feComposite in2="hardAlpha" operator="out"/>
<feColorMatrix type="matrix" values="0 0 0 0 0.0901961 0 0 0 0 0.72549 0 0 0 0 0.0313726 0 0 0 1 0"/>
<feBlend mode="normal" in2="BackgroundImageFix" result="effect1_dropShadow_32_886"/>
<feBlend mode="normal" in="SourceGraphic" in2="effect1_dropShadow_32_886" result="shape"/>
</filter>
<filter id="filter1_d_32_886" x="20.5" y="141.663" width="267.638" height="56.9375" filterUnits="userSpaceOnUse" color-interpolation-filters="sRGB">
<feFlood flood-opacity="0" result="BackgroundImageFix"/>
<feColorMatrix in="SourceAlpha" type="matrix" values="0 0 0 0 0 0 0 0 0 0 0 0 0 0 0 0 0 0 127 0" result="hardAlpha"/>
<feOffset dy="2"/>
<feComposite in2="hardAlpha" operator="out"/>
<feColorMatrix type="matrix" values="0 0 0 0 1 0 0 0 0 0.882228 0 0 0 0 0.298077 0 0 0 1 0"/>
<feBlend mode="normal" in2="BackgroundImageFix" result="effect1_dropShadow_32_886"/>
<feBlend mode="normal" in="SourceGraphic" in2="effect1_dropShadow_32_886" result="shape"/>
</filter>
<clipPath id="clip0_32_886">
<rect width="58.8" height="67.2" fill="white" transform="translate(126.1 48.3999)"/>
</clipPath>
</defs>
</svg>
