<svg width="311" height="374" viewBox="0 0 311 374" fill="none" xmlns="http://www.w3.org/2000/svg">
<g filter="url(#filter0_d_32_808)">
<rect width="311" height="372" fill="#7936D8" shape-rendering="crispEdges"/>
<rect x="1" y="1" width="309" height="370" stroke="#4C28B8" stroke-width="2" shape-rendering="crispEdges"/>
<g clip-path="url(#clip0_32_808)">
<path d="M147.1 106.2H130.3V110.4H147.1V106.2Z" fill="#448700"/>
<path d="M147.1 127.2H130.3V131.4H147.1V127.2Z" fill="#662014"/>
<path d="M151.3 110.4H147.1V127.2H151.3V110.4Z" fill="#304C0F"/>
<path d="M147.1 110.4H130.3V127.2H147.1V110.4Z" fill="#C60045"/>
<path d="M130.3 110.4H126.1V127.2H130.3V110.4Z" fill="#991900"/>
<path d="M138.7 110.4H130.3V114.6H138.7V110.4Z" fill="#F8FFAF"/>
<path d="M147.1 110.4H142.9V127.2H147.1V110.4Z" fill="#448700"/>
<path d="M130.3 123V127.2H147.1V123H130.3Z" fill="#C60000"/>
<path d="M134.5 93.6001H130.3V97.8001H134.5V93.6001Z" fill="#FF6417"/>
<path d="M147.1 89.4001H134.5V93.6001H147.1V89.4001Z" fill="#304C0F"/>
<path d="M147.1 110.4H130.3V114.6H147.1V110.4Z" fill="#991900"/>
<path d="M151.3 93.6001H147.1V110.4H151.3V93.6001Z" fill="#662014"/>
<path d="M147.1 93.6001V110.4H130.3V97.8001H134.5V93.6001H147.1Z" fill="#C60045"/>
<path d="M130.3 97.8H126.1V110.4H130.3V97.8Z" fill="#FF6417"/>
<path d="M134.5 97.8H130.3V102H134.5V97.8Z" fill="white"/>
<path d="M147.1 93.6001H142.9V110.4H147.1V93.6001Z" fill="#448700"/>
<path d="M147.1 106.2H130.3V110.4H147.1V106.2Z" fill="#C60045"/>
<path d="M163.9 123H159.7V127.2H163.9V123Z" fill="#662014"/>
<path d="M168.1 110.4H163.9V123H168.1V110.4Z" fill="#662014"/>
<path d="M147.1 110.4H142.9V127.2H147.1V110.4Z" fill="#C60000"/>
<path d="M163.9 106.2H147.1V110.4H163.9V106.2Z" fill="#304C0F"/>
<path d="M163.9 110.4V123H159.7V127.2H147.1V110.4H163.9Z" fill="#C60045"/>
<path d="M159.7 127.2H147.1V131.4H159.7V127.2Z" fill="#662014"/>
<path d="M159.7 123H147.1V127.2H159.7V123Z" fill="#C60000"/>
<path d="M159.7 110.4V123H163.9V110.4H159.7Z" fill="#C60000"/>
<path d="M142.9 76.8H138.7V81H142.9V76.8Z" fill="#FF6417"/>
<path d="M155.5 72.6001H142.9V76.8001H155.5V72.6001Z" fill="#FF6417"/>
<path d="M155.5 93.6001H138.7V97.8001H155.5V93.6001Z" fill="#991900"/>
<path d="M159.7 76.8H155.5V93.6H159.7V76.8Z" fill="#662014"/>
<path d="M155.5 76.8V93.6H138.7V81H142.9V76.8H155.5Z" fill="#C60045"/>
<path d="M138.7 81H134.5V93.6H138.7V81Z" fill="#FF6417"/>
<path d="M147.1 76.8H142.9V81H147.1V76.8Z" fill="white"/>
<path d="M155.5 89.4001H138.7V93.6001H155.5V89.4001Z" fill="#C60000"/>
<path d="M151.3 76.8001V93.6001H155.5V76.8001H151.3Z" fill="#C60000"/>
<path d="M180.7 114.6H176.5V118.8H180.7V114.6Z" fill="#662014"/>
<path d="M184.9 102H180.7V114.6H184.9V102Z" fill="#662014"/>
<path d="M163.9 102H159.7V118.8H163.9V102Z" fill="#662014"/>
<path d="M180.7 97.8H163.9V102H180.7V97.8Z" fill="#662014"/>
<path d="M180.7 102V114.6H176.5V118.8H163.9V102H180.7Z" fill="#C60000"/>
<path d="M176.5 118.8H163.9V123H176.5V118.8Z" fill="#662014"/>
<path d="M180.7 102H176.5V114.6H180.7V102Z" fill="#991900"/>
<path d="M163.9 114.6V118.8H176.5V114.6H163.9Z" fill="#991900"/>
<path d="M176.5 81H172.3V85.2H176.5V81Z" fill="#87D62A"/>
<path d="M180.7 76.8H176.5V81H180.7V76.8Z" fill="#87D62A"/>
<path d="M159.7 81H155.5V93.6H159.7V81Z" fill="#991900"/>
<path d="M163.9 97.8V102H176.5V97.8H163.9Z" fill="#991900"/>
<path d="M172.3 81H163.9V85.2H172.3V81Z" fill="#DDED8E"/>
<path d="M163.9 76.8H159.7V81H163.9V76.8Z" fill="#DDED8E"/>
<path d="M180.7 93.6001H176.5V97.8001H180.7V93.6001Z" fill="#304C0F"/>
<path d="M176.5 76.8H172.3V81H176.5V76.8Z" fill="#DDED8E"/>
<path d="M180.7 72.6001H176.5V76.8001H180.7V72.6001Z" fill="#DDED8E"/>
<path d="M184.9 72.6001H180.7V76.8001H184.9V72.6001Z" fill="#448700"/>
<path d="M184.9 76.8H180.7V81H184.9V76.8Z" fill="#448700"/>
<path d="M180.7 81H176.5V85.2H180.7V81Z" fill="#448700"/>
<path d="M176.5 85.2002H172.3V93.6002H176.5V85.2002Z" fill="#448700"/>
<path d="M172.3 93.6V89.4V85.2H163.9V81H159.7V85.2V89.4V93.6H163.9V97.8H176.5V93.6H172.3Z" fill="#448700"/>
<path d="M176.5 93.6001H172.3V97.8001H176.5V93.6001Z" fill="#87D62A"/>
<path d="M172.3 85.2002H168.1V93.6002H172.3V85.2002Z" fill="#87D62A"/>
<path d="M159.7 89.4001H147.1V93.6001H159.7V89.4001Z" fill="#991900"/>
<path d="M159.7 114.6H147.1V118.8H159.7V114.6Z" fill="#662014"/>
<path d="M168.1 97.8H163.9V110.4H168.1V97.8Z" fill="#991900"/>
<path d="M142.9 97.8H138.7V110.4H142.9V97.8Z" fill="#991900"/>
<path d="M147.1 110.4H142.9V114.6H147.1V110.4Z" fill="#662014"/>
<path d="M163.9 110.4H159.7V114.6H163.9V110.4Z" fill="#991900"/>
<path d="M147.1 93.6001H142.9V97.8001H147.1V93.6001Z" fill="#C60000"/>
<path d="M163.9 97.8001V110.4H159.7V114.6H147.1V110.4H142.9V97.8001H147.1V93.6001H159.7V97.8001H163.9Z" fill="#C60045"/>
<path d="M163.9 93.6001H159.7V97.8001H163.9V93.6001Z" fill="#991900"/>
<path d="M151.3 97.8H147.1V102H151.3V97.8Z" fill="white"/>
<path d="M163.9 97.8H159.7V110.4H163.9V97.8Z" fill="#C60000"/>
<path d="M147.1 110.4V114.6H159.7V110.4H147.1Z" fill="#C60000"/>
</g>
<g filter="url(#filter1_d_32_808)">
<mask id="path-73-outside-1_32_808" maskUnits="userSpaceOnUse" x="20" y="157.4" width="269" height="35" fill="black">
<rect fill="white" x="20" y="157.4" width="269" height="35"/>
<path d="M47.1375 159.462V168.837H50.2625V159.462H53.3875V168.837H51.825V170.4H44.0125V168.837H42.45V159.462H47.1375ZM55.75 170.4V159.462H65.125V161.025H66.6875V170.4H63.5625V161.025H60.4375L60.4453 170.4H55.75ZM69.05 170.4V159.462H78.425V161.025H79.9875V168.837H78.425V170.4H69.05ZM73.7453 168.837H76.8625V161.025H73.7375L73.7453 168.837ZM93.2875 170.4H82.35V159.462H93.2875V161.025H87.0375V164.15H91.725V165.712H87.0375V168.837H93.2875V170.4ZM95.65 170.4V159.462H105.025V161.025H106.587V164.15H105.025V165.712H106.587V170.4H101.9V165.712H98.7828V170.4H95.65ZM100.337 161.025V164.15H103.462V161.025H100.337ZM108.95 167.275H112.075V168.837H116.762V165.712H110.512V164.15H108.95V161.025H110.512V159.462H118.325V161.025H119.887V162.587H116.762V161.025H113.637V164.15H118.325V165.712H119.887V168.837H118.325V170.4H110.512V168.837H108.95V167.275ZM133.188 159.462V161.025H130.062V170.4H125.375V161.025H122.25V159.462H133.188ZM135.55 170.4V161.025H137.112V159.462H144.925V161.025H146.487V170.4H143.362V165.712H140.237V170.4H135.55ZM140.237 161.267V164.15H143.362V161.267H140.237ZM148.85 170.4V159.462H158.225V161.025H159.788V170.4H156.663V161.025H153.538L153.545 170.4H148.85ZM162.15 170.4V159.462H171.525V161.025H173.087V168.837H171.525V170.4H162.15ZM166.845 168.837H169.962V161.025H166.837L166.845 168.837ZM184.825 159.462V161.025H183.262V168.837H184.825V170.4H177.012V168.837H178.575V161.025H177.012V159.462H184.825ZM188.75 170.4V159.462H198.125V161.025H199.688V170.4H196.562V161.025H193.438L193.445 170.4H188.75ZM212.988 164.15V168.837H211.425V170.4H203.613V168.837H202.05V161.025H203.613V159.462H211.433V161.025H212.988V162.587H211.425V161.025H206.738V168.837H209.863V165.712H208.3L208.308 164.15H212.988ZM239.587 159.462V161.025H236.462V170.4H231.775V161.025H228.65V159.462H239.587ZM252.887 159.462V170.4H249.762V165.712H246.637V170.4H241.95V159.462H246.637V164.15H249.762V159.462H252.887ZM266.188 170.4H255.25V159.462H266.188V161.025H259.938V164.15H264.625V165.712H259.938V168.837H266.188V170.4ZM32.275 188.837V179.462H33.8375V188.837H32.2828V190.4H24.4625V188.837H22.9V179.462H26.025V188.837H27.5875V179.462H30.7125V188.837H32.275ZM47.1375 190.4H36.2V179.462H47.1375V181.025H40.8875V184.15H45.575V185.712H40.8875V188.837H47.1375V190.4ZM49.5 190.4V179.462H58.875V181.025H60.4375V184.15H58.875V185.712H60.4375V188.837H58.875V190.4H49.5ZM54.1953 185.712V188.837H57.3125V185.712H54.1953ZM54.1875 181.025V184.15H57.3125V181.025H54.1875ZM64.3625 188.837H62.8V185.712H64.3703V188.837H69.05V185.712H65.925V184.15H69.05V181.025H64.3703V182.587H62.8V181.025H64.3625V179.462H72.175V181.025H73.7375V184.15H72.175V185.712H73.7375V188.837H72.175V190.4H64.3625V188.837ZM100.337 184.15V188.837H98.775V190.4H90.9625V188.837H89.4V181.025H90.9625V179.462H98.7828V181.025H100.337V182.587H98.775V181.025H94.0875V188.837H97.2125V185.712H95.65L95.6578 184.15H100.337ZM102.7 190.4V181.025H104.262V179.462H112.075V181.025H113.637V190.4H110.512V185.712H107.387V190.4H102.7ZM107.387 181.267V184.15H110.512V181.267H107.387ZM123.812 181.025V190.4H120.687V181.025H119.125V190.4H116V179.462H125.383V181.025H126.937V190.4H125.375V181.025H123.812ZM138.675 179.462V181.025H137.112V188.837H138.675V190.4H130.862V188.837H132.425V181.025H130.862V179.462H138.675ZM142.6 190.4V179.462H151.975V181.025H153.537V190.4H150.412V181.025H147.287L147.295 190.4H142.6ZM166.837 184.15V188.837H165.275V190.4H157.462V188.837H155.9V181.025H157.462V179.462H165.283V181.025H166.837V182.587H165.275V181.025H160.587V188.837H163.712V185.712H162.15L162.158 184.15H166.837ZM187.195 185.712L187.211 190.4H182.5V179.462H191.875V181.025H193.438V184.15H191.875V185.712H187.195ZM187.188 181.025V184.15H190.312V181.025H187.188ZM195.8 190.4V181.025H197.362V179.462H205.175V181.025H206.737V190.4H203.612V185.712H200.487V190.4H195.8ZM200.487 181.267V184.15H203.612V181.267H200.487ZM209.1 190.4V179.462H218.475V181.025H220.037V184.15H218.475V185.712H220.037V190.4H215.35V185.712H212.233V190.4H209.1ZM213.787 181.025V184.15H216.912V181.025H213.787ZM222.4 190.4V181.025H223.962V179.462H231.775V181.025H233.337V190.4H230.212V185.712H227.087V190.4H222.4ZM227.087 181.267V184.15H230.212V181.267H227.087ZM235.7 190.4V179.462H245.075V181.025H246.637V188.837H245.075V190.4H235.7ZM240.395 188.837H243.512V181.025H240.387L240.395 188.837ZM258.375 179.462V181.025H256.812V188.837H258.375V190.4H250.562V188.837H252.125V181.025H250.562V179.462H258.375ZM273.237 184.15V188.837H271.675V190.4H263.862V188.837H262.3V181.025H263.862V179.462H271.683V181.025H273.237V182.587H271.675V181.025H266.987V188.837H270.112V185.712H268.55L268.558 184.15H273.237ZM283.412 181.025V190.4H280.287V181.025H278.725V190.4H275.6V179.462H284.983V181.025H286.537V190.4H284.975V181.025H283.412Z"/>
</mask>
<path d="M47.1375 159.462V168.837H50.2625V159.462H53.3875V168.837H51.825V170.4H44.0125V168.837H42.45V159.462H47.1375ZM55.75 170.4V159.462H65.125V161.025H66.6875V170.4H63.5625V161.025H60.4375L60.4453 170.4H55.75ZM69.05 170.4V159.462H78.425V161.025H79.9875V168.837H78.425V170.4H69.05ZM73.7453 168.837H76.8625V161.025H73.7375L73.7453 168.837ZM93.2875 170.4H82.35V159.462H93.2875V161.025H87.0375V164.15H91.725V165.712H87.0375V168.837H93.2875V170.4ZM95.65 170.4V159.462H105.025V161.025H106.587V164.15H105.025V165.712H106.587V170.4H101.9V165.712H98.7828V170.4H95.65ZM100.337 161.025V164.15H103.462V161.025H100.337ZM108.95 167.275H112.075V168.837H116.762V165.712H110.512V164.15H108.95V161.025H110.512V159.462H118.325V161.025H119.887V162.587H116.762V161.025H113.637V164.15H118.325V165.712H119.887V168.837H118.325V170.4H110.512V168.837H108.95V167.275ZM133.188 159.462V161.025H130.062V170.4H125.375V161.025H122.25V159.462H133.188ZM135.55 170.4V161.025H137.112V159.462H144.925V161.025H146.487V170.4H143.362V165.712H140.237V170.4H135.55ZM140.237 161.267V164.15H143.362V161.267H140.237ZM148.85 170.4V159.462H158.225V161.025H159.788V170.4H156.663V161.025H153.538L153.545 170.4H148.85ZM162.15 170.4V159.462H171.525V161.025H173.087V168.837H171.525V170.4H162.15ZM166.845 168.837H169.962V161.025H166.837L166.845 168.837ZM184.825 159.462V161.025H183.262V168.837H184.825V170.4H177.012V168.837H178.575V161.025H177.012V159.462H184.825ZM188.75 170.4V159.462H198.125V161.025H199.688V170.4H196.562V161.025H193.438L193.445 170.4H188.75ZM212.988 164.15V168.837H211.425V170.4H203.613V168.837H202.05V161.025H203.613V159.462H211.433V161.025H212.988V162.587H211.425V161.025H206.738V168.837H209.863V165.712H208.3L208.308 164.15H212.988ZM239.587 159.462V161.025H236.462V170.4H231.775V161.025H228.65V159.462H239.587ZM252.887 159.462V170.4H249.762V165.712H246.637V170.4H241.95V159.462H246.637V164.15H249.762V159.462H252.887ZM266.188 170.4H255.25V159.462H266.188V161.025H259.938V164.15H264.625V165.712H259.938V168.837H266.188V170.4ZM32.275 188.837V179.462H33.8375V188.837H32.2828V190.4H24.4625V188.837H22.9V179.462H26.025V188.837H27.5875V179.462H30.7125V188.837H32.275ZM47.1375 190.4H36.2V179.462H47.1375V181.025H40.8875V184.15H45.575V185.712H40.8875V188.837H47.1375V190.4ZM49.5 190.4V179.462H58.875V181.025H60.4375V184.15H58.875V185.712H60.4375V188.837H58.875V190.4H49.5ZM54.1953 185.712V188.837H57.3125V185.712H54.1953ZM54.1875 181.025V184.15H57.3125V181.025H54.1875ZM64.3625 188.837H62.8V185.712H64.3703V188.837H69.05V185.712H65.925V184.15H69.05V181.025H64.3703V182.587H62.8V181.025H64.3625V179.462H72.175V181.025H73.7375V184.15H72.175V185.712H73.7375V188.837H72.175V190.4H64.3625V188.837ZM100.337 184.15V188.837H98.775V190.4H90.9625V188.837H89.4V181.025H90.9625V179.462H98.7828V181.025H100.337V182.587H98.775V181.025H94.0875V188.837H97.2125V185.712H95.65L95.6578 184.15H100.337ZM102.7 190.4V181.025H104.262V179.462H112.075V181.025H113.637V190.4H110.512V185.712H107.387V190.4H102.7ZM107.387 181.267V184.15H110.512V181.267H107.387ZM123.812 181.025V190.4H120.687V181.025H119.125V190.4H116V179.462H125.383V181.025H126.937V190.4H125.375V181.025H123.812ZM138.675 179.462V181.025H137.112V188.837H138.675V190.4H130.862V188.837H132.425V181.025H130.862V179.462H138.675ZM142.6 190.4V179.462H151.975V181.025H153.537V190.4H150.412V181.025H147.287L147.295 190.4H142.6ZM166.837 184.15V188.837H165.275V190.4H157.462V188.837H155.9V181.025H157.462V179.462H165.283V181.025H166.837V182.587H165.275V181.025H160.587V188.837H163.712V185.712H162.15L162.158 184.15H166.837ZM187.195 185.712L187.211 190.4H182.5V179.462H191.875V181.025H193.438V184.15H191.875V185.712H187.195ZM187.188 181.025V184.15H190.312V181.025H187.188ZM195.8 190.4V181.025H197.362V179.462H205.175V181.025H206.737V190.4H203.612V185.712H200.487V190.4H195.8ZM200.487 181.267V184.15H203.612V181.267H200.487ZM209.1 190.4V179.462H218.475V181.025H220.037V184.15H218.475V185.712H220.037V190.4H215.35V185.712H212.233V190.4H209.1ZM213.787 181.025V184.15H216.912V181.025H213.787ZM222.4 190.4V181.025H223.962V179.462H231.775V181.025H233.337V190.4H230.212V185.712H227.087V190.4H222.4ZM227.087 181.267V184.15H230.212V181.267H227.087ZM235.7 190.4V179.462H245.075V181.025H246.637V188.837H245.075V190.4H235.7ZM240.395 188.837H243.512V181.025H240.387L240.395 188.837ZM258.375 179.462V181.025H256.812V188.837H258.375V190.4H250.562V188.837H252.125V181.025H250.562V179.462H258.375ZM273.237 184.15V188.837H271.675V190.4H263.862V188.837H262.3V181.025H263.862V179.462H271.683V181.025H273.237V182.587H271.675V181.025H266.987V188.837H270.112V185.712H268.55L268.558 184.15H273.237ZM283.412 181.025V190.4H280.287V181.025H278.725V190.4H275.6V179.462H284.983V181.025H286.537V190.4H284.975V181.025H283.412Z" fill="white"/>
<path d="M47.1375 159.462H49.1375V157.462H47.1375V159.462ZM47.1375 168.837H45.1375V170.837H47.1375V168.837ZM50.2625 168.837V170.837H52.2625V168.837H50.2625ZM50.2625 159.462V157.462H48.2625V159.462H50.2625ZM53.3875 159.462H55.3875V157.462H53.3875V159.462ZM53.3875 168.837V170.837H55.3875V168.837H53.3875ZM51.825 168.837V166.837H49.825V168.837H51.825ZM51.825 170.4V172.4H53.825V170.4H51.825ZM44.0125 170.4H42.0125V172.4H44.0125V170.4ZM44.0125 168.837H46.0125V166.837H44.0125V168.837ZM42.45 168.837H40.45V170.837H42.45V168.837ZM42.45 159.462V157.462H40.45V159.462H42.45ZM47.1375 159.462H45.1375V168.837H47.1375H49.1375V159.462H47.1375ZM47.1375 168.837V170.837H50.2625V168.837V166.837H47.1375V168.837ZM50.2625 168.837H52.2625V159.462H50.2625H48.2625V168.837H50.2625ZM50.2625 159.462V161.462H53.3875V159.462V157.462H50.2625V159.462ZM53.3875 159.462H51.3875V168.837H53.3875H55.3875V159.462H53.3875ZM53.3875 168.837V166.837H51.825V168.837V170.837H53.3875V168.837ZM51.825 168.837H49.825V170.4H51.825H53.825V168.837H51.825ZM51.825 170.4V168.4H44.0125V170.4V172.4H51.825V170.4ZM44.0125 170.4H46.0125V168.837H44.0125H42.0125V170.4H44.0125ZM44.0125 168.837V166.837H42.45V168.837V170.837H44.0125V168.837ZM42.45 168.837H44.45V159.462H42.45H40.45V168.837H42.45ZM42.45 159.462V161.462H47.1375V159.462V157.462H42.45V159.462ZM55.75 170.4H53.75V172.4H55.75V170.4ZM55.75 159.462V157.462H53.75V159.462H55.75ZM65.125 159.462H67.125V157.462H65.125V159.462ZM65.125 161.025H63.125V163.025H65.125V161.025ZM66.6875 161.025H68.6875V159.025H66.6875V161.025ZM66.6875 170.4V172.4H68.6875V170.4H66.6875ZM63.5625 170.4H61.5625V172.4H63.5625V170.4ZM63.5625 161.025H65.5625V159.025H63.5625V161.025ZM60.4375 161.025V159.025H58.4358L58.4375 161.027L60.4375 161.025ZM60.4453 170.4V172.4H62.447L62.4453 170.398L60.4453 170.4ZM55.75 170.4H57.75V159.462H55.75H53.75V170.4H55.75ZM55.75 159.462V161.462H65.125V159.462V157.462H55.75V159.462ZM65.125 159.462H63.125V161.025H65.125H67.125V159.462H65.125ZM65.125 161.025V163.025H66.6875V161.025V159.025H65.125V161.025ZM66.6875 161.025H64.6875V170.4H66.6875H68.6875V161.025H66.6875ZM66.6875 170.4V168.4H63.5625V170.4V172.4H66.6875V170.4ZM63.5625 170.4H65.5625V161.025H63.5625H61.5625V170.4H63.5625ZM63.5625 161.025V159.025H60.4375V161.025V163.025H63.5625V161.025ZM60.4375 161.025L58.4375 161.027L58.4453 170.402L60.4453 170.4L62.4453 170.398L62.4375 161.023L60.4375 161.025ZM60.4453 170.4V168.4H55.75V170.4V172.4H60.4453V170.4ZM69.05 170.4H67.05V172.4H69.05V170.4ZM69.05 159.462V157.462H67.05V159.462H69.05ZM78.425 159.462H80.425V157.462H78.425V159.462ZM78.425 161.025H76.425V163.025H78.425V161.025ZM79.9875 161.025H81.9875V159.025H79.9875V161.025ZM79.9875 168.837V170.837H81.9875V168.837H79.9875ZM78.425 168.837V166.837H76.425V168.837H78.425ZM78.425 170.4V172.4H80.425V170.4H78.425ZM73.7453 168.837L71.7453 168.839L71.7473 170.837H73.7453V168.837ZM76.8625 168.837V170.837H78.8625V168.837H76.8625ZM76.8625 161.025H78.8625V159.025H76.8625V161.025ZM73.7375 161.025V159.025H71.7355L71.7375 161.027L73.7375 161.025ZM69.05 170.4H71.05V159.462H69.05H67.05V170.4H69.05ZM69.05 159.462V161.462H78.425V159.462V157.462H69.05V159.462ZM78.425 159.462H76.425V161.025H78.425H80.425V159.462H78.425ZM78.425 161.025V163.025H79.9875V161.025V159.025H78.425V161.025ZM79.9875 161.025H77.9875V168.837H79.9875H81.9875V161.025H79.9875ZM79.9875 168.837V166.837H78.425V168.837V170.837H79.9875V168.837ZM78.425 168.837H76.425V170.4H78.425H80.425V168.837H78.425ZM78.425 170.4V168.4H69.05V170.4V172.4H78.425V170.4ZM73.7453 168.837V170.837H76.8625V168.837V166.837H73.7453V168.837ZM76.8625 168.837H78.8625V161.025H76.8625H74.8625V168.837H76.8625ZM76.8625 161.025V159.025H73.7375V161.025V163.025H76.8625V161.025ZM73.7375 161.025L71.7375 161.027L71.7453 168.839L73.7453 168.837L75.7453 168.835L75.7375 161.023L73.7375 161.025ZM93.2875 170.4V172.4H95.2875V170.4H93.2875ZM82.35 170.4H80.35V172.4H82.35V170.4ZM82.35 159.462V157.462H80.35V159.462H82.35ZM93.2875 159.462H95.2875V157.462H93.2875V159.462ZM93.2875 161.025V163.025H95.2875V161.025H93.2875ZM87.0375 161.025V159.025H85.0375V161.025H87.0375ZM87.0375 164.15H85.0375V166.15H87.0375V164.15ZM91.725 164.15H93.725V162.15H91.725V164.15ZM91.725 165.712V167.712H93.725V165.712H91.725ZM87.0375 165.712V163.712H85.0375V165.712H87.0375ZM87.0375 168.837H85.0375V170.837H87.0375V168.837ZM93.2875 168.837H95.2875V166.837H93.2875V168.837ZM93.2875 170.4V168.4H82.35V170.4V172.4H93.2875V170.4ZM82.35 170.4H84.35V159.462H82.35H80.35V170.4H82.35ZM82.35 159.462V161.462H93.2875V159.462V157.462H82.35V159.462ZM93.2875 159.462H91.2875V161.025H93.2875H95.2875V159.462H93.2875ZM93.2875 161.025V159.025H87.0375V161.025V163.025H93.2875V161.025ZM87.0375 161.025H85.0375V164.15H87.0375H89.0375V161.025H87.0375ZM87.0375 164.15V166.15H91.725V164.15V162.15H87.0375V164.15ZM91.725 164.15H89.725V165.712H91.725H93.725V164.15H91.725ZM91.725 165.712V163.712H87.0375V165.712V167.712H91.725V165.712ZM87.0375 165.712H85.0375V168.837H87.0375H89.0375V165.712H87.0375ZM87.0375 168.837V170.837H93.2875V168.837V166.837H87.0375V168.837ZM93.2875 168.837H91.2875V170.4H93.2875H95.2875V168.837H93.2875ZM95.65 170.4H93.65V172.4H95.65V170.4ZM95.65 159.462V157.462H93.65V159.462H95.65ZM105.025 159.462H107.025V157.462H105.025V159.462ZM105.025 161.025H103.025V163.025H105.025V161.025ZM106.587 161.025H108.587V159.025H106.587V161.025ZM106.587 164.15V166.15H108.587V164.15H106.587ZM105.025 164.15V162.15H103.025V164.15H105.025ZM105.025 165.712H103.025V167.712H105.025V165.712ZM106.587 165.712H108.587V163.712H106.587V165.712ZM106.587 170.4V172.4H108.587V170.4H106.587ZM101.9 170.4H99.9V172.4H101.9V170.4ZM101.9 165.712H103.9V163.712H101.9V165.712ZM98.7828 165.712V163.712H96.7828V165.712H98.7828ZM98.7828 170.4V172.4H100.783V170.4H98.7828ZM100.337 161.025V159.025H98.3375V161.025H100.337ZM100.337 164.15H98.3375V166.15H100.337V164.15ZM103.462 164.15V166.15H105.462V164.15H103.462ZM103.462 161.025H105.462V159.025H103.462V161.025ZM95.65 170.4H97.65V159.462H95.65H93.65V170.4H95.65ZM95.65 159.462V161.462H105.025V159.462V157.462H95.65V159.462ZM105.025 159.462H103.025V161.025H105.025H107.025V159.462H105.025ZM105.025 161.025V163.025H106.587V161.025V159.025H105.025V161.025ZM106.587 161.025H104.587V164.15H106.587H108.587V161.025H106.587ZM106.587 164.15V162.15H105.025V164.15V166.15H106.587V164.15ZM105.025 164.15H103.025V165.712H105.025H107.025V164.15H105.025ZM105.025 165.712V167.712H106.587V165.712V163.712H105.025V165.712ZM106.587 165.712H104.587V170.4H106.587H108.587V165.712H106.587ZM106.587 170.4V168.4H101.9V170.4V172.4H106.587V170.4ZM101.9 170.4H103.9V165.712H101.9H99.9V170.4H101.9ZM101.9 165.712V163.712H98.7828V165.712V167.712H101.9V165.712ZM98.7828 165.712H96.7828V170.4H98.7828H100.783V165.712H98.7828ZM98.7828 170.4V168.4H95.65V170.4V172.4H98.7828V170.4ZM100.337 161.025H98.3375V164.15H100.337H102.337V161.025H100.337ZM100.337 164.15V166.15H103.462V164.15V162.15H100.337V164.15ZM103.462 164.15H105.462V161.025H103.462H101.462V164.15H103.462ZM103.462 161.025V159.025H100.337V161.025V163.025H103.462V161.025ZM108.95 167.275V165.275H106.95V167.275H108.95ZM112.075 167.275H114.075V165.275H112.075V167.275ZM112.075 168.837H110.075V170.837H112.075V168.837ZM116.762 168.837V170.837H118.762V168.837H116.762ZM116.762 165.712H118.762V163.712H116.762V165.712ZM110.512 165.712H108.512V167.712H110.512V165.712ZM110.512 164.15H112.512V162.15H110.512V164.15ZM108.95 164.15H106.95V166.15H108.95V164.15ZM108.95 161.025V159.025H106.95V161.025H108.95ZM110.512 161.025V163.025H112.512V161.025H110.512ZM110.512 159.462V157.462H108.512V159.462H110.512ZM118.325 159.462H120.325V157.462H118.325V159.462ZM118.325 161.025H116.325V163.025H118.325V161.025ZM119.887 161.025H121.887V159.025H119.887V161.025ZM119.887 162.587V164.587H121.887V162.587H119.887ZM116.762 162.587H114.762V164.587H116.762V162.587ZM116.762 161.025H118.762V159.025H116.762V161.025ZM113.637 161.025V159.025H111.637V161.025H113.637ZM113.637 164.15H111.637V166.15H113.637V164.15ZM118.325 164.15H120.325V162.15H118.325V164.15ZM118.325 165.712H116.325V167.712H118.325V165.712ZM119.887 165.712H121.887V163.712H119.887V165.712ZM119.887 168.837V170.837H121.887V168.837H119.887ZM118.325 168.837V166.837H116.325V168.837H118.325ZM118.325 170.4V172.4H120.325V170.4H118.325ZM110.512 170.4H108.512V172.4H110.512V170.4ZM110.512 168.837H112.512V166.837H110.512V168.837ZM108.95 168.837H106.95V170.837H108.95V168.837ZM108.95 167.275V169.275H112.075V167.275V165.275H108.95V167.275ZM112.075 167.275H110.075V168.837H112.075H114.075V167.275H112.075ZM112.075 168.837V170.837H116.762V168.837V166.837H112.075V168.837ZM116.762 168.837H118.762V165.712H116.762H114.762V168.837H116.762ZM116.762 165.712V163.712H110.512V165.712V167.712H116.762V165.712ZM110.512 165.712H112.512V164.15H110.512H108.512V165.712H110.512ZM110.512 164.15V162.15H108.95V164.15V166.15H110.512V164.15ZM108.95 164.15H110.95V161.025H108.95H106.95V164.15H108.95ZM108.95 161.025V163.025H110.512V161.025V159.025H108.95V161.025ZM110.512 161.025H112.512V159.462H110.512H108.512V161.025H110.512ZM110.512 159.462V161.462H118.325V159.462V157.462H110.512V159.462ZM118.325 159.462H116.325V161.025H118.325H120.325V159.462H118.325ZM118.325 161.025V163.025H119.887V161.025V159.025H118.325V161.025ZM119.887 161.025H117.887V162.587H119.887H121.887V161.025H119.887ZM119.887 162.587V160.587H116.762V162.587V164.587H119.887V162.587ZM116.762 162.587H118.762V161.025H116.762H114.762V162.587H116.762ZM116.762 161.025V159.025H113.637V161.025V163.025H116.762V161.025ZM113.637 161.025H111.637V164.15H113.637H115.637V161.025H113.637ZM113.637 164.15V166.15H118.325V164.15V162.15H113.637V164.15ZM118.325 164.15H116.325V165.712H118.325H120.325V164.15H118.325ZM118.325 165.712V167.712H119.887V165.712V163.712H118.325V165.712ZM119.887 165.712H117.887V168.837H119.887H121.887V165.712H119.887ZM119.887 168.837V166.837H118.325V168.837V170.837H119.887V168.837ZM118.325 168.837H116.325V170.4H118.325H120.325V168.837H118.325ZM118.325 170.4V168.4H110.512V170.4V172.4H118.325V170.4ZM110.512 170.4H112.512V168.837H110.512H108.512V170.4H110.512ZM110.512 168.837V166.837H108.95V168.837V170.837H110.512V168.837ZM108.95 168.837H110.95V167.275H108.95H106.95V168.837H108.95ZM133.188 159.462H135.188V157.462H133.188V159.462ZM133.188 161.025V163.025H135.188V161.025H133.188ZM130.062 161.025V159.025H128.062V161.025H130.062ZM130.062 170.4V172.4H132.062V170.4H130.062ZM125.375 170.4H123.375V172.4H125.375V170.4ZM125.375 161.025H127.375V159.025H125.375V161.025ZM122.25 161.025H120.25V163.025H122.25V161.025ZM122.25 159.462V157.462H120.25V159.462H122.25ZM133.188 159.462H131.188V161.025H133.188H135.188V159.462H133.188ZM133.188 161.025V159.025H130.062V161.025V163.025H133.188V161.025ZM130.062 161.025H128.062V170.4H130.062H132.062V161.025H130.062ZM130.062 170.4V168.4H125.375V170.4V172.4H130.062V170.4ZM125.375 170.4H127.375V161.025H125.375H123.375V170.4H125.375ZM125.375 161.025V159.025H122.25V161.025V163.025H125.375V161.025ZM122.25 161.025H124.25V159.462H122.25H120.25V161.025H122.25ZM122.25 159.462V161.462H133.188V159.462V157.462H122.25V159.462ZM135.55 170.4H133.55V172.4H135.55V170.4ZM135.55 161.025V159.025H133.55V161.025H135.55ZM137.112 161.025V163.025H139.112V161.025H137.112ZM137.112 159.462V157.462H135.112V159.462H137.112ZM144.925 159.462H146.925V157.462H144.925V159.462ZM144.925 161.025H142.925V163.025H144.925V161.025ZM146.487 161.025H148.487V159.025H146.487V161.025ZM146.487 170.4V172.4H148.487V170.4H146.487ZM143.362 170.4H141.362V172.4H143.362V170.4ZM143.362 165.712H145.362V163.712H143.362V165.712ZM140.237 165.712V163.712H138.237V165.712H140.237ZM140.237 170.4V172.4H142.237V170.4H140.237ZM140.237 161.267V159.267H138.237V161.267H140.237ZM140.237 164.15H138.237V166.15H140.237V164.15ZM143.362 164.15V166.15H145.362V164.15H143.362ZM143.362 161.267H145.362V159.267H143.362V161.267ZM135.55 170.4H137.55V161.025H135.55H133.55V170.4H135.55ZM135.55 161.025V163.025H137.112V161.025V159.025H135.55V161.025ZM137.112 161.025H139.112V159.462H137.112H135.112V161.025H137.112ZM137.112 159.462V161.462H144.925V159.462V157.462H137.112V159.462ZM144.925 159.462H142.925V161.025H144.925H146.925V159.462H144.925ZM144.925 161.025V163.025H146.487V161.025V159.025H144.925V161.025ZM146.487 161.025H144.487V170.4H146.487H148.487V161.025H146.487ZM146.487 170.4V168.4H143.362V170.4V172.4H146.487V170.4ZM143.362 170.4H145.362V165.712H143.362H141.362V170.4H143.362ZM143.362 165.712V163.712H140.237V165.712V167.712H143.362V165.712ZM140.237 165.712H138.237V170.4H140.237H142.237V165.712H140.237ZM140.237 170.4V168.4H135.55V170.4V172.4H140.237V170.4ZM140.237 161.267H138.237V164.15H140.237H142.237V161.267H140.237ZM140.237 164.15V166.15H143.362V164.15V162.15H140.237V164.15ZM143.362 164.15H145.362V161.267H143.362H141.362V164.15H143.362ZM143.362 161.267V159.267H140.237V161.267V163.267H143.362V161.267ZM148.85 170.4H146.85V172.4H148.85V170.4ZM148.85 159.462V157.462H146.85V159.462H148.85ZM158.225 159.462H160.225V157.462H158.225V159.462ZM158.225 161.025H156.225V163.025H158.225V161.025ZM159.788 161.025H161.788V159.025H159.788V161.025ZM159.788 170.4V172.4H161.788V170.4H159.788ZM156.663 170.4H154.663V172.4H156.663V170.4ZM156.663 161.025H158.663V159.025H156.663V161.025ZM153.538 161.025V159.025H151.536L151.538 161.027L153.538 161.025ZM153.545 170.4V172.4H155.547L155.545 170.398L153.545 170.4ZM148.85 170.4H150.85V159.462H148.85H146.85V170.4H148.85ZM148.85 159.462V161.462H158.225V159.462V157.462H148.85V159.462ZM158.225 159.462H156.225V161.025H158.225H160.225V159.462H158.225ZM158.225 161.025V163.025H159.788V161.025V159.025H158.225V161.025ZM159.788 161.025H157.788V170.4H159.788H161.788V161.025H159.788ZM159.788 170.4V168.4H156.663V170.4V172.4H159.788V170.4ZM156.663 170.4H158.663V161.025H156.663H154.663V170.4H156.663ZM156.663 161.025V159.025H153.538V161.025V163.025H156.663V161.025ZM153.538 161.025L151.538 161.027L151.545 170.402L153.545 170.4L155.545 170.398L155.538 161.023L153.538 161.025ZM153.545 170.4V168.4H148.85V170.4V172.4H153.545V170.4ZM162.15 170.4H160.15V172.4H162.15V170.4ZM162.15 159.462V157.462H160.15V159.462H162.15ZM171.525 159.462H173.525V157.462H171.525V159.462ZM171.525 161.025H169.525V163.025H171.525V161.025ZM173.087 161.025H175.087V159.025H173.087V161.025ZM173.087 168.837V170.837H175.087V168.837H173.087ZM171.525 168.837V166.837H169.525V168.837H171.525ZM171.525 170.4V172.4H173.525V170.4H171.525ZM166.845 168.837L164.845 168.839L164.847 170.837H166.845V168.837ZM169.962 168.837V170.837H171.962V168.837H169.962ZM169.962 161.025H171.962V159.025H169.962V161.025ZM166.837 161.025V159.025H164.835L164.837 161.027L166.837 161.025ZM162.15 170.4H164.15V159.462H162.15H160.15V170.4H162.15ZM162.15 159.462V161.462H171.525V159.462V157.462H162.15V159.462ZM171.525 159.462H169.525V161.025H171.525H173.525V159.462H171.525ZM171.525 161.025V163.025H173.087V161.025V159.025H171.525V161.025ZM173.087 161.025H171.087V168.837H173.087H175.087V161.025H173.087ZM173.087 168.837V166.837H171.525V168.837V170.837H173.087V168.837ZM171.525 168.837H169.525V170.4H171.525H173.525V168.837H171.525ZM171.525 170.4V168.4H162.15V170.4V172.4H171.525V170.4ZM166.845 168.837V170.837H169.962V168.837V166.837H166.845V168.837ZM169.962 168.837H171.962V161.025H169.962H167.962V168.837H169.962ZM169.962 161.025V159.025H166.837V161.025V163.025H169.962V161.025ZM166.837 161.025L164.837 161.027L164.845 168.839L166.845 168.837L168.845 168.835L168.837 161.023L166.837 161.025ZM184.825 159.462H186.825V157.462H184.825V159.462ZM184.825 161.025V163.025H186.825V161.025H184.825ZM183.262 161.025V159.025H181.262V161.025H183.262ZM183.262 168.837H181.262V170.837H183.262V168.837ZM184.825 168.837H186.825V166.837H184.825V168.837ZM184.825 170.4V172.4H186.825V170.4H184.825ZM177.012 170.4H175.012V172.4H177.012V170.4ZM177.012 168.837V166.837H175.012V168.837H177.012ZM178.575 168.837V170.837H180.575V168.837H178.575ZM178.575 161.025H180.575V159.025H178.575V161.025ZM177.012 161.025H175.012V163.025H177.012V161.025ZM177.012 159.462V157.462H175.012V159.462H177.012ZM184.825 159.462H182.825V161.025H184.825H186.825V159.462H184.825ZM184.825 161.025V159.025H183.262V161.025V163.025H184.825V161.025ZM183.262 161.025H181.262V168.837H183.262H185.262V161.025H183.262ZM183.262 168.837V170.837H184.825V168.837V166.837H183.262V168.837ZM184.825 168.837H182.825V170.4H184.825H186.825V168.837H184.825ZM184.825 170.4V168.4H177.012V170.4V172.4H184.825V170.4ZM177.012 170.4H179.012V168.837H177.012H175.012V170.4H177.012ZM177.012 168.837V170.837H178.575V168.837V166.837H177.012V168.837ZM178.575 168.837H180.575V161.025H178.575H176.575V168.837H178.575ZM178.575 161.025V159.025H177.012V161.025V163.025H178.575V161.025ZM177.012 161.025H179.012V159.462H177.012H175.012V161.025H177.012ZM177.012 159.462V161.462H184.825V159.462V157.462H177.012V159.462ZM188.75 170.4H186.75V172.4H188.75V170.4ZM188.75 159.462V157.462H186.75V159.462H188.75ZM198.125 159.462H200.125V157.462H198.125V159.462ZM198.125 161.025H196.125V163.025H198.125V161.025ZM199.688 161.025H201.688V159.025H199.688V161.025ZM199.688 170.4V172.4H201.688V170.4H199.688ZM196.562 170.4H194.562V172.4H196.562V170.4ZM196.562 161.025H198.562V159.025H196.562V161.025ZM193.438 161.025V159.025H191.436L191.438 161.027L193.438 161.025ZM193.445 170.4V172.4H195.447L195.445 170.398L193.445 170.4ZM188.75 170.4H190.75V159.462H188.75H186.75V170.4H188.75ZM188.75 159.462V161.462H198.125V159.462V157.462H188.75V159.462ZM198.125 159.462H196.125V161.025H198.125H200.125V159.462H198.125ZM198.125 161.025V163.025H199.688V161.025V159.025H198.125V161.025ZM199.688 161.025H197.688V170.4H199.688H201.688V161.025H199.688ZM199.688 170.4V168.4H196.562V170.4V172.4H199.688V170.4ZM196.562 170.4H198.562V161.025H196.562H194.562V170.4H196.562ZM196.562 161.025V159.025H193.438V161.025V163.025H196.562V161.025ZM193.438 161.025L191.438 161.027L191.445 170.402L193.445 170.4L195.445 170.398L195.438 161.023L193.438 161.025ZM193.445 170.4V168.4H188.75V170.4V172.4H193.445V170.4ZM212.988 164.15H214.988V162.15H212.988V164.15ZM212.988 168.837V170.837H214.988V168.837H212.988ZM211.425 168.837V166.837H209.425V168.837H211.425ZM211.425 170.4V172.4H213.425V170.4H211.425ZM203.613 170.4H201.613V172.4H203.613V170.4ZM203.613 168.837H205.613V166.837H203.613V168.837ZM202.05 168.837H200.05V170.837H202.05V168.837ZM202.05 161.025V159.025H200.05V161.025H202.05ZM203.613 161.025V163.025H205.613V161.025H203.613ZM203.613 159.462V157.462H201.613V159.462H203.613ZM211.433 159.462H213.433V157.462H211.433V159.462ZM211.433 161.025H209.433V163.025H211.433V161.025ZM212.988 161.025H214.988V159.025H212.988V161.025ZM212.988 162.587V164.587H214.988V162.587H212.988ZM211.425 162.587H209.425V164.587H211.425V162.587ZM211.425 161.025H213.425V159.025H211.425V161.025ZM206.738 161.025V159.025H204.738V161.025H206.738ZM206.738 168.837H204.738V170.837H206.738V168.837ZM209.863 168.837V170.837H211.863V168.837H209.863ZM209.863 165.712H211.863V163.712H209.863V165.712ZM208.3 165.712L206.3 165.702L206.29 167.712H208.3V165.712ZM208.308 164.15V162.15H206.318L206.308 164.14L208.308 164.15ZM212.988 164.15H210.988V168.837H212.988H214.988V164.15H212.988ZM212.988 168.837V166.837H211.425V168.837V170.837H212.988V168.837ZM211.425 168.837H209.425V170.4H211.425H213.425V168.837H211.425ZM211.425 170.4V168.4H203.613V170.4V172.4H211.425V170.4ZM203.613 170.4H205.613V168.837H203.613H201.613V170.4H203.613ZM203.613 168.837V166.837H202.05V168.837V170.837H203.613V168.837ZM202.05 168.837H204.05V161.025H202.05H200.05V168.837H202.05ZM202.05 161.025V163.025H203.613V161.025V159.025H202.05V161.025ZM203.613 161.025H205.613V159.462H203.613H201.613V161.025H203.613ZM203.613 159.462V161.462H211.433V159.462V157.462H203.613V159.462ZM211.433 159.462H209.433V161.025H211.433H213.433V159.462H211.433ZM211.433 161.025V163.025H212.988V161.025V159.025H211.433V161.025ZM212.988 161.025H210.988V162.587H212.988H214.988V161.025H212.988ZM212.988 162.587V160.587H211.425V162.587V164.587H212.988V162.587ZM211.425 162.587H213.425V161.025H211.425H209.425V162.587H211.425ZM211.425 161.025V159.025H206.738V161.025V163.025H211.425V161.025ZM206.738 161.025H204.738V168.837H206.738H208.738V161.025H206.738ZM206.738 168.837V170.837H209.863V168.837V166.837H206.738V168.837ZM209.863 168.837H211.863V165.712H209.863H207.863V168.837H209.863ZM209.863 165.712V163.712H208.3V165.712V167.712H209.863V165.712ZM208.3 165.712L210.3 165.722L210.308 164.16L208.308 164.15L206.308 164.14L206.3 165.702L208.3 165.712ZM208.308 164.15V166.15H212.988V164.15V162.15H208.308V164.15ZM239.587 159.462H241.587V157.462H239.587V159.462ZM239.587 161.025V163.025H241.587V161.025H239.587ZM236.462 161.025V159.025H234.462V161.025H236.462ZM236.462 170.4V172.4H238.462V170.4H236.462ZM231.775 170.4H229.775V172.4H231.775V170.4ZM231.775 161.025H233.775V159.025H231.775V161.025ZM228.65 161.025H226.65V163.025H228.65V161.025ZM228.65 159.462V157.462H226.65V159.462H228.65ZM239.587 159.462H237.587V161.025H239.587H241.587V159.462H239.587ZM239.587 161.025V159.025H236.462V161.025V163.025H239.587V161.025ZM236.462 161.025H234.462V170.4H236.462H238.462V161.025H236.462ZM236.462 170.4V168.4H231.775V170.4V172.4H236.462V170.4ZM231.775 170.4H233.775V161.025H231.775H229.775V170.4H231.775ZM231.775 161.025V159.025H228.65V161.025V163.025H231.775V161.025ZM228.65 161.025H230.65V159.462H228.65H226.65V161.025H228.65ZM228.65 159.462V161.462H239.587V159.462V157.462H228.65V159.462ZM252.887 159.462H254.887V157.462H252.887V159.462ZM252.887 170.4V172.4H254.887V170.4H252.887ZM249.762 170.4H247.762V172.4H249.762V170.4ZM249.762 165.712H251.762V163.712H249.762V165.712ZM246.637 165.712V163.712H244.637V165.712H246.637ZM246.637 170.4V172.4H248.637V170.4H246.637ZM241.95 170.4H239.95V172.4H241.95V170.4ZM241.95 159.462V157.462H239.95V159.462H241.95ZM246.637 159.462H248.637V157.462H246.637V159.462ZM246.637 164.15H244.637V166.15H246.637V164.15ZM249.762 164.15V166.15H251.762V164.15H249.762ZM249.762 159.462V157.462H247.762V159.462H249.762ZM252.887 159.462H250.887V170.4H252.887H254.887V159.462H252.887ZM252.887 170.4V168.4H249.762V170.4V172.4H252.887V170.4ZM249.762 170.4H251.762V165.712H249.762H247.762V170.4H249.762ZM249.762 165.712V163.712H246.637V165.712V167.712H249.762V165.712ZM246.637 165.712H244.637V170.4H246.637H248.637V165.712H246.637ZM246.637 170.4V168.4H241.95V170.4V172.4H246.637V170.4ZM241.95 170.4H243.95V159.462H241.95H239.95V170.4H241.95ZM241.95 159.462V161.462H246.637V159.462V157.462H241.95V159.462ZM246.637 159.462H244.637V164.15H246.637H248.637V159.462H246.637ZM246.637 164.15V166.15H249.762V164.15V162.15H246.637V164.15ZM249.762 164.15H251.762V159.462H249.762H247.762V164.15H249.762ZM249.762 159.462V161.462H252.887V159.462V157.462H249.762V159.462ZM266.188 170.4V172.4H268.188V170.4H266.188ZM255.25 170.4H253.25V172.4H255.25V170.4ZM255.25 159.462V157.462H253.25V159.462H255.25ZM266.188 159.462H268.188V157.462H266.188V159.462ZM266.188 161.025V163.025H268.188V161.025H266.188ZM259.938 161.025V159.025H257.938V161.025H259.938ZM259.938 164.15H257.938V166.15H259.938V164.15ZM264.625 164.15H266.625V162.15H264.625V164.15ZM264.625 165.712V167.712H266.625V165.712H264.625ZM259.938 165.712V163.712H257.938V165.712H259.938ZM259.938 168.837H257.938V170.837H259.938V168.837ZM266.188 168.837H268.188V166.837H266.188V168.837ZM266.188 170.4V168.4H255.25V170.4V172.4H266.188V170.4ZM255.25 170.4H257.25V159.462H255.25H253.25V170.4H255.25ZM255.25 159.462V161.462H266.188V159.462V157.462H255.25V159.462ZM266.188 159.462H264.188V161.025H266.188H268.188V159.462H266.188ZM266.188 161.025V159.025H259.938V161.025V163.025H266.188V161.025ZM259.938 161.025H257.938V164.15H259.938H261.938V161.025H259.938ZM259.938 164.15V166.15H264.625V164.15V162.15H259.938V164.15ZM264.625 164.15H262.625V165.712H264.625H266.625V164.15H264.625ZM264.625 165.712V163.712H259.938V165.712V167.712H264.625V165.712ZM259.938 165.712H257.938V168.837H259.938H261.938V165.712H259.938ZM259.938 168.837V170.837H266.188V168.837V166.837H259.938V168.837ZM266.188 168.837H264.188V170.4H266.188H268.188V168.837H266.188ZM32.275 188.837V190.837H34.275V188.837H32.275ZM32.275 179.462V177.462H30.275V179.462H32.275ZM33.8375 179.462H35.8375V177.462H33.8375V179.462ZM33.8375 188.837V190.837H35.8375V188.837H33.8375ZM32.2828 188.837V186.837H30.2828V188.837H32.2828ZM32.2828 190.4V192.4H34.2828V190.4H32.2828ZM24.4625 190.4H22.4625V192.4H24.4625V190.4ZM24.4625 188.837H26.4625V186.837H24.4625V188.837ZM22.9 188.837H20.9V190.837H22.9V188.837ZM22.9 179.462V177.462H20.9V179.462H22.9ZM26.025 179.462H28.025V177.462H26.025V179.462ZM26.025 188.837H24.025V190.837H26.025V188.837ZM27.5875 188.837V190.837H29.5875V188.837H27.5875ZM27.5875 179.462V177.462H25.5875V179.462H27.5875ZM30.7125 179.462H32.7125V177.462H30.7125V179.462ZM30.7125 188.837H28.7125V190.837H30.7125V188.837ZM32.275 188.837H34.275V179.462H32.275H30.275V188.837H32.275ZM32.275 179.462V181.462H33.8375V179.462V177.462H32.275V179.462ZM33.8375 179.462H31.8375V188.837H33.8375H35.8375V179.462H33.8375ZM33.8375 188.837V186.837H32.2828V188.837V190.837H33.8375V188.837ZM32.2828 188.837H30.2828V190.4H32.2828H34.2828V188.837H32.2828ZM32.2828 190.4V188.4H24.4625V190.4V192.4H32.2828V190.4ZM24.4625 190.4H26.4625V188.837H24.4625H22.4625V190.4H24.4625ZM24.4625 188.837V186.837H22.9V188.837V190.837H24.4625V188.837ZM22.9 188.837H24.9V179.462H22.9H20.9V188.837H22.9ZM22.9 179.462V181.462H26.025V179.462V177.462H22.9V179.462ZM26.025 179.462H24.025V188.837H26.025H28.025V179.462H26.025ZM26.025 188.837V190.837H27.5875V188.837V186.837H26.025V188.837ZM27.5875 188.837H29.5875V179.462H27.5875H25.5875V188.837H27.5875ZM27.5875 179.462V181.462H30.7125V179.462V177.462H27.5875V179.462ZM30.7125 179.462H28.7125V188.837H30.7125H32.7125V179.462H30.7125ZM30.7125 188.837V190.837H32.275V188.837V186.837H30.7125V188.837ZM47.1375 190.4V192.4H49.1375V190.4H47.1375ZM36.2 190.4H34.2V192.4H36.2V190.4ZM36.2 179.462V177.462H34.2V179.462H36.2ZM47.1375 179.462H49.1375V177.462H47.1375V179.462ZM47.1375 181.025V183.025H49.1375V181.025H47.1375ZM40.8875 181.025V179.025H38.8875V181.025H40.8875ZM40.8875 184.15H38.8875V186.15H40.8875V184.15ZM45.575 184.15H47.575V182.15H45.575V184.15ZM45.575 185.712V187.712H47.575V185.712H45.575ZM40.8875 185.712V183.712H38.8875V185.712H40.8875ZM40.8875 188.837H38.8875V190.837H40.8875V188.837ZM47.1375 188.837H49.1375V186.837H47.1375V188.837ZM47.1375 190.4V188.4H36.2V190.4V192.4H47.1375V190.4ZM36.2 190.4H38.2V179.462H36.2H34.2V190.4H36.2ZM36.2 179.462V181.462H47.1375V179.462V177.462H36.2V179.462ZM47.1375 179.462H45.1375V181.025H47.1375H49.1375V179.462H47.1375ZM47.1375 181.025V179.025H40.8875V181.025V183.025H47.1375V181.025ZM40.8875 181.025H38.8875V184.15H40.8875H42.8875V181.025H40.8875ZM40.8875 184.15V186.15H45.575V184.15V182.15H40.8875V184.15ZM45.575 184.15H43.575V185.712H45.575H47.575V184.15H45.575ZM45.575 185.712V183.712H40.8875V185.712V187.712H45.575V185.712ZM40.8875 185.712H38.8875V188.837H40.8875H42.8875V185.712H40.8875ZM40.8875 188.837V190.837H47.1375V188.837V186.837H40.8875V188.837ZM47.1375 188.837H45.1375V190.4H47.1375H49.1375V188.837H47.1375ZM49.5 190.4H47.5V192.4H49.5V190.4ZM49.5 179.462V177.462H47.5V179.462H49.5ZM58.875 179.462H60.875V177.462H58.875V179.462ZM58.875 181.025H56.875V183.025H58.875V181.025ZM60.4375 181.025H62.4375V179.025H60.4375V181.025ZM60.4375 184.15V186.15H62.4375V184.15H60.4375ZM58.875 184.15V182.15H56.875V184.15H58.875ZM58.875 185.712H56.875V187.712H58.875V185.712ZM60.4375 185.712H62.4375V183.712H60.4375V185.712ZM60.4375 188.837V190.837H62.4375V188.837H60.4375ZM58.875 188.837V186.837H56.875V188.837H58.875ZM58.875 190.4V192.4H60.875V190.4H58.875ZM54.1953 185.712V183.712H52.1953V185.712H54.1953ZM54.1953 188.837H52.1953V190.837H54.1953V188.837ZM57.3125 188.837V190.837H59.3125V188.837H57.3125ZM57.3125 185.712H59.3125V183.712H57.3125V185.712ZM54.1875 181.025V179.025H52.1875V181.025H54.1875ZM54.1875 184.15H52.1875V186.15H54.1875V184.15ZM57.3125 184.15V186.15H59.3125V184.15H57.3125ZM57.3125 181.025H59.3125V179.025H57.3125V181.025ZM49.5 190.4H51.5V179.462H49.5H47.5V190.4H49.5ZM49.5 179.462V181.462H58.875V179.462V177.462H49.5V179.462ZM58.875 179.462H56.875V181.025H58.875H60.875V179.462H58.875ZM58.875 181.025V183.025H60.4375V181.025V179.025H58.875V181.025ZM60.4375 181.025H58.4375V184.15H60.4375H62.4375V181.025H60.4375ZM60.4375 184.15V182.15H58.875V184.15V186.15H60.4375V184.15ZM58.875 184.15H56.875V185.712H58.875H60.875V184.15H58.875ZM58.875 185.712V187.712H60.4375V185.712V183.712H58.875V185.712ZM60.4375 185.712H58.4375V188.837H60.4375H62.4375V185.712H60.4375ZM60.4375 188.837V186.837H58.875V188.837V190.837H60.4375V188.837ZM58.875 188.837H56.875V190.4H58.875H60.875V188.837H58.875ZM58.875 190.4V188.4H49.5V190.4V192.4H58.875V190.4ZM54.1953 185.712H52.1953V188.837H54.1953H56.1953V185.712H54.1953ZM54.1953 188.837V190.837H57.3125V188.837V186.837H54.1953V188.837ZM57.3125 188.837H59.3125V185.712H57.3125H55.3125V188.837H57.3125ZM57.3125 185.712V183.712H54.1953V185.712V187.712H57.3125V185.712ZM54.1875 181.025H52.1875V184.15H54.1875H56.1875V181.025H54.1875ZM54.1875 184.15V186.15H57.3125V184.15V182.15H54.1875V184.15ZM57.3125 184.15H59.3125V181.025H57.3125H55.3125V184.15H57.3125ZM57.3125 181.025V179.025H54.1875V181.025V183.025H57.3125V181.025ZM64.3625 188.837H66.3625V186.837H64.3625V188.837ZM62.8 188.837H60.8V190.837H62.8V188.837ZM62.8 185.712V183.712H60.8V185.712H62.8ZM64.3703 185.712H66.3703V183.712H64.3703V185.712ZM64.3703 188.837H62.3703V190.837H64.3703V188.837ZM69.05 188.837V190.837H71.05V188.837H69.05ZM69.05 185.712H71.05V183.712H69.05V185.712ZM65.925 185.712H63.925V187.712H65.925V185.712ZM65.925 184.15V182.15H63.925V184.15H65.925ZM69.05 184.15V186.15H71.05V184.15H69.05ZM69.05 181.025H71.05V179.025H69.05V181.025ZM64.3703 181.025V179.025H62.3703V181.025H64.3703ZM64.3703 182.587V184.587H66.3703V182.587H64.3703ZM62.8 182.587H60.8V184.587H62.8V182.587ZM62.8 181.025V179.025H60.8V181.025H62.8ZM64.3625 181.025V183.025H66.3625V181.025H64.3625ZM64.3625 179.462V177.462H62.3625V179.462H64.3625ZM72.175 179.462H74.175V177.462H72.175V179.462ZM72.175 181.025H70.175V183.025H72.175V181.025ZM73.7375 181.025H75.7375V179.025H73.7375V181.025ZM73.7375 184.15V186.15H75.7375V184.15H73.7375ZM72.175 184.15V182.15H70.175V184.15H72.175ZM72.175 185.712H70.175V187.712H72.175V185.712ZM73.7375 185.712H75.7375V183.712H73.7375V185.712ZM73.7375 188.837V190.837H75.7375V188.837H73.7375ZM72.175 188.837V186.837H70.175V188.837H72.175ZM72.175 190.4V192.4H74.175V190.4H72.175ZM64.3625 190.4H62.3625V192.4H64.3625V190.4ZM64.3625 188.837V186.837H62.8V188.837V190.837H64.3625V188.837ZM62.8 188.837H64.8V185.712H62.8H60.8V188.837H62.8ZM62.8 185.712V187.712H64.3703V185.712V183.712H62.8V185.712ZM64.3703 185.712H62.3703V188.837H64.3703H66.3703V185.712H64.3703ZM64.3703 188.837V190.837H69.05V188.837V186.837H64.3703V188.837ZM69.05 188.837H71.05V185.712H69.05H67.05V188.837H69.05ZM69.05 185.712V183.712H65.925V185.712V187.712H69.05V185.712ZM65.925 185.712H67.925V184.15H65.925H63.925V185.712H65.925ZM65.925 184.15V186.15H69.05V184.15V182.15H65.925V184.15ZM69.05 184.15H71.05V181.025H69.05H67.05V184.15H69.05ZM69.05 181.025V179.025H64.3703V181.025V183.025H69.05V181.025ZM64.3703 181.025H62.3703V182.587H64.3703H66.3703V181.025H64.3703ZM64.3703 182.587V180.587H62.8V182.587V184.587H64.3703V182.587ZM62.8 182.587H64.8V181.025H62.8H60.8V182.587H62.8ZM62.8 181.025V183.025H64.3625V181.025V179.025H62.8V181.025ZM64.3625 181.025H66.3625V179.462H64.3625H62.3625V181.025H64.3625ZM64.3625 179.462V181.462H72.175V179.462V177.462H64.3625V179.462ZM72.175 179.462H70.175V181.025H72.175H74.175V179.462H72.175ZM72.175 181.025V183.025H73.7375V181.025V179.025H72.175V181.025ZM73.7375 181.025H71.7375V184.15H73.7375H75.7375V181.025H73.7375ZM73.7375 184.15V182.15H72.175V184.15V186.15H73.7375V184.15ZM72.175 184.15H70.175V185.712H72.175H74.175V184.15H72.175ZM72.175 185.712V187.712H73.7375V185.712V183.712H72.175V185.712ZM73.7375 185.712H71.7375V188.837H73.7375H75.7375V185.712H73.7375ZM73.7375 188.837V186.837H72.175V188.837V190.837H73.7375V188.837ZM72.175 188.837H70.175V190.4H72.175H74.175V188.837H72.175ZM72.175 190.4V188.4H64.3625V190.4V192.4H72.175V190.4ZM64.3625 190.4H66.3625V188.837H64.3625H62.3625V190.4H64.3625ZM100.337 184.15H102.337V182.15H100.337V184.15ZM100.337 188.837V190.837H102.337V188.837H100.337ZM98.775 188.837V186.837H96.775V188.837H98.775ZM98.775 190.4V192.4H100.775V190.4H98.775ZM90.9625 190.4H88.9625V192.4H90.9625V190.4ZM90.9625 188.837H92.9625V186.837H90.9625V188.837ZM89.4 188.837H87.4V190.837H89.4V188.837ZM89.4 181.025V179.025H87.4V181.025H89.4ZM90.9625 181.025V183.025H92.9625V181.025H90.9625ZM90.9625 179.462V177.462H88.9625V179.462H90.9625ZM98.7828 179.462H100.783V177.462H98.7828V179.462ZM98.7828 181.025H96.7828V183.025H98.7828V181.025ZM100.337 181.025H102.337V179.025H100.337V181.025ZM100.337 182.587V184.587H102.337V182.587H100.337ZM98.775 182.587H96.775V184.587H98.775V182.587ZM98.775 181.025H100.775V179.025H98.775V181.025ZM94.0875 181.025V179.025H92.0875V181.025H94.0875ZM94.0875 188.837H92.0875V190.837H94.0875V188.837ZM97.2125 188.837V190.837H99.2125V188.837H97.2125ZM97.2125 185.712H99.2125V183.712H97.2125V185.712ZM95.65 185.712L93.65 185.702L93.64 187.712H95.65V185.712ZM95.6578 184.15V182.15H93.6678L93.6578 184.14L95.6578 184.15ZM100.337 184.15H98.3375V188.837H100.337H102.337V184.15H100.337ZM100.337 188.837V186.837H98.775V188.837V190.837H100.337V188.837ZM98.775 188.837H96.775V190.4H98.775H100.775V188.837H98.775ZM98.775 190.4V188.4H90.9625V190.4V192.4H98.775V190.4ZM90.9625 190.4H92.9625V188.837H90.9625H88.9625V190.4H90.9625ZM90.9625 188.837V186.837H89.4V188.837V190.837H90.9625V188.837ZM89.4 188.837H91.4V181.025H89.4H87.4V188.837H89.4ZM89.4 181.025V183.025H90.9625V181.025V179.025H89.4V181.025ZM90.9625 181.025H92.9625V179.462H90.9625H88.9625V181.025H90.9625ZM90.9625 179.462V181.462H98.7828V179.462V177.462H90.9625V179.462ZM98.7828 179.462H96.7828V181.025H98.7828H100.783V179.462H98.7828ZM98.7828 181.025V183.025H100.337V181.025V179.025H98.7828V181.025ZM100.337 181.025H98.3375V182.587H100.337H102.337V181.025H100.337ZM100.337 182.587V180.587H98.775V182.587V184.587H100.337V182.587ZM98.775 182.587H100.775V181.025H98.775H96.775V182.587H98.775ZM98.775 181.025V179.025H94.0875V181.025V183.025H98.775V181.025ZM94.0875 181.025H92.0875V188.837H94.0875H96.0875V181.025H94.0875ZM94.0875 188.837V190.837H97.2125V188.837V186.837H94.0875V188.837ZM97.2125 188.837H99.2125V185.712H97.2125H95.2125V188.837H97.2125ZM97.2125 185.712V183.712H95.65V185.712V187.712H97.2125V185.712ZM95.65 185.712L97.65 185.722L97.6578 184.16L95.6578 184.15L93.6578 184.14L93.65 185.702L95.65 185.712ZM95.6578 184.15V186.15H100.337V184.15V182.15H95.6578V184.15ZM102.7 190.4H100.7V192.4H102.7V190.4ZM102.7 181.025V179.025H100.7V181.025H102.7ZM104.262 181.025V183.025H106.262V181.025H104.262ZM104.262 179.462V177.462H102.262V179.462H104.262ZM112.075 179.462H114.075V177.462H112.075V179.462ZM112.075 181.025H110.075V183.025H112.075V181.025ZM113.637 181.025H115.637V179.025H113.637V181.025ZM113.637 190.4V192.4H115.637V190.4H113.637ZM110.512 190.4H108.512V192.4H110.512V190.4ZM110.512 185.712H112.512V183.712H110.512V185.712ZM107.387 185.712V183.712H105.387V185.712H107.387ZM107.387 190.4V192.4H109.387V190.4H107.387ZM107.387 181.267V179.267H105.387V181.267H107.387ZM107.387 184.15H105.387V186.15H107.387V184.15ZM110.512 184.15V186.15H112.512V184.15H110.512ZM110.512 181.267H112.512V179.267H110.512V181.267ZM102.7 190.4H104.7V181.025H102.7H100.7V190.4H102.7ZM102.7 181.025V183.025H104.262V181.025V179.025H102.7V181.025ZM104.262 181.025H106.262V179.462H104.262H102.262V181.025H104.262ZM104.262 179.462V181.462H112.075V179.462V177.462H104.262V179.462ZM112.075 179.462H110.075V181.025H112.075H114.075V179.462H112.075ZM112.075 181.025V183.025H113.637V181.025V179.025H112.075V181.025ZM113.637 181.025H111.637V190.4H113.637H115.637V181.025H113.637ZM113.637 190.4V188.4H110.512V190.4V192.4H113.637V190.4ZM110.512 190.4H112.512V185.712H110.512H108.512V190.4H110.512ZM110.512 185.712V183.712H107.387V185.712V187.712H110.512V185.712ZM107.387 185.712H105.387V190.4H107.387H109.387V185.712H107.387ZM107.387 190.4V188.4H102.7V190.4V192.4H107.387V190.4ZM107.387 181.267H105.387V184.15H107.387H109.387V181.267H107.387ZM107.387 184.15V186.15H110.512V184.15V182.15H107.387V184.15ZM110.512 184.15H112.512V181.267H110.512H108.512V184.15H110.512ZM110.512 181.267V179.267H107.387V181.267V183.267H110.512V181.267ZM123.812 181.025V179.025H121.812V181.025H123.812ZM123.812 190.4V192.4H125.812V190.4H123.812ZM120.687 190.4H118.687V192.4H120.687V190.4ZM120.687 181.025H122.687V179.025H120.687V181.025ZM119.125 181.025V179.025H117.125V181.025H119.125ZM119.125 190.4V192.4H121.125V190.4H119.125ZM116 190.4H114V192.4H116V190.4ZM116 179.462V177.462H114V179.462H116ZM125.383 179.462H127.383V177.462H125.383V179.462ZM125.383 181.025H123.383V183.025H125.383V181.025ZM126.937 181.025H128.937V179.025H126.937V181.025ZM126.937 190.4V192.4H128.937V190.4H126.937ZM125.375 190.4H123.375V192.4H125.375V190.4ZM125.375 181.025H127.375V179.025H125.375V181.025ZM123.812 181.025H121.812V190.4H123.812H125.812V181.025H123.812ZM123.812 190.4V188.4H120.687V190.4V192.4H123.812V190.4ZM120.687 190.4H122.687V181.025H120.687H118.687V190.4H120.687ZM120.687 181.025V179.025H119.125V181.025V183.025H120.687V181.025ZM119.125 181.025H117.125V190.4H119.125H121.125V181.025H119.125ZM119.125 190.4V188.4H116V190.4V192.4H119.125V190.4ZM116 190.4H118V179.462H116H114V190.4H116ZM116 179.462V181.462H125.383V179.462V177.462H116V179.462ZM125.383 179.462H123.383V181.025H125.383H127.383V179.462H125.383ZM125.383 181.025V183.025H126.937V181.025V179.025H125.383V181.025ZM126.937 181.025H124.937V190.4H126.937H128.937V181.025H126.937ZM126.937 190.4V188.4H125.375V190.4V192.4H126.937V190.4ZM125.375 190.4H127.375V181.025H125.375H123.375V190.4H125.375ZM125.375 181.025V179.025H123.812V181.025V183.025H125.375V181.025ZM138.675 179.462H140.675V177.462H138.675V179.462ZM138.675 181.025V183.025H140.675V181.025H138.675ZM137.112 181.025V179.025H135.112V181.025H137.112ZM137.112 188.837H135.112V190.837H137.112V188.837ZM138.675 188.837H140.675V186.837H138.675V188.837ZM138.675 190.4V192.4H140.675V190.4H138.675ZM130.862 190.4H128.862V192.4H130.862V190.4ZM130.862 188.837V186.837H128.862V188.837H130.862ZM132.425 188.837V190.837H134.425V188.837H132.425ZM132.425 181.025H134.425V179.025H132.425V181.025ZM130.862 181.025H128.862V183.025H130.862V181.025ZM130.862 179.462V177.462H128.862V179.462H130.862ZM138.675 179.462H136.675V181.025H138.675H140.675V179.462H138.675ZM138.675 181.025V179.025H137.112V181.025V183.025H138.675V181.025ZM137.112 181.025H135.112V188.837H137.112H139.112V181.025H137.112ZM137.112 188.837V190.837H138.675V188.837V186.837H137.112V188.837ZM138.675 188.837H136.675V190.4H138.675H140.675V188.837H138.675ZM138.675 190.4V188.4H130.862V190.4V192.4H138.675V190.4ZM130.862 190.4H132.862V188.837H130.862H128.862V190.4H130.862ZM130.862 188.837V190.837H132.425V188.837V186.837H130.862V188.837ZM132.425 188.837H134.425V181.025H132.425H130.425V188.837H132.425ZM132.425 181.025V179.025H130.862V181.025V183.025H132.425V181.025ZM130.862 181.025H132.862V179.462H130.862H128.862V181.025H130.862ZM130.862 179.462V181.462H138.675V179.462V177.462H130.862V179.462ZM142.6 190.4H140.6V192.4H142.6V190.4ZM142.6 179.462V177.462H140.6V179.462H142.6ZM151.975 179.462H153.975V177.462H151.975V179.462ZM151.975 181.025H149.975V183.025H151.975V181.025ZM153.537 181.025H155.537V179.025H153.537V181.025ZM153.537 190.4V192.4H155.537V190.4H153.537ZM150.412 190.4H148.412V192.4H150.412V190.4ZM150.412 181.025H152.412V179.025H150.412V181.025ZM147.287 181.025V179.025H145.286L145.287 181.027L147.287 181.025ZM147.295 190.4V192.4H149.297L149.295 190.398L147.295 190.4ZM142.6 190.4H144.6V179.462H142.6H140.6V190.4H142.6ZM142.6 179.462V181.462H151.975V179.462V177.462H142.6V179.462ZM151.975 179.462H149.975V181.025H151.975H153.975V179.462H151.975ZM151.975 181.025V183.025H153.537V181.025V179.025H151.975V181.025ZM153.537 181.025H151.537V190.4H153.537H155.537V181.025H153.537ZM153.537 190.4V188.4H150.412V190.4V192.4H153.537V190.4ZM150.412 190.4H152.412V181.025H150.412H148.412V190.4H150.412ZM150.412 181.025V179.025H147.287V181.025V183.025H150.412V181.025ZM147.287 181.025L145.287 181.027L145.295 190.402L147.295 190.4L149.295 190.398L149.287 181.023L147.287 181.025ZM147.295 190.4V188.4H142.6V190.4V192.4H147.295V190.4ZM166.837 184.15H168.837V182.15H166.837V184.15ZM166.837 188.837V190.837H168.837V188.837H166.837ZM165.275 188.837V186.837H163.275V188.837H165.275ZM165.275 190.4V192.4H167.275V190.4H165.275ZM157.462 190.4H155.462V192.4H157.462V190.4ZM157.462 188.837H159.462V186.837H157.462V188.837ZM155.9 188.837H153.9V190.837H155.9V188.837ZM155.9 181.025V179.025H153.9V181.025H155.9ZM157.462 181.025V183.025H159.462V181.025H157.462ZM157.462 179.462V177.462H155.462V179.462H157.462ZM165.283 179.462H167.283V177.462H165.283V179.462ZM165.283 181.025H163.283V183.025H165.283V181.025ZM166.837 181.025H168.837V179.025H166.837V181.025ZM166.837 182.587V184.587H168.837V182.587H166.837ZM165.275 182.587H163.275V184.587H165.275V182.587ZM165.275 181.025H167.275V179.025H165.275V181.025ZM160.587 181.025V179.025H158.587V181.025H160.587ZM160.587 188.837H158.587V190.837H160.587V188.837ZM163.712 188.837V190.837H165.712V188.837H163.712ZM163.712 185.712H165.712V183.712H163.712V185.712ZM162.15 185.712L160.15 185.702L160.14 187.712H162.15V185.712ZM162.158 184.15V182.15H160.168L160.158 184.14L162.158 184.15ZM166.837 184.15H164.837V188.837H166.837H168.837V184.15H166.837ZM166.837 188.837V186.837H165.275V188.837V190.837H166.837V188.837ZM165.275 188.837H163.275V190.4H165.275H167.275V188.837H165.275ZM165.275 190.4V188.4H157.462V190.4V192.4H165.275V190.4ZM157.462 190.4H159.462V188.837H157.462H155.462V190.4H157.462ZM157.462 188.837V186.837H155.9V188.837V190.837H157.462V188.837ZM155.9 188.837H157.9V181.025H155.9H153.9V188.837H155.9ZM155.9 181.025V183.025H157.462V181.025V179.025H155.9V181.025ZM157.462 181.025H159.462V179.462H157.462H155.462V181.025H157.462ZM157.462 179.462V181.462H165.283V179.462V177.462H157.462V179.462ZM165.283 179.462H163.283V181.025H165.283H167.283V179.462H165.283ZM165.283 181.025V183.025H166.837V181.025V179.025H165.283V181.025ZM166.837 181.025H164.837V182.587H166.837H168.837V181.025H166.837ZM166.837 182.587V180.587H165.275V182.587V184.587H166.837V182.587ZM165.275 182.587H167.275V181.025H165.275H163.275V182.587H165.275ZM165.275 181.025V179.025H160.587V181.025V183.025H165.275V181.025ZM160.587 181.025H158.587V188.837H160.587H162.587V181.025H160.587ZM160.587 188.837V190.837H163.712V188.837V186.837H160.587V188.837ZM163.712 188.837H165.712V185.712H163.712H161.712V188.837H163.712ZM163.712 185.712V183.712H162.15V185.712V187.712H163.712V185.712ZM162.15 185.712L164.15 185.722L164.158 184.16L162.158 184.15L160.158 184.14L160.15 185.702L162.15 185.712ZM162.158 184.15V186.15H166.837V184.15V182.15H162.158V184.15ZM187.195 185.712V183.712H185.189L185.195 185.719L187.195 185.712ZM187.211 190.4V192.4H189.218L189.211 190.393L187.211 190.4ZM182.5 190.4H180.5V192.4H182.5V190.4ZM182.5 179.462V177.462H180.5V179.462H182.5ZM191.875 179.462H193.875V177.462H191.875V179.462ZM191.875 181.025H189.875V183.025H191.875V181.025ZM193.438 181.025H195.438V179.025H193.438V181.025ZM193.438 184.15V186.15H195.438V184.15H193.438ZM191.875 184.15V182.15H189.875V184.15H191.875ZM191.875 185.712V187.712H193.875V185.712H191.875ZM187.188 181.025V179.025H185.188V181.025H187.188ZM187.188 184.15H185.188V186.15H187.188V184.15ZM190.312 184.15V186.15H192.312V184.15H190.312ZM190.312 181.025H192.312V179.025H190.312V181.025ZM187.195 185.712L185.195 185.719L185.211 190.407L187.211 190.4L189.211 190.393L189.195 185.706L187.195 185.712ZM187.211 190.4V188.4H182.5V190.4V192.4H187.211V190.4ZM182.5 190.4H184.5V179.462H182.5H180.5V190.4H182.5ZM182.5 179.462V181.462H191.875V179.462V177.462H182.5V179.462ZM191.875 179.462H189.875V181.025H191.875H193.875V179.462H191.875ZM191.875 181.025V183.025H193.438V181.025V179.025H191.875V181.025ZM193.438 181.025H191.438V184.15H193.438H195.438V181.025H193.438ZM193.438 184.15V182.15H191.875V184.15V186.15H193.438V184.15ZM191.875 184.15H189.875V185.712H191.875H193.875V184.15H191.875ZM191.875 185.712V183.712H187.195V185.712V187.712H191.875V185.712ZM187.188 181.025H185.188V184.15H187.188H189.188V181.025H187.188ZM187.188 184.15V186.15H190.312V184.15V182.15H187.188V184.15ZM190.312 184.15H192.312V181.025H190.312H188.312V184.15H190.312ZM190.312 181.025V179.025H187.188V181.025V183.025H190.312V181.025ZM195.8 190.4H193.8V192.4H195.8V190.4ZM195.8 181.025V179.025H193.8V181.025H195.8ZM197.362 181.025V183.025H199.362V181.025H197.362ZM197.362 179.462V177.462H195.362V179.462H197.362ZM205.175 179.462H207.175V177.462H205.175V179.462ZM205.175 181.025H203.175V183.025H205.175V181.025ZM206.737 181.025H208.737V179.025H206.737V181.025ZM206.737 190.4V192.4H208.737V190.4H206.737ZM203.612 190.4H201.612V192.4H203.612V190.4ZM203.612 185.712H205.612V183.712H203.612V185.712ZM200.487 185.712V183.712H198.487V185.712H200.487ZM200.487 190.4V192.4H202.487V190.4H200.487ZM200.487 181.267V179.267H198.487V181.267H200.487ZM200.487 184.15H198.487V186.15H200.487V184.15ZM203.612 184.15V186.15H205.612V184.15H203.612ZM203.612 181.267H205.612V179.267H203.612V181.267ZM195.8 190.4H197.8V181.025H195.8H193.8V190.4H195.8ZM195.8 181.025V183.025H197.362V181.025V179.025H195.8V181.025ZM197.362 181.025H199.362V179.462H197.362H195.362V181.025H197.362ZM197.362 179.462V181.462H205.175V179.462V177.462H197.362V179.462ZM205.175 179.462H203.175V181.025H205.175H207.175V179.462H205.175ZM205.175 181.025V183.025H206.737V181.025V179.025H205.175V181.025ZM206.737 181.025H204.737V190.4H206.737H208.737V181.025H206.737ZM206.737 190.4V188.4H203.612V190.4V192.4H206.737V190.4ZM203.612 190.4H205.612V185.712H203.612H201.612V190.4H203.612ZM203.612 185.712V183.712H200.487V185.712V187.712H203.612V185.712ZM200.487 185.712H198.487V190.4H200.487H202.487V185.712H200.487ZM200.487 190.4V188.4H195.8V190.4V192.4H200.487V190.4ZM200.487 181.267H198.487V184.15H200.487H202.487V181.267H200.487ZM200.487 184.15V186.15H203.612V184.15V182.15H200.487V184.15ZM203.612 184.15H205.612V181.267H203.612H201.612V184.15H203.612ZM203.612 181.267V179.267H200.487V181.267V183.267H203.612V181.267ZM209.1 190.4H207.1V192.4H209.1V190.4ZM209.1 179.462V177.462H207.1V179.462H209.1ZM218.475 179.462H220.475V177.462H218.475V179.462ZM218.475 181.025H216.475V183.025H218.475V181.025ZM220.037 181.025H222.037V179.025H220.037V181.025ZM220.037 184.15V186.15H222.037V184.15H220.037ZM218.475 184.15V182.15H216.475V184.15H218.475ZM218.475 185.712H216.475V187.712H218.475V185.712ZM220.037 185.712H222.037V183.712H220.037V185.712ZM220.037 190.4V192.4H222.037V190.4H220.037ZM215.35 190.4H213.35V192.4H215.35V190.4ZM215.35 185.712H217.35V183.712H215.35V185.712ZM212.233 185.712V183.712H210.233V185.712H212.233ZM212.233 190.4V192.4H214.233V190.4H212.233ZM213.787 181.025V179.025H211.787V181.025H213.787ZM213.787 184.15H211.787V186.15H213.787V184.15ZM216.912 184.15V186.15H218.912V184.15H216.912ZM216.912 181.025H218.912V179.025H216.912V181.025ZM209.1 190.4H211.1V179.462H209.1H207.1V190.4H209.1ZM209.1 179.462V181.462H218.475V179.462V177.462H209.1V179.462ZM218.475 179.462H216.475V181.025H218.475H220.475V179.462H218.475ZM218.475 181.025V183.025H220.037V181.025V179.025H218.475V181.025ZM220.037 181.025H218.037V184.15H220.037H222.037V181.025H220.037ZM220.037 184.15V182.15H218.475V184.15V186.15H220.037V184.15ZM218.475 184.15H216.475V185.712H218.475H220.475V184.15H218.475ZM218.475 185.712V187.712H220.037V185.712V183.712H218.475V185.712ZM220.037 185.712H218.037V190.4H220.037H222.037V185.712H220.037ZM220.037 190.4V188.4H215.35V190.4V192.4H220.037V190.4ZM215.35 190.4H217.35V185.712H215.35H213.35V190.4H215.35ZM215.35 185.712V183.712H212.233V185.712V187.712H215.35V185.712ZM212.233 185.712H210.233V190.4H212.233H214.233V185.712H212.233ZM212.233 190.4V188.4H209.1V190.4V192.4H212.233V190.4ZM213.787 181.025H211.787V184.15H213.787H215.787V181.025H213.787ZM213.787 184.15V186.15H216.912V184.15V182.15H213.787V184.15ZM216.912 184.15H218.912V181.025H216.912H214.912V184.15H216.912ZM216.912 181.025V179.025H213.787V181.025V183.025H216.912V181.025ZM222.4 190.4H220.4V192.4H222.4V190.4ZM222.4 181.025V179.025H220.4V181.025H222.4ZM223.962 181.025V183.025H225.962V181.025H223.962ZM223.962 179.462V177.462H221.962V179.462H223.962ZM231.775 179.462H233.775V177.462H231.775V179.462ZM231.775 181.025H229.775V183.025H231.775V181.025ZM233.337 181.025H235.337V179.025H233.337V181.025ZM233.337 190.4V192.4H235.337V190.4H233.337ZM230.212 190.4H228.212V192.4H230.212V190.4ZM230.212 185.712H232.212V183.712H230.212V185.712ZM227.087 185.712V183.712H225.087V185.712H227.087ZM227.087 190.4V192.4H229.087V190.4H227.087ZM227.087 181.267V179.267H225.087V181.267H227.087ZM227.087 184.15H225.087V186.15H227.087V184.15ZM230.212 184.15V186.15H232.212V184.15H230.212ZM230.212 181.267H232.212V179.267H230.212V181.267ZM222.4 190.4H224.4V181.025H222.4H220.4V190.4H222.4ZM222.4 181.025V183.025H223.962V181.025V179.025H222.4V181.025ZM223.962 181.025H225.962V179.462H223.962H221.962V181.025H223.962ZM223.962 179.462V181.462H231.775V179.462V177.462H223.962V179.462ZM231.775 179.462H229.775V181.025H231.775H233.775V179.462H231.775ZM231.775 181.025V183.025H233.337V181.025V179.025H231.775V181.025ZM233.337 181.025H231.337V190.4H233.337H235.337V181.025H233.337ZM233.337 190.4V188.4H230.212V190.4V192.4H233.337V190.4ZM230.212 190.4H232.212V185.712H230.212H228.212V190.4H230.212ZM230.212 185.712V183.712H227.087V185.712V187.712H230.212V185.712ZM227.087 185.712H225.087V190.4H227.087H229.087V185.712H227.087ZM227.087 190.4V188.4H222.4V190.4V192.4H227.087V190.4ZM227.087 181.267H225.087V184.15H227.087H229.087V181.267H227.087ZM227.087 184.15V186.15H230.212V184.15V182.15H227.087V184.15ZM230.212 184.15H232.212V181.267H230.212H228.212V184.15H230.212ZM230.212 181.267V179.267H227.087V181.267V183.267H230.212V181.267ZM235.7 190.4H233.7V192.4H235.7V190.4ZM235.7 179.462V177.462H233.7V179.462H235.7ZM245.075 179.462H247.075V177.462H245.075V179.462ZM245.075 181.025H243.075V183.025H245.075V181.025ZM246.637 181.025H248.637V179.025H246.637V181.025ZM246.637 188.837V190.837H248.637V188.837H246.637ZM245.075 188.837V186.837H243.075V188.837H245.075ZM245.075 190.4V192.4H247.075V190.4H245.075ZM240.395 188.837L238.395 188.839L238.397 190.837H240.395V188.837ZM243.512 188.837V190.837H245.512V188.837H243.512ZM243.512 181.025H245.512V179.025H243.512V181.025ZM240.387 181.025V179.025H238.385L238.387 181.027L240.387 181.025ZM235.7 190.4H237.7V179.462H235.7H233.7V190.4H235.7ZM235.7 179.462V181.462H245.075V179.462V177.462H235.7V179.462ZM245.075 179.462H243.075V181.025H245.075H247.075V179.462H245.075ZM245.075 181.025V183.025H246.637V181.025V179.025H245.075V181.025ZM246.637 181.025H244.637V188.837H246.637H248.637V181.025H246.637ZM246.637 188.837V186.837H245.075V188.837V190.837H246.637V188.837ZM245.075 188.837H243.075V190.4H245.075H247.075V188.837H245.075ZM245.075 190.4V188.4H235.7V190.4V192.4H245.075V190.4ZM240.395 188.837V190.837H243.512V188.837V186.837H240.395V188.837ZM243.512 188.837H245.512V181.025H243.512H241.512V188.837H243.512ZM243.512 181.025V179.025H240.387V181.025V183.025H243.512V181.025ZM240.387 181.025L238.387 181.027L238.395 188.839L240.395 188.837L242.395 188.835L242.387 181.023L240.387 181.025ZM258.375 179.462H260.375V177.462H258.375V179.462ZM258.375 181.025V183.025H260.375V181.025H258.375ZM256.812 181.025V179.025H254.812V181.025H256.812ZM256.812 188.837H254.812V190.837H256.812V188.837ZM258.375 188.837H260.375V186.837H258.375V188.837ZM258.375 190.4V192.4H260.375V190.4H258.375ZM250.562 190.4H248.562V192.4H250.562V190.4ZM250.562 188.837V186.837H248.562V188.837H250.562ZM252.125 188.837V190.837H254.125V188.837H252.125ZM252.125 181.025H254.125V179.025H252.125V181.025ZM250.562 181.025H248.562V183.025H250.562V181.025ZM250.562 179.462V177.462H248.562V179.462H250.562ZM258.375 179.462H256.375V181.025H258.375H260.375V179.462H258.375ZM258.375 181.025V179.025H256.812V181.025V183.025H258.375V181.025ZM256.812 181.025H254.812V188.837H256.812H258.812V181.025H256.812ZM256.812 188.837V190.837H258.375V188.837V186.837H256.812V188.837ZM258.375 188.837H256.375V190.4H258.375H260.375V188.837H258.375ZM258.375 190.4V188.4H250.562V190.4V192.4H258.375V190.4ZM250.562 190.4H252.562V188.837H250.562H248.562V190.4H250.562ZM250.562 188.837V190.837H252.125V188.837V186.837H250.562V188.837ZM252.125 188.837H254.125V181.025H252.125H250.125V188.837H252.125ZM252.125 181.025V179.025H250.562V181.025V183.025H252.125V181.025ZM250.562 181.025H252.562V179.462H250.562H248.562V181.025H250.562ZM250.562 179.462V181.462H258.375V179.462V177.462H250.562V179.462ZM273.237 184.15H275.237V182.15H273.237V184.15ZM273.237 188.837V190.837H275.237V188.837H273.237ZM271.675 188.837V186.837H269.675V188.837H271.675ZM271.675 190.4V192.4H273.675V190.4H271.675ZM263.862 190.4H261.862V192.4H263.862V190.4ZM263.862 188.837H265.862V186.837H263.862V188.837ZM262.3 188.837H260.3V190.837H262.3V188.837ZM262.3 181.025V179.025H260.3V181.025H262.3ZM263.862 181.025V183.025H265.862V181.025H263.862ZM263.862 179.462V177.462H261.862V179.462H263.862ZM271.683 179.462H273.683V177.462H271.683V179.462ZM271.683 181.025H269.683V183.025H271.683V181.025ZM273.237 181.025H275.237V179.025H273.237V181.025ZM273.237 182.587V184.587H275.237V182.587H273.237ZM271.675 182.587H269.675V184.587H271.675V182.587ZM271.675 181.025H273.675V179.025H271.675V181.025ZM266.987 181.025V179.025H264.987V181.025H266.987ZM266.987 188.837H264.987V190.837H266.987V188.837ZM270.112 188.837V190.837H272.112V188.837H270.112ZM270.112 185.712H272.112V183.712H270.112V185.712ZM268.55 185.712L266.55 185.702L266.54 187.712H268.55V185.712ZM268.558 184.15V182.15H266.568L266.558 184.14L268.558 184.15ZM273.237 184.15H271.237V188.837H273.237H275.237V184.15H273.237ZM273.237 188.837V186.837H271.675V188.837V190.837H273.237V188.837ZM271.675 188.837H269.675V190.4H271.675H273.675V188.837H271.675ZM271.675 190.4V188.4H263.862V190.4V192.4H271.675V190.4ZM263.862 190.4H265.862V188.837H263.862H261.862V190.4H263.862ZM263.862 188.837V186.837H262.3V188.837V190.837H263.862V188.837ZM262.3 188.837H264.3V181.025H262.3H260.3V188.837H262.3ZM262.3 181.025V183.025H263.862V181.025V179.025H262.3V181.025ZM263.862 181.025H265.862V179.462H263.862H261.862V181.025H263.862ZM263.862 179.462V181.462H271.683V179.462V177.462H263.862V179.462ZM271.683 179.462H269.683V181.025H271.683H273.683V179.462H271.683ZM271.683 181.025V183.025H273.237V181.025V179.025H271.683V181.025ZM273.237 181.025H271.237V182.587H273.237H275.237V181.025H273.237ZM273.237 182.587V180.587H271.675V182.587V184.587H273.237V182.587ZM271.675 182.587H273.675V181.025H271.675H269.675V182.587H271.675ZM271.675 181.025V179.025H266.987V181.025V183.025H271.675V181.025ZM266.987 181.025H264.987V188.837H266.987H268.987V181.025H266.987ZM266.987 188.837V190.837H270.112V188.837V186.837H266.987V188.837ZM270.112 188.837H272.112V185.712H270.112H268.112V188.837H270.112ZM270.112 185.712V183.712H268.55V185.712V187.712H270.112V185.712ZM268.55 185.712L270.55 185.722L270.558 184.16L268.558 184.15L266.558 184.14L266.55 185.702L268.55 185.712ZM268.558 184.15V186.15H273.237V184.15V182.15H268.558V184.15ZM283.412 181.025V179.025H281.412V181.025H283.412ZM283.412 190.4V192.4H285.412V190.4H283.412ZM280.287 190.4H278.287V192.4H280.287V190.4ZM280.287 181.025H282.287V179.025H280.287V181.025ZM278.725 181.025V179.025H276.725V181.025H278.725ZM278.725 190.4V192.4H280.725V190.4H278.725ZM275.6 190.4H273.6V192.4H275.6V190.4ZM275.6 179.462V177.462H273.6V179.462H275.6ZM284.983 179.462H286.983V177.462H284.983V179.462ZM284.983 181.025H282.983V183.025H284.983V181.025ZM286.537 181.025H288.537V179.025H286.537V181.025ZM286.537 190.4V192.4H288.537V190.4H286.537ZM284.975 190.4H282.975V192.4H284.975V190.4ZM284.975 181.025H286.975V179.025H284.975V181.025ZM283.412 181.025H281.412V190.4H283.412H285.412V181.025H283.412ZM283.412 190.4V188.4H280.287V190.4V192.4H283.412V190.4ZM280.287 190.4H282.287V181.025H280.287H278.287V190.4H280.287ZM280.287 181.025V179.025H278.725V181.025V183.025H280.287V181.025ZM278.725 181.025H276.725V190.4H278.725H280.725V181.025H278.725ZM278.725 190.4V188.4H275.6V190.4V192.4H278.725V190.4ZM275.6 190.4H277.6V179.462H275.6H273.6V190.4H275.6ZM275.6 179.462V181.462H284.983V179.462V177.462H275.6V179.462ZM284.983 179.462H282.983V181.025H284.983H286.983V179.462H284.983ZM284.983 181.025V183.025H286.537V181.025V179.025H284.983V181.025ZM286.537 181.025H284.537V190.4H286.537H288.537V181.025H286.537ZM286.537 190.4V188.4H284.975V190.4V192.4H286.537V190.4ZM284.975 190.4H286.975V181.025H284.975H282.975V190.4H284.975ZM284.975 181.025V179.025H283.412V181.025V183.025H284.975V181.025Z" fill="#7E27E0" mask="url(#path-73-outside-1_32_808)"/>
</g>
<path d="M24.1143 228.64V225.448H27.2923V228.626L24.1143 228.64ZM44.952 228.64H46.534V231.818H44.952V228.64H38.582V231.818H44.952V233.4H37V222.284H44.952V223.866H46.534V227.044H44.952V223.866H38.582V227.044H44.952V228.64ZM51.3108 233.4V223.866H49.7148V222.284H52.8928V233.4H51.3108ZM62.4283 231.818V227.044H57.6543V225.448H62.4283V227.044H64.0103L64.0243 231.818H62.4283ZM62.4283 233.4H57.6543V231.818H56.0723V227.044H57.6543V231.818H62.4283V233.4ZM71.9576 231.818V233.4H67.1836V231.818H65.6016V227.044H67.1836V231.818H71.9576ZM67.1836 227.044V225.448H71.9576V227.044H73.5396V228.64H71.9576V227.044H67.1836ZM71.9576 231.818V230.222H73.5536V231.818H71.9576ZM81.4869 233.4V231.804H78.3089V230.222H76.7269V233.4H75.1309V222.284H76.7129V228.64H78.3089V230.222H81.4869V231.804H83.0829V233.4H81.4869ZM78.3089 228.64V227.044H81.4869V228.64H78.3089ZM81.4869 227.044V225.448H83.0829V227.044H81.4869ZM91.0162 231.818V233.4H86.2422V231.818H84.6602V227.044H86.2422V231.818H91.0162ZM86.2422 227.044V225.448H91.0162V227.044H92.5982V228.64H91.0162V227.044H86.2422ZM91.0162 231.818V230.222H92.6122V231.818H91.0162ZM100.545 233.4V227.044H95.7855V233.4H94.1895V222.284H95.7715V225.448H100.545V227.044H102.141V233.4H100.545ZM111.674 230.222H106.9V228.64H111.674V227.044H106.9V225.448H111.674V227.044H113.27V233.4H106.9V231.818H105.318V230.222H106.9V231.818H111.674V230.222ZM118.029 223.866V222.284H119.625V223.866H118.029ZM118.043 233.4V227.044H116.447V225.448H119.625V233.4H118.043ZM129.161 233.4V227.044H124.401V233.4H122.805V225.448H129.161V227.044H130.757V233.4H129.161ZM145.065 223.866V233.4H143.469V223.866H138.695V222.284H149.825V223.866H145.065ZM157.776 227.044H153.002V225.448H157.776V227.044H159.372V230.222H153.002V231.818H157.776V233.4H153.002V231.818H151.42V227.044H153.002V228.64H157.776V227.044ZM167.305 231.818V233.4H162.531V231.818H160.949V227.044H162.531V231.818H167.305ZM162.531 227.044V225.448H167.305V227.044H168.887V228.64H167.305V227.044H162.531ZM167.305 231.818V230.222H168.901V231.818H167.305ZM176.835 233.4V227.044H172.075V233.4H170.479V222.284H172.061V225.448H176.835V227.044H178.431V233.4H176.835ZM187.963 233.4V227.044H183.203V233.4H181.607V225.448H187.963V227.044H189.559V233.4H187.963ZM199.092 231.818V227.044H194.318V225.448H199.092V227.044H200.674L200.688 231.818H199.092ZM199.092 233.4H194.318V231.818H192.736V227.044H194.318V231.818H199.092V233.4ZM203.862 233.4V223.866H202.266V222.284H205.444V233.4H203.862ZM214.979 231.818V227.044H210.205V225.448H214.979V227.044H216.561L216.575 231.818H214.979ZM214.979 233.4H210.205V231.818H208.623V227.044H210.205V231.818H214.979V233.4ZM224.508 227.044H219.748V225.462H226.104V234.996H224.508V233.4H219.748V231.818H218.152V227.044H219.748V231.818H224.508V227.044ZM224.508 234.996V236.578H219.734V234.996H224.508ZM235.637 234.996V233.4H230.863V231.804H229.281V225.448H230.863V231.804H235.637V225.448H237.233V234.996H235.637ZM235.637 234.996V236.578H230.863V234.996H235.637ZM24.1143 248.64V245.448H27.2923V248.626L24.1143 248.64ZM49.698 251.818V253.4H48.116V251.818H46.52V247.058H44.938V242.284H46.52V247.058H48.116V251.818H49.698ZM43.342 251.818V253.4H41.76V251.818H40.178V248.64H38.582V245.448H37V242.284H38.582V245.448H40.178V248.64H41.76V251.818H43.342ZM44.938 247.058V251.818H43.342V247.058H44.938ZM52.89 245.448V248.64H51.294V245.448H52.89ZM49.698 251.818V248.64H51.294V251.818H49.698ZM52.89 245.448V242.284H54.472V245.448H52.89ZM62.4283 247.044H57.6543V245.448H62.4283V247.044H64.0243V250.222H57.6543V251.818H62.4283V253.4H57.6543V251.818H56.0723V247.044H57.6543V248.64H62.4283V247.044ZM71.9576 253.4H65.6016V242.284H67.1836V245.448H71.9576V247.044H73.5536V251.804H71.9576V247.044H67.1836V251.804H71.9576V253.4ZM81.4869 247.044V243.866H76.7269V245.462H75.1309V243.866H76.7129V242.27H81.4869V243.866H83.0829V247.044H81.4869ZM81.4869 251.804V248.64H78.3089V247.044H81.4869V248.626H83.0829V251.804H81.4869ZM81.4869 251.818V253.4H76.7269V251.818H81.4869ZM76.7129 251.818H75.1309V250.222H76.7129V251.818ZM100.569 251.818V253.4H94.1992V251.818H92.6172V243.866H94.1992V251.818H100.569ZM100.569 251.818V248.64H97.3772V247.044H102.151V251.818H100.569ZM94.1992 243.866V242.284H100.555V243.866H102.151V245.448H100.555V243.866H94.1992ZM111.688 250.222H106.914V248.64H111.688V247.044H106.914V245.448H111.688V247.044H113.284V253.4H106.914V251.818H105.332V250.222H106.914V251.818H111.688V250.222ZM124.413 247.044V253.4H122.817V247.044H118.057V253.4H116.461V245.448H122.817V247.044H124.413ZM129.173 253.4V247.044H124.413V245.448H129.173V247.044H130.755V253.4H129.173ZM135.529 243.866V242.284H137.125V243.866H135.529ZM135.543 253.4V247.044H133.947V245.448H137.125V253.4H135.543ZM146.661 253.4V247.044H141.901V253.4H140.305V245.448H146.661V247.044H148.257V253.4H146.661ZM157.79 247.044H153.03V245.462H159.386V254.996H157.79V253.4H153.03V251.818H151.434V247.044H153.03V251.818H157.79V247.044ZM157.79 254.996V256.578H153.016V254.996H157.79ZM176.858 251.818V243.866H170.502V242.284H176.858V243.866H178.454V251.818H176.858ZM176.858 253.4H170.502V251.818H168.92V243.866H170.502V251.818H176.858V253.4ZM187.991 251.818V253.4H186.395V251.818H184.813V250.222H183.217V248.64H181.635V245.448H183.217V248.64H184.813V250.222H186.395V251.818H187.991ZM191.169 248.64V245.448H192.765V248.64H191.169ZM189.573 250.222V251.818H187.991V250.222H189.573ZM191.169 248.64V250.222H189.573V248.64H191.169ZM200.706 247.044H195.932V245.448H200.706V247.044H202.302V250.222H195.932V251.818H200.706V253.4H195.932V251.818H194.35V247.044H195.932V248.64H200.706V247.044ZM207.057 247.044V248.626H205.475V253.4H203.879V245.448H205.461V247.044H207.057ZM207.057 247.044V245.448H210.235V247.044H207.057ZM218.192 251.818V253.4H216.596V251.818H215.014V250.222H213.418V248.64H211.836V245.448H213.418V248.64H215.014V250.222H216.596V251.818H218.192ZM221.37 248.64V245.448H222.966V248.64H221.37ZM219.774 250.222V251.818H218.192V250.222H219.774ZM221.37 248.64V250.222H219.774V248.64H221.37ZM226.133 243.866V242.284H227.729V243.866H226.133ZM226.147 253.4V247.044H224.551V245.448H227.729V253.4H226.147ZM237.264 247.044H232.49V245.448H237.264V247.044H238.86V250.222H232.49V251.818H237.264V253.4H232.49V251.818H230.908V247.044H232.49V248.64H237.264V247.044ZM245.198 251.818V253.4H243.616V251.818H242.02V248.64H240.438V245.448H242.02V248.64H243.616V251.818H245.198ZM251.554 251.818V253.4H249.972V251.818H248.376V250.222H246.794V247.044H248.376V250.222H249.972V251.818H251.554ZM253.15 248.64V245.448H254.746V248.64H253.15ZM253.15 248.64V251.818H251.554V248.64H253.15ZM246.794 250.222V251.818H245.198V250.222H246.794ZM24.1143 268.64V265.448H27.2923V268.626L24.1143 268.64ZM49.698 271.818V273.4H48.116V271.818H46.52V267.058H44.938V262.284H46.52V267.058H48.116V271.818H49.698ZM43.342 271.818V273.4H41.76V271.818H40.178V268.64H38.582V265.448H37V262.284H38.582V265.448H40.178V268.64H41.76V271.818H43.342ZM44.938 267.058V271.818H43.342V267.058H44.938ZM52.89 265.448V268.64H51.294V265.448H52.89ZM49.698 271.818V268.64H51.294V271.818H49.698ZM52.89 265.448V262.284H54.472V265.448H52.89ZM62.4283 267.044H57.6543V265.448H62.4283V267.044H64.0243V270.222H57.6543V271.818H62.4283V273.4H57.6543V271.818H56.0723V267.044H57.6543V268.64H62.4283V267.044ZM71.9576 273.4H65.6016V262.284H67.1836V265.448H71.9576V267.044H73.5536V271.804H71.9576V267.044H67.1836V271.804H71.9576V273.4ZM81.4869 267.044V263.866H76.7269V265.462H75.1309V263.866H76.7129V262.27H81.4869V263.866H83.0829V267.044H81.4869ZM81.4869 271.804V268.64H78.3089V267.044H81.4869V268.626H83.0829V271.804H81.4869ZM81.4869 271.818V273.4H76.7269V271.818H81.4869ZM76.7129 271.818H75.1309V270.222H76.7129V271.818ZM94.1992 263.866V267.044H98.9732V268.64H94.2132V273.4H92.6172V262.284H100.569V263.866H94.1992ZM103.728 273.4V271.804H102.146V265.448H103.728V271.804H108.502V265.448H110.098V273.4H103.728ZM119.631 273.4V267.044H114.871V273.4H113.275V265.448H119.631V267.044H121.227V273.4H119.631ZM130.76 267.044H125.986V265.448H130.76V262.284H132.356V273.4H125.986V271.804H124.404V267.044H125.986V271.804H130.76V267.044ZM141.889 270.222H137.115V268.64H141.889V267.044H137.115V265.448H141.889V267.044H143.485V273.4H137.115V271.818H135.533V270.222H137.115V271.818H141.889V270.222ZM154.614 267.044V273.4H153.018V267.044H148.258V273.4H146.662V265.448H153.018V267.044H154.614ZM159.374 273.4V267.044H154.614V265.448H159.374V267.044H160.956V273.4H159.374ZM170.504 267.044H165.73V265.448H170.504V267.044H172.1V270.222H165.73V271.818H170.504V273.4H165.73V271.818H164.148V267.044H165.73V268.64H170.504V267.044ZM180.034 273.4V267.044H175.274V273.4H173.678V265.448H180.034V267.044H181.63V273.4H180.034ZM187.985 273.4V271.818H186.403V267.044H184.807V265.448H186.389V262.284H187.985V265.448H191.163V267.044H187.985V271.818H191.163V273.4H187.985ZM199.12 270.222H194.346V268.64H199.12V267.044H194.346V265.448H199.12V267.044H200.716V273.4H194.346V271.818H192.764V270.222H194.346V271.818H199.12V270.222ZM205.489 273.4V263.866H203.893V262.284H207.071V273.4H205.489ZM211.846 267.044V268.626H216.606V270.222H218.202V271.818H216.606V270.222H211.846V268.626H210.25V267.044H211.846ZM211.846 267.044V265.448H218.202V267.044H211.846ZM216.606 271.818V273.4H210.25V271.818H216.606ZM24.1143 288.64V285.448H27.2923V288.626L24.1143 288.64ZM44.938 290.222V285.448H43.356V283.866H38.582V291.818H43.356V293.4H37V282.284H43.356V283.866H44.938V285.448H46.534V290.222H44.938ZM44.938 291.818H43.356V290.222H44.938V291.818ZM51.2968 283.866V282.284H52.8928V283.866H51.2968ZM51.3108 293.4V287.044H49.7148V285.448H52.8928V293.4H51.3108ZM62.4283 287.044H57.6683V285.462H64.0243V294.996H62.4283V293.4H57.6683V291.818H56.0723V287.044H57.6683V291.818H62.4283V287.044ZM62.4283 294.996V296.578H57.6543V294.996H62.4283ZM68.7832 283.866V282.284H70.3792V283.866H68.7832ZM68.7972 293.4V287.044H67.2012V285.448H70.3792V293.4H68.7972ZM76.7366 293.4V291.818H75.1546V287.044H73.5586V285.448H75.1406V282.284H76.7366V285.448H79.9146V287.044H76.7366V291.818H79.9146V293.4H76.7366ZM87.8716 290.222H83.0976V288.64H87.8716V287.044H83.0976V285.448H87.8716V287.044H89.4676V293.4H83.0976V291.818H81.5156V290.222H83.0976V291.818H87.8716V290.222ZM94.2405 293.4V283.866H92.6445V282.284H95.8225V293.4H94.2405ZM113.297 291.818V283.866H106.941V282.284H113.297V283.866H114.893V291.818H113.297ZM113.297 293.4H106.941V291.818H105.359V283.866H106.941V291.818H113.297V293.4ZM122.834 291.818V293.4H121.252V291.818H119.656V288.64H118.074V285.448H119.656V288.64H121.252V291.818H122.834ZM129.19 291.818V293.4H127.608V291.818H126.012V290.222H124.43V287.044H126.012V290.222H127.608V291.818H129.19ZM130.786 288.64V285.448H132.382V288.64H130.786ZM130.786 288.64V291.818H129.19V288.64H130.786ZM124.43 290.222V291.818H122.834V290.222H124.43ZM140.317 293.4V287.044H135.557V293.4H133.961V285.448H140.317V287.044H141.913V293.4H140.317ZM151.446 287.044H146.672V285.448H151.446V287.044H153.042V290.222H146.672V291.818H151.446V293.4H146.672V291.818H145.09V287.044H146.672V288.64H151.446V287.044ZM157.797 287.044V288.626H156.215V293.4H154.619V285.448H156.201V287.044H157.797ZM157.797 287.044V285.448H160.975V287.044H157.797ZM164.172 287.044V288.626H168.932V290.222H170.528V291.818H168.932V290.222H164.172V288.626H162.576V287.044H164.172ZM164.172 287.044V285.448H170.528V287.044H164.172ZM168.932 291.818V293.4H162.576V291.818H168.932ZM178.461 293.4V287.044H173.701V293.4H172.105V282.284H173.687V285.448H178.461V287.044H180.057V293.4H178.461ZM184.816 283.866V282.284H186.412V283.866H184.816ZM184.83 293.4V287.044H183.234V285.448H186.412V293.4H184.83ZM195.948 293.4H191.188V296.578H189.592V285.448H195.948V287.044H197.544V291.804H195.948V287.044H191.174V291.804H195.948V293.4Z" fill="white"/>
</g>
<defs>
<filter id="filter0_d_32_808" x="0" y="0" width="311" height="374" filterUnits="userSpaceOnUse" color-interpolation-filters="sRGB">
<feFlood flood-opacity="0" result="BackgroundImageFix"/>
<feColorMatrix in="SourceAlpha" type="matrix" values="0 0 0 0 0 0 0 0 0 0 0 0 0 0 0 0 0 0 127 0" result="hardAlpha"/>
<feOffset dy="2"/>
<feComposite in2="hardAlpha" operator="out"/>
<feColorMatrix type="matrix" values="0 0 0 0 0.0901961 0 0 0 0 0.72549 0 0 0 0 0.0313726 0 0 0 1 0"/>
<feBlend mode="normal" in2="BackgroundImageFix" result="effect1_dropShadow_32_808"/>
<feBlend mode="normal" in="SourceGraphic" in2="effect1_dropShadow_32_808" result="shape"/>
</filter>
<filter id="filter1_d_32_808" x="20.9" y="157.462" width="267.637" height="36.9375" filterUnits="userSpaceOnUse" color-interpolation-filters="sRGB">
<feFlood flood-opacity="0" result="BackgroundImageFix"/>
<feColorMatrix in="SourceAlpha" type="matrix" values="0 0 0 0 0 0 0 0 0 0 0 0 0 0 0 0 0 0 127 0" result="hardAlpha"/>
<feOffset dy="2"/>
<feComposite in2="hardAlpha" operator="out"/>
<feColorMatrix type="matrix" values="0 0 0 0 1 0 0 0 0 0.882228 0 0 0 0 0.298077 0 0 0 1 0"/>
<feBlend mode="normal" in2="BackgroundImageFix" result="effect1_dropShadow_32_808"/>
<feBlend mode="normal" in="SourceGraphic" in2="effect1_dropShadow_32_808" result="shape"/>
</filter>
<clipPath id="clip0_32_808">
<rect width="58.8" height="58.8" fill="white" transform="translate(126.1 72.6001)"/>
</clipPath>
</defs>
</svg>
