<svg width="276" height="64" viewBox="0 0 276 64" fill="none" xmlns="http://www.w3.org/2000/svg">
<g filter="url(#filter0_d_404_107)">
<path d="M5.48523 3.29688C5.48523 2.29896 5.48523 1.30105 5.48523 0.303134C93.4484 0.303134 181.411 0.303134 269.373 0.303134C269.583 0.303134 269.793 0.296482 270.004 0.304798C270.168 0.31145 270.355 0.250744 270.485 0.386294C270.485 1.35593 270.485 2.3264 270.485 3.29604C182.152 3.29688 93.8186 3.29688 5.48523 3.29688Z" fill="#C99810"/>
<path d="M275.5 58C273.297 58 271.092 58 268.889 58C268.759 58 268.63 58 268.5 58C268.5 39.0006 268.5 20.0013 268.5 1.00189C270.637 1.00189 272.774 1.00189 274.911 1.00189C275.041 1.00189 275.171 0.996344 275.298 1.00426C275.346 1.00743 275.385 1.04068 275.451 1.07155C275.457 1.07947 275.496 1.10242 275.496 1.12538C275.5 20.0836 275.5 39.0418 275.5 58Z" fill="#C99810"/>
<path d="M2.98662 5.08252C2.98662 21.5527 2.98662 38.0221 2.98662 54.5039C2.18503 54.5039 1.42855 54.5039 0.682475 54.5039C0.656796 54.475 0.628341 54.4585 0.628341 54.4413C0.626953 37.9884 0.626953 21.5354 0.626953 5.08252C1.41397 5.08252 2.2003 5.08252 2.98662 5.08252Z" fill="#C99810"/>
<path d="M270.485 57.2969C270.485 57.9633 270.485 58.6304 270.485 59.2969C182.158 59.2969 93.8308 59.2969 5.48523 59.2969C5.48523 58.6175 5.48523 57.9763 5.48523 57.3439C5.52943 57.3222 5.55469 57.2981 5.58101 57.2981C93.8824 57.2969 182.184 57.2969 270.485 57.2969Z" fill="#C99810"/>
<path d="M182.877 54.6538C182.877 55.4339 182.877 56.2146 182.877 56.9947C182.056 56.9947 181.234 56.9947 180.436 56.9947C180.402 56.943 180.38 56.9245 180.38 56.9066C180.379 56.1554 180.379 55.4043 180.379 54.6538C181.211 54.6538 182.044 54.6538 182.877 54.6538Z" fill="#C99810"/>
<path d="M5.48524 54.6538C5.48524 55.407 5.48524 56.1602 5.48385 56.9128C5.48385 56.93 5.45887 56.9479 5.43458 56.9795C4.69267 56.9795 3.93896 56.9795 3.18456 56.9795C3.10753 56.4969 3.09712 55.6941 3.15611 54.6931C3.17346 54.68 3.19081 54.6552 3.20885 54.6552C3.96742 54.6538 4.72598 54.6538 5.48524 54.6538Z" fill="#C99810"/>
<path d="M183.887 5.56207C183.127 5.56207 182.368 5.56207 181.613 5.56207C181.527 5.52833 181.504 5.40372 181.389 5.42437C181.389 4.64431 181.389 3.86356 181.389 3.0835C182.192 3.0835 182.995 3.0835 183.799 3.08487C183.817 3.08487 183.835 3.10622 183.853 3.11792C183.865 3.13582 183.886 3.15372 183.886 3.17162C183.887 3.9689 183.887 4.76548 183.887 5.56207Z" fill="#C99810"/>
<path d="M7.11539 5.59434V3H268.654V5.59434H272.5V55.4057H268.654V58H3.26923V55.2529H2.5V5.59434H7.11539Z" fill="#FFE14C" stroke="#C99810" stroke-width="1.02778"/>
<rect x="2.55554" y="2.05566" width="3.08333" height="3.08333" fill="#C99810"/>
<g filter="url(#filter1_d_404_107)">
<mask id="path-10-outside-1_404_107" maskUnits="userSpaceOnUse" x="36" y="20" width="200" height="18" fill="black">
<rect fill="white" x="36" y="20" width="200" height="18"/>
<path d="M42.8594 34.0469V24.2812H40.9062V22.3281H50.6719V24.2812H48.7188V34.0469H46.7656V36H40.8965V34.0469H38.9531V32.0938H40.9062V34.0469H42.8594ZM65.3438 36H55.5781V34.0469H53.625V24.2812H55.5781V22.3281H65.3438V24.2812H67.2969V34.0469H65.3438V36ZM63.3906 34.0469V24.2812H59.4844V34.0469H63.3906ZM81.9688 22.3281V24.2812H80.0156V34.0469H81.9688V36H72.2031V34.0469H74.1562V24.2812H72.2031V22.3281H81.9688ZM86.875 36V22.3281H98.5938V24.2812H100.547V36H96.6406V24.2812H92.7344L92.7441 36H86.875ZM120.125 36V22.3281H131.844V24.2812H133.797V34.0469H131.844V36H120.125ZM125.994 34.0469H129.891V24.2812H125.984L125.994 34.0469ZM148.469 22.3281V24.2812H146.516V34.0469H148.469V36H138.703V34.0469H140.656V24.2812H138.703V22.3281H148.469ZM153.375 32.0938H157.281V34.0469H163.141V30.1406H155.328V28.1875H153.375V24.2812H155.328V22.3281H165.094V24.2812H167.047V26.2344H163.141V24.2812H159.234V28.1875H165.094V30.1406H167.047V34.0469H165.094V36H155.328V34.0469H153.375V32.0938ZM175.859 24.2812V34.0469H183.672V36H171.953V34.0469H170V24.2812H171.953V22.3281H183.672V24.2812H175.859ZM198.344 36H188.578V34.0469H186.625V24.2812H188.578V22.3281H198.344V24.2812H200.297V34.0469H198.344V36ZM196.391 34.0469V24.2812H192.484V34.0469H196.391ZM203.25 36V22.3281H214.969V24.2812H216.922V28.1875H214.969V30.1406H216.922V36H211.062V30.1406H207.166V36H203.25ZM209.109 24.2812V28.1875H213.016V24.2812H209.109ZM219.875 36V22.3281H231.594V24.2812H233.547V34.0469H231.594V36H219.875ZM225.744 34.0469H229.641V24.2812H225.734L225.744 34.0469Z"/>
</mask>
<path d="M42.8594 34.0469V24.2812H40.9062V22.3281H50.6719V24.2812H48.7188V34.0469H46.7656V36H40.8965V34.0469H38.9531V32.0938H40.9062V34.0469H42.8594ZM65.3438 36H55.5781V34.0469H53.625V24.2812H55.5781V22.3281H65.3438V24.2812H67.2969V34.0469H65.3438V36ZM63.3906 34.0469V24.2812H59.4844V34.0469H63.3906ZM81.9688 22.3281V24.2812H80.0156V34.0469H81.9688V36H72.2031V34.0469H74.1562V24.2812H72.2031V22.3281H81.9688ZM86.875 36V22.3281H98.5938V24.2812H100.547V36H96.6406V24.2812H92.7344L92.7441 36H86.875ZM120.125 36V22.3281H131.844V24.2812H133.797V34.0469H131.844V36H120.125ZM125.994 34.0469H129.891V24.2812H125.984L125.994 34.0469ZM148.469 22.3281V24.2812H146.516V34.0469H148.469V36H138.703V34.0469H140.656V24.2812H138.703V22.3281H148.469ZM153.375 32.0938H157.281V34.0469H163.141V30.1406H155.328V28.1875H153.375V24.2812H155.328V22.3281H165.094V24.2812H167.047V26.2344H163.141V24.2812H159.234V28.1875H165.094V30.1406H167.047V34.0469H165.094V36H155.328V34.0469H153.375V32.0938ZM175.859 24.2812V34.0469H183.672V36H171.953V34.0469H170V24.2812H171.953V22.3281H183.672V24.2812H175.859ZM198.344 36H188.578V34.0469H186.625V24.2812H188.578V22.3281H198.344V24.2812H200.297V34.0469H198.344V36ZM196.391 34.0469V24.2812H192.484V34.0469H196.391ZM203.25 36V22.3281H214.969V24.2812H216.922V28.1875H214.969V30.1406H216.922V36H211.062V30.1406H207.166V36H203.25ZM209.109 24.2812V28.1875H213.016V24.2812H209.109ZM219.875 36V22.3281H231.594V24.2812H233.547V34.0469H231.594V36H219.875ZM225.744 34.0469H229.641V24.2812H225.734L225.744 34.0469Z" fill="white"/>
<path d="M42.8594 34.0469V36.0469H44.8594V34.0469H42.8594ZM42.8594 24.2812H44.8594V22.2812H42.8594V24.2812ZM40.9062 24.2812H38.9062V26.2812H40.9062V24.2812ZM40.9062 22.3281V20.3281H38.9062V22.3281H40.9062ZM50.6719 22.3281H52.6719V20.3281H50.6719V22.3281ZM50.6719 24.2812V26.2812H52.6719V24.2812H50.6719ZM48.7188 24.2812V22.2812H46.7188V24.2812H48.7188ZM48.7188 34.0469V36.0469H50.7188V34.0469H48.7188ZM46.7656 34.0469V32.0469H44.7656V34.0469H46.7656ZM46.7656 36V38H48.7656V36H46.7656ZM40.8965 36H38.8965V38H40.8965V36ZM40.8965 34.0469H42.8965V32.0469H40.8965V34.0469ZM38.9531 34.0469H36.9531V36.0469H38.9531V34.0469ZM38.9531 32.0938V30.0938H36.9531V32.0938H38.9531ZM40.9062 32.0938H42.9062V30.0938H40.9062V32.0938ZM40.9062 34.0469H38.9062V36.0469H40.9062V34.0469ZM42.8594 34.0469H44.8594V24.2812H42.8594H40.8594V34.0469H42.8594ZM42.8594 24.2812V22.2812H40.9062V24.2812V26.2812H42.8594V24.2812ZM40.9062 24.2812H42.9062V22.3281H40.9062H38.9062V24.2812H40.9062ZM40.9062 22.3281V24.3281H50.6719V22.3281V20.3281H40.9062V22.3281ZM50.6719 22.3281H48.6719V24.2812H50.6719H52.6719V22.3281H50.6719ZM50.6719 24.2812V22.2812H48.7188V24.2812V26.2812H50.6719V24.2812ZM48.7188 24.2812H46.7188V34.0469H48.7188H50.7188V24.2812H48.7188ZM48.7188 34.0469V32.0469H46.7656V34.0469V36.0469H48.7188V34.0469ZM46.7656 34.0469H44.7656V36H46.7656H48.7656V34.0469H46.7656ZM46.7656 36V34H40.8965V36V38H46.7656V36ZM40.8965 36H42.8965V34.0469H40.8965H38.8965V36H40.8965ZM40.8965 34.0469V32.0469H38.9531V34.0469V36.0469H40.8965V34.0469ZM38.9531 34.0469H40.9531V32.0938H38.9531H36.9531V34.0469H38.9531ZM38.9531 32.0938V34.0938H40.9062V32.0938V30.0938H38.9531V32.0938ZM40.9062 32.0938H38.9062V34.0469H40.9062H42.9062V32.0938H40.9062ZM40.9062 34.0469V36.0469H42.8594V34.0469V32.0469H40.9062V34.0469ZM65.3438 36V38H67.3438V36H65.3438ZM55.5781 36H53.5781V38H55.5781V36ZM55.5781 34.0469H57.5781V32.0469H55.5781V34.0469ZM53.625 34.0469H51.625V36.0469H53.625V34.0469ZM53.625 24.2812V22.2812H51.625V24.2812H53.625ZM55.5781 24.2812V26.2812H57.5781V24.2812H55.5781ZM55.5781 22.3281V20.3281H53.5781V22.3281H55.5781ZM65.3438 22.3281H67.3438V20.3281H65.3438V22.3281ZM65.3438 24.2812H63.3438V26.2812H65.3438V24.2812ZM67.2969 24.2812H69.2969V22.2812H67.2969V24.2812ZM67.2969 34.0469V36.0469H69.2969V34.0469H67.2969ZM65.3438 34.0469V32.0469H63.3438V34.0469H65.3438ZM63.3906 34.0469V36.0469H65.3906V34.0469H63.3906ZM63.3906 24.2812H65.3906V22.2812H63.3906V24.2812ZM59.4844 24.2812V22.2812H57.4844V24.2812H59.4844ZM59.4844 34.0469H57.4844V36.0469H59.4844V34.0469ZM65.3438 36V34H55.5781V36V38H65.3438V36ZM55.5781 36H57.5781V34.0469H55.5781H53.5781V36H55.5781ZM55.5781 34.0469V32.0469H53.625V34.0469V36.0469H55.5781V34.0469ZM53.625 34.0469H55.625V24.2812H53.625H51.625V34.0469H53.625ZM53.625 24.2812V26.2812H55.5781V24.2812V22.2812H53.625V24.2812ZM55.5781 24.2812H57.5781V22.3281H55.5781H53.5781V24.2812H55.5781ZM55.5781 22.3281V24.3281H65.3438V22.3281V20.3281H55.5781V22.3281ZM65.3438 22.3281H63.3438V24.2812H65.3438H67.3438V22.3281H65.3438ZM65.3438 24.2812V26.2812H67.2969V24.2812V22.2812H65.3438V24.2812ZM67.2969 24.2812H65.2969V34.0469H67.2969H69.2969V24.2812H67.2969ZM67.2969 34.0469V32.0469H65.3438V34.0469V36.0469H67.2969V34.0469ZM65.3438 34.0469H63.3438V36H65.3438H67.3438V34.0469H65.3438ZM63.3906 34.0469H65.3906V24.2812H63.3906H61.3906V34.0469H63.3906ZM63.3906 24.2812V22.2812H59.4844V24.2812V26.2812H63.3906V24.2812ZM59.4844 24.2812H57.4844V34.0469H59.4844H61.4844V24.2812H59.4844ZM59.4844 34.0469V36.0469H63.3906V34.0469V32.0469H59.4844V34.0469ZM81.9688 22.3281H83.9688V20.3281H81.9688V22.3281ZM81.9688 24.2812V26.2812H83.9688V24.2812H81.9688ZM80.0156 24.2812V22.2812H78.0156V24.2812H80.0156ZM80.0156 34.0469H78.0156V36.0469H80.0156V34.0469ZM81.9688 34.0469H83.9688V32.0469H81.9688V34.0469ZM81.9688 36V38H83.9688V36H81.9688ZM72.2031 36H70.2031V38H72.2031V36ZM72.2031 34.0469V32.0469H70.2031V34.0469H72.2031ZM74.1562 34.0469V36.0469H76.1562V34.0469H74.1562ZM74.1562 24.2812H76.1562V22.2812H74.1562V24.2812ZM72.2031 24.2812H70.2031V26.2812H72.2031V24.2812ZM72.2031 22.3281V20.3281H70.2031V22.3281H72.2031ZM81.9688 22.3281H79.9688V24.2812H81.9688H83.9688V22.3281H81.9688ZM81.9688 24.2812V22.2812H80.0156V24.2812V26.2812H81.9688V24.2812ZM80.0156 24.2812H78.0156V34.0469H80.0156H82.0156V24.2812H80.0156ZM80.0156 34.0469V36.0469H81.9688V34.0469V32.0469H80.0156V34.0469ZM81.9688 34.0469H79.9688V36H81.9688H83.9688V34.0469H81.9688ZM81.9688 36V34H72.2031V36V38H81.9688V36ZM72.2031 36H74.2031V34.0469H72.2031H70.2031V36H72.2031ZM72.2031 34.0469V36.0469H74.1562V34.0469V32.0469H72.2031V34.0469ZM74.1562 34.0469H76.1562V24.2812H74.1562H72.1562V34.0469H74.1562ZM74.1562 24.2812V22.2812H72.2031V24.2812V26.2812H74.1562V24.2812ZM72.2031 24.2812H74.2031V22.3281H72.2031H70.2031V24.2812H72.2031ZM72.2031 22.3281V24.3281H81.9688V22.3281V20.3281H72.2031V22.3281ZM86.875 36H84.875V38H86.875V36ZM86.875 22.3281V20.3281H84.875V22.3281H86.875ZM98.5938 22.3281H100.594V20.3281H98.5938V22.3281ZM98.5938 24.2812H96.5938V26.2812H98.5938V24.2812ZM100.547 24.2812H102.547V22.2812H100.547V24.2812ZM100.547 36V38H102.547V36H100.547ZM96.6406 36H94.6406V38H96.6406V36ZM96.6406 24.2812H98.6406V22.2812H96.6406V24.2812ZM92.7344 24.2812V22.2812H90.7327L90.7344 24.2829L92.7344 24.2812ZM92.7441 36V38H94.7458L94.7441 35.9983L92.7441 36ZM86.875 36H88.875V22.3281H86.875H84.875V36H86.875ZM86.875 22.3281V24.3281H98.5938V22.3281V20.3281H86.875V22.3281ZM98.5938 22.3281H96.5938V24.2812H98.5938H100.594V22.3281H98.5938ZM98.5938 24.2812V26.2812H100.547V24.2812V22.2812H98.5938V24.2812ZM100.547 24.2812H98.5469V36H100.547H102.547V24.2812H100.547ZM100.547 36V34H96.6406V36V38H100.547V36ZM96.6406 36H98.6406V24.2812H96.6406H94.6406V36H96.6406ZM96.6406 24.2812V22.2812H92.7344V24.2812V26.2812H96.6406V24.2812ZM92.7344 24.2812L90.7344 24.2829L90.7441 36.0017L92.7441 36L94.7441 35.9983L94.7344 24.2796L92.7344 24.2812ZM92.7441 36V34H86.875V36V38H92.7441V36ZM120.125 36H118.125V38H120.125V36ZM120.125 22.3281V20.3281H118.125V22.3281H120.125ZM131.844 22.3281H133.844V20.3281H131.844V22.3281ZM131.844 24.2812H129.844V26.2812H131.844V24.2812ZM133.797 24.2812H135.797V22.2812H133.797V24.2812ZM133.797 34.0469V36.0469H135.797V34.0469H133.797ZM131.844 34.0469V32.0469H129.844V34.0469H131.844ZM131.844 36V38H133.844V36H131.844ZM125.994 34.0469L123.994 34.0489L123.996 36.0469H125.994V34.0469ZM129.891 34.0469V36.0469H131.891V34.0469H129.891ZM129.891 24.2812H131.891V22.2812H129.891V24.2812ZM125.984 24.2812V22.2812H123.982L123.984 24.2832L125.984 24.2812ZM120.125 36H122.125V22.3281H120.125H118.125V36H120.125ZM120.125 22.3281V24.3281H131.844V22.3281V20.3281H120.125V22.3281ZM131.844 22.3281H129.844V24.2812H131.844H133.844V22.3281H131.844ZM131.844 24.2812V26.2812H133.797V24.2812V22.2812H131.844V24.2812ZM133.797 24.2812H131.797V34.0469H133.797H135.797V24.2812H133.797ZM133.797 34.0469V32.0469H131.844V34.0469V36.0469H133.797V34.0469ZM131.844 34.0469H129.844V36H131.844H133.844V34.0469H131.844ZM131.844 36V34H120.125V36V38H131.844V36ZM125.994 34.0469V36.0469H129.891V34.0469V32.0469H125.994V34.0469ZM129.891 34.0469H131.891V24.2812H129.891H127.891V34.0469H129.891ZM129.891 24.2812V22.2812H125.984V24.2812V26.2812H129.891V24.2812ZM125.984 24.2812L123.984 24.2832L123.994 34.0489L125.994 34.0469L127.994 34.0449L127.984 24.2793L125.984 24.2812ZM148.469 22.3281H150.469V20.3281H148.469V22.3281ZM148.469 24.2812V26.2812H150.469V24.2812H148.469ZM146.516 24.2812V22.2812H144.516V24.2812H146.516ZM146.516 34.0469H144.516V36.0469H146.516V34.0469ZM148.469 34.0469H150.469V32.0469H148.469V34.0469ZM148.469 36V38H150.469V36H148.469ZM138.703 36H136.703V38H138.703V36ZM138.703 34.0469V32.0469H136.703V34.0469H138.703ZM140.656 34.0469V36.0469H142.656V34.0469H140.656ZM140.656 24.2812H142.656V22.2812H140.656V24.2812ZM138.703 24.2812H136.703V26.2812H138.703V24.2812ZM138.703 22.3281V20.3281H136.703V22.3281H138.703ZM148.469 22.3281H146.469V24.2812H148.469H150.469V22.3281H148.469ZM148.469 24.2812V22.2812H146.516V24.2812V26.2812H148.469V24.2812ZM146.516 24.2812H144.516V34.0469H146.516H148.516V24.2812H146.516ZM146.516 34.0469V36.0469H148.469V34.0469V32.0469H146.516V34.0469ZM148.469 34.0469H146.469V36H148.469H150.469V34.0469H148.469ZM148.469 36V34H138.703V36V38H148.469V36ZM138.703 36H140.703V34.0469H138.703H136.703V36H138.703ZM138.703 34.0469V36.0469H140.656V34.0469V32.0469H138.703V34.0469ZM140.656 34.0469H142.656V24.2812H140.656H138.656V34.0469H140.656ZM140.656 24.2812V22.2812H138.703V24.2812V26.2812H140.656V24.2812ZM138.703 24.2812H140.703V22.3281H138.703H136.703V24.2812H138.703ZM138.703 22.3281V24.3281H148.469V22.3281V20.3281H138.703V22.3281ZM153.375 32.0938V30.0938H151.375V32.0938H153.375ZM157.281 32.0938H159.281V30.0938H157.281V32.0938ZM157.281 34.0469H155.281V36.0469H157.281V34.0469ZM163.141 34.0469V36.0469H165.141V34.0469H163.141ZM163.141 30.1406H165.141V28.1406H163.141V30.1406ZM155.328 30.1406H153.328V32.1406H155.328V30.1406ZM155.328 28.1875H157.328V26.1875H155.328V28.1875ZM153.375 28.1875H151.375V30.1875H153.375V28.1875ZM153.375 24.2812V22.2812H151.375V24.2812H153.375ZM155.328 24.2812V26.2812H157.328V24.2812H155.328ZM155.328 22.3281V20.3281H153.328V22.3281H155.328ZM165.094 22.3281H167.094V20.3281H165.094V22.3281ZM165.094 24.2812H163.094V26.2812H165.094V24.2812ZM167.047 24.2812H169.047V22.2812H167.047V24.2812ZM167.047 26.2344V28.2344H169.047V26.2344H167.047ZM163.141 26.2344H161.141V28.2344H163.141V26.2344ZM163.141 24.2812H165.141V22.2812H163.141V24.2812ZM159.234 24.2812V22.2812H157.234V24.2812H159.234ZM159.234 28.1875H157.234V30.1875H159.234V28.1875ZM165.094 28.1875H167.094V26.1875H165.094V28.1875ZM165.094 30.1406H163.094V32.1406H165.094V30.1406ZM167.047 30.1406H169.047V28.1406H167.047V30.1406ZM167.047 34.0469V36.0469H169.047V34.0469H167.047ZM165.094 34.0469V32.0469H163.094V34.0469H165.094ZM165.094 36V38H167.094V36H165.094ZM155.328 36H153.328V38H155.328V36ZM155.328 34.0469H157.328V32.0469H155.328V34.0469ZM153.375 34.0469H151.375V36.0469H153.375V34.0469ZM153.375 32.0938V34.0938H157.281V32.0938V30.0938H153.375V32.0938ZM157.281 32.0938H155.281V34.0469H157.281H159.281V32.0938H157.281ZM157.281 34.0469V36.0469H163.141V34.0469V32.0469H157.281V34.0469ZM163.141 34.0469H165.141V30.1406H163.141H161.141V34.0469H163.141ZM163.141 30.1406V28.1406H155.328V30.1406V32.1406H163.141V30.1406ZM155.328 30.1406H157.328V28.1875H155.328H153.328V30.1406H155.328ZM155.328 28.1875V26.1875H153.375V28.1875V30.1875H155.328V28.1875ZM153.375 28.1875H155.375V24.2812H153.375H151.375V28.1875H153.375ZM153.375 24.2812V26.2812H155.328V24.2812V22.2812H153.375V24.2812ZM155.328 24.2812H157.328V22.3281H155.328H153.328V24.2812H155.328ZM155.328 22.3281V24.3281H165.094V22.3281V20.3281H155.328V22.3281ZM165.094 22.3281H163.094V24.2812H165.094H167.094V22.3281H165.094ZM165.094 24.2812V26.2812H167.047V24.2812V22.2812H165.094V24.2812ZM167.047 24.2812H165.047V26.2344H167.047H169.047V24.2812H167.047ZM167.047 26.2344V24.2344H163.141V26.2344V28.2344H167.047V26.2344ZM163.141 26.2344H165.141V24.2812H163.141H161.141V26.2344H163.141ZM163.141 24.2812V22.2812H159.234V24.2812V26.2812H163.141V24.2812ZM159.234 24.2812H157.234V28.1875H159.234H161.234V24.2812H159.234ZM159.234 28.1875V30.1875H165.094V28.1875V26.1875H159.234V28.1875ZM165.094 28.1875H163.094V30.1406H165.094H167.094V28.1875H165.094ZM165.094 30.1406V32.1406H167.047V30.1406V28.1406H165.094V30.1406ZM167.047 30.1406H165.047V34.0469H167.047H169.047V30.1406H167.047ZM167.047 34.0469V32.0469H165.094V34.0469V36.0469H167.047V34.0469ZM165.094 34.0469H163.094V36H165.094H167.094V34.0469H165.094ZM165.094 36V34H155.328V36V38H165.094V36ZM155.328 36H157.328V34.0469H155.328H153.328V36H155.328ZM155.328 34.0469V32.0469H153.375V34.0469V36.0469H155.328V34.0469ZM153.375 34.0469H155.375V32.0938H153.375H151.375V34.0469H153.375ZM175.859 24.2812V22.2812H173.859V24.2812H175.859ZM175.859 34.0469H173.859V36.0469H175.859V34.0469ZM183.672 34.0469H185.672V32.0469H183.672V34.0469ZM183.672 36V38H185.672V36H183.672ZM171.953 36H169.953V38H171.953V36ZM171.953 34.0469H173.953V32.0469H171.953V34.0469ZM170 34.0469H168V36.0469H170V34.0469ZM170 24.2812V22.2812H168V24.2812H170ZM171.953 24.2812V26.2812H173.953V24.2812H171.953ZM171.953 22.3281V20.3281H169.953V22.3281H171.953ZM183.672 22.3281H185.672V20.3281H183.672V22.3281ZM183.672 24.2812V26.2812H185.672V24.2812H183.672ZM175.859 24.2812H173.859V34.0469H175.859H177.859V24.2812H175.859ZM175.859 34.0469V36.0469H183.672V34.0469V32.0469H175.859V34.0469ZM183.672 34.0469H181.672V36H183.672H185.672V34.0469H183.672ZM183.672 36V34H171.953V36V38H183.672V36ZM171.953 36H173.953V34.0469H171.953H169.953V36H171.953ZM171.953 34.0469V32.0469H170V34.0469V36.0469H171.953V34.0469ZM170 34.0469H172V24.2812H170H168V34.0469H170ZM170 24.2812V26.2812H171.953V24.2812V22.2812H170V24.2812ZM171.953 24.2812H173.953V22.3281H171.953H169.953V24.2812H171.953ZM171.953 22.3281V24.3281H183.672V22.3281V20.3281H171.953V22.3281ZM183.672 22.3281H181.672V24.2812H183.672H185.672V22.3281H183.672ZM183.672 24.2812V22.2812H175.859V24.2812V26.2812H183.672V24.2812ZM198.344 36V38H200.344V36H198.344ZM188.578 36H186.578V38H188.578V36ZM188.578 34.0469H190.578V32.0469H188.578V34.0469ZM186.625 34.0469H184.625V36.0469H186.625V34.0469ZM186.625 24.2812V22.2812H184.625V24.2812H186.625ZM188.578 24.2812V26.2812H190.578V24.2812H188.578ZM188.578 22.3281V20.3281H186.578V22.3281H188.578ZM198.344 22.3281H200.344V20.3281H198.344V22.3281ZM198.344 24.2812H196.344V26.2812H198.344V24.2812ZM200.297 24.2812H202.297V22.2812H200.297V24.2812ZM200.297 34.0469V36.0469H202.297V34.0469H200.297ZM198.344 34.0469V32.0469H196.344V34.0469H198.344ZM196.391 34.0469V36.0469H198.391V34.0469H196.391ZM196.391 24.2812H198.391V22.2812H196.391V24.2812ZM192.484 24.2812V22.2812H190.484V24.2812H192.484ZM192.484 34.0469H190.484V36.0469H192.484V34.0469ZM198.344 36V34H188.578V36V38H198.344V36ZM188.578 36H190.578V34.0469H188.578H186.578V36H188.578ZM188.578 34.0469V32.0469H186.625V34.0469V36.0469H188.578V34.0469ZM186.625 34.0469H188.625V24.2812H186.625H184.625V34.0469H186.625ZM186.625 24.2812V26.2812H188.578V24.2812V22.2812H186.625V24.2812ZM188.578 24.2812H190.578V22.3281H188.578H186.578V24.2812H188.578ZM188.578 22.3281V24.3281H198.344V22.3281V20.3281H188.578V22.3281ZM198.344 22.3281H196.344V24.2812H198.344H200.344V22.3281H198.344ZM198.344 24.2812V26.2812H200.297V24.2812V22.2812H198.344V24.2812ZM200.297 24.2812H198.297V34.0469H200.297H202.297V24.2812H200.297ZM200.297 34.0469V32.0469H198.344V34.0469V36.0469H200.297V34.0469ZM198.344 34.0469H196.344V36H198.344H200.344V34.0469H198.344ZM196.391 34.0469H198.391V24.2812H196.391H194.391V34.0469H196.391ZM196.391 24.2812V22.2812H192.484V24.2812V26.2812H196.391V24.2812ZM192.484 24.2812H190.484V34.0469H192.484H194.484V24.2812H192.484ZM192.484 34.0469V36.0469H196.391V34.0469V32.0469H192.484V34.0469ZM203.25 36H201.25V38H203.25V36ZM203.25 22.3281V20.3281H201.25V22.3281H203.25ZM214.969 22.3281H216.969V20.3281H214.969V22.3281ZM214.969 24.2812H212.969V26.2812H214.969V24.2812ZM216.922 24.2812H218.922V22.2812H216.922V24.2812ZM216.922 28.1875V30.1875H218.922V28.1875H216.922ZM214.969 28.1875V26.1875H212.969V28.1875H214.969ZM214.969 30.1406H212.969V32.1406H214.969V30.1406ZM216.922 30.1406H218.922V28.1406H216.922V30.1406ZM216.922 36V38H218.922V36H216.922ZM211.062 36H209.062V38H211.062V36ZM211.062 30.1406H213.062V28.1406H211.062V30.1406ZM207.166 30.1406V28.1406H205.166V30.1406H207.166ZM207.166 36V38H209.166V36H207.166ZM209.109 24.2812V22.2812H207.109V24.2812H209.109ZM209.109 28.1875H207.109V30.1875H209.109V28.1875ZM213.016 28.1875V30.1875H215.016V28.1875H213.016ZM213.016 24.2812H215.016V22.2812H213.016V24.2812ZM203.25 36H205.25V22.3281H203.25H201.25V36H203.25ZM203.25 22.3281V24.3281H214.969V22.3281V20.3281H203.25V22.3281ZM214.969 22.3281H212.969V24.2812H214.969H216.969V22.3281H214.969ZM214.969 24.2812V26.2812H216.922V24.2812V22.2812H214.969V24.2812ZM216.922 24.2812H214.922V28.1875H216.922H218.922V24.2812H216.922ZM216.922 28.1875V26.1875H214.969V28.1875V30.1875H216.922V28.1875ZM214.969 28.1875H212.969V30.1406H214.969H216.969V28.1875H214.969ZM214.969 30.1406V32.1406H216.922V30.1406V28.1406H214.969V30.1406ZM216.922 30.1406H214.922V36H216.922H218.922V30.1406H216.922ZM216.922 36V34H211.062V36V38H216.922V36ZM211.062 36H213.062V30.1406H211.062H209.062V36H211.062ZM211.062 30.1406V28.1406H207.166V30.1406V32.1406H211.062V30.1406ZM207.166 30.1406H205.166V36H207.166H209.166V30.1406H207.166ZM207.166 36V34H203.25V36V38H207.166V36ZM209.109 24.2812H207.109V28.1875H209.109H211.109V24.2812H209.109ZM209.109 28.1875V30.1875H213.016V28.1875V26.1875H209.109V28.1875ZM213.016 28.1875H215.016V24.2812H213.016H211.016V28.1875H213.016ZM213.016 24.2812V22.2812H209.109V24.2812V26.2812H213.016V24.2812ZM219.875 36H217.875V38H219.875V36ZM219.875 22.3281V20.3281H217.875V22.3281H219.875ZM231.594 22.3281H233.594V20.3281H231.594V22.3281ZM231.594 24.2812H229.594V26.2812H231.594V24.2812ZM233.547 24.2812H235.547V22.2812H233.547V24.2812ZM233.547 34.0469V36.0469H235.547V34.0469H233.547ZM231.594 34.0469V32.0469H229.594V34.0469H231.594ZM231.594 36V38H233.594V36H231.594ZM225.744 34.0469L223.744 34.0489L223.746 36.0469H225.744V34.0469ZM229.641 34.0469V36.0469H231.641V34.0469H229.641ZM229.641 24.2812H231.641V22.2812H229.641V24.2812ZM225.734 24.2812V22.2812H223.732L223.734 24.2832L225.734 24.2812ZM219.875 36H221.875V22.3281H219.875H217.875V36H219.875ZM219.875 22.3281V24.3281H231.594V22.3281V20.3281H219.875V22.3281ZM231.594 22.3281H229.594V24.2812H231.594H233.594V22.3281H231.594ZM231.594 24.2812V26.2812H233.547V24.2812V22.2812H231.594V24.2812ZM233.547 24.2812H231.547V34.0469H233.547H235.547V24.2812H233.547ZM233.547 34.0469V32.0469H231.594V34.0469V36.0469H233.547V34.0469ZM231.594 34.0469H229.594V36H231.594H233.594V34.0469H231.594ZM231.594 36V34H219.875V36V38H231.594V36ZM225.744 34.0469V36.0469H229.641V34.0469V32.0469H225.744V34.0469ZM229.641 34.0469H231.641V24.2812H229.641H227.641V34.0469H229.641ZM229.641 24.2812V22.2812H225.734V24.2812V26.2812H229.641V24.2812ZM225.734 24.2812L223.734 24.2832L223.744 34.0489L225.744 34.0469L227.744 34.0449L227.734 24.2793L225.734 24.2812Z" fill="#270300" mask="url(#path-10-outside-1_404_107)"/>
</g>
</g>
<defs>
<filter id="filter0_d_404_107" x="0.5" y="0" width="275" height="64.5122" filterUnits="userSpaceOnUse" color-interpolation-filters="sRGB">
<feFlood flood-opacity="0" result="BackgroundImageFix"/>
<feColorMatrix in="SourceAlpha" type="matrix" values="0 0 0 0 0 0 0 0 0 0 0 0 0 0 0 0 0 0 127 0" result="hardAlpha"/>
<feOffset dy="4.5122"/>
<feComposite in2="hardAlpha" operator="out"/>
<feColorMatrix type="matrix" values="0 0 0 0 0.4 0 0 0 0 0.294118 0 0 0 0 0 0 0 0 1 0"/>
<feBlend mode="normal" in2="BackgroundImageFix" result="effect1_dropShadow_404_107"/>
<feBlend mode="normal" in="SourceGraphic" in2="effect1_dropShadow_404_107" result="shape"/>
</filter>
<filter id="filter1_d_404_107" x="36.9531" y="20.3281" width="198.594" height="19.6719" filterUnits="userSpaceOnUse" color-interpolation-filters="sRGB">
<feFlood flood-opacity="0" result="BackgroundImageFix"/>
<feColorMatrix in="SourceAlpha" type="matrix" values="0 0 0 0 0 0 0 0 0 0 0 0 0 0 0 0 0 0 127 0" result="hardAlpha"/>
<feOffset dy="2"/>
<feComposite in2="hardAlpha" operator="out"/>
<feColorMatrix type="matrix" values="0 0 0 0 0.686275 0 0 0 0 0.47451 0 0 0 0 0.137255 0 0 0 1 0"/>
<feBlend mode="normal" in2="BackgroundImageFix" result="effect1_dropShadow_404_107"/>
<feBlend mode="normal" in="SourceGraphic" in2="effect1_dropShadow_404_107" result="shape"/>
</filter>
</defs>
</svg>
