<svg width="275" height="64" viewBox="0 0 275 64" fill="none" xmlns="http://www.w3.org/2000/svg">
<g filter="url(#filter0_d_115_3242)">
<path d="M4.98523 3.29688C4.98523 2.29896 4.98523 1.30105 4.98523 0.303134C92.9484 0.303134 180.911 0.303134 268.873 0.303134C269.083 0.303134 269.293 0.296482 269.504 0.304798C269.668 0.31145 269.855 0.250744 269.985 0.386294C269.985 1.35593 269.985 2.3264 269.985 3.29604C181.652 3.29688 93.3186 3.29688 4.98523 3.29688Z" fill="#C99810"/>
<path d="M275 58C272.797 58 270.592 58 268.389 58C268.259 58 268.13 58 268 58C268 39.0006 268 20.0013 268 1.00189C270.137 1.00189 272.274 1.00189 274.411 1.00189C274.541 1.00189 274.671 0.996344 274.798 1.00426C274.846 1.00743 274.885 1.04068 274.951 1.07155C274.957 1.07947 274.996 1.10242 274.996 1.12538C275 20.0836 275 39.0418 275 58Z" fill="#C99810"/>
<path d="M2.48662 5.08252C2.48662 21.5527 2.48662 38.0221 2.48662 54.5039C1.68503 54.5039 0.928546 54.5039 0.182475 54.5039C0.156796 54.475 0.128341 54.4585 0.128341 54.4413C0.126953 37.9884 0.126953 21.5354 0.126953 5.08252C0.913972 5.08252 1.7003 5.08252 2.48662 5.08252Z" fill="#C99810"/>
<path d="M269.985 57.2969C269.985 57.9633 269.985 58.6304 269.985 59.2969C181.658 59.2969 93.3308 59.2969 4.98523 59.2969C4.98523 58.6175 4.98523 57.9763 4.98523 57.3439C5.02943 57.3222 5.05469 57.2981 5.08101 57.2981C93.3824 57.2969 181.684 57.2969 269.985 57.2969Z" fill="#C99810"/>
<path d="M182.377 54.6538C182.377 55.4339 182.377 56.2146 182.377 56.9947C181.556 56.9947 180.734 56.9947 179.936 56.9947C179.902 56.943 179.88 56.9245 179.88 56.9066C179.879 56.1554 179.879 55.4043 179.879 54.6538C180.711 54.6538 181.544 54.6538 182.377 54.6538Z" fill="#C99810"/>
<path d="M4.98524 54.6538C4.98524 55.407 4.98524 56.1602 4.98385 56.9128C4.98385 56.93 4.95887 56.9479 4.93458 56.9795C4.19267 56.9795 3.43896 56.9795 2.68456 56.9795C2.60753 56.4969 2.59712 55.6941 2.65611 54.6931C2.67346 54.68 2.69081 54.6552 2.70885 54.6552C3.46742 54.6538 4.22598 54.6538 4.98524 54.6538Z" fill="#C99810"/>
<path d="M183.387 5.56207C182.627 5.56207 181.868 5.56207 181.113 5.56207C181.027 5.52833 181.004 5.40372 180.889 5.42437C180.889 4.64431 180.889 3.86356 180.889 3.0835C181.692 3.0835 182.495 3.0835 183.299 3.08487C183.317 3.08487 183.335 3.10622 183.353 3.11792C183.365 3.13582 183.386 3.15372 183.386 3.17162C183.387 3.9689 183.387 4.76548 183.387 5.56207Z" fill="#C99810"/>
<path d="M6.61539 5.59434V3H268.154V5.59434H272V55.4057H268.154V58H2.76923V55.2529H2V5.59434H6.61539Z" fill="#FFE14C" stroke="#C99810" stroke-width="1.02778"/>
<rect x="2.05554" y="2.05566" width="3.08333" height="3.08333" fill="#C99810"/>
<g filter="url(#filter1_d_115_3242)">
<mask id="path-10-outside-1_115_3242" maskUnits="userSpaceOnUse" x="35.5" y="20" width="201" height="18" fill="black">
<rect fill="white" x="35.5" y="20" width="201" height="18"/>
<path d="M37.5 36V22.3281H49.2188V24.2812H51.1719V28.1875H49.2188V30.1406H51.1719V36H45.3125V30.1406H41.416V36H37.5ZM43.3594 24.2812V28.1875H47.2656V24.2812H43.3594ZM67.7969 36H54.125V22.3281H67.7969V24.2812H59.9844V28.1875H65.8438V30.1406H59.9844V34.0469H67.7969V36ZM84.4219 28.1875V34.0469H82.4688V36H72.7031V34.0469H70.75V24.2812H72.7031V22.3281H82.4785V24.2812H84.4219V26.2344H82.4688V24.2812H76.6094V34.0469H80.5156V30.1406H78.5625L78.5723 28.1875H84.4219ZM99.0938 22.3281V24.2812H97.1406V34.0469H99.0938V36H89.3281V34.0469H91.2812V24.2812H89.3281V22.3281H99.0938ZM104 32.0938H107.906V34.0469H113.766V30.1406H105.953V28.1875H104V24.2812H105.953V22.3281H115.719V24.2812H117.672V26.2344H113.766V24.2812H109.859V28.1875H115.719V30.1406H117.672V34.0469H115.719V36H105.953V34.0469H104V32.0938ZM134.297 22.3281V24.2812H130.391V36H124.531V24.2812H120.625V22.3281H134.297ZM150.922 36H137.25V22.3281H150.922V24.2812H143.109V28.1875H148.969V30.1406H143.109V34.0469H150.922V36ZM153.875 36V22.3281H165.594V24.2812H167.547V28.1875H165.594V30.1406H167.547V36H161.688V30.1406H157.791V36H153.875ZM159.734 24.2812V28.1875H163.641V24.2812H159.734ZM187.125 36V22.3281H198.844V24.2812H200.797V36H196.891V24.2812H192.984L192.994 36H187.125ZM215.469 36H205.703V34.0469H203.75V24.2812H205.703V22.3281H215.469V24.2812H217.422V34.0469H215.469V36ZM213.516 34.0469V24.2812H209.609V34.0469H213.516ZM232.094 34.0469V22.3281H234.047V34.0469H232.104V36H222.328V34.0469H220.375V22.3281H224.281V34.0469H226.234V22.3281H230.141V34.0469H232.094Z"/>
</mask>
<path d="M37.5 36V22.3281H49.2188V24.2812H51.1719V28.1875H49.2188V30.1406H51.1719V36H45.3125V30.1406H41.416V36H37.5ZM43.3594 24.2812V28.1875H47.2656V24.2812H43.3594ZM67.7969 36H54.125V22.3281H67.7969V24.2812H59.9844V28.1875H65.8438V30.1406H59.9844V34.0469H67.7969V36ZM84.4219 28.1875V34.0469H82.4688V36H72.7031V34.0469H70.75V24.2812H72.7031V22.3281H82.4785V24.2812H84.4219V26.2344H82.4688V24.2812H76.6094V34.0469H80.5156V30.1406H78.5625L78.5723 28.1875H84.4219ZM99.0938 22.3281V24.2812H97.1406V34.0469H99.0938V36H89.3281V34.0469H91.2812V24.2812H89.3281V22.3281H99.0938ZM104 32.0938H107.906V34.0469H113.766V30.1406H105.953V28.1875H104V24.2812H105.953V22.3281H115.719V24.2812H117.672V26.2344H113.766V24.2812H109.859V28.1875H115.719V30.1406H117.672V34.0469H115.719V36H105.953V34.0469H104V32.0938ZM134.297 22.3281V24.2812H130.391V36H124.531V24.2812H120.625V22.3281H134.297ZM150.922 36H137.25V22.3281H150.922V24.2812H143.109V28.1875H148.969V30.1406H143.109V34.0469H150.922V36ZM153.875 36V22.3281H165.594V24.2812H167.547V28.1875H165.594V30.1406H167.547V36H161.688V30.1406H157.791V36H153.875ZM159.734 24.2812V28.1875H163.641V24.2812H159.734ZM187.125 36V22.3281H198.844V24.2812H200.797V36H196.891V24.2812H192.984L192.994 36H187.125ZM215.469 36H205.703V34.0469H203.75V24.2812H205.703V22.3281H215.469V24.2812H217.422V34.0469H215.469V36ZM213.516 34.0469V24.2812H209.609V34.0469H213.516ZM232.094 34.0469V22.3281H234.047V34.0469H232.104V36H222.328V34.0469H220.375V22.3281H224.281V34.0469H226.234V22.3281H230.141V34.0469H232.094Z" fill="white"/>
<path d="M37.5 36H35.5V38H37.5V36ZM37.5 22.3281V20.3281H35.5V22.3281H37.5ZM49.2188 22.3281H51.2188V20.3281H49.2188V22.3281ZM49.2188 24.2812H47.2188V26.2812H49.2188V24.2812ZM51.1719 24.2812H53.1719V22.2812H51.1719V24.2812ZM51.1719 28.1875V30.1875H53.1719V28.1875H51.1719ZM49.2188 28.1875V26.1875H47.2188V28.1875H49.2188ZM49.2188 30.1406H47.2188V32.1406H49.2188V30.1406ZM51.1719 30.1406H53.1719V28.1406H51.1719V30.1406ZM51.1719 36V38H53.1719V36H51.1719ZM45.3125 36H43.3125V38H45.3125V36ZM45.3125 30.1406H47.3125V28.1406H45.3125V30.1406ZM41.416 30.1406V28.1406H39.416V30.1406H41.416ZM41.416 36V38H43.416V36H41.416ZM43.3594 24.2812V22.2812H41.3594V24.2812H43.3594ZM43.3594 28.1875H41.3594V30.1875H43.3594V28.1875ZM47.2656 28.1875V30.1875H49.2656V28.1875H47.2656ZM47.2656 24.2812H49.2656V22.2812H47.2656V24.2812ZM37.5 36H39.5V22.3281H37.5H35.5V36H37.5ZM37.5 22.3281V24.3281H49.2188V22.3281V20.3281H37.5V22.3281ZM49.2188 22.3281H47.2188V24.2812H49.2188H51.2188V22.3281H49.2188ZM49.2188 24.2812V26.2812H51.1719V24.2812V22.2812H49.2188V24.2812ZM51.1719 24.2812H49.1719V28.1875H51.1719H53.1719V24.2812H51.1719ZM51.1719 28.1875V26.1875H49.2188V28.1875V30.1875H51.1719V28.1875ZM49.2188 28.1875H47.2188V30.1406H49.2188H51.2188V28.1875H49.2188ZM49.2188 30.1406V32.1406H51.1719V30.1406V28.1406H49.2188V30.1406ZM51.1719 30.1406H49.1719V36H51.1719H53.1719V30.1406H51.1719ZM51.1719 36V34H45.3125V36V38H51.1719V36ZM45.3125 36H47.3125V30.1406H45.3125H43.3125V36H45.3125ZM45.3125 30.1406V28.1406H41.416V30.1406V32.1406H45.3125V30.1406ZM41.416 30.1406H39.416V36H41.416H43.416V30.1406H41.416ZM41.416 36V34H37.5V36V38H41.416V36ZM43.3594 24.2812H41.3594V28.1875H43.3594H45.3594V24.2812H43.3594ZM43.3594 28.1875V30.1875H47.2656V28.1875V26.1875H43.3594V28.1875ZM47.2656 28.1875H49.2656V24.2812H47.2656H45.2656V28.1875H47.2656ZM47.2656 24.2812V22.2812H43.3594V24.2812V26.2812H47.2656V24.2812ZM67.7969 36V38H69.7969V36H67.7969ZM54.125 36H52.125V38H54.125V36ZM54.125 22.3281V20.3281H52.125V22.3281H54.125ZM67.7969 22.3281H69.7969V20.3281H67.7969V22.3281ZM67.7969 24.2812V26.2812H69.7969V24.2812H67.7969ZM59.9844 24.2812V22.2812H57.9844V24.2812H59.9844ZM59.9844 28.1875H57.9844V30.1875H59.9844V28.1875ZM65.8438 28.1875H67.8438V26.1875H65.8438V28.1875ZM65.8438 30.1406V32.1406H67.8438V30.1406H65.8438ZM59.9844 30.1406V28.1406H57.9844V30.1406H59.9844ZM59.9844 34.0469H57.9844V36.0469H59.9844V34.0469ZM67.7969 34.0469H69.7969V32.0469H67.7969V34.0469ZM67.7969 36V34H54.125V36V38H67.7969V36ZM54.125 36H56.125V22.3281H54.125H52.125V36H54.125ZM54.125 22.3281V24.3281H67.7969V22.3281V20.3281H54.125V22.3281ZM67.7969 22.3281H65.7969V24.2812H67.7969H69.7969V22.3281H67.7969ZM67.7969 24.2812V22.2812H59.9844V24.2812V26.2812H67.7969V24.2812ZM59.9844 24.2812H57.9844V28.1875H59.9844H61.9844V24.2812H59.9844ZM59.9844 28.1875V30.1875H65.8438V28.1875V26.1875H59.9844V28.1875ZM65.8438 28.1875H63.8438V30.1406H65.8438H67.8438V28.1875H65.8438ZM65.8438 30.1406V28.1406H59.9844V30.1406V32.1406H65.8438V30.1406ZM59.9844 30.1406H57.9844V34.0469H59.9844H61.9844V30.1406H59.9844ZM59.9844 34.0469V36.0469H67.7969V34.0469V32.0469H59.9844V34.0469ZM67.7969 34.0469H65.7969V36H67.7969H69.7969V34.0469H67.7969ZM84.4219 28.1875H86.4219V26.1875H84.4219V28.1875ZM84.4219 34.0469V36.0469H86.4219V34.0469H84.4219ZM82.4688 34.0469V32.0469H80.4688V34.0469H82.4688ZM82.4688 36V38H84.4688V36H82.4688ZM72.7031 36H70.7031V38H72.7031V36ZM72.7031 34.0469H74.7031V32.0469H72.7031V34.0469ZM70.75 34.0469H68.75V36.0469H70.75V34.0469ZM70.75 24.2812V22.2812H68.75V24.2812H70.75ZM72.7031 24.2812V26.2812H74.7031V24.2812H72.7031ZM72.7031 22.3281V20.3281H70.7031V22.3281H72.7031ZM82.4785 22.3281H84.4785V20.3281H82.4785V22.3281ZM82.4785 24.2812H80.4785V26.2812H82.4785V24.2812ZM84.4219 24.2812H86.4219V22.2812H84.4219V24.2812ZM84.4219 26.2344V28.2344H86.4219V26.2344H84.4219ZM82.4688 26.2344H80.4688V28.2344H82.4688V26.2344ZM82.4688 24.2812H84.4688V22.2812H82.4688V24.2812ZM76.6094 24.2812V22.2812H74.6094V24.2812H76.6094ZM76.6094 34.0469H74.6094V36.0469H76.6094V34.0469ZM80.5156 34.0469V36.0469H82.5156V34.0469H80.5156ZM80.5156 30.1406H82.5156V28.1406H80.5156V30.1406ZM78.5625 30.1406L76.5625 30.1306L76.5525 32.1406H78.5625V30.1406ZM78.5723 28.1875V26.1875H76.5822L76.5723 28.1775L78.5723 28.1875ZM84.4219 28.1875H82.4219V34.0469H84.4219H86.4219V28.1875H84.4219ZM84.4219 34.0469V32.0469H82.4688V34.0469V36.0469H84.4219V34.0469ZM82.4688 34.0469H80.4688V36H82.4688H84.4688V34.0469H82.4688ZM82.4688 36V34H72.7031V36V38H82.4688V36ZM72.7031 36H74.7031V34.0469H72.7031H70.7031V36H72.7031ZM72.7031 34.0469V32.0469H70.75V34.0469V36.0469H72.7031V34.0469ZM70.75 34.0469H72.75V24.2812H70.75H68.75V34.0469H70.75ZM70.75 24.2812V26.2812H72.7031V24.2812V22.2812H70.75V24.2812ZM72.7031 24.2812H74.7031V22.3281H72.7031H70.7031V24.2812H72.7031ZM72.7031 22.3281V24.3281H82.4785V22.3281V20.3281H72.7031V22.3281ZM82.4785 22.3281H80.4785V24.2812H82.4785H84.4785V22.3281H82.4785ZM82.4785 24.2812V26.2812H84.4219V24.2812V22.2812H82.4785V24.2812ZM84.4219 24.2812H82.4219V26.2344H84.4219H86.4219V24.2812H84.4219ZM84.4219 26.2344V24.2344H82.4688V26.2344V28.2344H84.4219V26.2344ZM82.4688 26.2344H84.4688V24.2812H82.4688H80.4688V26.2344H82.4688ZM82.4688 24.2812V22.2812H76.6094V24.2812V26.2812H82.4688V24.2812ZM76.6094 24.2812H74.6094V34.0469H76.6094H78.6094V24.2812H76.6094ZM76.6094 34.0469V36.0469H80.5156V34.0469V32.0469H76.6094V34.0469ZM80.5156 34.0469H82.5156V30.1406H80.5156H78.5156V34.0469H80.5156ZM80.5156 30.1406V28.1406H78.5625V30.1406V32.1406H80.5156V30.1406ZM78.5625 30.1406L80.5625 30.1506L80.5722 28.1975L78.5723 28.1875L76.5723 28.1775L76.5625 30.1306L78.5625 30.1406ZM78.5723 28.1875V30.1875H84.4219V28.1875V26.1875H78.5723V28.1875ZM99.0938 22.3281H101.094V20.3281H99.0938V22.3281ZM99.0938 24.2812V26.2812H101.094V24.2812H99.0938ZM97.1406 24.2812V22.2812H95.1406V24.2812H97.1406ZM97.1406 34.0469H95.1406V36.0469H97.1406V34.0469ZM99.0938 34.0469H101.094V32.0469H99.0938V34.0469ZM99.0938 36V38H101.094V36H99.0938ZM89.3281 36H87.3281V38H89.3281V36ZM89.3281 34.0469V32.0469H87.3281V34.0469H89.3281ZM91.2812 34.0469V36.0469H93.2812V34.0469H91.2812ZM91.2812 24.2812H93.2812V22.2812H91.2812V24.2812ZM89.3281 24.2812H87.3281V26.2812H89.3281V24.2812ZM89.3281 22.3281V20.3281H87.3281V22.3281H89.3281ZM99.0938 22.3281H97.0938V24.2812H99.0938H101.094V22.3281H99.0938ZM99.0938 24.2812V22.2812H97.1406V24.2812V26.2812H99.0938V24.2812ZM97.1406 24.2812H95.1406V34.0469H97.1406H99.1406V24.2812H97.1406ZM97.1406 34.0469V36.0469H99.0938V34.0469V32.0469H97.1406V34.0469ZM99.0938 34.0469H97.0938V36H99.0938H101.094V34.0469H99.0938ZM99.0938 36V34H89.3281V36V38H99.0938V36ZM89.3281 36H91.3281V34.0469H89.3281H87.3281V36H89.3281ZM89.3281 34.0469V36.0469H91.2812V34.0469V32.0469H89.3281V34.0469ZM91.2812 34.0469H93.2812V24.2812H91.2812H89.2812V34.0469H91.2812ZM91.2812 24.2812V22.2812H89.3281V24.2812V26.2812H91.2812V24.2812ZM89.3281 24.2812H91.3281V22.3281H89.3281H87.3281V24.2812H89.3281ZM89.3281 22.3281V24.3281H99.0938V22.3281V20.3281H89.3281V22.3281ZM104 32.0938V30.0938H102V32.0938H104ZM107.906 32.0938H109.906V30.0938H107.906V32.0938ZM107.906 34.0469H105.906V36.0469H107.906V34.0469ZM113.766 34.0469V36.0469H115.766V34.0469H113.766ZM113.766 30.1406H115.766V28.1406H113.766V30.1406ZM105.953 30.1406H103.953V32.1406H105.953V30.1406ZM105.953 28.1875H107.953V26.1875H105.953V28.1875ZM104 28.1875H102V30.1875H104V28.1875ZM104 24.2812V22.2812H102V24.2812H104ZM105.953 24.2812V26.2812H107.953V24.2812H105.953ZM105.953 22.3281V20.3281H103.953V22.3281H105.953ZM115.719 22.3281H117.719V20.3281H115.719V22.3281ZM115.719 24.2812H113.719V26.2812H115.719V24.2812ZM117.672 24.2812H119.672V22.2812H117.672V24.2812ZM117.672 26.2344V28.2344H119.672V26.2344H117.672ZM113.766 26.2344H111.766V28.2344H113.766V26.2344ZM113.766 24.2812H115.766V22.2812H113.766V24.2812ZM109.859 24.2812V22.2812H107.859V24.2812H109.859ZM109.859 28.1875H107.859V30.1875H109.859V28.1875ZM115.719 28.1875H117.719V26.1875H115.719V28.1875ZM115.719 30.1406H113.719V32.1406H115.719V30.1406ZM117.672 30.1406H119.672V28.1406H117.672V30.1406ZM117.672 34.0469V36.0469H119.672V34.0469H117.672ZM115.719 34.0469V32.0469H113.719V34.0469H115.719ZM115.719 36V38H117.719V36H115.719ZM105.953 36H103.953V38H105.953V36ZM105.953 34.0469H107.953V32.0469H105.953V34.0469ZM104 34.0469H102V36.0469H104V34.0469ZM104 32.0938V34.0938H107.906V32.0938V30.0938H104V32.0938ZM107.906 32.0938H105.906V34.0469H107.906H109.906V32.0938H107.906ZM107.906 34.0469V36.0469H113.766V34.0469V32.0469H107.906V34.0469ZM113.766 34.0469H115.766V30.1406H113.766H111.766V34.0469H113.766ZM113.766 30.1406V28.1406H105.953V30.1406V32.1406H113.766V30.1406ZM105.953 30.1406H107.953V28.1875H105.953H103.953V30.1406H105.953ZM105.953 28.1875V26.1875H104V28.1875V30.1875H105.953V28.1875ZM104 28.1875H106V24.2812H104H102V28.1875H104ZM104 24.2812V26.2812H105.953V24.2812V22.2812H104V24.2812ZM105.953 24.2812H107.953V22.3281H105.953H103.953V24.2812H105.953ZM105.953 22.3281V24.3281H115.719V22.3281V20.3281H105.953V22.3281ZM115.719 22.3281H113.719V24.2812H115.719H117.719V22.3281H115.719ZM115.719 24.2812V26.2812H117.672V24.2812V22.2812H115.719V24.2812ZM117.672 24.2812H115.672V26.2344H117.672H119.672V24.2812H117.672ZM117.672 26.2344V24.2344H113.766V26.2344V28.2344H117.672V26.2344ZM113.766 26.2344H115.766V24.2812H113.766H111.766V26.2344H113.766ZM113.766 24.2812V22.2812H109.859V24.2812V26.2812H113.766V24.2812ZM109.859 24.2812H107.859V28.1875H109.859H111.859V24.2812H109.859ZM109.859 28.1875V30.1875H115.719V28.1875V26.1875H109.859V28.1875ZM115.719 28.1875H113.719V30.1406H115.719H117.719V28.1875H115.719ZM115.719 30.1406V32.1406H117.672V30.1406V28.1406H115.719V30.1406ZM117.672 30.1406H115.672V34.0469H117.672H119.672V30.1406H117.672ZM117.672 34.0469V32.0469H115.719V34.0469V36.0469H117.672V34.0469ZM115.719 34.0469H113.719V36H115.719H117.719V34.0469H115.719ZM115.719 36V34H105.953V36V38H115.719V36ZM105.953 36H107.953V34.0469H105.953H103.953V36H105.953ZM105.953 34.0469V32.0469H104V34.0469V36.0469H105.953V34.0469ZM104 34.0469H106V32.0938H104H102V34.0469H104ZM134.297 22.3281H136.297V20.3281H134.297V22.3281ZM134.297 24.2812V26.2812H136.297V24.2812H134.297ZM130.391 24.2812V22.2812H128.391V24.2812H130.391ZM130.391 36V38H132.391V36H130.391ZM124.531 36H122.531V38H124.531V36ZM124.531 24.2812H126.531V22.2812H124.531V24.2812ZM120.625 24.2812H118.625V26.2812H120.625V24.2812ZM120.625 22.3281V20.3281H118.625V22.3281H120.625ZM134.297 22.3281H132.297V24.2812H134.297H136.297V22.3281H134.297ZM134.297 24.2812V22.2812H130.391V24.2812V26.2812H134.297V24.2812ZM130.391 24.2812H128.391V36H130.391H132.391V24.2812H130.391ZM130.391 36V34H124.531V36V38H130.391V36ZM124.531 36H126.531V24.2812H124.531H122.531V36H124.531ZM124.531 24.2812V22.2812H120.625V24.2812V26.2812H124.531V24.2812ZM120.625 24.2812H122.625V22.3281H120.625H118.625V24.2812H120.625ZM120.625 22.3281V24.3281H134.297V22.3281V20.3281H120.625V22.3281ZM150.922 36V38H152.922V36H150.922ZM137.25 36H135.25V38H137.25V36ZM137.25 22.3281V20.3281H135.25V22.3281H137.25ZM150.922 22.3281H152.922V20.3281H150.922V22.3281ZM150.922 24.2812V26.2812H152.922V24.2812H150.922ZM143.109 24.2812V22.2812H141.109V24.2812H143.109ZM143.109 28.1875H141.109V30.1875H143.109V28.1875ZM148.969 28.1875H150.969V26.1875H148.969V28.1875ZM148.969 30.1406V32.1406H150.969V30.1406H148.969ZM143.109 30.1406V28.1406H141.109V30.1406H143.109ZM143.109 34.0469H141.109V36.0469H143.109V34.0469ZM150.922 34.0469H152.922V32.0469H150.922V34.0469ZM150.922 36V34H137.25V36V38H150.922V36ZM137.25 36H139.25V22.3281H137.25H135.25V36H137.25ZM137.25 22.3281V24.3281H150.922V22.3281V20.3281H137.25V22.3281ZM150.922 22.3281H148.922V24.2812H150.922H152.922V22.3281H150.922ZM150.922 24.2812V22.2812H143.109V24.2812V26.2812H150.922V24.2812ZM143.109 24.2812H141.109V28.1875H143.109H145.109V24.2812H143.109ZM143.109 28.1875V30.1875H148.969V28.1875V26.1875H143.109V28.1875ZM148.969 28.1875H146.969V30.1406H148.969H150.969V28.1875H148.969ZM148.969 30.1406V28.1406H143.109V30.1406V32.1406H148.969V30.1406ZM143.109 30.1406H141.109V34.0469H143.109H145.109V30.1406H143.109ZM143.109 34.0469V36.0469H150.922V34.0469V32.0469H143.109V34.0469ZM150.922 34.0469H148.922V36H150.922H152.922V34.0469H150.922ZM153.875 36H151.875V38H153.875V36ZM153.875 22.3281V20.3281H151.875V22.3281H153.875ZM165.594 22.3281H167.594V20.3281H165.594V22.3281ZM165.594 24.2812H163.594V26.2812H165.594V24.2812ZM167.547 24.2812H169.547V22.2812H167.547V24.2812ZM167.547 28.1875V30.1875H169.547V28.1875H167.547ZM165.594 28.1875V26.1875H163.594V28.1875H165.594ZM165.594 30.1406H163.594V32.1406H165.594V30.1406ZM167.547 30.1406H169.547V28.1406H167.547V30.1406ZM167.547 36V38H169.547V36H167.547ZM161.688 36H159.688V38H161.688V36ZM161.688 30.1406H163.688V28.1406H161.688V30.1406ZM157.791 30.1406V28.1406H155.791V30.1406H157.791ZM157.791 36V38H159.791V36H157.791ZM159.734 24.2812V22.2812H157.734V24.2812H159.734ZM159.734 28.1875H157.734V30.1875H159.734V28.1875ZM163.641 28.1875V30.1875H165.641V28.1875H163.641ZM163.641 24.2812H165.641V22.2812H163.641V24.2812ZM153.875 36H155.875V22.3281H153.875H151.875V36H153.875ZM153.875 22.3281V24.3281H165.594V22.3281V20.3281H153.875V22.3281ZM165.594 22.3281H163.594V24.2812H165.594H167.594V22.3281H165.594ZM165.594 24.2812V26.2812H167.547V24.2812V22.2812H165.594V24.2812ZM167.547 24.2812H165.547V28.1875H167.547H169.547V24.2812H167.547ZM167.547 28.1875V26.1875H165.594V28.1875V30.1875H167.547V28.1875ZM165.594 28.1875H163.594V30.1406H165.594H167.594V28.1875H165.594ZM165.594 30.1406V32.1406H167.547V30.1406V28.1406H165.594V30.1406ZM167.547 30.1406H165.547V36H167.547H169.547V30.1406H167.547ZM167.547 36V34H161.688V36V38H167.547V36ZM161.688 36H163.688V30.1406H161.688H159.688V36H161.688ZM161.688 30.1406V28.1406H157.791V30.1406V32.1406H161.688V30.1406ZM157.791 30.1406H155.791V36H157.791H159.791V30.1406H157.791ZM157.791 36V34H153.875V36V38H157.791V36ZM159.734 24.2812H157.734V28.1875H159.734H161.734V24.2812H159.734ZM159.734 28.1875V30.1875H163.641V28.1875V26.1875H159.734V28.1875ZM163.641 28.1875H165.641V24.2812H163.641H161.641V28.1875H163.641ZM163.641 24.2812V22.2812H159.734V24.2812V26.2812H163.641V24.2812ZM187.125 36H185.125V38H187.125V36ZM187.125 22.3281V20.3281H185.125V22.3281H187.125ZM198.844 22.3281H200.844V20.3281H198.844V22.3281ZM198.844 24.2812H196.844V26.2812H198.844V24.2812ZM200.797 24.2812H202.797V22.2812H200.797V24.2812ZM200.797 36V38H202.797V36H200.797ZM196.891 36H194.891V38H196.891V36ZM196.891 24.2812H198.891V22.2812H196.891V24.2812ZM192.984 24.2812V22.2812H190.983L190.984 24.2829L192.984 24.2812ZM192.994 36V38H194.996L194.994 35.9983L192.994 36ZM187.125 36H189.125V22.3281H187.125H185.125V36H187.125ZM187.125 22.3281V24.3281H198.844V22.3281V20.3281H187.125V22.3281ZM198.844 22.3281H196.844V24.2812H198.844H200.844V22.3281H198.844ZM198.844 24.2812V26.2812H200.797V24.2812V22.2812H198.844V24.2812ZM200.797 24.2812H198.797V36H200.797H202.797V24.2812H200.797ZM200.797 36V34H196.891V36V38H200.797V36ZM196.891 36H198.891V24.2812H196.891H194.891V36H196.891ZM196.891 24.2812V22.2812H192.984V24.2812V26.2812H196.891V24.2812ZM192.984 24.2812L190.984 24.2829L190.994 36.0017L192.994 36L194.994 35.9983L194.984 24.2796L192.984 24.2812ZM192.994 36V34H187.125V36V38H192.994V36ZM215.469 36V38H217.469V36H215.469ZM205.703 36H203.703V38H205.703V36ZM205.703 34.0469H207.703V32.0469H205.703V34.0469ZM203.75 34.0469H201.75V36.0469H203.75V34.0469ZM203.75 24.2812V22.2812H201.75V24.2812H203.75ZM205.703 24.2812V26.2812H207.703V24.2812H205.703ZM205.703 22.3281V20.3281H203.703V22.3281H205.703ZM215.469 22.3281H217.469V20.3281H215.469V22.3281ZM215.469 24.2812H213.469V26.2812H215.469V24.2812ZM217.422 24.2812H219.422V22.2812H217.422V24.2812ZM217.422 34.0469V36.0469H219.422V34.0469H217.422ZM215.469 34.0469V32.0469H213.469V34.0469H215.469ZM213.516 34.0469V36.0469H215.516V34.0469H213.516ZM213.516 24.2812H215.516V22.2812H213.516V24.2812ZM209.609 24.2812V22.2812H207.609V24.2812H209.609ZM209.609 34.0469H207.609V36.0469H209.609V34.0469ZM215.469 36V34H205.703V36V38H215.469V36ZM205.703 36H207.703V34.0469H205.703H203.703V36H205.703ZM205.703 34.0469V32.0469H203.75V34.0469V36.0469H205.703V34.0469ZM203.75 34.0469H205.75V24.2812H203.75H201.75V34.0469H203.75ZM203.75 24.2812V26.2812H205.703V24.2812V22.2812H203.75V24.2812ZM205.703 24.2812H207.703V22.3281H205.703H203.703V24.2812H205.703ZM205.703 22.3281V24.3281H215.469V22.3281V20.3281H205.703V22.3281ZM215.469 22.3281H213.469V24.2812H215.469H217.469V22.3281H215.469ZM215.469 24.2812V26.2812H217.422V24.2812V22.2812H215.469V24.2812ZM217.422 24.2812H215.422V34.0469H217.422H219.422V24.2812H217.422ZM217.422 34.0469V32.0469H215.469V34.0469V36.0469H217.422V34.0469ZM215.469 34.0469H213.469V36H215.469H217.469V34.0469H215.469ZM213.516 34.0469H215.516V24.2812H213.516H211.516V34.0469H213.516ZM213.516 24.2812V22.2812H209.609V24.2812V26.2812H213.516V24.2812ZM209.609 24.2812H207.609V34.0469H209.609H211.609V24.2812H209.609ZM209.609 34.0469V36.0469H213.516V34.0469V32.0469H209.609V34.0469ZM232.094 34.0469V36.0469H234.094V34.0469H232.094ZM232.094 22.3281V20.3281H230.094V22.3281H232.094ZM234.047 22.3281H236.047V20.3281H234.047V22.3281ZM234.047 34.0469V36.0469H236.047V34.0469H234.047ZM232.104 34.0469V32.0469H230.104V34.0469H232.104ZM232.104 36V38H234.104V36H232.104ZM222.328 36H220.328V38H222.328V36ZM222.328 34.0469H224.328V32.0469H222.328V34.0469ZM220.375 34.0469H218.375V36.0469H220.375V34.0469ZM220.375 22.3281V20.3281H218.375V22.3281H220.375ZM224.281 22.3281H226.281V20.3281H224.281V22.3281ZM224.281 34.0469H222.281V36.0469H224.281V34.0469ZM226.234 34.0469V36.0469H228.234V34.0469H226.234ZM226.234 22.3281V20.3281H224.234V22.3281H226.234ZM230.141 22.3281H232.141V20.3281H230.141V22.3281ZM230.141 34.0469H228.141V36.0469H230.141V34.0469ZM232.094 34.0469H234.094V22.3281H232.094H230.094V34.0469H232.094ZM232.094 22.3281V24.3281H234.047V22.3281V20.3281H232.094V22.3281ZM234.047 22.3281H232.047V34.0469H234.047H236.047V22.3281H234.047ZM234.047 34.0469V32.0469H232.104V34.0469V36.0469H234.047V34.0469ZM232.104 34.0469H230.104V36H232.104H234.104V34.0469H232.104ZM232.104 36V34H222.328V36V38H232.104V36ZM222.328 36H224.328V34.0469H222.328H220.328V36H222.328ZM222.328 34.0469V32.0469H220.375V34.0469V36.0469H222.328V34.0469ZM220.375 34.0469H222.375V22.3281H220.375H218.375V34.0469H220.375ZM220.375 22.3281V24.3281H224.281V22.3281V20.3281H220.375V22.3281ZM224.281 22.3281H222.281V34.0469H224.281H226.281V22.3281H224.281ZM224.281 34.0469V36.0469H226.234V34.0469V32.0469H224.281V34.0469ZM226.234 34.0469H228.234V22.3281H226.234H224.234V34.0469H226.234ZM226.234 22.3281V24.3281H230.141V22.3281V20.3281H226.234V22.3281ZM230.141 22.3281H228.141V34.0469H230.141H232.141V22.3281H230.141ZM230.141 34.0469V36.0469H232.094V34.0469V32.0469H230.141V34.0469Z" fill="#270300" mask="url(#path-10-outside-1_115_3242)"/>
</g>
</g>
<defs>
<filter id="filter0_d_115_3242" x="0" y="0" width="275" height="64.5122" filterUnits="userSpaceOnUse" color-interpolation-filters="sRGB">
<feFlood flood-opacity="0" result="BackgroundImageFix"/>
<feColorMatrix in="SourceAlpha" type="matrix" values="0 0 0 0 0 0 0 0 0 0 0 0 0 0 0 0 0 0 127 0" result="hardAlpha"/>
<feOffset dy="4.5122"/>
<feComposite in2="hardAlpha" operator="out"/>
<feColorMatrix type="matrix" values="0 0 0 0 0.4 0 0 0 0 0.294118 0 0 0 0 0 0 0 0 1 0"/>
<feBlend mode="normal" in2="BackgroundImageFix" result="effect1_dropShadow_115_3242"/>
<feBlend mode="normal" in="SourceGraphic" in2="effect1_dropShadow_115_3242" result="shape"/>
</filter>
<filter id="filter1_d_115_3242" x="35.5" y="20.3281" width="200.547" height="19.6719" filterUnits="userSpaceOnUse" color-interpolation-filters="sRGB">
<feFlood flood-opacity="0" result="BackgroundImageFix"/>
<feColorMatrix in="SourceAlpha" type="matrix" values="0 0 0 0 0 0 0 0 0 0 0 0 0 0 0 0 0 0 127 0" result="hardAlpha"/>
<feOffset dy="2"/>
<feComposite in2="hardAlpha" operator="out"/>
<feColorMatrix type="matrix" values="0 0 0 0 0.686275 0 0 0 0 0.47451 0 0 0 0 0.137255 0 0 0 1 0"/>
<feBlend mode="normal" in2="BackgroundImageFix" result="effect1_dropShadow_115_3242"/>
<feBlend mode="normal" in="SourceGraphic" in2="effect1_dropShadow_115_3242" result="shape"/>
</filter>
</defs>
</svg>
