<svg width="176" height="44" viewBox="0 0 176 44" fill="none" xmlns="http://www.w3.org/2000/svg">
<g filter="url(#filter0_dd_83_77)">
<path d="M8.01372 5.7V2.5H170.523V4.1H174V36.1H170.523V38.5H8.01372V34.7667H5V5.7H8.01372Z" fill="#FFE14C"/>
<path d="M8.01372 5.7V2.5H170.523V4.1H174V36.1H170.523V38.5H8.01372V34.7667H5V5.7H8.01372Z" stroke="#C99810" stroke-width="3"/>
</g>
<g filter="url(#filter1_d_83_77)">
<mask id="path-2-outside-1_83_77" maskUnits="userSpaceOnUse" x="17" y="13.6304" width="142" height="14" fill="black">
<rect fill="white" x="17" y="13.6304" width="142" height="14"/>
<path d="M19.025 25.6304V16.0601H27.2281V17.4273H28.5953V20.1617H27.2281V21.5289H28.5953V25.6304H24.4938V21.5289H21.7662V25.6304H19.025ZM23.1266 17.4273V20.1617H25.8609V17.4273H23.1266ZM40.2328 25.6304H30.6625V16.0601H40.2328V17.4273H34.7641V20.1617H38.8656V21.5289H34.7641V24.2632H40.2328V25.6304ZM51.8703 20.1617V24.2632H50.5031V25.6304H43.6672V24.2632H42.3V17.4273H43.6672V16.0601H50.51V17.4273H51.8703V18.7945H50.5031V17.4273H46.4016V24.2632H49.1359V21.5289H47.7688L47.7756 20.1617H51.8703ZM62.1406 16.0601V17.4273H60.7734V24.2632H62.1406V25.6304H55.3047V24.2632H56.6719V17.4273H55.3047V16.0601H62.1406ZM65.575 22.8961H68.3094V24.2632H72.4109V21.5289H66.9422V20.1617H65.575V17.4273H66.9422V16.0601H73.7781V17.4273H75.1453V18.7945H72.4109V17.4273H69.6766V20.1617H73.7781V21.5289H75.1453V24.2632H73.7781V25.6304H66.9422V24.2632H65.575V22.8961ZM86.7828 16.0601V17.4273H84.0484V25.6304H79.9469V17.4273H77.2125V16.0601H86.7828ZM98.4203 25.6304H88.85V16.0601H98.4203V17.4273H92.9516V20.1617H97.0531V21.5289H92.9516V24.2632H98.4203V25.6304ZM100.488 25.6304V16.0601H108.691V17.4273H110.058V20.1617H108.691V21.5289H110.058V25.6304H105.956V21.5289H103.229V25.6304H100.488ZM104.589 17.4273V20.1617H107.323V17.4273H104.589ZM123.763 25.6304V16.0601H131.966V17.4273H133.333V25.6304H130.598V17.4273H127.864L127.871 25.6304H123.763ZM143.603 25.6304H136.767V24.2632H135.4V17.4273H136.767V16.0601H143.603V17.4273H144.97V24.2632H143.603V25.6304ZM142.236 24.2632V17.4273H139.502V24.2632H142.236ZM155.241 24.2632V16.0601H156.608V24.2632H155.247V25.6304H148.405V24.2632H147.038V16.0601H149.772V24.2632H151.139V16.0601H153.873V24.2632H155.241Z"/>
</mask>
<path d="M19.025 25.6304V16.0601H27.2281V17.4273H28.5953V20.1617H27.2281V21.5289H28.5953V25.6304H24.4938V21.5289H21.7662V25.6304H19.025ZM23.1266 17.4273V20.1617H25.8609V17.4273H23.1266ZM40.2328 25.6304H30.6625V16.0601H40.2328V17.4273H34.7641V20.1617H38.8656V21.5289H34.7641V24.2632H40.2328V25.6304ZM51.8703 20.1617V24.2632H50.5031V25.6304H43.6672V24.2632H42.3V17.4273H43.6672V16.0601H50.51V17.4273H51.8703V18.7945H50.5031V17.4273H46.4016V24.2632H49.1359V21.5289H47.7688L47.7756 20.1617H51.8703ZM62.1406 16.0601V17.4273H60.7734V24.2632H62.1406V25.6304H55.3047V24.2632H56.6719V17.4273H55.3047V16.0601H62.1406ZM65.575 22.8961H68.3094V24.2632H72.4109V21.5289H66.9422V20.1617H65.575V17.4273H66.9422V16.0601H73.7781V17.4273H75.1453V18.7945H72.4109V17.4273H69.6766V20.1617H73.7781V21.5289H75.1453V24.2632H73.7781V25.6304H66.9422V24.2632H65.575V22.8961ZM86.7828 16.0601V17.4273H84.0484V25.6304H79.9469V17.4273H77.2125V16.0601H86.7828ZM98.4203 25.6304H88.85V16.0601H98.4203V17.4273H92.9516V20.1617H97.0531V21.5289H92.9516V24.2632H98.4203V25.6304ZM100.488 25.6304V16.0601H108.691V17.4273H110.058V20.1617H108.691V21.5289H110.058V25.6304H105.956V21.5289H103.229V25.6304H100.488ZM104.589 17.4273V20.1617H107.323V17.4273H104.589ZM123.763 25.6304V16.0601H131.966V17.4273H133.333V25.6304H130.598V17.4273H127.864L127.871 25.6304H123.763ZM143.603 25.6304H136.767V24.2632H135.4V17.4273H136.767V16.0601H143.603V17.4273H144.97V24.2632H143.603V25.6304ZM142.236 24.2632V17.4273H139.502V24.2632H142.236ZM155.241 24.2632V16.0601H156.608V24.2632H155.247V25.6304H148.405V24.2632H147.038V16.0601H149.772V24.2632H151.139V16.0601H153.873V24.2632H155.241Z" fill="white"/>
<path d="M19.025 25.6304H17.525V27.1304H19.025V25.6304ZM19.025 16.0601V14.5601H17.525V16.0601H19.025ZM27.2281 16.0601H28.7281V14.5601H27.2281V16.0601ZM27.2281 17.4273H25.7281V18.9273H27.2281V17.4273ZM28.5953 17.4273H30.0953V15.9273H28.5953V17.4273ZM28.5953 20.1617V21.6617H30.0953V20.1617H28.5953ZM27.2281 20.1617V18.6617H25.7281V20.1617H27.2281ZM27.2281 21.5289H25.7281V23.0289H27.2281V21.5289ZM28.5953 21.5289H30.0953V20.0289H28.5953V21.5289ZM28.5953 25.6304V27.1304H30.0953V25.6304H28.5953ZM24.4938 25.6304H22.9938V27.1304H24.4938V25.6304ZM24.4938 21.5289H25.9938V20.0289H24.4938V21.5289ZM21.7662 21.5289V20.0289H20.2662V21.5289H21.7662ZM21.7662 25.6304V27.1304H23.2662V25.6304H21.7662ZM23.1266 17.4273V15.9273H21.6266V17.4273H23.1266ZM23.1266 20.1617H21.6266V21.6617H23.1266V20.1617ZM25.8609 20.1617V21.6617H27.3609V20.1617H25.8609ZM25.8609 17.4273H27.3609V15.9273H25.8609V17.4273ZM19.025 25.6304H20.525V16.0601H19.025H17.525V25.6304H19.025ZM19.025 16.0601V17.5601H27.2281V16.0601V14.5601H19.025V16.0601ZM27.2281 16.0601H25.7281V17.4273H27.2281H28.7281V16.0601H27.2281ZM27.2281 17.4273V18.9273H28.5953V17.4273V15.9273H27.2281V17.4273ZM28.5953 17.4273H27.0953V20.1617H28.5953H30.0953V17.4273H28.5953ZM28.5953 20.1617V18.6617H27.2281V20.1617V21.6617H28.5953V20.1617ZM27.2281 20.1617H25.7281V21.5289H27.2281H28.7281V20.1617H27.2281ZM27.2281 21.5289V23.0289H28.5953V21.5289V20.0289H27.2281V21.5289ZM28.5953 21.5289H27.0953V25.6304H28.5953H30.0953V21.5289H28.5953ZM28.5953 25.6304V24.1304H24.4938V25.6304V27.1304H28.5953V25.6304ZM24.4938 25.6304H25.9938V21.5289H24.4938H22.9938V25.6304H24.4938ZM24.4938 21.5289V20.0289H21.7662V21.5289V23.0289H24.4938V21.5289ZM21.7662 21.5289H20.2662V25.6304H21.7662H23.2662V21.5289H21.7662ZM21.7662 25.6304V24.1304H19.025V25.6304V27.1304H21.7662V25.6304ZM23.1266 17.4273H21.6266V20.1617H23.1266H24.6266V17.4273H23.1266ZM23.1266 20.1617V21.6617H25.8609V20.1617V18.6617H23.1266V20.1617ZM25.8609 20.1617H27.3609V17.4273H25.8609H24.3609V20.1617H25.8609ZM25.8609 17.4273V15.9273H23.1266V17.4273V18.9273H25.8609V17.4273ZM40.2328 25.6304V27.1304H41.7328V25.6304H40.2328ZM30.6625 25.6304H29.1625V27.1304H30.6625V25.6304ZM30.6625 16.0601V14.5601H29.1625V16.0601H30.6625ZM40.2328 16.0601H41.7328V14.5601H40.2328V16.0601ZM40.2328 17.4273V18.9273H41.7328V17.4273H40.2328ZM34.7641 17.4273V15.9273H33.2641V17.4273H34.7641ZM34.7641 20.1617H33.2641V21.6617H34.7641V20.1617ZM38.8656 20.1617H40.3656V18.6617H38.8656V20.1617ZM38.8656 21.5289V23.0289H40.3656V21.5289H38.8656ZM34.7641 21.5289V20.0289H33.2641V21.5289H34.7641ZM34.7641 24.2632H33.2641V25.7632H34.7641V24.2632ZM40.2328 24.2632H41.7328V22.7632H40.2328V24.2632ZM40.2328 25.6304V24.1304H30.6625V25.6304V27.1304H40.2328V25.6304ZM30.6625 25.6304H32.1625V16.0601H30.6625H29.1625V25.6304H30.6625ZM30.6625 16.0601V17.5601H40.2328V16.0601V14.5601H30.6625V16.0601ZM40.2328 16.0601H38.7328V17.4273H40.2328H41.7328V16.0601H40.2328ZM40.2328 17.4273V15.9273H34.7641V17.4273V18.9273H40.2328V17.4273ZM34.7641 17.4273H33.2641V20.1617H34.7641H36.2641V17.4273H34.7641ZM34.7641 20.1617V21.6617H38.8656V20.1617V18.6617H34.7641V20.1617ZM38.8656 20.1617H37.3656V21.5289H38.8656H40.3656V20.1617H38.8656ZM38.8656 21.5289V20.0289H34.7641V21.5289V23.0289H38.8656V21.5289ZM34.7641 21.5289H33.2641V24.2632H34.7641H36.2641V21.5289H34.7641ZM34.7641 24.2632V25.7632H40.2328V24.2632V22.7632H34.7641V24.2632ZM40.2328 24.2632H38.7328V25.6304H40.2328H41.7328V24.2632H40.2328ZM51.8703 20.1617H53.3703V18.6617H51.8703V20.1617ZM51.8703 24.2632V25.7632H53.3703V24.2632H51.8703ZM50.5031 24.2632V22.7632H49.0031V24.2632H50.5031ZM50.5031 25.6304V27.1304H52.0031V25.6304H50.5031ZM43.6672 25.6304H42.1672V27.1304H43.6672V25.6304ZM43.6672 24.2632H45.1672V22.7632H43.6672V24.2632ZM42.3 24.2632H40.8V25.7632H42.3V24.2632ZM42.3 17.4273V15.9273H40.8V17.4273H42.3ZM43.6672 17.4273V18.9273H45.1672V17.4273H43.6672ZM43.6672 16.0601V14.5601H42.1672V16.0601H43.6672ZM50.51 16.0601H52.01V14.5601H50.51V16.0601ZM50.51 17.4273H49.01V18.9273H50.51V17.4273ZM51.8703 17.4273H53.3703V15.9273H51.8703V17.4273ZM51.8703 18.7945V20.2945H53.3703V18.7945H51.8703ZM50.5031 18.7945H49.0031V20.2945H50.5031V18.7945ZM50.5031 17.4273H52.0031V15.9273H50.5031V17.4273ZM46.4016 17.4273V15.9273H44.9016V17.4273H46.4016ZM46.4016 24.2632H44.9016V25.7632H46.4016V24.2632ZM49.1359 24.2632V25.7632H50.6359V24.2632H49.1359ZM49.1359 21.5289H50.6359V20.0289H49.1359V21.5289ZM47.7688 21.5289L46.2688 21.5214L46.2612 23.0289H47.7688V21.5289ZM47.7756 20.1617V18.6617H46.2831L46.2756 20.1542L47.7756 20.1617ZM51.8703 20.1617H50.3703V24.2632H51.8703H53.3703V20.1617H51.8703ZM51.8703 24.2632V22.7632H50.5031V24.2632V25.7632H51.8703V24.2632ZM50.5031 24.2632H49.0031V25.6304H50.5031H52.0031V24.2632H50.5031ZM50.5031 25.6304V24.1304H43.6672V25.6304V27.1304H50.5031V25.6304ZM43.6672 25.6304H45.1672V24.2632H43.6672H42.1672V25.6304H43.6672ZM43.6672 24.2632V22.7632H42.3V24.2632V25.7632H43.6672V24.2632ZM42.3 24.2632H43.8V17.4273H42.3H40.8V24.2632H42.3ZM42.3 17.4273V18.9273H43.6672V17.4273V15.9273H42.3V17.4273ZM43.6672 17.4273H45.1672V16.0601H43.6672H42.1672V17.4273H43.6672ZM43.6672 16.0601V17.5601H50.51V16.0601V14.5601H43.6672V16.0601ZM50.51 16.0601H49.01V17.4273H50.51H52.01V16.0601H50.51ZM50.51 17.4273V18.9273H51.8703V17.4273V15.9273H50.51V17.4273ZM51.8703 17.4273H50.3703V18.7945H51.8703H53.3703V17.4273H51.8703ZM51.8703 18.7945V17.2945H50.5031V18.7945V20.2945H51.8703V18.7945ZM50.5031 18.7945H52.0031V17.4273H50.5031H49.0031V18.7945H50.5031ZM50.5031 17.4273V15.9273H46.4016V17.4273V18.9273H50.5031V17.4273ZM46.4016 17.4273H44.9016V24.2632H46.4016H47.9016V17.4273H46.4016ZM46.4016 24.2632V25.7632H49.1359V24.2632V22.7632H46.4016V24.2632ZM49.1359 24.2632H50.6359V21.5289H49.1359H47.6359V24.2632H49.1359ZM49.1359 21.5289V20.0289H47.7688V21.5289V23.0289H49.1359V21.5289ZM47.7688 21.5289L49.2687 21.5364L49.2756 20.1692L47.7756 20.1617L46.2756 20.1542L46.2688 21.5214L47.7688 21.5289ZM47.7756 20.1617V21.6617H51.8703V20.1617V18.6617H47.7756V20.1617ZM62.1406 16.0601H63.6406V14.5601H62.1406V16.0601ZM62.1406 17.4273V18.9273H63.6406V17.4273H62.1406ZM60.7734 17.4273V15.9273H59.2734V17.4273H60.7734ZM60.7734 24.2632H59.2734V25.7632H60.7734V24.2632ZM62.1406 24.2632H63.6406V22.7632H62.1406V24.2632ZM62.1406 25.6304V27.1304H63.6406V25.6304H62.1406ZM55.3047 25.6304H53.8047V27.1304H55.3047V25.6304ZM55.3047 24.2632V22.7632H53.8047V24.2632H55.3047ZM56.6719 24.2632V25.7632H58.1719V24.2632H56.6719ZM56.6719 17.4273H58.1719V15.9273H56.6719V17.4273ZM55.3047 17.4273H53.8047V18.9273H55.3047V17.4273ZM55.3047 16.0601V14.5601H53.8047V16.0601H55.3047ZM62.1406 16.0601H60.6406V17.4273H62.1406H63.6406V16.0601H62.1406ZM62.1406 17.4273V15.9273H60.7734V17.4273V18.9273H62.1406V17.4273ZM60.7734 17.4273H59.2734V24.2632H60.7734H62.2734V17.4273H60.7734ZM60.7734 24.2632V25.7632H62.1406V24.2632V22.7632H60.7734V24.2632ZM62.1406 24.2632H60.6406V25.6304H62.1406H63.6406V24.2632H62.1406ZM62.1406 25.6304V24.1304H55.3047V25.6304V27.1304H62.1406V25.6304ZM55.3047 25.6304H56.8047V24.2632H55.3047H53.8047V25.6304H55.3047ZM55.3047 24.2632V25.7632H56.6719V24.2632V22.7632H55.3047V24.2632ZM56.6719 24.2632H58.1719V17.4273H56.6719H55.1719V24.2632H56.6719ZM56.6719 17.4273V15.9273H55.3047V17.4273V18.9273H56.6719V17.4273ZM55.3047 17.4273H56.8047V16.0601H55.3047H53.8047V17.4273H55.3047ZM55.3047 16.0601V17.5601H62.1406V16.0601V14.5601H55.3047V16.0601ZM65.575 22.8961V21.3961H64.075V22.8961H65.575ZM68.3094 22.8961H69.8094V21.3961H68.3094V22.8961ZM68.3094 24.2632H66.8094V25.7632H68.3094V24.2632ZM72.4109 24.2632V25.7632H73.9109V24.2632H72.4109ZM72.4109 21.5289H73.9109V20.0289H72.4109V21.5289ZM66.9422 21.5289H65.4422V23.0289H66.9422V21.5289ZM66.9422 20.1617H68.4422V18.6617H66.9422V20.1617ZM65.575 20.1617H64.075V21.6617H65.575V20.1617ZM65.575 17.4273V15.9273H64.075V17.4273H65.575ZM66.9422 17.4273V18.9273H68.4422V17.4273H66.9422ZM66.9422 16.0601V14.5601H65.4422V16.0601H66.9422ZM73.7781 16.0601H75.2781V14.5601H73.7781V16.0601ZM73.7781 17.4273H72.2781V18.9273H73.7781V17.4273ZM75.1453 17.4273H76.6453V15.9273H75.1453V17.4273ZM75.1453 18.7945V20.2945H76.6453V18.7945H75.1453ZM72.4109 18.7945H70.9109V20.2945H72.4109V18.7945ZM72.4109 17.4273H73.9109V15.9273H72.4109V17.4273ZM69.6766 17.4273V15.9273H68.1766V17.4273H69.6766ZM69.6766 20.1617H68.1766V21.6617H69.6766V20.1617ZM73.7781 20.1617H75.2781V18.6617H73.7781V20.1617ZM73.7781 21.5289H72.2781V23.0289H73.7781V21.5289ZM75.1453 21.5289H76.6453V20.0289H75.1453V21.5289ZM75.1453 24.2632V25.7632H76.6453V24.2632H75.1453ZM73.7781 24.2632V22.7632H72.2781V24.2632H73.7781ZM73.7781 25.6304V27.1304H75.2781V25.6304H73.7781ZM66.9422 25.6304H65.4422V27.1304H66.9422V25.6304ZM66.9422 24.2632H68.4422V22.7632H66.9422V24.2632ZM65.575 24.2632H64.075V25.7632H65.575V24.2632ZM65.575 22.8961V24.3961H68.3094V22.8961V21.3961H65.575V22.8961ZM68.3094 22.8961H66.8094V24.2632H68.3094H69.8094V22.8961H68.3094ZM68.3094 24.2632V25.7632H72.4109V24.2632V22.7632H68.3094V24.2632ZM72.4109 24.2632H73.9109V21.5289H72.4109H70.9109V24.2632H72.4109ZM72.4109 21.5289V20.0289H66.9422V21.5289V23.0289H72.4109V21.5289ZM66.9422 21.5289H68.4422V20.1617H66.9422H65.4422V21.5289H66.9422ZM66.9422 20.1617V18.6617H65.575V20.1617V21.6617H66.9422V20.1617ZM65.575 20.1617H67.075V17.4273H65.575H64.075V20.1617H65.575ZM65.575 17.4273V18.9273H66.9422V17.4273V15.9273H65.575V17.4273ZM66.9422 17.4273H68.4422V16.0601H66.9422H65.4422V17.4273H66.9422ZM66.9422 16.0601V17.5601H73.7781V16.0601V14.5601H66.9422V16.0601ZM73.7781 16.0601H72.2781V17.4273H73.7781H75.2781V16.0601H73.7781ZM73.7781 17.4273V18.9273H75.1453V17.4273V15.9273H73.7781V17.4273ZM75.1453 17.4273H73.6453V18.7945H75.1453H76.6453V17.4273H75.1453ZM75.1453 18.7945V17.2945H72.4109V18.7945V20.2945H75.1453V18.7945ZM72.4109 18.7945H73.9109V17.4273H72.4109H70.9109V18.7945H72.4109ZM72.4109 17.4273V15.9273H69.6766V17.4273V18.9273H72.4109V17.4273ZM69.6766 17.4273H68.1766V20.1617H69.6766H71.1766V17.4273H69.6766ZM69.6766 20.1617V21.6617H73.7781V20.1617V18.6617H69.6766V20.1617ZM73.7781 20.1617H72.2781V21.5289H73.7781H75.2781V20.1617H73.7781ZM73.7781 21.5289V23.0289H75.1453V21.5289V20.0289H73.7781V21.5289ZM75.1453 21.5289H73.6453V24.2632H75.1453H76.6453V21.5289H75.1453ZM75.1453 24.2632V22.7632H73.7781V24.2632V25.7632H75.1453V24.2632ZM73.7781 24.2632H72.2781V25.6304H73.7781H75.2781V24.2632H73.7781ZM73.7781 25.6304V24.1304H66.9422V25.6304V27.1304H73.7781V25.6304ZM66.9422 25.6304H68.4422V24.2632H66.9422H65.4422V25.6304H66.9422ZM66.9422 24.2632V22.7632H65.575V24.2632V25.7632H66.9422V24.2632ZM65.575 24.2632H67.075V22.8961H65.575H64.075V24.2632H65.575ZM86.7828 16.0601H88.2828V14.5601H86.7828V16.0601ZM86.7828 17.4273V18.9273H88.2828V17.4273H86.7828ZM84.0484 17.4273V15.9273H82.5484V17.4273H84.0484ZM84.0484 25.6304V27.1304H85.5484V25.6304H84.0484ZM79.9469 25.6304H78.4469V27.1304H79.9469V25.6304ZM79.9469 17.4273H81.4469V15.9273H79.9469V17.4273ZM77.2125 17.4273H75.7125V18.9273H77.2125V17.4273ZM77.2125 16.0601V14.5601H75.7125V16.0601H77.2125ZM86.7828 16.0601H85.2828V17.4273H86.7828H88.2828V16.0601H86.7828ZM86.7828 17.4273V15.9273H84.0484V17.4273V18.9273H86.7828V17.4273ZM84.0484 17.4273H82.5484V25.6304H84.0484H85.5484V17.4273H84.0484ZM84.0484 25.6304V24.1304H79.9469V25.6304V27.1304H84.0484V25.6304ZM79.9469 25.6304H81.4469V17.4273H79.9469H78.4469V25.6304H79.9469ZM79.9469 17.4273V15.9273H77.2125V17.4273V18.9273H79.9469V17.4273ZM77.2125 17.4273H78.7125V16.0601H77.2125H75.7125V17.4273H77.2125ZM77.2125 16.0601V17.5601H86.7828V16.0601V14.5601H77.2125V16.0601ZM98.4203 25.6304V27.1304H99.9203V25.6304H98.4203ZM88.85 25.6304H87.35V27.1304H88.85V25.6304ZM88.85 16.0601V14.5601H87.35V16.0601H88.85ZM98.4203 16.0601H99.9203V14.5601H98.4203V16.0601ZM98.4203 17.4273V18.9273H99.9203V17.4273H98.4203ZM92.9516 17.4273V15.9273H91.4516V17.4273H92.9516ZM92.9516 20.1617H91.4516V21.6617H92.9516V20.1617ZM97.0531 20.1617H98.5531V18.6617H97.0531V20.1617ZM97.0531 21.5289V23.0289H98.5531V21.5289H97.0531ZM92.9516 21.5289V20.0289H91.4516V21.5289H92.9516ZM92.9516 24.2632H91.4516V25.7632H92.9516V24.2632ZM98.4203 24.2632H99.9203V22.7632H98.4203V24.2632ZM98.4203 25.6304V24.1304H88.85V25.6304V27.1304H98.4203V25.6304ZM88.85 25.6304H90.35V16.0601H88.85H87.35V25.6304H88.85ZM88.85 16.0601V17.5601H98.4203V16.0601V14.5601H88.85V16.0601ZM98.4203 16.0601H96.9203V17.4273H98.4203H99.9203V16.0601H98.4203ZM98.4203 17.4273V15.9273H92.9516V17.4273V18.9273H98.4203V17.4273ZM92.9516 17.4273H91.4516V20.1617H92.9516H94.4516V17.4273H92.9516ZM92.9516 20.1617V21.6617H97.0531V20.1617V18.6617H92.9516V20.1617ZM97.0531 20.1617H95.5531V21.5289H97.0531H98.5531V20.1617H97.0531ZM97.0531 21.5289V20.0289H92.9516V21.5289V23.0289H97.0531V21.5289ZM92.9516 21.5289H91.4516V24.2632H92.9516H94.4516V21.5289H92.9516ZM92.9516 24.2632V25.7632H98.4203V24.2632V22.7632H92.9516V24.2632ZM98.4203 24.2632H96.9203V25.6304H98.4203H99.9203V24.2632H98.4203ZM100.488 25.6304H98.9875V27.1304H100.488V25.6304ZM100.488 16.0601V14.5601H98.9875V16.0601H100.488ZM108.691 16.0601H110.191V14.5601H108.691V16.0601ZM108.691 17.4273H107.191V18.9273H108.691V17.4273ZM110.058 17.4273H111.558V15.9273H110.058V17.4273ZM110.058 20.1617V21.6617H111.558V20.1617H110.058ZM108.691 20.1617V18.6617H107.191V20.1617H108.691ZM108.691 21.5289H107.191V23.0289H108.691V21.5289ZM110.058 21.5289H111.558V20.0289H110.058V21.5289ZM110.058 25.6304V27.1304H111.558V25.6304H110.058ZM105.956 25.6304H104.456V27.1304H105.956V25.6304ZM105.956 21.5289H107.456V20.0289H105.956V21.5289ZM103.229 21.5289V20.0289H101.729V21.5289H103.229ZM103.229 25.6304V27.1304H104.729V25.6304H103.229ZM104.589 17.4273V15.9273H103.089V17.4273H104.589ZM104.589 20.1617H103.089V21.6617H104.589V20.1617ZM107.323 20.1617V21.6617H108.823V20.1617H107.323ZM107.323 17.4273H108.823V15.9273H107.323V17.4273ZM100.488 25.6304H101.988V16.0601H100.488H98.9875V25.6304H100.488ZM100.488 16.0601V17.5601H108.691V16.0601V14.5601H100.488V16.0601ZM108.691 16.0601H107.191V17.4273H108.691H110.191V16.0601H108.691ZM108.691 17.4273V18.9273H110.058V17.4273V15.9273H108.691V17.4273ZM110.058 17.4273H108.558V20.1617H110.058H111.558V17.4273H110.058ZM110.058 20.1617V18.6617H108.691V20.1617V21.6617H110.058V20.1617ZM108.691 20.1617H107.191V21.5289H108.691H110.191V20.1617H108.691ZM108.691 21.5289V23.0289H110.058V21.5289V20.0289H108.691V21.5289ZM110.058 21.5289H108.558V25.6304H110.058H111.558V21.5289H110.058ZM110.058 25.6304V24.1304H105.956V25.6304V27.1304H110.058V25.6304ZM105.956 25.6304H107.456V21.5289H105.956H104.456V25.6304H105.956ZM105.956 21.5289V20.0289H103.229V21.5289V23.0289H105.956V21.5289ZM103.229 21.5289H101.729V25.6304H103.229H104.729V21.5289H103.229ZM103.229 25.6304V24.1304H100.488V25.6304V27.1304H103.229V25.6304ZM104.589 17.4273H103.089V20.1617H104.589H106.089V17.4273H104.589ZM104.589 20.1617V21.6617H107.323V20.1617V18.6617H104.589V20.1617ZM107.323 20.1617H108.823V17.4273H107.323H105.823V20.1617H107.323ZM107.323 17.4273V15.9273H104.589V17.4273V18.9273H107.323V17.4273ZM123.763 25.6304H122.263V27.1304H123.763V25.6304ZM123.763 16.0601V14.5601H122.263V16.0601H123.763ZM131.966 16.0601H133.466V14.5601H131.966V16.0601ZM131.966 17.4273H130.466V18.9273H131.966V17.4273ZM133.333 17.4273H134.833V15.9273H133.333V17.4273ZM133.333 25.6304V27.1304H134.833V25.6304H133.333ZM130.598 25.6304H129.098V27.1304H130.598V25.6304ZM130.598 17.4273H132.098V15.9273H130.598V17.4273ZM127.864 17.4273V15.9273H126.363L126.364 17.4286L127.864 17.4273ZM127.871 25.6304V27.1304H129.372L129.371 25.6292L127.871 25.6304ZM123.763 25.6304H125.263V16.0601H123.763H122.263V25.6304H123.763ZM123.763 16.0601V17.5601H131.966V16.0601V14.5601H123.763V16.0601ZM131.966 16.0601H130.466V17.4273H131.966H133.466V16.0601H131.966ZM131.966 17.4273V18.9273H133.333V17.4273V15.9273H131.966V17.4273ZM133.333 17.4273H131.833V25.6304H133.333H134.833V17.4273H133.333ZM133.333 25.6304V24.1304H130.598V25.6304V27.1304H133.333V25.6304ZM130.598 25.6304H132.098V17.4273H130.598H129.098V25.6304H130.598ZM130.598 17.4273V15.9273H127.864V17.4273V18.9273H130.598V17.4273ZM127.864 17.4273L126.364 17.4286L126.371 25.6317L127.871 25.6304L129.371 25.6292L129.364 17.4261L127.864 17.4273ZM127.871 25.6304V24.1304H123.763V25.6304V27.1304H127.871V25.6304ZM143.603 25.6304V27.1304H145.103V25.6304H143.603ZM136.767 25.6304H135.267V27.1304H136.767V25.6304ZM136.767 24.2632H138.267V22.7632H136.767V24.2632ZM135.4 24.2632H133.9V25.7632H135.4V24.2632ZM135.4 17.4273V15.9273H133.9V17.4273H135.4ZM136.767 17.4273V18.9273H138.267V17.4273H136.767ZM136.767 16.0601V14.5601H135.267V16.0601H136.767ZM143.603 16.0601H145.103V14.5601H143.603V16.0601ZM143.603 17.4273H142.103V18.9273H143.603V17.4273ZM144.97 17.4273H146.47V15.9273H144.97V17.4273ZM144.97 24.2632V25.7632H146.47V24.2632H144.97ZM143.603 24.2632V22.7632H142.103V24.2632H143.603ZM142.236 24.2632V25.7632H143.736V24.2632H142.236ZM142.236 17.4273H143.736V15.9273H142.236V17.4273ZM139.502 17.4273V15.9273H138.002V17.4273H139.502ZM139.502 24.2632H138.002V25.7632H139.502V24.2632ZM143.603 25.6304V24.1304H136.767V25.6304V27.1304H143.603V25.6304ZM136.767 25.6304H138.267V24.2632H136.767H135.267V25.6304H136.767ZM136.767 24.2632V22.7632H135.4V24.2632V25.7632H136.767V24.2632ZM135.4 24.2632H136.9V17.4273H135.4H133.9V24.2632H135.4ZM135.4 17.4273V18.9273H136.767V17.4273V15.9273H135.4V17.4273ZM136.767 17.4273H138.267V16.0601H136.767H135.267V17.4273H136.767ZM136.767 16.0601V17.5601H143.603V16.0601V14.5601H136.767V16.0601ZM143.603 16.0601H142.103V17.4273H143.603H145.103V16.0601H143.603ZM143.603 17.4273V18.9273H144.97V17.4273V15.9273H143.603V17.4273ZM144.97 17.4273H143.47V24.2632H144.97H146.47V17.4273H144.97ZM144.97 24.2632V22.7632H143.603V24.2632V25.7632H144.97V24.2632ZM143.603 24.2632H142.103V25.6304H143.603H145.103V24.2632H143.603ZM142.236 24.2632H143.736V17.4273H142.236H140.736V24.2632H142.236ZM142.236 17.4273V15.9273H139.502V17.4273V18.9273H142.236V17.4273ZM139.502 17.4273H138.002V24.2632H139.502H141.002V17.4273H139.502ZM139.502 24.2632V25.7632H142.236V24.2632V22.7632H139.502V24.2632ZM155.241 24.2632V25.7632H156.741V24.2632H155.241ZM155.241 16.0601V14.5601H153.741V16.0601H155.241ZM156.608 16.0601H158.108V14.5601H156.608V16.0601ZM156.608 24.2632V25.7632H158.108V24.2632H156.608ZM155.247 24.2632V22.7632H153.747V24.2632H155.247ZM155.247 25.6304V27.1304H156.747V25.6304H155.247ZM148.405 25.6304H146.905V27.1304H148.405V25.6304ZM148.405 24.2632H149.905V22.7632H148.405V24.2632ZM147.038 24.2632H145.538V25.7632H147.038V24.2632ZM147.038 16.0601V14.5601H145.538V16.0601H147.038ZM149.772 16.0601H151.272V14.5601H149.772V16.0601ZM149.772 24.2632H148.272V25.7632H149.772V24.2632ZM151.139 24.2632V25.7632H152.639V24.2632H151.139ZM151.139 16.0601V14.5601H149.639V16.0601H151.139ZM153.873 16.0601H155.373V14.5601H153.873V16.0601ZM153.873 24.2632H152.373V25.7632H153.873V24.2632ZM155.241 24.2632H156.741V16.0601H155.241H153.741V24.2632H155.241ZM155.241 16.0601V17.5601H156.608V16.0601V14.5601H155.241V16.0601ZM156.608 16.0601H155.108V24.2632H156.608H158.108V16.0601H156.608ZM156.608 24.2632V22.7632H155.247V24.2632V25.7632H156.608V24.2632ZM155.247 24.2632H153.747V25.6304H155.247H156.747V24.2632H155.247ZM155.247 25.6304V24.1304H148.405V25.6304V27.1304H155.247V25.6304ZM148.405 25.6304H149.905V24.2632H148.405H146.905V25.6304H148.405ZM148.405 24.2632V22.7632H147.038V24.2632V25.7632H148.405V24.2632ZM147.038 24.2632H148.538V16.0601H147.038H145.538V24.2632H147.038ZM147.038 16.0601V17.5601H149.772V16.0601V14.5601H147.038V16.0601ZM149.772 16.0601H148.272V24.2632H149.772H151.272V16.0601H149.772ZM149.772 24.2632V25.7632H151.139V24.2632V22.7632H149.772V24.2632ZM151.139 24.2632H152.639V16.0601H151.139H149.639V24.2632H151.139ZM151.139 16.0601V17.5601H153.873V16.0601V14.5601H151.139V16.0601ZM153.873 16.0601H152.373V24.2632H153.873H155.373V16.0601H153.873ZM153.873 24.2632V25.7632H155.241V24.2632V22.7632H153.873V24.2632Z" fill="#222256" mask="url(#path-2-outside-1_83_77)"/>
</g>
<defs>
<filter id="filter0_dd_83_77" x="3.5" y="1" width="172" height="43" filterUnits="userSpaceOnUse" color-interpolation-filters="sRGB">
<feFlood flood-opacity="0" result="BackgroundImageFix"/>
<feColorMatrix in="SourceAlpha" type="matrix" values="0 0 0 0 0 0 0 0 0 0 0 0 0 0 0 0 0 0 127 0" result="hardAlpha"/>
<feOffset dy="4"/>
<feComposite in2="hardAlpha" operator="out"/>
<feColorMatrix type="matrix" values="0 0 0 0 1 0 0 0 0 0.447059 0 0 0 0 0.152941 0 0 0 1 0"/>
<feBlend mode="normal" in2="BackgroundImageFix" result="effect1_dropShadow_83_77"/>
<feColorMatrix in="SourceAlpha" type="matrix" values="0 0 0 0 0 0 0 0 0 0 0 0 0 0 0 0 0 0 127 0" result="hardAlpha"/>
<feOffset dy="2"/>
<feComposite in2="hardAlpha" operator="out"/>
<feColorMatrix type="matrix" values="0 0 0 0 0 0 0 0 0 0 0 0 0 0 0 0 0 0 0.25 0"/>
<feBlend mode="normal" in2="effect1_dropShadow_83_77" result="effect2_dropShadow_83_77"/>
<feBlend mode="normal" in="SourceGraphic" in2="effect2_dropShadow_83_77" result="shape"/>
</filter>
<filter id="filter1_d_83_77" x="17.525" y="14.5601" width="140.583" height="14.2521" filterUnits="userSpaceOnUse" color-interpolation-filters="sRGB">
<feFlood flood-opacity="0" result="BackgroundImageFix"/>
<feColorMatrix in="SourceAlpha" type="matrix" values="0 0 0 0 0 0 0 0 0 0 0 0 0 0 0 0 0 0 127 0" result="hardAlpha"/>
<feOffset dy="1.68182"/>
<feComposite in2="hardAlpha" operator="out"/>
<feColorMatrix type="matrix" values="0 0 0 0 1 0 0 0 0 0.447059 0 0 0 0 0.152941 0 0 0 1 0"/>
<feBlend mode="normal" in2="BackgroundImageFix" result="effect1_dropShadow_83_77"/>
<feBlend mode="normal" in="SourceGraphic" in2="effect1_dropShadow_83_77" result="shape"/>
</filter>
</defs>
</svg>
