<svg width="176" height="44" viewBox="0 0 176 44" fill="none" xmlns="http://www.w3.org/2000/svg">
<g filter="url(#filter0_dd_83_77)">
<path d="M8.01372 5.7V2.5H170.523V4.1H174V36.1H170.523V38.5H8.01372V34.7667H5V5.7H8.01372Z" fill="#FFE14C"/>
<path d="M8.01372 5.7V2.5H170.523V4.1H174V36.1H170.523V38.5H8.01372V34.7667H5V5.7H8.01372Z" stroke="#C99810" stroke-width="3"/>
</g>
<g filter="url(#filter1_d_83_77)">
<mask id="path-2-outside-1_83_77" maskUnits="userSpaceOnUse" x="20" y="10.6304" width="134" height="18" fill="black">
<rect fill="white" x="20" y="10.6304" width="134" height="18"/>
<path d="M22 26.6304V12.9586H33.7188V14.9117H35.6719V18.8179H33.7188V20.7711H35.6719V26.6304H29.8125V20.7711H25.916V26.6304H22ZM27.8594 14.9117V18.8179H31.7656V14.9117H27.8594ZM52.2969 26.6304H38.625V12.9586H52.2969V14.9117H44.4844V18.8179H50.3438V20.7711H44.4844V24.6773H52.2969V26.6304ZM68.9219 18.8179V24.6773H66.9688V26.6304H57.2031V24.6773H55.25V14.9117H57.2031V12.9586H66.9785V14.9117H68.9219V16.8648H66.9688V14.9117H61.1094V24.6773H65.0156V20.7711H63.0625L63.0723 18.8179H68.9219ZM83.5938 12.9586V14.9117H81.6406V24.6773H83.5938V26.6304H73.8281V24.6773H75.7812V14.9117H73.8281V12.9586H83.5938ZM88.5 22.7242H92.4062V24.6773H98.2656V20.7711H90.4531V18.8179H88.5V14.9117H90.4531V12.9586H100.219V14.9117H102.172V16.8648H98.2656V14.9117H94.3594V18.8179H100.219V20.7711H102.172V24.6773H100.219V26.6304H90.4531V24.6773H88.5V22.7242ZM118.797 12.9586V14.9117H114.891V26.6304H109.031V14.9117H105.125V12.9586H118.797ZM135.422 26.6304H121.75V12.9586H135.422V14.9117H127.609V18.8179H133.469V20.7711H127.609V24.6773H135.422V26.6304ZM138.375 26.6304V12.9586H150.094V14.9117H152.047V18.8179H150.094V20.7711H152.047V26.6304H146.188V20.7711H142.291V26.6304H138.375ZM144.234 14.9117V18.8179H148.141V14.9117H144.234Z"/>
</mask>
<path d="M22 26.6304V12.9586H33.7188V14.9117H35.6719V18.8179H33.7188V20.7711H35.6719V26.6304H29.8125V20.7711H25.916V26.6304H22ZM27.8594 14.9117V18.8179H31.7656V14.9117H27.8594ZM52.2969 26.6304H38.625V12.9586H52.2969V14.9117H44.4844V18.8179H50.3438V20.7711H44.4844V24.6773H52.2969V26.6304ZM68.9219 18.8179V24.6773H66.9688V26.6304H57.2031V24.6773H55.25V14.9117H57.2031V12.9586H66.9785V14.9117H68.9219V16.8648H66.9688V14.9117H61.1094V24.6773H65.0156V20.7711H63.0625L63.0723 18.8179H68.9219ZM83.5938 12.9586V14.9117H81.6406V24.6773H83.5938V26.6304H73.8281V24.6773H75.7812V14.9117H73.8281V12.9586H83.5938ZM88.5 22.7242H92.4062V24.6773H98.2656V20.7711H90.4531V18.8179H88.5V14.9117H90.4531V12.9586H100.219V14.9117H102.172V16.8648H98.2656V14.9117H94.3594V18.8179H100.219V20.7711H102.172V24.6773H100.219V26.6304H90.4531V24.6773H88.5V22.7242ZM118.797 12.9586V14.9117H114.891V26.6304H109.031V14.9117H105.125V12.9586H118.797ZM135.422 26.6304H121.75V12.9586H135.422V14.9117H127.609V18.8179H133.469V20.7711H127.609V24.6773H135.422V26.6304ZM138.375 26.6304V12.9586H150.094V14.9117H152.047V18.8179H150.094V20.7711H152.047V26.6304H146.188V20.7711H142.291V26.6304H138.375ZM144.234 14.9117V18.8179H148.141V14.9117H144.234Z" fill="white"/>
<path d="M22 26.6304H20.5V28.1304H22V26.6304ZM22 12.9586V11.4586H20.5V12.9586H22ZM33.7188 12.9586H35.2188V11.4586H33.7188V12.9586ZM33.7188 14.9117H32.2188V16.4117H33.7188V14.9117ZM35.6719 14.9117H37.1719V13.4117H35.6719V14.9117ZM35.6719 18.8179V20.3179H37.1719V18.8179H35.6719ZM33.7188 18.8179V17.3179H32.2188V18.8179H33.7188ZM33.7188 20.7711H32.2188V22.2711H33.7188V20.7711ZM35.6719 20.7711H37.1719V19.2711H35.6719V20.7711ZM35.6719 26.6304V28.1304H37.1719V26.6304H35.6719ZM29.8125 26.6304H28.3125V28.1304H29.8125V26.6304ZM29.8125 20.7711H31.3125V19.2711H29.8125V20.7711ZM25.916 20.7711V19.2711H24.416V20.7711H25.916ZM25.916 26.6304V28.1304H27.416V26.6304H25.916ZM27.8594 14.9117V13.4117H26.3594V14.9117H27.8594ZM27.8594 18.8179H26.3594V20.3179H27.8594V18.8179ZM31.7656 18.8179V20.3179H33.2656V18.8179H31.7656ZM31.7656 14.9117H33.2656V13.4117H31.7656V14.9117ZM22 26.6304H23.5V12.9586H22H20.5V26.6304H22ZM22 12.9586V14.4586H33.7188V12.9586V11.4586H22V12.9586ZM33.7188 12.9586H32.2188V14.9117H33.7188H35.2188V12.9586H33.7188ZM33.7188 14.9117V16.4117H35.6719V14.9117V13.4117H33.7188V14.9117ZM35.6719 14.9117H34.1719V18.8179H35.6719H37.1719V14.9117H35.6719ZM35.6719 18.8179V17.3179H33.7188V18.8179V20.3179H35.6719V18.8179ZM33.7188 18.8179H32.2188V20.7711H33.7188H35.2188V18.8179H33.7188ZM33.7188 20.7711V22.2711H35.6719V20.7711V19.2711H33.7188V20.7711ZM35.6719 20.7711H34.1719V26.6304H35.6719H37.1719V20.7711H35.6719ZM35.6719 26.6304V25.1304H29.8125V26.6304V28.1304H35.6719V26.6304ZM29.8125 26.6304H31.3125V20.7711H29.8125H28.3125V26.6304H29.8125ZM29.8125 20.7711V19.2711H25.916V20.7711V22.2711H29.8125V20.7711ZM25.916 20.7711H24.416V26.6304H25.916H27.416V20.7711H25.916ZM25.916 26.6304V25.1304H22V26.6304V28.1304H25.916V26.6304ZM27.8594 14.9117H26.3594V18.8179H27.8594H29.3594V14.9117H27.8594ZM27.8594 18.8179V20.3179H31.7656V18.8179V17.3179H27.8594V18.8179ZM31.7656 18.8179H33.2656V14.9117H31.7656H30.2656V18.8179H31.7656ZM31.7656 14.9117V13.4117H27.8594V14.9117V16.4117H31.7656V14.9117ZM52.2969 26.6304V28.1304H53.7969V26.6304H52.2969ZM38.625 26.6304H37.125V28.1304H38.625V26.6304ZM38.625 12.9586V11.4586H37.125V12.9586H38.625ZM52.2969 12.9586H53.7969V11.4586H52.2969V12.9586ZM52.2969 14.9117V16.4117H53.7969V14.9117H52.2969ZM44.4844 14.9117V13.4117H42.9844V14.9117H44.4844ZM44.4844 18.8179H42.9844V20.3179H44.4844V18.8179ZM50.3438 18.8179H51.8438V17.3179H50.3438V18.8179ZM50.3438 20.7711V22.2711H51.8438V20.7711H50.3438ZM44.4844 20.7711V19.2711H42.9844V20.7711H44.4844ZM44.4844 24.6773H42.9844V26.1773H44.4844V24.6773ZM52.2969 24.6773H53.7969V23.1773H52.2969V24.6773ZM52.2969 26.6304V25.1304H38.625V26.6304V28.1304H52.2969V26.6304ZM38.625 26.6304H40.125V12.9586H38.625H37.125V26.6304H38.625ZM38.625 12.9586V14.4586H52.2969V12.9586V11.4586H38.625V12.9586ZM52.2969 12.9586H50.7969V14.9117H52.2969H53.7969V12.9586H52.2969ZM52.2969 14.9117V13.4117H44.4844V14.9117V16.4117H52.2969V14.9117ZM44.4844 14.9117H42.9844V18.8179H44.4844H45.9844V14.9117H44.4844ZM44.4844 18.8179V20.3179H50.3438V18.8179V17.3179H44.4844V18.8179ZM50.3438 18.8179H48.8438V20.7711H50.3438H51.8438V18.8179H50.3438ZM50.3438 20.7711V19.2711H44.4844V20.7711V22.2711H50.3438V20.7711ZM44.4844 20.7711H42.9844V24.6773H44.4844H45.9844V20.7711H44.4844ZM44.4844 24.6773V26.1773H52.2969V24.6773V23.1773H44.4844V24.6773ZM52.2969 24.6773H50.7969V26.6304H52.2969H53.7969V24.6773H52.2969ZM68.9219 18.8179H70.4219V17.3179H68.9219V18.8179ZM68.9219 24.6773V26.1773H70.4219V24.6773H68.9219ZM66.9688 24.6773V23.1773H65.4688V24.6773H66.9688ZM66.9688 26.6304V28.1304H68.4688V26.6304H66.9688ZM57.2031 26.6304H55.7031V28.1304H57.2031V26.6304ZM57.2031 24.6773H58.7031V23.1773H57.2031V24.6773ZM55.25 24.6773H53.75V26.1773H55.25V24.6773ZM55.25 14.9117V13.4117H53.75V14.9117H55.25ZM57.2031 14.9117V16.4117H58.7031V14.9117H57.2031ZM57.2031 12.9586V11.4586H55.7031V12.9586H57.2031ZM66.9785 12.9586H68.4785V11.4586H66.9785V12.9586ZM66.9785 14.9117H65.4785V16.4117H66.9785V14.9117ZM68.9219 14.9117H70.4219V13.4117H68.9219V14.9117ZM68.9219 16.8648V18.3648H70.4219V16.8648H68.9219ZM66.9688 16.8648H65.4688V18.3648H66.9688V16.8648ZM66.9688 14.9117H68.4688V13.4117H66.9688V14.9117ZM61.1094 14.9117V13.4117H59.6094V14.9117H61.1094ZM61.1094 24.6773H59.6094V26.1773H61.1094V24.6773ZM65.0156 24.6773V26.1773H66.5156V24.6773H65.0156ZM65.0156 20.7711H66.5156V19.2711H65.0156V20.7711ZM63.0625 20.7711L61.5625 20.7636L61.555 22.2711H63.0625V20.7711ZM63.0723 18.8179V17.3179H61.5797L61.5723 18.8104L63.0723 18.8179ZM68.9219 18.8179H67.4219V24.6773H68.9219H70.4219V18.8179H68.9219ZM68.9219 24.6773V23.1773H66.9688V24.6773V26.1773H68.9219V24.6773ZM66.9688 24.6773H65.4688V26.6304H66.9688H68.4688V24.6773H66.9688ZM66.9688 26.6304V25.1304H57.2031V26.6304V28.1304H66.9688V26.6304ZM57.2031 26.6304H58.7031V24.6773H57.2031H55.7031V26.6304H57.2031ZM57.2031 24.6773V23.1773H55.25V24.6773V26.1773H57.2031V24.6773ZM55.25 24.6773H56.75V14.9117H55.25H53.75V24.6773H55.25ZM55.25 14.9117V16.4117H57.2031V14.9117V13.4117H55.25V14.9117ZM57.2031 14.9117H58.7031V12.9586H57.2031H55.7031V14.9117H57.2031ZM57.2031 12.9586V14.4586H66.9785V12.9586V11.4586H57.2031V12.9586ZM66.9785 12.9586H65.4785V14.9117H66.9785H68.4785V12.9586H66.9785ZM66.9785 14.9117V16.4117H68.9219V14.9117V13.4117H66.9785V14.9117ZM68.9219 14.9117H67.4219V16.8648H68.9219H70.4219V14.9117H68.9219ZM68.9219 16.8648V15.3648H66.9688V16.8648V18.3648H68.9219V16.8648ZM66.9688 16.8648H68.4688V14.9117H66.9688H65.4688V16.8648H66.9688ZM66.9688 14.9117V13.4117H61.1094V14.9117V16.4117H66.9688V14.9117ZM61.1094 14.9117H59.6094V24.6773H61.1094H62.6094V14.9117H61.1094ZM61.1094 24.6773V26.1773H65.0156V24.6773V23.1773H61.1094V24.6773ZM65.0156 24.6773H66.5156V20.7711H65.0156H63.5156V24.6773H65.0156ZM65.0156 20.7711V19.2711H63.0625V20.7711V22.2711H65.0156V20.7711ZM63.0625 20.7711L64.5625 20.7786L64.5722 18.8254L63.0723 18.8179L61.5723 18.8104L61.5625 20.7636L63.0625 20.7711ZM63.0723 18.8179V20.3179H68.9219V18.8179V17.3179H63.0723V18.8179ZM83.5938 12.9586H85.0938V11.4586H83.5938V12.9586ZM83.5938 14.9117V16.4117H85.0938V14.9117H83.5938ZM81.6406 14.9117V13.4117H80.1406V14.9117H81.6406ZM81.6406 24.6773H80.1406V26.1773H81.6406V24.6773ZM83.5938 24.6773H85.0938V23.1773H83.5938V24.6773ZM83.5938 26.6304V28.1304H85.0938V26.6304H83.5938ZM73.8281 26.6304H72.3281V28.1304H73.8281V26.6304ZM73.8281 24.6773V23.1773H72.3281V24.6773H73.8281ZM75.7812 24.6773V26.1773H77.2812V24.6773H75.7812ZM75.7812 14.9117H77.2812V13.4117H75.7812V14.9117ZM73.8281 14.9117H72.3281V16.4117H73.8281V14.9117ZM73.8281 12.9586V11.4586H72.3281V12.9586H73.8281ZM83.5938 12.9586H82.0938V14.9117H83.5938H85.0938V12.9586H83.5938ZM83.5938 14.9117V13.4117H81.6406V14.9117V16.4117H83.5938V14.9117ZM81.6406 14.9117H80.1406V24.6773H81.6406H83.1406V14.9117H81.6406ZM81.6406 24.6773V26.1773H83.5938V24.6773V23.1773H81.6406V24.6773ZM83.5938 24.6773H82.0938V26.6304H83.5938H85.0938V24.6773H83.5938ZM83.5938 26.6304V25.1304H73.8281V26.6304V28.1304H83.5938V26.6304ZM73.8281 26.6304H75.3281V24.6773H73.8281H72.3281V26.6304H73.8281ZM73.8281 24.6773V26.1773H75.7812V24.6773V23.1773H73.8281V24.6773ZM75.7812 24.6773H77.2812V14.9117H75.7812H74.2812V24.6773H75.7812ZM75.7812 14.9117V13.4117H73.8281V14.9117V16.4117H75.7812V14.9117ZM73.8281 14.9117H75.3281V12.9586H73.8281H72.3281V14.9117H73.8281ZM73.8281 12.9586V14.4586H83.5938V12.9586V11.4586H73.8281V12.9586ZM88.5 22.7242V21.2242H87V22.7242H88.5ZM92.4062 22.7242H93.9062V21.2242H92.4062V22.7242ZM92.4062 24.6773H90.9062V26.1773H92.4062V24.6773ZM98.2656 24.6773V26.1773H99.7656V24.6773H98.2656ZM98.2656 20.7711H99.7656V19.2711H98.2656V20.7711ZM90.4531 20.7711H88.9531V22.2711H90.4531V20.7711ZM90.4531 18.8179H91.9531V17.3179H90.4531V18.8179ZM88.5 18.8179H87V20.3179H88.5V18.8179ZM88.5 14.9117V13.4117H87V14.9117H88.5ZM90.4531 14.9117V16.4117H91.9531V14.9117H90.4531ZM90.4531 12.9586V11.4586H88.9531V12.9586H90.4531ZM100.219 12.9586H101.719V11.4586H100.219V12.9586ZM100.219 14.9117H98.7188V16.4117H100.219V14.9117ZM102.172 14.9117H103.672V13.4117H102.172V14.9117ZM102.172 16.8648V18.3648H103.672V16.8648H102.172ZM98.2656 16.8648H96.7656V18.3648H98.2656V16.8648ZM98.2656 14.9117H99.7656V13.4117H98.2656V14.9117ZM94.3594 14.9117V13.4117H92.8594V14.9117H94.3594ZM94.3594 18.8179H92.8594V20.3179H94.3594V18.8179ZM100.219 18.8179H101.719V17.3179H100.219V18.8179ZM100.219 20.7711H98.7188V22.2711H100.219V20.7711ZM102.172 20.7711H103.672V19.2711H102.172V20.7711ZM102.172 24.6773V26.1773H103.672V24.6773H102.172ZM100.219 24.6773V23.1773H98.7188V24.6773H100.219ZM100.219 26.6304V28.1304H101.719V26.6304H100.219ZM90.4531 26.6304H88.9531V28.1304H90.4531V26.6304ZM90.4531 24.6773H91.9531V23.1773H90.4531V24.6773ZM88.5 24.6773H87V26.1773H88.5V24.6773ZM88.5 22.7242V24.2242H92.4062V22.7242V21.2242H88.5V22.7242ZM92.4062 22.7242H90.9062V24.6773H92.4062H93.9062V22.7242H92.4062ZM92.4062 24.6773V26.1773H98.2656V24.6773V23.1773H92.4062V24.6773ZM98.2656 24.6773H99.7656V20.7711H98.2656H96.7656V24.6773H98.2656ZM98.2656 20.7711V19.2711H90.4531V20.7711V22.2711H98.2656V20.7711ZM90.4531 20.7711H91.9531V18.8179H90.4531H88.9531V20.7711H90.4531ZM90.4531 18.8179V17.3179H88.5V18.8179V20.3179H90.4531V18.8179ZM88.5 18.8179H90V14.9117H88.5H87V18.8179H88.5ZM88.5 14.9117V16.4117H90.4531V14.9117V13.4117H88.5V14.9117ZM90.4531 14.9117H91.9531V12.9586H90.4531H88.9531V14.9117H90.4531ZM90.4531 12.9586V14.4586H100.219V12.9586V11.4586H90.4531V12.9586ZM100.219 12.9586H98.7188V14.9117H100.219H101.719V12.9586H100.219ZM100.219 14.9117V16.4117H102.172V14.9117V13.4117H100.219V14.9117ZM102.172 14.9117H100.672V16.8648H102.172H103.672V14.9117H102.172ZM102.172 16.8648V15.3648H98.2656V16.8648V18.3648H102.172V16.8648ZM98.2656 16.8648H99.7656V14.9117H98.2656H96.7656V16.8648H98.2656ZM98.2656 14.9117V13.4117H94.3594V14.9117V16.4117H98.2656V14.9117ZM94.3594 14.9117H92.8594V18.8179H94.3594H95.8594V14.9117H94.3594ZM94.3594 18.8179V20.3179H100.219V18.8179V17.3179H94.3594V18.8179ZM100.219 18.8179H98.7188V20.7711H100.219H101.719V18.8179H100.219ZM100.219 20.7711V22.2711H102.172V20.7711V19.2711H100.219V20.7711ZM102.172 20.7711H100.672V24.6773H102.172H103.672V20.7711H102.172ZM102.172 24.6773V23.1773H100.219V24.6773V26.1773H102.172V24.6773ZM100.219 24.6773H98.7188V26.6304H100.219H101.719V24.6773H100.219ZM100.219 26.6304V25.1304H90.4531V26.6304V28.1304H100.219V26.6304ZM90.4531 26.6304H91.9531V24.6773H90.4531H88.9531V26.6304H90.4531ZM90.4531 24.6773V23.1773H88.5V24.6773V26.1773H90.4531V24.6773ZM88.5 24.6773H90V22.7242H88.5H87V24.6773H88.5ZM118.797 12.9586H120.297V11.4586H118.797V12.9586ZM118.797 14.9117V16.4117H120.297V14.9117H118.797ZM114.891 14.9117V13.4117H113.391V14.9117H114.891ZM114.891 26.6304V28.1304H116.391V26.6304H114.891ZM109.031 26.6304H107.531V28.1304H109.031V26.6304ZM109.031 14.9117H110.531V13.4117H109.031V14.9117ZM105.125 14.9117H103.625V16.4117H105.125V14.9117ZM105.125 12.9586V11.4586H103.625V12.9586H105.125ZM118.797 12.9586H117.297V14.9117H118.797H120.297V12.9586H118.797ZM118.797 14.9117V13.4117H114.891V14.9117V16.4117H118.797V14.9117ZM114.891 14.9117H113.391V26.6304H114.891H116.391V14.9117H114.891ZM114.891 26.6304V25.1304H109.031V26.6304V28.1304H114.891V26.6304ZM109.031 26.6304H110.531V14.9117H109.031H107.531V26.6304H109.031ZM109.031 14.9117V13.4117H105.125V14.9117V16.4117H109.031V14.9117ZM105.125 14.9117H106.625V12.9586H105.125H103.625V14.9117H105.125ZM105.125 12.9586V14.4586H118.797V12.9586V11.4586H105.125V12.9586ZM135.422 26.6304V28.1304H136.922V26.6304H135.422ZM121.75 26.6304H120.25V28.1304H121.75V26.6304ZM121.75 12.9586V11.4586H120.25V12.9586H121.75ZM135.422 12.9586H136.922V11.4586H135.422V12.9586ZM135.422 14.9117V16.4117H136.922V14.9117H135.422ZM127.609 14.9117V13.4117H126.109V14.9117H127.609ZM127.609 18.8179H126.109V20.3179H127.609V18.8179ZM133.469 18.8179H134.969V17.3179H133.469V18.8179ZM133.469 20.7711V22.2711H134.969V20.7711H133.469ZM127.609 20.7711V19.2711H126.109V20.7711H127.609ZM127.609 24.6773H126.109V26.1773H127.609V24.6773ZM135.422 24.6773H136.922V23.1773H135.422V24.6773ZM135.422 26.6304V25.1304H121.75V26.6304V28.1304H135.422V26.6304ZM121.75 26.6304H123.25V12.9586H121.75H120.25V26.6304H121.75ZM121.75 12.9586V14.4586H135.422V12.9586V11.4586H121.75V12.9586ZM135.422 12.9586H133.922V14.9117H135.422H136.922V12.9586H135.422ZM135.422 14.9117V13.4117H127.609V14.9117V16.4117H135.422V14.9117ZM127.609 14.9117H126.109V18.8179H127.609H129.109V14.9117H127.609ZM127.609 18.8179V20.3179H133.469V18.8179V17.3179H127.609V18.8179ZM133.469 18.8179H131.969V20.7711H133.469H134.969V18.8179H133.469ZM133.469 20.7711V19.2711H127.609V20.7711V22.2711H133.469V20.7711ZM127.609 20.7711H126.109V24.6773H127.609H129.109V20.7711H127.609ZM127.609 24.6773V26.1773H135.422V24.6773V23.1773H127.609V24.6773ZM135.422 24.6773H133.922V26.6304H135.422H136.922V24.6773H135.422ZM138.375 26.6304H136.875V28.1304H138.375V26.6304ZM138.375 12.9586V11.4586H136.875V12.9586H138.375ZM150.094 12.9586H151.594V11.4586H150.094V12.9586ZM150.094 14.9117H148.594V16.4117H150.094V14.9117ZM152.047 14.9117H153.547V13.4117H152.047V14.9117ZM152.047 18.8179V20.3179H153.547V18.8179H152.047ZM150.094 18.8179V17.3179H148.594V18.8179H150.094ZM150.094 20.7711H148.594V22.2711H150.094V20.7711ZM152.047 20.7711H153.547V19.2711H152.047V20.7711ZM152.047 26.6304V28.1304H153.547V26.6304H152.047ZM146.188 26.6304H144.688V28.1304H146.188V26.6304ZM146.188 20.7711H147.688V19.2711H146.188V20.7711ZM142.291 20.7711V19.2711H140.791V20.7711H142.291ZM142.291 26.6304V28.1304H143.791V26.6304H142.291ZM144.234 14.9117V13.4117H142.734V14.9117H144.234ZM144.234 18.8179H142.734V20.3179H144.234V18.8179ZM148.141 18.8179V20.3179H149.641V18.8179H148.141ZM148.141 14.9117H149.641V13.4117H148.141V14.9117ZM138.375 26.6304H139.875V12.9586H138.375H136.875V26.6304H138.375ZM138.375 12.9586V14.4586H150.094V12.9586V11.4586H138.375V12.9586ZM150.094 12.9586H148.594V14.9117H150.094H151.594V12.9586H150.094ZM150.094 14.9117V16.4117H152.047V14.9117V13.4117H150.094V14.9117ZM152.047 14.9117H150.547V18.8179H152.047H153.547V14.9117H152.047ZM152.047 18.8179V17.3179H150.094V18.8179V20.3179H152.047V18.8179ZM150.094 18.8179H148.594V20.7711H150.094H151.594V18.8179H150.094ZM150.094 20.7711V22.2711H152.047V20.7711V19.2711H150.094V20.7711ZM152.047 20.7711H150.547V26.6304H152.047H153.547V20.7711H152.047ZM152.047 26.6304V25.1304H146.188V26.6304V28.1304H152.047V26.6304ZM146.188 26.6304H147.688V20.7711H146.188H144.688V26.6304H146.188ZM146.188 20.7711V19.2711H142.291V20.7711V22.2711H146.188V20.7711ZM142.291 20.7711H140.791V26.6304H142.291H143.791V20.7711H142.291ZM142.291 26.6304V25.1304H138.375V26.6304V28.1304H142.291V26.6304ZM144.234 14.9117H142.734V18.8179H144.234H145.734V14.9117H144.234ZM144.234 18.8179V20.3179H148.141V18.8179V17.3179H144.234V18.8179ZM148.141 18.8179H149.641V14.9117H148.141H146.641V18.8179H148.141ZM148.141 14.9117V13.4117H144.234V14.9117V16.4117H148.141V14.9117Z" fill="#222256" mask="url(#path-2-outside-1_83_77)"/>
</g>
<defs>
<filter id="filter0_dd_83_77" x="3.5" y="1" width="172" height="43" filterUnits="userSpaceOnUse" color-interpolation-filters="sRGB">
<feFlood flood-opacity="0" result="BackgroundImageFix"/>
<feColorMatrix in="SourceAlpha" type="matrix" values="0 0 0 0 0 0 0 0 0 0 0 0 0 0 0 0 0 0 127 0" result="hardAlpha"/>
<feOffset dy="4"/>
<feComposite in2="hardAlpha" operator="out"/>
<feColorMatrix type="matrix" values="0 0 0 0 1 0 0 0 0 0.447059 0 0 0 0 0.152941 0 0 0 1 0"/>
<feBlend mode="normal" in2="BackgroundImageFix" result="effect1_dropShadow_83_77"/>
<feColorMatrix in="SourceAlpha" type="matrix" values="0 0 0 0 0 0 0 0 0 0 0 0 0 0 0 0 0 0 127 0" result="hardAlpha"/>
<feOffset dy="2"/>
<feComposite in2="hardAlpha" operator="out"/>
<feColorMatrix type="matrix" values="0 0 0 0 0 0 0 0 0 0 0 0 0 0 0 0 0 0 0.25 0"/>
<feBlend mode="normal" in2="effect1_dropShadow_83_77" result="effect2_dropShadow_83_77"/>
<feBlend mode="normal" in="SourceGraphic" in2="effect2_dropShadow_83_77" result="shape"/>
</filter>
<filter id="filter1_d_83_77" x="20.5" y="11.4586" width="133.047" height="18.3537" filterUnits="userSpaceOnUse" color-interpolation-filters="sRGB">
<feFlood flood-opacity="0" result="BackgroundImageFix"/>
<feColorMatrix in="SourceAlpha" type="matrix" values="0 0 0 0 0 0 0 0 0 0 0 0 0 0 0 0 0 0 127 0" result="hardAlpha"/>
<feOffset dy="1.68182"/>
<feComposite in2="hardAlpha" operator="out"/>
<feColorMatrix type="matrix" values="0 0 0 0 1 0 0 0 0 0.447059 0 0 0 0 0.152941 0 0 0 1 0"/>
<feBlend mode="normal" in2="BackgroundImageFix" result="effect1_dropShadow_83_77"/>
<feBlend mode="normal" in="SourceGraphic" in2="effect1_dropShadow_83_77" result="shape"/>
</filter>
</defs>
</svg>
