<svg width="275" height="64" viewBox="0 0 275 64" fill="none" xmlns="http://www.w3.org/2000/svg">
<g filter="url(#filter0_d_43_4973)">
<path d="M4.98523 3.29688C4.98523 2.29896 4.98523 1.30105 4.98523 0.303134C92.9484 0.303134 180.911 0.303134 268.873 0.303134C269.083 0.303134 269.293 0.296482 269.504 0.304798C269.668 0.31145 269.855 0.250744 269.985 0.386294C269.985 1.35593 269.985 2.3264 269.985 3.29604C181.652 3.29688 93.3186 3.29688 4.98523 3.29688Z" fill="#C99810"/>
<path d="M275 58C272.797 58 270.592 58 268.389 58C268.259 58 268.13 58 268 58C268 39.0006 268 20.0013 268 1.00189C270.137 1.00189 272.274 1.00189 274.411 1.00189C274.541 1.00189 274.671 0.996344 274.798 1.00426C274.846 1.00743 274.885 1.04068 274.951 1.07155C274.957 1.07947 274.996 1.10242 274.996 1.12538C275 20.0836 275 39.0418 275 58Z" fill="#C99810"/>
<path d="M2.48662 5.08252C2.48662 21.5527 2.48662 38.0221 2.48662 54.5039C1.68503 54.5039 0.928546 54.5039 0.182475 54.5039C0.156796 54.475 0.128341 54.4585 0.128341 54.4413C0.126953 37.9884 0.126953 21.5354 0.126953 5.08252C0.913972 5.08252 1.7003 5.08252 2.48662 5.08252Z" fill="#C99810"/>
<path d="M269.985 57.2969C269.985 57.9633 269.985 58.6304 269.985 59.2969C181.658 59.2969 93.3308 59.2969 4.98523 59.2969C4.98523 58.6175 4.98523 57.9763 4.98523 57.3439C5.02943 57.3222 5.05469 57.2981 5.08101 57.2981C93.3824 57.2969 181.684 57.2969 269.985 57.2969Z" fill="#C99810"/>
<path d="M182.377 54.6538C182.377 55.4339 182.377 56.2146 182.377 56.9947C181.556 56.9947 180.734 56.9947 179.936 56.9947C179.902 56.943 179.88 56.9245 179.88 56.9066C179.879 56.1554 179.879 55.4043 179.879 54.6538C180.711 54.6538 181.544 54.6538 182.377 54.6538Z" fill="#C99810"/>
<path d="M4.98524 54.6538C4.98524 55.407 4.98524 56.1602 4.98385 56.9128C4.98385 56.93 4.95887 56.9479 4.93458 56.9795C4.19267 56.9795 3.43896 56.9795 2.68456 56.9795C2.60753 56.4969 2.59712 55.6941 2.65611 54.6931C2.67346 54.68 2.69081 54.6552 2.70885 54.6552C3.46742 54.6538 4.22598 54.6538 4.98524 54.6538Z" fill="#C99810"/>
<path d="M183.387 5.56207C182.627 5.56207 181.868 5.56207 181.113 5.56207C181.027 5.52833 181.004 5.40372 180.889 5.42437C180.889 4.64431 180.889 3.86356 180.889 3.0835C181.692 3.0835 182.495 3.0835 183.299 3.08487C183.317 3.08487 183.335 3.10622 183.353 3.11792C183.365 3.13582 183.386 3.15372 183.386 3.17162C183.387 3.9689 183.387 4.76548 183.387 5.56207Z" fill="#C99810"/>
<path d="M6.61539 5.59434V3H268.154V5.59434H272V55.4057H268.154V58H2.76923V55.2529H2V5.59434H6.61539Z" fill="#FFE14C" stroke="#C99810" stroke-width="1.02778"/>
<rect x="2.05554" y="2.05566" width="3.08333" height="3.08333" fill="#C99810"/>
<g filter="url(#filter1_d_43_4973)">
<mask id="path-10-outside-1_43_4973" maskUnits="userSpaceOnUse" x="28" y="20" width="217" height="18" fill="black">
<rect fill="white" x="28" y="20" width="217" height="18"/>
<path d="M34.8594 34.0469V24.2812H32.9062V22.3281H42.6719V24.2812H40.7188V34.0469H38.7656V36H32.8965V34.0469H30.9531V32.0938H32.9062V34.0469H34.8594ZM57.3438 36H47.5781V34.0469H45.625V24.2812H47.5781V22.3281H57.3438V24.2812H59.2969V34.0469H57.3438V36ZM55.3906 34.0469V24.2812H51.4844V34.0469H55.3906ZM73.9688 22.3281V24.2812H72.0156V34.0469H73.9688V36H64.2031V34.0469H66.1562V24.2812H64.2031V22.3281H73.9688ZM78.875 36V22.3281H90.5938V24.2812H92.5469V36H88.6406V24.2812H84.7344L84.7441 36H78.875ZM125.797 22.3281V24.2812H121.891V36H116.031V24.2812H112.125V22.3281H125.797ZM142.422 36H128.75V22.3281H142.422V24.2812H134.609V28.1875H140.469V30.1406H134.609V34.0469H142.422V36ZM159.047 36H145.375V22.3281H151.234V34.0469H159.047V36ZM175.672 36H162V22.3281H175.672V24.2812H167.859V28.1875H173.719V30.1406H167.859V34.0469H175.672V36ZM192.297 28.1875V34.0469H190.344V36H180.578V34.0469H178.625V24.2812H180.578V22.3281H190.354V24.2812H192.297V26.2344H190.344V24.2812H184.484V34.0469H188.391V30.1406H186.438L186.447 28.1875H192.297ZM195.25 36V22.3281H206.969V24.2812H208.922V28.1875H206.969V30.1406H208.922V36H203.062V30.1406H199.166V36H195.25ZM201.109 24.2812V28.1875H205.016V24.2812H201.109ZM211.875 36V24.2812H213.828V22.3281H223.594V24.2812H225.547V36H221.641V30.1406H217.734V36H211.875ZM217.734 24.584V28.1875H221.641V24.584H217.734ZM238.266 24.2812V36H234.359V24.2812H232.406V36H228.5V22.3281H240.229V24.2812H242.172V36H240.219V24.2812H238.266Z"/>
</mask>
<path d="M34.8594 34.0469V24.2812H32.9062V22.3281H42.6719V24.2812H40.7188V34.0469H38.7656V36H32.8965V34.0469H30.9531V32.0938H32.9062V34.0469H34.8594ZM57.3438 36H47.5781V34.0469H45.625V24.2812H47.5781V22.3281H57.3438V24.2812H59.2969V34.0469H57.3438V36ZM55.3906 34.0469V24.2812H51.4844V34.0469H55.3906ZM73.9688 22.3281V24.2812H72.0156V34.0469H73.9688V36H64.2031V34.0469H66.1562V24.2812H64.2031V22.3281H73.9688ZM78.875 36V22.3281H90.5938V24.2812H92.5469V36H88.6406V24.2812H84.7344L84.7441 36H78.875ZM125.797 22.3281V24.2812H121.891V36H116.031V24.2812H112.125V22.3281H125.797ZM142.422 36H128.75V22.3281H142.422V24.2812H134.609V28.1875H140.469V30.1406H134.609V34.0469H142.422V36ZM159.047 36H145.375V22.3281H151.234V34.0469H159.047V36ZM175.672 36H162V22.3281H175.672V24.2812H167.859V28.1875H173.719V30.1406H167.859V34.0469H175.672V36ZM192.297 28.1875V34.0469H190.344V36H180.578V34.0469H178.625V24.2812H180.578V22.3281H190.354V24.2812H192.297V26.2344H190.344V24.2812H184.484V34.0469H188.391V30.1406H186.438L186.447 28.1875H192.297ZM195.25 36V22.3281H206.969V24.2812H208.922V28.1875H206.969V30.1406H208.922V36H203.062V30.1406H199.166V36H195.25ZM201.109 24.2812V28.1875H205.016V24.2812H201.109ZM211.875 36V24.2812H213.828V22.3281H223.594V24.2812H225.547V36H221.641V30.1406H217.734V36H211.875ZM217.734 24.584V28.1875H221.641V24.584H217.734ZM238.266 24.2812V36H234.359V24.2812H232.406V36H228.5V22.3281H240.229V24.2812H242.172V36H240.219V24.2812H238.266Z" fill="white"/>
<path d="M34.8594 34.0469V36.0469H36.8594V34.0469H34.8594ZM34.8594 24.2812H36.8594V22.2812H34.8594V24.2812ZM32.9062 24.2812H30.9062V26.2812H32.9062V24.2812ZM32.9062 22.3281V20.3281H30.9062V22.3281H32.9062ZM42.6719 22.3281H44.6719V20.3281H42.6719V22.3281ZM42.6719 24.2812V26.2812H44.6719V24.2812H42.6719ZM40.7188 24.2812V22.2812H38.7188V24.2812H40.7188ZM40.7188 34.0469V36.0469H42.7188V34.0469H40.7188ZM38.7656 34.0469V32.0469H36.7656V34.0469H38.7656ZM38.7656 36V38H40.7656V36H38.7656ZM32.8965 36H30.8965V38H32.8965V36ZM32.8965 34.0469H34.8965V32.0469H32.8965V34.0469ZM30.9531 34.0469H28.9531V36.0469H30.9531V34.0469ZM30.9531 32.0938V30.0938H28.9531V32.0938H30.9531ZM32.9062 32.0938H34.9062V30.0938H32.9062V32.0938ZM32.9062 34.0469H30.9062V36.0469H32.9062V34.0469ZM34.8594 34.0469H36.8594V24.2812H34.8594H32.8594V34.0469H34.8594ZM34.8594 24.2812V22.2812H32.9062V24.2812V26.2812H34.8594V24.2812ZM32.9062 24.2812H34.9062V22.3281H32.9062H30.9062V24.2812H32.9062ZM32.9062 22.3281V24.3281H42.6719V22.3281V20.3281H32.9062V22.3281ZM42.6719 22.3281H40.6719V24.2812H42.6719H44.6719V22.3281H42.6719ZM42.6719 24.2812V22.2812H40.7188V24.2812V26.2812H42.6719V24.2812ZM40.7188 24.2812H38.7188V34.0469H40.7188H42.7188V24.2812H40.7188ZM40.7188 34.0469V32.0469H38.7656V34.0469V36.0469H40.7188V34.0469ZM38.7656 34.0469H36.7656V36H38.7656H40.7656V34.0469H38.7656ZM38.7656 36V34H32.8965V36V38H38.7656V36ZM32.8965 36H34.8965V34.0469H32.8965H30.8965V36H32.8965ZM32.8965 34.0469V32.0469H30.9531V34.0469V36.0469H32.8965V34.0469ZM30.9531 34.0469H32.9531V32.0938H30.9531H28.9531V34.0469H30.9531ZM30.9531 32.0938V34.0938H32.9062V32.0938V30.0938H30.9531V32.0938ZM32.9062 32.0938H30.9062V34.0469H32.9062H34.9062V32.0938H32.9062ZM32.9062 34.0469V36.0469H34.8594V34.0469V32.0469H32.9062V34.0469ZM57.3438 36V38H59.3438V36H57.3438ZM47.5781 36H45.5781V38H47.5781V36ZM47.5781 34.0469H49.5781V32.0469H47.5781V34.0469ZM45.625 34.0469H43.625V36.0469H45.625V34.0469ZM45.625 24.2812V22.2812H43.625V24.2812H45.625ZM47.5781 24.2812V26.2812H49.5781V24.2812H47.5781ZM47.5781 22.3281V20.3281H45.5781V22.3281H47.5781ZM57.3438 22.3281H59.3438V20.3281H57.3438V22.3281ZM57.3438 24.2812H55.3438V26.2812H57.3438V24.2812ZM59.2969 24.2812H61.2969V22.2812H59.2969V24.2812ZM59.2969 34.0469V36.0469H61.2969V34.0469H59.2969ZM57.3438 34.0469V32.0469H55.3438V34.0469H57.3438ZM55.3906 34.0469V36.0469H57.3906V34.0469H55.3906ZM55.3906 24.2812H57.3906V22.2812H55.3906V24.2812ZM51.4844 24.2812V22.2812H49.4844V24.2812H51.4844ZM51.4844 34.0469H49.4844V36.0469H51.4844V34.0469ZM57.3438 36V34H47.5781V36V38H57.3438V36ZM47.5781 36H49.5781V34.0469H47.5781H45.5781V36H47.5781ZM47.5781 34.0469V32.0469H45.625V34.0469V36.0469H47.5781V34.0469ZM45.625 34.0469H47.625V24.2812H45.625H43.625V34.0469H45.625ZM45.625 24.2812V26.2812H47.5781V24.2812V22.2812H45.625V24.2812ZM47.5781 24.2812H49.5781V22.3281H47.5781H45.5781V24.2812H47.5781ZM47.5781 22.3281V24.3281H57.3438V22.3281V20.3281H47.5781V22.3281ZM57.3438 22.3281H55.3438V24.2812H57.3438H59.3438V22.3281H57.3438ZM57.3438 24.2812V26.2812H59.2969V24.2812V22.2812H57.3438V24.2812ZM59.2969 24.2812H57.2969V34.0469H59.2969H61.2969V24.2812H59.2969ZM59.2969 34.0469V32.0469H57.3438V34.0469V36.0469H59.2969V34.0469ZM57.3438 34.0469H55.3438V36H57.3438H59.3438V34.0469H57.3438ZM55.3906 34.0469H57.3906V24.2812H55.3906H53.3906V34.0469H55.3906ZM55.3906 24.2812V22.2812H51.4844V24.2812V26.2812H55.3906V24.2812ZM51.4844 24.2812H49.4844V34.0469H51.4844H53.4844V24.2812H51.4844ZM51.4844 34.0469V36.0469H55.3906V34.0469V32.0469H51.4844V34.0469ZM73.9688 22.3281H75.9688V20.3281H73.9688V22.3281ZM73.9688 24.2812V26.2812H75.9688V24.2812H73.9688ZM72.0156 24.2812V22.2812H70.0156V24.2812H72.0156ZM72.0156 34.0469H70.0156V36.0469H72.0156V34.0469ZM73.9688 34.0469H75.9688V32.0469H73.9688V34.0469ZM73.9688 36V38H75.9688V36H73.9688ZM64.2031 36H62.2031V38H64.2031V36ZM64.2031 34.0469V32.0469H62.2031V34.0469H64.2031ZM66.1562 34.0469V36.0469H68.1562V34.0469H66.1562ZM66.1562 24.2812H68.1562V22.2812H66.1562V24.2812ZM64.2031 24.2812H62.2031V26.2812H64.2031V24.2812ZM64.2031 22.3281V20.3281H62.2031V22.3281H64.2031ZM73.9688 22.3281H71.9688V24.2812H73.9688H75.9688V22.3281H73.9688ZM73.9688 24.2812V22.2812H72.0156V24.2812V26.2812H73.9688V24.2812ZM72.0156 24.2812H70.0156V34.0469H72.0156H74.0156V24.2812H72.0156ZM72.0156 34.0469V36.0469H73.9688V34.0469V32.0469H72.0156V34.0469ZM73.9688 34.0469H71.9688V36H73.9688H75.9688V34.0469H73.9688ZM73.9688 36V34H64.2031V36V38H73.9688V36ZM64.2031 36H66.2031V34.0469H64.2031H62.2031V36H64.2031ZM64.2031 34.0469V36.0469H66.1562V34.0469V32.0469H64.2031V34.0469ZM66.1562 34.0469H68.1562V24.2812H66.1562H64.1562V34.0469H66.1562ZM66.1562 24.2812V22.2812H64.2031V24.2812V26.2812H66.1562V24.2812ZM64.2031 24.2812H66.2031V22.3281H64.2031H62.2031V24.2812H64.2031ZM64.2031 22.3281V24.3281H73.9688V22.3281V20.3281H64.2031V22.3281ZM78.875 36H76.875V38H78.875V36ZM78.875 22.3281V20.3281H76.875V22.3281H78.875ZM90.5938 22.3281H92.5938V20.3281H90.5938V22.3281ZM90.5938 24.2812H88.5938V26.2812H90.5938V24.2812ZM92.5469 24.2812H94.5469V22.2812H92.5469V24.2812ZM92.5469 36V38H94.5469V36H92.5469ZM88.6406 36H86.6406V38H88.6406V36ZM88.6406 24.2812H90.6406V22.2812H88.6406V24.2812ZM84.7344 24.2812V22.2812H82.7327L82.7344 24.2829L84.7344 24.2812ZM84.7441 36V38H86.7458L86.7441 35.9983L84.7441 36ZM78.875 36H80.875V22.3281H78.875H76.875V36H78.875ZM78.875 22.3281V24.3281H90.5938V22.3281V20.3281H78.875V22.3281ZM90.5938 22.3281H88.5938V24.2812H90.5938H92.5938V22.3281H90.5938ZM90.5938 24.2812V26.2812H92.5469V24.2812V22.2812H90.5938V24.2812ZM92.5469 24.2812H90.5469V36H92.5469H94.5469V24.2812H92.5469ZM92.5469 36V34H88.6406V36V38H92.5469V36ZM88.6406 36H90.6406V24.2812H88.6406H86.6406V36H88.6406ZM88.6406 24.2812V22.2812H84.7344V24.2812V26.2812H88.6406V24.2812ZM84.7344 24.2812L82.7344 24.2829L82.7441 36.0017L84.7441 36L86.7441 35.9983L86.7344 24.2796L84.7344 24.2812ZM84.7441 36V34H78.875V36V38H84.7441V36ZM125.797 22.3281H127.797V20.3281H125.797V22.3281ZM125.797 24.2812V26.2812H127.797V24.2812H125.797ZM121.891 24.2812V22.2812H119.891V24.2812H121.891ZM121.891 36V38H123.891V36H121.891ZM116.031 36H114.031V38H116.031V36ZM116.031 24.2812H118.031V22.2812H116.031V24.2812ZM112.125 24.2812H110.125V26.2812H112.125V24.2812ZM112.125 22.3281V20.3281H110.125V22.3281H112.125ZM125.797 22.3281H123.797V24.2812H125.797H127.797V22.3281H125.797ZM125.797 24.2812V22.2812H121.891V24.2812V26.2812H125.797V24.2812ZM121.891 24.2812H119.891V36H121.891H123.891V24.2812H121.891ZM121.891 36V34H116.031V36V38H121.891V36ZM116.031 36H118.031V24.2812H116.031H114.031V36H116.031ZM116.031 24.2812V22.2812H112.125V24.2812V26.2812H116.031V24.2812ZM112.125 24.2812H114.125V22.3281H112.125H110.125V24.2812H112.125ZM112.125 22.3281V24.3281H125.797V22.3281V20.3281H112.125V22.3281ZM142.422 36V38H144.422V36H142.422ZM128.75 36H126.75V38H128.75V36ZM128.75 22.3281V20.3281H126.75V22.3281H128.75ZM142.422 22.3281H144.422V20.3281H142.422V22.3281ZM142.422 24.2812V26.2812H144.422V24.2812H142.422ZM134.609 24.2812V22.2812H132.609V24.2812H134.609ZM134.609 28.1875H132.609V30.1875H134.609V28.1875ZM140.469 28.1875H142.469V26.1875H140.469V28.1875ZM140.469 30.1406V32.1406H142.469V30.1406H140.469ZM134.609 30.1406V28.1406H132.609V30.1406H134.609ZM134.609 34.0469H132.609V36.0469H134.609V34.0469ZM142.422 34.0469H144.422V32.0469H142.422V34.0469ZM142.422 36V34H128.75V36V38H142.422V36ZM128.75 36H130.75V22.3281H128.75H126.75V36H128.75ZM128.75 22.3281V24.3281H142.422V22.3281V20.3281H128.75V22.3281ZM142.422 22.3281H140.422V24.2812H142.422H144.422V22.3281H142.422ZM142.422 24.2812V22.2812H134.609V24.2812V26.2812H142.422V24.2812ZM134.609 24.2812H132.609V28.1875H134.609H136.609V24.2812H134.609ZM134.609 28.1875V30.1875H140.469V28.1875V26.1875H134.609V28.1875ZM140.469 28.1875H138.469V30.1406H140.469H142.469V28.1875H140.469ZM140.469 30.1406V28.1406H134.609V30.1406V32.1406H140.469V30.1406ZM134.609 30.1406H132.609V34.0469H134.609H136.609V30.1406H134.609ZM134.609 34.0469V36.0469H142.422V34.0469V32.0469H134.609V34.0469ZM142.422 34.0469H140.422V36H142.422H144.422V34.0469H142.422ZM159.047 36V38H161.047V36H159.047ZM145.375 36H143.375V38H145.375V36ZM145.375 22.3281V20.3281H143.375V22.3281H145.375ZM151.234 22.3281H153.234V20.3281H151.234V22.3281ZM151.234 34.0469H149.234V36.0469H151.234V34.0469ZM159.047 34.0469H161.047V32.0469H159.047V34.0469ZM159.047 36V34H145.375V36V38H159.047V36ZM145.375 36H147.375V22.3281H145.375H143.375V36H145.375ZM145.375 22.3281V24.3281H151.234V22.3281V20.3281H145.375V22.3281ZM151.234 22.3281H149.234V34.0469H151.234H153.234V22.3281H151.234ZM151.234 34.0469V36.0469H159.047V34.0469V32.0469H151.234V34.0469ZM159.047 34.0469H157.047V36H159.047H161.047V34.0469H159.047ZM175.672 36V38H177.672V36H175.672ZM162 36H160V38H162V36ZM162 22.3281V20.3281H160V22.3281H162ZM175.672 22.3281H177.672V20.3281H175.672V22.3281ZM175.672 24.2812V26.2812H177.672V24.2812H175.672ZM167.859 24.2812V22.2812H165.859V24.2812H167.859ZM167.859 28.1875H165.859V30.1875H167.859V28.1875ZM173.719 28.1875H175.719V26.1875H173.719V28.1875ZM173.719 30.1406V32.1406H175.719V30.1406H173.719ZM167.859 30.1406V28.1406H165.859V30.1406H167.859ZM167.859 34.0469H165.859V36.0469H167.859V34.0469ZM175.672 34.0469H177.672V32.0469H175.672V34.0469ZM175.672 36V34H162V36V38H175.672V36ZM162 36H164V22.3281H162H160V36H162ZM162 22.3281V24.3281H175.672V22.3281V20.3281H162V22.3281ZM175.672 22.3281H173.672V24.2812H175.672H177.672V22.3281H175.672ZM175.672 24.2812V22.2812H167.859V24.2812V26.2812H175.672V24.2812ZM167.859 24.2812H165.859V28.1875H167.859H169.859V24.2812H167.859ZM167.859 28.1875V30.1875H173.719V28.1875V26.1875H167.859V28.1875ZM173.719 28.1875H171.719V30.1406H173.719H175.719V28.1875H173.719ZM173.719 30.1406V28.1406H167.859V30.1406V32.1406H173.719V30.1406ZM167.859 30.1406H165.859V34.0469H167.859H169.859V30.1406H167.859ZM167.859 34.0469V36.0469H175.672V34.0469V32.0469H167.859V34.0469ZM175.672 34.0469H173.672V36H175.672H177.672V34.0469H175.672ZM192.297 28.1875H194.297V26.1875H192.297V28.1875ZM192.297 34.0469V36.0469H194.297V34.0469H192.297ZM190.344 34.0469V32.0469H188.344V34.0469H190.344ZM190.344 36V38H192.344V36H190.344ZM180.578 36H178.578V38H180.578V36ZM180.578 34.0469H182.578V32.0469H180.578V34.0469ZM178.625 34.0469H176.625V36.0469H178.625V34.0469ZM178.625 24.2812V22.2812H176.625V24.2812H178.625ZM180.578 24.2812V26.2812H182.578V24.2812H180.578ZM180.578 22.3281V20.3281H178.578V22.3281H180.578ZM190.354 22.3281H192.354V20.3281H190.354V22.3281ZM190.354 24.2812H188.354V26.2812H190.354V24.2812ZM192.297 24.2812H194.297V22.2812H192.297V24.2812ZM192.297 26.2344V28.2344H194.297V26.2344H192.297ZM190.344 26.2344H188.344V28.2344H190.344V26.2344ZM190.344 24.2812H192.344V22.2812H190.344V24.2812ZM184.484 24.2812V22.2812H182.484V24.2812H184.484ZM184.484 34.0469H182.484V36.0469H184.484V34.0469ZM188.391 34.0469V36.0469H190.391V34.0469H188.391ZM188.391 30.1406H190.391V28.1406H188.391V30.1406ZM186.438 30.1406L184.438 30.1306L184.427 32.1406H186.438V30.1406ZM186.447 28.1875V26.1875H184.457L184.447 28.1775L186.447 28.1875ZM192.297 28.1875H190.297V34.0469H192.297H194.297V28.1875H192.297ZM192.297 34.0469V32.0469H190.344V34.0469V36.0469H192.297V34.0469ZM190.344 34.0469H188.344V36H190.344H192.344V34.0469H190.344ZM190.344 36V34H180.578V36V38H190.344V36ZM180.578 36H182.578V34.0469H180.578H178.578V36H180.578ZM180.578 34.0469V32.0469H178.625V34.0469V36.0469H180.578V34.0469ZM178.625 34.0469H180.625V24.2812H178.625H176.625V34.0469H178.625ZM178.625 24.2812V26.2812H180.578V24.2812V22.2812H178.625V24.2812ZM180.578 24.2812H182.578V22.3281H180.578H178.578V24.2812H180.578ZM180.578 22.3281V24.3281H190.354V22.3281V20.3281H180.578V22.3281ZM190.354 22.3281H188.354V24.2812H190.354H192.354V22.3281H190.354ZM190.354 24.2812V26.2812H192.297V24.2812V22.2812H190.354V24.2812ZM192.297 24.2812H190.297V26.2344H192.297H194.297V24.2812H192.297ZM192.297 26.2344V24.2344H190.344V26.2344V28.2344H192.297V26.2344ZM190.344 26.2344H192.344V24.2812H190.344H188.344V26.2344H190.344ZM190.344 24.2812V22.2812H184.484V24.2812V26.2812H190.344V24.2812ZM184.484 24.2812H182.484V34.0469H184.484H186.484V24.2812H184.484ZM184.484 34.0469V36.0469H188.391V34.0469V32.0469H184.484V34.0469ZM188.391 34.0469H190.391V30.1406H188.391H186.391V34.0469H188.391ZM188.391 30.1406V28.1406H186.438V30.1406V32.1406H188.391V30.1406ZM186.438 30.1406L188.437 30.1506L188.447 28.1975L186.447 28.1875L184.447 28.1775L184.438 30.1306L186.438 30.1406ZM186.447 28.1875V30.1875H192.297V28.1875V26.1875H186.447V28.1875ZM195.25 36H193.25V38H195.25V36ZM195.25 22.3281V20.3281H193.25V22.3281H195.25ZM206.969 22.3281H208.969V20.3281H206.969V22.3281ZM206.969 24.2812H204.969V26.2812H206.969V24.2812ZM208.922 24.2812H210.922V22.2812H208.922V24.2812ZM208.922 28.1875V30.1875H210.922V28.1875H208.922ZM206.969 28.1875V26.1875H204.969V28.1875H206.969ZM206.969 30.1406H204.969V32.1406H206.969V30.1406ZM208.922 30.1406H210.922V28.1406H208.922V30.1406ZM208.922 36V38H210.922V36H208.922ZM203.062 36H201.062V38H203.062V36ZM203.062 30.1406H205.062V28.1406H203.062V30.1406ZM199.166 30.1406V28.1406H197.166V30.1406H199.166ZM199.166 36V38H201.166V36H199.166ZM201.109 24.2812V22.2812H199.109V24.2812H201.109ZM201.109 28.1875H199.109V30.1875H201.109V28.1875ZM205.016 28.1875V30.1875H207.016V28.1875H205.016ZM205.016 24.2812H207.016V22.2812H205.016V24.2812ZM195.25 36H197.25V22.3281H195.25H193.25V36H195.25ZM195.25 22.3281V24.3281H206.969V22.3281V20.3281H195.25V22.3281ZM206.969 22.3281H204.969V24.2812H206.969H208.969V22.3281H206.969ZM206.969 24.2812V26.2812H208.922V24.2812V22.2812H206.969V24.2812ZM208.922 24.2812H206.922V28.1875H208.922H210.922V24.2812H208.922ZM208.922 28.1875V26.1875H206.969V28.1875V30.1875H208.922V28.1875ZM206.969 28.1875H204.969V30.1406H206.969H208.969V28.1875H206.969ZM206.969 30.1406V32.1406H208.922V30.1406V28.1406H206.969V30.1406ZM208.922 30.1406H206.922V36H208.922H210.922V30.1406H208.922ZM208.922 36V34H203.062V36V38H208.922V36ZM203.062 36H205.062V30.1406H203.062H201.062V36H203.062ZM203.062 30.1406V28.1406H199.166V30.1406V32.1406H203.062V30.1406ZM199.166 30.1406H197.166V36H199.166H201.166V30.1406H199.166ZM199.166 36V34H195.25V36V38H199.166V36ZM201.109 24.2812H199.109V28.1875H201.109H203.109V24.2812H201.109ZM201.109 28.1875V30.1875H205.016V28.1875V26.1875H201.109V28.1875ZM205.016 28.1875H207.016V24.2812H205.016H203.016V28.1875H205.016ZM205.016 24.2812V22.2812H201.109V24.2812V26.2812H205.016V24.2812ZM211.875 36H209.875V38H211.875V36ZM211.875 24.2812V22.2812H209.875V24.2812H211.875ZM213.828 24.2812V26.2812H215.828V24.2812H213.828ZM213.828 22.3281V20.3281H211.828V22.3281H213.828ZM223.594 22.3281H225.594V20.3281H223.594V22.3281ZM223.594 24.2812H221.594V26.2812H223.594V24.2812ZM225.547 24.2812H227.547V22.2812H225.547V24.2812ZM225.547 36V38H227.547V36H225.547ZM221.641 36H219.641V38H221.641V36ZM221.641 30.1406H223.641V28.1406H221.641V30.1406ZM217.734 30.1406V28.1406H215.734V30.1406H217.734ZM217.734 36V38H219.734V36H217.734ZM217.734 24.584V22.584H215.734V24.584H217.734ZM217.734 28.1875H215.734V30.1875H217.734V28.1875ZM221.641 28.1875V30.1875H223.641V28.1875H221.641ZM221.641 24.584H223.641V22.584H221.641V24.584ZM211.875 36H213.875V24.2812H211.875H209.875V36H211.875ZM211.875 24.2812V26.2812H213.828V24.2812V22.2812H211.875V24.2812ZM213.828 24.2812H215.828V22.3281H213.828H211.828V24.2812H213.828ZM213.828 22.3281V24.3281H223.594V22.3281V20.3281H213.828V22.3281ZM223.594 22.3281H221.594V24.2812H223.594H225.594V22.3281H223.594ZM223.594 24.2812V26.2812H225.547V24.2812V22.2812H223.594V24.2812ZM225.547 24.2812H223.547V36H225.547H227.547V24.2812H225.547ZM225.547 36V34H221.641V36V38H225.547V36ZM221.641 36H223.641V30.1406H221.641H219.641V36H221.641ZM221.641 30.1406V28.1406H217.734V30.1406V32.1406H221.641V30.1406ZM217.734 30.1406H215.734V36H217.734H219.734V30.1406H217.734ZM217.734 36V34H211.875V36V38H217.734V36ZM217.734 24.584H215.734V28.1875H217.734H219.734V24.584H217.734ZM217.734 28.1875V30.1875H221.641V28.1875V26.1875H217.734V28.1875ZM221.641 28.1875H223.641V24.584H221.641H219.641V28.1875H221.641ZM221.641 24.584V22.584H217.734V24.584V26.584H221.641V24.584ZM238.266 24.2812V22.2812H236.266V24.2812H238.266ZM238.266 36V38H240.266V36H238.266ZM234.359 36H232.359V38H234.359V36ZM234.359 24.2812H236.359V22.2812H234.359V24.2812ZM232.406 24.2812V22.2812H230.406V24.2812H232.406ZM232.406 36V38H234.406V36H232.406ZM228.5 36H226.5V38H228.5V36ZM228.5 22.3281V20.3281H226.5V22.3281H228.5ZM240.229 22.3281H242.229V20.3281H240.229V22.3281ZM240.229 24.2812H238.229V26.2812H240.229V24.2812ZM242.172 24.2812H244.172V22.2812H242.172V24.2812ZM242.172 36V38H244.172V36H242.172ZM240.219 36H238.219V38H240.219V36ZM240.219 24.2812H242.219V22.2812H240.219V24.2812ZM238.266 24.2812H236.266V36H238.266H240.266V24.2812H238.266ZM238.266 36V34H234.359V36V38H238.266V36ZM234.359 36H236.359V24.2812H234.359H232.359V36H234.359ZM234.359 24.2812V22.2812H232.406V24.2812V26.2812H234.359V24.2812ZM232.406 24.2812H230.406V36H232.406H234.406V24.2812H232.406ZM232.406 36V34H228.5V36V38H232.406V36ZM228.5 36H230.5V22.3281H228.5H226.5V36H228.5ZM228.5 22.3281V24.3281H240.229V22.3281V20.3281H228.5V22.3281ZM240.229 22.3281H238.229V24.2812H240.229H242.229V22.3281H240.229ZM240.229 24.2812V26.2812H242.172V24.2812V22.2812H240.229V24.2812ZM242.172 24.2812H240.172V36H242.172H244.172V24.2812H242.172ZM242.172 36V34H240.219V36V38H242.172V36ZM240.219 36H242.219V24.2812H240.219H238.219V36H240.219ZM240.219 24.2812V22.2812H238.266V24.2812V26.2812H240.219V24.2812Z" fill="#270300" mask="url(#path-10-outside-1_43_4973)"/>
</g>
</g>
<defs>
<filter id="filter0_d_43_4973" x="0" y="0" width="275" height="64.5122" filterUnits="userSpaceOnUse" color-interpolation-filters="sRGB">
<feFlood flood-opacity="0" result="BackgroundImageFix"/>
<feColorMatrix in="SourceAlpha" type="matrix" values="0 0 0 0 0 0 0 0 0 0 0 0 0 0 0 0 0 0 127 0" result="hardAlpha"/>
<feOffset dy="4.5122"/>
<feComposite in2="hardAlpha" operator="out"/>
<feColorMatrix type="matrix" values="0 0 0 0 0.4 0 0 0 0 0.294118 0 0 0 0 0 0 0 0 1 0"/>
<feBlend mode="normal" in2="BackgroundImageFix" result="effect1_dropShadow_43_4973"/>
<feBlend mode="normal" in="SourceGraphic" in2="effect1_dropShadow_43_4973" result="shape"/>
</filter>
<filter id="filter1_d_43_4973" x="28.9531" y="20.3281" width="215.219" height="19.6719" filterUnits="userSpaceOnUse" color-interpolation-filters="sRGB">
<feFlood flood-opacity="0" result="BackgroundImageFix"/>
<feColorMatrix in="SourceAlpha" type="matrix" values="0 0 0 0 0 0 0 0 0 0 0 0 0 0 0 0 0 0 127 0" result="hardAlpha"/>
<feOffset dy="2"/>
<feComposite in2="hardAlpha" operator="out"/>
<feColorMatrix type="matrix" values="0 0 0 0 0.686275 0 0 0 0 0.47451 0 0 0 0 0.137255 0 0 0 1 0"/>
<feBlend mode="normal" in2="BackgroundImageFix" result="effect1_dropShadow_43_4973"/>
<feBlend mode="normal" in="SourceGraphic" in2="effect1_dropShadow_43_4973" result="shape"/>
</filter>
</defs>
</svg>
