<svg width="261" height="117" viewBox="0 0 261 117" fill="none" xmlns="http://www.w3.org/2000/svg">
<path d="M147.561 16.6876V14.2507V11.8138H145.124V9.37596H142.686V6.93908H140.25H137.812V4.50122H135.375H132.937H130.5H128.063H125.625H123.187V6.93908H120.751H118.314V9.37596H115.876V11.8138H113.439V14.2507V16.6876H111.001V19.1254V21.5633V24.0002V26.4371V28.8749V31.3118H113.439V33.7497V36.1866H115.876V38.6244H118.314V41.0613H120.751H123.187V43.4992H125.625H128.063H130.5H132.937H135.375H137.812V41.0613H140.25H142.686V38.6244H145.124V36.1866H147.561V33.7497V31.3118H149.999V28.8749V26.4371V24.0002V21.5633V19.1254V16.6876H147.561Z" fill="#0EC6CC"/>
<path d="M147.562 24H145.124V26.4379H147.562V24Z" fill="#02A5B8"/>
<path d="M147.562 26.437H145.124V28.8749H147.562V26.437Z" fill="#02A5B8"/>
<path d="M147.562 28.8748H145.124V31.3126H147.562V28.8748Z" fill="#0EC6CC"/>
<path d="M149.999 24H147.561V26.4379H149.999V24Z" fill="#02A5B8"/>
<path d="M149.999 26.437H147.561V28.8749H149.999V26.437Z" fill="#0EC6CC"/>
<path d="M147.562 31.3118H145.124V33.7496H147.562V31.3118Z" fill="#0094C5"/>
<path d="M145.124 33.7495H142.686V36.1874H145.124V33.7495Z" fill="#0076B5"/>
<path d="M142.687 36.1865H140.25V38.6244H142.687V36.1865Z" fill="#0076B5"/>
<path d="M142.687 33.7495H140.25V36.1874H142.687V33.7495Z" fill="#0094C5"/>
<path d="M142.687 31.3118H140.25V33.7496H142.687V31.3118Z" fill="#0EC6CC"/>
<path d="M142.687 28.8748H140.25V31.3126H142.687V28.8748Z" fill="#0EC6CC"/>
<path d="M142.687 26.437H140.25V28.8749H142.687V26.437Z" fill="#02A5B8"/>
<path d="M140.25 38.6243H137.812V41.0621H140.25V38.6243Z" fill="#02A5B8"/>
<path d="M140.25 36.1865H137.812V38.6244H140.25V36.1865Z" fill="#0094C5"/>
<path d="M140.25 33.7495H137.812V36.1874H140.25V33.7495Z" fill="#0094C5"/>
<path d="M140.25 31.3118H137.812V33.7496H140.25V31.3118Z" fill="#0EC6CC"/>
<path d="M140.25 28.8748H137.812V31.3126H140.25V28.8748Z" fill="#0EC6CC"/>
<path d="M140.25 26.437H137.812V28.8749H140.25V26.437Z" fill="#02A5B8"/>
<path d="M137.813 38.6243H135.375V41.0621H137.813V38.6243Z" fill="#0094C5"/>
<path d="M137.813 36.1865H135.375V38.6244H137.813V36.1865Z" fill="#0094C5"/>
<path d="M137.813 33.7495H135.375V36.1874H137.813V33.7495Z" fill="#0EC6CC"/>
<path d="M137.813 31.3118H135.375V33.7496H137.813V31.3118Z" fill="#0EC6CC"/>
<path d="M137.813 28.8748H135.375V31.3126H137.813V28.8748Z" fill="#02A5B8"/>
<path d="M137.813 26.437H135.375V28.8749H137.813V26.437Z" fill="#74DFE3"/>
<path d="M135.375 41.0613H132.937V43.4991H135.375V41.0613Z" fill="#02A5B8"/>
<path d="M135.375 38.6243H132.937V41.0621H135.375V38.6243Z" fill="#0076B5"/>
<path d="M135.375 36.1865H132.937V38.6244H135.375V36.1865Z" fill="#0094C5"/>
<path d="M135.375 33.7495H132.937V36.1874H135.375V33.7495Z" fill="#0EC6CC"/>
<path d="M135.375 31.3118H132.937V33.7496H135.375V31.3118Z" fill="#0EC6CC"/>
<path d="M135.375 28.8748H132.937V31.3126H135.375V28.8748Z" fill="#02A5B8"/>
<path d="M135.375 26.437H132.937V28.8749H135.375V26.437Z" fill="#74DFE3"/>
<path d="M132.938 41.0613H130.5V43.4991H132.938V41.0613Z" fill="#02A5B8"/>
<path d="M132.938 38.6243H130.5V41.0621H132.938V38.6243Z" fill="#0076B5"/>
<path d="M132.938 36.1865H130.5V38.6244H132.938V36.1865Z" fill="#0094C5"/>
<path d="M132.938 33.7495H130.5V36.1874H132.938V33.7495Z" fill="#0094C5"/>
<path d="M132.938 31.3118H130.5V33.7496H132.938V31.3118Z" fill="#0EC6CC"/>
<path d="M132.938 28.8748H130.5V31.3126H132.938V28.8748Z" fill="#74DFE3"/>
<path d="M132.938 26.437H130.5V28.8749H132.938V26.437Z" fill="#0EC6CC"/>
<path d="M132.938 24H130.5V26.4379H132.938V24Z" fill="#0EC6CC"/>
<path d="M135.375 24H132.937V26.4379H135.375V24Z" fill="#0EC6CC"/>
<path d="M137.813 24H135.375V26.4379H137.813V24Z" fill="#0EC6CC"/>
<path d="M140.25 24H137.812V26.4379H140.25V24Z" fill="#74DFE3"/>
<path d="M142.687 24H140.25V26.4379H142.687V24Z" fill="#74DFE3"/>
<path d="M145.124 24H142.686V26.4379H145.124V24Z" fill="#0EC6CC"/>
<path d="M145.124 26.437H142.686V28.8749H145.124V26.437Z" fill="#02A5B8"/>
<path d="M145.124 28.8748H142.686V31.3126H145.124V28.8748Z" fill="#0EC6CC"/>
<path d="M145.124 31.3118H142.686V33.7496H145.124V31.3118Z" fill="#0094C5"/>
<path d="M130.501 6.93787V9.37573H132.938V6.93787H130.501Z" fill="#B3F2F5"/>
<path d="M132.938 6.9386V9.37646H135.376V6.9386H132.938Z" fill="#B3F2F5"/>
<path d="M135.375 6.93787V9.37573H137.813V6.93787H135.375Z" fill="#B3F2F5"/>
<path d="M130.5 4.50061V6.93848H132.938V4.50061H130.5Z" fill="#74DFE3"/>
<path d="M132.937 4.5011V6.93896H135.375V4.5011H132.937Z" fill="#74DFE3"/>
<path d="M137.813 6.9386V9.37646H140.25V6.9386H137.813Z" fill="#74DFE3"/>
<path d="M140.25 9.37537V11.8132H142.687V9.37537H140.25Z" fill="#74DFE3"/>
<path d="M142.687 11.8134V14.2512H145.125V11.8134H142.687Z" fill="#0EC6CC"/>
<path d="M140.25 11.8126V14.2505H142.688V11.8126H140.25Z" fill="#0EC6CC"/>
<path d="M137.813 11.8134V14.2512H140.25V11.8134H137.813Z" fill="#74DFE3"/>
<path d="M135.375 11.8126V14.2505H137.813V11.8126H135.375Z" fill="#B3F2F5"/>
<path d="M132.938 11.8134V14.2512H135.376V11.8134H132.938Z" fill="#E3F3F0"/>
<path d="M145.124 14.2501V16.688H147.562V14.2501H145.124Z" fill="#0094C5"/>
<path d="M142.687 14.2506V16.6885H145.125V14.2506H142.687Z" fill="#0EC6CC"/>
<path d="M140.25 14.2501V16.688H142.687V14.2501H140.25Z" fill="#0EC6CC"/>
<path d="M137.812 14.2506V16.6885H140.25V14.2506H137.812Z" fill="#0EC6CC"/>
<path d="M135.375 14.2501V16.688H137.813V14.2501H135.375Z" fill="#74DFE3"/>
<path d="M132.937 14.2506V16.6885H135.375V14.2506H132.937Z" fill="#74DFE3"/>
<path d="M145.124 16.6874V19.1252H147.562V16.6874H145.124Z" fill="#0094C5"/>
<path d="M142.686 16.6881V19.126H145.124V16.6881H142.686Z" fill="#0094C5"/>
<path d="M140.249 16.6874V19.1252H142.687V16.6874H140.249Z" fill="#0094C5"/>
<path d="M137.812 16.6881V19.126H140.25V16.6881H137.812Z" fill="#0EC6CC"/>
<path d="M135.374 16.6874V19.1252H137.812V16.6874H135.374Z" fill="#0EC6CC"/>
<path d="M132.937 16.6881V19.126H135.375V16.6881H132.937Z" fill="#0EC6CC"/>
<path d="M147.562 19.1254V21.5632H149.999V19.1254H147.562Z" fill="#0EC6CC"/>
<path d="M135.375 4.50061V6.93848H137.813V4.50061H135.375Z" fill="#74DFE3"/>
<path d="M140.25 6.93787V9.37573H142.688V6.93787H140.25Z" fill="#0EC6CC"/>
<path d="M142.687 9.37586V11.8137H145.125V9.37586H142.687Z" fill="#0EC6CC"/>
<path d="M145.125 11.8126V14.2505H147.563V11.8126H145.125Z" fill="#0EC6CC"/>
<path d="M147.561 16.6881V19.126H149.999V16.6881H147.561Z" fill="#0094C5"/>
<path d="M145.124 19.1249V21.5627H147.562V19.1249H145.124Z" fill="#0094C5"/>
<path d="M142.687 19.1254V21.5632H145.125V19.1254H142.687Z" fill="#0094C5"/>
<path d="M140.25 19.1249V21.5627H142.687V19.1249H140.25Z" fill="#0094C5"/>
<path d="M137.812 19.1254V21.5632H140.25V19.1254H137.812Z" fill="#0094C5"/>
<path d="M135.375 19.1249V21.5627H137.813V19.1249H135.375Z" fill="#0094C5"/>
<path d="M132.937 19.1254V21.5632H135.375V19.1254H132.937Z" fill="#0094C5"/>
<path d="M147.562 21.5629V24.0007H150V21.5629H147.562Z" fill="#02A5B8"/>
<path d="M145.125 21.5621V24H147.563V21.5621H145.125Z" fill="#0EC6CC"/>
<path d="M142.687 21.5629V24.0007H145.125V21.5629H142.687Z" fill="#0EC6CC"/>
<path d="M140.25 21.5621V24H142.688V21.5621H140.25Z" fill="#0094C5"/>
<path d="M137.813 21.5629V24.0007H140.25V21.5629H137.813Z" fill="#0094C5"/>
<path d="M135.375 21.5621V24H137.813V21.5621H135.375Z" fill="#0094C5"/>
<path d="M132.938 21.5629V24.0007H135.376V21.5629H132.938Z" fill="#0094C5"/>
<path d="M130.501 21.5621V24H132.938V21.5621H130.501Z" fill="#0094C5"/>
<path d="M130.5 19.1249V21.5627H132.938V19.1249H130.5Z" fill="#0094C5"/>
<path d="M130.5 16.6874V19.1252H132.937V16.6874H130.5Z" fill="#0EC6CC"/>
<path d="M130.5 14.2501V16.688H132.938V14.2501H130.5Z" fill="#74DFE3"/>
<path d="M130.501 11.8126V14.2505H132.938V11.8126H130.501Z" fill="#E3F3F0"/>
<path d="M130.5 9.37537V11.8132H132.938V9.37537H130.5Z" fill="#E3F3F0"/>
<path d="M132.937 9.37586V11.8137H135.375V9.37586H132.937Z" fill="#B3F2F5"/>
<path d="M135.375 9.37537V11.8132H137.813V9.37537H135.375Z" fill="#B3F2F5"/>
<path d="M137.812 9.37586V11.8137H140.25V9.37586H137.812Z" fill="#B3F2F5"/>
<path d="M113.437 23.9998H115.875V21.5619H113.437V23.9998Z" fill="#02A5B8"/>
<path d="M113.437 21.5627H115.875V19.1249H113.437V21.5627Z" fill="#0EC6CC"/>
<path d="M113.437 19.126H115.875V16.6881H113.437V19.126Z" fill="#74DFE3"/>
<path d="M111.001 23.9998H113.438V21.5619H111.001V23.9998Z" fill="#02A5B8"/>
<path d="M111.001 21.5627H113.438V19.1249H111.001V21.5627Z" fill="#02A5B8"/>
<path d="M113.437 16.688H115.875V14.2501H113.437V16.688Z" fill="#0094C5"/>
<path d="M115.875 14.2502H118.313V11.8124H115.875V14.2502Z" fill="#0EC6CC"/>
<path d="M118.312 11.8132H120.75V9.37537H118.312V11.8132Z" fill="#74DFE3"/>
<path d="M118.312 14.2502H120.75V11.8124H118.312V14.2502Z" fill="#02A5B8"/>
<path d="M118.312 16.688H120.75V14.2501H118.312V16.688Z" fill="#0EC6CC"/>
<path d="M118.312 19.126H120.75V16.6881H118.312V19.126Z" fill="#0094C5"/>
<path d="M118.312 21.5627H120.75V19.1249H118.312V21.5627Z" fill="#74DFE3"/>
<path d="M120.75 9.37549H123.188V6.93763H120.75V9.37549Z" fill="#74DFE3"/>
<path d="M120.75 11.8132H123.188V9.37537H120.75V11.8132Z" fill="#E3F3F0"/>
<path d="M120.75 14.2502H123.188V11.8124H120.75V14.2502Z" fill="#74DFE3"/>
<path d="M120.75 16.688H123.188V14.2501H120.75V16.688Z" fill="#0EC6CC"/>
<path d="M120.75 19.126H123.188V16.6881H120.75V19.126Z" fill="#0EC6CC"/>
<path d="M120.75 21.5627H123.188V19.1249H120.75V21.5627Z" fill="#0094C5"/>
<path d="M123.188 9.37549H125.626V6.93763H123.188V9.37549Z" fill="#E3F3F0"/>
<path d="M111.001 19.126H113.438V16.6881H111.001V19.126Z" fill="#74DFE3"/>
<path d="M113.437 14.2502H115.875V11.8124H113.437V14.2502Z" fill="#0EC6CC"/>
<path d="M115.875 11.8132H118.313V9.37537H115.875V11.8132Z" fill="#02A5B8"/>
<path d="M118.312 9.37549H120.75V6.93763H118.312V9.37549Z" fill="#0EC6CC"/>
<path d="M123.188 6.93848H125.626V4.50061H123.188V6.93848Z" fill="#74DFE3"/>
<path d="M123.188 11.8132H125.626V9.37537H123.188V11.8132Z" fill="#E3F3F0"/>
<path d="M123.188 14.2502H125.626V11.8124H123.188V14.2502Z" fill="#E3F3F0"/>
<path d="M123.188 16.688H125.626V14.2501H123.188V16.688Z" fill="#74DFE3"/>
<path d="M123.188 19.126H125.626V16.6881H123.188V19.126Z" fill="#0EC6CC"/>
<path d="M123.188 21.5627H125.626V19.1249H123.188V21.5627Z" fill="#0094C5"/>
<path d="M125.625 6.93848H128.063V4.50061H125.625V6.93848Z" fill="#74DFE3"/>
<path d="M125.625 9.37549H128.063V6.93763H125.625V9.37549Z" fill="#E3F3F0"/>
<path d="M125.625 11.8132H128.063V9.37537H125.625V11.8132Z" fill="#E3F3F0"/>
<path d="M125.625 14.2502H128.063V11.8124H125.625V14.2502Z" fill="#E3F3F0"/>
<path d="M125.625 16.688H128.063V14.2501H125.625V16.688Z" fill="#74DFE3"/>
<path d="M125.625 19.126H128.063V16.6881H125.625V19.126Z" fill="#0EC6CC"/>
<path d="M125.625 21.5627H128.063V19.1249H125.625V21.5627Z" fill="#0094C5"/>
<path d="M128.062 6.93848H130.5V4.50061H128.062V6.93848Z" fill="#74DFE3"/>
<path d="M128.062 9.37549H130.5V6.93763H128.062V9.37549Z" fill="#B3F2F5"/>
<path d="M128.062 11.8132H130.5V9.37537H128.062V11.8132Z" fill="#E3F3F0"/>
<path d="M128.062 14.2502H130.5V11.8124H128.062V14.2502Z" fill="#E3F3F0"/>
<path d="M128.062 16.688H130.5V14.2501H128.062V16.688Z" fill="#74DFE3"/>
<path d="M128.062 19.126H130.5V16.6881H128.062V19.126Z" fill="#0EC6CC"/>
<path d="M128.062 21.5627H130.5V19.1249H128.062V21.5627Z" fill="#0094C5"/>
<path d="M128.062 23.9998H130.5V21.5619H128.062V23.9998Z" fill="#0094C5"/>
<path d="M125.625 23.9998H128.063V21.5619H125.625V23.9998Z" fill="#0EC6CC"/>
<path d="M123.188 23.9998H125.626V21.5619H123.188V23.9998Z" fill="#0EC6CC"/>
<path d="M120.75 23.9998H123.188V21.5619H120.75V23.9998Z" fill="#0EC6CC"/>
<path d="M118.312 23.9998H120.75V21.5619H118.312V23.9998Z" fill="#0EC6CC"/>
<path d="M115.875 23.9998H118.313V21.5619H115.875V23.9998Z" fill="#0EC6CC"/>
<path d="M115.875 21.5627H118.313V19.1249H115.875V21.5627Z" fill="#74DFE3"/>
<path d="M115.875 19.126H118.313V16.6881H115.875V19.126Z" fill="#0094C5"/>
<path d="M115.875 16.688H118.313V14.2501H115.875V16.688Z" fill="#74DFE3"/>
<path d="M130.5 41.0629V38.625H128.062V41.0629H130.5Z" fill="#0094C5"/>
<path d="M128.063 41.0621V38.6243H125.625V41.0621H128.063Z" fill="#0094C5"/>
<path d="M125.625 41.0619V38.624H123.187V41.0619H125.625Z" fill="#0094C5"/>
<path d="M130.501 43.5001V41.0623H128.063V43.5001H130.501Z" fill="#02A5B8"/>
<path d="M128.063 43.4996V41.0618H125.625V43.4996H128.063Z" fill="#02A5B8"/>
<path d="M123.188 41.0621V38.6243H120.75V41.0621H123.188Z" fill="#02A5B8"/>
<path d="M120.751 38.6254V36.1875H118.313V38.6254H120.751Z" fill="#0094C5"/>
<path d="M118.313 36.1874V33.7495H115.875V36.1874H118.313Z" fill="#0094C5"/>
<path d="M120.751 36.1881V33.7502H118.313V36.1881H120.751Z" fill="#0076B5"/>
<path d="M123.188 36.1874V33.7495H120.75V36.1874H123.188Z" fill="#0076B5"/>
<path d="M125.625 36.1871V33.7493H123.187V36.1871H125.625Z" fill="#0076B5"/>
<path d="M128.063 36.1874V33.7495H125.625V36.1874H128.063Z" fill="#0094C5"/>
<path d="M115.876 33.7506V31.3127H113.438V33.7506H115.876Z" fill="#0076B5"/>
<path d="M118.314 33.7501V31.3123H115.876V33.7501H118.314Z" fill="#0076B5"/>
<path d="M120.751 33.7506V31.3127H118.313V33.7506H120.751Z" fill="#0094C5"/>
<path d="M123.188 33.7501V31.3123H120.751V33.7501H123.188Z" fill="#0094C5"/>
<path d="M125.626 33.7496V31.3118H123.188V33.7496H125.626Z" fill="#0094C5"/>
<path d="M128.063 33.7501V31.3123H125.625V33.7501H128.063Z" fill="#0094C5"/>
<path d="M115.876 31.3134V28.8755H113.438V31.3134H115.876Z" fill="#0076B5"/>
<path d="M118.313 31.3126V28.8748H115.875V31.3126H118.313Z" fill="#0094C5"/>
<path d="M120.751 31.3134V28.8755H118.313V31.3134H120.751Z" fill="#0094C5"/>
<path d="M123.188 31.3126V28.8748H120.75V31.3126H123.188Z" fill="#0EC6CC"/>
<path d="M125.625 31.3124V28.8745H123.187V31.3124H125.625Z" fill="#0EC6CC"/>
<path d="M128.063 31.3126V28.8748H125.625V31.3126H128.063Z" fill="#74DFE3"/>
<path d="M113.439 28.8754V26.4375H111.001V28.8754H113.439Z" fill="#0094C5"/>
<path d="M149.999 28.8748H147.561V31.3126H149.999V28.8748Z" fill="#0094C5"/>
<path d="M147.562 33.7495H145.124V36.1874H147.562V33.7495Z" fill="#0076B5"/>
<path d="M145.124 36.1865H142.686V38.6244H145.124V36.1865Z" fill="#0094C5"/>
<path d="M142.687 38.6243H140.25V41.0621H142.687V38.6243Z" fill="#02A5B8"/>
<path d="M137.813 41.0613H135.375V43.4991H137.813V41.0613Z" fill="#02A5B8"/>
<path d="M125.626 43.4991V41.0613H123.188V43.4991H125.626Z" fill="#02A5B8"/>
<path d="M120.751 41.0629V38.625H118.313V41.0629H120.751Z" fill="#02A5B8"/>
<path d="M118.314 38.6249V36.187H115.876V38.6249H118.314Z" fill="#0094C5"/>
<path d="M115.876 36.1881V33.7502H113.438V36.1881H115.876Z" fill="#0094C5"/>
<path d="M113.438 31.3126V28.8748H111.001V31.3126H113.438Z" fill="#0076B5"/>
<path d="M115.876 28.8759V26.438H113.438V28.8759H115.876Z" fill="#0EC6CC"/>
<path d="M118.314 28.8754V26.4375H115.876V28.8754H118.314Z" fill="#0EC6CC"/>
<path d="M120.751 28.8759V26.438H118.313V28.8759H120.751Z" fill="#0EC6CC"/>
<path d="M123.188 28.8754V26.4375H120.751V28.8754H123.188Z" fill="#74DFE3"/>
<path d="M125.626 28.8749V26.437H123.188V28.8749H125.626Z" fill="#74DFE3"/>
<path d="M128.063 28.8754V26.4375H125.625V28.8754H128.063Z" fill="#02A5B8"/>
<path d="M113.438 26.4379V24H111.001V26.4379H113.438Z" fill="#0EC6CC"/>
<path d="M115.876 26.4386V24.0007H113.438V26.4386H115.876Z" fill="#02A5B8"/>
<path d="M118.313 26.4379V24H115.875V26.4379H118.313Z" fill="#02A5B8"/>
<path d="M120.751 26.4386V24.0007H118.313V26.4386H120.751Z" fill="#02A5B8"/>
<path d="M123.188 26.4379V24H120.75V26.4379H123.188Z" fill="#02A5B8"/>
<path d="M125.625 26.4376V23.9998H123.187V26.4376H125.625Z" fill="#02A5B8"/>
<path d="M128.063 26.4379V24H125.625V26.4379H128.063Z" fill="#0EC6CC"/>
<path d="M130.5 26.4386V24.0007H128.062V26.4386H130.5Z" fill="#0EC6CC"/>
<path d="M130.501 28.8758V26.438H128.063V28.8758H130.501Z" fill="#02A5B8"/>
<path d="M130.5 31.3133V28.8755H128.062V31.3133H130.5Z" fill="#74DFE3"/>
<path d="M130.501 33.7506V31.3127H128.063V33.7506H130.501Z" fill="#0094C5"/>
<path d="M130.5 36.1881V33.7502H128.062V36.1881H130.5Z" fill="#0094C5"/>
<path d="M130.501 38.6254V36.1875H128.063V38.6254H130.501Z" fill="#0076B5"/>
<path d="M128.063 38.6249V36.187H125.625V38.6249H128.063Z" fill="#0076B5"/>
<path d="M125.626 38.6244V36.1865H123.188V38.6244H125.626Z" fill="#0076B5"/>
<path d="M123.188 38.6249V36.187H120.751V38.6249H123.188Z" fill="#0094C5"/>
<g filter="url(#filter0_d_43_2386)">
<mask id="path-210-outside-1_43_2386" maskUnits="userSpaceOnUse" x="54" y="54" width="151" height="18" fill="black">
<rect fill="white" x="54" y="54" width="151" height="18"/>
<path d="M61.0703 58.2812V62.1875H67.9062V64.1406H69.8594V68.0469H67.9062V70H56.1875V68.0469H65.9531V64.1406H56.1875V56.3281H69.8594V58.2812H61.0703ZM86.4844 56.3281V58.2812H82.5781V70H76.7188V58.2812H72.8125V56.3281H86.4844ZM103.109 56.3281V70H99.2031V64.1406H95.2969V70H89.4375V56.3281H95.2969V62.1875H99.2031V56.3281H103.109ZM128.557 64.1406L128.576 70H122.688V56.3281H134.406V58.2812H136.359V62.1875H134.406V64.1406H128.557ZM128.547 58.2812V62.1875H132.453V58.2812H128.547ZM139.312 70V56.3281H151.031V58.2812H152.984V62.1875H151.031V64.1406H152.984V70H147.125V64.1406H143.229V70H139.312ZM145.172 58.2812V62.1875H149.078V58.2812H145.172ZM167.656 56.3281V58.2812H165.703V68.0469H167.656V70H157.891V68.0469H159.844V58.2812H157.891V56.3281H167.656ZM172.562 70V66.0938H174.516V64.1406H176.469V62.1875H178.422V60.2344H180.375V58.2812H172.562V56.3281H186.234V60.2344H184.281V62.1875H182.328V64.1406H180.375V66.0938H178.422V68.0469H186.234V70H172.562ZM202.859 70H189.188V56.3281H202.859V58.2812H195.047V62.1875H200.906V64.1406H195.047V68.0469H202.859V70Z"/>
</mask>
<path d="M61.0703 58.2812V62.1875H67.9062V64.1406H69.8594V68.0469H67.9062V70H56.1875V68.0469H65.9531V64.1406H56.1875V56.3281H69.8594V58.2812H61.0703ZM86.4844 56.3281V58.2812H82.5781V70H76.7188V58.2812H72.8125V56.3281H86.4844ZM103.109 56.3281V70H99.2031V64.1406H95.2969V70H89.4375V56.3281H95.2969V62.1875H99.2031V56.3281H103.109ZM128.557 64.1406L128.576 70H122.688V56.3281H134.406V58.2812H136.359V62.1875H134.406V64.1406H128.557ZM128.547 58.2812V62.1875H132.453V58.2812H128.547ZM139.312 70V56.3281H151.031V58.2812H152.984V62.1875H151.031V64.1406H152.984V70H147.125V64.1406H143.229V70H139.312ZM145.172 58.2812V62.1875H149.078V58.2812H145.172ZM167.656 56.3281V58.2812H165.703V68.0469H167.656V70H157.891V68.0469H159.844V58.2812H157.891V56.3281H167.656ZM172.562 70V66.0938H174.516V64.1406H176.469V62.1875H178.422V60.2344H180.375V58.2812H172.562V56.3281H186.234V60.2344H184.281V62.1875H182.328V64.1406H180.375V66.0938H178.422V68.0469H186.234V70H172.562ZM202.859 70H189.188V56.3281H202.859V58.2812H195.047V62.1875H200.906V64.1406H195.047V68.0469H202.859V70Z" fill="white"/>
<path d="M61.0703 58.2812V56.2812H59.0703V58.2812H61.0703ZM61.0703 62.1875H59.0703V64.1875H61.0703V62.1875ZM67.9062 62.1875H69.9062V60.1875H67.9062V62.1875ZM67.9062 64.1406H65.9062V66.1406H67.9062V64.1406ZM69.8594 64.1406H71.8594V62.1406H69.8594V64.1406ZM69.8594 68.0469V70.0469H71.8594V68.0469H69.8594ZM67.9062 68.0469V66.0469H65.9062V68.0469H67.9062ZM67.9062 70V72H69.9062V70H67.9062ZM56.1875 70H54.1875V72H56.1875V70ZM56.1875 68.0469V66.0469H54.1875V68.0469H56.1875ZM65.9531 68.0469V70.0469H67.9531V68.0469H65.9531ZM65.9531 64.1406H67.9531V62.1406H65.9531V64.1406ZM56.1875 64.1406H54.1875V66.1406H56.1875V64.1406ZM56.1875 56.3281V54.3281H54.1875V56.3281H56.1875ZM69.8594 56.3281H71.8594V54.3281H69.8594V56.3281ZM69.8594 58.2812V60.2812H71.8594V58.2812H69.8594ZM61.0703 58.2812H59.0703V62.1875H61.0703H63.0703V58.2812H61.0703ZM61.0703 62.1875V64.1875H67.9062V62.1875V60.1875H61.0703V62.1875ZM67.9062 62.1875H65.9062V64.1406H67.9062H69.9062V62.1875H67.9062ZM67.9062 64.1406V66.1406H69.8594V64.1406V62.1406H67.9062V64.1406ZM69.8594 64.1406H67.8594V68.0469H69.8594H71.8594V64.1406H69.8594ZM69.8594 68.0469V66.0469H67.9062V68.0469V70.0469H69.8594V68.0469ZM67.9062 68.0469H65.9062V70H67.9062H69.9062V68.0469H67.9062ZM67.9062 70V68H56.1875V70V72H67.9062V70ZM56.1875 70H58.1875V68.0469H56.1875H54.1875V70H56.1875ZM56.1875 68.0469V70.0469H65.9531V68.0469V66.0469H56.1875V68.0469ZM65.9531 68.0469H67.9531V64.1406H65.9531H63.9531V68.0469H65.9531ZM65.9531 64.1406V62.1406H56.1875V64.1406V66.1406H65.9531V64.1406ZM56.1875 64.1406H58.1875V56.3281H56.1875H54.1875V64.1406H56.1875ZM56.1875 56.3281V58.3281H69.8594V56.3281V54.3281H56.1875V56.3281ZM69.8594 56.3281H67.8594V58.2812H69.8594H71.8594V56.3281H69.8594ZM69.8594 58.2812V56.2812H61.0703V58.2812V60.2812H69.8594V58.2812ZM86.4844 56.3281H88.4844V54.3281H86.4844V56.3281ZM86.4844 58.2812V60.2812H88.4844V58.2812H86.4844ZM82.5781 58.2812V56.2812H80.5781V58.2812H82.5781ZM82.5781 70V72H84.5781V70H82.5781ZM76.7188 70H74.7188V72H76.7188V70ZM76.7188 58.2812H78.7188V56.2812H76.7188V58.2812ZM72.8125 58.2812H70.8125V60.2812H72.8125V58.2812ZM72.8125 56.3281V54.3281H70.8125V56.3281H72.8125ZM86.4844 56.3281H84.4844V58.2812H86.4844H88.4844V56.3281H86.4844ZM86.4844 58.2812V56.2812H82.5781V58.2812V60.2812H86.4844V58.2812ZM82.5781 58.2812H80.5781V70H82.5781H84.5781V58.2812H82.5781ZM82.5781 70V68H76.7188V70V72H82.5781V70ZM76.7188 70H78.7188V58.2812H76.7188H74.7188V70H76.7188ZM76.7188 58.2812V56.2812H72.8125V58.2812V60.2812H76.7188V58.2812ZM72.8125 58.2812H74.8125V56.3281H72.8125H70.8125V58.2812H72.8125ZM72.8125 56.3281V58.3281H86.4844V56.3281V54.3281H72.8125V56.3281ZM103.109 56.3281H105.109V54.3281H103.109V56.3281ZM103.109 70V72H105.109V70H103.109ZM99.2031 70H97.2031V72H99.2031V70ZM99.2031 64.1406H101.203V62.1406H99.2031V64.1406ZM95.2969 64.1406V62.1406H93.2969V64.1406H95.2969ZM95.2969 70V72H97.2969V70H95.2969ZM89.4375 70H87.4375V72H89.4375V70ZM89.4375 56.3281V54.3281H87.4375V56.3281H89.4375ZM95.2969 56.3281H97.2969V54.3281H95.2969V56.3281ZM95.2969 62.1875H93.2969V64.1875H95.2969V62.1875ZM99.2031 62.1875V64.1875H101.203V62.1875H99.2031ZM99.2031 56.3281V54.3281H97.2031V56.3281H99.2031ZM103.109 56.3281H101.109V70H103.109H105.109V56.3281H103.109ZM103.109 70V68H99.2031V70V72H103.109V70ZM99.2031 70H101.203V64.1406H99.2031H97.2031V70H99.2031ZM99.2031 64.1406V62.1406H95.2969V64.1406V66.1406H99.2031V64.1406ZM95.2969 64.1406H93.2969V70H95.2969H97.2969V64.1406H95.2969ZM95.2969 70V68H89.4375V70V72H95.2969V70ZM89.4375 70H91.4375V56.3281H89.4375H87.4375V70H89.4375ZM89.4375 56.3281V58.3281H95.2969V56.3281V54.3281H89.4375V56.3281ZM95.2969 56.3281H93.2969V62.1875H95.2969H97.2969V56.3281H95.2969ZM95.2969 62.1875V64.1875H99.2031V62.1875V60.1875H95.2969V62.1875ZM99.2031 62.1875H101.203V56.3281H99.2031H97.2031V62.1875H99.2031ZM99.2031 56.3281V58.3281H103.109V56.3281V54.3281H99.2031V56.3281ZM128.557 64.1406V62.1406H126.55L126.557 64.1473L128.557 64.1406ZM128.576 70V72H130.583L130.576 69.9933L128.576 70ZM122.688 70H120.688V72H122.688V70ZM122.688 56.3281V54.3281H120.688V56.3281H122.688ZM134.406 56.3281H136.406V54.3281H134.406V56.3281ZM134.406 58.2812H132.406V60.2812H134.406V58.2812ZM136.359 58.2812H138.359V56.2812H136.359V58.2812ZM136.359 62.1875V64.1875H138.359V62.1875H136.359ZM134.406 62.1875V60.1875H132.406V62.1875H134.406ZM134.406 64.1406V66.1406H136.406V64.1406H134.406ZM128.547 58.2812V56.2812H126.547V58.2812H128.547ZM128.547 62.1875H126.547V64.1875H128.547V62.1875ZM132.453 62.1875V64.1875H134.453V62.1875H132.453ZM132.453 58.2812H134.453V56.2812H132.453V58.2812ZM128.557 64.1406L126.557 64.1473L126.576 70.0067L128.576 70L130.576 69.9933L130.557 64.134L128.557 64.1406ZM128.576 70V68H122.688V70V72H128.576V70ZM122.688 70H124.688V56.3281H122.688H120.688V70H122.688ZM122.688 56.3281V58.3281H134.406V56.3281V54.3281H122.688V56.3281ZM134.406 56.3281H132.406V58.2812H134.406H136.406V56.3281H134.406ZM134.406 58.2812V60.2812H136.359V58.2812V56.2812H134.406V58.2812ZM136.359 58.2812H134.359V62.1875H136.359H138.359V58.2812H136.359ZM136.359 62.1875V60.1875H134.406V62.1875V64.1875H136.359V62.1875ZM134.406 62.1875H132.406V64.1406H134.406H136.406V62.1875H134.406ZM134.406 64.1406V62.1406H128.557V64.1406V66.1406H134.406V64.1406ZM128.547 58.2812H126.547V62.1875H128.547H130.547V58.2812H128.547ZM128.547 62.1875V64.1875H132.453V62.1875V60.1875H128.547V62.1875ZM132.453 62.1875H134.453V58.2812H132.453H130.453V62.1875H132.453ZM132.453 58.2812V56.2812H128.547V58.2812V60.2812H132.453V58.2812ZM139.312 70H137.312V72H139.312V70ZM139.312 56.3281V54.3281H137.312V56.3281H139.312ZM151.031 56.3281H153.031V54.3281H151.031V56.3281ZM151.031 58.2812H149.031V60.2812H151.031V58.2812ZM152.984 58.2812H154.984V56.2812H152.984V58.2812ZM152.984 62.1875V64.1875H154.984V62.1875H152.984ZM151.031 62.1875V60.1875H149.031V62.1875H151.031ZM151.031 64.1406H149.031V66.1406H151.031V64.1406ZM152.984 64.1406H154.984V62.1406H152.984V64.1406ZM152.984 70V72H154.984V70H152.984ZM147.125 70H145.125V72H147.125V70ZM147.125 64.1406H149.125V62.1406H147.125V64.1406ZM143.229 64.1406V62.1406H141.229V64.1406H143.229ZM143.229 70V72H145.229V70H143.229ZM145.172 58.2812V56.2812H143.172V58.2812H145.172ZM145.172 62.1875H143.172V64.1875H145.172V62.1875ZM149.078 62.1875V64.1875H151.078V62.1875H149.078ZM149.078 58.2812H151.078V56.2812H149.078V58.2812ZM139.312 70H141.312V56.3281H139.312H137.312V70H139.312ZM139.312 56.3281V58.3281H151.031V56.3281V54.3281H139.312V56.3281ZM151.031 56.3281H149.031V58.2812H151.031H153.031V56.3281H151.031ZM151.031 58.2812V60.2812H152.984V58.2812V56.2812H151.031V58.2812ZM152.984 58.2812H150.984V62.1875H152.984H154.984V58.2812H152.984ZM152.984 62.1875V60.1875H151.031V62.1875V64.1875H152.984V62.1875ZM151.031 62.1875H149.031V64.1406H151.031H153.031V62.1875H151.031ZM151.031 64.1406V66.1406H152.984V64.1406V62.1406H151.031V64.1406ZM152.984 64.1406H150.984V70H152.984H154.984V64.1406H152.984ZM152.984 70V68H147.125V70V72H152.984V70ZM147.125 70H149.125V64.1406H147.125H145.125V70H147.125ZM147.125 64.1406V62.1406H143.229V64.1406V66.1406H147.125V64.1406ZM143.229 64.1406H141.229V70H143.229H145.229V64.1406H143.229ZM143.229 70V68H139.312V70V72H143.229V70ZM145.172 58.2812H143.172V62.1875H145.172H147.172V58.2812H145.172ZM145.172 62.1875V64.1875H149.078V62.1875V60.1875H145.172V62.1875ZM149.078 62.1875H151.078V58.2812H149.078H147.078V62.1875H149.078ZM149.078 58.2812V56.2812H145.172V58.2812V60.2812H149.078V58.2812ZM167.656 56.3281H169.656V54.3281H167.656V56.3281ZM167.656 58.2812V60.2812H169.656V58.2812H167.656ZM165.703 58.2812V56.2812H163.703V58.2812H165.703ZM165.703 68.0469H163.703V70.0469H165.703V68.0469ZM167.656 68.0469H169.656V66.0469H167.656V68.0469ZM167.656 70V72H169.656V70H167.656ZM157.891 70H155.891V72H157.891V70ZM157.891 68.0469V66.0469H155.891V68.0469H157.891ZM159.844 68.0469V70.0469H161.844V68.0469H159.844ZM159.844 58.2812H161.844V56.2812H159.844V58.2812ZM157.891 58.2812H155.891V60.2812H157.891V58.2812ZM157.891 56.3281V54.3281H155.891V56.3281H157.891ZM167.656 56.3281H165.656V58.2812H167.656H169.656V56.3281H167.656ZM167.656 58.2812V56.2812H165.703V58.2812V60.2812H167.656V58.2812ZM165.703 58.2812H163.703V68.0469H165.703H167.703V58.2812H165.703ZM165.703 68.0469V70.0469H167.656V68.0469V66.0469H165.703V68.0469ZM167.656 68.0469H165.656V70H167.656H169.656V68.0469H167.656ZM167.656 70V68H157.891V70V72H167.656V70ZM157.891 70H159.891V68.0469H157.891H155.891V70H157.891ZM157.891 68.0469V70.0469H159.844V68.0469V66.0469H157.891V68.0469ZM159.844 68.0469H161.844V58.2812H159.844H157.844V68.0469H159.844ZM159.844 58.2812V56.2812H157.891V58.2812V60.2812H159.844V58.2812ZM157.891 58.2812H159.891V56.3281H157.891H155.891V58.2812H157.891ZM157.891 56.3281V58.3281H167.656V56.3281V54.3281H157.891V56.3281ZM172.562 70H170.562V72H172.562V70ZM172.562 66.0938V64.0938H170.562V66.0938H172.562ZM174.516 66.0938V68.0938H176.516V66.0938H174.516ZM174.516 64.1406V62.1406H172.516V64.1406H174.516ZM176.469 64.1406V66.1406H178.469V64.1406H176.469ZM176.469 62.1875V60.1875H174.469V62.1875H176.469ZM178.422 62.1875V64.1875H180.422V62.1875H178.422ZM178.422 60.2344V58.2344H176.422V60.2344H178.422ZM180.375 60.2344V62.2344H182.375V60.2344H180.375ZM180.375 58.2812H182.375V56.2812H180.375V58.2812ZM172.562 58.2812H170.562V60.2812H172.562V58.2812ZM172.562 56.3281V54.3281H170.562V56.3281H172.562ZM186.234 56.3281H188.234V54.3281H186.234V56.3281ZM186.234 60.2344V62.2344H188.234V60.2344H186.234ZM184.281 60.2344V58.2344H182.281V60.2344H184.281ZM184.281 62.1875V64.1875H186.281V62.1875H184.281ZM182.328 62.1875V60.1875H180.328V62.1875H182.328ZM182.328 64.1406V66.1406H184.328V64.1406H182.328ZM180.375 64.1406V62.1406H178.375V64.1406H180.375ZM180.375 66.0938V68.0938H182.375V66.0938H180.375ZM178.422 66.0938V64.0938H176.422V66.0938H178.422ZM178.422 68.0469H176.422V70.0469H178.422V68.0469ZM186.234 68.0469H188.234V66.0469H186.234V68.0469ZM186.234 70V72H188.234V70H186.234ZM172.562 70H174.562V66.0938H172.562H170.562V70H172.562ZM172.562 66.0938V68.0938H174.516V66.0938V64.0938H172.562V66.0938ZM174.516 66.0938H176.516V64.1406H174.516H172.516V66.0938H174.516ZM174.516 64.1406V66.1406H176.469V64.1406V62.1406H174.516V64.1406ZM176.469 64.1406H178.469V62.1875H176.469H174.469V64.1406H176.469ZM176.469 62.1875V64.1875H178.422V62.1875V60.1875H176.469V62.1875ZM178.422 62.1875H180.422V60.2344H178.422H176.422V62.1875H178.422ZM178.422 60.2344V62.2344H180.375V60.2344V58.2344H178.422V60.2344ZM180.375 60.2344H182.375V58.2812H180.375H178.375V60.2344H180.375ZM180.375 58.2812V56.2812H172.562V58.2812V60.2812H180.375V58.2812ZM172.562 58.2812H174.562V56.3281H172.562H170.562V58.2812H172.562ZM172.562 56.3281V58.3281H186.234V56.3281V54.3281H172.562V56.3281ZM186.234 56.3281H184.234V60.2344H186.234H188.234V56.3281H186.234ZM186.234 60.2344V58.2344H184.281V60.2344V62.2344H186.234V60.2344ZM184.281 60.2344H182.281V62.1875H184.281H186.281V60.2344H184.281ZM184.281 62.1875V60.1875H182.328V62.1875V64.1875H184.281V62.1875ZM182.328 62.1875H180.328V64.1406H182.328H184.328V62.1875H182.328ZM182.328 64.1406V62.1406H180.375V64.1406V66.1406H182.328V64.1406ZM180.375 64.1406H178.375V66.0938H180.375H182.375V64.1406H180.375ZM180.375 66.0938V64.0938H178.422V66.0938V68.0938H180.375V66.0938ZM178.422 66.0938H176.422V68.0469H178.422H180.422V66.0938H178.422ZM178.422 68.0469V70.0469H186.234V68.0469V66.0469H178.422V68.0469ZM186.234 68.0469H184.234V70H186.234H188.234V68.0469H186.234ZM186.234 70V68H172.562V70V72H186.234V70ZM202.859 70V72H204.859V70H202.859ZM189.188 70H187.188V72H189.188V70ZM189.188 56.3281V54.3281H187.188V56.3281H189.188ZM202.859 56.3281H204.859V54.3281H202.859V56.3281ZM202.859 58.2812V60.2812H204.859V58.2812H202.859ZM195.047 58.2812V56.2812H193.047V58.2812H195.047ZM195.047 62.1875H193.047V64.1875H195.047V62.1875ZM200.906 62.1875H202.906V60.1875H200.906V62.1875ZM200.906 64.1406V66.1406H202.906V64.1406H200.906ZM195.047 64.1406V62.1406H193.047V64.1406H195.047ZM195.047 68.0469H193.047V70.0469H195.047V68.0469ZM202.859 68.0469H204.859V66.0469H202.859V68.0469ZM202.859 70V68H189.188V70V72H202.859V70ZM189.188 70H191.188V56.3281H189.188H187.188V70H189.188ZM189.188 56.3281V58.3281H202.859V56.3281V54.3281H189.188V56.3281ZM202.859 56.3281H200.859V58.2812H202.859H204.859V56.3281H202.859ZM202.859 58.2812V56.2812H195.047V58.2812V60.2812H202.859V58.2812ZM195.047 58.2812H193.047V62.1875H195.047H197.047V58.2812H195.047ZM195.047 62.1875V64.1875H200.906V62.1875V60.1875H195.047V62.1875ZM200.906 62.1875H198.906V64.1406H200.906H202.906V62.1875H200.906ZM200.906 64.1406V62.1406H195.047V64.1406V66.1406H200.906V64.1406ZM195.047 64.1406H193.047V68.0469H195.047H197.047V64.1406H195.047ZM195.047 68.0469V70.0469H202.859V68.0469V66.0469H195.047V68.0469ZM202.859 68.0469H200.859V70H202.859H204.859V68.0469H202.859Z" fill="#222256" mask="url(#path-210-outside-1_43_2386)"/>
</g>
<g filter="url(#filter1_df_43_2386)">
<mask id="path-212-outside-2_43_2386" maskUnits="userSpaceOnUse" x="39" y="83" width="181" height="24" fill="black">
<rect fill="white" x="39" y="83" width="181" height="24"/>
<path d="M57.7312 99.6562V102H41.325V94.9688H43.6687V92.625H50.7V87.9375H41.325V85.5938H55.3875V87.9375H57.7312V92.625H55.3875V94.9688H47.1844V99.6562H57.7312ZM68.2945 102V97.3125H72.9937V102H68.3062V104.344H65.9625V102H68.2945ZM83.5687 85.5938H95.2875V87.9375H97.6312V99.6562H95.2875V102H83.5687V99.6562H81.225V87.9375H83.5687V85.5938ZM85.9125 87.9375V99.6562H90.6V87.9375H85.9125ZM103.519 85.5938H115.237V87.9375H117.581V99.6562H115.237V102H103.519V99.6562H101.175V87.9375H103.519V85.5938ZM105.862 87.9375V99.6562H110.55V87.9375H105.862ZM123.469 85.5938H135.188V87.9375H137.531V99.6562H135.188V102H123.469V99.6562H121.125V87.9375H123.469V85.5938ZM125.812 87.9375V99.6562H130.5V87.9375H125.812ZM168.056 85.5938V99.6562H172.744V85.5938H177.431V99.6562H175.087V102H163.369V99.6562H161.025V85.5938H168.056ZM180.975 97.3125H185.662V99.6562H192.694V94.9688H183.319V92.625H180.975V87.9375H183.319V85.5938H195.037V87.9375H197.381V90.2812H192.694V87.9375H188.006V92.625H195.037V94.9688H197.381V99.6562H195.037V102H183.319V99.6562H180.975V97.3125ZM200.925 102V85.5938H214.988V87.9375H217.331V99.6562H214.988V102H200.925ZM207.968 99.6562H212.644V87.9375H207.956L207.968 99.6562Z"/>
</mask>
<path d="M57.7312 99.6562V102H41.325V94.9688H43.6687V92.625H50.7V87.9375H41.325V85.5938H55.3875V87.9375H57.7312V92.625H55.3875V94.9688H47.1844V99.6562H57.7312ZM68.2945 102V97.3125H72.9937V102H68.3062V104.344H65.9625V102H68.2945ZM83.5687 85.5938H95.2875V87.9375H97.6312V99.6562H95.2875V102H83.5687V99.6562H81.225V87.9375H83.5687V85.5938ZM85.9125 87.9375V99.6562H90.6V87.9375H85.9125ZM103.519 85.5938H115.237V87.9375H117.581V99.6562H115.237V102H103.519V99.6562H101.175V87.9375H103.519V85.5938ZM105.862 87.9375V99.6562H110.55V87.9375H105.862ZM123.469 85.5938H135.188V87.9375H137.531V99.6562H135.188V102H123.469V99.6562H121.125V87.9375H123.469V85.5938ZM125.812 87.9375V99.6562H130.5V87.9375H125.812ZM168.056 85.5938V99.6562H172.744V85.5938H177.431V99.6562H175.087V102H163.369V99.6562H161.025V85.5938H168.056ZM180.975 97.3125H185.662V99.6562H192.694V94.9688H183.319V92.625H180.975V87.9375H183.319V85.5938H195.037V87.9375H197.381V90.2812H192.694V87.9375H188.006V92.625H195.037V94.9688H197.381V99.6562H195.037V102H183.319V99.6562H180.975V97.3125ZM200.925 102V85.5938H214.988V87.9375H217.331V99.6562H214.988V102H200.925ZM207.968 99.6562H212.644V87.9375H207.956L207.968 99.6562Z" fill="white"/>
<path d="M57.7312 99.6562H59.7312V97.6562H57.7312V99.6562ZM57.7312 102V104H59.7312V102H57.7312ZM41.325 102H39.325V104H41.325V102ZM41.325 94.9688V92.9688H39.325V94.9688H41.325ZM43.6687 94.9688V96.9688H45.6687V94.9688H43.6687ZM43.6687 92.625V90.625H41.6687V92.625H43.6687ZM50.7 92.625V94.625H52.7V92.625H50.7ZM50.7 87.9375H52.7V85.9375H50.7V87.9375ZM41.325 87.9375H39.325V89.9375H41.325V87.9375ZM41.325 85.5938V83.5938H39.325V85.5938H41.325ZM55.3875 85.5938H57.3875V83.5938H55.3875V85.5938ZM55.3875 87.9375H53.3875V89.9375H55.3875V87.9375ZM57.7312 87.9375H59.7312V85.9375H57.7312V87.9375ZM57.7312 92.625V94.625H59.7312V92.625H57.7312ZM55.3875 92.625V90.625H53.3875V92.625H55.3875ZM55.3875 94.9688V96.9688H57.3875V94.9688H55.3875ZM47.1844 94.9688V92.9688H45.1844V94.9688H47.1844ZM47.1844 99.6562H45.1844V101.656H47.1844V99.6562ZM57.7312 99.6562H55.7312V102H57.7312H59.7312V99.6562H57.7312ZM57.7312 102V100H41.325V102V104H57.7312V102ZM41.325 102H43.325V94.9688H41.325H39.325V102H41.325ZM41.325 94.9688V96.9688H43.6687V94.9688V92.9688H41.325V94.9688ZM43.6687 94.9688H45.6687V92.625H43.6687H41.6687V94.9688H43.6687ZM43.6687 92.625V94.625H50.7V92.625V90.625H43.6687V92.625ZM50.7 92.625H52.7V87.9375H50.7H48.7V92.625H50.7ZM50.7 87.9375V85.9375H41.325V87.9375V89.9375H50.7V87.9375ZM41.325 87.9375H43.325V85.5938H41.325H39.325V87.9375H41.325ZM41.325 85.5938V87.5938H55.3875V85.5938V83.5938H41.325V85.5938ZM55.3875 85.5938H53.3875V87.9375H55.3875H57.3875V85.5938H55.3875ZM55.3875 87.9375V89.9375H57.7312V87.9375V85.9375H55.3875V87.9375ZM57.7312 87.9375H55.7312V92.625H57.7312H59.7312V87.9375H57.7312ZM57.7312 92.625V90.625H55.3875V92.625V94.625H57.7312V92.625ZM55.3875 92.625H53.3875V94.9688H55.3875H57.3875V92.625H55.3875ZM55.3875 94.9688V92.9688H47.1844V94.9688V96.9688H55.3875V94.9688ZM47.1844 94.9688H45.1844V99.6562H47.1844H49.1844V94.9688H47.1844ZM47.1844 99.6562V101.656H57.7312V99.6562V97.6562H47.1844V99.6562ZM68.2945 102V104H70.2945V102H68.2945ZM68.2945 97.3125V95.3125H66.2945V97.3125H68.2945ZM72.9937 97.3125H74.9937V95.3125H72.9937V97.3125ZM72.9937 102V104H74.9937V102H72.9937ZM68.3062 102V100H66.3062V102H68.3062ZM68.3062 104.344V106.344H70.3062V104.344H68.3062ZM65.9625 104.344H63.9625V106.344H65.9625V104.344ZM65.9625 102V100H63.9625V102H65.9625ZM68.2945 102H70.2945V97.3125H68.2945H66.2945V102H68.2945ZM68.2945 97.3125V99.3125H72.9937V97.3125V95.3125H68.2945V97.3125ZM72.9937 97.3125H70.9937V102H72.9937H74.9937V97.3125H72.9937ZM72.9937 102V100H68.3062V102V104H72.9937V102ZM68.3062 102H66.3062V104.344H68.3062H70.3062V102H68.3062ZM68.3062 104.344V102.344H65.9625V104.344V106.344H68.3062V104.344ZM65.9625 104.344H67.9625V102H65.9625H63.9625V104.344H65.9625ZM65.9625 102V104H68.2945V102V100H65.9625V102ZM83.5687 85.5938V83.5938H81.5687V85.5938H83.5687ZM95.2875 85.5938H97.2875V83.5938H95.2875V85.5938ZM95.2875 87.9375H93.2875V89.9375H95.2875V87.9375ZM97.6312 87.9375H99.6312V85.9375H97.6312V87.9375ZM97.6312 99.6562V101.656H99.6312V99.6562H97.6312ZM95.2875 99.6562V97.6562H93.2875V99.6562H95.2875ZM95.2875 102V104H97.2875V102H95.2875ZM83.5687 102H81.5687V104H83.5687V102ZM83.5687 99.6562H85.5687V97.6562H83.5687V99.6562ZM81.225 99.6562H79.225V101.656H81.225V99.6562ZM81.225 87.9375V85.9375H79.225V87.9375H81.225ZM83.5687 87.9375V89.9375H85.5687V87.9375H83.5687ZM85.9125 87.9375V85.9375H83.9125V87.9375H85.9125ZM85.9125 99.6562H83.9125V101.656H85.9125V99.6562ZM90.6 99.6562V101.656H92.6V99.6562H90.6ZM90.6 87.9375H92.6V85.9375H90.6V87.9375ZM83.5687 85.5938V87.5938H95.2875V85.5938V83.5938H83.5687V85.5938ZM95.2875 85.5938H93.2875V87.9375H95.2875H97.2875V85.5938H95.2875ZM95.2875 87.9375V89.9375H97.6312V87.9375V85.9375H95.2875V87.9375ZM97.6312 87.9375H95.6312V99.6562H97.6312H99.6312V87.9375H97.6312ZM97.6312 99.6562V97.6562H95.2875V99.6562V101.656H97.6312V99.6562ZM95.2875 99.6562H93.2875V102H95.2875H97.2875V99.6562H95.2875ZM95.2875 102V100H83.5687V102V104H95.2875V102ZM83.5687 102H85.5687V99.6562H83.5687H81.5687V102H83.5687ZM83.5687 99.6562V97.6562H81.225V99.6562V101.656H83.5687V99.6562ZM81.225 99.6562H83.225V87.9375H81.225H79.225V99.6562H81.225ZM81.225 87.9375V89.9375H83.5687V87.9375V85.9375H81.225V87.9375ZM83.5687 87.9375H85.5687V85.5938H83.5687H81.5687V87.9375H83.5687ZM85.9125 87.9375H83.9125V99.6562H85.9125H87.9125V87.9375H85.9125ZM85.9125 99.6562V101.656H90.6V99.6562V97.6562H85.9125V99.6562ZM90.6 99.6562H92.6V87.9375H90.6H88.6V99.6562H90.6ZM90.6 87.9375V85.9375H85.9125V87.9375V89.9375H90.6V87.9375ZM103.519 85.5938V83.5938H101.519V85.5938H103.519ZM115.237 85.5938H117.237V83.5938H115.237V85.5938ZM115.237 87.9375H113.237V89.9375H115.237V87.9375ZM117.581 87.9375H119.581V85.9375H117.581V87.9375ZM117.581 99.6562V101.656H119.581V99.6562H117.581ZM115.237 99.6562V97.6562H113.237V99.6562H115.237ZM115.237 102V104H117.237V102H115.237ZM103.519 102H101.519V104H103.519V102ZM103.519 99.6562H105.519V97.6562H103.519V99.6562ZM101.175 99.6562H99.175V101.656H101.175V99.6562ZM101.175 87.9375V85.9375H99.175V87.9375H101.175ZM103.519 87.9375V89.9375H105.519V87.9375H103.519ZM105.862 87.9375V85.9375H103.862V87.9375H105.862ZM105.862 99.6562H103.862V101.656H105.862V99.6562ZM110.55 99.6562V101.656H112.55V99.6562H110.55ZM110.55 87.9375H112.55V85.9375H110.55V87.9375ZM103.519 85.5938V87.5938H115.237V85.5938V83.5938H103.519V85.5938ZM115.237 85.5938H113.237V87.9375H115.237H117.237V85.5938H115.237ZM115.237 87.9375V89.9375H117.581V87.9375V85.9375H115.237V87.9375ZM117.581 87.9375H115.581V99.6562H117.581H119.581V87.9375H117.581ZM117.581 99.6562V97.6562H115.237V99.6562V101.656H117.581V99.6562ZM115.237 99.6562H113.237V102H115.237H117.237V99.6562H115.237ZM115.237 102V100H103.519V102V104H115.237V102ZM103.519 102H105.519V99.6562H103.519H101.519V102H103.519ZM103.519 99.6562V97.6562H101.175V99.6562V101.656H103.519V99.6562ZM101.175 99.6562H103.175V87.9375H101.175H99.175V99.6562H101.175ZM101.175 87.9375V89.9375H103.519V87.9375V85.9375H101.175V87.9375ZM103.519 87.9375H105.519V85.5938H103.519H101.519V87.9375H103.519ZM105.862 87.9375H103.862V99.6562H105.862H107.862V87.9375H105.862ZM105.862 99.6562V101.656H110.55V99.6562V97.6562H105.862V99.6562ZM110.55 99.6562H112.55V87.9375H110.55H108.55V99.6562H110.55ZM110.55 87.9375V85.9375H105.862V87.9375V89.9375H110.55V87.9375ZM123.469 85.5938V83.5938H121.469V85.5938H123.469ZM135.188 85.5938H137.188V83.5938H135.188V85.5938ZM135.188 87.9375H133.188V89.9375H135.188V87.9375ZM137.531 87.9375H139.531V85.9375H137.531V87.9375ZM137.531 99.6562V101.656H139.531V99.6562H137.531ZM135.188 99.6562V97.6562H133.188V99.6562H135.188ZM135.188 102V104H137.188V102H135.188ZM123.469 102H121.469V104H123.469V102ZM123.469 99.6562H125.469V97.6562H123.469V99.6562ZM121.125 99.6562H119.125V101.656H121.125V99.6562ZM121.125 87.9375V85.9375H119.125V87.9375H121.125ZM123.469 87.9375V89.9375H125.469V87.9375H123.469ZM125.812 87.9375V85.9375H123.812V87.9375H125.812ZM125.812 99.6562H123.812V101.656H125.812V99.6562ZM130.5 99.6562V101.656H132.5V99.6562H130.5ZM130.5 87.9375H132.5V85.9375H130.5V87.9375ZM123.469 85.5938V87.5938H135.188V85.5938V83.5938H123.469V85.5938ZM135.188 85.5938H133.188V87.9375H135.188H137.188V85.5938H135.188ZM135.188 87.9375V89.9375H137.531V87.9375V85.9375H135.188V87.9375ZM137.531 87.9375H135.531V99.6562H137.531H139.531V87.9375H137.531ZM137.531 99.6562V97.6562H135.188V99.6562V101.656H137.531V99.6562ZM135.188 99.6562H133.188V102H135.188H137.188V99.6562H135.188ZM135.188 102V100H123.469V102V104H135.188V102ZM123.469 102H125.469V99.6562H123.469H121.469V102H123.469ZM123.469 99.6562V97.6562H121.125V99.6562V101.656H123.469V99.6562ZM121.125 99.6562H123.125V87.9375H121.125H119.125V99.6562H121.125ZM121.125 87.9375V89.9375H123.469V87.9375V85.9375H121.125V87.9375ZM123.469 87.9375H125.469V85.5938H123.469H121.469V87.9375H123.469ZM125.812 87.9375H123.812V99.6562H125.812H127.812V87.9375H125.812ZM125.812 99.6562V101.656H130.5V99.6562V97.6562H125.812V99.6562ZM130.5 99.6562H132.5V87.9375H130.5H128.5V99.6562H130.5ZM130.5 87.9375V85.9375H125.812V87.9375V89.9375H130.5V87.9375ZM168.056 85.5938H170.056V83.5938H168.056V85.5938ZM168.056 99.6562H166.056V101.656H168.056V99.6562ZM172.744 99.6562V101.656H174.744V99.6562H172.744ZM172.744 85.5938V83.5938H170.744V85.5938H172.744ZM177.431 85.5938H179.431V83.5938H177.431V85.5938ZM177.431 99.6562V101.656H179.431V99.6562H177.431ZM175.087 99.6562V97.6562H173.087V99.6562H175.087ZM175.087 102V104H177.087V102H175.087ZM163.369 102H161.369V104H163.369V102ZM163.369 99.6562H165.369V97.6562H163.369V99.6562ZM161.025 99.6562H159.025V101.656H161.025V99.6562ZM161.025 85.5938V83.5938H159.025V85.5938H161.025ZM168.056 85.5938H166.056V99.6562H168.056H170.056V85.5938H168.056ZM168.056 99.6562V101.656H172.744V99.6562V97.6562H168.056V99.6562ZM172.744 99.6562H174.744V85.5938H172.744H170.744V99.6562H172.744ZM172.744 85.5938V87.5938H177.431V85.5938V83.5938H172.744V85.5938ZM177.431 85.5938H175.431V99.6562H177.431H179.431V85.5938H177.431ZM177.431 99.6562V97.6562H175.087V99.6562V101.656H177.431V99.6562ZM175.087 99.6562H173.087V102H175.087H177.087V99.6562H175.087ZM175.087 102V100H163.369V102V104H175.087V102ZM163.369 102H165.369V99.6562H163.369H161.369V102H163.369ZM163.369 99.6562V97.6562H161.025V99.6562V101.656H163.369V99.6562ZM161.025 99.6562H163.025V85.5938H161.025H159.025V99.6562H161.025ZM161.025 85.5938V87.5938H168.056V85.5938V83.5938H161.025V85.5938ZM180.975 97.3125V95.3125H178.975V97.3125H180.975ZM185.662 97.3125H187.662V95.3125H185.662V97.3125ZM185.662 99.6562H183.662V101.656H185.662V99.6562ZM192.694 99.6562V101.656H194.694V99.6562H192.694ZM192.694 94.9688H194.694V92.9688H192.694V94.9688ZM183.319 94.9688H181.319V96.9688H183.319V94.9688ZM183.319 92.625H185.319V90.625H183.319V92.625ZM180.975 92.625H178.975V94.625H180.975V92.625ZM180.975 87.9375V85.9375H178.975V87.9375H180.975ZM183.319 87.9375V89.9375H185.319V87.9375H183.319ZM183.319 85.5938V83.5938H181.319V85.5938H183.319ZM195.037 85.5938H197.037V83.5938H195.037V85.5938ZM195.037 87.9375H193.037V89.9375H195.037V87.9375ZM197.381 87.9375H199.381V85.9375H197.381V87.9375ZM197.381 90.2812V92.2812H199.381V90.2812H197.381ZM192.694 90.2812H190.694V92.2812H192.694V90.2812ZM192.694 87.9375H194.694V85.9375H192.694V87.9375ZM188.006 87.9375V85.9375H186.006V87.9375H188.006ZM188.006 92.625H186.006V94.625H188.006V92.625ZM195.037 92.625H197.037V90.625H195.037V92.625ZM195.037 94.9688H193.037V96.9688H195.037V94.9688ZM197.381 94.9688H199.381V92.9688H197.381V94.9688ZM197.381 99.6562V101.656H199.381V99.6562H197.381ZM195.037 99.6562V97.6562H193.037V99.6562H195.037ZM195.037 102V104H197.037V102H195.037ZM183.319 102H181.319V104H183.319V102ZM183.319 99.6562H185.319V97.6562H183.319V99.6562ZM180.975 99.6562H178.975V101.656H180.975V99.6562ZM180.975 97.3125V99.3125H185.662V97.3125V95.3125H180.975V97.3125ZM185.662 97.3125H183.662V99.6562H185.662H187.662V97.3125H185.662ZM185.662 99.6562V101.656H192.694V99.6562V97.6562H185.662V99.6562ZM192.694 99.6562H194.694V94.9688H192.694H190.694V99.6562H192.694ZM192.694 94.9688V92.9688H183.319V94.9688V96.9688H192.694V94.9688ZM183.319 94.9688H185.319V92.625H183.319H181.319V94.9688H183.319ZM183.319 92.625V90.625H180.975V92.625V94.625H183.319V92.625ZM180.975 92.625H182.975V87.9375H180.975H178.975V92.625H180.975ZM180.975 87.9375V89.9375H183.319V87.9375V85.9375H180.975V87.9375ZM183.319 87.9375H185.319V85.5938H183.319H181.319V87.9375H183.319ZM183.319 85.5938V87.5938H195.037V85.5938V83.5938H183.319V85.5938ZM195.037 85.5938H193.037V87.9375H195.037H197.037V85.5938H195.037ZM195.037 87.9375V89.9375H197.381V87.9375V85.9375H195.037V87.9375ZM197.381 87.9375H195.381V90.2812H197.381H199.381V87.9375H197.381ZM197.381 90.2812V88.2812H192.694V90.2812V92.2812H197.381V90.2812ZM192.694 90.2812H194.694V87.9375H192.694H190.694V90.2812H192.694ZM192.694 87.9375V85.9375H188.006V87.9375V89.9375H192.694V87.9375ZM188.006 87.9375H186.006V92.625H188.006H190.006V87.9375H188.006ZM188.006 92.625V94.625H195.037V92.625V90.625H188.006V92.625ZM195.037 92.625H193.037V94.9688H195.037H197.037V92.625H195.037ZM195.037 94.9688V96.9688H197.381V94.9688V92.9688H195.037V94.9688ZM197.381 94.9688H195.381V99.6562H197.381H199.381V94.9688H197.381ZM197.381 99.6562V97.6562H195.037V99.6562V101.656H197.381V99.6562ZM195.037 99.6562H193.037V102H195.037H197.037V99.6562H195.037ZM195.037 102V100H183.319V102V104H195.037V102ZM183.319 102H185.319V99.6562H183.319H181.319V102H183.319ZM183.319 99.6562V97.6562H180.975V99.6562V101.656H183.319V99.6562ZM180.975 99.6562H182.975V97.3125H180.975H178.975V99.6562H180.975ZM200.925 102H198.925V104H200.925V102ZM200.925 85.5938V83.5938H198.925V85.5938H200.925ZM214.988 85.5938H216.988V83.5938H214.988V85.5938ZM214.988 87.9375H212.988V89.9375H214.988V87.9375ZM217.331 87.9375H219.331V85.9375H217.331V87.9375ZM217.331 99.6562V101.656H219.331V99.6562H217.331ZM214.988 99.6562V97.6562H212.988V99.6562H214.988ZM214.988 102V104H216.988V102H214.988ZM207.968 99.6562L205.968 99.6583L205.97 101.656H207.968V99.6562ZM212.644 99.6562V101.656H214.644V99.6562H212.644ZM212.644 87.9375H214.644V85.9375H212.644V87.9375ZM207.956 87.9375V85.9375H205.954L205.956 87.9395L207.956 87.9375ZM200.925 102H202.925V85.5938H200.925H198.925V102H200.925ZM200.925 85.5938V87.5938H214.988V85.5938V83.5938H200.925V85.5938ZM214.988 85.5938H212.988V87.9375H214.988H216.988V85.5938H214.988ZM214.988 87.9375V89.9375H217.331V87.9375V85.9375H214.988V87.9375ZM217.331 87.9375H215.331V99.6562H217.331H219.331V87.9375H217.331ZM217.331 99.6562V97.6562H214.988V99.6562V101.656H217.331V99.6562ZM214.988 99.6562H212.988V102H214.988H216.988V99.6562H214.988ZM214.988 102V100H200.925V102V104H214.988V102ZM207.968 99.6562V101.656H212.644V99.6562V97.6562H207.968V99.6562ZM212.644 99.6562H214.644V87.9375H212.644H210.644V99.6562H212.644ZM212.644 87.9375V85.9375H207.956V87.9375V89.9375H212.644V87.9375ZM207.956 87.9375L205.956 87.9395L205.968 99.6583L207.968 99.6562L209.968 99.6542L209.956 87.9355L207.956 87.9375Z" fill="#222256" mask="url(#path-212-outside-2_43_2386)"/>
</g>
<g filter="url(#filter2_d_43_2386)">
<mask id="path-214-outside-3_43_2386" maskUnits="userSpaceOnUse" x="4" y="87" width="249" height="13" fill="black">
<rect fill="white" x="4" y="87" width="249" height="13"/>
<path d="M6.55312 98V89.1133H14.1703V90.3828H15.4398V96.7305H14.1703V98H6.55312ZM10.3681 96.7305H12.9008V90.3828H10.3617L10.3681 96.7305ZM26.2461 98H17.3594V89.1133H26.2461V90.3828H21.168V92.9219H24.9766V94.1914H21.168V96.7305H26.2461V98ZM37.0523 89.1133V90.3828H34.5133V98H30.7047V90.3828H28.1656V89.1133H37.0523ZM38.9719 98V90.3828H40.2414V89.1133H46.5891V90.3828H47.8586V98H45.3195V94.1914H42.7805V98H38.9719ZM42.7805 90.5796V92.9219H45.3195V90.5796H42.7805ZM57.3953 89.1133V90.3828H56.1258V96.7305H57.3953V98H51.0477V96.7305H52.3172V90.3828H51.0477V89.1133H57.3953ZM69.4711 98H60.5844V89.1133H64.393V96.7305H69.4711V98ZM71.3906 95.4609H73.9297V96.7305H77.7383V94.1914H72.6602V92.9219H71.3906V90.3828H72.6602V89.1133H79.0078V90.3828H80.2773V91.6523H77.7383V90.3828H75.1992V92.9219H79.0078V94.1914H80.2773V96.7305H79.0078V98H72.6602V96.7305H71.3906V95.4609ZM96.8117 90.3828V96.7305H101.89V98H94.2727V96.7305H93.0031V90.3828H94.2727V89.1133H101.89V90.3828H96.8117ZM111.427 98H105.079V96.7305H103.809V90.3828H105.079V89.1133H111.427V90.3828H112.696V96.7305H111.427V98ZM110.157 96.7305V90.3828H107.618V96.7305H110.157ZM120.963 90.3828V98H118.424V90.3828H117.155V98H114.616V89.1133H122.239V90.3828H123.502V98H122.233V90.3828H120.963ZM131.77 90.3828V98H129.23V90.3828H127.961V98H125.422V89.1133H133.045V90.3828H134.309V98H133.039V90.3828H131.77ZM143.845 89.1133V90.3828H142.576V96.7305H143.845V98H137.498V96.7305H138.767V90.3828H137.498V89.1133H143.845ZM147.034 98V89.1133H154.652V90.3828H155.921V98H153.382V90.3828H150.843L150.849 98H147.034ZM166.727 92.9219V96.7305H165.458V98H159.11V96.7305H157.841V90.3828H159.11V89.1133H165.464V90.3828H166.727V91.6523H165.458V90.3828H161.649V96.7305H164.188V94.1914H162.919L162.925 92.9219H166.727ZM179.453 95.4609H181.992V96.7305H185.801V94.1914H180.723V92.9219H179.453V90.3828H180.723V89.1133H187.07V90.3828H188.34V91.6523H185.801V90.3828H183.262V92.9219H187.07V94.1914H188.34V96.7305H187.07V98H180.723V96.7305H179.453V95.4609ZM197.877 98H191.529V96.7305H190.259V90.3828H191.529V89.1133H197.877V90.3828H199.146V96.7305H197.877V98ZM196.607 96.7305V90.3828H194.068V96.7305H196.607ZM208.683 98H202.335V96.7305H201.066V90.3828H202.335V89.1133H208.683V90.3828H209.952V96.7305H208.683V98ZM207.413 96.7305V90.3828H204.874V96.7305H207.413ZM211.872 98V89.1133H219.489V90.3828H220.759V98H218.22V90.3828H215.68L215.687 98H211.872ZM226.487 95.4609H229.026V98H226.487V95.4609ZM237.293 95.4609H239.832V98H237.293V95.4609ZM248.099 95.4609H250.638V98H248.099V95.4609Z"/>
</mask>
<path d="M6.55312 98V89.1133H14.1703V90.3828H15.4398V96.7305H14.1703V98H6.55312ZM10.3681 96.7305H12.9008V90.3828H10.3617L10.3681 96.7305ZM26.2461 98H17.3594V89.1133H26.2461V90.3828H21.168V92.9219H24.9766V94.1914H21.168V96.7305H26.2461V98ZM37.0523 89.1133V90.3828H34.5133V98H30.7047V90.3828H28.1656V89.1133H37.0523ZM38.9719 98V90.3828H40.2414V89.1133H46.5891V90.3828H47.8586V98H45.3195V94.1914H42.7805V98H38.9719ZM42.7805 90.5796V92.9219H45.3195V90.5796H42.7805ZM57.3953 89.1133V90.3828H56.1258V96.7305H57.3953V98H51.0477V96.7305H52.3172V90.3828H51.0477V89.1133H57.3953ZM69.4711 98H60.5844V89.1133H64.393V96.7305H69.4711V98ZM71.3906 95.4609H73.9297V96.7305H77.7383V94.1914H72.6602V92.9219H71.3906V90.3828H72.6602V89.1133H79.0078V90.3828H80.2773V91.6523H77.7383V90.3828H75.1992V92.9219H79.0078V94.1914H80.2773V96.7305H79.0078V98H72.6602V96.7305H71.3906V95.4609ZM96.8117 90.3828V96.7305H101.89V98H94.2727V96.7305H93.0031V90.3828H94.2727V89.1133H101.89V90.3828H96.8117ZM111.427 98H105.079V96.7305H103.809V90.3828H105.079V89.1133H111.427V90.3828H112.696V96.7305H111.427V98ZM110.157 96.7305V90.3828H107.618V96.7305H110.157ZM120.963 90.3828V98H118.424V90.3828H117.155V98H114.616V89.1133H122.239V90.3828H123.502V98H122.233V90.3828H120.963ZM131.77 90.3828V98H129.23V90.3828H127.961V98H125.422V89.1133H133.045V90.3828H134.309V98H133.039V90.3828H131.77ZM143.845 89.1133V90.3828H142.576V96.7305H143.845V98H137.498V96.7305H138.767V90.3828H137.498V89.1133H143.845ZM147.034 98V89.1133H154.652V90.3828H155.921V98H153.382V90.3828H150.843L150.849 98H147.034ZM166.727 92.9219V96.7305H165.458V98H159.11V96.7305H157.841V90.3828H159.11V89.1133H165.464V90.3828H166.727V91.6523H165.458V90.3828H161.649V96.7305H164.188V94.1914H162.919L162.925 92.9219H166.727ZM179.453 95.4609H181.992V96.7305H185.801V94.1914H180.723V92.9219H179.453V90.3828H180.723V89.1133H187.07V90.3828H188.34V91.6523H185.801V90.3828H183.262V92.9219H187.07V94.1914H188.34V96.7305H187.07V98H180.723V96.7305H179.453V95.4609ZM197.877 98H191.529V96.7305H190.259V90.3828H191.529V89.1133H197.877V90.3828H199.146V96.7305H197.877V98ZM196.607 96.7305V90.3828H194.068V96.7305H196.607ZM208.683 98H202.335V96.7305H201.066V90.3828H202.335V89.1133H208.683V90.3828H209.952V96.7305H208.683V98ZM207.413 96.7305V90.3828H204.874V96.7305H207.413ZM211.872 98V89.1133H219.489V90.3828H220.759V98H218.22V90.3828H215.68L215.687 98H211.872ZM226.487 95.4609H229.026V98H226.487V95.4609ZM237.293 95.4609H239.832V98H237.293V95.4609ZM248.099 95.4609H250.638V98H248.099V95.4609Z" fill="white"/>
<path d="M6.55312 98H4.55312V100H6.55312V98ZM6.55312 89.1133V87.1133H4.55312V89.1133H6.55312ZM14.1703 89.1133H16.1703V87.1133H14.1703V89.1133ZM14.1703 90.3828H12.1703V92.3828H14.1703V90.3828ZM15.4398 90.3828H17.4398V88.3828H15.4398V90.3828ZM15.4398 96.7305V98.7305H17.4398V96.7305H15.4398ZM14.1703 96.7305V94.7305H12.1703V96.7305H14.1703ZM14.1703 98V100H16.1703V98H14.1703ZM10.3681 96.7305L8.36807 96.7325L8.37006 98.7305H10.3681V96.7305ZM12.9008 96.7305V98.7305H14.9008V96.7305H12.9008ZM12.9008 90.3828H14.9008V88.3828H12.9008V90.3828ZM10.3617 90.3828V88.3828H8.35972L8.36172 90.3848L10.3617 90.3828ZM6.55312 98H8.55312V89.1133H6.55312H4.55312V98H6.55312ZM6.55312 89.1133V91.1133H14.1703V89.1133V87.1133H6.55312V89.1133ZM14.1703 89.1133H12.1703V90.3828H14.1703H16.1703V89.1133H14.1703ZM14.1703 90.3828V92.3828H15.4398V90.3828V88.3828H14.1703V90.3828ZM15.4398 90.3828H13.4398V96.7305H15.4398H17.4398V90.3828H15.4398ZM15.4398 96.7305V94.7305H14.1703V96.7305V98.7305H15.4398V96.7305ZM14.1703 96.7305H12.1703V98H14.1703H16.1703V96.7305H14.1703ZM14.1703 98V96H6.55312V98V100H14.1703V98ZM10.3681 96.7305V98.7305H12.9008V96.7305V94.7305H10.3681V96.7305ZM12.9008 96.7305H14.9008V90.3828H12.9008H10.9008V96.7305H12.9008ZM12.9008 90.3828V88.3828H10.3617V90.3828V92.3828H12.9008V90.3828ZM10.3617 90.3828L8.36172 90.3848L8.36807 96.7325L10.3681 96.7305L12.3681 96.7285L12.3617 90.3808L10.3617 90.3828ZM26.2461 98V100H28.2461V98H26.2461ZM17.3594 98H15.3594V100H17.3594V98ZM17.3594 89.1133V87.1133H15.3594V89.1133H17.3594ZM26.2461 89.1133H28.2461V87.1133H26.2461V89.1133ZM26.2461 90.3828V92.3828H28.2461V90.3828H26.2461ZM21.168 90.3828V88.3828H19.168V90.3828H21.168ZM21.168 92.9219H19.168V94.9219H21.168V92.9219ZM24.9766 92.9219H26.9766V90.9219H24.9766V92.9219ZM24.9766 94.1914V96.1914H26.9766V94.1914H24.9766ZM21.168 94.1914V92.1914H19.168V94.1914H21.168ZM21.168 96.7305H19.168V98.7305H21.168V96.7305ZM26.2461 96.7305H28.2461V94.7305H26.2461V96.7305ZM26.2461 98V96H17.3594V98V100H26.2461V98ZM17.3594 98H19.3594V89.1133H17.3594H15.3594V98H17.3594ZM17.3594 89.1133V91.1133H26.2461V89.1133V87.1133H17.3594V89.1133ZM26.2461 89.1133H24.2461V90.3828H26.2461H28.2461V89.1133H26.2461ZM26.2461 90.3828V88.3828H21.168V90.3828V92.3828H26.2461V90.3828ZM21.168 90.3828H19.168V92.9219H21.168H23.168V90.3828H21.168ZM21.168 92.9219V94.9219H24.9766V92.9219V90.9219H21.168V92.9219ZM24.9766 92.9219H22.9766V94.1914H24.9766H26.9766V92.9219H24.9766ZM24.9766 94.1914V92.1914H21.168V94.1914V96.1914H24.9766V94.1914ZM21.168 94.1914H19.168V96.7305H21.168H23.168V94.1914H21.168ZM21.168 96.7305V98.7305H26.2461V96.7305V94.7305H21.168V96.7305ZM26.2461 96.7305H24.2461V98H26.2461H28.2461V96.7305H26.2461ZM37.0523 89.1133H39.0523V87.1133H37.0523V89.1133ZM37.0523 90.3828V92.3828H39.0523V90.3828H37.0523ZM34.5133 90.3828V88.3828H32.5133V90.3828H34.5133ZM34.5133 98V100H36.5133V98H34.5133ZM30.7047 98H28.7047V100H30.7047V98ZM30.7047 90.3828H32.7047V88.3828H30.7047V90.3828ZM28.1656 90.3828H26.1656V92.3828H28.1656V90.3828ZM28.1656 89.1133V87.1133H26.1656V89.1133H28.1656ZM37.0523 89.1133H35.0523V90.3828H37.0523H39.0523V89.1133H37.0523ZM37.0523 90.3828V88.3828H34.5133V90.3828V92.3828H37.0523V90.3828ZM34.5133 90.3828H32.5133V98H34.5133H36.5133V90.3828H34.5133ZM34.5133 98V96H30.7047V98V100H34.5133V98ZM30.7047 98H32.7047V90.3828H30.7047H28.7047V98H30.7047ZM30.7047 90.3828V88.3828H28.1656V90.3828V92.3828H30.7047V90.3828ZM28.1656 90.3828H30.1656V89.1133H28.1656H26.1656V90.3828H28.1656ZM28.1656 89.1133V91.1133H37.0523V89.1133V87.1133H28.1656V89.1133ZM38.9719 98H36.9719V100H38.9719V98ZM38.9719 90.3828V88.3828H36.9719V90.3828H38.9719ZM40.2414 90.3828V92.3828H42.2414V90.3828H40.2414ZM40.2414 89.1133V87.1133H38.2414V89.1133H40.2414ZM46.5891 89.1133H48.5891V87.1133H46.5891V89.1133ZM46.5891 90.3828H44.5891V92.3828H46.5891V90.3828ZM47.8586 90.3828H49.8586V88.3828H47.8586V90.3828ZM47.8586 98V100H49.8586V98H47.8586ZM45.3195 98H43.3195V100H45.3195V98ZM45.3195 94.1914H47.3195V92.1914H45.3195V94.1914ZM42.7805 94.1914V92.1914H40.7805V94.1914H42.7805ZM42.7805 98V100H44.7805V98H42.7805ZM42.7805 90.5796V88.5796H40.7805V90.5796H42.7805ZM42.7805 92.9219H40.7805V94.9219H42.7805V92.9219ZM45.3195 92.9219V94.9219H47.3195V92.9219H45.3195ZM45.3195 90.5796H47.3195V88.5796H45.3195V90.5796ZM38.9719 98H40.9719V90.3828H38.9719H36.9719V98H38.9719ZM38.9719 90.3828V92.3828H40.2414V90.3828V88.3828H38.9719V90.3828ZM40.2414 90.3828H42.2414V89.1133H40.2414H38.2414V90.3828H40.2414ZM40.2414 89.1133V91.1133H46.5891V89.1133V87.1133H40.2414V89.1133ZM46.5891 89.1133H44.5891V90.3828H46.5891H48.5891V89.1133H46.5891ZM46.5891 90.3828V92.3828H47.8586V90.3828V88.3828H46.5891V90.3828ZM47.8586 90.3828H45.8586V98H47.8586H49.8586V90.3828H47.8586ZM47.8586 98V96H45.3195V98V100H47.8586V98ZM45.3195 98H47.3195V94.1914H45.3195H43.3195V98H45.3195ZM45.3195 94.1914V92.1914H42.7805V94.1914V96.1914H45.3195V94.1914ZM42.7805 94.1914H40.7805V98H42.7805H44.7805V94.1914H42.7805ZM42.7805 98V96H38.9719V98V100H42.7805V98ZM42.7805 90.5796H40.7805V92.9219H42.7805H44.7805V90.5796H42.7805ZM42.7805 92.9219V94.9219H45.3195V92.9219V90.9219H42.7805V92.9219ZM45.3195 92.9219H47.3195V90.5796H45.3195H43.3195V92.9219H45.3195ZM45.3195 90.5796V88.5796H42.7805V90.5796V92.5796H45.3195V90.5796ZM57.3953 89.1133H59.3953V87.1133H57.3953V89.1133ZM57.3953 90.3828V92.3828H59.3953V90.3828H57.3953ZM56.1258 90.3828V88.3828H54.1258V90.3828H56.1258ZM56.1258 96.7305H54.1258V98.7305H56.1258V96.7305ZM57.3953 96.7305H59.3953V94.7305H57.3953V96.7305ZM57.3953 98V100H59.3953V98H57.3953ZM51.0477 98H49.0477V100H51.0477V98ZM51.0477 96.7305V94.7305H49.0477V96.7305H51.0477ZM52.3172 96.7305V98.7305H54.3172V96.7305H52.3172ZM52.3172 90.3828H54.3172V88.3828H52.3172V90.3828ZM51.0477 90.3828H49.0477V92.3828H51.0477V90.3828ZM51.0477 89.1133V87.1133H49.0477V89.1133H51.0477ZM57.3953 89.1133H55.3953V90.3828H57.3953H59.3953V89.1133H57.3953ZM57.3953 90.3828V88.3828H56.1258V90.3828V92.3828H57.3953V90.3828ZM56.1258 90.3828H54.1258V96.7305H56.1258H58.1258V90.3828H56.1258ZM56.1258 96.7305V98.7305H57.3953V96.7305V94.7305H56.1258V96.7305ZM57.3953 96.7305H55.3953V98H57.3953H59.3953V96.7305H57.3953ZM57.3953 98V96H51.0477V98V100H57.3953V98ZM51.0477 98H53.0477V96.7305H51.0477H49.0477V98H51.0477ZM51.0477 96.7305V98.7305H52.3172V96.7305V94.7305H51.0477V96.7305ZM52.3172 96.7305H54.3172V90.3828H52.3172H50.3172V96.7305H52.3172ZM52.3172 90.3828V88.3828H51.0477V90.3828V92.3828H52.3172V90.3828ZM51.0477 90.3828H53.0477V89.1133H51.0477H49.0477V90.3828H51.0477ZM51.0477 89.1133V91.1133H57.3953V89.1133V87.1133H51.0477V89.1133ZM69.4711 98V100H71.4711V98H69.4711ZM60.5844 98H58.5844V100H60.5844V98ZM60.5844 89.1133V87.1133H58.5844V89.1133H60.5844ZM64.393 89.1133H66.393V87.1133H64.393V89.1133ZM64.393 96.7305H62.393V98.7305H64.393V96.7305ZM69.4711 96.7305H71.4711V94.7305H69.4711V96.7305ZM69.4711 98V96H60.5844V98V100H69.4711V98ZM60.5844 98H62.5844V89.1133H60.5844H58.5844V98H60.5844ZM60.5844 89.1133V91.1133H64.393V89.1133V87.1133H60.5844V89.1133ZM64.393 89.1133H62.393V96.7305H64.393H66.393V89.1133H64.393ZM64.393 96.7305V98.7305H69.4711V96.7305V94.7305H64.393V96.7305ZM69.4711 96.7305H67.4711V98H69.4711H71.4711V96.7305H69.4711ZM71.3906 95.4609V93.4609H69.3906V95.4609H71.3906ZM73.9297 95.4609H75.9297V93.4609H73.9297V95.4609ZM73.9297 96.7305H71.9297V98.7305H73.9297V96.7305ZM77.7383 96.7305V98.7305H79.7383V96.7305H77.7383ZM77.7383 94.1914H79.7383V92.1914H77.7383V94.1914ZM72.6602 94.1914H70.6602V96.1914H72.6602V94.1914ZM72.6602 92.9219H74.6602V90.9219H72.6602V92.9219ZM71.3906 92.9219H69.3906V94.9219H71.3906V92.9219ZM71.3906 90.3828V88.3828H69.3906V90.3828H71.3906ZM72.6602 90.3828V92.3828H74.6602V90.3828H72.6602ZM72.6602 89.1133V87.1133H70.6602V89.1133H72.6602ZM79.0078 89.1133H81.0078V87.1133H79.0078V89.1133ZM79.0078 90.3828H77.0078V92.3828H79.0078V90.3828ZM80.2773 90.3828H82.2773V88.3828H80.2773V90.3828ZM80.2773 91.6523V93.6523H82.2773V91.6523H80.2773ZM77.7383 91.6523H75.7383V93.6523H77.7383V91.6523ZM77.7383 90.3828H79.7383V88.3828H77.7383V90.3828ZM75.1992 90.3828V88.3828H73.1992V90.3828H75.1992ZM75.1992 92.9219H73.1992V94.9219H75.1992V92.9219ZM79.0078 92.9219H81.0078V90.9219H79.0078V92.9219ZM79.0078 94.1914H77.0078V96.1914H79.0078V94.1914ZM80.2773 94.1914H82.2773V92.1914H80.2773V94.1914ZM80.2773 96.7305V98.7305H82.2773V96.7305H80.2773ZM79.0078 96.7305V94.7305H77.0078V96.7305H79.0078ZM79.0078 98V100H81.0078V98H79.0078ZM72.6602 98H70.6602V100H72.6602V98ZM72.6602 96.7305H74.6602V94.7305H72.6602V96.7305ZM71.3906 96.7305H69.3906V98.7305H71.3906V96.7305ZM71.3906 95.4609V97.4609H73.9297V95.4609V93.4609H71.3906V95.4609ZM73.9297 95.4609H71.9297V96.7305H73.9297H75.9297V95.4609H73.9297ZM73.9297 96.7305V98.7305H77.7383V96.7305V94.7305H73.9297V96.7305ZM77.7383 96.7305H79.7383V94.1914H77.7383H75.7383V96.7305H77.7383ZM77.7383 94.1914V92.1914H72.6602V94.1914V96.1914H77.7383V94.1914ZM72.6602 94.1914H74.6602V92.9219H72.6602H70.6602V94.1914H72.6602ZM72.6602 92.9219V90.9219H71.3906V92.9219V94.9219H72.6602V92.9219ZM71.3906 92.9219H73.3906V90.3828H71.3906H69.3906V92.9219H71.3906ZM71.3906 90.3828V92.3828H72.6602V90.3828V88.3828H71.3906V90.3828ZM72.6602 90.3828H74.6602V89.1133H72.6602H70.6602V90.3828H72.6602ZM72.6602 89.1133V91.1133H79.0078V89.1133V87.1133H72.6602V89.1133ZM79.0078 89.1133H77.0078V90.3828H79.0078H81.0078V89.1133H79.0078ZM79.0078 90.3828V92.3828H80.2773V90.3828V88.3828H79.0078V90.3828ZM80.2773 90.3828H78.2773V91.6523H80.2773H82.2773V90.3828H80.2773ZM80.2773 91.6523V89.6523H77.7383V91.6523V93.6523H80.2773V91.6523ZM77.7383 91.6523H79.7383V90.3828H77.7383H75.7383V91.6523H77.7383ZM77.7383 90.3828V88.3828H75.1992V90.3828V92.3828H77.7383V90.3828ZM75.1992 90.3828H73.1992V92.9219H75.1992H77.1992V90.3828H75.1992ZM75.1992 92.9219V94.9219H79.0078V92.9219V90.9219H75.1992V92.9219ZM79.0078 92.9219H77.0078V94.1914H79.0078H81.0078V92.9219H79.0078ZM79.0078 94.1914V96.1914H80.2773V94.1914V92.1914H79.0078V94.1914ZM80.2773 94.1914H78.2773V96.7305H80.2773H82.2773V94.1914H80.2773ZM80.2773 96.7305V94.7305H79.0078V96.7305V98.7305H80.2773V96.7305ZM79.0078 96.7305H77.0078V98H79.0078H81.0078V96.7305H79.0078ZM79.0078 98V96H72.6602V98V100H79.0078V98ZM72.6602 98H74.6602V96.7305H72.6602H70.6602V98H72.6602ZM72.6602 96.7305V94.7305H71.3906V96.7305V98.7305H72.6602V96.7305ZM71.3906 96.7305H73.3906V95.4609H71.3906H69.3906V96.7305H71.3906ZM96.8117 90.3828V88.3828H94.8117V90.3828H96.8117ZM96.8117 96.7305H94.8117V98.7305H96.8117V96.7305ZM101.89 96.7305H103.89V94.7305H101.89V96.7305ZM101.89 98V100H103.89V98H101.89ZM94.2727 98H92.2727V100H94.2727V98ZM94.2727 96.7305H96.2727V94.7305H94.2727V96.7305ZM93.0031 96.7305H91.0031V98.7305H93.0031V96.7305ZM93.0031 90.3828V88.3828H91.0031V90.3828H93.0031ZM94.2727 90.3828V92.3828H96.2727V90.3828H94.2727ZM94.2727 89.1133V87.1133H92.2727V89.1133H94.2727ZM101.89 89.1133H103.89V87.1133H101.89V89.1133ZM101.89 90.3828V92.3828H103.89V90.3828H101.89ZM96.8117 90.3828H94.8117V96.7305H96.8117H98.8117V90.3828H96.8117ZM96.8117 96.7305V98.7305H101.89V96.7305V94.7305H96.8117V96.7305ZM101.89 96.7305H99.8898V98H101.89H103.89V96.7305H101.89ZM101.89 98V96H94.2727V98V100H101.89V98ZM94.2727 98H96.2727V96.7305H94.2727H92.2727V98H94.2727ZM94.2727 96.7305V94.7305H93.0031V96.7305V98.7305H94.2727V96.7305ZM93.0031 96.7305H95.0031V90.3828H93.0031H91.0031V96.7305H93.0031ZM93.0031 90.3828V92.3828H94.2727V90.3828V88.3828H93.0031V90.3828ZM94.2727 90.3828H96.2727V89.1133H94.2727H92.2727V90.3828H94.2727ZM94.2727 89.1133V91.1133H101.89V89.1133V87.1133H94.2727V89.1133ZM101.89 89.1133H99.8898V90.3828H101.89H103.89V89.1133H101.89ZM101.89 90.3828V88.3828H96.8117V90.3828V92.3828H101.89V90.3828ZM111.427 98V100H113.427V98H111.427ZM105.079 98H103.079V100H105.079V98ZM105.079 96.7305H107.079V94.7305H105.079V96.7305ZM103.809 96.7305H101.809V98.7305H103.809V96.7305ZM103.809 90.3828V88.3828H101.809V90.3828H103.809ZM105.079 90.3828V92.3828H107.079V90.3828H105.079ZM105.079 89.1133V87.1133H103.079V89.1133H105.079ZM111.427 89.1133H113.427V87.1133H111.427V89.1133ZM111.427 90.3828H109.427V92.3828H111.427V90.3828ZM112.696 90.3828H114.696V88.3828H112.696V90.3828ZM112.696 96.7305V98.7305H114.696V96.7305H112.696ZM111.427 96.7305V94.7305H109.427V96.7305H111.427ZM110.157 96.7305V98.7305H112.157V96.7305H110.157ZM110.157 90.3828H112.157V88.3828H110.157V90.3828ZM107.618 90.3828V88.3828H105.618V90.3828H107.618ZM107.618 96.7305H105.618V98.7305H107.618V96.7305ZM111.427 98V96H105.079V98V100H111.427V98ZM105.079 98H107.079V96.7305H105.079H103.079V98H105.079ZM105.079 96.7305V94.7305H103.809V96.7305V98.7305H105.079V96.7305ZM103.809 96.7305H105.809V90.3828H103.809H101.809V96.7305H103.809ZM103.809 90.3828V92.3828H105.079V90.3828V88.3828H103.809V90.3828ZM105.079 90.3828H107.079V89.1133H105.079H103.079V90.3828H105.079ZM105.079 89.1133V91.1133H111.427V89.1133V87.1133H105.079V89.1133ZM111.427 89.1133H109.427V90.3828H111.427H113.427V89.1133H111.427ZM111.427 90.3828V92.3828H112.696V90.3828V88.3828H111.427V90.3828ZM112.696 90.3828H110.696V96.7305H112.696H114.696V90.3828H112.696ZM112.696 96.7305V94.7305H111.427V96.7305V98.7305H112.696V96.7305ZM111.427 96.7305H109.427V98H111.427H113.427V96.7305H111.427ZM110.157 96.7305H112.157V90.3828H110.157H108.157V96.7305H110.157ZM110.157 90.3828V88.3828H107.618V90.3828V92.3828H110.157V90.3828ZM107.618 90.3828H105.618V96.7305H107.618H109.618V90.3828H107.618ZM107.618 96.7305V98.7305H110.157V96.7305V94.7305H107.618V96.7305ZM120.963 90.3828V88.3828H118.963V90.3828H120.963ZM120.963 98V100H122.963V98H120.963ZM118.424 98H116.424V100H118.424V98ZM118.424 90.3828H120.424V88.3828H118.424V90.3828ZM117.155 90.3828V88.3828H115.155V90.3828H117.155ZM117.155 98V100H119.155V98H117.155ZM114.616 98H112.616V100H114.616V98ZM114.616 89.1133V87.1133H112.616V89.1133H114.616ZM122.239 89.1133H124.239V87.1133H122.239V89.1133ZM122.239 90.3828H120.239V92.3828H122.239V90.3828ZM123.502 90.3828H125.502V88.3828H123.502V90.3828ZM123.502 98V100H125.502V98H123.502ZM122.233 98H120.233V100H122.233V98ZM122.233 90.3828H124.233V88.3828H122.233V90.3828ZM120.963 90.3828H118.963V98H120.963H122.963V90.3828H120.963ZM120.963 98V96H118.424V98V100H120.963V98ZM118.424 98H120.424V90.3828H118.424H116.424V98H118.424ZM118.424 90.3828V88.3828H117.155V90.3828V92.3828H118.424V90.3828ZM117.155 90.3828H115.155V98H117.155H119.155V90.3828H117.155ZM117.155 98V96H114.616V98V100H117.155V98ZM114.616 98H116.616V89.1133H114.616H112.616V98H114.616ZM114.616 89.1133V91.1133H122.239V89.1133V87.1133H114.616V89.1133ZM122.239 89.1133H120.239V90.3828H122.239H124.239V89.1133H122.239ZM122.239 90.3828V92.3828H123.502V90.3828V88.3828H122.239V90.3828ZM123.502 90.3828H121.502V98H123.502H125.502V90.3828H123.502ZM123.502 98V96H122.233V98V100H123.502V98ZM122.233 98H124.233V90.3828H122.233H120.233V98H122.233ZM122.233 90.3828V88.3828H120.963V90.3828V92.3828H122.233V90.3828ZM131.77 90.3828V88.3828H129.77V90.3828H131.77ZM131.77 98V100H133.77V98H131.77ZM129.23 98H127.23V100H129.23V98ZM129.23 90.3828H131.23V88.3828H129.23V90.3828ZM127.961 90.3828V88.3828H125.961V90.3828H127.961ZM127.961 98V100H129.961V98H127.961ZM125.422 98H123.422V100H125.422V98ZM125.422 89.1133V87.1133H123.422V89.1133H125.422ZM133.045 89.1133H135.045V87.1133H133.045V89.1133ZM133.045 90.3828H131.045V92.3828H133.045V90.3828ZM134.309 90.3828H136.309V88.3828H134.309V90.3828ZM134.309 98V100H136.309V98H134.309ZM133.039 98H131.039V100H133.039V98ZM133.039 90.3828H135.039V88.3828H133.039V90.3828ZM131.77 90.3828H129.77V98H131.77H133.77V90.3828H131.77ZM131.77 98V96H129.23V98V100H131.77V98ZM129.23 98H131.23V90.3828H129.23H127.23V98H129.23ZM129.23 90.3828V88.3828H127.961V90.3828V92.3828H129.23V90.3828ZM127.961 90.3828H125.961V98H127.961H129.961V90.3828H127.961ZM127.961 98V96H125.422V98V100H127.961V98ZM125.422 98H127.422V89.1133H125.422H123.422V98H125.422ZM125.422 89.1133V91.1133H133.045V89.1133V87.1133H125.422V89.1133ZM133.045 89.1133H131.045V90.3828H133.045H135.045V89.1133H133.045ZM133.045 90.3828V92.3828H134.309V90.3828V88.3828H133.045V90.3828ZM134.309 90.3828H132.309V98H134.309H136.309V90.3828H134.309ZM134.309 98V96H133.039V98V100H134.309V98ZM133.039 98H135.039V90.3828H133.039H131.039V98H133.039ZM133.039 90.3828V88.3828H131.77V90.3828V92.3828H133.039V90.3828ZM143.845 89.1133H145.845V87.1133H143.845V89.1133ZM143.845 90.3828V92.3828H145.845V90.3828H143.845ZM142.576 90.3828V88.3828H140.576V90.3828H142.576ZM142.576 96.7305H140.576V98.7305H142.576V96.7305ZM143.845 96.7305H145.845V94.7305H143.845V96.7305ZM143.845 98V100H145.845V98H143.845ZM137.498 98H135.498V100H137.498V98ZM137.498 96.7305V94.7305H135.498V96.7305H137.498ZM138.767 96.7305V98.7305H140.767V96.7305H138.767ZM138.767 90.3828H140.767V88.3828H138.767V90.3828ZM137.498 90.3828H135.498V92.3828H137.498V90.3828ZM137.498 89.1133V87.1133H135.498V89.1133H137.498ZM143.845 89.1133H141.845V90.3828H143.845H145.845V89.1133H143.845ZM143.845 90.3828V88.3828H142.576V90.3828V92.3828H143.845V90.3828ZM142.576 90.3828H140.576V96.7305H142.576H144.576V90.3828H142.576ZM142.576 96.7305V98.7305H143.845V96.7305V94.7305H142.576V96.7305ZM143.845 96.7305H141.845V98H143.845H145.845V96.7305H143.845ZM143.845 98V96H137.498V98V100H143.845V98ZM137.498 98H139.498V96.7305H137.498H135.498V98H137.498ZM137.498 96.7305V98.7305H138.767V96.7305V94.7305H137.498V96.7305ZM138.767 96.7305H140.767V90.3828H138.767H136.767V96.7305H138.767ZM138.767 90.3828V88.3828H137.498V90.3828V92.3828H138.767V90.3828ZM137.498 90.3828H139.498V89.1133H137.498H135.498V90.3828H137.498ZM137.498 89.1133V91.1133H143.845V89.1133V87.1133H137.498V89.1133ZM147.034 98H145.034V100H147.034V98ZM147.034 89.1133V87.1133H145.034V89.1133H147.034ZM154.652 89.1133H156.652V87.1133H154.652V89.1133ZM154.652 90.3828H152.652V92.3828H154.652V90.3828ZM155.921 90.3828H157.921V88.3828H155.921V90.3828ZM155.921 98V100H157.921V98H155.921ZM153.382 98H151.382V100H153.382V98ZM153.382 90.3828H155.382V88.3828H153.382V90.3828ZM150.843 90.3828V88.3828H148.841L148.843 90.3845L150.843 90.3828ZM150.849 98V100H152.851L152.849 97.9983L150.849 98ZM147.034 98H149.034V89.1133H147.034H145.034V98H147.034ZM147.034 89.1133V91.1133H154.652V89.1133V87.1133H147.034V89.1133ZM154.652 89.1133H152.652V90.3828H154.652H156.652V89.1133H154.652ZM154.652 90.3828V92.3828H155.921V90.3828V88.3828H154.652V90.3828ZM155.921 90.3828H153.921V98H155.921H157.921V90.3828H155.921ZM155.921 98V96H153.382V98V100H155.921V98ZM153.382 98H155.382V90.3828H153.382H151.382V98H153.382ZM153.382 90.3828V88.3828H150.843V90.3828V92.3828H153.382V90.3828ZM150.843 90.3828L148.843 90.3845L148.849 98.0017L150.849 98L152.849 97.9983L152.843 90.3811L150.843 90.3828ZM150.849 98V96H147.034V98V100H150.849V98ZM166.727 92.9219H168.727V90.9219H166.727V92.9219ZM166.727 96.7305V98.7305H168.727V96.7305H166.727ZM165.458 96.7305V94.7305H163.458V96.7305H165.458ZM165.458 98V100H167.458V98H165.458ZM159.11 98H157.11V100H159.11V98ZM159.11 96.7305H161.11V94.7305H159.11V96.7305ZM157.841 96.7305H155.841V98.7305H157.841V96.7305ZM157.841 90.3828V88.3828H155.841V90.3828H157.841ZM159.11 90.3828V92.3828H161.11V90.3828H159.11ZM159.11 89.1133V87.1133H157.11V89.1133H159.11ZM165.464 89.1133H167.464V87.1133H165.464V89.1133ZM165.464 90.3828H163.464V92.3828H165.464V90.3828ZM166.727 90.3828H168.727V88.3828H166.727V90.3828ZM166.727 91.6523V93.6523H168.727V91.6523H166.727ZM165.458 91.6523H163.458V93.6523H165.458V91.6523ZM165.458 90.3828H167.458V88.3828H165.458V90.3828ZM161.649 90.3828V88.3828H159.649V90.3828H161.649ZM161.649 96.7305H159.649V98.7305H161.649V96.7305ZM164.188 96.7305V98.7305H166.188V96.7305H164.188ZM164.188 94.1914H166.188V92.1914H164.188V94.1914ZM162.919 94.1914L160.919 94.1814L160.909 96.1914H162.919V94.1914ZM162.925 92.9219V90.9219H160.935L160.925 92.9119L162.925 92.9219ZM166.727 92.9219H164.727V96.7305H166.727H168.727V92.9219H166.727ZM166.727 96.7305V94.7305H165.458V96.7305V98.7305H166.727V96.7305ZM165.458 96.7305H163.458V98H165.458H167.458V96.7305H165.458ZM165.458 98V96H159.11V98V100H165.458V98ZM159.11 98H161.11V96.7305H159.11H157.11V98H159.11ZM159.11 96.7305V94.7305H157.841V96.7305V98.7305H159.11V96.7305ZM157.841 96.7305H159.841V90.3828H157.841H155.841V96.7305H157.841ZM157.841 90.3828V92.3828H159.11V90.3828V88.3828H157.841V90.3828ZM159.11 90.3828H161.11V89.1133H159.11H157.11V90.3828H159.11ZM159.11 89.1133V91.1133H165.464V89.1133V87.1133H159.11V89.1133ZM165.464 89.1133H163.464V90.3828H165.464H167.464V89.1133H165.464ZM165.464 90.3828V92.3828H166.727V90.3828V88.3828H165.464V90.3828ZM166.727 90.3828H164.727V91.6523H166.727H168.727V90.3828H166.727ZM166.727 91.6523V89.6523H165.458V91.6523V93.6523H166.727V91.6523ZM165.458 91.6523H167.458V90.3828H165.458H163.458V91.6523H165.458ZM165.458 90.3828V88.3828H161.649V90.3828V92.3828H165.458V90.3828ZM161.649 90.3828H159.649V96.7305H161.649H163.649V90.3828H161.649ZM161.649 96.7305V98.7305H164.188V96.7305V94.7305H161.649V96.7305ZM164.188 96.7305H166.188V94.1914H164.188H162.188V96.7305H164.188ZM164.188 94.1914V92.1914H162.919V94.1914V96.1914H164.188V94.1914ZM162.919 94.1914L164.919 94.2014L164.925 92.9319L162.925 92.9219L160.925 92.9119L160.919 94.1814L162.919 94.1914ZM162.925 92.9219V94.9219H166.727V92.9219V90.9219H162.925V92.9219ZM179.453 95.4609V93.4609H177.453V95.4609H179.453ZM181.992 95.4609H183.992V93.4609H181.992V95.4609ZM181.992 96.7305H179.992V98.7305H181.992V96.7305ZM185.801 96.7305V98.7305H187.801V96.7305H185.801ZM185.801 94.1914H187.801V92.1914H185.801V94.1914ZM180.723 94.1914H178.723V96.1914H180.723V94.1914ZM180.723 92.9219H182.723V90.9219H180.723V92.9219ZM179.453 92.9219H177.453V94.9219H179.453V92.9219ZM179.453 90.3828V88.3828H177.453V90.3828H179.453ZM180.723 90.3828V92.3828H182.723V90.3828H180.723ZM180.723 89.1133V87.1133H178.723V89.1133H180.723ZM187.07 89.1133H189.07V87.1133H187.07V89.1133ZM187.07 90.3828H185.07V92.3828H187.07V90.3828ZM188.34 90.3828H190.34V88.3828H188.34V90.3828ZM188.34 91.6523V93.6523H190.34V91.6523H188.34ZM185.801 91.6523H183.801V93.6523H185.801V91.6523ZM185.801 90.3828H187.801V88.3828H185.801V90.3828ZM183.262 90.3828V88.3828H181.262V90.3828H183.262ZM183.262 92.9219H181.262V94.9219H183.262V92.9219ZM187.07 92.9219H189.07V90.9219H187.07V92.9219ZM187.07 94.1914H185.07V96.1914H187.07V94.1914ZM188.34 94.1914H190.34V92.1914H188.34V94.1914ZM188.34 96.7305V98.7305H190.34V96.7305H188.34ZM187.07 96.7305V94.7305H185.07V96.7305H187.07ZM187.07 98V100H189.07V98H187.07ZM180.723 98H178.723V100H180.723V98ZM180.723 96.7305H182.723V94.7305H180.723V96.7305ZM179.453 96.7305H177.453V98.7305H179.453V96.7305ZM179.453 95.4609V97.4609H181.992V95.4609V93.4609H179.453V95.4609ZM181.992 95.4609H179.992V96.7305H181.992H183.992V95.4609H181.992ZM181.992 96.7305V98.7305H185.801V96.7305V94.7305H181.992V96.7305ZM185.801 96.7305H187.801V94.1914H185.801H183.801V96.7305H185.801ZM185.801 94.1914V92.1914H180.723V94.1914V96.1914H185.801V94.1914ZM180.723 94.1914H182.723V92.9219H180.723H178.723V94.1914H180.723ZM180.723 92.9219V90.9219H179.453V92.9219V94.9219H180.723V92.9219ZM179.453 92.9219H181.453V90.3828H179.453H177.453V92.9219H179.453ZM179.453 90.3828V92.3828H180.723V90.3828V88.3828H179.453V90.3828ZM180.723 90.3828H182.723V89.1133H180.723H178.723V90.3828H180.723ZM180.723 89.1133V91.1133H187.07V89.1133V87.1133H180.723V89.1133ZM187.07 89.1133H185.07V90.3828H187.07H189.07V89.1133H187.07ZM187.07 90.3828V92.3828H188.34V90.3828V88.3828H187.07V90.3828ZM188.34 90.3828H186.34V91.6523H188.34H190.34V90.3828H188.34ZM188.34 91.6523V89.6523H185.801V91.6523V93.6523H188.34V91.6523ZM185.801 91.6523H187.801V90.3828H185.801H183.801V91.6523H185.801ZM185.801 90.3828V88.3828H183.262V90.3828V92.3828H185.801V90.3828ZM183.262 90.3828H181.262V92.9219H183.262H185.262V90.3828H183.262ZM183.262 92.9219V94.9219H187.07V92.9219V90.9219H183.262V92.9219ZM187.07 92.9219H185.07V94.1914H187.07H189.07V92.9219H187.07ZM187.07 94.1914V96.1914H188.34V94.1914V92.1914H187.07V94.1914ZM188.34 94.1914H186.34V96.7305H188.34H190.34V94.1914H188.34ZM188.34 96.7305V94.7305H187.07V96.7305V98.7305H188.34V96.7305ZM187.07 96.7305H185.07V98H187.07H189.07V96.7305H187.07ZM187.07 98V96H180.723V98V100H187.07V98ZM180.723 98H182.723V96.7305H180.723H178.723V98H180.723ZM180.723 96.7305V94.7305H179.453V96.7305V98.7305H180.723V96.7305ZM179.453 96.7305H181.453V95.4609H179.453H177.453V96.7305H179.453ZM197.877 98V100H199.877V98H197.877ZM191.529 98H189.529V100H191.529V98ZM191.529 96.7305H193.529V94.7305H191.529V96.7305ZM190.259 96.7305H188.259V98.7305H190.259V96.7305ZM190.259 90.3828V88.3828H188.259V90.3828H190.259ZM191.529 90.3828V92.3828H193.529V90.3828H191.529ZM191.529 89.1133V87.1133H189.529V89.1133H191.529ZM197.877 89.1133H199.877V87.1133H197.877V89.1133ZM197.877 90.3828H195.877V92.3828H197.877V90.3828ZM199.146 90.3828H201.146V88.3828H199.146V90.3828ZM199.146 96.7305V98.7305H201.146V96.7305H199.146ZM197.877 96.7305V94.7305H195.877V96.7305H197.877ZM196.607 96.7305V98.7305H198.607V96.7305H196.607ZM196.607 90.3828H198.607V88.3828H196.607V90.3828ZM194.068 90.3828V88.3828H192.068V90.3828H194.068ZM194.068 96.7305H192.068V98.7305H194.068V96.7305ZM197.877 98V96H191.529V98V100H197.877V98ZM191.529 98H193.529V96.7305H191.529H189.529V98H191.529ZM191.529 96.7305V94.7305H190.259V96.7305V98.7305H191.529V96.7305ZM190.259 96.7305H192.259V90.3828H190.259H188.259V96.7305H190.259ZM190.259 90.3828V92.3828H191.529V90.3828V88.3828H190.259V90.3828ZM191.529 90.3828H193.529V89.1133H191.529H189.529V90.3828H191.529ZM191.529 89.1133V91.1133H197.877V89.1133V87.1133H191.529V89.1133ZM197.877 89.1133H195.877V90.3828H197.877H199.877V89.1133H197.877ZM197.877 90.3828V92.3828H199.146V90.3828V88.3828H197.877V90.3828ZM199.146 90.3828H197.146V96.7305H199.146H201.146V90.3828H199.146ZM199.146 96.7305V94.7305H197.877V96.7305V98.7305H199.146V96.7305ZM197.877 96.7305H195.877V98H197.877H199.877V96.7305H197.877ZM196.607 96.7305H198.607V90.3828H196.607H194.607V96.7305H196.607ZM196.607 90.3828V88.3828H194.068V90.3828V92.3828H196.607V90.3828ZM194.068 90.3828H192.068V96.7305H194.068H196.068V90.3828H194.068ZM194.068 96.7305V98.7305H196.607V96.7305V94.7305H194.068V96.7305ZM208.683 98V100H210.683V98H208.683ZM202.335 98H200.335V100H202.335V98ZM202.335 96.7305H204.335V94.7305H202.335V96.7305ZM201.066 96.7305H199.066V98.7305H201.066V96.7305ZM201.066 90.3828V88.3828H199.066V90.3828H201.066ZM202.335 90.3828V92.3828H204.335V90.3828H202.335ZM202.335 89.1133V87.1133H200.335V89.1133H202.335ZM208.683 89.1133H210.683V87.1133H208.683V89.1133ZM208.683 90.3828H206.683V92.3828H208.683V90.3828ZM209.952 90.3828H211.952V88.3828H209.952V90.3828ZM209.952 96.7305V98.7305H211.952V96.7305H209.952ZM208.683 96.7305V94.7305H206.683V96.7305H208.683ZM207.413 96.7305V98.7305H209.413V96.7305H207.413ZM207.413 90.3828H209.413V88.3828H207.413V90.3828ZM204.874 90.3828V88.3828H202.874V90.3828H204.874ZM204.874 96.7305H202.874V98.7305H204.874V96.7305ZM208.683 98V96H202.335V98V100H208.683V98ZM202.335 98H204.335V96.7305H202.335H200.335V98H202.335ZM202.335 96.7305V94.7305H201.066V96.7305V98.7305H202.335V96.7305ZM201.066 96.7305H203.066V90.3828H201.066H199.066V96.7305H201.066ZM201.066 90.3828V92.3828H202.335V90.3828V88.3828H201.066V90.3828ZM202.335 90.3828H204.335V89.1133H202.335H200.335V90.3828H202.335ZM202.335 89.1133V91.1133H208.683V89.1133V87.1133H202.335V89.1133ZM208.683 89.1133H206.683V90.3828H208.683H210.683V89.1133H208.683ZM208.683 90.3828V92.3828H209.952V90.3828V88.3828H208.683V90.3828ZM209.952 90.3828H207.952V96.7305H209.952H211.952V90.3828H209.952ZM209.952 96.7305V94.7305H208.683V96.7305V98.7305H209.952V96.7305ZM208.683 96.7305H206.683V98H208.683H210.683V96.7305H208.683ZM207.413 96.7305H209.413V90.3828H207.413H205.413V96.7305H207.413ZM207.413 90.3828V88.3828H204.874V90.3828V92.3828H207.413V90.3828ZM204.874 90.3828H202.874V96.7305H204.874H206.874V90.3828H204.874ZM204.874 96.7305V98.7305H207.413V96.7305V94.7305H204.874V96.7305ZM211.872 98H209.872V100H211.872V98ZM211.872 89.1133V87.1133H209.872V89.1133H211.872ZM219.489 89.1133H221.489V87.1133H219.489V89.1133ZM219.489 90.3828H217.489V92.3828H219.489V90.3828ZM220.759 90.3828H222.759V88.3828H220.759V90.3828ZM220.759 98V100H222.759V98H220.759ZM218.22 98H216.22V100H218.22V98ZM218.22 90.3828H220.22V88.3828H218.22V90.3828ZM215.68 90.3828V88.3828H213.679L213.68 90.3845L215.68 90.3828ZM215.687 98V100H217.688L217.687 97.9983L215.687 98ZM211.872 98H213.872V89.1133H211.872H209.872V98H211.872ZM211.872 89.1133V91.1133H219.489V89.1133V87.1133H211.872V89.1133ZM219.489 89.1133H217.489V90.3828H219.489H221.489V89.1133H219.489ZM219.489 90.3828V92.3828H220.759V90.3828V88.3828H219.489V90.3828ZM220.759 90.3828H218.759V98H220.759H222.759V90.3828H220.759ZM220.759 98V96H218.22V98V100H220.759V98ZM218.22 98H220.22V90.3828H218.22H216.22V98H218.22ZM218.22 90.3828V88.3828H215.68V90.3828V92.3828H218.22V90.3828ZM215.68 90.3828L213.68 90.3845L213.687 98.0017L215.687 98L217.687 97.9983L217.68 90.3811L215.68 90.3828ZM215.687 98V96H211.872V98V100H215.687V98ZM226.487 95.4609V93.4609H224.487V95.4609H226.487ZM229.026 95.4609H231.026V93.4609H229.026V95.4609ZM229.026 98V100H231.026V98H229.026ZM226.487 98H224.487V100H226.487V98ZM226.487 95.4609V97.4609H229.026V95.4609V93.4609H226.487V95.4609ZM229.026 95.4609H227.026V98H229.026H231.026V95.4609H229.026ZM229.026 98V96H226.487V98V100H229.026V98ZM226.487 98H228.487V95.4609H226.487H224.487V98H226.487ZM237.293 95.4609V93.4609H235.293V95.4609H237.293ZM239.832 95.4609H241.832V93.4609H239.832V95.4609ZM239.832 98V100H241.832V98H239.832ZM237.293 98H235.293V100H237.293V98ZM237.293 95.4609V97.4609H239.832V95.4609V93.4609H237.293V95.4609ZM239.832 95.4609H237.832V98H239.832H241.832V95.4609H239.832ZM239.832 98V96H237.293V98V100H239.832V98ZM237.293 98H239.293V95.4609H237.293H235.293V98H237.293ZM248.099 95.4609V93.4609H246.099V95.4609H248.099ZM250.638 95.4609H252.638V93.4609H250.638V95.4609ZM250.638 98V100H252.638V98H250.638ZM248.099 98H246.099V100H248.099V98ZM248.099 95.4609V97.4609H250.638V95.4609V93.4609H248.099V95.4609ZM250.638 95.4609H248.638V98H250.638H252.638V95.4609H250.638ZM250.638 98V96H248.099V98V100H250.638V98ZM248.099 98H250.099V95.4609H248.099H246.099V98H248.099Z" fill="#222256" mask="url(#path-214-outside-3_43_2386)"/>
</g>
<defs>
<filter id="filter0_d_43_2386" x="54.1875" y="54.3281" width="150.672" height="19.6719" filterUnits="userSpaceOnUse" color-interpolation-filters="sRGB">
<feFlood flood-opacity="0" result="BackgroundImageFix"/>
<feColorMatrix in="SourceAlpha" type="matrix" values="0 0 0 0 0 0 0 0 0 0 0 0 0 0 0 0 0 0 127 0" result="hardAlpha"/>
<feOffset dy="2"/>
<feComposite in2="hardAlpha" operator="out"/>
<feColorMatrix type="matrix" values="0 0 0 0 1 0 0 0 0 0.447059 0 0 0 0 0.152941 0 0 0 1 0"/>
<feBlend mode="normal" in2="BackgroundImageFix" result="effect1_dropShadow_43_2386"/>
<feBlend mode="normal" in="SourceGraphic" in2="effect1_dropShadow_43_2386" result="shape"/>
</filter>
<filter id="filter1_df_43_2386" x="29.325" y="73.5938" width="200.006" height="42.75" filterUnits="userSpaceOnUse" color-interpolation-filters="sRGB">
<feFlood flood-opacity="0" result="BackgroundImageFix"/>
<feColorMatrix in="SourceAlpha" type="matrix" values="0 0 0 0 0 0 0 0 0 0 0 0 0 0 0 0 0 0 127 0" result="hardAlpha"/>
<feOffset dy="2"/>
<feComposite in2="hardAlpha" operator="out"/>
<feColorMatrix type="matrix" values="0 0 0 0 1 0 0 0 0 0.447059 0 0 0 0 0.152941 0 0 0 1 0"/>
<feBlend mode="normal" in2="BackgroundImageFix" result="effect1_dropShadow_43_2386"/>
<feBlend mode="normal" in="SourceGraphic" in2="effect1_dropShadow_43_2386" result="shape"/>
<feGaussianBlur stdDeviation="5" result="effect2_foregroundBlur_43_2386"/>
</filter>
<filter id="filter2_d_43_2386" x="4.55313" y="87.1133" width="248.085" height="14.8867" filterUnits="userSpaceOnUse" color-interpolation-filters="sRGB">
<feFlood flood-opacity="0" result="BackgroundImageFix"/>
<feColorMatrix in="SourceAlpha" type="matrix" values="0 0 0 0 0 0 0 0 0 0 0 0 0 0 0 0 0 0 127 0" result="hardAlpha"/>
<feOffset dy="2"/>
<feComposite in2="hardAlpha" operator="out"/>
<feColorMatrix type="matrix" values="0 0 0 0 1 0 0 0 0 0.447059 0 0 0 0 0.152941 0 0 0 1 0"/>
<feBlend mode="normal" in2="BackgroundImageFix" result="effect1_dropShadow_43_2386"/>
<feBlend mode="normal" in="SourceGraphic" in2="effect1_dropShadow_43_2386" result="shape"/>
</filter>
</defs>
</svg>
