<svg width="33" height="33" viewBox="0 0 33 33" fill="none" xmlns="http://www.w3.org/2000/svg">
<path d="M30.0012 15.0006H26.9956V17.9994H30.0012V15.0006Z" fill="#00467F"/>
<path d="M26.9956 15.0006H23.9969V17.9994H26.9956V15.0006Z" fill="#0059B1"/>
<path d="M23.9969 15.0006H20.9981V17.9994H23.9969V15.0006Z" fill="#2491FF"/>
<path d="M21.0049 17.9994H18.0061V20.9981H21.0049V17.9994Z" fill="#64B9FF"/>
<path d="M21.0049 15.0006H18.0061V17.9994H21.0049V15.0006Z" fill="#2491FF"/>
<path d="M21.0049 11.9951H18.0061V15.0006H21.0049V11.9951Z" fill="#64B9FF"/>
<path d="M18.0061 26.9888H15.0074V29.9876H18.0061V26.9888Z" fill="#00467F"/>
<path d="M18.0061 23.9969H15.0074V26.9956H18.0061V23.9969Z" fill="#0059B1"/>
<path d="M18.0061 20.9981H15.0074V23.9969H18.0061V20.9981Z" fill="#2491FF"/>
<path d="M18.0061 17.9994H15.0074V20.9981H18.0061V17.9994Z" fill="#2491FF"/>
<path d="M18.0061 15.0006H15.0074V17.9994H18.0061V15.0006Z" fill="#64B9FF"/>
<path d="M18.0061 11.9951H15.0074V15.0006H18.0061V11.9951Z" fill="#2491FF"/>
<path d="M18.0061 8.99628H15.0074V11.995H18.0061V8.99628Z" fill="#2491FF"/>
<path d="M18.0061 5.9975H15.0074V8.99626H18.0061V5.9975Z" fill="#0059B1"/>
<path d="M18.0061 2.99878H15.0074V5.99754H18.0061V2.99878Z" fill="#00467F"/>
<path d="M15.0074 17.9994H12.0086V20.9981H15.0074V17.9994Z" fill="#64B9FF"/>
<path d="M15.0074 15.0006H12.0086V17.9994H15.0074V15.0006Z" fill="#2491FF"/>
<path d="M15.0074 11.9951H12.0086V15.0006H15.0074V11.9951Z" fill="#64B9FF"/>
<path d="M12.0086 15.0006H9.00986V17.9994H12.0086V15.0006Z" fill="#2491FF"/>
<path d="M9.00985 15.0006H6.0043V17.9994H9.00985V15.0006Z" fill="#0059B1"/>
<path d="M6.00433 15.0006H3.00558V17.9994H6.00433V15.0006Z" fill="#00467F"/>
<path d="M17.9994 29.9944H15.0006V32.9931H17.9994V29.9944Z" fill="#18163A"/>
<path d="M33 14.9938H30.0012V17.9993H33V14.9938Z" fill="#18163A"/>
<path d="M23.9969 11.9951H20.9981V15.0006H23.9969V11.9951Z" fill="#18163A"/>
<path d="M23.9969 17.9994H20.9981V20.9981H23.9969V17.9994Z" fill="#18163A"/>
<path d="M20.9981 8.99628H17.9994V11.995H20.9981V8.99628Z" fill="#18163A"/>
<path d="M20.9981 20.9981H17.9994V23.9969H20.9981V20.9981Z" fill="#18163A"/>
<path d="M17.9994 0H15.0006V2.99876H17.9994V0Z" fill="#18163A"/>
<path d="M15.0006 8.99628H12.0019V11.995H15.0006V8.99628Z" fill="#18163A"/>
<path d="M15.0006 20.9981H12.0019V23.9969H15.0006V20.9981Z" fill="#18163A"/>
<path d="M12.0019 11.9951H9.00311V14.9938H12.0019V11.9951Z" fill="#18163A"/>
<path d="M12.0086 17.9994H9.00986V20.9981H12.0086V17.9994Z" fill="#18163A"/>
<path d="M2.99878 14.9938H0V17.9993H2.99878V14.9938Z" fill="#18163A"/>
</svg>
