<svg width="32" height="32" viewBox="0 0 32 32" fill="none" xmlns="http://www.w3.org/2000/svg">
<g clip-path="url(#clip0_115_3277)">
<g filter="url(#filter0_d_115_3277)">
<path d="M7.99979 1.33594V30.6666H10.6678V27.9987H13.3344V25.332H16.0024V22.6667H18.6678L18.6691 22.6641V20.0027H21.3371V17.3347H23.9985V14.6681C23.1102 14.6694 22.224 14.6667 21.3371 14.6667V12H18.6692V9.33339H16.0025V6.66539H13.3346V3.99872H10.6679V1.33598L7.99979 1.33594Z" fill="#FFE14C"/>
<path d="M18.6691 20.0027V22.6641L18.6678 22.6667H16.0024V25.332H13.3344V27.9987H10.6678V30.6666H7.99979V1.33594L10.6679 1.33598V3.99872H13.3346V6.66539H16.0025V9.33339H18.6692V12H21.3371V14.6667C22.224 14.6667 23.1102 14.6694 23.9985 14.6681V17.3347H21.3371M18.6691 20.0027L18.6678 20.0002M18.6691 20.0027H21.3371V17.3347M21.3371 17.3347L21.3346 17.3334" stroke="#222256" stroke-width="3"/>
</g>
</g>
<defs>
<filter id="filter0_d_115_3277" x="6.49979" y="-0.164062" width="18.9987" height="36.3306" filterUnits="userSpaceOnUse" color-interpolation-filters="sRGB">
<feFlood flood-opacity="0" result="BackgroundImageFix"/>
<feColorMatrix in="SourceAlpha" type="matrix" values="0 0 0 0 0 0 0 0 0 0 0 0 0 0 0 0 0 0 127 0" result="hardAlpha"/>
<feOffset dy="4"/>
<feComposite in2="hardAlpha" operator="out"/>
<feColorMatrix type="matrix" values="0 0 0 0 0.389581 0 0 0 0 0.745192 0 0 0 0 0.0286612 0 0 0 1 0"/>
<feBlend mode="normal" in2="BackgroundImageFix" result="effect1_dropShadow_115_3277"/>
<feBlend mode="normal" in="SourceGraphic" in2="effect1_dropShadow_115_3277" result="shape"/>
</filter>
<clipPath id="clip0_115_3277">
<rect width="32" height="32" fill="white"/>
</clipPath>
</defs>
</svg>
