<svg width="78" height="78" viewBox="0 0 78 78" fill="none" xmlns="http://www.w3.org/2000/svg">
<path d="M7.04613 35.2469H-3.05176e-05V42.2932H7.04613V35.2469Z" fill="#222256"/>
<path d="M77.5401 35.2469H70.4779V42.2932H77.5401V35.2469Z" fill="#222256"/>
<path d="M63.4317 35.2469H56.3855V42.2932H63.4317V35.2469Z" fill="#222256"/>
<path d="M56.3855 28.2007H49.3394V35.247H56.3855V28.2007Z" fill="#222256"/>
<path d="M56.3855 42.2932H49.3394V49.3394H56.3855V42.2932Z" fill="#222256"/>
<path d="M49.3393 21.1545H42.2931V28.2007H49.3393V21.1545Z" fill="#222256"/>
<path d="M49.3393 28.2007H42.2931V35.247H49.3393V28.2007Z" fill="#222256"/>
<path d="M49.3393 42.2932H42.2931V49.3394H49.3393V42.2932Z" fill="#222256"/>
<path d="M49.3393 49.3394H42.2931V56.4015H49.3393V49.3394Z" fill="#222256"/>
<path d="M42.2931 0H35.2469V7.04621H42.2931V0Z" fill="#222256"/>
<path d="M42.2931 14.1083H35.2469V21.1545H42.2931V14.1083Z" fill="#222256"/>
<path d="M42.2931 56.4016H35.2469V63.4478H42.2931V56.4016Z" fill="#222256"/>
<path d="M42.2931 63.4478H35.2469V70.494H42.2931V63.4478Z" fill="#18163A"/>
<path d="M42.2931 70.494H35.2469V77.5402H42.2931V70.494Z" fill="#222256"/>
<path d="M35.2469 21.1545H28.1847V28.2007H35.2469V21.1545Z" fill="#222256"/>
<path d="M35.2469 28.2007H28.1847V35.247H35.2469V28.2007Z" fill="#222256"/>
<path d="M35.2469 42.2932H28.1847V49.3394H35.2469V42.2932Z" fill="#222256"/>
<path d="M35.2469 49.3394H28.1847V56.4015H35.2469V49.3394Z" fill="#222256"/>
<path d="M28.1847 28.2007H21.1385V35.247H28.1847V28.2007Z" fill="#222256"/>
<path d="M28.1847 42.2932H21.1385V49.3394H28.1847V42.2932Z" fill="#222256"/>
<path d="M21.1545 35.2469H14.1083V42.2932H21.1545V35.2469Z" fill="#222256"/>
<path d="M70.4619 35.2469H63.4158V42.2932H70.4619V35.2469Z" fill="#433F8F"/>
<path d="M56.3855 35.2469H49.3394V42.2932H56.3855V35.2469Z" fill="#4F4BA8"/>
<path d="M49.3393 35.2469H42.2931V42.2932H49.3393V35.2469Z" fill="#5E59C9"/>
<path d="M42.2931 63.4158H35.2469V70.4939H42.2931V63.4158Z" fill="#433F8F"/>
<path d="M42.2931 49.3394H35.2469V56.3856H42.2931V49.3394Z" fill="#4F4BA8"/>
<path d="M42.2931 42.2932H35.2469V49.3394H42.2931V42.2932Z" fill="#5E59C9"/>
<path d="M42.2931 35.2469H35.2469V42.2932H42.2931V35.2469Z" fill="#5E59C9"/>
<path d="M42.2931 28.2007H35.2469V35.247H42.2931V28.2007Z" fill="#5E59C9"/>
<path d="M42.2931 21.1545H35.2469V28.2007H42.2931V21.1545Z" fill="#4F4BA8"/>
<path d="M42.2931 7.06213H35.2469V14.1083H42.2931V7.06213Z" fill="#433F8F"/>
<path d="M35.2469 35.2469H28.1847V42.2932H35.2469V35.2469Z" fill="#5E59C9"/>
<path d="M28.1847 35.2469H21.1385V42.2932H28.1847V35.2469Z" fill="#4F4BA8"/>
<path d="M14.0924 35.2469H7.06212V42.2932H14.0924V35.2469Z" fill="#433F8F"/>
</svg>
