<svg width="1150" height="36" viewBox="0 0 1150 36" fill="none" xmlns="http://www.w3.org/2000/svg">
<g clip-path="url(#clip0_110_107)">
<g filter="url(#filter0_d_110_107)">
<path d="M378 3.33569V32.6664H380.668V29.9984H383.334V27.3317H386.002V24.6664H388.668L388.669 24.6639V22.0024H391.337V19.3345H393.999V16.6678C393.11 16.6691 392.224 16.6665 391.337 16.6665V13.9998H388.669V11.3331H386.002V8.66515H383.335V5.99848H380.668V3.33573L378 3.33569Z" fill="#FFE14C"/>
<path d="M388.669 22.0024V24.6639L388.668 24.6664H386.002V27.3317H383.334V29.9984H380.668V32.6664H378V3.33569L380.668 3.33573V5.99848H383.335V8.66515H386.002V11.3331H388.669V13.9998H391.337V16.6665C392.224 16.6665 393.11 16.6691 393.999 16.6678V19.3345H391.337M388.669 22.0024L388.668 21.9999M388.669 22.0024H391.337V19.3345M391.337 19.3345L391.335 19.3331" stroke="#222256" stroke-width="3"/>
</g>
</g>
<g filter="url(#filter1_d_110_107)">
<mask id="path-3-outside-1_110_107" maskUnits="userSpaceOnUse" x="448" y="0" width="251" height="32" fill="black">
<rect fill="white" x="448" width="251" height="32"/>
<path d="M450 30V6.5625H453.906V2.65625H473.438V6.5625H477.344V30H469.531V18.2812H461.719V30H450ZM461.719 7.16797V14.375H469.531V7.16797H461.719ZM481.25 30V2.65625H504.688V6.5625H508.594V14.375H504.688V18.2812H508.594V26.0938H504.688V30H481.25ZM492.988 18.2812V26.0938H500.781V18.2812H492.988ZM492.969 6.5625V14.375H500.781V6.5625H492.969ZM535.938 30H516.406V26.0938H512.5V6.5625H516.406V2.65625H535.938V6.5625H539.844V26.0938H535.938V30ZM532.031 26.0938V6.5625H524.219V26.0938H532.031ZM555.469 2.65625V26.0938H563.281V2.65625H571.094V26.0938H567.188V30H547.656V26.0938H543.75V2.65625H555.469ZM602.344 2.65625V6.5625H594.531V30H582.812V6.5625H575V2.65625H602.344ZM649.219 2.65625V26.0938H657.031V2.65625H664.844V26.0938H660.938V30H641.406V26.0938H637.5V2.65625H649.219ZM668.75 22.1875H676.562V26.0938H688.281V18.2812H672.656V14.375H668.75V6.5625H672.656V2.65625H692.188V6.5625H696.094V10.4688H688.281V6.5625H680.469V14.375H692.188V18.2812H696.094V26.0938H692.188V30H672.656V26.0938H668.75V22.1875Z"/>
</mask>
<path d="M450 30V6.5625H453.906V2.65625H473.438V6.5625H477.344V30H469.531V18.2812H461.719V30H450ZM461.719 7.16797V14.375H469.531V7.16797H461.719ZM481.25 30V2.65625H504.688V6.5625H508.594V14.375H504.688V18.2812H508.594V26.0938H504.688V30H481.25ZM492.988 18.2812V26.0938H500.781V18.2812H492.988ZM492.969 6.5625V14.375H500.781V6.5625H492.969ZM535.938 30H516.406V26.0938H512.5V6.5625H516.406V2.65625H535.938V6.5625H539.844V26.0938H535.938V30ZM532.031 26.0938V6.5625H524.219V26.0938H532.031ZM555.469 2.65625V26.0938H563.281V2.65625H571.094V26.0938H567.188V30H547.656V26.0938H543.75V2.65625H555.469ZM602.344 2.65625V6.5625H594.531V30H582.812V6.5625H575V2.65625H602.344ZM649.219 2.65625V26.0938H657.031V2.65625H664.844V26.0938H660.938V30H641.406V26.0938H637.5V2.65625H649.219ZM668.75 22.1875H676.562V26.0938H688.281V18.2812H672.656V14.375H668.75V6.5625H672.656V2.65625H692.188V6.5625H696.094V10.4688H688.281V6.5625H680.469V14.375H692.188V18.2812H696.094V26.0938H692.188V30H672.656V26.0938H668.75V22.1875Z" fill="#FFE14C"/>
<path d="M450 30H448V32H450V30ZM450 6.5625V4.5625H448V6.5625H450ZM453.906 6.5625V8.5625H455.906V6.5625H453.906ZM453.906 2.65625V0.65625H451.906V2.65625H453.906ZM473.438 2.65625H475.438V0.65625H473.438V2.65625ZM473.438 6.5625H471.438V8.5625H473.438V6.5625ZM477.344 6.5625H479.344V4.5625H477.344V6.5625ZM477.344 30V32H479.344V30H477.344ZM469.531 30H467.531V32H469.531V30ZM469.531 18.2812H471.531V16.2812H469.531V18.2812ZM461.719 18.2812V16.2812H459.719V18.2812H461.719ZM461.719 30V32H463.719V30H461.719ZM461.719 7.16797V5.16797H459.719V7.16797H461.719ZM461.719 14.375H459.719V16.375H461.719V14.375ZM469.531 14.375V16.375H471.531V14.375H469.531ZM469.531 7.16797H471.531V5.16797H469.531V7.16797ZM450 30H452V6.5625H450H448V30H450ZM450 6.5625V8.5625H453.906V6.5625V4.5625H450V6.5625ZM453.906 6.5625H455.906V2.65625H453.906H451.906V6.5625H453.906ZM453.906 2.65625V4.65625H473.438V2.65625V0.65625H453.906V2.65625ZM473.438 2.65625H471.438V6.5625H473.438H475.438V2.65625H473.438ZM473.438 6.5625V8.5625H477.344V6.5625V4.5625H473.438V6.5625ZM477.344 6.5625H475.344V30H477.344H479.344V6.5625H477.344ZM477.344 30V28H469.531V30V32H477.344V30ZM469.531 30H471.531V18.2812H469.531H467.531V30H469.531ZM469.531 18.2812V16.2812H461.719V18.2812V20.2812H469.531V18.2812ZM461.719 18.2812H459.719V30H461.719H463.719V18.2812H461.719ZM461.719 30V28H450V30V32H461.719V30ZM461.719 7.16797H459.719V14.375H461.719H463.719V7.16797H461.719ZM461.719 14.375V16.375H469.531V14.375V12.375H461.719V14.375ZM469.531 14.375H471.531V7.16797H469.531H467.531V14.375H469.531ZM469.531 7.16797V5.16797H461.719V7.16797V9.16797H469.531V7.16797ZM481.25 30H479.25V32H481.25V30ZM481.25 2.65625V0.65625H479.25V2.65625H481.25ZM504.688 2.65625H506.688V0.65625H504.688V2.65625ZM504.688 6.5625H502.688V8.5625H504.688V6.5625ZM508.594 6.5625H510.594V4.5625H508.594V6.5625ZM508.594 14.375V16.375H510.594V14.375H508.594ZM504.688 14.375V12.375H502.688V14.375H504.688ZM504.688 18.2812H502.688V20.2812H504.688V18.2812ZM508.594 18.2812H510.594V16.2812H508.594V18.2812ZM508.594 26.0938V28.0938H510.594V26.0938H508.594ZM504.688 26.0938V24.0938H502.688V26.0938H504.688ZM504.688 30V32H506.688V30H504.688ZM492.988 18.2812V16.2812H490.988V18.2812H492.988ZM492.988 26.0938H490.988V28.0938H492.988V26.0938ZM500.781 26.0938V28.0938H502.781V26.0938H500.781ZM500.781 18.2812H502.781V16.2812H500.781V18.2812ZM492.969 6.5625V4.5625H490.969V6.5625H492.969ZM492.969 14.375H490.969V16.375H492.969V14.375ZM500.781 14.375V16.375H502.781V14.375H500.781ZM500.781 6.5625H502.781V4.5625H500.781V6.5625ZM481.25 30H483.25V2.65625H481.25H479.25V30H481.25ZM481.25 2.65625V4.65625H504.688V2.65625V0.65625H481.25V2.65625ZM504.688 2.65625H502.688V6.5625H504.688H506.688V2.65625H504.688ZM504.688 6.5625V8.5625H508.594V6.5625V4.5625H504.688V6.5625ZM508.594 6.5625H506.594V14.375H508.594H510.594V6.5625H508.594ZM508.594 14.375V12.375H504.688V14.375V16.375H508.594V14.375ZM504.688 14.375H502.688V18.2812H504.688H506.688V14.375H504.688ZM504.688 18.2812V20.2812H508.594V18.2812V16.2812H504.688V18.2812ZM508.594 18.2812H506.594V26.0938H508.594H510.594V18.2812H508.594ZM508.594 26.0938V24.0938H504.688V26.0938V28.0938H508.594V26.0938ZM504.688 26.0938H502.688V30H504.688H506.688V26.0938H504.688ZM504.688 30V28H481.25V30V32H504.688V30ZM492.988 18.2812H490.988V26.0938H492.988H494.988V18.2812H492.988ZM492.988 26.0938V28.0938H500.781V26.0938V24.0938H492.988V26.0938ZM500.781 26.0938H502.781V18.2812H500.781H498.781V26.0938H500.781ZM500.781 18.2812V16.2812H492.988V18.2812V20.2812H500.781V18.2812ZM492.969 6.5625H490.969V14.375H492.969H494.969V6.5625H492.969ZM492.969 14.375V16.375H500.781V14.375V12.375H492.969V14.375ZM500.781 14.375H502.781V6.5625H500.781H498.781V14.375H500.781ZM500.781 6.5625V4.5625H492.969V6.5625V8.5625H500.781V6.5625ZM535.938 30V32H537.938V30H535.938ZM516.406 30H514.406V32H516.406V30ZM516.406 26.0938H518.406V24.0938H516.406V26.0938ZM512.5 26.0938H510.5V28.0938H512.5V26.0938ZM512.5 6.5625V4.5625H510.5V6.5625H512.5ZM516.406 6.5625V8.5625H518.406V6.5625H516.406ZM516.406 2.65625V0.65625H514.406V2.65625H516.406ZM535.938 2.65625H537.938V0.65625H535.938V2.65625ZM535.938 6.5625H533.938V8.5625H535.938V6.5625ZM539.844 6.5625H541.844V4.5625H539.844V6.5625ZM539.844 26.0938V28.0938H541.844V26.0938H539.844ZM535.938 26.0938V24.0938H533.938V26.0938H535.938ZM532.031 26.0938V28.0938H534.031V26.0938H532.031ZM532.031 6.5625H534.031V4.5625H532.031V6.5625ZM524.219 6.5625V4.5625H522.219V6.5625H524.219ZM524.219 26.0938H522.219V28.0938H524.219V26.0938ZM535.938 30V28H516.406V30V32H535.938V30ZM516.406 30H518.406V26.0938H516.406H514.406V30H516.406ZM516.406 26.0938V24.0938H512.5V26.0938V28.0938H516.406V26.0938ZM512.5 26.0938H514.5V6.5625H512.5H510.5V26.0938H512.5ZM512.5 6.5625V8.5625H516.406V6.5625V4.5625H512.5V6.5625ZM516.406 6.5625H518.406V2.65625H516.406H514.406V6.5625H516.406ZM516.406 2.65625V4.65625H535.938V2.65625V0.65625H516.406V2.65625ZM535.938 2.65625H533.938V6.5625H535.938H537.938V2.65625H535.938ZM535.938 6.5625V8.5625H539.844V6.5625V4.5625H535.938V6.5625ZM539.844 6.5625H537.844V26.0938H539.844H541.844V6.5625H539.844ZM539.844 26.0938V24.0938H535.938V26.0938V28.0938H539.844V26.0938ZM535.938 26.0938H533.938V30H535.938H537.938V26.0938H535.938ZM532.031 26.0938H534.031V6.5625H532.031H530.031V26.0938H532.031ZM532.031 6.5625V4.5625H524.219V6.5625V8.5625H532.031V6.5625ZM524.219 6.5625H522.219V26.0938H524.219H526.219V6.5625H524.219ZM524.219 26.0938V28.0938H532.031V26.0938V24.0938H524.219V26.0938ZM555.469 2.65625H557.469V0.65625H555.469V2.65625ZM555.469 26.0938H553.469V28.0938H555.469V26.0938ZM563.281 26.0938V28.0938H565.281V26.0938H563.281ZM563.281 2.65625V0.65625H561.281V2.65625H563.281ZM571.094 2.65625H573.094V0.65625H571.094V2.65625ZM571.094 26.0938V28.0938H573.094V26.0938H571.094ZM567.188 26.0938V24.0938H565.188V26.0938H567.188ZM567.188 30V32H569.188V30H567.188ZM547.656 30H545.656V32H547.656V30ZM547.656 26.0938H549.656V24.0938H547.656V26.0938ZM543.75 26.0938H541.75V28.0938H543.75V26.0938ZM543.75 2.65625V0.65625H541.75V2.65625H543.75ZM555.469 2.65625H553.469V26.0938H555.469H557.469V2.65625H555.469ZM555.469 26.0938V28.0938H563.281V26.0938V24.0938H555.469V26.0938ZM563.281 26.0938H565.281V2.65625H563.281H561.281V26.0938H563.281ZM563.281 2.65625V4.65625H571.094V2.65625V0.65625H563.281V2.65625ZM571.094 2.65625H569.094V26.0938H571.094H573.094V2.65625H571.094ZM571.094 26.0938V24.0938H567.188V26.0938V28.0938H571.094V26.0938ZM567.188 26.0938H565.188V30H567.188H569.188V26.0938H567.188ZM567.188 30V28H547.656V30V32H567.188V30ZM547.656 30H549.656V26.0938H547.656H545.656V30H547.656ZM547.656 26.0938V24.0938H543.75V26.0938V28.0938H547.656V26.0938ZM543.75 26.0938H545.75V2.65625H543.75H541.75V26.0938H543.75ZM543.75 2.65625V4.65625H555.469V2.65625V0.65625H543.75V2.65625ZM602.344 2.65625H604.344V0.65625H602.344V2.65625ZM602.344 6.5625V8.5625H604.344V6.5625H602.344ZM594.531 6.5625V4.5625H592.531V6.5625H594.531ZM594.531 30V32H596.531V30H594.531ZM582.812 30H580.812V32H582.812V30ZM582.812 6.5625H584.812V4.5625H582.812V6.5625ZM575 6.5625H573V8.5625H575V6.5625ZM575 2.65625V0.65625H573V2.65625H575ZM602.344 2.65625H600.344V6.5625H602.344H604.344V2.65625H602.344ZM602.344 6.5625V4.5625H594.531V6.5625V8.5625H602.344V6.5625ZM594.531 6.5625H592.531V30H594.531H596.531V6.5625H594.531ZM594.531 30V28H582.812V30V32H594.531V30ZM582.812 30H584.812V6.5625H582.812H580.812V30H582.812ZM582.812 6.5625V4.5625H575V6.5625V8.5625H582.812V6.5625ZM575 6.5625H577V2.65625H575H573V6.5625H575ZM575 2.65625V4.65625H602.344V2.65625V0.65625H575V2.65625ZM649.219 2.65625H651.219V0.65625H649.219V2.65625ZM649.219 26.0938H647.219V28.0938H649.219V26.0938ZM657.031 26.0938V28.0938H659.031V26.0938H657.031ZM657.031 2.65625V0.65625H655.031V2.65625H657.031ZM664.844 2.65625H666.844V0.65625H664.844V2.65625ZM664.844 26.0938V28.0938H666.844V26.0938H664.844ZM660.938 26.0938V24.0938H658.938V26.0938H660.938ZM660.938 30V32H662.938V30H660.938ZM641.406 30H639.406V32H641.406V30ZM641.406 26.0938H643.406V24.0938H641.406V26.0938ZM637.5 26.0938H635.5V28.0938H637.5V26.0938ZM637.5 2.65625V0.65625H635.5V2.65625H637.5ZM649.219 2.65625H647.219V26.0938H649.219H651.219V2.65625H649.219ZM649.219 26.0938V28.0938H657.031V26.0938V24.0938H649.219V26.0938ZM657.031 26.0938H659.031V2.65625H657.031H655.031V26.0938H657.031ZM657.031 2.65625V4.65625H664.844V2.65625V0.65625H657.031V2.65625ZM664.844 2.65625H662.844V26.0938H664.844H666.844V2.65625H664.844ZM664.844 26.0938V24.0938H660.938V26.0938V28.0938H664.844V26.0938ZM660.938 26.0938H658.938V30H660.938H662.938V26.0938H660.938ZM660.938 30V28H641.406V30V32H660.938V30ZM641.406 30H643.406V26.0938H641.406H639.406V30H641.406ZM641.406 26.0938V24.0938H637.5V26.0938V28.0938H641.406V26.0938ZM637.5 26.0938H639.5V2.65625H637.5H635.5V26.0938H637.5ZM637.5 2.65625V4.65625H649.219V2.65625V0.65625H637.5V2.65625ZM668.75 22.1875V20.1875H666.75V22.1875H668.75ZM676.562 22.1875H678.562V20.1875H676.562V22.1875ZM676.562 26.0938H674.562V28.0938H676.562V26.0938ZM688.281 26.0938V28.0938H690.281V26.0938H688.281ZM688.281 18.2812H690.281V16.2812H688.281V18.2812ZM672.656 18.2812H670.656V20.2812H672.656V18.2812ZM672.656 14.375H674.656V12.375H672.656V14.375ZM668.75 14.375H666.75V16.375H668.75V14.375ZM668.75 6.5625V4.5625H666.75V6.5625H668.75ZM672.656 6.5625V8.5625H674.656V6.5625H672.656ZM672.656 2.65625V0.65625H670.656V2.65625H672.656ZM692.188 2.65625H694.188V0.65625H692.188V2.65625ZM692.188 6.5625H690.188V8.5625H692.188V6.5625ZM696.094 6.5625H698.094V4.5625H696.094V6.5625ZM696.094 10.4688V12.4688H698.094V10.4688H696.094ZM688.281 10.4688H686.281V12.4688H688.281V10.4688ZM688.281 6.5625H690.281V4.5625H688.281V6.5625ZM680.469 6.5625V4.5625H678.469V6.5625H680.469ZM680.469 14.375H678.469V16.375H680.469V14.375ZM692.188 14.375H694.188V12.375H692.188V14.375ZM692.188 18.2812H690.188V20.2812H692.188V18.2812ZM696.094 18.2812H698.094V16.2812H696.094V18.2812ZM696.094 26.0938V28.0938H698.094V26.0938H696.094ZM692.188 26.0938V24.0938H690.188V26.0938H692.188ZM692.188 30V32H694.188V30H692.188ZM672.656 30H670.656V32H672.656V30ZM672.656 26.0938H674.656V24.0938H672.656V26.0938ZM668.75 26.0938H666.75V28.0938H668.75V26.0938ZM668.75 22.1875V24.1875H676.562V22.1875V20.1875H668.75V22.1875ZM676.562 22.1875H674.562V26.0938H676.562H678.562V22.1875H676.562ZM676.562 26.0938V28.0938H688.281V26.0938V24.0938H676.562V26.0938ZM688.281 26.0938H690.281V18.2812H688.281H686.281V26.0938H688.281ZM688.281 18.2812V16.2812H672.656V18.2812V20.2812H688.281V18.2812ZM672.656 18.2812H674.656V14.375H672.656H670.656V18.2812H672.656ZM672.656 14.375V12.375H668.75V14.375V16.375H672.656V14.375ZM668.75 14.375H670.75V6.5625H668.75H666.75V14.375H668.75ZM668.75 6.5625V8.5625H672.656V6.5625V4.5625H668.75V6.5625ZM672.656 6.5625H674.656V2.65625H672.656H670.656V6.5625H672.656ZM672.656 2.65625V4.65625H692.188V2.65625V0.65625H672.656V2.65625ZM692.188 2.65625H690.188V6.5625H692.188H694.188V2.65625H692.188ZM692.188 6.5625V8.5625H696.094V6.5625V4.5625H692.188V6.5625ZM696.094 6.5625H694.094V10.4688H696.094H698.094V6.5625H696.094ZM696.094 10.4688V8.46875H688.281V10.4688V12.4688H696.094V10.4688ZM688.281 10.4688H690.281V6.5625H688.281H686.281V10.4688H688.281ZM688.281 6.5625V4.5625H680.469V6.5625V8.5625H688.281V6.5625ZM680.469 6.5625H678.469V14.375H680.469H682.469V6.5625H680.469ZM680.469 14.375V16.375H692.188V14.375V12.375H680.469V14.375ZM692.188 14.375H690.188V18.2812H692.188H694.188V14.375H692.188ZM692.188 18.2812V20.2812H696.094V18.2812V16.2812H692.188V18.2812ZM696.094 18.2812H694.094V26.0938H696.094H698.094V18.2812H696.094ZM696.094 26.0938V24.0938H692.188V26.0938V28.0938H696.094V26.0938ZM692.188 26.0938H690.188V30H692.188H694.188V26.0938H692.188ZM692.188 30V28H672.656V30V32H692.188V30ZM672.656 30H674.656V26.0938H672.656H670.656V30H672.656ZM672.656 26.0938V24.0938H668.75V26.0938V28.0938H672.656V26.0938ZM668.75 26.0938H670.75V22.1875H668.75H666.75V26.0938H668.75Z" fill="#222256" mask="url(#path-3-outside-1_110_107)"/>
</g>
<g clip-path="url(#clip1_110_107)">
<g filter="url(#filter2_d_110_107)">
<path d="M772 3.33569V32.6664H769.332V29.9984H766.666V27.3317H763.998V24.6664H761.332L761.331 24.6639V22.0024H758.663V19.3345H756.001V16.6678C756.89 16.6691 757.776 16.6665 758.663 16.6665V13.9998H761.331V11.3331H763.998V8.66515H766.665V5.99848H769.332V3.33573L772 3.33569Z" fill="#FFE14C"/>
<path d="M761.331 22.0024V24.6639L761.332 24.6664H763.998V27.3317H766.666V29.9984H769.332V32.6664H772V3.33569L769.332 3.33573V5.99848H766.665V8.66515H763.998V11.3331H761.331V13.9998H758.663V16.6665C757.776 16.6665 756.89 16.6691 756.001 16.6678V19.3345H758.663M761.331 22.0024L761.332 21.9999M761.331 22.0024H758.663V19.3345M758.663 19.3345L758.665 19.3331" stroke="#222256" stroke-width="3"/>
</g>
</g>
<defs>
<filter id="filter0_d_110_107" x="376.5" y="1.83569" width="18.9987" height="34.3307" filterUnits="userSpaceOnUse" color-interpolation-filters="sRGB">
<feFlood flood-opacity="0" result="BackgroundImageFix"/>
<feColorMatrix in="SourceAlpha" type="matrix" values="0 0 0 0 0 0 0 0 0 0 0 0 0 0 0 0 0 0 127 0" result="hardAlpha"/>
<feOffset dy="2"/>
<feComposite in2="hardAlpha" operator="out"/>
<feColorMatrix type="matrix" values="0 0 0 0 1 0 0 0 0 0.447059 0 0 0 0 0.152941 0 0 0 1 0"/>
<feBlend mode="normal" in2="BackgroundImageFix" result="effect1_dropShadow_110_107"/>
<feBlend mode="normal" in="SourceGraphic" in2="effect1_dropShadow_110_107" result="shape"/>
</filter>
<filter id="filter1_d_110_107" x="448" y="0.65625" width="250.094" height="35.3438" filterUnits="userSpaceOnUse" color-interpolation-filters="sRGB">
<feFlood flood-opacity="0" result="BackgroundImageFix"/>
<feColorMatrix in="SourceAlpha" type="matrix" values="0 0 0 0 0 0 0 0 0 0 0 0 0 0 0 0 0 0 127 0" result="hardAlpha"/>
<feOffset dy="4"/>
<feComposite in2="hardAlpha" operator="out"/>
<feColorMatrix type="matrix" values="0 0 0 0 1 0 0 0 0 0.447059 0 0 0 0 0.152941 0 0 0 1 0"/>
<feBlend mode="normal" in2="BackgroundImageFix" result="effect1_dropShadow_110_107"/>
<feBlend mode="normal" in="SourceGraphic" in2="effect1_dropShadow_110_107" result="shape"/>
</filter>
<filter id="filter2_d_110_107" x="754.502" y="1.83569" width="18.9987" height="34.3307" filterUnits="userSpaceOnUse" color-interpolation-filters="sRGB">
<feFlood flood-opacity="0" result="BackgroundImageFix"/>
<feColorMatrix in="SourceAlpha" type="matrix" values="0 0 0 0 0 0 0 0 0 0 0 0 0 0 0 0 0 0 127 0" result="hardAlpha"/>
<feOffset dy="2"/>
<feComposite in2="hardAlpha" operator="out"/>
<feColorMatrix type="matrix" values="0 0 0 0 1 0 0 0 0 0.447059 0 0 0 0 0.152941 0 0 0 1 0"/>
<feBlend mode="normal" in2="BackgroundImageFix" result="effect1_dropShadow_110_107"/>
<feBlend mode="normal" in="SourceGraphic" in2="effect1_dropShadow_110_107" result="shape"/>
</filter>
<clipPath id="clip0_110_107">
<rect width="32" height="32" fill="white" transform="translate(370 2)"/>
</clipPath>
<clipPath id="clip1_110_107">
<rect width="32" height="32" fill="white" transform="matrix(-1 0 0 1 780 2)"/>
</clipPath>
</defs>
</svg>
