<svg width="214" height="50" viewBox="0 0 214 50" fill="none" xmlns="http://www.w3.org/2000/svg">
<g filter="url(#filter0_dd_81_72)">
<path d="M41.5222 6.88235V10.0588H44.6987V41.8235H41.5222V45H35.1693V41.8235H31.9928V22.7647H22.4634V41.8235H19.2869V45H3.40459V41.8235H0.228119V6.88235H3.40459V10.0588H6.58106V6.88235H9.75753V3.70588H6.58106V0.529408H35.1693V3.70588H38.3458V6.88235H41.5222ZM22.4634 10.0588V16.4118H31.9928V10.0588H22.4634ZM97.7582 6.88235H100.935V25.9412H97.7582V29.1176H94.5817V32.2941H78.6993V41.8235H75.5229V45H59.6405V41.8235H56.4641V3.70588H59.6405V10.0588H62.817V6.88235H65.9935V3.70588H59.6405V0.529408H94.5817V3.70588H97.7582V6.88235ZM78.6993 10.0588V22.7647H85.0523V10.0588H78.6993ZM153.994 6.88235V10.0588H157.171V41.8235H153.994V45H147.641V41.8235H144.465V22.7647H134.935V41.8235H131.759V45H115.876V41.8235H112.7V6.88235H115.876V10.0588H119.053V6.88235H122.229V3.70588H119.053V0.529408H147.641V3.70588H150.818V6.88235H153.994ZM134.935 10.0588V16.4118H144.465V10.0588H134.935ZM210.23 0.529408V3.70588H213.407V6.88235H210.23V10.0588H191.171V32.2941H210.23V35.4706H213.407V41.8235H210.23V45H175.289V41.8235H172.112V38.6471H168.936V6.88235H172.112V10.0588H175.289V6.88235H178.465V3.70588H175.289V0.529408H210.23Z" fill="white"/>
</g>
<defs>
<filter id="filter0_dd_81_72" x="0.228149" y="0.529419" width="213.178" height="49.4706" filterUnits="userSpaceOnUse" color-interpolation-filters="sRGB">
<feFlood flood-opacity="0" result="BackgroundImageFix"/>
<feColorMatrix in="SourceAlpha" type="matrix" values="0 0 0 0 0 0 0 0 0 0 0 0 0 0 0 0 0 0 127 0" result="hardAlpha"/>
<feOffset dy="5"/>
<feComposite in2="hardAlpha" operator="out"/>
<feColorMatrix type="matrix" values="0 0 0 0 1 0 0 0 0 0.80549 0 0 0 0 0.027451 0 0 0 1 0"/>
<feBlend mode="normal" in2="BackgroundImageFix" result="effect1_dropShadow_81_72"/>
<feColorMatrix in="SourceAlpha" type="matrix" values="0 0 0 0 0 0 0 0 0 0 0 0 0 0 0 0 0 0 127 0" result="hardAlpha"/>
<feOffset dy="4"/>
<feComposite in2="hardAlpha" operator="out"/>
<feColorMatrix type="matrix" values="0 0 0 0 0.0941176 0 0 0 0 0.298039 0 0 0 0 0.611765 0 0 0 1 0"/>
<feBlend mode="normal" in2="effect1_dropShadow_81_72" result="effect2_dropShadow_81_72"/>
<feBlend mode="normal" in="SourceGraphic" in2="effect2_dropShadow_81_72" result="shape"/>
</filter>
</defs>
</svg>
