<svg width="540" height="16" viewBox="0 0 540 16" fill="none" xmlns="http://www.w3.org/2000/svg">
<path d="M0.46875 6.1875H8.28125V10.0938H0.46875V6.1875ZM16.0938 6.1875H23.9062V10.0938H16.0938V6.1875ZM31.7188 6.1875H39.5312V10.0938H31.7188V6.1875ZM47.3438 6.1875H55.1562V10.0938H47.3438V6.1875ZM80.5469 12.0469V2.28125H78.5938V0.328125H88.3594V2.28125H86.4062V12.0469H84.4531V14H78.584V12.0469H76.6406V10.0938H78.5938V12.0469H80.5469ZM96.1719 0.328125V12.0469H100.078V0.328125H103.984V12.0469H102.031V14H92.2656V12.0469H90.3125V0.328125H96.1719ZM119.609 14H105.938V0.328125H111.797V12.0469H119.609V14ZM121.562 0.328125H127.422V6.1875H131.328V0.328125H135.234V6.1875H133.281V8.14062H131.328V14H125.469V8.14062H123.516V6.1875H121.562V0.328125ZM156.719 0.328125H164.531V14H158.672V2.28125H156.719V0.328125ZM174.297 10.0938V2.28125H172.354V4.23438H170.4V10.0938H174.297ZM168.438 12.0469V4.23438H170.391V2.28125H172.344V0.328125H180.156V10.0938H182.109V12.0469H180.156V14H174.297V12.0469H168.438ZM203.594 6.1875H211.406V10.0938H203.594V6.1875ZM230.938 14V2.28125H232.891V0.328125H242.656V2.28125H244.609V14H240.703V8.14062H236.797V14H230.938ZM236.797 2.58398V6.1875H240.703V2.58398H236.797ZM252.422 0.328125V12.0469H256.328V0.328125H260.234V12.0469H258.281V14H248.516V12.0469H246.562V0.328125H252.422ZM275.859 6.1875V12.0469H273.906V14H264.141V12.0469H262.188V2.28125H264.141V0.328125H273.916V2.28125H275.859V4.23438H273.906V2.28125H268.047V12.0469H271.953V8.14062H270L270.01 6.1875H275.859ZM283.672 0.328125V12.0469H287.578V0.328125H291.484V12.0469H289.531V14H279.766V12.0469H277.812V0.328125H283.672ZM293.438 10.0938H297.344V12.0469H303.203V8.14062H295.391V6.1875H293.438V2.28125H295.391V0.328125H305.156V2.28125H307.109V4.23438H303.203V2.28125H299.297V6.1875H305.156V8.14062H307.109V12.0469H305.156V14H295.391V12.0469H293.438V10.0938ZM322.734 0.328125V2.28125H318.828V14H312.969V2.28125H309.062V0.328125H322.734ZM344.219 0.328125H352.031V14H346.172V2.28125H344.219V0.328125ZM359.844 0.328125H367.656V14H361.797V2.28125H359.844V0.328125ZM377.412 14V10.0938H381.328V14H377.422V15.9531H375.469V14H377.412ZM416.484 12.0469V14H402.812V8.14062H404.766V6.1875H410.625V2.28125H402.812V0.328125H414.531V2.28125H416.484V6.1875H414.531V8.14062H407.695V12.0469H416.484ZM420.391 0.328125H430.156V2.28125H432.109V12.0469H430.156V14H420.391V12.0469H418.438V2.28125H420.391V0.328125ZM422.344 2.28125V12.0469H426.25V2.28125H422.344ZM447.734 12.0469V14H434.062V8.14062H436.016V6.1875H441.875V2.28125H434.062V0.328125H445.781V2.28125H447.734V6.1875H445.781V8.14062H438.945V12.0469H447.734ZM454.57 2.28125V6.1875H461.406V8.14062H463.359V12.0469H461.406V14H449.688V12.0469H459.453V8.14062H449.688V0.328125H463.359V2.28125H454.57ZM484.844 6.1875H492.656V10.0938H484.844V6.1875ZM500.469 6.1875H508.281V10.0938H500.469V6.1875ZM516.094 6.1875H523.906V10.0938H516.094V6.1875ZM531.719 6.1875H539.531V10.0938H531.719V6.1875Z" fill="white"/>
</svg>
