<svg width="508" height="16" viewBox="0 0 508 16" fill="none" xmlns="http://www.w3.org/2000/svg">
<path d="M0.09375 6.1875H7.90625V10.0938H0.09375V6.1875ZM15.7188 6.1875H23.5312V10.0938H15.7188V6.1875ZM31.3438 6.1875H39.1562V10.0938H31.3438V6.1875ZM46.9688 6.1875H54.7812V10.0938H46.9688V6.1875ZM80.1719 12.0469V2.28125H78.2188V0.328125H87.9844V2.28125H86.0312V12.0469H84.0781V14H78.209V12.0469H76.2656V10.0938H78.2188V12.0469H80.1719ZM95.7969 0.328125V12.0469H99.7031V0.328125H103.609V12.0469H101.656V14H91.8906V12.0469H89.9375V0.328125H95.7969ZM119.234 14H105.562V0.328125H111.422V12.0469H119.234V14ZM121.188 0.328125H127.047V6.1875H130.953V0.328125H134.859V6.1875H132.906V8.14062H130.953V14H125.094V8.14062H123.141V6.1875H121.188V0.328125ZM156.344 14V8.14062H158.297V4.23438H160.25V2.28125H154.391V4.23438H152.438V0.328125H166.109V4.23438H164.156V8.14062H162.203V14H156.344ZM187.594 6.1875H195.406V10.0938H187.594V6.1875ZM214.938 14V2.28125H216.891V0.328125H226.656V2.28125H228.609V14H224.703V8.14062H220.797V14H214.938ZM220.797 2.58398V6.1875H224.703V2.58398H220.797ZM236.422 0.328125V12.0469H240.328V0.328125H244.234V12.0469H242.281V14H232.516V12.0469H230.562V0.328125H236.422ZM259.859 6.1875V12.0469H257.906V14H248.141V12.0469H246.188V2.28125H248.141V0.328125H257.916V2.28125H259.859V4.23438H257.906V2.28125H252.047V12.0469H255.953V8.14062H254L254.01 6.1875H259.859ZM267.672 0.328125V12.0469H271.578V0.328125H275.484V12.0469H273.531V14H263.766V12.0469H261.812V0.328125H267.672ZM277.438 10.0938H281.344V12.0469H287.203V8.14062H279.391V6.1875H277.438V2.28125H279.391V0.328125H289.156V2.28125H291.109V4.23438H287.203V2.28125H283.297V6.1875H289.156V8.14062H291.109V12.0469H289.156V14H279.391V12.0469H277.438V10.0938ZM306.734 0.328125V2.28125H302.828V14H296.969V2.28125H293.062V0.328125H306.734ZM330.172 10.0938V2.28125H328.229V4.23438H326.275V10.0938H330.172ZM324.312 12.0469V4.23438H326.266V2.28125H328.219V0.328125H336.031V10.0938H337.984V12.0469H336.031V14H330.172V12.0469H324.312ZM345.787 14V10.0938H349.703V14H345.797V15.9531H343.844V14H345.787ZM384.859 12.0469V14H371.188V8.14062H373.141V6.1875H379V2.28125H371.188V0.328125H382.906V2.28125H384.859V6.1875H382.906V8.14062H376.07V12.0469H384.859ZM388.766 0.328125H398.531V2.28125H400.484V12.0469H398.531V14H388.766V12.0469H386.812V2.28125H388.766V0.328125ZM390.719 2.28125V12.0469H394.625V2.28125H390.719ZM416.109 12.0469V14H402.438V8.14062H404.391V6.1875H410.25V2.28125H402.438V0.328125H414.156V2.28125H416.109V6.1875H414.156V8.14062H407.32V12.0469H416.109ZM422.945 2.28125V6.1875H429.781V8.14062H431.734V12.0469H429.781V14H418.062V12.0469H427.828V8.14062H418.062V0.328125H431.734V2.28125H422.945ZM453.219 6.1875H461.031V10.0938H453.219V6.1875ZM468.844 6.1875H476.656V10.0938H468.844V6.1875ZM484.469 6.1875H492.281V10.0938H484.469V6.1875ZM500.094 6.1875H507.906V10.0938H500.094V6.1875Z" fill="white"/>
</svg>
