<svg width="508" height="16" viewBox="0 0 508 16" fill="none" xmlns="http://www.w3.org/2000/svg">
<path d="M0.09375 6.1875H7.90625V10.0938H0.09375V6.1875ZM15.7188 6.1875H23.5312V10.0938H15.7188V6.1875ZM31.3438 6.1875H39.1562V10.0938H31.3438V6.1875ZM46.9688 6.1875H54.7812V10.0938H46.9688V6.1875ZM80.1719 12.0469V2.28125H78.2188V0.328125H87.9844V2.28125H86.0312V12.0469H84.0781V14H78.209V12.0469H76.2656V10.0938H78.2188V12.0469H80.1719ZM95.7969 0.328125V12.0469H99.7031V0.328125H103.609V12.0469H101.656V14H91.8906V12.0469H89.9375V0.328125H95.7969ZM105.562 14V0.328125H117.281V2.28125H119.234V14H115.328V2.28125H111.422L111.432 14H105.562ZM134.859 14H121.188V0.328125H134.859V2.28125H127.047V6.1875H132.906V8.14062H127.047V12.0469H134.859V14ZM154.391 12.0469H152.438V8.14062H154.4V12.0469H160.25V8.14062H156.344V6.1875H160.25V2.28125H154.4V4.23438H152.438V2.28125H154.391V0.328125H164.156V2.28125H166.109V6.1875H164.156V8.14062H166.109V12.0469H164.156V14H154.391V12.0469ZM170.016 0.328125H179.781V2.28125H181.734V12.0469H179.781V14H170.016V12.0469H168.062V2.28125H170.016V0.328125ZM171.969 2.28125V12.0469H175.875V2.28125H171.969ZM203.219 6.1875H211.031V10.0938H203.219V6.1875ZM236.422 12.0469V2.28125H234.469V0.328125H244.234V2.28125H242.281V12.0469H240.328V14H234.459V12.0469H232.516V10.0938H234.469V12.0469H236.422ZM252.047 0.328125V12.0469H255.953V0.328125H259.859V12.0469H257.906V14H248.141V12.0469H246.188V0.328125H252.047ZM275.484 14H261.812V0.328125H267.672V12.0469H275.484V14ZM277.438 0.328125H283.297V6.1875H287.203V0.328125H291.109V6.1875H289.156V8.14062H287.203V14H281.344V8.14062H279.391V6.1875H277.438V0.328125ZM322.359 12.0469V14H308.688V8.14062H310.641V6.1875H316.5V2.28125H308.688V0.328125H320.406V2.28125H322.359V6.1875H320.406V8.14062H313.57V12.0469H322.359ZM326.266 12.0469H324.312V8.14062H326.275V6.1875H324.312V2.28125H326.266V0.328125H336.031V2.28125H337.984V6.1875H336.031V8.14062H337.984V12.0469H336.031V14H326.266V12.0469ZM328.229 8.14062V12.0469H332.125V8.14062H328.229ZM330.172 2.28125V6.1875H336.021V2.28125H330.172ZM345.787 14V10.0938H349.703V14H345.797V15.9531H343.844V14H345.787ZM384.859 12.0469V14H371.188V8.14062H373.141V6.1875H379V2.28125H371.188V0.328125H382.906V2.28125H384.859V6.1875H382.906V8.14062H376.07V12.0469H384.859ZM388.766 0.328125H398.531V2.28125H400.484V12.0469H398.531V14H388.766V12.0469H386.812V2.28125H388.766V0.328125ZM390.719 2.28125V12.0469H394.625V2.28125H390.719ZM416.109 12.0469V14H402.438V8.14062H404.391V6.1875H410.25V2.28125H402.438V0.328125H414.156V2.28125H416.109V6.1875H414.156V8.14062H407.32V12.0469H416.109ZM422.945 2.28125V6.1875H429.781V8.14062H431.734V12.0469H429.781V14H418.062V12.0469H427.828V8.14062H418.062V0.328125H431.734V2.28125H422.945ZM453.219 6.1875H461.031V10.0938H453.219V6.1875ZM468.844 6.1875H476.656V10.0938H468.844V6.1875ZM484.469 6.1875H492.281V10.0938H484.469V6.1875ZM500.094 6.1875H507.906V10.0938H500.094V6.1875Z" fill="white"/>
</svg>
