<svg width="834" height="38" viewBox="0 0 834 38" fill="none" xmlns="http://www.w3.org/2000/svg">
<g clip-path="url(#clip0_43_6465)">
<g filter="url(#filter0_d_43_6465)">
<path d="M298 4.33594V33.6666H300.668V30.9987H303.334V28.332H306.002V25.6667H308.668L308.669 25.6641V23.0027H311.337V20.3347H313.999V17.6681C313.11 17.6694 312.224 17.6667 311.337 17.6667V15H308.669V12.3334H306.002V9.66539H303.335V6.99872H300.668V4.33598L298 4.33594Z" fill="white"/>
<path d="M308.669 23.0027V25.6641L308.668 25.6667H306.002V28.332H303.334V30.9987H300.668V33.6666H298V4.33594L300.668 4.33598V6.99872H303.335V9.66539H306.002V12.3334H308.669V15H311.337V17.6667C312.224 17.6667 313.11 17.6694 313.999 17.6681V20.3347H311.337M308.669 23.0027L308.668 23.0002M308.669 23.0027H311.337V20.3347M311.337 20.3347L311.335 20.3334" stroke="#222256" stroke-width="3"/>
</g>
</g>
<g filter="url(#filter1_d_43_6465)">
<mask id="path-3-outside-1_43_6465" maskUnits="userSpaceOnUse" x="367" y="0" width="96" height="34" fill="black">
<rect fill="white" x="367" width="96" height="34"/>
<path d="M370.125 31V3.65625H397.469V7.5625H381.844V15.375H393.562V19.2812H381.844V31H370.125ZM401.375 31V7.5625H405.281V3.65625H424.812V7.5625H428.719V31H420.906V19.2812H413.094V31H401.375ZM413.094 8.16797V15.375H420.906V8.16797H413.094ZM444.344 27.0938H448.25V19.2812H452.156V7.5625H444.344V27.0938ZM436.531 27.0938H432.625V7.5625H436.531V3.65625H456.062V7.5625H459.969V31H456.062V27.0938H452.156V31H436.531V27.0938Z"/>
</mask>
<path d="M370.125 31V3.65625H397.469V7.5625H381.844V15.375H393.562V19.2812H381.844V31H370.125ZM401.375 31V7.5625H405.281V3.65625H424.812V7.5625H428.719V31H420.906V19.2812H413.094V31H401.375ZM413.094 8.16797V15.375H420.906V8.16797H413.094ZM444.344 27.0938H448.25V19.2812H452.156V7.5625H444.344V27.0938ZM436.531 27.0938H432.625V7.5625H436.531V3.65625H456.062V7.5625H459.969V31H456.062V27.0938H452.156V31H436.531V27.0938Z" fill="white"/>
<path d="M370.125 31H367.125V34H370.125V31ZM370.125 3.65625V0.65625H367.125V3.65625H370.125ZM397.469 3.65625H400.469V0.65625H397.469V3.65625ZM397.469 7.5625V10.5625H400.469V7.5625H397.469ZM381.844 7.5625V4.5625H378.844V7.5625H381.844ZM381.844 15.375H378.844V18.375H381.844V15.375ZM393.562 15.375H396.562V12.375H393.562V15.375ZM393.562 19.2812V22.2812H396.562V19.2812H393.562ZM381.844 19.2812V16.2812H378.844V19.2812H381.844ZM381.844 31V34H384.844V31H381.844ZM370.125 31H373.125V3.65625H370.125H367.125V31H370.125ZM370.125 3.65625V6.65625H397.469V3.65625V0.65625H370.125V3.65625ZM397.469 3.65625H394.469V7.5625H397.469H400.469V3.65625H397.469ZM397.469 7.5625V4.5625H381.844V7.5625V10.5625H397.469V7.5625ZM381.844 7.5625H378.844V15.375H381.844H384.844V7.5625H381.844ZM381.844 15.375V18.375H393.562V15.375V12.375H381.844V15.375ZM393.562 15.375H390.562V19.2812H393.562H396.562V15.375H393.562ZM393.562 19.2812V16.2812H381.844V19.2812V22.2812H393.562V19.2812ZM381.844 19.2812H378.844V31H381.844H384.844V19.2812H381.844ZM381.844 31V28H370.125V31V34H381.844V31ZM401.375 31H398.375V34H401.375V31ZM401.375 7.5625V4.5625H398.375V7.5625H401.375ZM405.281 7.5625V10.5625H408.281V7.5625H405.281ZM405.281 3.65625V0.65625H402.281V3.65625H405.281ZM424.812 3.65625H427.812V0.65625H424.812V3.65625ZM424.812 7.5625H421.812V10.5625H424.812V7.5625ZM428.719 7.5625H431.719V4.5625H428.719V7.5625ZM428.719 31V34H431.719V31H428.719ZM420.906 31H417.906V34H420.906V31ZM420.906 19.2812H423.906V16.2812H420.906V19.2812ZM413.094 19.2812V16.2812H410.094V19.2812H413.094ZM413.094 31V34H416.094V31H413.094ZM413.094 8.16797V5.16797H410.094V8.16797H413.094ZM413.094 15.375H410.094V18.375H413.094V15.375ZM420.906 15.375V18.375H423.906V15.375H420.906ZM420.906 8.16797H423.906V5.16797H420.906V8.16797ZM401.375 31H404.375V7.5625H401.375H398.375V31H401.375ZM401.375 7.5625V10.5625H405.281V7.5625V4.5625H401.375V7.5625ZM405.281 7.5625H408.281V3.65625H405.281H402.281V7.5625H405.281ZM405.281 3.65625V6.65625H424.812V3.65625V0.65625H405.281V3.65625ZM424.812 3.65625H421.812V7.5625H424.812H427.812V3.65625H424.812ZM424.812 7.5625V10.5625H428.719V7.5625V4.5625H424.812V7.5625ZM428.719 7.5625H425.719V31H428.719H431.719V7.5625H428.719ZM428.719 31V28H420.906V31V34H428.719V31ZM420.906 31H423.906V19.2812H420.906H417.906V31H420.906ZM420.906 19.2812V16.2812H413.094V19.2812V22.2812H420.906V19.2812ZM413.094 19.2812H410.094V31H413.094H416.094V19.2812H413.094ZM413.094 31V28H401.375V31V34H413.094V31ZM413.094 8.16797H410.094V15.375H413.094H416.094V8.16797H413.094ZM413.094 15.375V18.375H420.906V15.375V12.375H413.094V15.375ZM420.906 15.375H423.906V8.16797H420.906H417.906V15.375H420.906ZM420.906 8.16797V5.16797H413.094V8.16797V11.168H420.906V8.16797ZM444.344 27.0938H441.344V30.0938H444.344V27.0938ZM448.25 27.0938V30.0938H451.25V27.0938H448.25ZM448.25 19.2812V16.2812H445.25V19.2812H448.25ZM452.156 19.2812V22.2812H455.156V19.2812H452.156ZM452.156 7.5625H455.156V4.5625H452.156V7.5625ZM444.344 7.5625V4.5625H441.344V7.5625H444.344ZM436.531 27.0938H439.531V24.0938H436.531V27.0938ZM432.625 27.0938H429.625V30.0938H432.625V27.0938ZM432.625 7.5625V4.5625H429.625V7.5625H432.625ZM436.531 7.5625V10.5625H439.531V7.5625H436.531ZM436.531 3.65625V0.65625H433.531V3.65625H436.531ZM456.062 3.65625H459.062V0.65625H456.062V3.65625ZM456.062 7.5625H453.062V10.5625H456.062V7.5625ZM459.969 7.5625H462.969V4.5625H459.969V7.5625ZM459.969 31V34H462.969V31H459.969ZM456.062 31H453.062V34H456.062V31ZM456.062 27.0938H459.062V24.0938H456.062V27.0938ZM452.156 27.0938V24.0938H449.156V27.0938H452.156ZM452.156 31V34H455.156V31H452.156ZM436.531 31H433.531V34H436.531V31ZM444.344 27.0938V30.0938H448.25V27.0938V24.0938H444.344V27.0938ZM448.25 27.0938H451.25V19.2812H448.25H445.25V27.0938H448.25ZM448.25 19.2812V22.2812H452.156V19.2812V16.2812H448.25V19.2812ZM452.156 19.2812H455.156V7.5625H452.156H449.156V19.2812H452.156ZM452.156 7.5625V4.5625H444.344V7.5625V10.5625H452.156V7.5625ZM444.344 7.5625H441.344V27.0938H444.344H447.344V7.5625H444.344ZM436.531 27.0938V24.0938H432.625V27.0938V30.0938H436.531V27.0938ZM432.625 27.0938H435.625V7.5625H432.625H429.625V27.0938H432.625ZM432.625 7.5625V10.5625H436.531V7.5625V4.5625H432.625V7.5625ZM436.531 7.5625H439.531V3.65625H436.531H433.531V7.5625H436.531ZM436.531 3.65625V6.65625H456.062V3.65625V0.65625H436.531V3.65625ZM456.062 3.65625H453.062V7.5625H456.062H459.062V3.65625H456.062ZM456.062 7.5625V10.5625H459.969V7.5625V4.5625H456.062V7.5625ZM459.969 7.5625H456.969V31H459.969H462.969V7.5625H459.969ZM459.969 31V28H456.062V31V34H459.969V31ZM456.062 31H459.062V27.0938H456.062H453.062V31H456.062ZM456.062 27.0938V24.0938H452.156V27.0938V30.0938H456.062V27.0938ZM452.156 27.0938H449.156V31H452.156H455.156V27.0938H452.156ZM452.156 31V28H436.531V31V34H452.156V31ZM436.531 31H439.531V27.0938H436.531H433.531V31H436.531Z" fill="#270300" mask="url(#path-3-outside-1_43_6465)"/>
</g>
<g clip-path="url(#clip1_43_6465)">
<g filter="url(#filter2_d_43_6465)">
<path d="M536 4.33594V33.6666H533.332V30.9987H530.666V28.332H527.998V25.6667H525.332L525.331 25.6641V23.0027H522.663V20.3347H520.001V17.6681C520.89 17.6694 521.776 17.6667 522.663 17.6667V15H525.331V12.3334H527.998V9.66539H530.665V6.99872H533.332V4.33598L536 4.33594Z" fill="white"/>
<path d="M525.331 23.0027V25.6641L525.332 25.6667H527.998V28.332H530.666V30.9987H533.332V33.6666H536V4.33594L533.332 4.33598V6.99872H530.665V9.66539H527.998V12.3334H525.331V15H522.663V17.6667C521.776 17.6667 520.89 17.6694 520.001 17.6681V20.3347H522.663M525.331 23.0027L525.332 23.0002M525.331 23.0027H522.663V20.3347M522.663 20.3347L522.665 20.3334" stroke="#222256" stroke-width="3"/>
</g>
</g>
<defs>
<filter id="filter0_d_43_6465" x="296.5" y="2.83594" width="18.9987" height="34.3306" filterUnits="userSpaceOnUse" color-interpolation-filters="sRGB">
<feFlood flood-opacity="0" result="BackgroundImageFix"/>
<feColorMatrix in="SourceAlpha" type="matrix" values="0 0 0 0 0 0 0 0 0 0 0 0 0 0 0 0 0 0 127 0" result="hardAlpha"/>
<feOffset dy="2"/>
<feComposite in2="hardAlpha" operator="out"/>
<feColorMatrix type="matrix" values="0 0 0 0 1 0 0 0 0 0.447059 0 0 0 0 0.152941 0 0 0 1 0"/>
<feBlend mode="normal" in2="BackgroundImageFix" result="effect1_dropShadow_43_6465"/>
<feBlend mode="normal" in="SourceGraphic" in2="effect1_dropShadow_43_6465" result="shape"/>
</filter>
<filter id="filter1_d_43_6465" x="367.125" y="0.65625" width="95.8438" height="37.3438" filterUnits="userSpaceOnUse" color-interpolation-filters="sRGB">
<feFlood flood-opacity="0" result="BackgroundImageFix"/>
<feColorMatrix in="SourceAlpha" type="matrix" values="0 0 0 0 0 0 0 0 0 0 0 0 0 0 0 0 0 0 127 0" result="hardAlpha"/>
<feOffset dy="4"/>
<feComposite in2="hardAlpha" operator="out"/>
<feColorMatrix type="matrix" values="0 0 0 0 1 0 0 0 0 0.447059 0 0 0 0 0.152941 0 0 0 1 0"/>
<feBlend mode="normal" in2="BackgroundImageFix" result="effect1_dropShadow_43_6465"/>
<feBlend mode="normal" in="SourceGraphic" in2="effect1_dropShadow_43_6465" result="shape"/>
</filter>
<filter id="filter2_d_43_6465" x="518.502" y="2.83594" width="18.9987" height="34.3306" filterUnits="userSpaceOnUse" color-interpolation-filters="sRGB">
<feFlood flood-opacity="0" result="BackgroundImageFix"/>
<feColorMatrix in="SourceAlpha" type="matrix" values="0 0 0 0 0 0 0 0 0 0 0 0 0 0 0 0 0 0 127 0" result="hardAlpha"/>
<feOffset dy="2"/>
<feComposite in2="hardAlpha" operator="out"/>
<feColorMatrix type="matrix" values="0 0 0 0 1 0 0 0 0 0.447059 0 0 0 0 0.152941 0 0 0 1 0"/>
<feBlend mode="normal" in2="BackgroundImageFix" result="effect1_dropShadow_43_6465"/>
<feBlend mode="normal" in="SourceGraphic" in2="effect1_dropShadow_43_6465" result="shape"/>
</filter>
<clipPath id="clip0_43_6465">
<rect width="32" height="32" fill="white" transform="translate(290 3)"/>
</clipPath>
<clipPath id="clip1_43_6465">
<rect width="32" height="32" fill="white" transform="matrix(-1 0 0 1 544 3)"/>
</clipPath>
</defs>
</svg>
