<svg width="319" height="15" viewBox="0 0 319 15" fill="none" xmlns="http://www.w3.org/2000/svg">
<g filter="url(#filter0_d_43_4841)">
<mask id="path-1-outside-1_43_4841" maskUnits="userSpaceOnUse" x="0" y="0" width="319" height="13" fill="black">
<rect fill="white" width="319" height="13"/>
<path d="M11.9375 1.0625V12H8.8125V7.3125H5.6875V12H1V1.0625H5.6875V5.75H8.8125V1.0625H11.9375ZM23.675 12H15.8625V10.4375H14.3V2.625H15.8625V1.0625H23.675V2.625H25.2375V10.4375H23.675V12ZM22.1125 10.4375V2.625H18.9875V10.4375H22.1125ZM36.975 10.4375V1.0625H38.5375V10.4375H36.9828V12H29.1625V10.4375H27.6V1.0625H30.725V10.4375H32.2875V1.0625H35.4125V10.4375H36.975ZM63.575 1.0625V2.625H62.0125V10.4375H63.575V12H55.7625V10.4375H57.325V2.625H55.7625V1.0625H63.575ZM85.4875 2.625V10.4375H91.7375V12H82.3625V10.4375H80.8V2.625H82.3625V1.0625H91.7375V2.625H85.4875ZM94.1 12V2.625H95.6625V1.0625H103.475V2.625H105.037V12H101.912V7.3125H98.7875V12H94.1ZM98.7875 2.86719V5.75H101.912V2.86719H98.7875ZM107.4 12V1.0625H116.775V2.625H118.338V12H115.213V2.625H112.088L112.095 12H107.4ZM138.688 10.4375V2.625H137.125V1.0625H144.938V2.625H143.375V10.4375H141.812V12H137.117V10.4375H135.562V8.875H137.125V10.4375H138.688ZM156.675 12H148.863V10.4375H147.3V2.625H148.863V1.0625H156.675V2.625H158.238V10.4375H156.675V12ZM155.113 10.4375V2.625H151.988V10.4375H155.113ZM169.975 1.0625V2.625H168.413V10.4375H169.975V12H162.163V10.4375H163.725V2.625H162.163V1.0625H169.975ZM173.9 12V1.0625H183.275V2.625H184.837V12H181.712V2.625H178.587L178.595 12H173.9ZM211.438 1.0625V2.625H208.312V12H203.625V2.625H200.5V1.0625H211.438ZM224.738 1.0625V12H221.613V7.3125H218.488V12H213.8V1.0625H218.488V5.75H221.613V1.0625H224.738ZM238.038 12H227.1V1.0625H238.038V2.625H231.788V5.75H236.475V7.3125H231.788V10.4375H238.038V12ZM264.637 1.0625V12H261.512V7.3125H258.387V12H253.7V1.0625H258.387V5.75H261.512V1.0625H264.637ZM267 12V2.625H268.562V1.0625H276.375V2.625H277.938V12H274.812V7.3125H271.688V12H267ZM271.688 2.86719V5.75H274.812V2.86719H271.688ZM284.987 2.625V10.4375H291.237V12H281.862V10.4375H280.3V2.625H281.862V1.0625H291.237V2.625H284.987ZM298.288 1.0625V4.1875H299.85V2.625H301.413V1.0625H304.538V2.625H302.975V4.1875H301.413V5.75H299.85V7.3125H302.975V8.875H304.538V12H299.85V8.875H298.288V7.3125H296.725V12H293.6V1.0625H298.288ZM313.15 10.4375V12H310.025V10.4375H313.15ZM310.025 8.875V7.3125H311.587V5.75H314.712V2.625H310.025V4.1875H306.9V2.625H308.462V1.0625H316.275V2.625H317.837V5.75H316.275V7.3125H313.15V8.875H310.025Z"/>
</mask>
<path d="M11.9375 1.0625V12H8.8125V7.3125H5.6875V12H1V1.0625H5.6875V5.75H8.8125V1.0625H11.9375ZM23.675 12H15.8625V10.4375H14.3V2.625H15.8625V1.0625H23.675V2.625H25.2375V10.4375H23.675V12ZM22.1125 10.4375V2.625H18.9875V10.4375H22.1125ZM36.975 10.4375V1.0625H38.5375V10.4375H36.9828V12H29.1625V10.4375H27.6V1.0625H30.725V10.4375H32.2875V1.0625H35.4125V10.4375H36.975ZM63.575 1.0625V2.625H62.0125V10.4375H63.575V12H55.7625V10.4375H57.325V2.625H55.7625V1.0625H63.575ZM85.4875 2.625V10.4375H91.7375V12H82.3625V10.4375H80.8V2.625H82.3625V1.0625H91.7375V2.625H85.4875ZM94.1 12V2.625H95.6625V1.0625H103.475V2.625H105.037V12H101.912V7.3125H98.7875V12H94.1ZM98.7875 2.86719V5.75H101.912V2.86719H98.7875ZM107.4 12V1.0625H116.775V2.625H118.338V12H115.213V2.625H112.088L112.095 12H107.4ZM138.688 10.4375V2.625H137.125V1.0625H144.938V2.625H143.375V10.4375H141.812V12H137.117V10.4375H135.562V8.875H137.125V10.4375H138.688ZM156.675 12H148.863V10.4375H147.3V2.625H148.863V1.0625H156.675V2.625H158.238V10.4375H156.675V12ZM155.113 10.4375V2.625H151.988V10.4375H155.113ZM169.975 1.0625V2.625H168.413V10.4375H169.975V12H162.163V10.4375H163.725V2.625H162.163V1.0625H169.975ZM173.9 12V1.0625H183.275V2.625H184.837V12H181.712V2.625H178.587L178.595 12H173.9ZM211.438 1.0625V2.625H208.312V12H203.625V2.625H200.5V1.0625H211.438ZM224.738 1.0625V12H221.613V7.3125H218.488V12H213.8V1.0625H218.488V5.75H221.613V1.0625H224.738ZM238.038 12H227.1V1.0625H238.038V2.625H231.788V5.75H236.475V7.3125H231.788V10.4375H238.038V12ZM264.637 1.0625V12H261.512V7.3125H258.387V12H253.7V1.0625H258.387V5.75H261.512V1.0625H264.637ZM267 12V2.625H268.562V1.0625H276.375V2.625H277.938V12H274.812V7.3125H271.688V12H267ZM271.688 2.86719V5.75H274.812V2.86719H271.688ZM284.987 2.625V10.4375H291.237V12H281.862V10.4375H280.3V2.625H281.862V1.0625H291.237V2.625H284.987ZM298.288 1.0625V4.1875H299.85V2.625H301.413V1.0625H304.538V2.625H302.975V4.1875H301.413V5.75H299.85V7.3125H302.975V8.875H304.538V12H299.85V8.875H298.288V7.3125H296.725V12H293.6V1.0625H298.288ZM313.15 10.4375V12H310.025V10.4375H313.15ZM310.025 8.875V7.3125H311.587V5.75H314.712V2.625H310.025V4.1875H306.9V2.625H308.462V1.0625H316.275V2.625H317.837V5.75H316.275V7.3125H313.15V8.875H310.025Z" fill="white"/>
<path d="M11.9375 1.0625H12.9375V0.0625H11.9375V1.0625ZM11.9375 12V13H12.9375V12H11.9375ZM8.8125 12H7.8125V13H8.8125V12ZM8.8125 7.3125H9.8125V6.3125H8.8125V7.3125ZM5.6875 7.3125V6.3125H4.6875V7.3125H5.6875ZM5.6875 12V13H6.6875V12H5.6875ZM1 12H0V13H1V12ZM1 1.0625V0.0625H0V1.0625H1ZM5.6875 1.0625H6.6875V0.0625H5.6875V1.0625ZM5.6875 5.75H4.6875V6.75H5.6875V5.75ZM8.8125 5.75V6.75H9.8125V5.75H8.8125ZM8.8125 1.0625V0.0625H7.8125V1.0625H8.8125ZM11.9375 1.0625H10.9375V12H11.9375H12.9375V1.0625H11.9375ZM11.9375 12V11H8.8125V12V13H11.9375V12ZM8.8125 12H9.8125V7.3125H8.8125H7.8125V12H8.8125ZM8.8125 7.3125V6.3125H5.6875V7.3125V8.3125H8.8125V7.3125ZM5.6875 7.3125H4.6875V12H5.6875H6.6875V7.3125H5.6875ZM5.6875 12V11H1V12V13H5.6875V12ZM1 12H2V1.0625H1H0V12H1ZM1 1.0625V2.0625H5.6875V1.0625V0.0625H1V1.0625ZM5.6875 1.0625H4.6875V5.75H5.6875H6.6875V1.0625H5.6875ZM5.6875 5.75V6.75H8.8125V5.75V4.75H5.6875V5.75ZM8.8125 5.75H9.8125V1.0625H8.8125H7.8125V5.75H8.8125ZM8.8125 1.0625V2.0625H11.9375V1.0625V0.0625H8.8125V1.0625ZM23.675 12V13H24.675V12H23.675ZM15.8625 12H14.8625V13H15.8625V12ZM15.8625 10.4375H16.8625V9.4375H15.8625V10.4375ZM14.3 10.4375H13.3V11.4375H14.3V10.4375ZM14.3 2.625V1.625H13.3V2.625H14.3ZM15.8625 2.625V3.625H16.8625V2.625H15.8625ZM15.8625 1.0625V0.0625H14.8625V1.0625H15.8625ZM23.675 1.0625H24.675V0.0625H23.675V1.0625ZM23.675 2.625H22.675V3.625H23.675V2.625ZM25.2375 2.625H26.2375V1.625H25.2375V2.625ZM25.2375 10.4375V11.4375H26.2375V10.4375H25.2375ZM23.675 10.4375V9.4375H22.675V10.4375H23.675ZM22.1125 10.4375V11.4375H23.1125V10.4375H22.1125ZM22.1125 2.625H23.1125V1.625H22.1125V2.625ZM18.9875 2.625V1.625H17.9875V2.625H18.9875ZM18.9875 10.4375H17.9875V11.4375H18.9875V10.4375ZM23.675 12V11H15.8625V12V13H23.675V12ZM15.8625 12H16.8625V10.4375H15.8625H14.8625V12H15.8625ZM15.8625 10.4375V9.4375H14.3V10.4375V11.4375H15.8625V10.4375ZM14.3 10.4375H15.3V2.625H14.3H13.3V10.4375H14.3ZM14.3 2.625V3.625H15.8625V2.625V1.625H14.3V2.625ZM15.8625 2.625H16.8625V1.0625H15.8625H14.8625V2.625H15.8625ZM15.8625 1.0625V2.0625H23.675V1.0625V0.0625H15.8625V1.0625ZM23.675 1.0625H22.675V2.625H23.675H24.675V1.0625H23.675ZM23.675 2.625V3.625H25.2375V2.625V1.625H23.675V2.625ZM25.2375 2.625H24.2375V10.4375H25.2375H26.2375V2.625H25.2375ZM25.2375 10.4375V9.4375H23.675V10.4375V11.4375H25.2375V10.4375ZM23.675 10.4375H22.675V12H23.675H24.675V10.4375H23.675ZM22.1125 10.4375H23.1125V2.625H22.1125H21.1125V10.4375H22.1125ZM22.1125 2.625V1.625H18.9875V2.625V3.625H22.1125V2.625ZM18.9875 2.625H17.9875V10.4375H18.9875H19.9875V2.625H18.9875ZM18.9875 10.4375V11.4375H22.1125V10.4375V9.4375H18.9875V10.4375ZM36.975 10.4375V11.4375H37.975V10.4375H36.975ZM36.975 1.0625V0.0625H35.975V1.0625H36.975ZM38.5375 1.0625H39.5375V0.0625H38.5375V1.0625ZM38.5375 10.4375V11.4375H39.5375V10.4375H38.5375ZM36.9828 10.4375V9.4375H35.9828V10.4375H36.9828ZM36.9828 12V13H37.9828V12H36.9828ZM29.1625 12H28.1625V13H29.1625V12ZM29.1625 10.4375H30.1625V9.4375H29.1625V10.4375ZM27.6 10.4375H26.6V11.4375H27.6V10.4375ZM27.6 1.0625V0.0625H26.6V1.0625H27.6ZM30.725 1.0625H31.725V0.0625H30.725V1.0625ZM30.725 10.4375H29.725V11.4375H30.725V10.4375ZM32.2875 10.4375V11.4375H33.2875V10.4375H32.2875ZM32.2875 1.0625V0.0625H31.2875V1.0625H32.2875ZM35.4125 1.0625H36.4125V0.0625H35.4125V1.0625ZM35.4125 10.4375H34.4125V11.4375H35.4125V10.4375ZM36.975 10.4375H37.975V1.0625H36.975H35.975V10.4375H36.975ZM36.975 1.0625V2.0625H38.5375V1.0625V0.0625H36.975V1.0625ZM38.5375 1.0625H37.5375V10.4375H38.5375H39.5375V1.0625H38.5375ZM38.5375 10.4375V9.4375H36.9828V10.4375V11.4375H38.5375V10.4375ZM36.9828 10.4375H35.9828V12H36.9828H37.9828V10.4375H36.9828ZM36.9828 12V11H29.1625V12V13H36.9828V12ZM29.1625 12H30.1625V10.4375H29.1625H28.1625V12H29.1625ZM29.1625 10.4375V9.4375H27.6V10.4375V11.4375H29.1625V10.4375ZM27.6 10.4375H28.6V1.0625H27.6H26.6V10.4375H27.6ZM27.6 1.0625V2.0625H30.725V1.0625V0.0625H27.6V1.0625ZM30.725 1.0625H29.725V10.4375H30.725H31.725V1.0625H30.725ZM30.725 10.4375V11.4375H32.2875V10.4375V9.4375H30.725V10.4375ZM32.2875 10.4375H33.2875V1.0625H32.2875H31.2875V10.4375H32.2875ZM32.2875 1.0625V2.0625H35.4125V1.0625V0.0625H32.2875V1.0625ZM35.4125 1.0625H34.4125V10.4375H35.4125H36.4125V1.0625H35.4125ZM35.4125 10.4375V11.4375H36.975V10.4375V9.4375H35.4125V10.4375ZM63.575 1.0625H64.575V0.0625H63.575V1.0625ZM63.575 2.625V3.625H64.575V2.625H63.575ZM62.0125 2.625V1.625H61.0125V2.625H62.0125ZM62.0125 10.4375H61.0125V11.4375H62.0125V10.4375ZM63.575 10.4375H64.575V9.4375H63.575V10.4375ZM63.575 12V13H64.575V12H63.575ZM55.7625 12H54.7625V13H55.7625V12ZM55.7625 10.4375V9.4375H54.7625V10.4375H55.7625ZM57.325 10.4375V11.4375H58.325V10.4375H57.325ZM57.325 2.625H58.325V1.625H57.325V2.625ZM55.7625 2.625H54.7625V3.625H55.7625V2.625ZM55.7625 1.0625V0.0625H54.7625V1.0625H55.7625ZM63.575 1.0625H62.575V2.625H63.575H64.575V1.0625H63.575ZM63.575 2.625V1.625H62.0125V2.625V3.625H63.575V2.625ZM62.0125 2.625H61.0125V10.4375H62.0125H63.0125V2.625H62.0125ZM62.0125 10.4375V11.4375H63.575V10.4375V9.4375H62.0125V10.4375ZM63.575 10.4375H62.575V12H63.575H64.575V10.4375H63.575ZM63.575 12V11H55.7625V12V13H63.575V12ZM55.7625 12H56.7625V10.4375H55.7625H54.7625V12H55.7625ZM55.7625 10.4375V11.4375H57.325V10.4375V9.4375H55.7625V10.4375ZM57.325 10.4375H58.325V2.625H57.325H56.325V10.4375H57.325ZM57.325 2.625V1.625H55.7625V2.625V3.625H57.325V2.625ZM55.7625 2.625H56.7625V1.0625H55.7625H54.7625V2.625H55.7625ZM55.7625 1.0625V2.0625H63.575V1.0625V0.0625H55.7625V1.0625ZM85.4875 2.625V1.625H84.4875V2.625H85.4875ZM85.4875 10.4375H84.4875V11.4375H85.4875V10.4375ZM91.7375 10.4375H92.7375V9.4375H91.7375V10.4375ZM91.7375 12V13H92.7375V12H91.7375ZM82.3625 12H81.3625V13H82.3625V12ZM82.3625 10.4375H83.3625V9.4375H82.3625V10.4375ZM80.8 10.4375H79.8V11.4375H80.8V10.4375ZM80.8 2.625V1.625H79.8V2.625H80.8ZM82.3625 2.625V3.625H83.3625V2.625H82.3625ZM82.3625 1.0625V0.0625H81.3625V1.0625H82.3625ZM91.7375 1.0625H92.7375V0.0625H91.7375V1.0625ZM91.7375 2.625V3.625H92.7375V2.625H91.7375ZM85.4875 2.625H84.4875V10.4375H85.4875H86.4875V2.625H85.4875ZM85.4875 10.4375V11.4375H91.7375V10.4375V9.4375H85.4875V10.4375ZM91.7375 10.4375H90.7375V12H91.7375H92.7375V10.4375H91.7375ZM91.7375 12V11H82.3625V12V13H91.7375V12ZM82.3625 12H83.3625V10.4375H82.3625H81.3625V12H82.3625ZM82.3625 10.4375V9.4375H80.8V10.4375V11.4375H82.3625V10.4375ZM80.8 10.4375H81.8V2.625H80.8H79.8V10.4375H80.8ZM80.8 2.625V3.625H82.3625V2.625V1.625H80.8V2.625ZM82.3625 2.625H83.3625V1.0625H82.3625H81.3625V2.625H82.3625ZM82.3625 1.0625V2.0625H91.7375V1.0625V0.0625H82.3625V1.0625ZM91.7375 1.0625H90.7375V2.625H91.7375H92.7375V1.0625H91.7375ZM91.7375 2.625V1.625H85.4875V2.625V3.625H91.7375V2.625ZM94.1 12H93.1V13H94.1V12ZM94.1 2.625V1.625H93.1V2.625H94.1ZM95.6625 2.625V3.625H96.6625V2.625H95.6625ZM95.6625 1.0625V0.0625H94.6625V1.0625H95.6625ZM103.475 1.0625H104.475V0.0625H103.475V1.0625ZM103.475 2.625H102.475V3.625H103.475V2.625ZM105.037 2.625H106.037V1.625H105.037V2.625ZM105.037 12V13H106.037V12H105.037ZM101.912 12H100.912V13H101.912V12ZM101.912 7.3125H102.912V6.3125H101.912V7.3125ZM98.7875 7.3125V6.3125H97.7875V7.3125H98.7875ZM98.7875 12V13H99.7875V12H98.7875ZM98.7875 2.86719V1.86719H97.7875V2.86719H98.7875ZM98.7875 5.75H97.7875V6.75H98.7875V5.75ZM101.912 5.75V6.75H102.912V5.75H101.912ZM101.912 2.86719H102.912V1.86719H101.912V2.86719ZM94.1 12H95.1V2.625H94.1H93.1V12H94.1ZM94.1 2.625V3.625H95.6625V2.625V1.625H94.1V2.625ZM95.6625 2.625H96.6625V1.0625H95.6625H94.6625V2.625H95.6625ZM95.6625 1.0625V2.0625H103.475V1.0625V0.0625H95.6625V1.0625ZM103.475 1.0625H102.475V2.625H103.475H104.475V1.0625H103.475ZM103.475 2.625V3.625H105.037V2.625V1.625H103.475V2.625ZM105.037 2.625H104.037V12H105.037H106.037V2.625H105.037ZM105.037 12V11H101.912V12V13H105.037V12ZM101.912 12H102.912V7.3125H101.912H100.912V12H101.912ZM101.912 7.3125V6.3125H98.7875V7.3125V8.3125H101.912V7.3125ZM98.7875 7.3125H97.7875V12H98.7875H99.7875V7.3125H98.7875ZM98.7875 12V11H94.1V12V13H98.7875V12ZM98.7875 2.86719H97.7875V5.75H98.7875H99.7875V2.86719H98.7875ZM98.7875 5.75V6.75H101.912V5.75V4.75H98.7875V5.75ZM101.912 5.75H102.912V2.86719H101.912H100.912V5.75H101.912ZM101.912 2.86719V1.86719H98.7875V2.86719V3.86719H101.912V2.86719ZM107.4 12H106.4V13H107.4V12ZM107.4 1.0625V0.0625H106.4V1.0625H107.4ZM116.775 1.0625H117.775V0.0625H116.775V1.0625ZM116.775 2.625H115.775V3.625H116.775V2.625ZM118.338 2.625H119.338V1.625H118.338V2.625ZM118.338 12V13H119.338V12H118.338ZM115.213 12H114.213V13H115.213V12ZM115.213 2.625H116.213V1.625H115.213V2.625ZM112.088 2.625V1.625H111.087L111.088 2.62583L112.088 2.625ZM112.095 12V13H113.096L113.095 11.9992L112.095 12ZM107.4 12H108.4V1.0625H107.4H106.4V12H107.4ZM107.4 1.0625V2.0625H116.775V1.0625V0.0625H107.4V1.0625ZM116.775 1.0625H115.775V2.625H116.775H117.775V1.0625H116.775ZM116.775 2.625V3.625H118.338V2.625V1.625H116.775V2.625ZM118.338 2.625H117.338V12H118.338H119.338V2.625H118.338ZM118.338 12V11H115.213V12V13H118.338V12ZM115.213 12H116.213V2.625H115.213H114.213V12H115.213ZM115.213 2.625V1.625H112.088V2.625V3.625H115.213V2.625ZM112.088 2.625L111.088 2.62583L111.095 12.0008L112.095 12L113.095 11.9992L113.088 2.62417L112.088 2.625ZM112.095 12V11H107.4V12V13H112.095V12ZM138.688 10.4375V11.4375H139.688V10.4375H138.688ZM138.688 2.625H139.688V1.625H138.688V2.625ZM137.125 2.625H136.125V3.625H137.125V2.625ZM137.125 1.0625V0.0625H136.125V1.0625H137.125ZM144.938 1.0625H145.938V0.0625H144.938V1.0625ZM144.938 2.625V3.625H145.938V2.625H144.938ZM143.375 2.625V1.625H142.375V2.625H143.375ZM143.375 10.4375V11.4375H144.375V10.4375H143.375ZM141.812 10.4375V9.4375H140.812V10.4375H141.812ZM141.812 12V13H142.812V12H141.812ZM137.117 12H136.117V13H137.117V12ZM137.117 10.4375H138.117V9.4375H137.117V10.4375ZM135.562 10.4375H134.562V11.4375H135.562V10.4375ZM135.562 8.875V7.875H134.562V8.875H135.562ZM137.125 8.875H138.125V7.875H137.125V8.875ZM137.125 10.4375H136.125V11.4375H137.125V10.4375ZM138.688 10.4375H139.688V2.625H138.688H137.688V10.4375H138.688ZM138.688 2.625V1.625H137.125V2.625V3.625H138.688V2.625ZM137.125 2.625H138.125V1.0625H137.125H136.125V2.625H137.125ZM137.125 1.0625V2.0625H144.938V1.0625V0.0625H137.125V1.0625ZM144.938 1.0625H143.938V2.625H144.938H145.938V1.0625H144.938ZM144.938 2.625V1.625H143.375V2.625V3.625H144.938V2.625ZM143.375 2.625H142.375V10.4375H143.375H144.375V2.625H143.375ZM143.375 10.4375V9.4375H141.812V10.4375V11.4375H143.375V10.4375ZM141.812 10.4375H140.812V12H141.812H142.812V10.4375H141.812ZM141.812 12V11H137.117V12V13H141.812V12ZM137.117 12H138.117V10.4375H137.117H136.117V12H137.117ZM137.117 10.4375V9.4375H135.562V10.4375V11.4375H137.117V10.4375ZM135.562 10.4375H136.562V8.875H135.562H134.562V10.4375H135.562ZM135.562 8.875V9.875H137.125V8.875V7.875H135.562V8.875ZM137.125 8.875H136.125V10.4375H137.125H138.125V8.875H137.125ZM137.125 10.4375V11.4375H138.688V10.4375V9.4375H137.125V10.4375ZM156.675 12V13H157.675V12H156.675ZM148.863 12H147.863V13H148.863V12ZM148.863 10.4375H149.863V9.4375H148.863V10.4375ZM147.3 10.4375H146.3V11.4375H147.3V10.4375ZM147.3 2.625V1.625H146.3V2.625H147.3ZM148.863 2.625V3.625H149.863V2.625H148.863ZM148.863 1.0625V0.0625H147.863V1.0625H148.863ZM156.675 1.0625H157.675V0.0625H156.675V1.0625ZM156.675 2.625H155.675V3.625H156.675V2.625ZM158.238 2.625H159.238V1.625H158.238V2.625ZM158.238 10.4375V11.4375H159.238V10.4375H158.238ZM156.675 10.4375V9.4375H155.675V10.4375H156.675ZM155.113 10.4375V11.4375H156.113V10.4375H155.113ZM155.113 2.625H156.113V1.625H155.113V2.625ZM151.988 2.625V1.625H150.988V2.625H151.988ZM151.988 10.4375H150.988V11.4375H151.988V10.4375ZM156.675 12V11H148.863V12V13H156.675V12ZM148.863 12H149.863V10.4375H148.863H147.863V12H148.863ZM148.863 10.4375V9.4375H147.3V10.4375V11.4375H148.863V10.4375ZM147.3 10.4375H148.3V2.625H147.3H146.3V10.4375H147.3ZM147.3 2.625V3.625H148.863V2.625V1.625H147.3V2.625ZM148.863 2.625H149.863V1.0625H148.863H147.863V2.625H148.863ZM148.863 1.0625V2.0625H156.675V1.0625V0.0625H148.863V1.0625ZM156.675 1.0625H155.675V2.625H156.675H157.675V1.0625H156.675ZM156.675 2.625V3.625H158.238V2.625V1.625H156.675V2.625ZM158.238 2.625H157.238V10.4375H158.238H159.238V2.625H158.238ZM158.238 10.4375V9.4375H156.675V10.4375V11.4375H158.238V10.4375ZM156.675 10.4375H155.675V12H156.675H157.675V10.4375H156.675ZM155.113 10.4375H156.113V2.625H155.113H154.113V10.4375H155.113ZM155.113 2.625V1.625H151.988V2.625V3.625H155.113V2.625ZM151.988 2.625H150.988V10.4375H151.988H152.988V2.625H151.988ZM151.988 10.4375V11.4375H155.113V10.4375V9.4375H151.988V10.4375ZM169.975 1.0625H170.975V0.0625H169.975V1.0625ZM169.975 2.625V3.625H170.975V2.625H169.975ZM168.413 2.625V1.625H167.413V2.625H168.413ZM168.413 10.4375H167.413V11.4375H168.413V10.4375ZM169.975 10.4375H170.975V9.4375H169.975V10.4375ZM169.975 12V13H170.975V12H169.975ZM162.163 12H161.163V13H162.163V12ZM162.163 10.4375V9.4375H161.163V10.4375H162.163ZM163.725 10.4375V11.4375H164.725V10.4375H163.725ZM163.725 2.625H164.725V1.625H163.725V2.625ZM162.163 2.625H161.163V3.625H162.163V2.625ZM162.163 1.0625V0.0625H161.163V1.0625H162.163ZM169.975 1.0625H168.975V2.625H169.975H170.975V1.0625H169.975ZM169.975 2.625V1.625H168.413V2.625V3.625H169.975V2.625ZM168.413 2.625H167.413V10.4375H168.413H169.413V2.625H168.413ZM168.413 10.4375V11.4375H169.975V10.4375V9.4375H168.413V10.4375ZM169.975 10.4375H168.975V12H169.975H170.975V10.4375H169.975ZM169.975 12V11H162.163V12V13H169.975V12ZM162.163 12H163.163V10.4375H162.163H161.163V12H162.163ZM162.163 10.4375V11.4375H163.725V10.4375V9.4375H162.163V10.4375ZM163.725 10.4375H164.725V2.625H163.725H162.725V10.4375H163.725ZM163.725 2.625V1.625H162.163V2.625V3.625H163.725V2.625ZM162.163 2.625H163.163V1.0625H162.163H161.163V2.625H162.163ZM162.163 1.0625V2.0625H169.975V1.0625V0.0625H162.163V1.0625ZM173.9 12H172.9V13H173.9V12ZM173.9 1.0625V0.0625H172.9V1.0625H173.9ZM183.275 1.0625H184.275V0.0625H183.275V1.0625ZM183.275 2.625H182.275V3.625H183.275V2.625ZM184.837 2.625H185.837V1.625H184.837V2.625ZM184.837 12V13H185.837V12H184.837ZM181.712 12H180.712V13H181.712V12ZM181.712 2.625H182.712V1.625H181.712V2.625ZM178.587 2.625V1.625H177.587L177.587 2.62583L178.587 2.625ZM178.595 12V13H179.596L179.595 11.9992L178.595 12ZM173.9 12H174.9V1.0625H173.9H172.9V12H173.9ZM173.9 1.0625V2.0625H183.275V1.0625V0.0625H173.9V1.0625ZM183.275 1.0625H182.275V2.625H183.275H184.275V1.0625H183.275ZM183.275 2.625V3.625H184.837V2.625V1.625H183.275V2.625ZM184.837 2.625H183.837V12H184.837H185.837V2.625H184.837ZM184.837 12V11H181.712V12V13H184.837V12ZM181.712 12H182.712V2.625H181.712H180.712V12H181.712ZM181.712 2.625V1.625H178.587V2.625V3.625H181.712V2.625ZM178.587 2.625L177.587 2.62583L177.595 12.0008L178.595 12L179.595 11.9992L179.587 2.62417L178.587 2.625ZM178.595 12V11H173.9V12V13H178.595V12ZM211.438 1.0625H212.438V0.0625H211.438V1.0625ZM211.438 2.625V3.625H212.438V2.625H211.438ZM208.312 2.625V1.625H207.312V2.625H208.312ZM208.312 12V13H209.312V12H208.312ZM203.625 12H202.625V13H203.625V12ZM203.625 2.625H204.625V1.625H203.625V2.625ZM200.5 2.625H199.5V3.625H200.5V2.625ZM200.5 1.0625V0.0625H199.5V1.0625H200.5ZM211.438 1.0625H210.438V2.625H211.438H212.438V1.0625H211.438ZM211.438 2.625V1.625H208.312V2.625V3.625H211.438V2.625ZM208.312 2.625H207.312V12H208.312H209.312V2.625H208.312ZM208.312 12V11H203.625V12V13H208.312V12ZM203.625 12H204.625V2.625H203.625H202.625V12H203.625ZM203.625 2.625V1.625H200.5V2.625V3.625H203.625V2.625ZM200.5 2.625H201.5V1.0625H200.5H199.5V2.625H200.5ZM200.5 1.0625V2.0625H211.438V1.0625V0.0625H200.5V1.0625ZM224.738 1.0625H225.738V0.0625H224.738V1.0625ZM224.738 12V13H225.738V12H224.738ZM221.613 12H220.613V13H221.613V12ZM221.613 7.3125H222.613V6.3125H221.613V7.3125ZM218.488 7.3125V6.3125H217.488V7.3125H218.488ZM218.488 12V13H219.488V12H218.488ZM213.8 12H212.8V13H213.8V12ZM213.8 1.0625V0.0625H212.8V1.0625H213.8ZM218.488 1.0625H219.488V0.0625H218.488V1.0625ZM218.488 5.75H217.488V6.75H218.488V5.75ZM221.613 5.75V6.75H222.613V5.75H221.613ZM221.613 1.0625V0.0625H220.613V1.0625H221.613ZM224.738 1.0625H223.738V12H224.738H225.738V1.0625H224.738ZM224.738 12V11H221.613V12V13H224.738V12ZM221.613 12H222.613V7.3125H221.613H220.613V12H221.613ZM221.613 7.3125V6.3125H218.488V7.3125V8.3125H221.613V7.3125ZM218.488 7.3125H217.488V12H218.488H219.488V7.3125H218.488ZM218.488 12V11H213.8V12V13H218.488V12ZM213.8 12H214.8V1.0625H213.8H212.8V12H213.8ZM213.8 1.0625V2.0625H218.488V1.0625V0.0625H213.8V1.0625ZM218.488 1.0625H217.488V5.75H218.488H219.488V1.0625H218.488ZM218.488 5.75V6.75H221.613V5.75V4.75H218.488V5.75ZM221.613 5.75H222.613V1.0625H221.613H220.613V5.75H221.613ZM221.613 1.0625V2.0625H224.738V1.0625V0.0625H221.613V1.0625ZM238.038 12V13H239.038V12H238.038ZM227.1 12H226.1V13H227.1V12ZM227.1 1.0625V0.0625H226.1V1.0625H227.1ZM238.038 1.0625H239.038V0.0625H238.038V1.0625ZM238.038 2.625V3.625H239.038V2.625H238.038ZM231.788 2.625V1.625H230.788V2.625H231.788ZM231.788 5.75H230.788V6.75H231.788V5.75ZM236.475 5.75H237.475V4.75H236.475V5.75ZM236.475 7.3125V8.3125H237.475V7.3125H236.475ZM231.788 7.3125V6.3125H230.788V7.3125H231.788ZM231.788 10.4375H230.788V11.4375H231.788V10.4375ZM238.038 10.4375H239.038V9.4375H238.038V10.4375ZM238.038 12V11H227.1V12V13H238.038V12ZM227.1 12H228.1V1.0625H227.1H226.1V12H227.1ZM227.1 1.0625V2.0625H238.038V1.0625V0.0625H227.1V1.0625ZM238.038 1.0625H237.038V2.625H238.038H239.038V1.0625H238.038ZM238.038 2.625V1.625H231.788V2.625V3.625H238.038V2.625ZM231.788 2.625H230.788V5.75H231.788H232.788V2.625H231.788ZM231.788 5.75V6.75H236.475V5.75V4.75H231.788V5.75ZM236.475 5.75H235.475V7.3125H236.475H237.475V5.75H236.475ZM236.475 7.3125V6.3125H231.788V7.3125V8.3125H236.475V7.3125ZM231.788 7.3125H230.788V10.4375H231.788H232.788V7.3125H231.788ZM231.788 10.4375V11.4375H238.038V10.4375V9.4375H231.788V10.4375ZM238.038 10.4375H237.038V12H238.038H239.038V10.4375H238.038ZM264.637 1.0625H265.637V0.0625H264.637V1.0625ZM264.637 12V13H265.637V12H264.637ZM261.512 12H260.512V13H261.512V12ZM261.512 7.3125H262.512V6.3125H261.512V7.3125ZM258.387 7.3125V6.3125H257.387V7.3125H258.387ZM258.387 12V13H259.387V12H258.387ZM253.7 12H252.7V13H253.7V12ZM253.7 1.0625V0.0625H252.7V1.0625H253.7ZM258.387 1.0625H259.387V0.0625H258.387V1.0625ZM258.387 5.75H257.387V6.75H258.387V5.75ZM261.512 5.75V6.75H262.512V5.75H261.512ZM261.512 1.0625V0.0625H260.512V1.0625H261.512ZM264.637 1.0625H263.637V12H264.637H265.637V1.0625H264.637ZM264.637 12V11H261.512V12V13H264.637V12ZM261.512 12H262.512V7.3125H261.512H260.512V12H261.512ZM261.512 7.3125V6.3125H258.387V7.3125V8.3125H261.512V7.3125ZM258.387 7.3125H257.387V12H258.387H259.387V7.3125H258.387ZM258.387 12V11H253.7V12V13H258.387V12ZM253.7 12H254.7V1.0625H253.7H252.7V12H253.7ZM253.7 1.0625V2.0625H258.387V1.0625V0.0625H253.7V1.0625ZM258.387 1.0625H257.387V5.75H258.387H259.387V1.0625H258.387ZM258.387 5.75V6.75H261.512V5.75V4.75H258.387V5.75ZM261.512 5.75H262.512V1.0625H261.512H260.512V5.75H261.512ZM261.512 1.0625V2.0625H264.637V1.0625V0.0625H261.512V1.0625ZM267 12H266V13H267V12ZM267 2.625V1.625H266V2.625H267ZM268.562 2.625V3.625H269.562V2.625H268.562ZM268.562 1.0625V0.0625H267.562V1.0625H268.562ZM276.375 1.0625H277.375V0.0625H276.375V1.0625ZM276.375 2.625H275.375V3.625H276.375V2.625ZM277.938 2.625H278.938V1.625H277.938V2.625ZM277.938 12V13H278.938V12H277.938ZM274.812 12H273.812V13H274.812V12ZM274.812 7.3125H275.812V6.3125H274.812V7.3125ZM271.688 7.3125V6.3125H270.688V7.3125H271.688ZM271.688 12V13H272.688V12H271.688ZM271.688 2.86719V1.86719H270.688V2.86719H271.688ZM271.688 5.75H270.688V6.75H271.688V5.75ZM274.812 5.75V6.75H275.812V5.75H274.812ZM274.812 2.86719H275.812V1.86719H274.812V2.86719ZM267 12H268V2.625H267H266V12H267ZM267 2.625V3.625H268.562V2.625V1.625H267V2.625ZM268.562 2.625H269.562V1.0625H268.562H267.562V2.625H268.562ZM268.562 1.0625V2.0625H276.375V1.0625V0.0625H268.562V1.0625ZM276.375 1.0625H275.375V2.625H276.375H277.375V1.0625H276.375ZM276.375 2.625V3.625H277.938V2.625V1.625H276.375V2.625ZM277.938 2.625H276.938V12H277.938H278.938V2.625H277.938ZM277.938 12V11H274.812V12V13H277.938V12ZM274.812 12H275.812V7.3125H274.812H273.812V12H274.812ZM274.812 7.3125V6.3125H271.688V7.3125V8.3125H274.812V7.3125ZM271.688 7.3125H270.688V12H271.688H272.688V7.3125H271.688ZM271.688 12V11H267V12V13H271.688V12ZM271.688 2.86719H270.688V5.75H271.688H272.688V2.86719H271.688ZM271.688 5.75V6.75H274.812V5.75V4.75H271.688V5.75ZM274.812 5.75H275.812V2.86719H274.812H273.812V5.75H274.812ZM274.812 2.86719V1.86719H271.688V2.86719V3.86719H274.812V2.86719ZM284.987 2.625V1.625H283.987V2.625H284.987ZM284.987 10.4375H283.987V11.4375H284.987V10.4375ZM291.237 10.4375H292.237V9.4375H291.237V10.4375ZM291.237 12V13H292.237V12H291.237ZM281.862 12H280.862V13H281.862V12ZM281.862 10.4375H282.862V9.4375H281.862V10.4375ZM280.3 10.4375H279.3V11.4375H280.3V10.4375ZM280.3 2.625V1.625H279.3V2.625H280.3ZM281.862 2.625V3.625H282.862V2.625H281.862ZM281.862 1.0625V0.0625H280.862V1.0625H281.862ZM291.237 1.0625H292.237V0.0625H291.237V1.0625ZM291.237 2.625V3.625H292.237V2.625H291.237ZM284.987 2.625H283.987V10.4375H284.987H285.987V2.625H284.987ZM284.987 10.4375V11.4375H291.237V10.4375V9.4375H284.987V10.4375ZM291.237 10.4375H290.237V12H291.237H292.237V10.4375H291.237ZM291.237 12V11H281.862V12V13H291.237V12ZM281.862 12H282.862V10.4375H281.862H280.862V12H281.862ZM281.862 10.4375V9.4375H280.3V10.4375V11.4375H281.862V10.4375ZM280.3 10.4375H281.3V2.625H280.3H279.3V10.4375H280.3ZM280.3 2.625V3.625H281.862V2.625V1.625H280.3V2.625ZM281.862 2.625H282.862V1.0625H281.862H280.862V2.625H281.862ZM281.862 1.0625V2.0625H291.237V1.0625V0.0625H281.862V1.0625ZM291.237 1.0625H290.237V2.625H291.237H292.237V1.0625H291.237ZM291.237 2.625V1.625H284.987V2.625V3.625H291.237V2.625ZM298.288 1.0625H299.288V0.0625H298.288V1.0625ZM298.288 4.1875H297.288V5.1875H298.288V4.1875ZM299.85 4.1875V5.1875H300.85V4.1875H299.85ZM299.85 2.625V1.625H298.85V2.625H299.85ZM301.413 2.625V3.625H302.413V2.625H301.413ZM301.413 1.0625V0.0625H300.413V1.0625H301.413ZM304.538 1.0625H305.538V0.0625H304.538V1.0625ZM304.538 2.625V3.625H305.538V2.625H304.538ZM302.975 2.625V1.625H301.975V2.625H302.975ZM302.975 4.1875V5.1875H303.975V4.1875H302.975ZM301.413 4.1875V3.1875H300.413V4.1875H301.413ZM301.413 5.75V6.75H302.413V5.75H301.413ZM299.85 5.75V4.75H298.85V5.75H299.85ZM299.85 7.3125H298.85V8.3125H299.85V7.3125ZM302.975 7.3125H303.975V6.3125H302.975V7.3125ZM302.975 8.875H301.975V9.875H302.975V8.875ZM304.538 8.875H305.538V7.875H304.538V8.875ZM304.538 12V13H305.538V12H304.538ZM299.85 12H298.85V13H299.85V12ZM299.85 8.875H300.85V7.875H299.85V8.875ZM298.288 8.875H297.288V9.875H298.288V8.875ZM298.288 7.3125H299.288V6.3125H298.288V7.3125ZM296.725 7.3125V6.3125H295.725V7.3125H296.725ZM296.725 12V13H297.725V12H296.725ZM293.6 12H292.6V13H293.6V12ZM293.6 1.0625V0.0625H292.6V1.0625H293.6ZM298.288 1.0625H297.288V4.1875H298.288H299.288V1.0625H298.288ZM298.288 4.1875V5.1875H299.85V4.1875V3.1875H298.288V4.1875ZM299.85 4.1875H300.85V2.625H299.85H298.85V4.1875H299.85ZM299.85 2.625V3.625H301.413V2.625V1.625H299.85V2.625ZM301.413 2.625H302.413V1.0625H301.413H300.413V2.625H301.413ZM301.413 1.0625V2.0625H304.538V1.0625V0.0625H301.413V1.0625ZM304.538 1.0625H303.538V2.625H304.538H305.538V1.0625H304.538ZM304.538 2.625V1.625H302.975V2.625V3.625H304.538V2.625ZM302.975 2.625H301.975V4.1875H302.975H303.975V2.625H302.975ZM302.975 4.1875V3.1875H301.413V4.1875V5.1875H302.975V4.1875ZM301.413 4.1875H300.413V5.75H301.413H302.413V4.1875H301.413ZM301.413 5.75V4.75H299.85V5.75V6.75H301.413V5.75ZM299.85 5.75H298.85V7.3125H299.85H300.85V5.75H299.85ZM299.85 7.3125V8.3125H302.975V7.3125V6.3125H299.85V7.3125ZM302.975 7.3125H301.975V8.875H302.975H303.975V7.3125H302.975ZM302.975 8.875V9.875H304.538V8.875V7.875H302.975V8.875ZM304.538 8.875H303.538V12H304.538H305.538V8.875H304.538ZM304.538 12V11H299.85V12V13H304.538V12ZM299.85 12H300.85V8.875H299.85H298.85V12H299.85ZM299.85 8.875V7.875H298.288V8.875V9.875H299.85V8.875ZM298.288 8.875H299.288V7.3125H298.288H297.288V8.875H298.288ZM298.288 7.3125V6.3125H296.725V7.3125V8.3125H298.288V7.3125ZM296.725 7.3125H295.725V12H296.725H297.725V7.3125H296.725ZM296.725 12V11H293.6V12V13H296.725V12ZM293.6 12H294.6V1.0625H293.6H292.6V12H293.6ZM293.6 1.0625V2.0625H298.288V1.0625V0.0625H293.6V1.0625ZM313.15 10.4375H314.15V9.4375H313.15V10.4375ZM313.15 12V13H314.15V12H313.15ZM310.025 12H309.025V13H310.025V12ZM310.025 10.4375V9.4375H309.025V10.4375H310.025ZM310.025 8.875H309.025V9.875H310.025V8.875ZM310.025 7.3125V6.3125H309.025V7.3125H310.025ZM311.587 7.3125V8.3125H312.587V7.3125H311.587ZM311.587 5.75V4.75H310.587V5.75H311.587ZM314.712 5.75V6.75H315.712V5.75H314.712ZM314.712 2.625H315.712V1.625H314.712V2.625ZM310.025 2.625V1.625H309.025V2.625H310.025ZM310.025 4.1875V5.1875H311.025V4.1875H310.025ZM306.9 4.1875H305.9V5.1875H306.9V4.1875ZM306.9 2.625V1.625H305.9V2.625H306.9ZM308.462 2.625V3.625H309.462V2.625H308.462ZM308.462 1.0625V0.0625H307.462V1.0625H308.462ZM316.275 1.0625H317.275V0.0625H316.275V1.0625ZM316.275 2.625H315.275V3.625H316.275V2.625ZM317.837 2.625H318.837V1.625H317.837V2.625ZM317.837 5.75V6.75H318.837V5.75H317.837ZM316.275 5.75V4.75H315.275V5.75H316.275ZM316.275 7.3125V8.3125H317.275V7.3125H316.275ZM313.15 7.3125V6.3125H312.15V7.3125H313.15ZM313.15 8.875V9.875H314.15V8.875H313.15ZM313.15 10.4375H312.15V12H313.15H314.15V10.4375H313.15ZM313.15 12V11H310.025V12V13H313.15V12ZM310.025 12H311.025V10.4375H310.025H309.025V12H310.025ZM310.025 10.4375V11.4375H313.15V10.4375V9.4375H310.025V10.4375ZM310.025 8.875H311.025V7.3125H310.025H309.025V8.875H310.025ZM310.025 7.3125V8.3125H311.587V7.3125V6.3125H310.025V7.3125ZM311.587 7.3125H312.587V5.75H311.587H310.587V7.3125H311.587ZM311.587 5.75V6.75H314.712V5.75V4.75H311.587V5.75ZM314.712 5.75H315.712V2.625H314.712H313.712V5.75H314.712ZM314.712 2.625V1.625H310.025V2.625V3.625H314.712V2.625ZM310.025 2.625H309.025V4.1875H310.025H311.025V2.625H310.025ZM310.025 4.1875V3.1875H306.9V4.1875V5.1875H310.025V4.1875ZM306.9 4.1875H307.9V2.625H306.9H305.9V4.1875H306.9ZM306.9 2.625V3.625H308.462V2.625V1.625H306.9V2.625ZM308.462 2.625H309.462V1.0625H308.462H307.462V2.625H308.462ZM308.462 1.0625V2.0625H316.275V1.0625V0.0625H308.462V1.0625ZM316.275 1.0625H315.275V2.625H316.275H317.275V1.0625H316.275ZM316.275 2.625V3.625H317.837V2.625V1.625H316.275V2.625ZM317.837 2.625H316.837V5.75H317.837H318.837V2.625H317.837ZM317.837 5.75V4.75H316.275V5.75V6.75H317.837V5.75ZM316.275 5.75H315.275V7.3125H316.275H317.275V5.75H316.275ZM316.275 7.3125V6.3125H313.15V7.3125V8.3125H316.275V7.3125ZM313.15 7.3125H312.15V8.875H313.15H314.15V7.3125H313.15ZM313.15 8.875V7.875H310.025V8.875V9.875H313.15V8.875Z" fill="#222256" mask="url(#path-1-outside-1_43_4841)"/>
</g>
<defs>
<filter id="filter0_d_43_4841" x="0" y="0.0625" width="318.838" height="14.9375" filterUnits="userSpaceOnUse" color-interpolation-filters="sRGB">
<feFlood flood-opacity="0" result="BackgroundImageFix"/>
<feColorMatrix in="SourceAlpha" type="matrix" values="0 0 0 0 0 0 0 0 0 0 0 0 0 0 0 0 0 0 127 0" result="hardAlpha"/>
<feOffset dy="2"/>
<feComposite in2="hardAlpha" operator="out"/>
<feColorMatrix type="matrix" values="0 0 0 0 0.388235 0 0 0 0 0.745098 0 0 0 0 0.027451 0 0 0 1 0"/>
<feBlend mode="normal" in2="BackgroundImageFix" result="effect1_dropShadow_43_4841"/>
<feBlend mode="normal" in="SourceGraphic" in2="effect1_dropShadow_43_4841" result="shape"/>
</filter>
</defs>
</svg>
