<svg width="439" height="15" viewBox="0 0 439 15" fill="none" xmlns="http://www.w3.org/2000/svg">
<g filter="url(#filter0_d_43_4877)">
<mask id="path-1-outside-1_43_4877" maskUnits="userSpaceOnUse" x="0" y="0" width="439" height="13" fill="black">
<rect fill="white" width="439" height="13"/>
<path d="M5.6875 2.625V10.4375H11.9375V12H2.5625V10.4375H1V2.625H2.5625V1.0625H11.9375V2.625H5.6875ZM14.3 12V2.625H15.8625V1.0625H23.675V2.625H25.2375V12H22.1125V7.3125H18.9875V12H14.3ZM18.9875 2.86719V5.75H22.1125V2.86719H18.9875ZM27.6 12V1.0625H36.975V2.625H38.5375V12H35.4125V2.625H32.2875L32.2953 12H27.6ZM63.575 1.0625V2.625H62.0125V10.4375H63.575V12H55.7625V10.4375H57.325V2.625H55.7625V1.0625H63.575ZM80.8 12V2.625H82.3625V1.0625H90.175V2.625H91.7375V12H88.6125V7.3125H85.4875V12H80.8ZM85.4875 2.86719V5.75H88.6125V2.86719H85.4875ZM98.7953 7.3125L98.8109 12H94.1V1.0625H103.475V2.625H105.037V5.75H103.475V7.3125H98.7953ZM98.7875 2.625V5.75H101.912V2.625H98.7875ZM112.095 7.3125L112.111 12H107.4V1.0625H116.775V2.625H118.338V5.75H116.775V7.3125H112.095ZM112.088 2.625V5.75H115.213V2.625H112.088ZM131.637 12H120.7V1.0625H125.387V10.4375H131.637V12ZM134 1.0625H138.688V5.75H141.812V1.0625H144.938V5.75H143.375V7.3125H141.812V12H137.125V7.3125H135.562V5.75H134V1.0625ZM160.6 12V1.0625H171.538V2.625H165.288V5.75H169.975V7.3125H165.288V12H160.6ZM173.9 12V1.0625H183.275V2.625H184.837V5.75H183.275V7.3125H184.837V12H180.15V7.3125H177.033V12H173.9ZM178.587 2.625V5.75H181.712V2.625H178.587ZM196.575 12H188.762V10.4375H187.2V2.625H188.762V1.0625H196.575V2.625H198.137V10.4375H196.575V12ZM195.012 10.4375V2.625H191.887V10.4375H195.012ZM208.312 2.625V12H205.188V2.625H203.625V12H200.5V1.0625H209.883V2.625H211.438V12H209.875V2.625H208.312ZM236.475 12H228.663V10.4375H227.1V2.625H228.663V1.0625H236.475V2.625H238.038V10.4375H236.475V12ZM234.913 10.4375V2.625H231.788V10.4375H234.913ZM245.087 1.0625V10.4375H248.212V1.0625H251.337V10.4375H249.775V12H241.962V10.4375H240.4V1.0625H245.087ZM264.637 1.0625V2.625H261.512V12H256.825V2.625H253.7V1.0625H264.637ZM267 8.875H270.125V10.4375H274.812V7.3125H268.562V5.75H267V2.625H268.562V1.0625H276.375V2.625H277.938V4.1875H274.812V2.625H271.688V5.75H276.375V7.3125H277.938V10.4375H276.375V12H268.562V10.4375H267V8.875ZM289.675 1.0625V2.625H288.112V10.4375H289.675V12H281.862V10.4375H283.425V2.625H281.862V1.0625H289.675ZM293.6 12V1.0625H302.975V2.625H304.538V10.4375H302.975V12H293.6ZM298.295 10.4375H301.413V2.625H298.288L298.295 10.4375ZM317.837 12H306.9V1.0625H317.837V2.625H311.587V5.75H316.275V7.3125H311.587V10.4375H317.837V12ZM333.5 1.0625H338.188V8.875H339.75V7.3125H341.312V1.0625H344.438V7.625H342.875V8.875H341.312V10.4375H339.75V12H338.188V10.4375H336.625V8.875H335.062V7.3125H333.5V1.0625ZM356.175 1.0625V2.625H354.612V10.4375H356.175V12H348.362V10.4375H349.925V2.625H348.362V1.0625H356.175ZM371.038 12H360.1V1.0625H371.038V2.625H364.788V5.75H369.475V7.3125H364.788V10.4375H371.038V12ZM384.337 1.0625V2.625H381.212V12H376.525V2.625H373.4V1.0625H384.337ZM386.7 12V1.0625H396.075V2.625H397.638V12H394.513V2.625H391.388L391.395 12H386.7ZM400 12V2.625H401.562V1.0625H409.375V2.625H410.938V12H407.812V7.3125H404.688V12H400ZM404.688 2.86719V5.75H407.812V2.86719H404.688ZM421.112 2.625V12H417.987V2.625H416.425V12H413.3V1.0625H422.683V2.625H424.237V12H422.675V2.625H421.112ZM432.85 10.4375V12H429.725V10.4375H432.85ZM429.725 8.875V7.3125H431.288V5.75H434.413V2.625H429.725V4.1875H426.6V2.625H428.163V1.0625H435.975V2.625H437.538V5.75H435.975V7.3125H432.85V8.875H429.725Z"/>
</mask>
<path d="M5.6875 2.625V10.4375H11.9375V12H2.5625V10.4375H1V2.625H2.5625V1.0625H11.9375V2.625H5.6875ZM14.3 12V2.625H15.8625V1.0625H23.675V2.625H25.2375V12H22.1125V7.3125H18.9875V12H14.3ZM18.9875 2.86719V5.75H22.1125V2.86719H18.9875ZM27.6 12V1.0625H36.975V2.625H38.5375V12H35.4125V2.625H32.2875L32.2953 12H27.6ZM63.575 1.0625V2.625H62.0125V10.4375H63.575V12H55.7625V10.4375H57.325V2.625H55.7625V1.0625H63.575ZM80.8 12V2.625H82.3625V1.0625H90.175V2.625H91.7375V12H88.6125V7.3125H85.4875V12H80.8ZM85.4875 2.86719V5.75H88.6125V2.86719H85.4875ZM98.7953 7.3125L98.8109 12H94.1V1.0625H103.475V2.625H105.037V5.75H103.475V7.3125H98.7953ZM98.7875 2.625V5.75H101.912V2.625H98.7875ZM112.095 7.3125L112.111 12H107.4V1.0625H116.775V2.625H118.338V5.75H116.775V7.3125H112.095ZM112.088 2.625V5.75H115.213V2.625H112.088ZM131.637 12H120.7V1.0625H125.387V10.4375H131.637V12ZM134 1.0625H138.688V5.75H141.812V1.0625H144.938V5.75H143.375V7.3125H141.812V12H137.125V7.3125H135.562V5.75H134V1.0625ZM160.6 12V1.0625H171.538V2.625H165.288V5.75H169.975V7.3125H165.288V12H160.6ZM173.9 12V1.0625H183.275V2.625H184.837V5.75H183.275V7.3125H184.837V12H180.15V7.3125H177.033V12H173.9ZM178.587 2.625V5.75H181.712V2.625H178.587ZM196.575 12H188.762V10.4375H187.2V2.625H188.762V1.0625H196.575V2.625H198.137V10.4375H196.575V12ZM195.012 10.4375V2.625H191.887V10.4375H195.012ZM208.312 2.625V12H205.188V2.625H203.625V12H200.5V1.0625H209.883V2.625H211.438V12H209.875V2.625H208.312ZM236.475 12H228.663V10.4375H227.1V2.625H228.663V1.0625H236.475V2.625H238.038V10.4375H236.475V12ZM234.913 10.4375V2.625H231.788V10.4375H234.913ZM245.087 1.0625V10.4375H248.212V1.0625H251.337V10.4375H249.775V12H241.962V10.4375H240.4V1.0625H245.087ZM264.637 1.0625V2.625H261.512V12H256.825V2.625H253.7V1.0625H264.637ZM267 8.875H270.125V10.4375H274.812V7.3125H268.562V5.75H267V2.625H268.562V1.0625H276.375V2.625H277.938V4.1875H274.812V2.625H271.688V5.75H276.375V7.3125H277.938V10.4375H276.375V12H268.562V10.4375H267V8.875ZM289.675 1.0625V2.625H288.112V10.4375H289.675V12H281.862V10.4375H283.425V2.625H281.862V1.0625H289.675ZM293.6 12V1.0625H302.975V2.625H304.538V10.4375H302.975V12H293.6ZM298.295 10.4375H301.413V2.625H298.288L298.295 10.4375ZM317.837 12H306.9V1.0625H317.837V2.625H311.587V5.75H316.275V7.3125H311.587V10.4375H317.837V12ZM333.5 1.0625H338.188V8.875H339.75V7.3125H341.312V1.0625H344.438V7.625H342.875V8.875H341.312V10.4375H339.75V12H338.188V10.4375H336.625V8.875H335.062V7.3125H333.5V1.0625ZM356.175 1.0625V2.625H354.612V10.4375H356.175V12H348.362V10.4375H349.925V2.625H348.362V1.0625H356.175ZM371.038 12H360.1V1.0625H371.038V2.625H364.788V5.75H369.475V7.3125H364.788V10.4375H371.038V12ZM384.337 1.0625V2.625H381.212V12H376.525V2.625H373.4V1.0625H384.337ZM386.7 12V1.0625H396.075V2.625H397.638V12H394.513V2.625H391.388L391.395 12H386.7ZM400 12V2.625H401.562V1.0625H409.375V2.625H410.938V12H407.812V7.3125H404.688V12H400ZM404.688 2.86719V5.75H407.812V2.86719H404.688ZM421.112 2.625V12H417.987V2.625H416.425V12H413.3V1.0625H422.683V2.625H424.237V12H422.675V2.625H421.112ZM432.85 10.4375V12H429.725V10.4375H432.85ZM429.725 8.875V7.3125H431.288V5.75H434.413V2.625H429.725V4.1875H426.6V2.625H428.163V1.0625H435.975V2.625H437.538V5.75H435.975V7.3125H432.85V8.875H429.725Z" fill="white"/>
<path d="M5.6875 2.625V1.625H4.6875V2.625H5.6875ZM5.6875 10.4375H4.6875V11.4375H5.6875V10.4375ZM11.9375 10.4375H12.9375V9.4375H11.9375V10.4375ZM11.9375 12V13H12.9375V12H11.9375ZM2.5625 12H1.5625V13H2.5625V12ZM2.5625 10.4375H3.5625V9.4375H2.5625V10.4375ZM1 10.4375H0V11.4375H1V10.4375ZM1 2.625V1.625H0V2.625H1ZM2.5625 2.625V3.625H3.5625V2.625H2.5625ZM2.5625 1.0625V0.0625H1.5625V1.0625H2.5625ZM11.9375 1.0625H12.9375V0.0625H11.9375V1.0625ZM11.9375 2.625V3.625H12.9375V2.625H11.9375ZM5.6875 2.625H4.6875V10.4375H5.6875H6.6875V2.625H5.6875ZM5.6875 10.4375V11.4375H11.9375V10.4375V9.4375H5.6875V10.4375ZM11.9375 10.4375H10.9375V12H11.9375H12.9375V10.4375H11.9375ZM11.9375 12V11H2.5625V12V13H11.9375V12ZM2.5625 12H3.5625V10.4375H2.5625H1.5625V12H2.5625ZM2.5625 10.4375V9.4375H1V10.4375V11.4375H2.5625V10.4375ZM1 10.4375H2V2.625H1H0V10.4375H1ZM1 2.625V3.625H2.5625V2.625V1.625H1V2.625ZM2.5625 2.625H3.5625V1.0625H2.5625H1.5625V2.625H2.5625ZM2.5625 1.0625V2.0625H11.9375V1.0625V0.0625H2.5625V1.0625ZM11.9375 1.0625H10.9375V2.625H11.9375H12.9375V1.0625H11.9375ZM11.9375 2.625V1.625H5.6875V2.625V3.625H11.9375V2.625ZM14.3 12H13.3V13H14.3V12ZM14.3 2.625V1.625H13.3V2.625H14.3ZM15.8625 2.625V3.625H16.8625V2.625H15.8625ZM15.8625 1.0625V0.0625H14.8625V1.0625H15.8625ZM23.675 1.0625H24.675V0.0625H23.675V1.0625ZM23.675 2.625H22.675V3.625H23.675V2.625ZM25.2375 2.625H26.2375V1.625H25.2375V2.625ZM25.2375 12V13H26.2375V12H25.2375ZM22.1125 12H21.1125V13H22.1125V12ZM22.1125 7.3125H23.1125V6.3125H22.1125V7.3125ZM18.9875 7.3125V6.3125H17.9875V7.3125H18.9875ZM18.9875 12V13H19.9875V12H18.9875ZM18.9875 2.86719V1.86719H17.9875V2.86719H18.9875ZM18.9875 5.75H17.9875V6.75H18.9875V5.75ZM22.1125 5.75V6.75H23.1125V5.75H22.1125ZM22.1125 2.86719H23.1125V1.86719H22.1125V2.86719ZM14.3 12H15.3V2.625H14.3H13.3V12H14.3ZM14.3 2.625V3.625H15.8625V2.625V1.625H14.3V2.625ZM15.8625 2.625H16.8625V1.0625H15.8625H14.8625V2.625H15.8625ZM15.8625 1.0625V2.0625H23.675V1.0625V0.0625H15.8625V1.0625ZM23.675 1.0625H22.675V2.625H23.675H24.675V1.0625H23.675ZM23.675 2.625V3.625H25.2375V2.625V1.625H23.675V2.625ZM25.2375 2.625H24.2375V12H25.2375H26.2375V2.625H25.2375ZM25.2375 12V11H22.1125V12V13H25.2375V12ZM22.1125 12H23.1125V7.3125H22.1125H21.1125V12H22.1125ZM22.1125 7.3125V6.3125H18.9875V7.3125V8.3125H22.1125V7.3125ZM18.9875 7.3125H17.9875V12H18.9875H19.9875V7.3125H18.9875ZM18.9875 12V11H14.3V12V13H18.9875V12ZM18.9875 2.86719H17.9875V5.75H18.9875H19.9875V2.86719H18.9875ZM18.9875 5.75V6.75H22.1125V5.75V4.75H18.9875V5.75ZM22.1125 5.75H23.1125V2.86719H22.1125H21.1125V5.75H22.1125ZM22.1125 2.86719V1.86719H18.9875V2.86719V3.86719H22.1125V2.86719ZM27.6 12H26.6V13H27.6V12ZM27.6 1.0625V0.0625H26.6V1.0625H27.6ZM36.975 1.0625H37.975V0.0625H36.975V1.0625ZM36.975 2.625H35.975V3.625H36.975V2.625ZM38.5375 2.625H39.5375V1.625H38.5375V2.625ZM38.5375 12V13H39.5375V12H38.5375ZM35.4125 12H34.4125V13H35.4125V12ZM35.4125 2.625H36.4125V1.625H35.4125V2.625ZM32.2875 2.625V1.625H31.2867L31.2875 2.62583L32.2875 2.625ZM32.2953 12V13H33.2961L33.2953 11.9992L32.2953 12ZM27.6 12H28.6V1.0625H27.6H26.6V12H27.6ZM27.6 1.0625V2.0625H36.975V1.0625V0.0625H27.6V1.0625ZM36.975 1.0625H35.975V2.625H36.975H37.975V1.0625H36.975ZM36.975 2.625V3.625H38.5375V2.625V1.625H36.975V2.625ZM38.5375 2.625H37.5375V12H38.5375H39.5375V2.625H38.5375ZM38.5375 12V11H35.4125V12V13H38.5375V12ZM35.4125 12H36.4125V2.625H35.4125H34.4125V12H35.4125ZM35.4125 2.625V1.625H32.2875V2.625V3.625H35.4125V2.625ZM32.2875 2.625L31.2875 2.62583L31.2953 12.0008L32.2953 12L33.2953 11.9992L33.2875 2.62417L32.2875 2.625ZM32.2953 12V11H27.6V12V13H32.2953V12ZM63.575 1.0625H64.575V0.0625H63.575V1.0625ZM63.575 2.625V3.625H64.575V2.625H63.575ZM62.0125 2.625V1.625H61.0125V2.625H62.0125ZM62.0125 10.4375H61.0125V11.4375H62.0125V10.4375ZM63.575 10.4375H64.575V9.4375H63.575V10.4375ZM63.575 12V13H64.575V12H63.575ZM55.7625 12H54.7625V13H55.7625V12ZM55.7625 10.4375V9.4375H54.7625V10.4375H55.7625ZM57.325 10.4375V11.4375H58.325V10.4375H57.325ZM57.325 2.625H58.325V1.625H57.325V2.625ZM55.7625 2.625H54.7625V3.625H55.7625V2.625ZM55.7625 1.0625V0.0625H54.7625V1.0625H55.7625ZM63.575 1.0625H62.575V2.625H63.575H64.575V1.0625H63.575ZM63.575 2.625V1.625H62.0125V2.625V3.625H63.575V2.625ZM62.0125 2.625H61.0125V10.4375H62.0125H63.0125V2.625H62.0125ZM62.0125 10.4375V11.4375H63.575V10.4375V9.4375H62.0125V10.4375ZM63.575 10.4375H62.575V12H63.575H64.575V10.4375H63.575ZM63.575 12V11H55.7625V12V13H63.575V12ZM55.7625 12H56.7625V10.4375H55.7625H54.7625V12H55.7625ZM55.7625 10.4375V11.4375H57.325V10.4375V9.4375H55.7625V10.4375ZM57.325 10.4375H58.325V2.625H57.325H56.325V10.4375H57.325ZM57.325 2.625V1.625H55.7625V2.625V3.625H57.325V2.625ZM55.7625 2.625H56.7625V1.0625H55.7625H54.7625V2.625H55.7625ZM55.7625 1.0625V2.0625H63.575V1.0625V0.0625H55.7625V1.0625ZM80.8 12H79.8V13H80.8V12ZM80.8 2.625V1.625H79.8V2.625H80.8ZM82.3625 2.625V3.625H83.3625V2.625H82.3625ZM82.3625 1.0625V0.0625H81.3625V1.0625H82.3625ZM90.175 1.0625H91.175V0.0625H90.175V1.0625ZM90.175 2.625H89.175V3.625H90.175V2.625ZM91.7375 2.625H92.7375V1.625H91.7375V2.625ZM91.7375 12V13H92.7375V12H91.7375ZM88.6125 12H87.6125V13H88.6125V12ZM88.6125 7.3125H89.6125V6.3125H88.6125V7.3125ZM85.4875 7.3125V6.3125H84.4875V7.3125H85.4875ZM85.4875 12V13H86.4875V12H85.4875ZM85.4875 2.86719V1.86719H84.4875V2.86719H85.4875ZM85.4875 5.75H84.4875V6.75H85.4875V5.75ZM88.6125 5.75V6.75H89.6125V5.75H88.6125ZM88.6125 2.86719H89.6125V1.86719H88.6125V2.86719ZM80.8 12H81.8V2.625H80.8H79.8V12H80.8ZM80.8 2.625V3.625H82.3625V2.625V1.625H80.8V2.625ZM82.3625 2.625H83.3625V1.0625H82.3625H81.3625V2.625H82.3625ZM82.3625 1.0625V2.0625H90.175V1.0625V0.0625H82.3625V1.0625ZM90.175 1.0625H89.175V2.625H90.175H91.175V1.0625H90.175ZM90.175 2.625V3.625H91.7375V2.625V1.625H90.175V2.625ZM91.7375 2.625H90.7375V12H91.7375H92.7375V2.625H91.7375ZM91.7375 12V11H88.6125V12V13H91.7375V12ZM88.6125 12H89.6125V7.3125H88.6125H87.6125V12H88.6125ZM88.6125 7.3125V6.3125H85.4875V7.3125V8.3125H88.6125V7.3125ZM85.4875 7.3125H84.4875V12H85.4875H86.4875V7.3125H85.4875ZM85.4875 12V11H80.8V12V13H85.4875V12ZM85.4875 2.86719H84.4875V5.75H85.4875H86.4875V2.86719H85.4875ZM85.4875 5.75V6.75H88.6125V5.75V4.75H85.4875V5.75ZM88.6125 5.75H89.6125V2.86719H88.6125H87.6125V5.75H88.6125ZM88.6125 2.86719V1.86719H85.4875V2.86719V3.86719H88.6125V2.86719ZM98.7953 7.3125V6.3125H97.792L97.7953 7.31583L98.7953 7.3125ZM98.8109 12V13H99.8143L99.8109 11.9967L98.8109 12ZM94.1 12H93.1V13H94.1V12ZM94.1 1.0625V0.0625H93.1V1.0625H94.1ZM103.475 1.0625H104.475V0.0625H103.475V1.0625ZM103.475 2.625H102.475V3.625H103.475V2.625ZM105.037 2.625H106.037V1.625H105.037V2.625ZM105.037 5.75V6.75H106.037V5.75H105.037ZM103.475 5.75V4.75H102.475V5.75H103.475ZM103.475 7.3125V8.3125H104.475V7.3125H103.475ZM98.7875 2.625V1.625H97.7875V2.625H98.7875ZM98.7875 5.75H97.7875V6.75H98.7875V5.75ZM101.912 5.75V6.75H102.912V5.75H101.912ZM101.912 2.625H102.912V1.625H101.912V2.625ZM98.7953 7.3125L97.7953 7.31583L97.8109 12.0033L98.8109 12L99.8109 11.9967L99.7953 7.30917L98.7953 7.3125ZM98.8109 12V11H94.1V12V13H98.8109V12ZM94.1 12H95.1V1.0625H94.1H93.1V12H94.1ZM94.1 1.0625V2.0625H103.475V1.0625V0.0625H94.1V1.0625ZM103.475 1.0625H102.475V2.625H103.475H104.475V1.0625H103.475ZM103.475 2.625V3.625H105.037V2.625V1.625H103.475V2.625ZM105.037 2.625H104.037V5.75H105.037H106.037V2.625H105.037ZM105.037 5.75V4.75H103.475V5.75V6.75H105.037V5.75ZM103.475 5.75H102.475V7.3125H103.475H104.475V5.75H103.475ZM103.475 7.3125V6.3125H98.7953V7.3125V8.3125H103.475V7.3125ZM98.7875 2.625H97.7875V5.75H98.7875H99.7875V2.625H98.7875ZM98.7875 5.75V6.75H101.912V5.75V4.75H98.7875V5.75ZM101.912 5.75H102.912V2.625H101.912H100.912V5.75H101.912ZM101.912 2.625V1.625H98.7875V2.625V3.625H101.912V2.625ZM112.095 7.3125V6.3125H111.092L111.095 7.31583L112.095 7.3125ZM112.111 12V13H113.114L113.111 11.9967L112.111 12ZM107.4 12H106.4V13H107.4V12ZM107.4 1.0625V0.0625H106.4V1.0625H107.4ZM116.775 1.0625H117.775V0.0625H116.775V1.0625ZM116.775 2.625H115.775V3.625H116.775V2.625ZM118.338 2.625H119.338V1.625H118.338V2.625ZM118.338 5.75V6.75H119.338V5.75H118.338ZM116.775 5.75V4.75H115.775V5.75H116.775ZM116.775 7.3125V8.3125H117.775V7.3125H116.775ZM112.088 2.625V1.625H111.088V2.625H112.088ZM112.088 5.75H111.088V6.75H112.088V5.75ZM115.213 5.75V6.75H116.213V5.75H115.213ZM115.213 2.625H116.213V1.625H115.213V2.625ZM112.095 7.3125L111.095 7.31583L111.111 12.0033L112.111 12L113.111 11.9967L113.095 7.30917L112.095 7.3125ZM112.111 12V11H107.4V12V13H112.111V12ZM107.4 12H108.4V1.0625H107.4H106.4V12H107.4ZM107.4 1.0625V2.0625H116.775V1.0625V0.0625H107.4V1.0625ZM116.775 1.0625H115.775V2.625H116.775H117.775V1.0625H116.775ZM116.775 2.625V3.625H118.338V2.625V1.625H116.775V2.625ZM118.338 2.625H117.338V5.75H118.338H119.338V2.625H118.338ZM118.338 5.75V4.75H116.775V5.75V6.75H118.338V5.75ZM116.775 5.75H115.775V7.3125H116.775H117.775V5.75H116.775ZM116.775 7.3125V6.3125H112.095V7.3125V8.3125H116.775V7.3125ZM112.088 2.625H111.088V5.75H112.088H113.088V2.625H112.088ZM112.088 5.75V6.75H115.213V5.75V4.75H112.088V5.75ZM115.213 5.75H116.213V2.625H115.213H114.213V5.75H115.213ZM115.213 2.625V1.625H112.088V2.625V3.625H115.213V2.625ZM131.637 12V13H132.637V12H131.637ZM120.7 12H119.7V13H120.7V12ZM120.7 1.0625V0.0625H119.7V1.0625H120.7ZM125.387 1.0625H126.387V0.0625H125.387V1.0625ZM125.387 10.4375H124.387V11.4375H125.387V10.4375ZM131.637 10.4375H132.637V9.4375H131.637V10.4375ZM131.637 12V11H120.7V12V13H131.637V12ZM120.7 12H121.7V1.0625H120.7H119.7V12H120.7ZM120.7 1.0625V2.0625H125.387V1.0625V0.0625H120.7V1.0625ZM125.387 1.0625H124.387V10.4375H125.387H126.387V1.0625H125.387ZM125.387 10.4375V11.4375H131.637V10.4375V9.4375H125.387V10.4375ZM131.637 10.4375H130.637V12H131.637H132.637V10.4375H131.637ZM134 1.0625V0.0625H133V1.0625H134ZM138.688 1.0625H139.688V0.0625H138.688V1.0625ZM138.688 5.75H137.688V6.75H138.688V5.75ZM141.812 5.75V6.75H142.812V5.75H141.812ZM141.812 1.0625V0.0625H140.812V1.0625H141.812ZM144.938 1.0625H145.938V0.0625H144.938V1.0625ZM144.938 5.75V6.75H145.938V5.75H144.938ZM143.375 5.75V4.75H142.375V5.75H143.375ZM143.375 7.3125V8.3125H144.375V7.3125H143.375ZM141.812 7.3125V6.3125H140.812V7.3125H141.812ZM141.812 12V13H142.812V12H141.812ZM137.125 12H136.125V13H137.125V12ZM137.125 7.3125H138.125V6.3125H137.125V7.3125ZM135.562 7.3125H134.562V8.3125H135.562V7.3125ZM135.562 5.75H136.562V4.75H135.562V5.75ZM134 5.75H133V6.75H134V5.75ZM134 1.0625V2.0625H138.688V1.0625V0.0625H134V1.0625ZM138.688 1.0625H137.688V5.75H138.688H139.688V1.0625H138.688ZM138.688 5.75V6.75H141.812V5.75V4.75H138.688V5.75ZM141.812 5.75H142.812V1.0625H141.812H140.812V5.75H141.812ZM141.812 1.0625V2.0625H144.938V1.0625V0.0625H141.812V1.0625ZM144.938 1.0625H143.938V5.75H144.938H145.938V1.0625H144.938ZM144.938 5.75V4.75H143.375V5.75V6.75H144.938V5.75ZM143.375 5.75H142.375V7.3125H143.375H144.375V5.75H143.375ZM143.375 7.3125V6.3125H141.812V7.3125V8.3125H143.375V7.3125ZM141.812 7.3125H140.812V12H141.812H142.812V7.3125H141.812ZM141.812 12V11H137.125V12V13H141.812V12ZM137.125 12H138.125V7.3125H137.125H136.125V12H137.125ZM137.125 7.3125V6.3125H135.562V7.3125V8.3125H137.125V7.3125ZM135.562 7.3125H136.562V5.75H135.562H134.562V7.3125H135.562ZM135.562 5.75V4.75H134V5.75V6.75H135.562V5.75ZM134 5.75H135V1.0625H134H133V5.75H134ZM160.6 12H159.6V13H160.6V12ZM160.6 1.0625V0.0625H159.6V1.0625H160.6ZM171.538 1.0625H172.538V0.0625H171.538V1.0625ZM171.538 2.625V3.625H172.538V2.625H171.538ZM165.288 2.625V1.625H164.288V2.625H165.288ZM165.288 5.75H164.288V6.75H165.288V5.75ZM169.975 5.75H170.975V4.75H169.975V5.75ZM169.975 7.3125V8.3125H170.975V7.3125H169.975ZM165.288 7.3125V6.3125H164.288V7.3125H165.288ZM165.288 12V13H166.288V12H165.288ZM160.6 12H161.6V1.0625H160.6H159.6V12H160.6ZM160.6 1.0625V2.0625H171.538V1.0625V0.0625H160.6V1.0625ZM171.538 1.0625H170.538V2.625H171.538H172.538V1.0625H171.538ZM171.538 2.625V1.625H165.288V2.625V3.625H171.538V2.625ZM165.288 2.625H164.288V5.75H165.288H166.288V2.625H165.288ZM165.288 5.75V6.75H169.975V5.75V4.75H165.288V5.75ZM169.975 5.75H168.975V7.3125H169.975H170.975V5.75H169.975ZM169.975 7.3125V6.3125H165.288V7.3125V8.3125H169.975V7.3125ZM165.288 7.3125H164.288V12H165.288H166.288V7.3125H165.288ZM165.288 12V11H160.6V12V13H165.288V12ZM173.9 12H172.9V13H173.9V12ZM173.9 1.0625V0.0625H172.9V1.0625H173.9ZM183.275 1.0625H184.275V0.0625H183.275V1.0625ZM183.275 2.625H182.275V3.625H183.275V2.625ZM184.837 2.625H185.837V1.625H184.837V2.625ZM184.837 5.75V6.75H185.837V5.75H184.837ZM183.275 5.75V4.75H182.275V5.75H183.275ZM183.275 7.3125H182.275V8.3125H183.275V7.3125ZM184.837 7.3125H185.837V6.3125H184.837V7.3125ZM184.837 12V13H185.837V12H184.837ZM180.15 12H179.15V13H180.15V12ZM180.15 7.3125H181.15V6.3125H180.15V7.3125ZM177.033 7.3125V6.3125H176.033V7.3125H177.033ZM177.033 12V13H178.033V12H177.033ZM178.587 2.625V1.625H177.587V2.625H178.587ZM178.587 5.75H177.587V6.75H178.587V5.75ZM181.712 5.75V6.75H182.712V5.75H181.712ZM181.712 2.625H182.712V1.625H181.712V2.625ZM173.9 12H174.9V1.0625H173.9H172.9V12H173.9ZM173.9 1.0625V2.0625H183.275V1.0625V0.0625H173.9V1.0625ZM183.275 1.0625H182.275V2.625H183.275H184.275V1.0625H183.275ZM183.275 2.625V3.625H184.837V2.625V1.625H183.275V2.625ZM184.837 2.625H183.837V5.75H184.837H185.837V2.625H184.837ZM184.837 5.75V4.75H183.275V5.75V6.75H184.837V5.75ZM183.275 5.75H182.275V7.3125H183.275H184.275V5.75H183.275ZM183.275 7.3125V8.3125H184.837V7.3125V6.3125H183.275V7.3125ZM184.837 7.3125H183.837V12H184.837H185.837V7.3125H184.837ZM184.837 12V11H180.15V12V13H184.837V12ZM180.15 12H181.15V7.3125H180.15H179.15V12H180.15ZM180.15 7.3125V6.3125H177.033V7.3125V8.3125H180.15V7.3125ZM177.033 7.3125H176.033V12H177.033H178.033V7.3125H177.033ZM177.033 12V11H173.9V12V13H177.033V12ZM178.587 2.625H177.587V5.75H178.587H179.587V2.625H178.587ZM178.587 5.75V6.75H181.712V5.75V4.75H178.587V5.75ZM181.712 5.75H182.712V2.625H181.712H180.712V5.75H181.712ZM181.712 2.625V1.625H178.587V2.625V3.625H181.712V2.625ZM196.575 12V13H197.575V12H196.575ZM188.762 12H187.762V13H188.762V12ZM188.762 10.4375H189.762V9.4375H188.762V10.4375ZM187.2 10.4375H186.2V11.4375H187.2V10.4375ZM187.2 2.625V1.625H186.2V2.625H187.2ZM188.762 2.625V3.625H189.762V2.625H188.762ZM188.762 1.0625V0.0625H187.762V1.0625H188.762ZM196.575 1.0625H197.575V0.0625H196.575V1.0625ZM196.575 2.625H195.575V3.625H196.575V2.625ZM198.137 2.625H199.137V1.625H198.137V2.625ZM198.137 10.4375V11.4375H199.137V10.4375H198.137ZM196.575 10.4375V9.4375H195.575V10.4375H196.575ZM195.012 10.4375V11.4375H196.012V10.4375H195.012ZM195.012 2.625H196.012V1.625H195.012V2.625ZM191.887 2.625V1.625H190.887V2.625H191.887ZM191.887 10.4375H190.887V11.4375H191.887V10.4375ZM196.575 12V11H188.762V12V13H196.575V12ZM188.762 12H189.762V10.4375H188.762H187.762V12H188.762ZM188.762 10.4375V9.4375H187.2V10.4375V11.4375H188.762V10.4375ZM187.2 10.4375H188.2V2.625H187.2H186.2V10.4375H187.2ZM187.2 2.625V3.625H188.762V2.625V1.625H187.2V2.625ZM188.762 2.625H189.762V1.0625H188.762H187.762V2.625H188.762ZM188.762 1.0625V2.0625H196.575V1.0625V0.0625H188.762V1.0625ZM196.575 1.0625H195.575V2.625H196.575H197.575V1.0625H196.575ZM196.575 2.625V3.625H198.137V2.625V1.625H196.575V2.625ZM198.137 2.625H197.137V10.4375H198.137H199.137V2.625H198.137ZM198.137 10.4375V9.4375H196.575V10.4375V11.4375H198.137V10.4375ZM196.575 10.4375H195.575V12H196.575H197.575V10.4375H196.575ZM195.012 10.4375H196.012V2.625H195.012H194.012V10.4375H195.012ZM195.012 2.625V1.625H191.887V2.625V3.625H195.012V2.625ZM191.887 2.625H190.887V10.4375H191.887H192.887V2.625H191.887ZM191.887 10.4375V11.4375H195.012V10.4375V9.4375H191.887V10.4375ZM208.312 2.625V1.625H207.312V2.625H208.312ZM208.312 12V13H209.312V12H208.312ZM205.188 12H204.188V13H205.188V12ZM205.188 2.625H206.188V1.625H205.188V2.625ZM203.625 2.625V1.625H202.625V2.625H203.625ZM203.625 12V13H204.625V12H203.625ZM200.5 12H199.5V13H200.5V12ZM200.5 1.0625V0.0625H199.5V1.0625H200.5ZM209.883 1.0625H210.883V0.0625H209.883V1.0625ZM209.883 2.625H208.883V3.625H209.883V2.625ZM211.438 2.625H212.438V1.625H211.438V2.625ZM211.438 12V13H212.438V12H211.438ZM209.875 12H208.875V13H209.875V12ZM209.875 2.625H210.875V1.625H209.875V2.625ZM208.312 2.625H207.312V12H208.312H209.312V2.625H208.312ZM208.312 12V11H205.188V12V13H208.312V12ZM205.188 12H206.188V2.625H205.188H204.188V12H205.188ZM205.188 2.625V1.625H203.625V2.625V3.625H205.188V2.625ZM203.625 2.625H202.625V12H203.625H204.625V2.625H203.625ZM203.625 12V11H200.5V12V13H203.625V12ZM200.5 12H201.5V1.0625H200.5H199.5V12H200.5ZM200.5 1.0625V2.0625H209.883V1.0625V0.0625H200.5V1.0625ZM209.883 1.0625H208.883V2.625H209.883H210.883V1.0625H209.883ZM209.883 2.625V3.625H211.438V2.625V1.625H209.883V2.625ZM211.438 2.625H210.438V12H211.438H212.438V2.625H211.438ZM211.438 12V11H209.875V12V13H211.438V12ZM209.875 12H210.875V2.625H209.875H208.875V12H209.875ZM209.875 2.625V1.625H208.312V2.625V3.625H209.875V2.625ZM236.475 12V13H237.475V12H236.475ZM228.663 12H227.663V13H228.663V12ZM228.663 10.4375H229.663V9.4375H228.663V10.4375ZM227.1 10.4375H226.1V11.4375H227.1V10.4375ZM227.1 2.625V1.625H226.1V2.625H227.1ZM228.663 2.625V3.625H229.663V2.625H228.663ZM228.663 1.0625V0.0625H227.663V1.0625H228.663ZM236.475 1.0625H237.475V0.0625H236.475V1.0625ZM236.475 2.625H235.475V3.625H236.475V2.625ZM238.038 2.625H239.038V1.625H238.038V2.625ZM238.038 10.4375V11.4375H239.038V10.4375H238.038ZM236.475 10.4375V9.4375H235.475V10.4375H236.475ZM234.913 10.4375V11.4375H235.913V10.4375H234.913ZM234.913 2.625H235.913V1.625H234.913V2.625ZM231.788 2.625V1.625H230.788V2.625H231.788ZM231.788 10.4375H230.788V11.4375H231.788V10.4375ZM236.475 12V11H228.663V12V13H236.475V12ZM228.663 12H229.663V10.4375H228.663H227.663V12H228.663ZM228.663 10.4375V9.4375H227.1V10.4375V11.4375H228.663V10.4375ZM227.1 10.4375H228.1V2.625H227.1H226.1V10.4375H227.1ZM227.1 2.625V3.625H228.663V2.625V1.625H227.1V2.625ZM228.663 2.625H229.663V1.0625H228.663H227.663V2.625H228.663ZM228.663 1.0625V2.0625H236.475V1.0625V0.0625H228.663V1.0625ZM236.475 1.0625H235.475V2.625H236.475H237.475V1.0625H236.475ZM236.475 2.625V3.625H238.038V2.625V1.625H236.475V2.625ZM238.038 2.625H237.038V10.4375H238.038H239.038V2.625H238.038ZM238.038 10.4375V9.4375H236.475V10.4375V11.4375H238.038V10.4375ZM236.475 10.4375H235.475V12H236.475H237.475V10.4375H236.475ZM234.913 10.4375H235.913V2.625H234.913H233.913V10.4375H234.913ZM234.913 2.625V1.625H231.788V2.625V3.625H234.913V2.625ZM231.788 2.625H230.788V10.4375H231.788H232.788V2.625H231.788ZM231.788 10.4375V11.4375H234.913V10.4375V9.4375H231.788V10.4375ZM245.087 1.0625H246.087V0.0625H245.087V1.0625ZM245.087 10.4375H244.087V11.4375H245.087V10.4375ZM248.212 10.4375V11.4375H249.212V10.4375H248.212ZM248.212 1.0625V0.0625H247.212V1.0625H248.212ZM251.337 1.0625H252.337V0.0625H251.337V1.0625ZM251.337 10.4375V11.4375H252.337V10.4375H251.337ZM249.775 10.4375V9.4375H248.775V10.4375H249.775ZM249.775 12V13H250.775V12H249.775ZM241.962 12H240.962V13H241.962V12ZM241.962 10.4375H242.962V9.4375H241.962V10.4375ZM240.4 10.4375H239.4V11.4375H240.4V10.4375ZM240.4 1.0625V0.0625H239.4V1.0625H240.4ZM245.087 1.0625H244.087V10.4375H245.087H246.087V1.0625H245.087ZM245.087 10.4375V11.4375H248.212V10.4375V9.4375H245.087V10.4375ZM248.212 10.4375H249.212V1.0625H248.212H247.212V10.4375H248.212ZM248.212 1.0625V2.0625H251.337V1.0625V0.0625H248.212V1.0625ZM251.337 1.0625H250.337V10.4375H251.337H252.337V1.0625H251.337ZM251.337 10.4375V9.4375H249.775V10.4375V11.4375H251.337V10.4375ZM249.775 10.4375H248.775V12H249.775H250.775V10.4375H249.775ZM249.775 12V11H241.962V12V13H249.775V12ZM241.962 12H242.962V10.4375H241.962H240.962V12H241.962ZM241.962 10.4375V9.4375H240.4V10.4375V11.4375H241.962V10.4375ZM240.4 10.4375H241.4V1.0625H240.4H239.4V10.4375H240.4ZM240.4 1.0625V2.0625H245.087V1.0625V0.0625H240.4V1.0625ZM264.638 1.0625H265.638V0.0625H264.638V1.0625ZM264.638 2.625V3.625H265.638V2.625H264.638ZM261.513 2.625V1.625H260.513V2.625H261.513ZM261.513 12V13H262.513V12H261.513ZM256.825 12H255.825V13H256.825V12ZM256.825 2.625H257.825V1.625H256.825V2.625ZM253.7 2.625H252.7V3.625H253.7V2.625ZM253.7 1.0625V0.0625H252.7V1.0625H253.7ZM264.638 1.0625H263.638V2.625H264.638H265.638V1.0625H264.638ZM264.638 2.625V1.625H261.513V2.625V3.625H264.638V2.625ZM261.513 2.625H260.513V12H261.513H262.513V2.625H261.513ZM261.513 12V11H256.825V12V13H261.513V12ZM256.825 12H257.825V2.625H256.825H255.825V12H256.825ZM256.825 2.625V1.625H253.7V2.625V3.625H256.825V2.625ZM253.7 2.625H254.7V1.0625H253.7H252.7V2.625H253.7ZM253.7 1.0625V2.0625H264.638V1.0625V0.0625H253.7V1.0625ZM267 8.875V7.875H266V8.875H267ZM270.125 8.875H271.125V7.875H270.125V8.875ZM270.125 10.4375H269.125V11.4375H270.125V10.4375ZM274.812 10.4375V11.4375H275.812V10.4375H274.812ZM274.812 7.3125H275.812V6.3125H274.812V7.3125ZM268.562 7.3125H267.562V8.3125H268.562V7.3125ZM268.562 5.75H269.562V4.75H268.562V5.75ZM267 5.75H266V6.75H267V5.75ZM267 2.625V1.625H266V2.625H267ZM268.562 2.625V3.625H269.562V2.625H268.562ZM268.562 1.0625V0.0625H267.562V1.0625H268.562ZM276.375 1.0625H277.375V0.0625H276.375V1.0625ZM276.375 2.625H275.375V3.625H276.375V2.625ZM277.938 2.625H278.938V1.625H277.938V2.625ZM277.938 4.1875V5.1875H278.938V4.1875H277.938ZM274.812 4.1875H273.812V5.1875H274.812V4.1875ZM274.812 2.625H275.812V1.625H274.812V2.625ZM271.688 2.625V1.625H270.688V2.625H271.688ZM271.688 5.75H270.688V6.75H271.688V5.75ZM276.375 5.75H277.375V4.75H276.375V5.75ZM276.375 7.3125H275.375V8.3125H276.375V7.3125ZM277.938 7.3125H278.938V6.3125H277.938V7.3125ZM277.938 10.4375V11.4375H278.938V10.4375H277.938ZM276.375 10.4375V9.4375H275.375V10.4375H276.375ZM276.375 12V13H277.375V12H276.375ZM268.562 12H267.562V13H268.562V12ZM268.562 10.4375H269.562V9.4375H268.562V10.4375ZM267 10.4375H266V11.4375H267V10.4375ZM267 8.875V9.875H270.125V8.875V7.875H267V8.875ZM270.125 8.875H269.125V10.4375H270.125H271.125V8.875H270.125ZM270.125 10.4375V11.4375H274.812V10.4375V9.4375H270.125V10.4375ZM274.812 10.4375H275.812V7.3125H274.812H273.812V10.4375H274.812ZM274.812 7.3125V6.3125H268.562V7.3125V8.3125H274.812V7.3125ZM268.562 7.3125H269.562V5.75H268.562H267.562V7.3125H268.562ZM268.562 5.75V4.75H267V5.75V6.75H268.562V5.75ZM267 5.75H268V2.625H267H266V5.75H267ZM267 2.625V3.625H268.562V2.625V1.625H267V2.625ZM268.562 2.625H269.562V1.0625H268.562H267.562V2.625H268.562ZM268.562 1.0625V2.0625H276.375V1.0625V0.0625H268.562V1.0625ZM276.375 1.0625H275.375V2.625H276.375H277.375V1.0625H276.375ZM276.375 2.625V3.625H277.938V2.625V1.625H276.375V2.625ZM277.938 2.625H276.938V4.1875H277.938H278.938V2.625H277.938ZM277.938 4.1875V3.1875H274.812V4.1875V5.1875H277.938V4.1875ZM274.812 4.1875H275.812V2.625H274.812H273.812V4.1875H274.812ZM274.812 2.625V1.625H271.688V2.625V3.625H274.812V2.625ZM271.688 2.625H270.688V5.75H271.688H272.688V2.625H271.688ZM271.688 5.75V6.75H276.375V5.75V4.75H271.688V5.75ZM276.375 5.75H275.375V7.3125H276.375H277.375V5.75H276.375ZM276.375 7.3125V8.3125H277.938V7.3125V6.3125H276.375V7.3125ZM277.938 7.3125H276.938V10.4375H277.938H278.938V7.3125H277.938ZM277.938 10.4375V9.4375H276.375V10.4375V11.4375H277.938V10.4375ZM276.375 10.4375H275.375V12H276.375H277.375V10.4375H276.375ZM276.375 12V11H268.562V12V13H276.375V12ZM268.562 12H269.562V10.4375H268.562H267.562V12H268.562ZM268.562 10.4375V9.4375H267V10.4375V11.4375H268.562V10.4375ZM267 10.4375H268V8.875H267H266V10.4375H267ZM289.675 1.0625H290.675V0.0625H289.675V1.0625ZM289.675 2.625V3.625H290.675V2.625H289.675ZM288.112 2.625V1.625H287.112V2.625H288.112ZM288.112 10.4375H287.112V11.4375H288.112V10.4375ZM289.675 10.4375H290.675V9.4375H289.675V10.4375ZM289.675 12V13H290.675V12H289.675ZM281.862 12H280.862V13H281.862V12ZM281.862 10.4375V9.4375H280.862V10.4375H281.862ZM283.425 10.4375V11.4375H284.425V10.4375H283.425ZM283.425 2.625H284.425V1.625H283.425V2.625ZM281.862 2.625H280.862V3.625H281.862V2.625ZM281.862 1.0625V0.0625H280.862V1.0625H281.862ZM289.675 1.0625H288.675V2.625H289.675H290.675V1.0625H289.675ZM289.675 2.625V1.625H288.112V2.625V3.625H289.675V2.625ZM288.112 2.625H287.112V10.4375H288.112H289.112V2.625H288.112ZM288.112 10.4375V11.4375H289.675V10.4375V9.4375H288.112V10.4375ZM289.675 10.4375H288.675V12H289.675H290.675V10.4375H289.675ZM289.675 12V11H281.862V12V13H289.675V12ZM281.862 12H282.862V10.4375H281.862H280.862V12H281.862ZM281.862 10.4375V11.4375H283.425V10.4375V9.4375H281.862V10.4375ZM283.425 10.4375H284.425V2.625H283.425H282.425V10.4375H283.425ZM283.425 2.625V1.625H281.862V2.625V3.625H283.425V2.625ZM281.862 2.625H282.862V1.0625H281.862H280.862V2.625H281.862ZM281.862 1.0625V2.0625H289.675V1.0625V0.0625H281.862V1.0625ZM293.6 12H292.6V13H293.6V12ZM293.6 1.0625V0.0625H292.6V1.0625H293.6ZM302.975 1.0625H303.975V0.0625H302.975V1.0625ZM302.975 2.625H301.975V3.625H302.975V2.625ZM304.538 2.625H305.538V1.625H304.538V2.625ZM304.538 10.4375V11.4375H305.538V10.4375H304.538ZM302.975 10.4375V9.4375H301.975V10.4375H302.975ZM302.975 12V13H303.975V12H302.975ZM298.295 10.4375L297.295 10.4385L297.296 11.4375H298.295V10.4375ZM301.413 10.4375V11.4375H302.413V10.4375H301.413ZM301.413 2.625H302.413V1.625H301.413V2.625ZM298.288 2.625V1.625H297.286L297.288 2.626L298.288 2.625ZM293.6 12H294.6V1.0625H293.6H292.6V12H293.6ZM293.6 1.0625V2.0625H302.975V1.0625V0.0625H293.6V1.0625ZM302.975 1.0625H301.975V2.625H302.975H303.975V1.0625H302.975ZM302.975 2.625V3.625H304.538V2.625V1.625H302.975V2.625ZM304.538 2.625H303.538V10.4375H304.538H305.538V2.625H304.538ZM304.538 10.4375V9.4375H302.975V10.4375V11.4375H304.538V10.4375ZM302.975 10.4375H301.975V12H302.975H303.975V10.4375H302.975ZM302.975 12V11H293.6V12V13H302.975V12ZM298.295 10.4375V11.4375H301.413V10.4375V9.4375H298.295V10.4375ZM301.413 10.4375H302.413V2.625H301.413H300.413V10.4375H301.413ZM301.413 2.625V1.625H298.288V2.625V3.625H301.413V2.625ZM298.288 2.625L297.288 2.626L297.295 10.4385L298.295 10.4375L299.295 10.4365L299.288 2.624L298.288 2.625ZM317.837 12V13H318.837V12H317.837ZM306.9 12H305.9V13H306.9V12ZM306.9 1.0625V0.0625H305.9V1.0625H306.9ZM317.837 1.0625H318.837V0.0625H317.837V1.0625ZM317.837 2.625V3.625H318.837V2.625H317.837ZM311.587 2.625V1.625H310.587V2.625H311.587ZM311.587 5.75H310.587V6.75H311.587V5.75ZM316.275 5.75H317.275V4.75H316.275V5.75ZM316.275 7.3125V8.3125H317.275V7.3125H316.275ZM311.587 7.3125V6.3125H310.587V7.3125H311.587ZM311.587 10.4375H310.587V11.4375H311.587V10.4375ZM317.837 10.4375H318.837V9.4375H317.837V10.4375ZM317.837 12V11H306.9V12V13H317.837V12ZM306.9 12H307.9V1.0625H306.9H305.9V12H306.9ZM306.9 1.0625V2.0625H317.837V1.0625V0.0625H306.9V1.0625ZM317.837 1.0625H316.837V2.625H317.837H318.837V1.0625H317.837ZM317.837 2.625V1.625H311.587V2.625V3.625H317.837V2.625ZM311.587 2.625H310.587V5.75H311.587H312.587V2.625H311.587ZM311.587 5.75V6.75H316.275V5.75V4.75H311.587V5.75ZM316.275 5.75H315.275V7.3125H316.275H317.275V5.75H316.275ZM316.275 7.3125V6.3125H311.587V7.3125V8.3125H316.275V7.3125ZM311.587 7.3125H310.587V10.4375H311.587H312.587V7.3125H311.587ZM311.587 10.4375V11.4375H317.837V10.4375V9.4375H311.587V10.4375ZM317.837 10.4375H316.837V12H317.837H318.837V10.4375H317.837ZM333.5 1.0625V0.0625H332.5V1.0625H333.5ZM338.188 1.0625H339.188V0.0625H338.188V1.0625ZM338.188 8.875H337.188V9.875H338.188V8.875ZM339.75 8.875V9.875H340.75V8.875H339.75ZM339.75 7.3125V6.3125H338.75V7.3125H339.75ZM341.312 7.3125V8.3125H342.312V7.3125H341.312ZM341.312 1.0625V0.0625H340.312V1.0625H341.312ZM344.438 1.0625H345.438V0.0625H344.438V1.0625ZM344.438 7.625V8.625H345.438V7.625H344.438ZM342.875 7.625V6.625H341.875V7.625H342.875ZM342.875 8.875V9.875H343.875V8.875H342.875ZM341.312 8.875V7.875H340.312V8.875H341.312ZM341.312 10.4375V11.4375H342.312V10.4375H341.312ZM339.75 10.4375V9.4375H338.75V10.4375H339.75ZM339.75 12V13H340.75V12H339.75ZM338.188 12H337.188V13H338.188V12ZM338.188 10.4375H339.188V9.4375H338.188V10.4375ZM336.625 10.4375H335.625V11.4375H336.625V10.4375ZM336.625 8.875H337.625V7.875H336.625V8.875ZM335.062 8.875H334.062V9.875H335.062V8.875ZM335.062 7.3125H336.062V6.3125H335.062V7.3125ZM333.5 7.3125H332.5V8.3125H333.5V7.3125ZM333.5 1.0625V2.0625H338.188V1.0625V0.0625H333.5V1.0625ZM338.188 1.0625H337.188V8.875H338.188H339.188V1.0625H338.188ZM338.188 8.875V9.875H339.75V8.875V7.875H338.188V8.875ZM339.75 8.875H340.75V7.3125H339.75H338.75V8.875H339.75ZM339.75 7.3125V8.3125H341.312V7.3125V6.3125H339.75V7.3125ZM341.312 7.3125H342.312V1.0625H341.312H340.312V7.3125H341.312ZM341.312 1.0625V2.0625H344.438V1.0625V0.0625H341.312V1.0625ZM344.438 1.0625H343.438V7.625H344.438H345.438V1.0625H344.438ZM344.438 7.625V6.625H342.875V7.625V8.625H344.438V7.625ZM342.875 7.625H341.875V8.875H342.875H343.875V7.625H342.875ZM342.875 8.875V7.875H341.312V8.875V9.875H342.875V8.875ZM341.312 8.875H340.312V10.4375H341.312H342.312V8.875H341.312ZM341.312 10.4375V9.4375H339.75V10.4375V11.4375H341.312V10.4375ZM339.75 10.4375H338.75V12H339.75H340.75V10.4375H339.75ZM339.75 12V11H338.188V12V13H339.75V12ZM338.188 12H339.188V10.4375H338.188H337.188V12H338.188ZM338.188 10.4375V9.4375H336.625V10.4375V11.4375H338.188V10.4375ZM336.625 10.4375H337.625V8.875H336.625H335.625V10.4375H336.625ZM336.625 8.875V7.875H335.062V8.875V9.875H336.625V8.875ZM335.062 8.875H336.062V7.3125H335.062H334.062V8.875H335.062ZM335.062 7.3125V6.3125H333.5V7.3125V8.3125H335.062V7.3125ZM333.5 7.3125H334.5V1.0625H333.5H332.5V7.3125H333.5ZM356.175 1.0625H357.175V0.0625H356.175V1.0625ZM356.175 2.625V3.625H357.175V2.625H356.175ZM354.612 2.625V1.625H353.612V2.625H354.612ZM354.612 10.4375H353.612V11.4375H354.612V10.4375ZM356.175 10.4375H357.175V9.4375H356.175V10.4375ZM356.175 12V13H357.175V12H356.175ZM348.362 12H347.362V13H348.362V12ZM348.362 10.4375V9.4375H347.362V10.4375H348.362ZM349.925 10.4375V11.4375H350.925V10.4375H349.925ZM349.925 2.625H350.925V1.625H349.925V2.625ZM348.362 2.625H347.362V3.625H348.362V2.625ZM348.362 1.0625V0.0625H347.362V1.0625H348.362ZM356.175 1.0625H355.175V2.625H356.175H357.175V1.0625H356.175ZM356.175 2.625V1.625H354.612V2.625V3.625H356.175V2.625ZM354.612 2.625H353.612V10.4375H354.612H355.612V2.625H354.612ZM354.612 10.4375V11.4375H356.175V10.4375V9.4375H354.612V10.4375ZM356.175 10.4375H355.175V12H356.175H357.175V10.4375H356.175ZM356.175 12V11H348.362V12V13H356.175V12ZM348.362 12H349.362V10.4375H348.362H347.362V12H348.362ZM348.362 10.4375V11.4375H349.925V10.4375V9.4375H348.362V10.4375ZM349.925 10.4375H350.925V2.625H349.925H348.925V10.4375H349.925ZM349.925 2.625V1.625H348.362V2.625V3.625H349.925V2.625ZM348.362 2.625H349.362V1.0625H348.362H347.362V2.625H348.362ZM348.362 1.0625V2.0625H356.175V1.0625V0.0625H348.362V1.0625ZM371.038 12V13H372.038V12H371.038ZM360.1 12H359.1V13H360.1V12ZM360.1 1.0625V0.0625H359.1V1.0625H360.1ZM371.038 1.0625H372.038V0.0625H371.038V1.0625ZM371.038 2.625V3.625H372.038V2.625H371.038ZM364.788 2.625V1.625H363.788V2.625H364.788ZM364.788 5.75H363.788V6.75H364.788V5.75ZM369.475 5.75H370.475V4.75H369.475V5.75ZM369.475 7.3125V8.3125H370.475V7.3125H369.475ZM364.788 7.3125V6.3125H363.788V7.3125H364.788ZM364.788 10.4375H363.788V11.4375H364.788V10.4375ZM371.038 10.4375H372.038V9.4375H371.038V10.4375ZM371.038 12V11H360.1V12V13H371.038V12ZM360.1 12H361.1V1.0625H360.1H359.1V12H360.1ZM360.1 1.0625V2.0625H371.038V1.0625V0.0625H360.1V1.0625ZM371.038 1.0625H370.038V2.625H371.038H372.038V1.0625H371.038ZM371.038 2.625V1.625H364.788V2.625V3.625H371.038V2.625ZM364.788 2.625H363.788V5.75H364.788H365.788V2.625H364.788ZM364.788 5.75V6.75H369.475V5.75V4.75H364.788V5.75ZM369.475 5.75H368.475V7.3125H369.475H370.475V5.75H369.475ZM369.475 7.3125V6.3125H364.788V7.3125V8.3125H369.475V7.3125ZM364.788 7.3125H363.788V10.4375H364.788H365.788V7.3125H364.788ZM364.788 10.4375V11.4375H371.038V10.4375V9.4375H364.788V10.4375ZM371.038 10.4375H370.038V12H371.038H372.038V10.4375H371.038ZM384.337 1.0625H385.337V0.0625H384.337V1.0625ZM384.337 2.625V3.625H385.337V2.625H384.337ZM381.212 2.625V1.625H380.212V2.625H381.212ZM381.212 12V13H382.212V12H381.212ZM376.525 12H375.525V13H376.525V12ZM376.525 2.625H377.525V1.625H376.525V2.625ZM373.4 2.625H372.4V3.625H373.4V2.625ZM373.4 1.0625V0.0625H372.4V1.0625H373.4ZM384.337 1.0625H383.337V2.625H384.337H385.337V1.0625H384.337ZM384.337 2.625V1.625H381.212V2.625V3.625H384.337V2.625ZM381.212 2.625H380.212V12H381.212H382.212V2.625H381.212ZM381.212 12V11H376.525V12V13H381.212V12ZM376.525 12H377.525V2.625H376.525H375.525V12H376.525ZM376.525 2.625V1.625H373.4V2.625V3.625H376.525V2.625ZM373.4 2.625H374.4V1.0625H373.4H372.4V2.625H373.4ZM373.4 1.0625V2.0625H384.337V1.0625V0.0625H373.4V1.0625ZM386.7 12H385.7V13H386.7V12ZM386.7 1.0625V0.0625H385.7V1.0625H386.7ZM396.075 1.0625H397.075V0.0625H396.075V1.0625ZM396.075 2.625H395.075V3.625H396.075V2.625ZM397.638 2.625H398.638V1.625H397.638V2.625ZM397.638 12V13H398.638V12H397.638ZM394.513 12H393.513V13H394.513V12ZM394.513 2.625H395.513V1.625H394.513V2.625ZM391.388 2.625V1.625H390.387L390.388 2.62583L391.388 2.625ZM391.395 12V13H392.396L392.395 11.9992L391.395 12ZM386.7 12H387.7V1.0625H386.7H385.7V12H386.7ZM386.7 1.0625V2.0625H396.075V1.0625V0.0625H386.7V1.0625ZM396.075 1.0625H395.075V2.625H396.075H397.075V1.0625H396.075ZM396.075 2.625V3.625H397.638V2.625V1.625H396.075V2.625ZM397.638 2.625H396.638V12H397.638H398.638V2.625H397.638ZM397.638 12V11H394.513V12V13H397.638V12ZM394.513 12H395.513V2.625H394.513H393.513V12H394.513ZM394.513 2.625V1.625H391.388V2.625V3.625H394.513V2.625ZM391.388 2.625L390.388 2.62583L390.395 12.0008L391.395 12L392.395 11.9992L392.388 2.62417L391.388 2.625ZM391.395 12V11H386.7V12V13H391.395V12ZM400 12H399V13H400V12ZM400 2.625V1.625H399V2.625H400ZM401.562 2.625V3.625H402.562V2.625H401.562ZM401.562 1.0625V0.0625H400.562V1.0625H401.562ZM409.375 1.0625H410.375V0.0625H409.375V1.0625ZM409.375 2.625H408.375V3.625H409.375V2.625ZM410.938 2.625H411.938V1.625H410.938V2.625ZM410.938 12V13H411.938V12H410.938ZM407.812 12H406.812V13H407.812V12ZM407.812 7.3125H408.812V6.3125H407.812V7.3125ZM404.688 7.3125V6.3125H403.688V7.3125H404.688ZM404.688 12V13H405.688V12H404.688ZM404.688 2.86719V1.86719H403.688V2.86719H404.688ZM404.688 5.75H403.688V6.75H404.688V5.75ZM407.812 5.75V6.75H408.812V5.75H407.812ZM407.812 2.86719H408.812V1.86719H407.812V2.86719ZM400 12H401V2.625H400H399V12H400ZM400 2.625V3.625H401.562V2.625V1.625H400V2.625ZM401.562 2.625H402.562V1.0625H401.562H400.562V2.625H401.562ZM401.562 1.0625V2.0625H409.375V1.0625V0.0625H401.562V1.0625ZM409.375 1.0625H408.375V2.625H409.375H410.375V1.0625H409.375ZM409.375 2.625V3.625H410.938V2.625V1.625H409.375V2.625ZM410.938 2.625H409.938V12H410.938H411.938V2.625H410.938ZM410.938 12V11H407.812V12V13H410.938V12ZM407.812 12H408.812V7.3125H407.812H406.812V12H407.812ZM407.812 7.3125V6.3125H404.688V7.3125V8.3125H407.812V7.3125ZM404.688 7.3125H403.688V12H404.688H405.688V7.3125H404.688ZM404.688 12V11H400V12V13H404.688V12ZM404.688 2.86719H403.688V5.75H404.688H405.688V2.86719H404.688ZM404.688 5.75V6.75H407.812V5.75V4.75H404.688V5.75ZM407.812 5.75H408.812V2.86719H407.812H406.812V5.75H407.812ZM407.812 2.86719V1.86719H404.688V2.86719V3.86719H407.812V2.86719ZM421.112 2.625V1.625H420.112V2.625H421.112ZM421.112 12V13H422.112V12H421.112ZM417.987 12H416.987V13H417.987V12ZM417.987 2.625H418.987V1.625H417.987V2.625ZM416.425 2.625V1.625H415.425V2.625H416.425ZM416.425 12V13H417.425V12H416.425ZM413.3 12H412.3V13H413.3V12ZM413.3 1.0625V0.0625H412.3V1.0625H413.3ZM422.683 1.0625H423.683V0.0625H422.683V1.0625ZM422.683 2.625H421.683V3.625H422.683V2.625ZM424.237 2.625H425.237V1.625H424.237V2.625ZM424.237 12V13H425.237V12H424.237ZM422.675 12H421.675V13H422.675V12ZM422.675 2.625H423.675V1.625H422.675V2.625ZM421.112 2.625H420.112V12H421.112H422.112V2.625H421.112ZM421.112 12V11H417.987V12V13H421.112V12ZM417.987 12H418.987V2.625H417.987H416.987V12H417.987ZM417.987 2.625V1.625H416.425V2.625V3.625H417.987V2.625ZM416.425 2.625H415.425V12H416.425H417.425V2.625H416.425ZM416.425 12V11H413.3V12V13H416.425V12ZM413.3 12H414.3V1.0625H413.3H412.3V12H413.3ZM413.3 1.0625V2.0625H422.683V1.0625V0.0625H413.3V1.0625ZM422.683 1.0625H421.683V2.625H422.683H423.683V1.0625H422.683ZM422.683 2.625V3.625H424.237V2.625V1.625H422.683V2.625ZM424.237 2.625H423.237V12H424.237H425.237V2.625H424.237ZM424.237 12V11H422.675V12V13H424.237V12ZM422.675 12H423.675V2.625H422.675H421.675V12H422.675ZM422.675 2.625V1.625H421.112V2.625V3.625H422.675V2.625ZM432.85 10.4375H433.85V9.4375H432.85V10.4375ZM432.85 12V13H433.85V12H432.85ZM429.725 12H428.725V13H429.725V12ZM429.725 10.4375V9.4375H428.725V10.4375H429.725ZM429.725 8.875H428.725V9.875H429.725V8.875ZM429.725 7.3125V6.3125H428.725V7.3125H429.725ZM431.288 7.3125V8.3125H432.288V7.3125H431.288ZM431.288 5.75V4.75H430.288V5.75H431.288ZM434.413 5.75V6.75H435.413V5.75H434.413ZM434.413 2.625H435.413V1.625H434.413V2.625ZM429.725 2.625V1.625H428.725V2.625H429.725ZM429.725 4.1875V5.1875H430.725V4.1875H429.725ZM426.6 4.1875H425.6V5.1875H426.6V4.1875ZM426.6 2.625V1.625H425.6V2.625H426.6ZM428.163 2.625V3.625H429.163V2.625H428.163ZM428.163 1.0625V0.0625H427.163V1.0625H428.163ZM435.975 1.0625H436.975V0.0625H435.975V1.0625ZM435.975 2.625H434.975V3.625H435.975V2.625ZM437.538 2.625H438.538V1.625H437.538V2.625ZM437.538 5.75V6.75H438.538V5.75H437.538ZM435.975 5.75V4.75H434.975V5.75H435.975ZM435.975 7.3125V8.3125H436.975V7.3125H435.975ZM432.85 7.3125V6.3125H431.85V7.3125H432.85ZM432.85 8.875V9.875H433.85V8.875H432.85ZM432.85 10.4375H431.85V12H432.85H433.85V10.4375H432.85ZM432.85 12V11H429.725V12V13H432.85V12ZM429.725 12H430.725V10.4375H429.725H428.725V12H429.725ZM429.725 10.4375V11.4375H432.85V10.4375V9.4375H429.725V10.4375ZM429.725 8.875H430.725V7.3125H429.725H428.725V8.875H429.725ZM429.725 7.3125V8.3125H431.288V7.3125V6.3125H429.725V7.3125ZM431.288 7.3125H432.288V5.75H431.288H430.288V7.3125H431.288ZM431.288 5.75V6.75H434.413V5.75V4.75H431.288V5.75ZM434.413 5.75H435.413V2.625H434.413H433.413V5.75H434.413ZM434.413 2.625V1.625H429.725V2.625V3.625H434.413V2.625ZM429.725 2.625H428.725V4.1875H429.725H430.725V2.625H429.725ZM429.725 4.1875V3.1875H426.6V4.1875V5.1875H429.725V4.1875ZM426.6 4.1875H427.6V2.625H426.6H425.6V4.1875H426.6ZM426.6 2.625V3.625H428.163V2.625V1.625H426.6V2.625ZM428.163 2.625H429.163V1.0625H428.163H427.163V2.625H428.163ZM428.163 1.0625V2.0625H435.975V1.0625V0.0625H428.163V1.0625ZM435.975 1.0625H434.975V2.625H435.975H436.975V1.0625H435.975ZM435.975 2.625V3.625H437.538V2.625V1.625H435.975V2.625ZM437.538 2.625H436.538V5.75H437.538H438.538V2.625H437.538ZM437.538 5.75V4.75H435.975V5.75V6.75H437.538V5.75ZM435.975 5.75H434.975V7.3125H435.975H436.975V5.75H435.975ZM435.975 7.3125V6.3125H432.85V7.3125V8.3125H435.975V7.3125ZM432.85 7.3125H431.85V8.875H432.85H433.85V7.3125H432.85ZM432.85 8.875V7.875H429.725V8.875V9.875H432.85V8.875Z" fill="#222256" mask="url(#path-1-outside-1_43_4877)"/>
</g>
<defs>
<filter id="filter0_d_43_4877" x="0" y="0.0625" width="438.537" height="14.9375" filterUnits="userSpaceOnUse" color-interpolation-filters="sRGB">
<feFlood flood-opacity="0" result="BackgroundImageFix"/>
<feColorMatrix in="SourceAlpha" type="matrix" values="0 0 0 0 0 0 0 0 0 0 0 0 0 0 0 0 0 0 127 0" result="hardAlpha"/>
<feOffset dy="2"/>
<feComposite in2="hardAlpha" operator="out"/>
<feColorMatrix type="matrix" values="0 0 0 0 0.388235 0 0 0 0 0.745098 0 0 0 0 0.027451 0 0 0 1 0"/>
<feBlend mode="normal" in2="BackgroundImageFix" result="effect1_dropShadow_43_4877"/>
<feBlend mode="normal" in="SourceGraphic" in2="effect1_dropShadow_43_4877" result="shape"/>
</filter>
</defs>
</svg>
