<svg width="439" height="15" viewBox="0 0 439 15" fill="none" xmlns="http://www.w3.org/2000/svg">
<g filter="url(#filter0_d_43_4892)">
<mask id="path-1-outside-1_43_4892" maskUnits="userSpaceOnUse" x="0" y="0" width="439" height="13" fill="black">
<rect fill="white" width="439" height="13"/>
<path d="M11.9375 1.0625V12H8.8125V7.3125H5.6875V12H1V1.0625H5.6875V5.75H8.8125V1.0625H11.9375ZM23.675 12H15.8625V10.4375H14.3V2.625H15.8625V1.0625H23.675V2.625H25.2375V10.4375H23.675V12ZM22.1125 10.4375V2.625H18.9875V10.4375H22.1125ZM36.975 10.4375V1.0625H38.5375V10.4375H36.9828V12H29.1625V10.4375H27.6V1.0625H30.725V10.4375H32.2875V1.0625H35.4125V10.4375H36.975ZM54.2 12V2.625H55.7625V1.0625H63.575V2.625H65.1375V12H62.0125V7.3125H58.8875V12H54.2ZM58.8875 2.86719V5.75H62.0125V2.86719H58.8875ZM67.5 12V1.0625H76.875V2.625H78.4375V5.75H76.875V7.3125H78.4375V10.4375H76.875V12H67.5ZM72.1953 7.3125V10.4375H75.3125V7.3125H72.1953ZM72.1875 2.625V5.75H75.3125V2.625H72.1875ZM90.175 12H82.3625V10.4375H80.8V2.625H82.3625V1.0625H90.175V2.625H91.7375V10.4375H90.175V12ZM88.6125 10.4375V2.625H85.4875V10.4375H88.6125ZM98.7875 1.0625V10.4375H101.912V1.0625H105.037V10.4375H103.475V12H95.6625V10.4375H94.1V1.0625H98.7875ZM118.338 1.0625V2.625H115.213V12H110.525V2.625H107.4V1.0625H118.338ZM144.938 1.0625V2.625H141.812V12H137.125V2.625H134V1.0625H144.938ZM158.238 1.0625V12H155.113V7.3125H151.988V12H147.3V1.0625H151.988V5.75H155.113V1.0625H158.238ZM171.538 12H160.6V1.0625H171.538V2.625H165.288V5.75H169.975V7.3125H165.288V10.4375H171.538V12ZM191.895 7.3125L191.911 12H187.2V1.0625H196.575V2.625H198.137V5.75H196.575V7.3125H191.895ZM191.887 2.625V5.75H195.012V2.625H191.887ZM200.5 12V1.0625H209.875V2.625H211.438V5.75H209.875V7.3125H211.438V12H206.75V7.3125H203.633V12H200.5ZM205.188 2.625V5.75H208.312V2.625H205.188ZM223.175 1.0625V2.625H221.613V10.4375H223.175V12H215.363V10.4375H216.925V2.625H215.363V1.0625H223.175ZM227.1 12V8.875H228.663V7.3125H230.225V5.75H231.788V4.1875H233.35V2.625H227.1V1.0625H238.038V4.1875H236.475V5.75H234.913V7.3125H233.35V8.875H231.788V10.4375H238.038V12H227.1ZM251.337 12H240.4V1.0625H251.337V2.625H245.087V5.75H249.775V7.3125H245.087V10.4375H251.337V12ZM267 12V1.0625H276.375V2.625H277.938V10.4375H276.375V12H267ZM271.695 10.4375H274.812V2.625H271.688L271.695 10.4375ZM289.675 1.0625V2.625H288.112V10.4375H289.675V12H281.862V10.4375H283.425V2.625H281.862V1.0625H289.675ZM293.6 8.875H296.725V10.4375H301.413V7.3125H295.163V5.75H293.6V2.625H295.163V1.0625H302.975V2.625H304.538V4.1875H301.413V2.625H298.288V5.75H302.975V7.3125H304.538V10.4375H302.975V12H295.163V10.4375H293.6V8.875ZM317.837 1.0625V2.625H314.712V12H310.025V2.625H306.9V1.0625H317.837ZM320.2 12V1.0625H329.575V2.625H331.138V5.75H329.575V7.3125H331.138V12H326.45V7.3125H323.333V12H320.2ZM324.888 2.625V5.75H328.013V2.625H324.888ZM342.875 1.0625V2.625H341.312V10.4375H342.875V12H335.062V10.4375H336.625V2.625H335.062V1.0625H342.875ZM346.8 12V1.0625H356.175V2.625H357.737V5.75H356.175V7.3125H357.737V10.4375H356.175V12H346.8ZM351.495 7.3125V10.4375H354.612V7.3125H351.495ZM351.487 2.625V5.75H354.612V2.625H351.487ZM364.788 1.0625V10.4375H367.913V1.0625H371.038V10.4375H369.475V12H361.663V10.4375H360.1V1.0625H364.788ZM384.337 1.0625V2.625H381.212V12H376.525V2.625H373.4V1.0625H384.337ZM396.075 1.0625V2.625H394.513V10.4375H396.075V12H388.263V10.4375H389.825V2.625H388.263V1.0625H396.075ZM409.375 12H401.562V10.4375H400V2.625H401.562V1.0625H409.375V2.625H410.938V10.4375H409.375V12ZM407.812 10.4375V2.625H404.688V10.4375H407.812ZM413.3 12V1.0625H422.675V2.625H424.237V12H421.112V2.625H417.987L417.995 12H413.3ZM432.85 10.4375V12H429.725V10.4375H432.85ZM429.725 8.875V7.3125H431.288V5.75H434.413V2.625H429.725V4.1875H426.6V2.625H428.163V1.0625H435.975V2.625H437.538V5.75H435.975V7.3125H432.85V8.875H429.725Z"/>
</mask>
<path d="M11.9375 1.0625V12H8.8125V7.3125H5.6875V12H1V1.0625H5.6875V5.75H8.8125V1.0625H11.9375ZM23.675 12H15.8625V10.4375H14.3V2.625H15.8625V1.0625H23.675V2.625H25.2375V10.4375H23.675V12ZM22.1125 10.4375V2.625H18.9875V10.4375H22.1125ZM36.975 10.4375V1.0625H38.5375V10.4375H36.9828V12H29.1625V10.4375H27.6V1.0625H30.725V10.4375H32.2875V1.0625H35.4125V10.4375H36.975ZM54.2 12V2.625H55.7625V1.0625H63.575V2.625H65.1375V12H62.0125V7.3125H58.8875V12H54.2ZM58.8875 2.86719V5.75H62.0125V2.86719H58.8875ZM67.5 12V1.0625H76.875V2.625H78.4375V5.75H76.875V7.3125H78.4375V10.4375H76.875V12H67.5ZM72.1953 7.3125V10.4375H75.3125V7.3125H72.1953ZM72.1875 2.625V5.75H75.3125V2.625H72.1875ZM90.175 12H82.3625V10.4375H80.8V2.625H82.3625V1.0625H90.175V2.625H91.7375V10.4375H90.175V12ZM88.6125 10.4375V2.625H85.4875V10.4375H88.6125ZM98.7875 1.0625V10.4375H101.912V1.0625H105.037V10.4375H103.475V12H95.6625V10.4375H94.1V1.0625H98.7875ZM118.338 1.0625V2.625H115.213V12H110.525V2.625H107.4V1.0625H118.338ZM144.938 1.0625V2.625H141.812V12H137.125V2.625H134V1.0625H144.938ZM158.238 1.0625V12H155.113V7.3125H151.988V12H147.3V1.0625H151.988V5.75H155.113V1.0625H158.238ZM171.538 12H160.6V1.0625H171.538V2.625H165.288V5.75H169.975V7.3125H165.288V10.4375H171.538V12ZM191.895 7.3125L191.911 12H187.2V1.0625H196.575V2.625H198.137V5.75H196.575V7.3125H191.895ZM191.887 2.625V5.75H195.012V2.625H191.887ZM200.5 12V1.0625H209.875V2.625H211.438V5.75H209.875V7.3125H211.438V12H206.75V7.3125H203.633V12H200.5ZM205.188 2.625V5.75H208.312V2.625H205.188ZM223.175 1.0625V2.625H221.613V10.4375H223.175V12H215.363V10.4375H216.925V2.625H215.363V1.0625H223.175ZM227.1 12V8.875H228.663V7.3125H230.225V5.75H231.788V4.1875H233.35V2.625H227.1V1.0625H238.038V4.1875H236.475V5.75H234.913V7.3125H233.35V8.875H231.788V10.4375H238.038V12H227.1ZM251.337 12H240.4V1.0625H251.337V2.625H245.087V5.75H249.775V7.3125H245.087V10.4375H251.337V12ZM267 12V1.0625H276.375V2.625H277.938V10.4375H276.375V12H267ZM271.695 10.4375H274.812V2.625H271.688L271.695 10.4375ZM289.675 1.0625V2.625H288.112V10.4375H289.675V12H281.862V10.4375H283.425V2.625H281.862V1.0625H289.675ZM293.6 8.875H296.725V10.4375H301.413V7.3125H295.163V5.75H293.6V2.625H295.163V1.0625H302.975V2.625H304.538V4.1875H301.413V2.625H298.288V5.75H302.975V7.3125H304.538V10.4375H302.975V12H295.163V10.4375H293.6V8.875ZM317.837 1.0625V2.625H314.712V12H310.025V2.625H306.9V1.0625H317.837ZM320.2 12V1.0625H329.575V2.625H331.138V5.75H329.575V7.3125H331.138V12H326.45V7.3125H323.333V12H320.2ZM324.888 2.625V5.75H328.013V2.625H324.888ZM342.875 1.0625V2.625H341.312V10.4375H342.875V12H335.062V10.4375H336.625V2.625H335.062V1.0625H342.875ZM346.8 12V1.0625H356.175V2.625H357.737V5.75H356.175V7.3125H357.737V10.4375H356.175V12H346.8ZM351.495 7.3125V10.4375H354.612V7.3125H351.495ZM351.487 2.625V5.75H354.612V2.625H351.487ZM364.788 1.0625V10.4375H367.913V1.0625H371.038V10.4375H369.475V12H361.663V10.4375H360.1V1.0625H364.788ZM384.337 1.0625V2.625H381.212V12H376.525V2.625H373.4V1.0625H384.337ZM396.075 1.0625V2.625H394.513V10.4375H396.075V12H388.263V10.4375H389.825V2.625H388.263V1.0625H396.075ZM409.375 12H401.562V10.4375H400V2.625H401.562V1.0625H409.375V2.625H410.938V10.4375H409.375V12ZM407.812 10.4375V2.625H404.688V10.4375H407.812ZM413.3 12V1.0625H422.675V2.625H424.237V12H421.112V2.625H417.987L417.995 12H413.3ZM432.85 10.4375V12H429.725V10.4375H432.85ZM429.725 8.875V7.3125H431.288V5.75H434.413V2.625H429.725V4.1875H426.6V2.625H428.163V1.0625H435.975V2.625H437.538V5.75H435.975V7.3125H432.85V8.875H429.725Z" fill="white"/>
<path d="M11.9375 1.0625H12.9375V0.0625H11.9375V1.0625ZM11.9375 12V13H12.9375V12H11.9375ZM8.8125 12H7.8125V13H8.8125V12ZM8.8125 7.3125H9.8125V6.3125H8.8125V7.3125ZM5.6875 7.3125V6.3125H4.6875V7.3125H5.6875ZM5.6875 12V13H6.6875V12H5.6875ZM1 12H0V13H1V12ZM1 1.0625V0.0625H0V1.0625H1ZM5.6875 1.0625H6.6875V0.0625H5.6875V1.0625ZM5.6875 5.75H4.6875V6.75H5.6875V5.75ZM8.8125 5.75V6.75H9.8125V5.75H8.8125ZM8.8125 1.0625V0.0625H7.8125V1.0625H8.8125ZM11.9375 1.0625H10.9375V12H11.9375H12.9375V1.0625H11.9375ZM11.9375 12V11H8.8125V12V13H11.9375V12ZM8.8125 12H9.8125V7.3125H8.8125H7.8125V12H8.8125ZM8.8125 7.3125V6.3125H5.6875V7.3125V8.3125H8.8125V7.3125ZM5.6875 7.3125H4.6875V12H5.6875H6.6875V7.3125H5.6875ZM5.6875 12V11H1V12V13H5.6875V12ZM1 12H2V1.0625H1H0V12H1ZM1 1.0625V2.0625H5.6875V1.0625V0.0625H1V1.0625ZM5.6875 1.0625H4.6875V5.75H5.6875H6.6875V1.0625H5.6875ZM5.6875 5.75V6.75H8.8125V5.75V4.75H5.6875V5.75ZM8.8125 5.75H9.8125V1.0625H8.8125H7.8125V5.75H8.8125ZM8.8125 1.0625V2.0625H11.9375V1.0625V0.0625H8.8125V1.0625ZM23.675 12V13H24.675V12H23.675ZM15.8625 12H14.8625V13H15.8625V12ZM15.8625 10.4375H16.8625V9.4375H15.8625V10.4375ZM14.3 10.4375H13.3V11.4375H14.3V10.4375ZM14.3 2.625V1.625H13.3V2.625H14.3ZM15.8625 2.625V3.625H16.8625V2.625H15.8625ZM15.8625 1.0625V0.0625H14.8625V1.0625H15.8625ZM23.675 1.0625H24.675V0.0625H23.675V1.0625ZM23.675 2.625H22.675V3.625H23.675V2.625ZM25.2375 2.625H26.2375V1.625H25.2375V2.625ZM25.2375 10.4375V11.4375H26.2375V10.4375H25.2375ZM23.675 10.4375V9.4375H22.675V10.4375H23.675ZM22.1125 10.4375V11.4375H23.1125V10.4375H22.1125ZM22.1125 2.625H23.1125V1.625H22.1125V2.625ZM18.9875 2.625V1.625H17.9875V2.625H18.9875ZM18.9875 10.4375H17.9875V11.4375H18.9875V10.4375ZM23.675 12V11H15.8625V12V13H23.675V12ZM15.8625 12H16.8625V10.4375H15.8625H14.8625V12H15.8625ZM15.8625 10.4375V9.4375H14.3V10.4375V11.4375H15.8625V10.4375ZM14.3 10.4375H15.3V2.625H14.3H13.3V10.4375H14.3ZM14.3 2.625V3.625H15.8625V2.625V1.625H14.3V2.625ZM15.8625 2.625H16.8625V1.0625H15.8625H14.8625V2.625H15.8625ZM15.8625 1.0625V2.0625H23.675V1.0625V0.0625H15.8625V1.0625ZM23.675 1.0625H22.675V2.625H23.675H24.675V1.0625H23.675ZM23.675 2.625V3.625H25.2375V2.625V1.625H23.675V2.625ZM25.2375 2.625H24.2375V10.4375H25.2375H26.2375V2.625H25.2375ZM25.2375 10.4375V9.4375H23.675V10.4375V11.4375H25.2375V10.4375ZM23.675 10.4375H22.675V12H23.675H24.675V10.4375H23.675ZM22.1125 10.4375H23.1125V2.625H22.1125H21.1125V10.4375H22.1125ZM22.1125 2.625V1.625H18.9875V2.625V3.625H22.1125V2.625ZM18.9875 2.625H17.9875V10.4375H18.9875H19.9875V2.625H18.9875ZM18.9875 10.4375V11.4375H22.1125V10.4375V9.4375H18.9875V10.4375ZM36.975 10.4375V11.4375H37.975V10.4375H36.975ZM36.975 1.0625V0.0625H35.975V1.0625H36.975ZM38.5375 1.0625H39.5375V0.0625H38.5375V1.0625ZM38.5375 10.4375V11.4375H39.5375V10.4375H38.5375ZM36.9828 10.4375V9.4375H35.9828V10.4375H36.9828ZM36.9828 12V13H37.9828V12H36.9828ZM29.1625 12H28.1625V13H29.1625V12ZM29.1625 10.4375H30.1625V9.4375H29.1625V10.4375ZM27.6 10.4375H26.6V11.4375H27.6V10.4375ZM27.6 1.0625V0.0625H26.6V1.0625H27.6ZM30.725 1.0625H31.725V0.0625H30.725V1.0625ZM30.725 10.4375H29.725V11.4375H30.725V10.4375ZM32.2875 10.4375V11.4375H33.2875V10.4375H32.2875ZM32.2875 1.0625V0.0625H31.2875V1.0625H32.2875ZM35.4125 1.0625H36.4125V0.0625H35.4125V1.0625ZM35.4125 10.4375H34.4125V11.4375H35.4125V10.4375ZM36.975 10.4375H37.975V1.0625H36.975H35.975V10.4375H36.975ZM36.975 1.0625V2.0625H38.5375V1.0625V0.0625H36.975V1.0625ZM38.5375 1.0625H37.5375V10.4375H38.5375H39.5375V1.0625H38.5375ZM38.5375 10.4375V9.4375H36.9828V10.4375V11.4375H38.5375V10.4375ZM36.9828 10.4375H35.9828V12H36.9828H37.9828V10.4375H36.9828ZM36.9828 12V11H29.1625V12V13H36.9828V12ZM29.1625 12H30.1625V10.4375H29.1625H28.1625V12H29.1625ZM29.1625 10.4375V9.4375H27.6V10.4375V11.4375H29.1625V10.4375ZM27.6 10.4375H28.6V1.0625H27.6H26.6V10.4375H27.6ZM27.6 1.0625V2.0625H30.725V1.0625V0.0625H27.6V1.0625ZM30.725 1.0625H29.725V10.4375H30.725H31.725V1.0625H30.725ZM30.725 10.4375V11.4375H32.2875V10.4375V9.4375H30.725V10.4375ZM32.2875 10.4375H33.2875V1.0625H32.2875H31.2875V10.4375H32.2875ZM32.2875 1.0625V2.0625H35.4125V1.0625V0.0625H32.2875V1.0625ZM35.4125 1.0625H34.4125V10.4375H35.4125H36.4125V1.0625H35.4125ZM35.4125 10.4375V11.4375H36.975V10.4375V9.4375H35.4125V10.4375ZM54.2 12H53.2V13H54.2V12ZM54.2 2.625V1.625H53.2V2.625H54.2ZM55.7625 2.625V3.625H56.7625V2.625H55.7625ZM55.7625 1.0625V0.0625H54.7625V1.0625H55.7625ZM63.575 1.0625H64.575V0.0625H63.575V1.0625ZM63.575 2.625H62.575V3.625H63.575V2.625ZM65.1375 2.625H66.1375V1.625H65.1375V2.625ZM65.1375 12V13H66.1375V12H65.1375ZM62.0125 12H61.0125V13H62.0125V12ZM62.0125 7.3125H63.0125V6.3125H62.0125V7.3125ZM58.8875 7.3125V6.3125H57.8875V7.3125H58.8875ZM58.8875 12V13H59.8875V12H58.8875ZM58.8875 2.86719V1.86719H57.8875V2.86719H58.8875ZM58.8875 5.75H57.8875V6.75H58.8875V5.75ZM62.0125 5.75V6.75H63.0125V5.75H62.0125ZM62.0125 2.86719H63.0125V1.86719H62.0125V2.86719ZM54.2 12H55.2V2.625H54.2H53.2V12H54.2ZM54.2 2.625V3.625H55.7625V2.625V1.625H54.2V2.625ZM55.7625 2.625H56.7625V1.0625H55.7625H54.7625V2.625H55.7625ZM55.7625 1.0625V2.0625H63.575V1.0625V0.0625H55.7625V1.0625ZM63.575 1.0625H62.575V2.625H63.575H64.575V1.0625H63.575ZM63.575 2.625V3.625H65.1375V2.625V1.625H63.575V2.625ZM65.1375 2.625H64.1375V12H65.1375H66.1375V2.625H65.1375ZM65.1375 12V11H62.0125V12V13H65.1375V12ZM62.0125 12H63.0125V7.3125H62.0125H61.0125V12H62.0125ZM62.0125 7.3125V6.3125H58.8875V7.3125V8.3125H62.0125V7.3125ZM58.8875 7.3125H57.8875V12H58.8875H59.8875V7.3125H58.8875ZM58.8875 12V11H54.2V12V13H58.8875V12ZM58.8875 2.86719H57.8875V5.75H58.8875H59.8875V2.86719H58.8875ZM58.8875 5.75V6.75H62.0125V5.75V4.75H58.8875V5.75ZM62.0125 5.75H63.0125V2.86719H62.0125H61.0125V5.75H62.0125ZM62.0125 2.86719V1.86719H58.8875V2.86719V3.86719H62.0125V2.86719ZM67.5 12H66.5V13H67.5V12ZM67.5 1.0625V0.0625H66.5V1.0625H67.5ZM76.875 1.0625H77.875V0.0625H76.875V1.0625ZM76.875 2.625H75.875V3.625H76.875V2.625ZM78.4375 2.625H79.4375V1.625H78.4375V2.625ZM78.4375 5.75V6.75H79.4375V5.75H78.4375ZM76.875 5.75V4.75H75.875V5.75H76.875ZM76.875 7.3125H75.875V8.3125H76.875V7.3125ZM78.4375 7.3125H79.4375V6.3125H78.4375V7.3125ZM78.4375 10.4375V11.4375H79.4375V10.4375H78.4375ZM76.875 10.4375V9.4375H75.875V10.4375H76.875ZM76.875 12V13H77.875V12H76.875ZM72.1953 7.3125V6.3125H71.1953V7.3125H72.1953ZM72.1953 10.4375H71.1953V11.4375H72.1953V10.4375ZM75.3125 10.4375V11.4375H76.3125V10.4375H75.3125ZM75.3125 7.3125H76.3125V6.3125H75.3125V7.3125ZM72.1875 2.625V1.625H71.1875V2.625H72.1875ZM72.1875 5.75H71.1875V6.75H72.1875V5.75ZM75.3125 5.75V6.75H76.3125V5.75H75.3125ZM75.3125 2.625H76.3125V1.625H75.3125V2.625ZM67.5 12H68.5V1.0625H67.5H66.5V12H67.5ZM67.5 1.0625V2.0625H76.875V1.0625V0.0625H67.5V1.0625ZM76.875 1.0625H75.875V2.625H76.875H77.875V1.0625H76.875ZM76.875 2.625V3.625H78.4375V2.625V1.625H76.875V2.625ZM78.4375 2.625H77.4375V5.75H78.4375H79.4375V2.625H78.4375ZM78.4375 5.75V4.75H76.875V5.75V6.75H78.4375V5.75ZM76.875 5.75H75.875V7.3125H76.875H77.875V5.75H76.875ZM76.875 7.3125V8.3125H78.4375V7.3125V6.3125H76.875V7.3125ZM78.4375 7.3125H77.4375V10.4375H78.4375H79.4375V7.3125H78.4375ZM78.4375 10.4375V9.4375H76.875V10.4375V11.4375H78.4375V10.4375ZM76.875 10.4375H75.875V12H76.875H77.875V10.4375H76.875ZM76.875 12V11H67.5V12V13H76.875V12ZM72.1953 7.3125H71.1953V10.4375H72.1953H73.1953V7.3125H72.1953ZM72.1953 10.4375V11.4375H75.3125V10.4375V9.4375H72.1953V10.4375ZM75.3125 10.4375H76.3125V7.3125H75.3125H74.3125V10.4375H75.3125ZM75.3125 7.3125V6.3125H72.1953V7.3125V8.3125H75.3125V7.3125ZM72.1875 2.625H71.1875V5.75H72.1875H73.1875V2.625H72.1875ZM72.1875 5.75V6.75H75.3125V5.75V4.75H72.1875V5.75ZM75.3125 5.75H76.3125V2.625H75.3125H74.3125V5.75H75.3125ZM75.3125 2.625V1.625H72.1875V2.625V3.625H75.3125V2.625ZM90.175 12V13H91.175V12H90.175ZM82.3625 12H81.3625V13H82.3625V12ZM82.3625 10.4375H83.3625V9.4375H82.3625V10.4375ZM80.8 10.4375H79.8V11.4375H80.8V10.4375ZM80.8 2.625V1.625H79.8V2.625H80.8ZM82.3625 2.625V3.625H83.3625V2.625H82.3625ZM82.3625 1.0625V0.0625H81.3625V1.0625H82.3625ZM90.175 1.0625H91.175V0.0625H90.175V1.0625ZM90.175 2.625H89.175V3.625H90.175V2.625ZM91.7375 2.625H92.7375V1.625H91.7375V2.625ZM91.7375 10.4375V11.4375H92.7375V10.4375H91.7375ZM90.175 10.4375V9.4375H89.175V10.4375H90.175ZM88.6125 10.4375V11.4375H89.6125V10.4375H88.6125ZM88.6125 2.625H89.6125V1.625H88.6125V2.625ZM85.4875 2.625V1.625H84.4875V2.625H85.4875ZM85.4875 10.4375H84.4875V11.4375H85.4875V10.4375ZM90.175 12V11H82.3625V12V13H90.175V12ZM82.3625 12H83.3625V10.4375H82.3625H81.3625V12H82.3625ZM82.3625 10.4375V9.4375H80.8V10.4375V11.4375H82.3625V10.4375ZM80.8 10.4375H81.8V2.625H80.8H79.8V10.4375H80.8ZM80.8 2.625V3.625H82.3625V2.625V1.625H80.8V2.625ZM82.3625 2.625H83.3625V1.0625H82.3625H81.3625V2.625H82.3625ZM82.3625 1.0625V2.0625H90.175V1.0625V0.0625H82.3625V1.0625ZM90.175 1.0625H89.175V2.625H90.175H91.175V1.0625H90.175ZM90.175 2.625V3.625H91.7375V2.625V1.625H90.175V2.625ZM91.7375 2.625H90.7375V10.4375H91.7375H92.7375V2.625H91.7375ZM91.7375 10.4375V9.4375H90.175V10.4375V11.4375H91.7375V10.4375ZM90.175 10.4375H89.175V12H90.175H91.175V10.4375H90.175ZM88.6125 10.4375H89.6125V2.625H88.6125H87.6125V10.4375H88.6125ZM88.6125 2.625V1.625H85.4875V2.625V3.625H88.6125V2.625ZM85.4875 2.625H84.4875V10.4375H85.4875H86.4875V2.625H85.4875ZM85.4875 10.4375V11.4375H88.6125V10.4375V9.4375H85.4875V10.4375ZM98.7875 1.0625H99.7875V0.0625H98.7875V1.0625ZM98.7875 10.4375H97.7875V11.4375H98.7875V10.4375ZM101.912 10.4375V11.4375H102.912V10.4375H101.912ZM101.912 1.0625V0.0625H100.912V1.0625H101.912ZM105.037 1.0625H106.037V0.0625H105.037V1.0625ZM105.037 10.4375V11.4375H106.037V10.4375H105.037ZM103.475 10.4375V9.4375H102.475V10.4375H103.475ZM103.475 12V13H104.475V12H103.475ZM95.6625 12H94.6625V13H95.6625V12ZM95.6625 10.4375H96.6625V9.4375H95.6625V10.4375ZM94.1 10.4375H93.1V11.4375H94.1V10.4375ZM94.1 1.0625V0.0625H93.1V1.0625H94.1ZM98.7875 1.0625H97.7875V10.4375H98.7875H99.7875V1.0625H98.7875ZM98.7875 10.4375V11.4375H101.912V10.4375V9.4375H98.7875V10.4375ZM101.912 10.4375H102.912V1.0625H101.912H100.912V10.4375H101.912ZM101.912 1.0625V2.0625H105.037V1.0625V0.0625H101.912V1.0625ZM105.037 1.0625H104.037V10.4375H105.037H106.037V1.0625H105.037ZM105.037 10.4375V9.4375H103.475V10.4375V11.4375H105.037V10.4375ZM103.475 10.4375H102.475V12H103.475H104.475V10.4375H103.475ZM103.475 12V11H95.6625V12V13H103.475V12ZM95.6625 12H96.6625V10.4375H95.6625H94.6625V12H95.6625ZM95.6625 10.4375V9.4375H94.1V10.4375V11.4375H95.6625V10.4375ZM94.1 10.4375H95.1V1.0625H94.1H93.1V10.4375H94.1ZM94.1 1.0625V2.0625H98.7875V1.0625V0.0625H94.1V1.0625ZM118.338 1.0625H119.338V0.0625H118.338V1.0625ZM118.338 2.625V3.625H119.338V2.625H118.338ZM115.213 2.625V1.625H114.213V2.625H115.213ZM115.213 12V13H116.213V12H115.213ZM110.525 12H109.525V13H110.525V12ZM110.525 2.625H111.525V1.625H110.525V2.625ZM107.4 2.625H106.4V3.625H107.4V2.625ZM107.4 1.0625V0.0625H106.4V1.0625H107.4ZM118.338 1.0625H117.338V2.625H118.338H119.338V1.0625H118.338ZM118.338 2.625V1.625H115.213V2.625V3.625H118.338V2.625ZM115.213 2.625H114.213V12H115.213H116.213V2.625H115.213ZM115.213 12V11H110.525V12V13H115.213V12ZM110.525 12H111.525V2.625H110.525H109.525V12H110.525ZM110.525 2.625V1.625H107.4V2.625V3.625H110.525V2.625ZM107.4 2.625H108.4V1.0625H107.4H106.4V2.625H107.4ZM107.4 1.0625V2.0625H118.338V1.0625V0.0625H107.4V1.0625ZM144.938 1.0625H145.938V0.0625H144.938V1.0625ZM144.938 2.625V3.625H145.938V2.625H144.938ZM141.812 2.625V1.625H140.812V2.625H141.812ZM141.812 12V13H142.812V12H141.812ZM137.125 12H136.125V13H137.125V12ZM137.125 2.625H138.125V1.625H137.125V2.625ZM134 2.625H133V3.625H134V2.625ZM134 1.0625V0.0625H133V1.0625H134ZM144.938 1.0625H143.938V2.625H144.938H145.938V1.0625H144.938ZM144.938 2.625V1.625H141.812V2.625V3.625H144.938V2.625ZM141.812 2.625H140.812V12H141.812H142.812V2.625H141.812ZM141.812 12V11H137.125V12V13H141.812V12ZM137.125 12H138.125V2.625H137.125H136.125V12H137.125ZM137.125 2.625V1.625H134V2.625V3.625H137.125V2.625ZM134 2.625H135V1.0625H134H133V2.625H134ZM134 1.0625V2.0625H144.938V1.0625V0.0625H134V1.0625ZM158.238 1.0625H159.238V0.0625H158.238V1.0625ZM158.238 12V13H159.238V12H158.238ZM155.113 12H154.113V13H155.113V12ZM155.113 7.3125H156.113V6.3125H155.113V7.3125ZM151.988 7.3125V6.3125H150.988V7.3125H151.988ZM151.988 12V13H152.988V12H151.988ZM147.3 12H146.3V13H147.3V12ZM147.3 1.0625V0.0625H146.3V1.0625H147.3ZM151.988 1.0625H152.988V0.0625H151.988V1.0625ZM151.988 5.75H150.988V6.75H151.988V5.75ZM155.113 5.75V6.75H156.113V5.75H155.113ZM155.113 1.0625V0.0625H154.113V1.0625H155.113ZM158.238 1.0625H157.238V12H158.238H159.238V1.0625H158.238ZM158.238 12V11H155.113V12V13H158.238V12ZM155.113 12H156.113V7.3125H155.113H154.113V12H155.113ZM155.113 7.3125V6.3125H151.988V7.3125V8.3125H155.113V7.3125ZM151.988 7.3125H150.988V12H151.988H152.988V7.3125H151.988ZM151.988 12V11H147.3V12V13H151.988V12ZM147.3 12H148.3V1.0625H147.3H146.3V12H147.3ZM147.3 1.0625V2.0625H151.988V1.0625V0.0625H147.3V1.0625ZM151.988 1.0625H150.988V5.75H151.988H152.988V1.0625H151.988ZM151.988 5.75V6.75H155.113V5.75V4.75H151.988V5.75ZM155.113 5.75H156.113V1.0625H155.113H154.113V5.75H155.113ZM155.113 1.0625V2.0625H158.238V1.0625V0.0625H155.113V1.0625ZM171.538 12V13H172.538V12H171.538ZM160.6 12H159.6V13H160.6V12ZM160.6 1.0625V0.0625H159.6V1.0625H160.6ZM171.538 1.0625H172.538V0.0625H171.538V1.0625ZM171.538 2.625V3.625H172.538V2.625H171.538ZM165.288 2.625V1.625H164.288V2.625H165.288ZM165.288 5.75H164.288V6.75H165.288V5.75ZM169.975 5.75H170.975V4.75H169.975V5.75ZM169.975 7.3125V8.3125H170.975V7.3125H169.975ZM165.288 7.3125V6.3125H164.288V7.3125H165.288ZM165.288 10.4375H164.288V11.4375H165.288V10.4375ZM171.538 10.4375H172.538V9.4375H171.538V10.4375ZM171.538 12V11H160.6V12V13H171.538V12ZM160.6 12H161.6V1.0625H160.6H159.6V12H160.6ZM160.6 1.0625V2.0625H171.538V1.0625V0.0625H160.6V1.0625ZM171.538 1.0625H170.538V2.625H171.538H172.538V1.0625H171.538ZM171.538 2.625V1.625H165.288V2.625V3.625H171.538V2.625ZM165.288 2.625H164.288V5.75H165.288H166.288V2.625H165.288ZM165.288 5.75V6.75H169.975V5.75V4.75H165.288V5.75ZM169.975 5.75H168.975V7.3125H169.975H170.975V5.75H169.975ZM169.975 7.3125V6.3125H165.288V7.3125V8.3125H169.975V7.3125ZM165.288 7.3125H164.288V10.4375H165.288H166.288V7.3125H165.288ZM165.288 10.4375V11.4375H171.538V10.4375V9.4375H165.288V10.4375ZM171.538 10.4375H170.538V12H171.538H172.538V10.4375H171.538ZM191.895 7.3125V6.3125H190.892L190.895 7.31583L191.895 7.3125ZM191.911 12V13H192.914L192.911 11.9967L191.911 12ZM187.2 12H186.2V13H187.2V12ZM187.2 1.0625V0.0625H186.2V1.0625H187.2ZM196.575 1.0625H197.575V0.0625H196.575V1.0625ZM196.575 2.625H195.575V3.625H196.575V2.625ZM198.137 2.625H199.137V1.625H198.137V2.625ZM198.137 5.75V6.75H199.137V5.75H198.137ZM196.575 5.75V4.75H195.575V5.75H196.575ZM196.575 7.3125V8.3125H197.575V7.3125H196.575ZM191.887 2.625V1.625H190.887V2.625H191.887ZM191.887 5.75H190.887V6.75H191.887V5.75ZM195.012 5.75V6.75H196.012V5.75H195.012ZM195.012 2.625H196.012V1.625H195.012V2.625ZM191.895 7.3125L190.895 7.31583L190.911 12.0033L191.911 12L192.911 11.9967L192.895 7.30917L191.895 7.3125ZM191.911 12V11H187.2V12V13H191.911V12ZM187.2 12H188.2V1.0625H187.2H186.2V12H187.2ZM187.2 1.0625V2.0625H196.575V1.0625V0.0625H187.2V1.0625ZM196.575 1.0625H195.575V2.625H196.575H197.575V1.0625H196.575ZM196.575 2.625V3.625H198.137V2.625V1.625H196.575V2.625ZM198.137 2.625H197.137V5.75H198.137H199.137V2.625H198.137ZM198.137 5.75V4.75H196.575V5.75V6.75H198.137V5.75ZM196.575 5.75H195.575V7.3125H196.575H197.575V5.75H196.575ZM196.575 7.3125V6.3125H191.895V7.3125V8.3125H196.575V7.3125ZM191.887 2.625H190.887V5.75H191.887H192.887V2.625H191.887ZM191.887 5.75V6.75H195.012V5.75V4.75H191.887V5.75ZM195.012 5.75H196.012V2.625H195.012H194.012V5.75H195.012ZM195.012 2.625V1.625H191.887V2.625V3.625H195.012V2.625ZM200.5 12H199.5V13H200.5V12ZM200.5 1.0625V0.0625H199.5V1.0625H200.5ZM209.875 1.0625H210.875V0.0625H209.875V1.0625ZM209.875 2.625H208.875V3.625H209.875V2.625ZM211.438 2.625H212.438V1.625H211.438V2.625ZM211.438 5.75V6.75H212.438V5.75H211.438ZM209.875 5.75V4.75H208.875V5.75H209.875ZM209.875 7.3125H208.875V8.3125H209.875V7.3125ZM211.438 7.3125H212.438V6.3125H211.438V7.3125ZM211.438 12V13H212.438V12H211.438ZM206.75 12H205.75V13H206.75V12ZM206.75 7.3125H207.75V6.3125H206.75V7.3125ZM203.633 7.3125V6.3125H202.633V7.3125H203.633ZM203.633 12V13H204.633V12H203.633ZM205.188 2.625V1.625H204.188V2.625H205.188ZM205.188 5.75H204.188V6.75H205.188V5.75ZM208.312 5.75V6.75H209.312V5.75H208.312ZM208.312 2.625H209.312V1.625H208.312V2.625ZM200.5 12H201.5V1.0625H200.5H199.5V12H200.5ZM200.5 1.0625V2.0625H209.875V1.0625V0.0625H200.5V1.0625ZM209.875 1.0625H208.875V2.625H209.875H210.875V1.0625H209.875ZM209.875 2.625V3.625H211.438V2.625V1.625H209.875V2.625ZM211.438 2.625H210.438V5.75H211.438H212.438V2.625H211.438ZM211.438 5.75V4.75H209.875V5.75V6.75H211.438V5.75ZM209.875 5.75H208.875V7.3125H209.875H210.875V5.75H209.875ZM209.875 7.3125V8.3125H211.438V7.3125V6.3125H209.875V7.3125ZM211.438 7.3125H210.438V12H211.438H212.438V7.3125H211.438ZM211.438 12V11H206.75V12V13H211.438V12ZM206.75 12H207.75V7.3125H206.75H205.75V12H206.75ZM206.75 7.3125V6.3125H203.633V7.3125V8.3125H206.75V7.3125ZM203.633 7.3125H202.633V12H203.633H204.633V7.3125H203.633ZM203.633 12V11H200.5V12V13H203.633V12ZM205.188 2.625H204.188V5.75H205.188H206.188V2.625H205.188ZM205.188 5.75V6.75H208.312V5.75V4.75H205.188V5.75ZM208.312 5.75H209.312V2.625H208.312H207.312V5.75H208.312ZM208.312 2.625V1.625H205.188V2.625V3.625H208.312V2.625ZM223.175 1.0625H224.175V0.0625H223.175V1.0625ZM223.175 2.625V3.625H224.175V2.625H223.175ZM221.613 2.625V1.625H220.613V2.625H221.613ZM221.613 10.4375H220.613V11.4375H221.613V10.4375ZM223.175 10.4375H224.175V9.4375H223.175V10.4375ZM223.175 12V13H224.175V12H223.175ZM215.363 12H214.363V13H215.363V12ZM215.363 10.4375V9.4375H214.363V10.4375H215.363ZM216.925 10.4375V11.4375H217.925V10.4375H216.925ZM216.925 2.625H217.925V1.625H216.925V2.625ZM215.363 2.625H214.363V3.625H215.363V2.625ZM215.363 1.0625V0.0625H214.363V1.0625H215.363ZM223.175 1.0625H222.175V2.625H223.175H224.175V1.0625H223.175ZM223.175 2.625V1.625H221.613V2.625V3.625H223.175V2.625ZM221.613 2.625H220.613V10.4375H221.613H222.613V2.625H221.613ZM221.613 10.4375V11.4375H223.175V10.4375V9.4375H221.613V10.4375ZM223.175 10.4375H222.175V12H223.175H224.175V10.4375H223.175ZM223.175 12V11H215.363V12V13H223.175V12ZM215.363 12H216.363V10.4375H215.363H214.363V12H215.363ZM215.363 10.4375V11.4375H216.925V10.4375V9.4375H215.363V10.4375ZM216.925 10.4375H217.925V2.625H216.925H215.925V10.4375H216.925ZM216.925 2.625V1.625H215.363V2.625V3.625H216.925V2.625ZM215.363 2.625H216.363V1.0625H215.363H214.363V2.625H215.363ZM215.363 1.0625V2.0625H223.175V1.0625V0.0625H215.363V1.0625ZM227.1 12H226.1V13H227.1V12ZM227.1 8.875V7.875H226.1V8.875H227.1ZM228.663 8.875V9.875H229.663V8.875H228.663ZM228.663 7.3125V6.3125H227.663V7.3125H228.663ZM230.225 7.3125V8.3125H231.225V7.3125H230.225ZM230.225 5.75V4.75H229.225V5.75H230.225ZM231.788 5.75V6.75H232.788V5.75H231.788ZM231.788 4.1875V3.1875H230.788V4.1875H231.788ZM233.35 4.1875V5.1875H234.35V4.1875H233.35ZM233.35 2.625H234.35V1.625H233.35V2.625ZM227.1 2.625H226.1V3.625H227.1V2.625ZM227.1 1.0625V0.0625H226.1V1.0625H227.1ZM238.038 1.0625H239.038V0.0625H238.038V1.0625ZM238.038 4.1875V5.1875H239.038V4.1875H238.038ZM236.475 4.1875V3.1875H235.475V4.1875H236.475ZM236.475 5.75V6.75H237.475V5.75H236.475ZM234.913 5.75V4.75H233.913V5.75H234.913ZM234.913 7.3125V8.3125H235.913V7.3125H234.913ZM233.35 7.3125V6.3125H232.35V7.3125H233.35ZM233.35 8.875V9.875H234.35V8.875H233.35ZM231.788 8.875V7.875H230.788V8.875H231.788ZM231.788 10.4375H230.788V11.4375H231.788V10.4375ZM238.038 10.4375H239.038V9.4375H238.038V10.4375ZM238.038 12V13H239.038V12H238.038ZM227.1 12H228.1V8.875H227.1H226.1V12H227.1ZM227.1 8.875V9.875H228.663V8.875V7.875H227.1V8.875ZM228.663 8.875H229.663V7.3125H228.663H227.663V8.875H228.663ZM228.663 7.3125V8.3125H230.225V7.3125V6.3125H228.663V7.3125ZM230.225 7.3125H231.225V5.75H230.225H229.225V7.3125H230.225ZM230.225 5.75V6.75H231.788V5.75V4.75H230.225V5.75ZM231.788 5.75H232.788V4.1875H231.788H230.788V5.75H231.788ZM231.788 4.1875V5.1875H233.35V4.1875V3.1875H231.788V4.1875ZM233.35 4.1875H234.35V2.625H233.35H232.35V4.1875H233.35ZM233.35 2.625V1.625H227.1V2.625V3.625H233.35V2.625ZM227.1 2.625H228.1V1.0625H227.1H226.1V2.625H227.1ZM227.1 1.0625V2.0625H238.038V1.0625V0.0625H227.1V1.0625ZM238.038 1.0625H237.038V4.1875H238.038H239.038V1.0625H238.038ZM238.038 4.1875V3.1875H236.475V4.1875V5.1875H238.038V4.1875ZM236.475 4.1875H235.475V5.75H236.475H237.475V4.1875H236.475ZM236.475 5.75V4.75H234.913V5.75V6.75H236.475V5.75ZM234.913 5.75H233.913V7.3125H234.913H235.913V5.75H234.913ZM234.913 7.3125V6.3125H233.35V7.3125V8.3125H234.913V7.3125ZM233.35 7.3125H232.35V8.875H233.35H234.35V7.3125H233.35ZM233.35 8.875V7.875H231.788V8.875V9.875H233.35V8.875ZM231.788 8.875H230.788V10.4375H231.788H232.788V8.875H231.788ZM231.788 10.4375V11.4375H238.038V10.4375V9.4375H231.788V10.4375ZM238.038 10.4375H237.038V12H238.038H239.038V10.4375H238.038ZM238.038 12V11H227.1V12V13H238.038V12ZM251.337 12V13H252.337V12H251.337ZM240.4 12H239.4V13H240.4V12ZM240.4 1.0625V0.0625H239.4V1.0625H240.4ZM251.337 1.0625H252.337V0.0625H251.337V1.0625ZM251.337 2.625V3.625H252.337V2.625H251.337ZM245.087 2.625V1.625H244.087V2.625H245.087ZM245.087 5.75H244.087V6.75H245.087V5.75ZM249.775 5.75H250.775V4.75H249.775V5.75ZM249.775 7.3125V8.3125H250.775V7.3125H249.775ZM245.087 7.3125V6.3125H244.087V7.3125H245.087ZM245.087 10.4375H244.087V11.4375H245.087V10.4375ZM251.337 10.4375H252.337V9.4375H251.337V10.4375ZM251.337 12V11H240.4V12V13H251.337V12ZM240.4 12H241.4V1.0625H240.4H239.4V12H240.4ZM240.4 1.0625V2.0625H251.337V1.0625V0.0625H240.4V1.0625ZM251.337 1.0625H250.337V2.625H251.337H252.337V1.0625H251.337ZM251.337 2.625V1.625H245.087V2.625V3.625H251.337V2.625ZM245.087 2.625H244.087V5.75H245.087H246.087V2.625H245.087ZM245.087 5.75V6.75H249.775V5.75V4.75H245.087V5.75ZM249.775 5.75H248.775V7.3125H249.775H250.775V5.75H249.775ZM249.775 7.3125V6.3125H245.087V7.3125V8.3125H249.775V7.3125ZM245.087 7.3125H244.087V10.4375H245.087H246.087V7.3125H245.087ZM245.087 10.4375V11.4375H251.337V10.4375V9.4375H245.087V10.4375ZM251.337 10.4375H250.337V12H251.337H252.337V10.4375H251.337ZM267 12H266V13H267V12ZM267 1.0625V0.0625H266V1.0625H267ZM276.375 1.0625H277.375V0.0625H276.375V1.0625ZM276.375 2.625H275.375V3.625H276.375V2.625ZM277.938 2.625H278.938V1.625H277.938V2.625ZM277.938 10.4375V11.4375H278.938V10.4375H277.938ZM276.375 10.4375V9.4375H275.375V10.4375H276.375ZM276.375 12V13H277.375V12H276.375ZM271.695 10.4375L270.695 10.4385L270.696 11.4375H271.695V10.4375ZM274.812 10.4375V11.4375H275.812V10.4375H274.812ZM274.812 2.625H275.812V1.625H274.812V2.625ZM271.688 2.625V1.625H270.686L270.688 2.626L271.688 2.625ZM267 12H268V1.0625H267H266V12H267ZM267 1.0625V2.0625H276.375V1.0625V0.0625H267V1.0625ZM276.375 1.0625H275.375V2.625H276.375H277.375V1.0625H276.375ZM276.375 2.625V3.625H277.938V2.625V1.625H276.375V2.625ZM277.938 2.625H276.938V10.4375H277.938H278.938V2.625H277.938ZM277.938 10.4375V9.4375H276.375V10.4375V11.4375H277.938V10.4375ZM276.375 10.4375H275.375V12H276.375H277.375V10.4375H276.375ZM276.375 12V11H267V12V13H276.375V12ZM271.695 10.4375V11.4375H274.812V10.4375V9.4375H271.695V10.4375ZM274.812 10.4375H275.812V2.625H274.812H273.812V10.4375H274.812ZM274.812 2.625V1.625H271.688V2.625V3.625H274.812V2.625ZM271.688 2.625L270.688 2.626L270.695 10.4385L271.695 10.4375L272.695 10.4365L272.688 2.624L271.688 2.625ZM289.675 1.0625H290.675V0.0625H289.675V1.0625ZM289.675 2.625V3.625H290.675V2.625H289.675ZM288.112 2.625V1.625H287.112V2.625H288.112ZM288.112 10.4375H287.112V11.4375H288.112V10.4375ZM289.675 10.4375H290.675V9.4375H289.675V10.4375ZM289.675 12V13H290.675V12H289.675ZM281.862 12H280.862V13H281.862V12ZM281.862 10.4375V9.4375H280.862V10.4375H281.862ZM283.425 10.4375V11.4375H284.425V10.4375H283.425ZM283.425 2.625H284.425V1.625H283.425V2.625ZM281.862 2.625H280.862V3.625H281.862V2.625ZM281.862 1.0625V0.0625H280.862V1.0625H281.862ZM289.675 1.0625H288.675V2.625H289.675H290.675V1.0625H289.675ZM289.675 2.625V1.625H288.112V2.625V3.625H289.675V2.625ZM288.112 2.625H287.112V10.4375H288.112H289.112V2.625H288.112ZM288.112 10.4375V11.4375H289.675V10.4375V9.4375H288.112V10.4375ZM289.675 10.4375H288.675V12H289.675H290.675V10.4375H289.675ZM289.675 12V11H281.862V12V13H289.675V12ZM281.862 12H282.862V10.4375H281.862H280.862V12H281.862ZM281.862 10.4375V11.4375H283.425V10.4375V9.4375H281.862V10.4375ZM283.425 10.4375H284.425V2.625H283.425H282.425V10.4375H283.425ZM283.425 2.625V1.625H281.862V2.625V3.625H283.425V2.625ZM281.862 2.625H282.862V1.0625H281.862H280.862V2.625H281.862ZM281.862 1.0625V2.0625H289.675V1.0625V0.0625H281.862V1.0625ZM293.6 8.875V7.875H292.6V8.875H293.6ZM296.725 8.875H297.725V7.875H296.725V8.875ZM296.725 10.4375H295.725V11.4375H296.725V10.4375ZM301.413 10.4375V11.4375H302.413V10.4375H301.413ZM301.413 7.3125H302.413V6.3125H301.413V7.3125ZM295.163 7.3125H294.163V8.3125H295.163V7.3125ZM295.163 5.75H296.163V4.75H295.163V5.75ZM293.6 5.75H292.6V6.75H293.6V5.75ZM293.6 2.625V1.625H292.6V2.625H293.6ZM295.163 2.625V3.625H296.163V2.625H295.163ZM295.163 1.0625V0.0625H294.163V1.0625H295.163ZM302.975 1.0625H303.975V0.0625H302.975V1.0625ZM302.975 2.625H301.975V3.625H302.975V2.625ZM304.538 2.625H305.538V1.625H304.538V2.625ZM304.538 4.1875V5.1875H305.538V4.1875H304.538ZM301.413 4.1875H300.413V5.1875H301.413V4.1875ZM301.413 2.625H302.413V1.625H301.413V2.625ZM298.288 2.625V1.625H297.288V2.625H298.288ZM298.288 5.75H297.288V6.75H298.288V5.75ZM302.975 5.75H303.975V4.75H302.975V5.75ZM302.975 7.3125H301.975V8.3125H302.975V7.3125ZM304.538 7.3125H305.538V6.3125H304.538V7.3125ZM304.538 10.4375V11.4375H305.538V10.4375H304.538ZM302.975 10.4375V9.4375H301.975V10.4375H302.975ZM302.975 12V13H303.975V12H302.975ZM295.163 12H294.163V13H295.163V12ZM295.163 10.4375H296.163V9.4375H295.163V10.4375ZM293.6 10.4375H292.6V11.4375H293.6V10.4375ZM293.6 8.875V9.875H296.725V8.875V7.875H293.6V8.875ZM296.725 8.875H295.725V10.4375H296.725H297.725V8.875H296.725ZM296.725 10.4375V11.4375H301.413V10.4375V9.4375H296.725V10.4375ZM301.413 10.4375H302.413V7.3125H301.413H300.413V10.4375H301.413ZM301.413 7.3125V6.3125H295.163V7.3125V8.3125H301.413V7.3125ZM295.163 7.3125H296.163V5.75H295.163H294.163V7.3125H295.163ZM295.163 5.75V4.75H293.6V5.75V6.75H295.163V5.75ZM293.6 5.75H294.6V2.625H293.6H292.6V5.75H293.6ZM293.6 2.625V3.625H295.163V2.625V1.625H293.6V2.625ZM295.163 2.625H296.163V1.0625H295.163H294.163V2.625H295.163ZM295.163 1.0625V2.0625H302.975V1.0625V0.0625H295.163V1.0625ZM302.975 1.0625H301.975V2.625H302.975H303.975V1.0625H302.975ZM302.975 2.625V3.625H304.538V2.625V1.625H302.975V2.625ZM304.538 2.625H303.538V4.1875H304.538H305.538V2.625H304.538ZM304.538 4.1875V3.1875H301.413V4.1875V5.1875H304.538V4.1875ZM301.413 4.1875H302.413V2.625H301.413H300.413V4.1875H301.413ZM301.413 2.625V1.625H298.288V2.625V3.625H301.413V2.625ZM298.288 2.625H297.288V5.75H298.288H299.288V2.625H298.288ZM298.288 5.75V6.75H302.975V5.75V4.75H298.288V5.75ZM302.975 5.75H301.975V7.3125H302.975H303.975V5.75H302.975ZM302.975 7.3125V8.3125H304.538V7.3125V6.3125H302.975V7.3125ZM304.538 7.3125H303.538V10.4375H304.538H305.538V7.3125H304.538ZM304.538 10.4375V9.4375H302.975V10.4375V11.4375H304.538V10.4375ZM302.975 10.4375H301.975V12H302.975H303.975V10.4375H302.975ZM302.975 12V11H295.163V12V13H302.975V12ZM295.163 12H296.163V10.4375H295.163H294.163V12H295.163ZM295.163 10.4375V9.4375H293.6V10.4375V11.4375H295.163V10.4375ZM293.6 10.4375H294.6V8.875H293.6H292.6V10.4375H293.6ZM317.837 1.0625H318.837V0.0625H317.837V1.0625ZM317.837 2.625V3.625H318.837V2.625H317.837ZM314.712 2.625V1.625H313.712V2.625H314.712ZM314.712 12V13H315.712V12H314.712ZM310.025 12H309.025V13H310.025V12ZM310.025 2.625H311.025V1.625H310.025V2.625ZM306.9 2.625H305.9V3.625H306.9V2.625ZM306.9 1.0625V0.0625H305.9V1.0625H306.9ZM317.837 1.0625H316.837V2.625H317.837H318.837V1.0625H317.837ZM317.837 2.625V1.625H314.712V2.625V3.625H317.837V2.625ZM314.712 2.625H313.712V12H314.712H315.712V2.625H314.712ZM314.712 12V11H310.025V12V13H314.712V12ZM310.025 12H311.025V2.625H310.025H309.025V12H310.025ZM310.025 2.625V1.625H306.9V2.625V3.625H310.025V2.625ZM306.9 2.625H307.9V1.0625H306.9H305.9V2.625H306.9ZM306.9 1.0625V2.0625H317.837V1.0625V0.0625H306.9V1.0625ZM320.2 12H319.2V13H320.2V12ZM320.2 1.0625V0.0625H319.2V1.0625H320.2ZM329.575 1.0625H330.575V0.0625H329.575V1.0625ZM329.575 2.625H328.575V3.625H329.575V2.625ZM331.138 2.625H332.138V1.625H331.138V2.625ZM331.138 5.75V6.75H332.138V5.75H331.138ZM329.575 5.75V4.75H328.575V5.75H329.575ZM329.575 7.3125H328.575V8.3125H329.575V7.3125ZM331.138 7.3125H332.138V6.3125H331.138V7.3125ZM331.138 12V13H332.138V12H331.138ZM326.45 12H325.45V13H326.45V12ZM326.45 7.3125H327.45V6.3125H326.45V7.3125ZM323.333 7.3125V6.3125H322.333V7.3125H323.333ZM323.333 12V13H324.333V12H323.333ZM324.888 2.625V1.625H323.888V2.625H324.888ZM324.888 5.75H323.888V6.75H324.888V5.75ZM328.013 5.75V6.75H329.013V5.75H328.013ZM328.013 2.625H329.013V1.625H328.013V2.625ZM320.2 12H321.2V1.0625H320.2H319.2V12H320.2ZM320.2 1.0625V2.0625H329.575V1.0625V0.0625H320.2V1.0625ZM329.575 1.0625H328.575V2.625H329.575H330.575V1.0625H329.575ZM329.575 2.625V3.625H331.138V2.625V1.625H329.575V2.625ZM331.138 2.625H330.138V5.75H331.138H332.138V2.625H331.138ZM331.138 5.75V4.75H329.575V5.75V6.75H331.138V5.75ZM329.575 5.75H328.575V7.3125H329.575H330.575V5.75H329.575ZM329.575 7.3125V8.3125H331.138V7.3125V6.3125H329.575V7.3125ZM331.138 7.3125H330.138V12H331.138H332.138V7.3125H331.138ZM331.138 12V11H326.45V12V13H331.138V12ZM326.45 12H327.45V7.3125H326.45H325.45V12H326.45ZM326.45 7.3125V6.3125H323.333V7.3125V8.3125H326.45V7.3125ZM323.333 7.3125H322.333V12H323.333H324.333V7.3125H323.333ZM323.333 12V11H320.2V12V13H323.333V12ZM324.888 2.625H323.888V5.75H324.888H325.888V2.625H324.888ZM324.888 5.75V6.75H328.013V5.75V4.75H324.888V5.75ZM328.013 5.75H329.013V2.625H328.013H327.013V5.75H328.013ZM328.013 2.625V1.625H324.888V2.625V3.625H328.013V2.625ZM342.875 1.0625H343.875V0.0625H342.875V1.0625ZM342.875 2.625V3.625H343.875V2.625H342.875ZM341.312 2.625V1.625H340.312V2.625H341.312ZM341.312 10.4375H340.312V11.4375H341.312V10.4375ZM342.875 10.4375H343.875V9.4375H342.875V10.4375ZM342.875 12V13H343.875V12H342.875ZM335.062 12H334.062V13H335.062V12ZM335.062 10.4375V9.4375H334.062V10.4375H335.062ZM336.625 10.4375V11.4375H337.625V10.4375H336.625ZM336.625 2.625H337.625V1.625H336.625V2.625ZM335.062 2.625H334.062V3.625H335.062V2.625ZM335.062 1.0625V0.0625H334.062V1.0625H335.062ZM342.875 1.0625H341.875V2.625H342.875H343.875V1.0625H342.875ZM342.875 2.625V1.625H341.312V2.625V3.625H342.875V2.625ZM341.312 2.625H340.312V10.4375H341.312H342.312V2.625H341.312ZM341.312 10.4375V11.4375H342.875V10.4375V9.4375H341.312V10.4375ZM342.875 10.4375H341.875V12H342.875H343.875V10.4375H342.875ZM342.875 12V11H335.062V12V13H342.875V12ZM335.062 12H336.062V10.4375H335.062H334.062V12H335.062ZM335.062 10.4375V11.4375H336.625V10.4375V9.4375H335.062V10.4375ZM336.625 10.4375H337.625V2.625H336.625H335.625V10.4375H336.625ZM336.625 2.625V1.625H335.062V2.625V3.625H336.625V2.625ZM335.062 2.625H336.062V1.0625H335.062H334.062V2.625H335.062ZM335.062 1.0625V2.0625H342.875V1.0625V0.0625H335.062V1.0625ZM346.8 12H345.8V13H346.8V12ZM346.8 1.0625V0.0625H345.8V1.0625H346.8ZM356.175 1.0625H357.175V0.0625H356.175V1.0625ZM356.175 2.625H355.175V3.625H356.175V2.625ZM357.737 2.625H358.737V1.625H357.737V2.625ZM357.737 5.75V6.75H358.737V5.75H357.737ZM356.175 5.75V4.75H355.175V5.75H356.175ZM356.175 7.3125H355.175V8.3125H356.175V7.3125ZM357.737 7.3125H358.737V6.3125H357.737V7.3125ZM357.737 10.4375V11.4375H358.737V10.4375H357.737ZM356.175 10.4375V9.4375H355.175V10.4375H356.175ZM356.175 12V13H357.175V12H356.175ZM351.495 7.3125V6.3125H350.495V7.3125H351.495ZM351.495 10.4375H350.495V11.4375H351.495V10.4375ZM354.612 10.4375V11.4375H355.612V10.4375H354.612ZM354.612 7.3125H355.612V6.3125H354.612V7.3125ZM351.487 2.625V1.625H350.487V2.625H351.487ZM351.487 5.75H350.487V6.75H351.487V5.75ZM354.612 5.75V6.75H355.612V5.75H354.612ZM354.612 2.625H355.612V1.625H354.612V2.625ZM346.8 12H347.8V1.0625H346.8H345.8V12H346.8ZM346.8 1.0625V2.0625H356.175V1.0625V0.0625H346.8V1.0625ZM356.175 1.0625H355.175V2.625H356.175H357.175V1.0625H356.175ZM356.175 2.625V3.625H357.737V2.625V1.625H356.175V2.625ZM357.737 2.625H356.737V5.75H357.737H358.737V2.625H357.737ZM357.737 5.75V4.75H356.175V5.75V6.75H357.737V5.75ZM356.175 5.75H355.175V7.3125H356.175H357.175V5.75H356.175ZM356.175 7.3125V8.3125H357.737V7.3125V6.3125H356.175V7.3125ZM357.737 7.3125H356.737V10.4375H357.737H358.737V7.3125H357.737ZM357.737 10.4375V9.4375H356.175V10.4375V11.4375H357.737V10.4375ZM356.175 10.4375H355.175V12H356.175H357.175V10.4375H356.175ZM356.175 12V11H346.8V12V13H356.175V12ZM351.495 7.3125H350.495V10.4375H351.495H352.495V7.3125H351.495ZM351.495 10.4375V11.4375H354.612V10.4375V9.4375H351.495V10.4375ZM354.612 10.4375H355.612V7.3125H354.612H353.612V10.4375H354.612ZM354.612 7.3125V6.3125H351.495V7.3125V8.3125H354.612V7.3125ZM351.487 2.625H350.487V5.75H351.487H352.487V2.625H351.487ZM351.487 5.75V6.75H354.612V5.75V4.75H351.487V5.75ZM354.612 5.75H355.612V2.625H354.612H353.612V5.75H354.612ZM354.612 2.625V1.625H351.487V2.625V3.625H354.612V2.625ZM364.788 1.0625H365.788V0.0625H364.788V1.0625ZM364.788 10.4375H363.788V11.4375H364.788V10.4375ZM367.913 10.4375V11.4375H368.913V10.4375H367.913ZM367.913 1.0625V0.0625H366.913V1.0625H367.913ZM371.038 1.0625H372.038V0.0625H371.038V1.0625ZM371.038 10.4375V11.4375H372.038V10.4375H371.038ZM369.475 10.4375V9.4375H368.475V10.4375H369.475ZM369.475 12V13H370.475V12H369.475ZM361.663 12H360.663V13H361.663V12ZM361.663 10.4375H362.663V9.4375H361.663V10.4375ZM360.1 10.4375H359.1V11.4375H360.1V10.4375ZM360.1 1.0625V0.0625H359.1V1.0625H360.1ZM364.788 1.0625H363.788V10.4375H364.788H365.788V1.0625H364.788ZM364.788 10.4375V11.4375H367.913V10.4375V9.4375H364.788V10.4375ZM367.913 10.4375H368.913V1.0625H367.913H366.913V10.4375H367.913ZM367.913 1.0625V2.0625H371.038V1.0625V0.0625H367.913V1.0625ZM371.038 1.0625H370.038V10.4375H371.038H372.038V1.0625H371.038ZM371.038 10.4375V9.4375H369.475V10.4375V11.4375H371.038V10.4375ZM369.475 10.4375H368.475V12H369.475H370.475V10.4375H369.475ZM369.475 12V11H361.663V12V13H369.475V12ZM361.663 12H362.663V10.4375H361.663H360.663V12H361.663ZM361.663 10.4375V9.4375H360.1V10.4375V11.4375H361.663V10.4375ZM360.1 10.4375H361.1V1.0625H360.1H359.1V10.4375H360.1ZM360.1 1.0625V2.0625H364.788V1.0625V0.0625H360.1V1.0625ZM384.337 1.0625H385.337V0.0625H384.337V1.0625ZM384.337 2.625V3.625H385.337V2.625H384.337ZM381.212 2.625V1.625H380.212V2.625H381.212ZM381.212 12V13H382.212V12H381.212ZM376.525 12H375.525V13H376.525V12ZM376.525 2.625H377.525V1.625H376.525V2.625ZM373.4 2.625H372.4V3.625H373.4V2.625ZM373.4 1.0625V0.0625H372.4V1.0625H373.4ZM384.337 1.0625H383.337V2.625H384.337H385.337V1.0625H384.337ZM384.337 2.625V1.625H381.212V2.625V3.625H384.337V2.625ZM381.212 2.625H380.212V12H381.212H382.212V2.625H381.212ZM381.212 12V11H376.525V12V13H381.212V12ZM376.525 12H377.525V2.625H376.525H375.525V12H376.525ZM376.525 2.625V1.625H373.4V2.625V3.625H376.525V2.625ZM373.4 2.625H374.4V1.0625H373.4H372.4V2.625H373.4ZM373.4 1.0625V2.0625H384.337V1.0625V0.0625H373.4V1.0625ZM396.075 1.0625H397.075V0.0625H396.075V1.0625ZM396.075 2.625V3.625H397.075V2.625H396.075ZM394.513 2.625V1.625H393.513V2.625H394.513ZM394.513 10.4375H393.513V11.4375H394.513V10.4375ZM396.075 10.4375H397.075V9.4375H396.075V10.4375ZM396.075 12V13H397.075V12H396.075ZM388.263 12H387.263V13H388.263V12ZM388.263 10.4375V9.4375H387.263V10.4375H388.263ZM389.825 10.4375V11.4375H390.825V10.4375H389.825ZM389.825 2.625H390.825V1.625H389.825V2.625ZM388.263 2.625H387.263V3.625H388.263V2.625ZM388.263 1.0625V0.0625H387.263V1.0625H388.263ZM396.075 1.0625H395.075V2.625H396.075H397.075V1.0625H396.075ZM396.075 2.625V1.625H394.513V2.625V3.625H396.075V2.625ZM394.513 2.625H393.513V10.4375H394.513H395.513V2.625H394.513ZM394.513 10.4375V11.4375H396.075V10.4375V9.4375H394.513V10.4375ZM396.075 10.4375H395.075V12H396.075H397.075V10.4375H396.075ZM396.075 12V11H388.263V12V13H396.075V12ZM388.263 12H389.263V10.4375H388.263H387.263V12H388.263ZM388.263 10.4375V11.4375H389.825V10.4375V9.4375H388.263V10.4375ZM389.825 10.4375H390.825V2.625H389.825H388.825V10.4375H389.825ZM389.825 2.625V1.625H388.263V2.625V3.625H389.825V2.625ZM388.263 2.625H389.263V1.0625H388.263H387.263V2.625H388.263ZM388.263 1.0625V2.0625H396.075V1.0625V0.0625H388.263V1.0625ZM409.375 12V13H410.375V12H409.375ZM401.562 12H400.562V13H401.562V12ZM401.562 10.4375H402.562V9.4375H401.562V10.4375ZM400 10.4375H399V11.4375H400V10.4375ZM400 2.625V1.625H399V2.625H400ZM401.562 2.625V3.625H402.562V2.625H401.562ZM401.562 1.0625V0.0625H400.562V1.0625H401.562ZM409.375 1.0625H410.375V0.0625H409.375V1.0625ZM409.375 2.625H408.375V3.625H409.375V2.625ZM410.938 2.625H411.938V1.625H410.938V2.625ZM410.938 10.4375V11.4375H411.938V10.4375H410.938ZM409.375 10.4375V9.4375H408.375V10.4375H409.375ZM407.812 10.4375V11.4375H408.812V10.4375H407.812ZM407.812 2.625H408.812V1.625H407.812V2.625ZM404.688 2.625V1.625H403.688V2.625H404.688ZM404.688 10.4375H403.688V11.4375H404.688V10.4375ZM409.375 12V11H401.562V12V13H409.375V12ZM401.562 12H402.562V10.4375H401.562H400.562V12H401.562ZM401.562 10.4375V9.4375H400V10.4375V11.4375H401.562V10.4375ZM400 10.4375H401V2.625H400H399V10.4375H400ZM400 2.625V3.625H401.562V2.625V1.625H400V2.625ZM401.562 2.625H402.562V1.0625H401.562H400.562V2.625H401.562ZM401.562 1.0625V2.0625H409.375V1.0625V0.0625H401.562V1.0625ZM409.375 1.0625H408.375V2.625H409.375H410.375V1.0625H409.375ZM409.375 2.625V3.625H410.938V2.625V1.625H409.375V2.625ZM410.938 2.625H409.938V10.4375H410.938H411.938V2.625H410.938ZM410.938 10.4375V9.4375H409.375V10.4375V11.4375H410.938V10.4375ZM409.375 10.4375H408.375V12H409.375H410.375V10.4375H409.375ZM407.812 10.4375H408.812V2.625H407.812H406.812V10.4375H407.812ZM407.812 2.625V1.625H404.688V2.625V3.625H407.812V2.625ZM404.688 2.625H403.688V10.4375H404.688H405.688V2.625H404.688ZM404.688 10.4375V11.4375H407.812V10.4375V9.4375H404.688V10.4375ZM413.3 12H412.3V13H413.3V12ZM413.3 1.0625V0.0625H412.3V1.0625H413.3ZM422.675 1.0625H423.675V0.0625H422.675V1.0625ZM422.675 2.625H421.675V3.625H422.675V2.625ZM424.237 2.625H425.237V1.625H424.237V2.625ZM424.237 12V13H425.237V12H424.237ZM421.112 12H420.112V13H421.112V12ZM421.112 2.625H422.112V1.625H421.112V2.625ZM417.987 2.625V1.625H416.987L416.987 2.62583L417.987 2.625ZM417.995 12V13H418.996L418.995 11.9992L417.995 12ZM413.3 12H414.3V1.0625H413.3H412.3V12H413.3ZM413.3 1.0625V2.0625H422.675V1.0625V0.0625H413.3V1.0625ZM422.675 1.0625H421.675V2.625H422.675H423.675V1.0625H422.675ZM422.675 2.625V3.625H424.237V2.625V1.625H422.675V2.625ZM424.237 2.625H423.237V12H424.237H425.237V2.625H424.237ZM424.237 12V11H421.112V12V13H424.237V12ZM421.112 12H422.112V2.625H421.112H420.112V12H421.112ZM421.112 2.625V1.625H417.987V2.625V3.625H421.112V2.625ZM417.987 2.625L416.987 2.62583L416.995 12.0008L417.995 12L418.995 11.9992L418.987 2.62417L417.987 2.625ZM417.995 12V11H413.3V12V13H417.995V12ZM432.85 10.4375H433.85V9.4375H432.85V10.4375ZM432.85 12V13H433.85V12H432.85ZM429.725 12H428.725V13H429.725V12ZM429.725 10.4375V9.4375H428.725V10.4375H429.725ZM429.725 8.875H428.725V9.875H429.725V8.875ZM429.725 7.3125V6.3125H428.725V7.3125H429.725ZM431.288 7.3125V8.3125H432.288V7.3125H431.288ZM431.288 5.75V4.75H430.288V5.75H431.288ZM434.413 5.75V6.75H435.413V5.75H434.413ZM434.413 2.625H435.413V1.625H434.413V2.625ZM429.725 2.625V1.625H428.725V2.625H429.725ZM429.725 4.1875V5.1875H430.725V4.1875H429.725ZM426.6 4.1875H425.6V5.1875H426.6V4.1875ZM426.6 2.625V1.625H425.6V2.625H426.6ZM428.163 2.625V3.625H429.163V2.625H428.163ZM428.163 1.0625V0.0625H427.163V1.0625H428.163ZM435.975 1.0625H436.975V0.0625H435.975V1.0625ZM435.975 2.625H434.975V3.625H435.975V2.625ZM437.538 2.625H438.538V1.625H437.538V2.625ZM437.538 5.75V6.75H438.538V5.75H437.538ZM435.975 5.75V4.75H434.975V5.75H435.975ZM435.975 7.3125V8.3125H436.975V7.3125H435.975ZM432.85 7.3125V6.3125H431.85V7.3125H432.85ZM432.85 8.875V9.875H433.85V8.875H432.85ZM432.85 10.4375H431.85V12H432.85H433.85V10.4375H432.85ZM432.85 12V11H429.725V12V13H432.85V12ZM429.725 12H430.725V10.4375H429.725H428.725V12H429.725ZM429.725 10.4375V11.4375H432.85V10.4375V9.4375H429.725V10.4375ZM429.725 8.875H430.725V7.3125H429.725H428.725V8.875H429.725ZM429.725 7.3125V8.3125H431.288V7.3125V6.3125H429.725V7.3125ZM431.288 7.3125H432.288V5.75H431.288H430.288V7.3125H431.288ZM431.288 5.75V6.75H434.413V5.75V4.75H431.288V5.75ZM434.413 5.75H435.413V2.625H434.413H433.413V5.75H434.413ZM434.413 2.625V1.625H429.725V2.625V3.625H434.413V2.625ZM429.725 2.625H428.725V4.1875H429.725H430.725V2.625H429.725ZM429.725 4.1875V3.1875H426.6V4.1875V5.1875H429.725V4.1875ZM426.6 4.1875H427.6V2.625H426.6H425.6V4.1875H426.6ZM426.6 2.625V3.625H428.163V2.625V1.625H426.6V2.625ZM428.163 2.625H429.163V1.0625H428.163H427.163V2.625H428.163ZM428.163 1.0625V2.0625H435.975V1.0625V0.0625H428.163V1.0625ZM435.975 1.0625H434.975V2.625H435.975H436.975V1.0625H435.975ZM435.975 2.625V3.625H437.538V2.625V1.625H435.975V2.625ZM437.538 2.625H436.538V5.75H437.538H438.538V2.625H437.538ZM437.538 5.75V4.75H435.975V5.75V6.75H437.538V5.75ZM435.975 5.75H434.975V7.3125H435.975H436.975V5.75H435.975ZM435.975 7.3125V6.3125H432.85V7.3125V8.3125H435.975V7.3125ZM432.85 7.3125H431.85V8.875H432.85H433.85V7.3125H432.85ZM432.85 8.875V7.875H429.725V8.875V9.875H432.85V8.875Z" fill="#222256" mask="url(#path-1-outside-1_43_4892)"/>
</g>
<defs>
<filter id="filter0_d_43_4892" x="0" y="0.0625" width="438.537" height="14.9375" filterUnits="userSpaceOnUse" color-interpolation-filters="sRGB">
<feFlood flood-opacity="0" result="BackgroundImageFix"/>
<feColorMatrix in="SourceAlpha" type="matrix" values="0 0 0 0 0 0 0 0 0 0 0 0 0 0 0 0 0 0 127 0" result="hardAlpha"/>
<feOffset dy="2"/>
<feComposite in2="hardAlpha" operator="out"/>
<feColorMatrix type="matrix" values="0 0 0 0 0.388235 0 0 0 0 0.745098 0 0 0 0 0.027451 0 0 0 1 0"/>
<feBlend mode="normal" in2="BackgroundImageFix" result="effect1_dropShadow_43_4892"/>
<feBlend mode="normal" in="SourceGraphic" in2="effect1_dropShadow_43_4892" result="shape"/>
</filter>
</defs>
</svg>
