<svg width="279" height="15" viewBox="0 0 279 15" fill="none" xmlns="http://www.w3.org/2000/svg">
<g filter="url(#filter0_d_43_4900)">
<mask id="path-1-outside-1_43_4900" maskUnits="userSpaceOnUse" x="0" y="0" width="279" height="13" fill="black">
<rect fill="white" width="279" height="13"/>
<path d="M5.6875 2.625V10.4375H11.9375V12H2.5625V10.4375H1V2.625H2.5625V1.0625H11.9375V2.625H5.6875ZM23.675 12H15.8625V10.4375H14.3V2.625H15.8625V1.0625H23.675V2.625H25.2375V10.4375H23.675V12ZM22.1125 10.4375V2.625H18.9875V10.4375H22.1125ZM27.6 12V1.0625H36.975V2.625H38.5375V10.4375H36.975V12H27.6ZM32.2953 10.4375H35.4125V2.625H32.2875L32.2953 10.4375ZM51.8375 12H40.9V1.0625H51.8375V2.625H45.5875V5.75H50.275V7.3125H45.5875V10.4375H51.8375V12ZM67.5 12V2.625H69.0625V1.0625H76.875V2.625H78.4375V12H75.3125V7.3125H72.1875V12H67.5ZM72.1875 2.86719V5.75H75.3125V2.86719H72.1875ZM80.8 12V1.0625H90.175V2.625H91.7375V12H88.6125V2.625H85.4875L85.4953 12H80.8ZM94.1 12V1.0625H103.475V2.625H105.037V10.4375H103.475V12H94.1ZM98.7953 10.4375H101.912V2.625H98.7875L98.7953 10.4375ZM120.7 12V2.625H122.262V1.0625H130.075V2.625H131.637V12H128.512V7.3125H125.387V12H120.7ZM125.387 2.86719V5.75H128.512V2.86719H125.387ZM134 8.875H137.125V10.4375H141.812V7.3125H135.562V5.75H134V2.625H135.562V1.0625H143.375V2.625H144.938V4.1875H141.812V2.625H138.688V5.75H143.375V7.3125H144.938V10.4375H143.375V12H135.562V10.4375H134V8.875ZM147.3 8.875H150.425V10.4375H155.113V7.3125H148.863V5.75H147.3V2.625H148.863V1.0625H156.675V2.625H158.238V4.1875H155.113V2.625H151.988V5.75H156.675V7.3125H158.238V10.4375H156.675V12H148.863V10.4375H147.3V8.875ZM171.538 12H160.6V1.0625H171.538V2.625H165.288V5.75H169.975V7.3125H165.288V10.4375H171.538V12ZM184.837 1.0625V2.625H181.712V12H177.025V2.625H173.9V1.0625H184.837ZM187.2 8.875H190.325V10.4375H195.012V7.3125H188.762V5.75H187.2V2.625H188.762V1.0625H196.575V2.625H198.137V4.1875H195.012V2.625H191.887V5.75H196.575V7.3125H198.137V10.4375H196.575V12H188.762V10.4375H187.2V8.875ZM213.8 12V1.0625H223.175V2.625H224.738V5.75H223.175V7.3125H224.738V12H220.05V7.3125H216.933V12H213.8ZM218.488 2.625V5.75H221.613V2.625H218.488ZM238.038 12H227.1V1.0625H238.038V2.625H231.788V5.75H236.475V7.3125H231.788V10.4375H238.038V12ZM245.087 1.0625V10.4375H248.212V1.0625H251.337V10.4375H249.775V12H241.962V10.4375H240.4V1.0625H245.087ZM253.7 8.875H256.825V10.4375H261.512V7.3125H255.262V5.75H253.7V2.625H255.262V1.0625H263.075V2.625H264.637V4.1875H261.512V2.625H258.387V5.75H263.075V7.3125H264.637V10.4375H263.075V12H255.262V10.4375H253.7V8.875ZM277.938 12H267V1.0625H277.938V2.625H271.688V5.75H276.375V7.3125H271.688V10.4375H277.938V12Z"/>
</mask>
<path d="M5.6875 2.625V10.4375H11.9375V12H2.5625V10.4375H1V2.625H2.5625V1.0625H11.9375V2.625H5.6875ZM23.675 12H15.8625V10.4375H14.3V2.625H15.8625V1.0625H23.675V2.625H25.2375V10.4375H23.675V12ZM22.1125 10.4375V2.625H18.9875V10.4375H22.1125ZM27.6 12V1.0625H36.975V2.625H38.5375V10.4375H36.975V12H27.6ZM32.2953 10.4375H35.4125V2.625H32.2875L32.2953 10.4375ZM51.8375 12H40.9V1.0625H51.8375V2.625H45.5875V5.75H50.275V7.3125H45.5875V10.4375H51.8375V12ZM67.5 12V2.625H69.0625V1.0625H76.875V2.625H78.4375V12H75.3125V7.3125H72.1875V12H67.5ZM72.1875 2.86719V5.75H75.3125V2.86719H72.1875ZM80.8 12V1.0625H90.175V2.625H91.7375V12H88.6125V2.625H85.4875L85.4953 12H80.8ZM94.1 12V1.0625H103.475V2.625H105.037V10.4375H103.475V12H94.1ZM98.7953 10.4375H101.912V2.625H98.7875L98.7953 10.4375ZM120.7 12V2.625H122.262V1.0625H130.075V2.625H131.637V12H128.512V7.3125H125.387V12H120.7ZM125.387 2.86719V5.75H128.512V2.86719H125.387ZM134 8.875H137.125V10.4375H141.812V7.3125H135.562V5.75H134V2.625H135.562V1.0625H143.375V2.625H144.938V4.1875H141.812V2.625H138.688V5.75H143.375V7.3125H144.938V10.4375H143.375V12H135.562V10.4375H134V8.875ZM147.3 8.875H150.425V10.4375H155.113V7.3125H148.863V5.75H147.3V2.625H148.863V1.0625H156.675V2.625H158.238V4.1875H155.113V2.625H151.988V5.75H156.675V7.3125H158.238V10.4375H156.675V12H148.863V10.4375H147.3V8.875ZM171.538 12H160.6V1.0625H171.538V2.625H165.288V5.75H169.975V7.3125H165.288V10.4375H171.538V12ZM184.837 1.0625V2.625H181.712V12H177.025V2.625H173.9V1.0625H184.837ZM187.2 8.875H190.325V10.4375H195.012V7.3125H188.762V5.75H187.2V2.625H188.762V1.0625H196.575V2.625H198.137V4.1875H195.012V2.625H191.887V5.75H196.575V7.3125H198.137V10.4375H196.575V12H188.762V10.4375H187.2V8.875ZM213.8 12V1.0625H223.175V2.625H224.738V5.75H223.175V7.3125H224.738V12H220.05V7.3125H216.933V12H213.8ZM218.488 2.625V5.75H221.613V2.625H218.488ZM238.038 12H227.1V1.0625H238.038V2.625H231.788V5.75H236.475V7.3125H231.788V10.4375H238.038V12ZM245.087 1.0625V10.4375H248.212V1.0625H251.337V10.4375H249.775V12H241.962V10.4375H240.4V1.0625H245.087ZM253.7 8.875H256.825V10.4375H261.512V7.3125H255.262V5.75H253.7V2.625H255.262V1.0625H263.075V2.625H264.637V4.1875H261.512V2.625H258.387V5.75H263.075V7.3125H264.637V10.4375H263.075V12H255.262V10.4375H253.7V8.875ZM277.938 12H267V1.0625H277.938V2.625H271.688V5.75H276.375V7.3125H271.688V10.4375H277.938V12Z" fill="white"/>
<path d="M5.6875 2.625V1.625H4.6875V2.625H5.6875ZM5.6875 10.4375H4.6875V11.4375H5.6875V10.4375ZM11.9375 10.4375H12.9375V9.4375H11.9375V10.4375ZM11.9375 12V13H12.9375V12H11.9375ZM2.5625 12H1.5625V13H2.5625V12ZM2.5625 10.4375H3.5625V9.4375H2.5625V10.4375ZM1 10.4375H0V11.4375H1V10.4375ZM1 2.625V1.625H0V2.625H1ZM2.5625 2.625V3.625H3.5625V2.625H2.5625ZM2.5625 1.0625V0.0625H1.5625V1.0625H2.5625ZM11.9375 1.0625H12.9375V0.0625H11.9375V1.0625ZM11.9375 2.625V3.625H12.9375V2.625H11.9375ZM5.6875 2.625H4.6875V10.4375H5.6875H6.6875V2.625H5.6875ZM5.6875 10.4375V11.4375H11.9375V10.4375V9.4375H5.6875V10.4375ZM11.9375 10.4375H10.9375V12H11.9375H12.9375V10.4375H11.9375ZM11.9375 12V11H2.5625V12V13H11.9375V12ZM2.5625 12H3.5625V10.4375H2.5625H1.5625V12H2.5625ZM2.5625 10.4375V9.4375H1V10.4375V11.4375H2.5625V10.4375ZM1 10.4375H2V2.625H1H0V10.4375H1ZM1 2.625V3.625H2.5625V2.625V1.625H1V2.625ZM2.5625 2.625H3.5625V1.0625H2.5625H1.5625V2.625H2.5625ZM2.5625 1.0625V2.0625H11.9375V1.0625V0.0625H2.5625V1.0625ZM11.9375 1.0625H10.9375V2.625H11.9375H12.9375V1.0625H11.9375ZM11.9375 2.625V1.625H5.6875V2.625V3.625H11.9375V2.625ZM23.675 12V13H24.675V12H23.675ZM15.8625 12H14.8625V13H15.8625V12ZM15.8625 10.4375H16.8625V9.4375H15.8625V10.4375ZM14.3 10.4375H13.3V11.4375H14.3V10.4375ZM14.3 2.625V1.625H13.3V2.625H14.3ZM15.8625 2.625V3.625H16.8625V2.625H15.8625ZM15.8625 1.0625V0.0625H14.8625V1.0625H15.8625ZM23.675 1.0625H24.675V0.0625H23.675V1.0625ZM23.675 2.625H22.675V3.625H23.675V2.625ZM25.2375 2.625H26.2375V1.625H25.2375V2.625ZM25.2375 10.4375V11.4375H26.2375V10.4375H25.2375ZM23.675 10.4375V9.4375H22.675V10.4375H23.675ZM22.1125 10.4375V11.4375H23.1125V10.4375H22.1125ZM22.1125 2.625H23.1125V1.625H22.1125V2.625ZM18.9875 2.625V1.625H17.9875V2.625H18.9875ZM18.9875 10.4375H17.9875V11.4375H18.9875V10.4375ZM23.675 12V11H15.8625V12V13H23.675V12ZM15.8625 12H16.8625V10.4375H15.8625H14.8625V12H15.8625ZM15.8625 10.4375V9.4375H14.3V10.4375V11.4375H15.8625V10.4375ZM14.3 10.4375H15.3V2.625H14.3H13.3V10.4375H14.3ZM14.3 2.625V3.625H15.8625V2.625V1.625H14.3V2.625ZM15.8625 2.625H16.8625V1.0625H15.8625H14.8625V2.625H15.8625ZM15.8625 1.0625V2.0625H23.675V1.0625V0.0625H15.8625V1.0625ZM23.675 1.0625H22.675V2.625H23.675H24.675V1.0625H23.675ZM23.675 2.625V3.625H25.2375V2.625V1.625H23.675V2.625ZM25.2375 2.625H24.2375V10.4375H25.2375H26.2375V2.625H25.2375ZM25.2375 10.4375V9.4375H23.675V10.4375V11.4375H25.2375V10.4375ZM23.675 10.4375H22.675V12H23.675H24.675V10.4375H23.675ZM22.1125 10.4375H23.1125V2.625H22.1125H21.1125V10.4375H22.1125ZM22.1125 2.625V1.625H18.9875V2.625V3.625H22.1125V2.625ZM18.9875 2.625H17.9875V10.4375H18.9875H19.9875V2.625H18.9875ZM18.9875 10.4375V11.4375H22.1125V10.4375V9.4375H18.9875V10.4375ZM27.6 12H26.6V13H27.6V12ZM27.6 1.0625V0.0625H26.6V1.0625H27.6ZM36.975 1.0625H37.975V0.0625H36.975V1.0625ZM36.975 2.625H35.975V3.625H36.975V2.625ZM38.5375 2.625H39.5375V1.625H38.5375V2.625ZM38.5375 10.4375V11.4375H39.5375V10.4375H38.5375ZM36.975 10.4375V9.4375H35.975V10.4375H36.975ZM36.975 12V13H37.975V12H36.975ZM32.2953 10.4375L31.2953 10.4385L31.2963 11.4375H32.2953V10.4375ZM35.4125 10.4375V11.4375H36.4125V10.4375H35.4125ZM35.4125 2.625H36.4125V1.625H35.4125V2.625ZM32.2875 2.625V1.625H31.2865L31.2875 2.626L32.2875 2.625ZM27.6 12H28.6V1.0625H27.6H26.6V12H27.6ZM27.6 1.0625V2.0625H36.975V1.0625V0.0625H27.6V1.0625ZM36.975 1.0625H35.975V2.625H36.975H37.975V1.0625H36.975ZM36.975 2.625V3.625H38.5375V2.625V1.625H36.975V2.625ZM38.5375 2.625H37.5375V10.4375H38.5375H39.5375V2.625H38.5375ZM38.5375 10.4375V9.4375H36.975V10.4375V11.4375H38.5375V10.4375ZM36.975 10.4375H35.975V12H36.975H37.975V10.4375H36.975ZM36.975 12V11H27.6V12V13H36.975V12ZM32.2953 10.4375V11.4375H35.4125V10.4375V9.4375H32.2953V10.4375ZM35.4125 10.4375H36.4125V2.625H35.4125H34.4125V10.4375H35.4125ZM35.4125 2.625V1.625H32.2875V2.625V3.625H35.4125V2.625ZM32.2875 2.625L31.2875 2.626L31.2953 10.4385L32.2953 10.4375L33.2953 10.4365L33.2875 2.624L32.2875 2.625ZM51.8375 12V13H52.8375V12H51.8375ZM40.9 12H39.9V13H40.9V12ZM40.9 1.0625V0.0625H39.9V1.0625H40.9ZM51.8375 1.0625H52.8375V0.0625H51.8375V1.0625ZM51.8375 2.625V3.625H52.8375V2.625H51.8375ZM45.5875 2.625V1.625H44.5875V2.625H45.5875ZM45.5875 5.75H44.5875V6.75H45.5875V5.75ZM50.275 5.75H51.275V4.75H50.275V5.75ZM50.275 7.3125V8.3125H51.275V7.3125H50.275ZM45.5875 7.3125V6.3125H44.5875V7.3125H45.5875ZM45.5875 10.4375H44.5875V11.4375H45.5875V10.4375ZM51.8375 10.4375H52.8375V9.4375H51.8375V10.4375ZM51.8375 12V11H40.9V12V13H51.8375V12ZM40.9 12H41.9V1.0625H40.9H39.9V12H40.9ZM40.9 1.0625V2.0625H51.8375V1.0625V0.0625H40.9V1.0625ZM51.8375 1.0625H50.8375V2.625H51.8375H52.8375V1.0625H51.8375ZM51.8375 2.625V1.625H45.5875V2.625V3.625H51.8375V2.625ZM45.5875 2.625H44.5875V5.75H45.5875H46.5875V2.625H45.5875ZM45.5875 5.75V6.75H50.275V5.75V4.75H45.5875V5.75ZM50.275 5.75H49.275V7.3125H50.275H51.275V5.75H50.275ZM50.275 7.3125V6.3125H45.5875V7.3125V8.3125H50.275V7.3125ZM45.5875 7.3125H44.5875V10.4375H45.5875H46.5875V7.3125H45.5875ZM45.5875 10.4375V11.4375H51.8375V10.4375V9.4375H45.5875V10.4375ZM51.8375 10.4375H50.8375V12H51.8375H52.8375V10.4375H51.8375ZM67.5 12H66.5V13H67.5V12ZM67.5 2.625V1.625H66.5V2.625H67.5ZM69.0625 2.625V3.625H70.0625V2.625H69.0625ZM69.0625 1.0625V0.0625H68.0625V1.0625H69.0625ZM76.875 1.0625H77.875V0.0625H76.875V1.0625ZM76.875 2.625H75.875V3.625H76.875V2.625ZM78.4375 2.625H79.4375V1.625H78.4375V2.625ZM78.4375 12V13H79.4375V12H78.4375ZM75.3125 12H74.3125V13H75.3125V12ZM75.3125 7.3125H76.3125V6.3125H75.3125V7.3125ZM72.1875 7.3125V6.3125H71.1875V7.3125H72.1875ZM72.1875 12V13H73.1875V12H72.1875ZM72.1875 2.86719V1.86719H71.1875V2.86719H72.1875ZM72.1875 5.75H71.1875V6.75H72.1875V5.75ZM75.3125 5.75V6.75H76.3125V5.75H75.3125ZM75.3125 2.86719H76.3125V1.86719H75.3125V2.86719ZM67.5 12H68.5V2.625H67.5H66.5V12H67.5ZM67.5 2.625V3.625H69.0625V2.625V1.625H67.5V2.625ZM69.0625 2.625H70.0625V1.0625H69.0625H68.0625V2.625H69.0625ZM69.0625 1.0625V2.0625H76.875V1.0625V0.0625H69.0625V1.0625ZM76.875 1.0625H75.875V2.625H76.875H77.875V1.0625H76.875ZM76.875 2.625V3.625H78.4375V2.625V1.625H76.875V2.625ZM78.4375 2.625H77.4375V12H78.4375H79.4375V2.625H78.4375ZM78.4375 12V11H75.3125V12V13H78.4375V12ZM75.3125 12H76.3125V7.3125H75.3125H74.3125V12H75.3125ZM75.3125 7.3125V6.3125H72.1875V7.3125V8.3125H75.3125V7.3125ZM72.1875 7.3125H71.1875V12H72.1875H73.1875V7.3125H72.1875ZM72.1875 12V11H67.5V12V13H72.1875V12ZM72.1875 2.86719H71.1875V5.75H72.1875H73.1875V2.86719H72.1875ZM72.1875 5.75V6.75H75.3125V5.75V4.75H72.1875V5.75ZM75.3125 5.75H76.3125V2.86719H75.3125H74.3125V5.75H75.3125ZM75.3125 2.86719V1.86719H72.1875V2.86719V3.86719H75.3125V2.86719ZM80.8 12H79.8V13H80.8V12ZM80.8 1.0625V0.0625H79.8V1.0625H80.8ZM90.175 1.0625H91.175V0.0625H90.175V1.0625ZM90.175 2.625H89.175V3.625H90.175V2.625ZM91.7375 2.625H92.7375V1.625H91.7375V2.625ZM91.7375 12V13H92.7375V12H91.7375ZM88.6125 12H87.6125V13H88.6125V12ZM88.6125 2.625H89.6125V1.625H88.6125V2.625ZM85.4875 2.625V1.625H84.4867L84.4875 2.62583L85.4875 2.625ZM85.4953 12V13H86.4961L86.4953 11.9992L85.4953 12ZM80.8 12H81.8V1.0625H80.8H79.8V12H80.8ZM80.8 1.0625V2.0625H90.175V1.0625V0.0625H80.8V1.0625ZM90.175 1.0625H89.175V2.625H90.175H91.175V1.0625H90.175ZM90.175 2.625V3.625H91.7375V2.625V1.625H90.175V2.625ZM91.7375 2.625H90.7375V12H91.7375H92.7375V2.625H91.7375ZM91.7375 12V11H88.6125V12V13H91.7375V12ZM88.6125 12H89.6125V2.625H88.6125H87.6125V12H88.6125ZM88.6125 2.625V1.625H85.4875V2.625V3.625H88.6125V2.625ZM85.4875 2.625L84.4875 2.62583L84.4953 12.0008L85.4953 12L86.4953 11.9992L86.4875 2.62417L85.4875 2.625ZM85.4953 12V11H80.8V12V13H85.4953V12ZM94.1 12H93.1V13H94.1V12ZM94.1 1.0625V0.0625H93.1V1.0625H94.1ZM103.475 1.0625H104.475V0.0625H103.475V1.0625ZM103.475 2.625H102.475V3.625H103.475V2.625ZM105.037 2.625H106.037V1.625H105.037V2.625ZM105.037 10.4375V11.4375H106.037V10.4375H105.037ZM103.475 10.4375V9.4375H102.475V10.4375H103.475ZM103.475 12V13H104.475V12H103.475ZM98.7953 10.4375L97.7953 10.4385L97.7963 11.4375H98.7953V10.4375ZM101.912 10.4375V11.4375H102.912V10.4375H101.912ZM101.912 2.625H102.912V1.625H101.912V2.625ZM98.7875 2.625V1.625H97.7865L97.7875 2.626L98.7875 2.625ZM94.1 12H95.1V1.0625H94.1H93.1V12H94.1ZM94.1 1.0625V2.0625H103.475V1.0625V0.0625H94.1V1.0625ZM103.475 1.0625H102.475V2.625H103.475H104.475V1.0625H103.475ZM103.475 2.625V3.625H105.037V2.625V1.625H103.475V2.625ZM105.037 2.625H104.037V10.4375H105.037H106.037V2.625H105.037ZM105.037 10.4375V9.4375H103.475V10.4375V11.4375H105.037V10.4375ZM103.475 10.4375H102.475V12H103.475H104.475V10.4375H103.475ZM103.475 12V11H94.1V12V13H103.475V12ZM98.7953 10.4375V11.4375H101.912V10.4375V9.4375H98.7953V10.4375ZM101.912 10.4375H102.912V2.625H101.912H100.912V10.4375H101.912ZM101.912 2.625V1.625H98.7875V2.625V3.625H101.912V2.625ZM98.7875 2.625L97.7875 2.626L97.7953 10.4385L98.7953 10.4375L99.7953 10.4365L99.7875 2.624L98.7875 2.625ZM120.7 12H119.7V13H120.7V12ZM120.7 2.625V1.625H119.7V2.625H120.7ZM122.262 2.625V3.625H123.262V2.625H122.262ZM122.262 1.0625V0.0625H121.262V1.0625H122.262ZM130.075 1.0625H131.075V0.0625H130.075V1.0625ZM130.075 2.625H129.075V3.625H130.075V2.625ZM131.637 2.625H132.637V1.625H131.637V2.625ZM131.637 12V13H132.637V12H131.637ZM128.512 12H127.512V13H128.512V12ZM128.512 7.3125H129.512V6.3125H128.512V7.3125ZM125.387 7.3125V6.3125H124.387V7.3125H125.387ZM125.387 12V13H126.387V12H125.387ZM125.387 2.86719V1.86719H124.387V2.86719H125.387ZM125.387 5.75H124.387V6.75H125.387V5.75ZM128.512 5.75V6.75H129.512V5.75H128.512ZM128.512 2.86719H129.512V1.86719H128.512V2.86719ZM120.7 12H121.7V2.625H120.7H119.7V12H120.7ZM120.7 2.625V3.625H122.262V2.625V1.625H120.7V2.625ZM122.262 2.625H123.262V1.0625H122.262H121.262V2.625H122.262ZM122.262 1.0625V2.0625H130.075V1.0625V0.0625H122.262V1.0625ZM130.075 1.0625H129.075V2.625H130.075H131.075V1.0625H130.075ZM130.075 2.625V3.625H131.637V2.625V1.625H130.075V2.625ZM131.637 2.625H130.637V12H131.637H132.637V2.625H131.637ZM131.637 12V11H128.512V12V13H131.637V12ZM128.512 12H129.512V7.3125H128.512H127.512V12H128.512ZM128.512 7.3125V6.3125H125.387V7.3125V8.3125H128.512V7.3125ZM125.387 7.3125H124.387V12H125.387H126.387V7.3125H125.387ZM125.387 12V11H120.7V12V13H125.387V12ZM125.387 2.86719H124.387V5.75H125.387H126.387V2.86719H125.387ZM125.387 5.75V6.75H128.512V5.75V4.75H125.387V5.75ZM128.512 5.75H129.512V2.86719H128.512H127.512V5.75H128.512ZM128.512 2.86719V1.86719H125.387V2.86719V3.86719H128.512V2.86719ZM134 8.875V7.875H133V8.875H134ZM137.125 8.875H138.125V7.875H137.125V8.875ZM137.125 10.4375H136.125V11.4375H137.125V10.4375ZM141.812 10.4375V11.4375H142.812V10.4375H141.812ZM141.812 7.3125H142.812V6.3125H141.812V7.3125ZM135.562 7.3125H134.562V8.3125H135.562V7.3125ZM135.562 5.75H136.562V4.75H135.562V5.75ZM134 5.75H133V6.75H134V5.75ZM134 2.625V1.625H133V2.625H134ZM135.562 2.625V3.625H136.562V2.625H135.562ZM135.562 1.0625V0.0625H134.562V1.0625H135.562ZM143.375 1.0625H144.375V0.0625H143.375V1.0625ZM143.375 2.625H142.375V3.625H143.375V2.625ZM144.938 2.625H145.938V1.625H144.938V2.625ZM144.938 4.1875V5.1875H145.938V4.1875H144.938ZM141.812 4.1875H140.812V5.1875H141.812V4.1875ZM141.812 2.625H142.812V1.625H141.812V2.625ZM138.688 2.625V1.625H137.688V2.625H138.688ZM138.688 5.75H137.688V6.75H138.688V5.75ZM143.375 5.75H144.375V4.75H143.375V5.75ZM143.375 7.3125H142.375V8.3125H143.375V7.3125ZM144.938 7.3125H145.938V6.3125H144.938V7.3125ZM144.938 10.4375V11.4375H145.938V10.4375H144.938ZM143.375 10.4375V9.4375H142.375V10.4375H143.375ZM143.375 12V13H144.375V12H143.375ZM135.562 12H134.562V13H135.562V12ZM135.562 10.4375H136.562V9.4375H135.562V10.4375ZM134 10.4375H133V11.4375H134V10.4375ZM134 8.875V9.875H137.125V8.875V7.875H134V8.875ZM137.125 8.875H136.125V10.4375H137.125H138.125V8.875H137.125ZM137.125 10.4375V11.4375H141.812V10.4375V9.4375H137.125V10.4375ZM141.812 10.4375H142.812V7.3125H141.812H140.812V10.4375H141.812ZM141.812 7.3125V6.3125H135.562V7.3125V8.3125H141.812V7.3125ZM135.562 7.3125H136.562V5.75H135.562H134.562V7.3125H135.562ZM135.562 5.75V4.75H134V5.75V6.75H135.562V5.75ZM134 5.75H135V2.625H134H133V5.75H134ZM134 2.625V3.625H135.562V2.625V1.625H134V2.625ZM135.562 2.625H136.562V1.0625H135.562H134.562V2.625H135.562ZM135.562 1.0625V2.0625H143.375V1.0625V0.0625H135.562V1.0625ZM143.375 1.0625H142.375V2.625H143.375H144.375V1.0625H143.375ZM143.375 2.625V3.625H144.938V2.625V1.625H143.375V2.625ZM144.938 2.625H143.938V4.1875H144.938H145.938V2.625H144.938ZM144.938 4.1875V3.1875H141.812V4.1875V5.1875H144.938V4.1875ZM141.812 4.1875H142.812V2.625H141.812H140.812V4.1875H141.812ZM141.812 2.625V1.625H138.688V2.625V3.625H141.812V2.625ZM138.688 2.625H137.688V5.75H138.688H139.688V2.625H138.688ZM138.688 5.75V6.75H143.375V5.75V4.75H138.688V5.75ZM143.375 5.75H142.375V7.3125H143.375H144.375V5.75H143.375ZM143.375 7.3125V8.3125H144.938V7.3125V6.3125H143.375V7.3125ZM144.938 7.3125H143.938V10.4375H144.938H145.938V7.3125H144.938ZM144.938 10.4375V9.4375H143.375V10.4375V11.4375H144.938V10.4375ZM143.375 10.4375H142.375V12H143.375H144.375V10.4375H143.375ZM143.375 12V11H135.562V12V13H143.375V12ZM135.562 12H136.562V10.4375H135.562H134.562V12H135.562ZM135.562 10.4375V9.4375H134V10.4375V11.4375H135.562V10.4375ZM134 10.4375H135V8.875H134H133V10.4375H134ZM147.3 8.875V7.875H146.3V8.875H147.3ZM150.425 8.875H151.425V7.875H150.425V8.875ZM150.425 10.4375H149.425V11.4375H150.425V10.4375ZM155.113 10.4375V11.4375H156.113V10.4375H155.113ZM155.113 7.3125H156.113V6.3125H155.113V7.3125ZM148.863 7.3125H147.863V8.3125H148.863V7.3125ZM148.863 5.75H149.863V4.75H148.863V5.75ZM147.3 5.75H146.3V6.75H147.3V5.75ZM147.3 2.625V1.625H146.3V2.625H147.3ZM148.863 2.625V3.625H149.863V2.625H148.863ZM148.863 1.0625V0.0625H147.863V1.0625H148.863ZM156.675 1.0625H157.675V0.0625H156.675V1.0625ZM156.675 2.625H155.675V3.625H156.675V2.625ZM158.238 2.625H159.238V1.625H158.238V2.625ZM158.238 4.1875V5.1875H159.238V4.1875H158.238ZM155.113 4.1875H154.113V5.1875H155.113V4.1875ZM155.113 2.625H156.113V1.625H155.113V2.625ZM151.988 2.625V1.625H150.988V2.625H151.988ZM151.988 5.75H150.988V6.75H151.988V5.75ZM156.675 5.75H157.675V4.75H156.675V5.75ZM156.675 7.3125H155.675V8.3125H156.675V7.3125ZM158.238 7.3125H159.238V6.3125H158.238V7.3125ZM158.238 10.4375V11.4375H159.238V10.4375H158.238ZM156.675 10.4375V9.4375H155.675V10.4375H156.675ZM156.675 12V13H157.675V12H156.675ZM148.863 12H147.863V13H148.863V12ZM148.863 10.4375H149.863V9.4375H148.863V10.4375ZM147.3 10.4375H146.3V11.4375H147.3V10.4375ZM147.3 8.875V9.875H150.425V8.875V7.875H147.3V8.875ZM150.425 8.875H149.425V10.4375H150.425H151.425V8.875H150.425ZM150.425 10.4375V11.4375H155.113V10.4375V9.4375H150.425V10.4375ZM155.113 10.4375H156.113V7.3125H155.113H154.113V10.4375H155.113ZM155.113 7.3125V6.3125H148.863V7.3125V8.3125H155.113V7.3125ZM148.863 7.3125H149.863V5.75H148.863H147.863V7.3125H148.863ZM148.863 5.75V4.75H147.3V5.75V6.75H148.863V5.75ZM147.3 5.75H148.3V2.625H147.3H146.3V5.75H147.3ZM147.3 2.625V3.625H148.863V2.625V1.625H147.3V2.625ZM148.863 2.625H149.863V1.0625H148.863H147.863V2.625H148.863ZM148.863 1.0625V2.0625H156.675V1.0625V0.0625H148.863V1.0625ZM156.675 1.0625H155.675V2.625H156.675H157.675V1.0625H156.675ZM156.675 2.625V3.625H158.238V2.625V1.625H156.675V2.625ZM158.238 2.625H157.238V4.1875H158.238H159.238V2.625H158.238ZM158.238 4.1875V3.1875H155.113V4.1875V5.1875H158.238V4.1875ZM155.113 4.1875H156.113V2.625H155.113H154.113V4.1875H155.113ZM155.113 2.625V1.625H151.988V2.625V3.625H155.113V2.625ZM151.988 2.625H150.988V5.75H151.988H152.988V2.625H151.988ZM151.988 5.75V6.75H156.675V5.75V4.75H151.988V5.75ZM156.675 5.75H155.675V7.3125H156.675H157.675V5.75H156.675ZM156.675 7.3125V8.3125H158.238V7.3125V6.3125H156.675V7.3125ZM158.238 7.3125H157.238V10.4375H158.238H159.238V7.3125H158.238ZM158.238 10.4375V9.4375H156.675V10.4375V11.4375H158.238V10.4375ZM156.675 10.4375H155.675V12H156.675H157.675V10.4375H156.675ZM156.675 12V11H148.863V12V13H156.675V12ZM148.863 12H149.863V10.4375H148.863H147.863V12H148.863ZM148.863 10.4375V9.4375H147.3V10.4375V11.4375H148.863V10.4375ZM147.3 10.4375H148.3V8.875H147.3H146.3V10.4375H147.3ZM171.538 12V13H172.538V12H171.538ZM160.6 12H159.6V13H160.6V12ZM160.6 1.0625V0.0625H159.6V1.0625H160.6ZM171.538 1.0625H172.538V0.0625H171.538V1.0625ZM171.538 2.625V3.625H172.538V2.625H171.538ZM165.288 2.625V1.625H164.288V2.625H165.288ZM165.288 5.75H164.288V6.75H165.288V5.75ZM169.975 5.75H170.975V4.75H169.975V5.75ZM169.975 7.3125V8.3125H170.975V7.3125H169.975ZM165.288 7.3125V6.3125H164.288V7.3125H165.288ZM165.288 10.4375H164.288V11.4375H165.288V10.4375ZM171.538 10.4375H172.538V9.4375H171.538V10.4375ZM171.538 12V11H160.6V12V13H171.538V12ZM160.6 12H161.6V1.0625H160.6H159.6V12H160.6ZM160.6 1.0625V2.0625H171.538V1.0625V0.0625H160.6V1.0625ZM171.538 1.0625H170.538V2.625H171.538H172.538V1.0625H171.538ZM171.538 2.625V1.625H165.288V2.625V3.625H171.538V2.625ZM165.288 2.625H164.288V5.75H165.288H166.288V2.625H165.288ZM165.288 5.75V6.75H169.975V5.75V4.75H165.288V5.75ZM169.975 5.75H168.975V7.3125H169.975H170.975V5.75H169.975ZM169.975 7.3125V6.3125H165.288V7.3125V8.3125H169.975V7.3125ZM165.288 7.3125H164.288V10.4375H165.288H166.288V7.3125H165.288ZM165.288 10.4375V11.4375H171.538V10.4375V9.4375H165.288V10.4375ZM171.538 10.4375H170.538V12H171.538H172.538V10.4375H171.538ZM184.837 1.0625H185.837V0.0625H184.837V1.0625ZM184.837 2.625V3.625H185.837V2.625H184.837ZM181.712 2.625V1.625H180.712V2.625H181.712ZM181.712 12V13H182.712V12H181.712ZM177.025 12H176.025V13H177.025V12ZM177.025 2.625H178.025V1.625H177.025V2.625ZM173.9 2.625H172.9V3.625H173.9V2.625ZM173.9 1.0625V0.0625H172.9V1.0625H173.9ZM184.837 1.0625H183.837V2.625H184.837H185.837V1.0625H184.837ZM184.837 2.625V1.625H181.712V2.625V3.625H184.837V2.625ZM181.712 2.625H180.712V12H181.712H182.712V2.625H181.712ZM181.712 12V11H177.025V12V13H181.712V12ZM177.025 12H178.025V2.625H177.025H176.025V12H177.025ZM177.025 2.625V1.625H173.9V2.625V3.625H177.025V2.625ZM173.9 2.625H174.9V1.0625H173.9H172.9V2.625H173.9ZM173.9 1.0625V2.0625H184.837V1.0625V0.0625H173.9V1.0625ZM187.2 8.875V7.875H186.2V8.875H187.2ZM190.325 8.875H191.325V7.875H190.325V8.875ZM190.325 10.4375H189.325V11.4375H190.325V10.4375ZM195.012 10.4375V11.4375H196.012V10.4375H195.012ZM195.012 7.3125H196.012V6.3125H195.012V7.3125ZM188.762 7.3125H187.762V8.3125H188.762V7.3125ZM188.762 5.75H189.762V4.75H188.762V5.75ZM187.2 5.75H186.2V6.75H187.2V5.75ZM187.2 2.625V1.625H186.2V2.625H187.2ZM188.762 2.625V3.625H189.762V2.625H188.762ZM188.762 1.0625V0.0625H187.762V1.0625H188.762ZM196.575 1.0625H197.575V0.0625H196.575V1.0625ZM196.575 2.625H195.575V3.625H196.575V2.625ZM198.137 2.625H199.137V1.625H198.137V2.625ZM198.137 4.1875V5.1875H199.137V4.1875H198.137ZM195.012 4.1875H194.012V5.1875H195.012V4.1875ZM195.012 2.625H196.012V1.625H195.012V2.625ZM191.887 2.625V1.625H190.887V2.625H191.887ZM191.887 5.75H190.887V6.75H191.887V5.75ZM196.575 5.75H197.575V4.75H196.575V5.75ZM196.575 7.3125H195.575V8.3125H196.575V7.3125ZM198.137 7.3125H199.137V6.3125H198.137V7.3125ZM198.137 10.4375V11.4375H199.137V10.4375H198.137ZM196.575 10.4375V9.4375H195.575V10.4375H196.575ZM196.575 12V13H197.575V12H196.575ZM188.762 12H187.762V13H188.762V12ZM188.762 10.4375H189.762V9.4375H188.762V10.4375ZM187.2 10.4375H186.2V11.4375H187.2V10.4375ZM187.2 8.875V9.875H190.325V8.875V7.875H187.2V8.875ZM190.325 8.875H189.325V10.4375H190.325H191.325V8.875H190.325ZM190.325 10.4375V11.4375H195.012V10.4375V9.4375H190.325V10.4375ZM195.012 10.4375H196.012V7.3125H195.012H194.012V10.4375H195.012ZM195.012 7.3125V6.3125H188.762V7.3125V8.3125H195.012V7.3125ZM188.762 7.3125H189.762V5.75H188.762H187.762V7.3125H188.762ZM188.762 5.75V4.75H187.2V5.75V6.75H188.762V5.75ZM187.2 5.75H188.2V2.625H187.2H186.2V5.75H187.2ZM187.2 2.625V3.625H188.762V2.625V1.625H187.2V2.625ZM188.762 2.625H189.762V1.0625H188.762H187.762V2.625H188.762ZM188.762 1.0625V2.0625H196.575V1.0625V0.0625H188.762V1.0625ZM196.575 1.0625H195.575V2.625H196.575H197.575V1.0625H196.575ZM196.575 2.625V3.625H198.137V2.625V1.625H196.575V2.625ZM198.137 2.625H197.137V4.1875H198.137H199.137V2.625H198.137ZM198.137 4.1875V3.1875H195.012V4.1875V5.1875H198.137V4.1875ZM195.012 4.1875H196.012V2.625H195.012H194.012V4.1875H195.012ZM195.012 2.625V1.625H191.887V2.625V3.625H195.012V2.625ZM191.887 2.625H190.887V5.75H191.887H192.887V2.625H191.887ZM191.887 5.75V6.75H196.575V5.75V4.75H191.887V5.75ZM196.575 5.75H195.575V7.3125H196.575H197.575V5.75H196.575ZM196.575 7.3125V8.3125H198.137V7.3125V6.3125H196.575V7.3125ZM198.137 7.3125H197.137V10.4375H198.137H199.137V7.3125H198.137ZM198.137 10.4375V9.4375H196.575V10.4375V11.4375H198.137V10.4375ZM196.575 10.4375H195.575V12H196.575H197.575V10.4375H196.575ZM196.575 12V11H188.762V12V13H196.575V12ZM188.762 12H189.762V10.4375H188.762H187.762V12H188.762ZM188.762 10.4375V9.4375H187.2V10.4375V11.4375H188.762V10.4375ZM187.2 10.4375H188.2V8.875H187.2H186.2V10.4375H187.2ZM213.8 12H212.8V13H213.8V12ZM213.8 1.0625V0.0625H212.8V1.0625H213.8ZM223.175 1.0625H224.175V0.0625H223.175V1.0625ZM223.175 2.625H222.175V3.625H223.175V2.625ZM224.738 2.625H225.738V1.625H224.738V2.625ZM224.738 5.75V6.75H225.738V5.75H224.738ZM223.175 5.75V4.75H222.175V5.75H223.175ZM223.175 7.3125H222.175V8.3125H223.175V7.3125ZM224.738 7.3125H225.738V6.3125H224.738V7.3125ZM224.738 12V13H225.738V12H224.738ZM220.05 12H219.05V13H220.05V12ZM220.05 7.3125H221.05V6.3125H220.05V7.3125ZM216.933 7.3125V6.3125H215.933V7.3125H216.933ZM216.933 12V13H217.933V12H216.933ZM218.488 2.625V1.625H217.488V2.625H218.488ZM218.488 5.75H217.488V6.75H218.488V5.75ZM221.613 5.75V6.75H222.613V5.75H221.613ZM221.613 2.625H222.613V1.625H221.613V2.625ZM213.8 12H214.8V1.0625H213.8H212.8V12H213.8ZM213.8 1.0625V2.0625H223.175V1.0625V0.0625H213.8V1.0625ZM223.175 1.0625H222.175V2.625H223.175H224.175V1.0625H223.175ZM223.175 2.625V3.625H224.738V2.625V1.625H223.175V2.625ZM224.738 2.625H223.738V5.75H224.738H225.738V2.625H224.738ZM224.738 5.75V4.75H223.175V5.75V6.75H224.738V5.75ZM223.175 5.75H222.175V7.3125H223.175H224.175V5.75H223.175ZM223.175 7.3125V8.3125H224.738V7.3125V6.3125H223.175V7.3125ZM224.738 7.3125H223.738V12H224.738H225.738V7.3125H224.738ZM224.738 12V11H220.05V12V13H224.738V12ZM220.05 12H221.05V7.3125H220.05H219.05V12H220.05ZM220.05 7.3125V6.3125H216.933V7.3125V8.3125H220.05V7.3125ZM216.933 7.3125H215.933V12H216.933H217.933V7.3125H216.933ZM216.933 12V11H213.8V12V13H216.933V12ZM218.488 2.625H217.488V5.75H218.488H219.488V2.625H218.488ZM218.488 5.75V6.75H221.613V5.75V4.75H218.488V5.75ZM221.613 5.75H222.613V2.625H221.613H220.613V5.75H221.613ZM221.613 2.625V1.625H218.488V2.625V3.625H221.613V2.625ZM238.038 12V13H239.038V12H238.038ZM227.1 12H226.1V13H227.1V12ZM227.1 1.0625V0.0625H226.1V1.0625H227.1ZM238.038 1.0625H239.038V0.0625H238.038V1.0625ZM238.038 2.625V3.625H239.038V2.625H238.038ZM231.788 2.625V1.625H230.788V2.625H231.788ZM231.788 5.75H230.788V6.75H231.788V5.75ZM236.475 5.75H237.475V4.75H236.475V5.75ZM236.475 7.3125V8.3125H237.475V7.3125H236.475ZM231.788 7.3125V6.3125H230.788V7.3125H231.788ZM231.788 10.4375H230.788V11.4375H231.788V10.4375ZM238.038 10.4375H239.038V9.4375H238.038V10.4375ZM238.038 12V11H227.1V12V13H238.038V12ZM227.1 12H228.1V1.0625H227.1H226.1V12H227.1ZM227.1 1.0625V2.0625H238.038V1.0625V0.0625H227.1V1.0625ZM238.038 1.0625H237.038V2.625H238.038H239.038V1.0625H238.038ZM238.038 2.625V1.625H231.788V2.625V3.625H238.038V2.625ZM231.788 2.625H230.788V5.75H231.788H232.788V2.625H231.788ZM231.788 5.75V6.75H236.475V5.75V4.75H231.788V5.75ZM236.475 5.75H235.475V7.3125H236.475H237.475V5.75H236.475ZM236.475 7.3125V6.3125H231.788V7.3125V8.3125H236.475V7.3125ZM231.788 7.3125H230.788V10.4375H231.788H232.788V7.3125H231.788ZM231.788 10.4375V11.4375H238.038V10.4375V9.4375H231.788V10.4375ZM238.038 10.4375H237.038V12H238.038H239.038V10.4375H238.038ZM245.087 1.0625H246.087V0.0625H245.087V1.0625ZM245.087 10.4375H244.087V11.4375H245.087V10.4375ZM248.212 10.4375V11.4375H249.212V10.4375H248.212ZM248.212 1.0625V0.0625H247.212V1.0625H248.212ZM251.337 1.0625H252.337V0.0625H251.337V1.0625ZM251.337 10.4375V11.4375H252.337V10.4375H251.337ZM249.775 10.4375V9.4375H248.775V10.4375H249.775ZM249.775 12V13H250.775V12H249.775ZM241.962 12H240.962V13H241.962V12ZM241.962 10.4375H242.962V9.4375H241.962V10.4375ZM240.4 10.4375H239.4V11.4375H240.4V10.4375ZM240.4 1.0625V0.0625H239.4V1.0625H240.4ZM245.087 1.0625H244.087V10.4375H245.087H246.087V1.0625H245.087ZM245.087 10.4375V11.4375H248.212V10.4375V9.4375H245.087V10.4375ZM248.212 10.4375H249.212V1.0625H248.212H247.212V10.4375H248.212ZM248.212 1.0625V2.0625H251.337V1.0625V0.0625H248.212V1.0625ZM251.337 1.0625H250.337V10.4375H251.337H252.337V1.0625H251.337ZM251.337 10.4375V9.4375H249.775V10.4375V11.4375H251.337V10.4375ZM249.775 10.4375H248.775V12H249.775H250.775V10.4375H249.775ZM249.775 12V11H241.962V12V13H249.775V12ZM241.962 12H242.962V10.4375H241.962H240.962V12H241.962ZM241.962 10.4375V9.4375H240.4V10.4375V11.4375H241.962V10.4375ZM240.4 10.4375H241.4V1.0625H240.4H239.4V10.4375H240.4ZM240.4 1.0625V2.0625H245.087V1.0625V0.0625H240.4V1.0625ZM253.7 8.875V7.875H252.7V8.875H253.7ZM256.825 8.875H257.825V7.875H256.825V8.875ZM256.825 10.4375H255.825V11.4375H256.825V10.4375ZM261.512 10.4375V11.4375H262.512V10.4375H261.512ZM261.512 7.3125H262.512V6.3125H261.512V7.3125ZM255.262 7.3125H254.262V8.3125H255.262V7.3125ZM255.262 5.75H256.262V4.75H255.262V5.75ZM253.7 5.75H252.7V6.75H253.7V5.75ZM253.7 2.625V1.625H252.7V2.625H253.7ZM255.262 2.625V3.625H256.262V2.625H255.262ZM255.262 1.0625V0.0625H254.262V1.0625H255.262ZM263.075 1.0625H264.075V0.0625H263.075V1.0625ZM263.075 2.625H262.075V3.625H263.075V2.625ZM264.637 2.625H265.637V1.625H264.637V2.625ZM264.637 4.1875V5.1875H265.637V4.1875H264.637ZM261.512 4.1875H260.512V5.1875H261.512V4.1875ZM261.512 2.625H262.512V1.625H261.512V2.625ZM258.387 2.625V1.625H257.387V2.625H258.387ZM258.387 5.75H257.387V6.75H258.387V5.75ZM263.075 5.75H264.075V4.75H263.075V5.75ZM263.075 7.3125H262.075V8.3125H263.075V7.3125ZM264.637 7.3125H265.637V6.3125H264.637V7.3125ZM264.637 10.4375V11.4375H265.637V10.4375H264.637ZM263.075 10.4375V9.4375H262.075V10.4375H263.075ZM263.075 12V13H264.075V12H263.075ZM255.262 12H254.262V13H255.262V12ZM255.262 10.4375H256.262V9.4375H255.262V10.4375ZM253.7 10.4375H252.7V11.4375H253.7V10.4375ZM253.7 8.875V9.875H256.825V8.875V7.875H253.7V8.875ZM256.825 8.875H255.825V10.4375H256.825H257.825V8.875H256.825ZM256.825 10.4375V11.4375H261.512V10.4375V9.4375H256.825V10.4375ZM261.512 10.4375H262.512V7.3125H261.512H260.512V10.4375H261.512ZM261.512 7.3125V6.3125H255.262V7.3125V8.3125H261.512V7.3125ZM255.262 7.3125H256.262V5.75H255.262H254.262V7.3125H255.262ZM255.262 5.75V4.75H253.7V5.75V6.75H255.262V5.75ZM253.7 5.75H254.7V2.625H253.7H252.7V5.75H253.7ZM253.7 2.625V3.625H255.262V2.625V1.625H253.7V2.625ZM255.262 2.625H256.262V1.0625H255.262H254.262V2.625H255.262ZM255.262 1.0625V2.0625H263.075V1.0625V0.0625H255.262V1.0625ZM263.075 1.0625H262.075V2.625H263.075H264.075V1.0625H263.075ZM263.075 2.625V3.625H264.637V2.625V1.625H263.075V2.625ZM264.637 2.625H263.637V4.1875H264.637H265.637V2.625H264.637ZM264.637 4.1875V3.1875H261.512V4.1875V5.1875H264.637V4.1875ZM261.512 4.1875H262.512V2.625H261.512H260.512V4.1875H261.512ZM261.512 2.625V1.625H258.387V2.625V3.625H261.512V2.625ZM258.387 2.625H257.387V5.75H258.387H259.387V2.625H258.387ZM258.387 5.75V6.75H263.075V5.75V4.75H258.387V5.75ZM263.075 5.75H262.075V7.3125H263.075H264.075V5.75H263.075ZM263.075 7.3125V8.3125H264.637V7.3125V6.3125H263.075V7.3125ZM264.637 7.3125H263.637V10.4375H264.637H265.637V7.3125H264.637ZM264.637 10.4375V9.4375H263.075V10.4375V11.4375H264.637V10.4375ZM263.075 10.4375H262.075V12H263.075H264.075V10.4375H263.075ZM263.075 12V11H255.262V12V13H263.075V12ZM255.262 12H256.262V10.4375H255.262H254.262V12H255.262ZM255.262 10.4375V9.4375H253.7V10.4375V11.4375H255.262V10.4375ZM253.7 10.4375H254.7V8.875H253.7H252.7V10.4375H253.7ZM277.938 12V13H278.938V12H277.938ZM267 12H266V13H267V12ZM267 1.0625V0.0625H266V1.0625H267ZM277.938 1.0625H278.938V0.0625H277.938V1.0625ZM277.938 2.625V3.625H278.938V2.625H277.938ZM271.688 2.625V1.625H270.688V2.625H271.688ZM271.688 5.75H270.688V6.75H271.688V5.75ZM276.375 5.75H277.375V4.75H276.375V5.75ZM276.375 7.3125V8.3125H277.375V7.3125H276.375ZM271.688 7.3125V6.3125H270.688V7.3125H271.688ZM271.688 10.4375H270.688V11.4375H271.688V10.4375ZM277.938 10.4375H278.938V9.4375H277.938V10.4375ZM277.938 12V11H267V12V13H277.938V12ZM267 12H268V1.0625H267H266V12H267ZM267 1.0625V2.0625H277.938V1.0625V0.0625H267V1.0625ZM277.938 1.0625H276.938V2.625H277.938H278.938V1.0625H277.938ZM277.938 2.625V1.625H271.688V2.625V3.625H277.938V2.625ZM271.688 2.625H270.688V5.75H271.688H272.688V2.625H271.688ZM271.688 5.75V6.75H276.375V5.75V4.75H271.688V5.75ZM276.375 5.75H275.375V7.3125H276.375H277.375V5.75H276.375ZM276.375 7.3125V6.3125H271.688V7.3125V8.3125H276.375V7.3125ZM271.688 7.3125H270.688V10.4375H271.688H272.688V7.3125H271.688ZM271.688 10.4375V11.4375H277.938V10.4375V9.4375H271.688V10.4375ZM277.938 10.4375H276.938V12H277.938H278.938V10.4375H277.938Z" fill="#222256" mask="url(#path-1-outside-1_43_4900)"/>
</g>
<defs>
<filter id="filter0_d_43_4900" x="0" y="0.0625" width="278.938" height="14.9375" filterUnits="userSpaceOnUse" color-interpolation-filters="sRGB">
<feFlood flood-opacity="0" result="BackgroundImageFix"/>
<feColorMatrix in="SourceAlpha" type="matrix" values="0 0 0 0 0 0 0 0 0 0 0 0 0 0 0 0 0 0 127 0" result="hardAlpha"/>
<feOffset dy="2"/>
<feComposite in2="hardAlpha" operator="out"/>
<feColorMatrix type="matrix" values="0 0 0 0 0.388235 0 0 0 0 0.745098 0 0 0 0 0.027451 0 0 0 1 0"/>
<feBlend mode="normal" in2="BackgroundImageFix" result="effect1_dropShadow_43_4900"/>
<feBlend mode="normal" in="SourceGraphic" in2="effect1_dropShadow_43_4900" result="shape"/>
</filter>
</defs>
</svg>
