<svg width="382" height="15" viewBox="0 0 382 15" fill="none" xmlns="http://www.w3.org/2000/svg">
<g filter="url(#filter0_d_43_4908)">
<mask id="path-1-outside-1_43_4908" maskUnits="userSpaceOnUse" x="0" y="0" width="382" height="13" fill="black">
<rect fill="white" width="382" height="13"/>
<path d="M9.375 1.0625V2.625H7.8125V10.4375H9.375V12H1.5625V10.4375H3.125V2.625H1.5625V1.0625H9.375ZM13.3 12V1.0625H22.675V2.625H24.2375V12H21.1125V2.625H17.9875L17.9953 12H13.3ZM37.5375 1.0625V2.625H34.4125V12H29.725V2.625H26.6V1.0625H37.5375ZM50.8375 12H39.9V1.0625H50.8375V2.625H44.5875V5.75H49.275V7.3125H44.5875V10.4375H50.8375V12ZM64.1375 12H53.2V1.0625H57.8875V10.4375H64.1375V12ZM77.4375 12H66.5V1.0625H71.1875V10.4375H77.4375V12ZM90.7375 12H79.8V1.0625H90.7375V2.625H84.4875V5.75H89.175V7.3125H84.4875V10.4375H90.7375V12ZM97.7875 2.625V10.4375H104.037V12H94.6625V10.4375H93.1V2.625H94.6625V1.0625H104.037V2.625H97.7875ZM117.338 1.0625V2.625H114.213V12H109.525V2.625H106.4V1.0625H117.338ZM124.387 1.0625V10.4375H127.512V1.0625H130.637V10.4375H129.075V12H121.262V10.4375H119.7V1.0625H124.387ZM133 12V2.625H134.562V1.0625H142.375V2.625H143.938V12H140.812V7.3125H137.688V12H133ZM137.688 2.86719V5.75H140.812V2.86719H137.688ZM157.238 12H146.3V1.0625H150.988V10.4375H157.238V12ZM177.595 7.3125L177.611 12H172.9V1.0625H182.275V2.625H183.837V5.75H182.275V7.3125H177.595ZM177.587 2.625V5.75H180.712V2.625H177.587ZM186.2 12V1.0625H195.575V2.625H197.137V5.75H195.575V7.3125H197.137V12H192.45V7.3125H189.333V12H186.2ZM190.887 2.625V5.75H194.012V2.625H190.887ZM208.875 12H201.062V10.4375H199.5V2.625H201.062V1.0625H208.875V2.625H210.438V10.4375H208.875V12ZM207.312 10.4375V2.625H204.188V10.4375H207.312ZM217.495 7.3125L217.511 12H212.8V1.0625H222.175V2.625H223.738V5.75H222.175V7.3125H217.495ZM217.488 2.625V5.75H220.613V2.625H217.488ZM237.038 12H226.1V1.0625H237.038V2.625H230.788V5.75H235.475V7.3125H230.788V10.4375H237.038V12ZM239.4 12V1.0625H248.775V2.625H250.337V5.75H248.775V7.3125H250.337V12H245.65V7.3125H242.533V12H239.4ZM244.087 2.625V5.75H247.212V2.625H244.087ZM263.637 1.0625V2.625H260.512V12H255.825V2.625H252.7V1.0625H263.637ZM275.375 1.0625V2.625H273.812V10.4375H275.375V12H267.562V10.4375H269.125V2.625H267.562V1.0625H275.375ZM290.237 12H279.3V1.0625H290.237V2.625H283.987V5.75H288.675V7.3125H283.987V10.4375H290.237V12ZM292.6 8.875H295.725V10.4375H300.413V7.3125H294.163V5.75H292.6V2.625H294.163V1.0625H301.975V2.625H303.538V4.1875H300.413V2.625H297.288V5.75H301.975V7.3125H303.538V10.4375H301.975V12H294.163V10.4375H292.6V8.875ZM322.325 8.875V4.1875H323.888V2.625H325.45V1.0625H327.013V2.625H325.458V4.1875H323.895V8.875H325.458V10.4375H327.013V12H325.45V10.4375H323.888V8.875H322.325ZM341.875 1.0625V2.625H340.312V10.4375H341.875V12H334.062V10.4375H335.625V2.625H334.062V1.0625H341.875ZM350.495 7.3125L350.511 12H345.8V1.0625H355.175V2.625H356.737V5.75H355.175V7.3125H350.495ZM350.487 2.625V5.75H353.612V2.625H350.487ZM359.1 8.875H362.225V10.4375H366.913V7.3125H360.663V5.75H359.1V2.625H360.663V1.0625H368.475V2.625H370.038V4.1875H366.913V2.625H363.788V5.75H368.475V7.3125H370.038V10.4375H368.475V12H360.663V10.4375H359.1V8.875ZM380.212 4.1875V8.875H378.65V10.4375H377.087V12H375.525V10.4375H377.08V8.875H378.642V4.1875H377.08V2.625H375.525V1.0625H377.087V2.625H378.65V4.1875H380.212Z"/>
</mask>
<path d="M9.375 1.0625V2.625H7.8125V10.4375H9.375V12H1.5625V10.4375H3.125V2.625H1.5625V1.0625H9.375ZM13.3 12V1.0625H22.675V2.625H24.2375V12H21.1125V2.625H17.9875L17.9953 12H13.3ZM37.5375 1.0625V2.625H34.4125V12H29.725V2.625H26.6V1.0625H37.5375ZM50.8375 12H39.9V1.0625H50.8375V2.625H44.5875V5.75H49.275V7.3125H44.5875V10.4375H50.8375V12ZM64.1375 12H53.2V1.0625H57.8875V10.4375H64.1375V12ZM77.4375 12H66.5V1.0625H71.1875V10.4375H77.4375V12ZM90.7375 12H79.8V1.0625H90.7375V2.625H84.4875V5.75H89.175V7.3125H84.4875V10.4375H90.7375V12ZM97.7875 2.625V10.4375H104.037V12H94.6625V10.4375H93.1V2.625H94.6625V1.0625H104.037V2.625H97.7875ZM117.338 1.0625V2.625H114.213V12H109.525V2.625H106.4V1.0625H117.338ZM124.387 1.0625V10.4375H127.512V1.0625H130.637V10.4375H129.075V12H121.262V10.4375H119.7V1.0625H124.387ZM133 12V2.625H134.562V1.0625H142.375V2.625H143.938V12H140.812V7.3125H137.688V12H133ZM137.688 2.86719V5.75H140.812V2.86719H137.688ZM157.238 12H146.3V1.0625H150.988V10.4375H157.238V12ZM177.595 7.3125L177.611 12H172.9V1.0625H182.275V2.625H183.837V5.75H182.275V7.3125H177.595ZM177.587 2.625V5.75H180.712V2.625H177.587ZM186.2 12V1.0625H195.575V2.625H197.137V5.75H195.575V7.3125H197.137V12H192.45V7.3125H189.333V12H186.2ZM190.887 2.625V5.75H194.012V2.625H190.887ZM208.875 12H201.062V10.4375H199.5V2.625H201.062V1.0625H208.875V2.625H210.438V10.4375H208.875V12ZM207.312 10.4375V2.625H204.188V10.4375H207.312ZM217.495 7.3125L217.511 12H212.8V1.0625H222.175V2.625H223.738V5.75H222.175V7.3125H217.495ZM217.488 2.625V5.75H220.613V2.625H217.488ZM237.038 12H226.1V1.0625H237.038V2.625H230.788V5.75H235.475V7.3125H230.788V10.4375H237.038V12ZM239.4 12V1.0625H248.775V2.625H250.337V5.75H248.775V7.3125H250.337V12H245.65V7.3125H242.533V12H239.4ZM244.087 2.625V5.75H247.212V2.625H244.087ZM263.637 1.0625V2.625H260.512V12H255.825V2.625H252.7V1.0625H263.637ZM275.375 1.0625V2.625H273.812V10.4375H275.375V12H267.562V10.4375H269.125V2.625H267.562V1.0625H275.375ZM290.237 12H279.3V1.0625H290.237V2.625H283.987V5.75H288.675V7.3125H283.987V10.4375H290.237V12ZM292.6 8.875H295.725V10.4375H300.413V7.3125H294.163V5.75H292.6V2.625H294.163V1.0625H301.975V2.625H303.538V4.1875H300.413V2.625H297.288V5.75H301.975V7.3125H303.538V10.4375H301.975V12H294.163V10.4375H292.6V8.875ZM322.325 8.875V4.1875H323.888V2.625H325.45V1.0625H327.013V2.625H325.458V4.1875H323.895V8.875H325.458V10.4375H327.013V12H325.45V10.4375H323.888V8.875H322.325ZM341.875 1.0625V2.625H340.312V10.4375H341.875V12H334.062V10.4375H335.625V2.625H334.062V1.0625H341.875ZM350.495 7.3125L350.511 12H345.8V1.0625H355.175V2.625H356.737V5.75H355.175V7.3125H350.495ZM350.487 2.625V5.75H353.612V2.625H350.487ZM359.1 8.875H362.225V10.4375H366.913V7.3125H360.663V5.75H359.1V2.625H360.663V1.0625H368.475V2.625H370.038V4.1875H366.913V2.625H363.788V5.75H368.475V7.3125H370.038V10.4375H368.475V12H360.663V10.4375H359.1V8.875ZM380.212 4.1875V8.875H378.65V10.4375H377.087V12H375.525V10.4375H377.08V8.875H378.642V4.1875H377.08V2.625H375.525V1.0625H377.087V2.625H378.65V4.1875H380.212Z" fill="white"/>
<path d="M9.375 1.0625H10.375V0.0625H9.375V1.0625ZM9.375 2.625V3.625H10.375V2.625H9.375ZM7.8125 2.625V1.625H6.8125V2.625H7.8125ZM7.8125 10.4375H6.8125V11.4375H7.8125V10.4375ZM9.375 10.4375H10.375V9.4375H9.375V10.4375ZM9.375 12V13H10.375V12H9.375ZM1.5625 12H0.5625V13H1.5625V12ZM1.5625 10.4375V9.4375H0.5625V10.4375H1.5625ZM3.125 10.4375V11.4375H4.125V10.4375H3.125ZM3.125 2.625H4.125V1.625H3.125V2.625ZM1.5625 2.625H0.5625V3.625H1.5625V2.625ZM1.5625 1.0625V0.0625H0.5625V1.0625H1.5625ZM9.375 1.0625H8.375V2.625H9.375H10.375V1.0625H9.375ZM9.375 2.625V1.625H7.8125V2.625V3.625H9.375V2.625ZM7.8125 2.625H6.8125V10.4375H7.8125H8.8125V2.625H7.8125ZM7.8125 10.4375V11.4375H9.375V10.4375V9.4375H7.8125V10.4375ZM9.375 10.4375H8.375V12H9.375H10.375V10.4375H9.375ZM9.375 12V11H1.5625V12V13H9.375V12ZM1.5625 12H2.5625V10.4375H1.5625H0.5625V12H1.5625ZM1.5625 10.4375V11.4375H3.125V10.4375V9.4375H1.5625V10.4375ZM3.125 10.4375H4.125V2.625H3.125H2.125V10.4375H3.125ZM3.125 2.625V1.625H1.5625V2.625V3.625H3.125V2.625ZM1.5625 2.625H2.5625V1.0625H1.5625H0.5625V2.625H1.5625ZM1.5625 1.0625V2.0625H9.375V1.0625V0.0625H1.5625V1.0625ZM13.3 12H12.3V13H13.3V12ZM13.3 1.0625V0.0625H12.3V1.0625H13.3ZM22.675 1.0625H23.675V0.0625H22.675V1.0625ZM22.675 2.625H21.675V3.625H22.675V2.625ZM24.2375 2.625H25.2375V1.625H24.2375V2.625ZM24.2375 12V13H25.2375V12H24.2375ZM21.1125 12H20.1125V13H21.1125V12ZM21.1125 2.625H22.1125V1.625H21.1125V2.625ZM17.9875 2.625V1.625H16.9867L16.9875 2.62583L17.9875 2.625ZM17.9953 12V13H18.9961L18.9953 11.9992L17.9953 12ZM13.3 12H14.3V1.0625H13.3H12.3V12H13.3ZM13.3 1.0625V2.0625H22.675V1.0625V0.0625H13.3V1.0625ZM22.675 1.0625H21.675V2.625H22.675H23.675V1.0625H22.675ZM22.675 2.625V3.625H24.2375V2.625V1.625H22.675V2.625ZM24.2375 2.625H23.2375V12H24.2375H25.2375V2.625H24.2375ZM24.2375 12V11H21.1125V12V13H24.2375V12ZM21.1125 12H22.1125V2.625H21.1125H20.1125V12H21.1125ZM21.1125 2.625V1.625H17.9875V2.625V3.625H21.1125V2.625ZM17.9875 2.625L16.9875 2.62583L16.9953 12.0008L17.9953 12L18.9953 11.9992L18.9875 2.62417L17.9875 2.625ZM17.9953 12V11H13.3V12V13H17.9953V12ZM37.5375 1.0625H38.5375V0.0625H37.5375V1.0625ZM37.5375 2.625V3.625H38.5375V2.625H37.5375ZM34.4125 2.625V1.625H33.4125V2.625H34.4125ZM34.4125 12V13H35.4125V12H34.4125ZM29.725 12H28.725V13H29.725V12ZM29.725 2.625H30.725V1.625H29.725V2.625ZM26.6 2.625H25.6V3.625H26.6V2.625ZM26.6 1.0625V0.0625H25.6V1.0625H26.6ZM37.5375 1.0625H36.5375V2.625H37.5375H38.5375V1.0625H37.5375ZM37.5375 2.625V1.625H34.4125V2.625V3.625H37.5375V2.625ZM34.4125 2.625H33.4125V12H34.4125H35.4125V2.625H34.4125ZM34.4125 12V11H29.725V12V13H34.4125V12ZM29.725 12H30.725V2.625H29.725H28.725V12H29.725ZM29.725 2.625V1.625H26.6V2.625V3.625H29.725V2.625ZM26.6 2.625H27.6V1.0625H26.6H25.6V2.625H26.6ZM26.6 1.0625V2.0625H37.5375V1.0625V0.0625H26.6V1.0625ZM50.8375 12V13H51.8375V12H50.8375ZM39.9 12H38.9V13H39.9V12ZM39.9 1.0625V0.0625H38.9V1.0625H39.9ZM50.8375 1.0625H51.8375V0.0625H50.8375V1.0625ZM50.8375 2.625V3.625H51.8375V2.625H50.8375ZM44.5875 2.625V1.625H43.5875V2.625H44.5875ZM44.5875 5.75H43.5875V6.75H44.5875V5.75ZM49.275 5.75H50.275V4.75H49.275V5.75ZM49.275 7.3125V8.3125H50.275V7.3125H49.275ZM44.5875 7.3125V6.3125H43.5875V7.3125H44.5875ZM44.5875 10.4375H43.5875V11.4375H44.5875V10.4375ZM50.8375 10.4375H51.8375V9.4375H50.8375V10.4375ZM50.8375 12V11H39.9V12V13H50.8375V12ZM39.9 12H40.9V1.0625H39.9H38.9V12H39.9ZM39.9 1.0625V2.0625H50.8375V1.0625V0.0625H39.9V1.0625ZM50.8375 1.0625H49.8375V2.625H50.8375H51.8375V1.0625H50.8375ZM50.8375 2.625V1.625H44.5875V2.625V3.625H50.8375V2.625ZM44.5875 2.625H43.5875V5.75H44.5875H45.5875V2.625H44.5875ZM44.5875 5.75V6.75H49.275V5.75V4.75H44.5875V5.75ZM49.275 5.75H48.275V7.3125H49.275H50.275V5.75H49.275ZM49.275 7.3125V6.3125H44.5875V7.3125V8.3125H49.275V7.3125ZM44.5875 7.3125H43.5875V10.4375H44.5875H45.5875V7.3125H44.5875ZM44.5875 10.4375V11.4375H50.8375V10.4375V9.4375H44.5875V10.4375ZM50.8375 10.4375H49.8375V12H50.8375H51.8375V10.4375H50.8375ZM64.1375 12V13H65.1375V12H64.1375ZM53.2 12H52.2V13H53.2V12ZM53.2 1.0625V0.0625H52.2V1.0625H53.2ZM57.8875 1.0625H58.8875V0.0625H57.8875V1.0625ZM57.8875 10.4375H56.8875V11.4375H57.8875V10.4375ZM64.1375 10.4375H65.1375V9.4375H64.1375V10.4375ZM64.1375 12V11H53.2V12V13H64.1375V12ZM53.2 12H54.2V1.0625H53.2H52.2V12H53.2ZM53.2 1.0625V2.0625H57.8875V1.0625V0.0625H53.2V1.0625ZM57.8875 1.0625H56.8875V10.4375H57.8875H58.8875V1.0625H57.8875ZM57.8875 10.4375V11.4375H64.1375V10.4375V9.4375H57.8875V10.4375ZM64.1375 10.4375H63.1375V12H64.1375H65.1375V10.4375H64.1375ZM77.4375 12V13H78.4375V12H77.4375ZM66.5 12H65.5V13H66.5V12ZM66.5 1.0625V0.0625H65.5V1.0625H66.5ZM71.1875 1.0625H72.1875V0.0625H71.1875V1.0625ZM71.1875 10.4375H70.1875V11.4375H71.1875V10.4375ZM77.4375 10.4375H78.4375V9.4375H77.4375V10.4375ZM77.4375 12V11H66.5V12V13H77.4375V12ZM66.5 12H67.5V1.0625H66.5H65.5V12H66.5ZM66.5 1.0625V2.0625H71.1875V1.0625V0.0625H66.5V1.0625ZM71.1875 1.0625H70.1875V10.4375H71.1875H72.1875V1.0625H71.1875ZM71.1875 10.4375V11.4375H77.4375V10.4375V9.4375H71.1875V10.4375ZM77.4375 10.4375H76.4375V12H77.4375H78.4375V10.4375H77.4375ZM90.7375 12V13H91.7375V12H90.7375ZM79.8 12H78.8V13H79.8V12ZM79.8 1.0625V0.0625H78.8V1.0625H79.8ZM90.7375 1.0625H91.7375V0.0625H90.7375V1.0625ZM90.7375 2.625V3.625H91.7375V2.625H90.7375ZM84.4875 2.625V1.625H83.4875V2.625H84.4875ZM84.4875 5.75H83.4875V6.75H84.4875V5.75ZM89.175 5.75H90.175V4.75H89.175V5.75ZM89.175 7.3125V8.3125H90.175V7.3125H89.175ZM84.4875 7.3125V6.3125H83.4875V7.3125H84.4875ZM84.4875 10.4375H83.4875V11.4375H84.4875V10.4375ZM90.7375 10.4375H91.7375V9.4375H90.7375V10.4375ZM90.7375 12V11H79.8V12V13H90.7375V12ZM79.8 12H80.8V1.0625H79.8H78.8V12H79.8ZM79.8 1.0625V2.0625H90.7375V1.0625V0.0625H79.8V1.0625ZM90.7375 1.0625H89.7375V2.625H90.7375H91.7375V1.0625H90.7375ZM90.7375 2.625V1.625H84.4875V2.625V3.625H90.7375V2.625ZM84.4875 2.625H83.4875V5.75H84.4875H85.4875V2.625H84.4875ZM84.4875 5.75V6.75H89.175V5.75V4.75H84.4875V5.75ZM89.175 5.75H88.175V7.3125H89.175H90.175V5.75H89.175ZM89.175 7.3125V6.3125H84.4875V7.3125V8.3125H89.175V7.3125ZM84.4875 7.3125H83.4875V10.4375H84.4875H85.4875V7.3125H84.4875ZM84.4875 10.4375V11.4375H90.7375V10.4375V9.4375H84.4875V10.4375ZM90.7375 10.4375H89.7375V12H90.7375H91.7375V10.4375H90.7375ZM97.7875 2.625V1.625H96.7875V2.625H97.7875ZM97.7875 10.4375H96.7875V11.4375H97.7875V10.4375ZM104.037 10.4375H105.037V9.4375H104.037V10.4375ZM104.037 12V13H105.037V12H104.037ZM94.6625 12H93.6625V13H94.6625V12ZM94.6625 10.4375H95.6625V9.4375H94.6625V10.4375ZM93.1 10.4375H92.1V11.4375H93.1V10.4375ZM93.1 2.625V1.625H92.1V2.625H93.1ZM94.6625 2.625V3.625H95.6625V2.625H94.6625ZM94.6625 1.0625V0.0625H93.6625V1.0625H94.6625ZM104.037 1.0625H105.037V0.0625H104.037V1.0625ZM104.037 2.625V3.625H105.037V2.625H104.037ZM97.7875 2.625H96.7875V10.4375H97.7875H98.7875V2.625H97.7875ZM97.7875 10.4375V11.4375H104.037V10.4375V9.4375H97.7875V10.4375ZM104.037 10.4375H103.037V12H104.037H105.037V10.4375H104.037ZM104.037 12V11H94.6625V12V13H104.037V12ZM94.6625 12H95.6625V10.4375H94.6625H93.6625V12H94.6625ZM94.6625 10.4375V9.4375H93.1V10.4375V11.4375H94.6625V10.4375ZM93.1 10.4375H94.1V2.625H93.1H92.1V10.4375H93.1ZM93.1 2.625V3.625H94.6625V2.625V1.625H93.1V2.625ZM94.6625 2.625H95.6625V1.0625H94.6625H93.6625V2.625H94.6625ZM94.6625 1.0625V2.0625H104.037V1.0625V0.0625H94.6625V1.0625ZM104.037 1.0625H103.037V2.625H104.037H105.037V1.0625H104.037ZM104.037 2.625V1.625H97.7875V2.625V3.625H104.037V2.625ZM117.338 1.0625H118.338V0.0625H117.338V1.0625ZM117.338 2.625V3.625H118.338V2.625H117.338ZM114.213 2.625V1.625H113.213V2.625H114.213ZM114.213 12V13H115.213V12H114.213ZM109.525 12H108.525V13H109.525V12ZM109.525 2.625H110.525V1.625H109.525V2.625ZM106.4 2.625H105.4V3.625H106.4V2.625ZM106.4 1.0625V0.0625H105.4V1.0625H106.4ZM117.338 1.0625H116.338V2.625H117.338H118.338V1.0625H117.338ZM117.338 2.625V1.625H114.213V2.625V3.625H117.338V2.625ZM114.213 2.625H113.213V12H114.213H115.213V2.625H114.213ZM114.213 12V11H109.525V12V13H114.213V12ZM109.525 12H110.525V2.625H109.525H108.525V12H109.525ZM109.525 2.625V1.625H106.4V2.625V3.625H109.525V2.625ZM106.4 2.625H107.4V1.0625H106.4H105.4V2.625H106.4ZM106.4 1.0625V2.0625H117.338V1.0625V0.0625H106.4V1.0625ZM124.387 1.0625H125.387V0.0625H124.387V1.0625ZM124.387 10.4375H123.387V11.4375H124.387V10.4375ZM127.512 10.4375V11.4375H128.512V10.4375H127.512ZM127.512 1.0625V0.0625H126.512V1.0625H127.512ZM130.637 1.0625H131.637V0.0625H130.637V1.0625ZM130.637 10.4375V11.4375H131.637V10.4375H130.637ZM129.075 10.4375V9.4375H128.075V10.4375H129.075ZM129.075 12V13H130.075V12H129.075ZM121.262 12H120.262V13H121.262V12ZM121.262 10.4375H122.262V9.4375H121.262V10.4375ZM119.7 10.4375H118.7V11.4375H119.7V10.4375ZM119.7 1.0625V0.0625H118.7V1.0625H119.7ZM124.387 1.0625H123.387V10.4375H124.387H125.387V1.0625H124.387ZM124.387 10.4375V11.4375H127.512V10.4375V9.4375H124.387V10.4375ZM127.512 10.4375H128.512V1.0625H127.512H126.512V10.4375H127.512ZM127.512 1.0625V2.0625H130.637V1.0625V0.0625H127.512V1.0625ZM130.637 1.0625H129.637V10.4375H130.637H131.637V1.0625H130.637ZM130.637 10.4375V9.4375H129.075V10.4375V11.4375H130.637V10.4375ZM129.075 10.4375H128.075V12H129.075H130.075V10.4375H129.075ZM129.075 12V11H121.262V12V13H129.075V12ZM121.262 12H122.262V10.4375H121.262H120.262V12H121.262ZM121.262 10.4375V9.4375H119.7V10.4375V11.4375H121.262V10.4375ZM119.7 10.4375H120.7V1.0625H119.7H118.7V10.4375H119.7ZM119.7 1.0625V2.0625H124.387V1.0625V0.0625H119.7V1.0625ZM133 12H132V13H133V12ZM133 2.625V1.625H132V2.625H133ZM134.562 2.625V3.625H135.562V2.625H134.562ZM134.562 1.0625V0.0625H133.562V1.0625H134.562ZM142.375 1.0625H143.375V0.0625H142.375V1.0625ZM142.375 2.625H141.375V3.625H142.375V2.625ZM143.938 2.625H144.938V1.625H143.938V2.625ZM143.938 12V13H144.938V12H143.938ZM140.812 12H139.812V13H140.812V12ZM140.812 7.3125H141.812V6.3125H140.812V7.3125ZM137.688 7.3125V6.3125H136.688V7.3125H137.688ZM137.688 12V13H138.688V12H137.688ZM137.688 2.86719V1.86719H136.688V2.86719H137.688ZM137.688 5.75H136.688V6.75H137.688V5.75ZM140.812 5.75V6.75H141.812V5.75H140.812ZM140.812 2.86719H141.812V1.86719H140.812V2.86719ZM133 12H134V2.625H133H132V12H133ZM133 2.625V3.625H134.562V2.625V1.625H133V2.625ZM134.562 2.625H135.562V1.0625H134.562H133.562V2.625H134.562ZM134.562 1.0625V2.0625H142.375V1.0625V0.0625H134.562V1.0625ZM142.375 1.0625H141.375V2.625H142.375H143.375V1.0625H142.375ZM142.375 2.625V3.625H143.938V2.625V1.625H142.375V2.625ZM143.938 2.625H142.938V12H143.938H144.938V2.625H143.938ZM143.938 12V11H140.812V12V13H143.938V12ZM140.812 12H141.812V7.3125H140.812H139.812V12H140.812ZM140.812 7.3125V6.3125H137.688V7.3125V8.3125H140.812V7.3125ZM137.688 7.3125H136.688V12H137.688H138.688V7.3125H137.688ZM137.688 12V11H133V12V13H137.688V12ZM137.688 2.86719H136.688V5.75H137.688H138.688V2.86719H137.688ZM137.688 5.75V6.75H140.812V5.75V4.75H137.688V5.75ZM140.812 5.75H141.812V2.86719H140.812H139.812V5.75H140.812ZM140.812 2.86719V1.86719H137.688V2.86719V3.86719H140.812V2.86719ZM157.238 12V13H158.238V12H157.238ZM146.3 12H145.3V13H146.3V12ZM146.3 1.0625V0.0625H145.3V1.0625H146.3ZM150.988 1.0625H151.988V0.0625H150.988V1.0625ZM150.988 10.4375H149.988V11.4375H150.988V10.4375ZM157.238 10.4375H158.238V9.4375H157.238V10.4375ZM157.238 12V11H146.3V12V13H157.238V12ZM146.3 12H147.3V1.0625H146.3H145.3V12H146.3ZM146.3 1.0625V2.0625H150.988V1.0625V0.0625H146.3V1.0625ZM150.988 1.0625H149.988V10.4375H150.988H151.988V1.0625H150.988ZM150.988 10.4375V11.4375H157.238V10.4375V9.4375H150.988V10.4375ZM157.238 10.4375H156.238V12H157.238H158.238V10.4375H157.238ZM177.595 7.3125V6.3125H176.592L176.595 7.31583L177.595 7.3125ZM177.611 12V13H178.614L178.611 11.9967L177.611 12ZM172.9 12H171.9V13H172.9V12ZM172.9 1.0625V0.0625H171.9V1.0625H172.9ZM182.275 1.0625H183.275V0.0625H182.275V1.0625ZM182.275 2.625H181.275V3.625H182.275V2.625ZM183.837 2.625H184.837V1.625H183.837V2.625ZM183.837 5.75V6.75H184.837V5.75H183.837ZM182.275 5.75V4.75H181.275V5.75H182.275ZM182.275 7.3125V8.3125H183.275V7.3125H182.275ZM177.587 2.625V1.625H176.587V2.625H177.587ZM177.587 5.75H176.587V6.75H177.587V5.75ZM180.712 5.75V6.75H181.712V5.75H180.712ZM180.712 2.625H181.712V1.625H180.712V2.625ZM177.595 7.3125L176.595 7.31583L176.611 12.0033L177.611 12L178.611 11.9967L178.595 7.30917L177.595 7.3125ZM177.611 12V11H172.9V12V13H177.611V12ZM172.9 12H173.9V1.0625H172.9H171.9V12H172.9ZM172.9 1.0625V2.0625H182.275V1.0625V0.0625H172.9V1.0625ZM182.275 1.0625H181.275V2.625H182.275H183.275V1.0625H182.275ZM182.275 2.625V3.625H183.837V2.625V1.625H182.275V2.625ZM183.837 2.625H182.837V5.75H183.837H184.837V2.625H183.837ZM183.837 5.75V4.75H182.275V5.75V6.75H183.837V5.75ZM182.275 5.75H181.275V7.3125H182.275H183.275V5.75H182.275ZM182.275 7.3125V6.3125H177.595V7.3125V8.3125H182.275V7.3125ZM177.587 2.625H176.587V5.75H177.587H178.587V2.625H177.587ZM177.587 5.75V6.75H180.712V5.75V4.75H177.587V5.75ZM180.712 5.75H181.712V2.625H180.712H179.712V5.75H180.712ZM180.712 2.625V1.625H177.587V2.625V3.625H180.712V2.625ZM186.2 12H185.2V13H186.2V12ZM186.2 1.0625V0.0625H185.2V1.0625H186.2ZM195.575 1.0625H196.575V0.0625H195.575V1.0625ZM195.575 2.625H194.575V3.625H195.575V2.625ZM197.137 2.625H198.137V1.625H197.137V2.625ZM197.137 5.75V6.75H198.137V5.75H197.137ZM195.575 5.75V4.75H194.575V5.75H195.575ZM195.575 7.3125H194.575V8.3125H195.575V7.3125ZM197.137 7.3125H198.137V6.3125H197.137V7.3125ZM197.137 12V13H198.137V12H197.137ZM192.45 12H191.45V13H192.45V12ZM192.45 7.3125H193.45V6.3125H192.45V7.3125ZM189.333 7.3125V6.3125H188.333V7.3125H189.333ZM189.333 12V13H190.333V12H189.333ZM190.887 2.625V1.625H189.887V2.625H190.887ZM190.887 5.75H189.887V6.75H190.887V5.75ZM194.012 5.75V6.75H195.012V5.75H194.012ZM194.012 2.625H195.012V1.625H194.012V2.625ZM186.2 12H187.2V1.0625H186.2H185.2V12H186.2ZM186.2 1.0625V2.0625H195.575V1.0625V0.0625H186.2V1.0625ZM195.575 1.0625H194.575V2.625H195.575H196.575V1.0625H195.575ZM195.575 2.625V3.625H197.137V2.625V1.625H195.575V2.625ZM197.137 2.625H196.137V5.75H197.137H198.137V2.625H197.137ZM197.137 5.75V4.75H195.575V5.75V6.75H197.137V5.75ZM195.575 5.75H194.575V7.3125H195.575H196.575V5.75H195.575ZM195.575 7.3125V8.3125H197.137V7.3125V6.3125H195.575V7.3125ZM197.137 7.3125H196.137V12H197.137H198.137V7.3125H197.137ZM197.137 12V11H192.45V12V13H197.137V12ZM192.45 12H193.45V7.3125H192.45H191.45V12H192.45ZM192.45 7.3125V6.3125H189.333V7.3125V8.3125H192.45V7.3125ZM189.333 7.3125H188.333V12H189.333H190.333V7.3125H189.333ZM189.333 12V11H186.2V12V13H189.333V12ZM190.887 2.625H189.887V5.75H190.887H191.887V2.625H190.887ZM190.887 5.75V6.75H194.012V5.75V4.75H190.887V5.75ZM194.012 5.75H195.012V2.625H194.012H193.012V5.75H194.012ZM194.012 2.625V1.625H190.887V2.625V3.625H194.012V2.625ZM208.875 12V13H209.875V12H208.875ZM201.062 12H200.062V13H201.062V12ZM201.062 10.4375H202.062V9.4375H201.062V10.4375ZM199.5 10.4375H198.5V11.4375H199.5V10.4375ZM199.5 2.625V1.625H198.5V2.625H199.5ZM201.062 2.625V3.625H202.062V2.625H201.062ZM201.062 1.0625V0.0625H200.062V1.0625H201.062ZM208.875 1.0625H209.875V0.0625H208.875V1.0625ZM208.875 2.625H207.875V3.625H208.875V2.625ZM210.438 2.625H211.438V1.625H210.438V2.625ZM210.438 10.4375V11.4375H211.438V10.4375H210.438ZM208.875 10.4375V9.4375H207.875V10.4375H208.875ZM207.312 10.4375V11.4375H208.312V10.4375H207.312ZM207.312 2.625H208.312V1.625H207.312V2.625ZM204.188 2.625V1.625H203.188V2.625H204.188ZM204.188 10.4375H203.188V11.4375H204.188V10.4375ZM208.875 12V11H201.062V12V13H208.875V12ZM201.062 12H202.062V10.4375H201.062H200.062V12H201.062ZM201.062 10.4375V9.4375H199.5V10.4375V11.4375H201.062V10.4375ZM199.5 10.4375H200.5V2.625H199.5H198.5V10.4375H199.5ZM199.5 2.625V3.625H201.062V2.625V1.625H199.5V2.625ZM201.062 2.625H202.062V1.0625H201.062H200.062V2.625H201.062ZM201.062 1.0625V2.0625H208.875V1.0625V0.0625H201.062V1.0625ZM208.875 1.0625H207.875V2.625H208.875H209.875V1.0625H208.875ZM208.875 2.625V3.625H210.438V2.625V1.625H208.875V2.625ZM210.438 2.625H209.438V10.4375H210.438H211.438V2.625H210.438ZM210.438 10.4375V9.4375H208.875V10.4375V11.4375H210.438V10.4375ZM208.875 10.4375H207.875V12H208.875H209.875V10.4375H208.875ZM207.312 10.4375H208.312V2.625H207.312H206.312V10.4375H207.312ZM207.312 2.625V1.625H204.188V2.625V3.625H207.312V2.625ZM204.188 2.625H203.188V10.4375H204.188H205.188V2.625H204.188ZM204.188 10.4375V11.4375H207.312V10.4375V9.4375H204.188V10.4375ZM217.495 7.3125V6.3125H216.492L216.495 7.31583L217.495 7.3125ZM217.511 12V13H218.514L218.511 11.9967L217.511 12ZM212.8 12H211.8V13H212.8V12ZM212.8 1.0625V0.0625H211.8V1.0625H212.8ZM222.175 1.0625H223.175V0.0625H222.175V1.0625ZM222.175 2.625H221.175V3.625H222.175V2.625ZM223.738 2.625H224.738V1.625H223.738V2.625ZM223.738 5.75V6.75H224.738V5.75H223.738ZM222.175 5.75V4.75H221.175V5.75H222.175ZM222.175 7.3125V8.3125H223.175V7.3125H222.175ZM217.488 2.625V1.625H216.488V2.625H217.488ZM217.488 5.75H216.488V6.75H217.488V5.75ZM220.613 5.75V6.75H221.613V5.75H220.613ZM220.613 2.625H221.613V1.625H220.613V2.625ZM217.495 7.3125L216.495 7.31583L216.511 12.0033L217.511 12L218.511 11.9967L218.495 7.30917L217.495 7.3125ZM217.511 12V11H212.8V12V13H217.511V12ZM212.8 12H213.8V1.0625H212.8H211.8V12H212.8ZM212.8 1.0625V2.0625H222.175V1.0625V0.0625H212.8V1.0625ZM222.175 1.0625H221.175V2.625H222.175H223.175V1.0625H222.175ZM222.175 2.625V3.625H223.738V2.625V1.625H222.175V2.625ZM223.738 2.625H222.738V5.75H223.738H224.738V2.625H223.738ZM223.738 5.75V4.75H222.175V5.75V6.75H223.738V5.75ZM222.175 5.75H221.175V7.3125H222.175H223.175V5.75H222.175ZM222.175 7.3125V6.3125H217.495V7.3125V8.3125H222.175V7.3125ZM217.488 2.625H216.488V5.75H217.488H218.488V2.625H217.488ZM217.488 5.75V6.75H220.613V5.75V4.75H217.488V5.75ZM220.613 5.75H221.613V2.625H220.613H219.613V5.75H220.613ZM220.613 2.625V1.625H217.488V2.625V3.625H220.613V2.625ZM237.038 12V13H238.038V12H237.038ZM226.1 12H225.1V13H226.1V12ZM226.1 1.0625V0.0625H225.1V1.0625H226.1ZM237.038 1.0625H238.038V0.0625H237.038V1.0625ZM237.038 2.625V3.625H238.038V2.625H237.038ZM230.788 2.625V1.625H229.788V2.625H230.788ZM230.788 5.75H229.788V6.75H230.788V5.75ZM235.475 5.75H236.475V4.75H235.475V5.75ZM235.475 7.3125V8.3125H236.475V7.3125H235.475ZM230.788 7.3125V6.3125H229.788V7.3125H230.788ZM230.788 10.4375H229.788V11.4375H230.788V10.4375ZM237.038 10.4375H238.038V9.4375H237.038V10.4375ZM237.038 12V11H226.1V12V13H237.038V12ZM226.1 12H227.1V1.0625H226.1H225.1V12H226.1ZM226.1 1.0625V2.0625H237.038V1.0625V0.0625H226.1V1.0625ZM237.038 1.0625H236.038V2.625H237.038H238.038V1.0625H237.038ZM237.038 2.625V1.625H230.788V2.625V3.625H237.038V2.625ZM230.788 2.625H229.788V5.75H230.788H231.788V2.625H230.788ZM230.788 5.75V6.75H235.475V5.75V4.75H230.788V5.75ZM235.475 5.75H234.475V7.3125H235.475H236.475V5.75H235.475ZM235.475 7.3125V6.3125H230.788V7.3125V8.3125H235.475V7.3125ZM230.788 7.3125H229.788V10.4375H230.788H231.788V7.3125H230.788ZM230.788 10.4375V11.4375H237.038V10.4375V9.4375H230.788V10.4375ZM237.038 10.4375H236.038V12H237.038H238.038V10.4375H237.038ZM239.4 12H238.4V13H239.4V12ZM239.4 1.0625V0.0625H238.4V1.0625H239.4ZM248.775 1.0625H249.775V0.0625H248.775V1.0625ZM248.775 2.625H247.775V3.625H248.775V2.625ZM250.337 2.625H251.337V1.625H250.337V2.625ZM250.337 5.75V6.75H251.337V5.75H250.337ZM248.775 5.75V4.75H247.775V5.75H248.775ZM248.775 7.3125H247.775V8.3125H248.775V7.3125ZM250.337 7.3125H251.337V6.3125H250.337V7.3125ZM250.337 12V13H251.337V12H250.337ZM245.65 12H244.65V13H245.65V12ZM245.65 7.3125H246.65V6.3125H245.65V7.3125ZM242.533 7.3125V6.3125H241.533V7.3125H242.533ZM242.533 12V13H243.533V12H242.533ZM244.087 2.625V1.625H243.087V2.625H244.087ZM244.087 5.75H243.087V6.75H244.087V5.75ZM247.212 5.75V6.75H248.212V5.75H247.212ZM247.212 2.625H248.212V1.625H247.212V2.625ZM239.4 12H240.4V1.0625H239.4H238.4V12H239.4ZM239.4 1.0625V2.0625H248.775V1.0625V0.0625H239.4V1.0625ZM248.775 1.0625H247.775V2.625H248.775H249.775V1.0625H248.775ZM248.775 2.625V3.625H250.337V2.625V1.625H248.775V2.625ZM250.337 2.625H249.337V5.75H250.337H251.337V2.625H250.337ZM250.337 5.75V4.75H248.775V5.75V6.75H250.337V5.75ZM248.775 5.75H247.775V7.3125H248.775H249.775V5.75H248.775ZM248.775 7.3125V8.3125H250.337V7.3125V6.3125H248.775V7.3125ZM250.337 7.3125H249.337V12H250.337H251.337V7.3125H250.337ZM250.337 12V11H245.65V12V13H250.337V12ZM245.65 12H246.65V7.3125H245.65H244.65V12H245.65ZM245.65 7.3125V6.3125H242.533V7.3125V8.3125H245.65V7.3125ZM242.533 7.3125H241.533V12H242.533H243.533V7.3125H242.533ZM242.533 12V11H239.4V12V13H242.533V12ZM244.087 2.625H243.087V5.75H244.087H245.087V2.625H244.087ZM244.087 5.75V6.75H247.212V5.75V4.75H244.087V5.75ZM247.212 5.75H248.212V2.625H247.212H246.212V5.75H247.212ZM247.212 2.625V1.625H244.087V2.625V3.625H247.212V2.625ZM263.638 1.0625H264.638V0.0625H263.638V1.0625ZM263.638 2.625V3.625H264.638V2.625H263.638ZM260.513 2.625V1.625H259.513V2.625H260.513ZM260.513 12V13H261.513V12H260.513ZM255.825 12H254.825V13H255.825V12ZM255.825 2.625H256.825V1.625H255.825V2.625ZM252.7 2.625H251.7V3.625H252.7V2.625ZM252.7 1.0625V0.0625H251.7V1.0625H252.7ZM263.638 1.0625H262.638V2.625H263.638H264.638V1.0625H263.638ZM263.638 2.625V1.625H260.513V2.625V3.625H263.638V2.625ZM260.513 2.625H259.513V12H260.513H261.513V2.625H260.513ZM260.513 12V11H255.825V12V13H260.513V12ZM255.825 12H256.825V2.625H255.825H254.825V12H255.825ZM255.825 2.625V1.625H252.7V2.625V3.625H255.825V2.625ZM252.7 2.625H253.7V1.0625H252.7H251.7V2.625H252.7ZM252.7 1.0625V2.0625H263.638V1.0625V0.0625H252.7V1.0625ZM275.375 1.0625H276.375V0.0625H275.375V1.0625ZM275.375 2.625V3.625H276.375V2.625H275.375ZM273.812 2.625V1.625H272.812V2.625H273.812ZM273.812 10.4375H272.812V11.4375H273.812V10.4375ZM275.375 10.4375H276.375V9.4375H275.375V10.4375ZM275.375 12V13H276.375V12H275.375ZM267.562 12H266.562V13H267.562V12ZM267.562 10.4375V9.4375H266.562V10.4375H267.562ZM269.125 10.4375V11.4375H270.125V10.4375H269.125ZM269.125 2.625H270.125V1.625H269.125V2.625ZM267.562 2.625H266.562V3.625H267.562V2.625ZM267.562 1.0625V0.0625H266.562V1.0625H267.562ZM275.375 1.0625H274.375V2.625H275.375H276.375V1.0625H275.375ZM275.375 2.625V1.625H273.812V2.625V3.625H275.375V2.625ZM273.812 2.625H272.812V10.4375H273.812H274.812V2.625H273.812ZM273.812 10.4375V11.4375H275.375V10.4375V9.4375H273.812V10.4375ZM275.375 10.4375H274.375V12H275.375H276.375V10.4375H275.375ZM275.375 12V11H267.562V12V13H275.375V12ZM267.562 12H268.562V10.4375H267.562H266.562V12H267.562ZM267.562 10.4375V11.4375H269.125V10.4375V9.4375H267.562V10.4375ZM269.125 10.4375H270.125V2.625H269.125H268.125V10.4375H269.125ZM269.125 2.625V1.625H267.562V2.625V3.625H269.125V2.625ZM267.562 2.625H268.562V1.0625H267.562H266.562V2.625H267.562ZM267.562 1.0625V2.0625H275.375V1.0625V0.0625H267.562V1.0625ZM290.237 12V13H291.237V12H290.237ZM279.3 12H278.3V13H279.3V12ZM279.3 1.0625V0.0625H278.3V1.0625H279.3ZM290.237 1.0625H291.237V0.0625H290.237V1.0625ZM290.237 2.625V3.625H291.237V2.625H290.237ZM283.987 2.625V1.625H282.987V2.625H283.987ZM283.987 5.75H282.987V6.75H283.987V5.75ZM288.675 5.75H289.675V4.75H288.675V5.75ZM288.675 7.3125V8.3125H289.675V7.3125H288.675ZM283.987 7.3125V6.3125H282.987V7.3125H283.987ZM283.987 10.4375H282.987V11.4375H283.987V10.4375ZM290.237 10.4375H291.237V9.4375H290.237V10.4375ZM290.237 12V11H279.3V12V13H290.237V12ZM279.3 12H280.3V1.0625H279.3H278.3V12H279.3ZM279.3 1.0625V2.0625H290.237V1.0625V0.0625H279.3V1.0625ZM290.237 1.0625H289.237V2.625H290.237H291.237V1.0625H290.237ZM290.237 2.625V1.625H283.987V2.625V3.625H290.237V2.625ZM283.987 2.625H282.987V5.75H283.987H284.987V2.625H283.987ZM283.987 5.75V6.75H288.675V5.75V4.75H283.987V5.75ZM288.675 5.75H287.675V7.3125H288.675H289.675V5.75H288.675ZM288.675 7.3125V6.3125H283.987V7.3125V8.3125H288.675V7.3125ZM283.987 7.3125H282.987V10.4375H283.987H284.987V7.3125H283.987ZM283.987 10.4375V11.4375H290.237V10.4375V9.4375H283.987V10.4375ZM290.237 10.4375H289.237V12H290.237H291.237V10.4375H290.237ZM292.6 8.875V7.875H291.6V8.875H292.6ZM295.725 8.875H296.725V7.875H295.725V8.875ZM295.725 10.4375H294.725V11.4375H295.725V10.4375ZM300.413 10.4375V11.4375H301.413V10.4375H300.413ZM300.413 7.3125H301.413V6.3125H300.413V7.3125ZM294.163 7.3125H293.163V8.3125H294.163V7.3125ZM294.163 5.75H295.163V4.75H294.163V5.75ZM292.6 5.75H291.6V6.75H292.6V5.75ZM292.6 2.625V1.625H291.6V2.625H292.6ZM294.163 2.625V3.625H295.163V2.625H294.163ZM294.163 1.0625V0.0625H293.163V1.0625H294.163ZM301.975 1.0625H302.975V0.0625H301.975V1.0625ZM301.975 2.625H300.975V3.625H301.975V2.625ZM303.538 2.625H304.538V1.625H303.538V2.625ZM303.538 4.1875V5.1875H304.538V4.1875H303.538ZM300.413 4.1875H299.413V5.1875H300.413V4.1875ZM300.413 2.625H301.413V1.625H300.413V2.625ZM297.288 2.625V1.625H296.288V2.625H297.288ZM297.288 5.75H296.288V6.75H297.288V5.75ZM301.975 5.75H302.975V4.75H301.975V5.75ZM301.975 7.3125H300.975V8.3125H301.975V7.3125ZM303.538 7.3125H304.538V6.3125H303.538V7.3125ZM303.538 10.4375V11.4375H304.538V10.4375H303.538ZM301.975 10.4375V9.4375H300.975V10.4375H301.975ZM301.975 12V13H302.975V12H301.975ZM294.163 12H293.163V13H294.163V12ZM294.163 10.4375H295.163V9.4375H294.163V10.4375ZM292.6 10.4375H291.6V11.4375H292.6V10.4375ZM292.6 8.875V9.875H295.725V8.875V7.875H292.6V8.875ZM295.725 8.875H294.725V10.4375H295.725H296.725V8.875H295.725ZM295.725 10.4375V11.4375H300.413V10.4375V9.4375H295.725V10.4375ZM300.413 10.4375H301.413V7.3125H300.413H299.413V10.4375H300.413ZM300.413 7.3125V6.3125H294.163V7.3125V8.3125H300.413V7.3125ZM294.163 7.3125H295.163V5.75H294.163H293.163V7.3125H294.163ZM294.163 5.75V4.75H292.6V5.75V6.75H294.163V5.75ZM292.6 5.75H293.6V2.625H292.6H291.6V5.75H292.6ZM292.6 2.625V3.625H294.163V2.625V1.625H292.6V2.625ZM294.163 2.625H295.163V1.0625H294.163H293.163V2.625H294.163ZM294.163 1.0625V2.0625H301.975V1.0625V0.0625H294.163V1.0625ZM301.975 1.0625H300.975V2.625H301.975H302.975V1.0625H301.975ZM301.975 2.625V3.625H303.538V2.625V1.625H301.975V2.625ZM303.538 2.625H302.538V4.1875H303.538H304.538V2.625H303.538ZM303.538 4.1875V3.1875H300.413V4.1875V5.1875H303.538V4.1875ZM300.413 4.1875H301.413V2.625H300.413H299.413V4.1875H300.413ZM300.413 2.625V1.625H297.288V2.625V3.625H300.413V2.625ZM297.288 2.625H296.288V5.75H297.288H298.288V2.625H297.288ZM297.288 5.75V6.75H301.975V5.75V4.75H297.288V5.75ZM301.975 5.75H300.975V7.3125H301.975H302.975V5.75H301.975ZM301.975 7.3125V8.3125H303.538V7.3125V6.3125H301.975V7.3125ZM303.538 7.3125H302.538V10.4375H303.538H304.538V7.3125H303.538ZM303.538 10.4375V9.4375H301.975V10.4375V11.4375H303.538V10.4375ZM301.975 10.4375H300.975V12H301.975H302.975V10.4375H301.975ZM301.975 12V11H294.163V12V13H301.975V12ZM294.163 12H295.163V10.4375H294.163H293.163V12H294.163ZM294.163 10.4375V9.4375H292.6V10.4375V11.4375H294.163V10.4375ZM292.6 10.4375H293.6V8.875H292.6H291.6V10.4375H292.6ZM322.325 8.875H321.325V9.875H322.325V8.875ZM322.325 4.1875V3.1875H321.325V4.1875H322.325ZM323.888 4.1875V5.1875H324.888V4.1875H323.888ZM323.888 2.625V1.625H322.888V2.625H323.888ZM325.45 2.625V3.625H326.45V2.625H325.45ZM325.45 1.0625V0.0625H324.45V1.0625H325.45ZM327.013 1.0625H328.013V0.0625H327.013V1.0625ZM327.013 2.625V3.625H328.013V2.625H327.013ZM325.458 2.625V1.625H324.458V2.625H325.458ZM325.458 4.1875V5.1875H326.458V4.1875H325.458ZM323.895 4.1875V3.1875H322.895V4.1875H323.895ZM323.895 8.875H322.895V9.875H323.895V8.875ZM325.458 8.875H326.458V7.875H325.458V8.875ZM325.458 10.4375H324.458V11.4375H325.458V10.4375ZM327.013 10.4375H328.013V9.4375H327.013V10.4375ZM327.013 12V13H328.013V12H327.013ZM325.45 12H324.45V13H325.45V12ZM325.45 10.4375H326.45V9.4375H325.45V10.4375ZM323.888 10.4375H322.888V11.4375H323.888V10.4375ZM323.888 8.875H324.888V7.875H323.888V8.875ZM322.325 8.875H323.325V4.1875H322.325H321.325V8.875H322.325ZM322.325 4.1875V5.1875H323.888V4.1875V3.1875H322.325V4.1875ZM323.888 4.1875H324.888V2.625H323.888H322.888V4.1875H323.888ZM323.888 2.625V3.625H325.45V2.625V1.625H323.888V2.625ZM325.45 2.625H326.45V1.0625H325.45H324.45V2.625H325.45ZM325.45 1.0625V2.0625H327.013V1.0625V0.0625H325.45V1.0625ZM327.013 1.0625H326.013V2.625H327.013H328.013V1.0625H327.013ZM327.013 2.625V1.625H325.458V2.625V3.625H327.013V2.625ZM325.458 2.625H324.458V4.1875H325.458H326.458V2.625H325.458ZM325.458 4.1875V3.1875H323.895V4.1875V5.1875H325.458V4.1875ZM323.895 4.1875H322.895V8.875H323.895H324.895V4.1875H323.895ZM323.895 8.875V9.875H325.458V8.875V7.875H323.895V8.875ZM325.458 8.875H324.458V10.4375H325.458H326.458V8.875H325.458ZM325.458 10.4375V11.4375H327.013V10.4375V9.4375H325.458V10.4375ZM327.013 10.4375H326.013V12H327.013H328.013V10.4375H327.013ZM327.013 12V11H325.45V12V13H327.013V12ZM325.45 12H326.45V10.4375H325.45H324.45V12H325.45ZM325.45 10.4375V9.4375H323.888V10.4375V11.4375H325.45V10.4375ZM323.888 10.4375H324.888V8.875H323.888H322.888V10.4375H323.888ZM323.888 8.875V7.875H322.325V8.875V9.875H323.888V8.875ZM341.875 1.0625H342.875V0.0625H341.875V1.0625ZM341.875 2.625V3.625H342.875V2.625H341.875ZM340.312 2.625V1.625H339.312V2.625H340.312ZM340.312 10.4375H339.312V11.4375H340.312V10.4375ZM341.875 10.4375H342.875V9.4375H341.875V10.4375ZM341.875 12V13H342.875V12H341.875ZM334.062 12H333.062V13H334.062V12ZM334.062 10.4375V9.4375H333.062V10.4375H334.062ZM335.625 10.4375V11.4375H336.625V10.4375H335.625ZM335.625 2.625H336.625V1.625H335.625V2.625ZM334.062 2.625H333.062V3.625H334.062V2.625ZM334.062 1.0625V0.0625H333.062V1.0625H334.062ZM341.875 1.0625H340.875V2.625H341.875H342.875V1.0625H341.875ZM341.875 2.625V1.625H340.312V2.625V3.625H341.875V2.625ZM340.312 2.625H339.312V10.4375H340.312H341.312V2.625H340.312ZM340.312 10.4375V11.4375H341.875V10.4375V9.4375H340.312V10.4375ZM341.875 10.4375H340.875V12H341.875H342.875V10.4375H341.875ZM341.875 12V11H334.062V12V13H341.875V12ZM334.062 12H335.062V10.4375H334.062H333.062V12H334.062ZM334.062 10.4375V11.4375H335.625V10.4375V9.4375H334.062V10.4375ZM335.625 10.4375H336.625V2.625H335.625H334.625V10.4375H335.625ZM335.625 2.625V1.625H334.062V2.625V3.625H335.625V2.625ZM334.062 2.625H335.062V1.0625H334.062H333.062V2.625H334.062ZM334.062 1.0625V2.0625H341.875V1.0625V0.0625H334.062V1.0625ZM350.495 7.3125V6.3125H349.492L349.495 7.31583L350.495 7.3125ZM350.511 12V13H351.514L351.511 11.9967L350.511 12ZM345.8 12H344.8V13H345.8V12ZM345.8 1.0625V0.0625H344.8V1.0625H345.8ZM355.175 1.0625H356.175V0.0625H355.175V1.0625ZM355.175 2.625H354.175V3.625H355.175V2.625ZM356.737 2.625H357.737V1.625H356.737V2.625ZM356.737 5.75V6.75H357.737V5.75H356.737ZM355.175 5.75V4.75H354.175V5.75H355.175ZM355.175 7.3125V8.3125H356.175V7.3125H355.175ZM350.487 2.625V1.625H349.487V2.625H350.487ZM350.487 5.75H349.487V6.75H350.487V5.75ZM353.612 5.75V6.75H354.612V5.75H353.612ZM353.612 2.625H354.612V1.625H353.612V2.625ZM350.495 7.3125L349.495 7.31583L349.511 12.0033L350.511 12L351.511 11.9967L351.495 7.30917L350.495 7.3125ZM350.511 12V11H345.8V12V13H350.511V12ZM345.8 12H346.8V1.0625H345.8H344.8V12H345.8ZM345.8 1.0625V2.0625H355.175V1.0625V0.0625H345.8V1.0625ZM355.175 1.0625H354.175V2.625H355.175H356.175V1.0625H355.175ZM355.175 2.625V3.625H356.737V2.625V1.625H355.175V2.625ZM356.737 2.625H355.737V5.75H356.737H357.737V2.625H356.737ZM356.737 5.75V4.75H355.175V5.75V6.75H356.737V5.75ZM355.175 5.75H354.175V7.3125H355.175H356.175V5.75H355.175ZM355.175 7.3125V6.3125H350.495V7.3125V8.3125H355.175V7.3125ZM350.487 2.625H349.487V5.75H350.487H351.487V2.625H350.487ZM350.487 5.75V6.75H353.612V5.75V4.75H350.487V5.75ZM353.612 5.75H354.612V2.625H353.612H352.612V5.75H353.612ZM353.612 2.625V1.625H350.487V2.625V3.625H353.612V2.625ZM359.1 8.875V7.875H358.1V8.875H359.1ZM362.225 8.875H363.225V7.875H362.225V8.875ZM362.225 10.4375H361.225V11.4375H362.225V10.4375ZM366.913 10.4375V11.4375H367.913V10.4375H366.913ZM366.913 7.3125H367.913V6.3125H366.913V7.3125ZM360.663 7.3125H359.663V8.3125H360.663V7.3125ZM360.663 5.75H361.663V4.75H360.663V5.75ZM359.1 5.75H358.1V6.75H359.1V5.75ZM359.1 2.625V1.625H358.1V2.625H359.1ZM360.663 2.625V3.625H361.663V2.625H360.663ZM360.663 1.0625V0.0625H359.663V1.0625H360.663ZM368.475 1.0625H369.475V0.0625H368.475V1.0625ZM368.475 2.625H367.475V3.625H368.475V2.625ZM370.038 2.625H371.038V1.625H370.038V2.625ZM370.038 4.1875V5.1875H371.038V4.1875H370.038ZM366.913 4.1875H365.913V5.1875H366.913V4.1875ZM366.913 2.625H367.913V1.625H366.913V2.625ZM363.788 2.625V1.625H362.788V2.625H363.788ZM363.788 5.75H362.788V6.75H363.788V5.75ZM368.475 5.75H369.475V4.75H368.475V5.75ZM368.475 7.3125H367.475V8.3125H368.475V7.3125ZM370.038 7.3125H371.038V6.3125H370.038V7.3125ZM370.038 10.4375V11.4375H371.038V10.4375H370.038ZM368.475 10.4375V9.4375H367.475V10.4375H368.475ZM368.475 12V13H369.475V12H368.475ZM360.663 12H359.663V13H360.663V12ZM360.663 10.4375H361.663V9.4375H360.663V10.4375ZM359.1 10.4375H358.1V11.4375H359.1V10.4375ZM359.1 8.875V9.875H362.225V8.875V7.875H359.1V8.875ZM362.225 8.875H361.225V10.4375H362.225H363.225V8.875H362.225ZM362.225 10.4375V11.4375H366.913V10.4375V9.4375H362.225V10.4375ZM366.913 10.4375H367.913V7.3125H366.913H365.913V10.4375H366.913ZM366.913 7.3125V6.3125H360.663V7.3125V8.3125H366.913V7.3125ZM360.663 7.3125H361.663V5.75H360.663H359.663V7.3125H360.663ZM360.663 5.75V4.75H359.1V5.75V6.75H360.663V5.75ZM359.1 5.75H360.1V2.625H359.1H358.1V5.75H359.1ZM359.1 2.625V3.625H360.663V2.625V1.625H359.1V2.625ZM360.663 2.625H361.663V1.0625H360.663H359.663V2.625H360.663ZM360.663 1.0625V2.0625H368.475V1.0625V0.0625H360.663V1.0625ZM368.475 1.0625H367.475V2.625H368.475H369.475V1.0625H368.475ZM368.475 2.625V3.625H370.038V2.625V1.625H368.475V2.625ZM370.038 2.625H369.038V4.1875H370.038H371.038V2.625H370.038ZM370.038 4.1875V3.1875H366.913V4.1875V5.1875H370.038V4.1875ZM366.913 4.1875H367.913V2.625H366.913H365.913V4.1875H366.913ZM366.913 2.625V1.625H363.788V2.625V3.625H366.913V2.625ZM363.788 2.625H362.788V5.75H363.788H364.788V2.625H363.788ZM363.788 5.75V6.75H368.475V5.75V4.75H363.788V5.75ZM368.475 5.75H367.475V7.3125H368.475H369.475V5.75H368.475ZM368.475 7.3125V8.3125H370.038V7.3125V6.3125H368.475V7.3125ZM370.038 7.3125H369.038V10.4375H370.038H371.038V7.3125H370.038ZM370.038 10.4375V9.4375H368.475V10.4375V11.4375H370.038V10.4375ZM368.475 10.4375H367.475V12H368.475H369.475V10.4375H368.475ZM368.475 12V11H360.663V12V13H368.475V12ZM360.663 12H361.663V10.4375H360.663H359.663V12H360.663ZM360.663 10.4375V9.4375H359.1V10.4375V11.4375H360.663V10.4375ZM359.1 10.4375H360.1V8.875H359.1H358.1V10.4375H359.1ZM380.212 4.1875H381.212V3.1875H380.212V4.1875ZM380.212 8.875V9.875H381.212V8.875H380.212ZM378.65 8.875V7.875H377.65V8.875H378.65ZM378.65 10.4375V11.4375H379.65V10.4375H378.65ZM377.087 10.4375V9.4375H376.087V10.4375H377.087ZM377.087 12V13H378.087V12H377.087ZM375.525 12H374.525V13H375.525V12ZM375.525 10.4375V9.4375H374.525V10.4375H375.525ZM377.08 10.4375V11.4375H378.08V10.4375H377.08ZM377.08 8.875V7.875H376.08V8.875H377.08ZM378.642 8.875V9.875H379.642V8.875H378.642ZM378.642 4.1875H379.642V3.1875H378.642V4.1875ZM377.08 4.1875H376.08V5.1875H377.08V4.1875ZM377.08 2.625H378.08V1.625H377.08V2.625ZM375.525 2.625H374.525V3.625H375.525V2.625ZM375.525 1.0625V0.0625H374.525V1.0625H375.525ZM377.087 1.0625H378.087V0.0625H377.087V1.0625ZM377.087 2.625H376.087V3.625H377.087V2.625ZM378.65 2.625H379.65V1.625H378.65V2.625ZM378.65 4.1875H377.65V5.1875H378.65V4.1875ZM380.212 4.1875H379.212V8.875H380.212H381.212V4.1875H380.212ZM380.212 8.875V7.875H378.65V8.875V9.875H380.212V8.875ZM378.65 8.875H377.65V10.4375H378.65H379.65V8.875H378.65ZM378.65 10.4375V9.4375H377.087V10.4375V11.4375H378.65V10.4375ZM377.087 10.4375H376.087V12H377.087H378.087V10.4375H377.087ZM377.087 12V11H375.525V12V13H377.087V12ZM375.525 12H376.525V10.4375H375.525H374.525V12H375.525ZM375.525 10.4375V11.4375H377.08V10.4375V9.4375H375.525V10.4375ZM377.08 10.4375H378.08V8.875H377.08H376.08V10.4375H377.08ZM377.08 8.875V9.875H378.642V8.875V7.875H377.08V8.875ZM378.642 8.875H379.642V4.1875H378.642H377.642V8.875H378.642ZM378.642 4.1875V3.1875H377.08V4.1875V5.1875H378.642V4.1875ZM377.08 4.1875H378.08V2.625H377.08H376.08V4.1875H377.08ZM377.08 2.625V1.625H375.525V2.625V3.625H377.08V2.625ZM375.525 2.625H376.525V1.0625H375.525H374.525V2.625H375.525ZM375.525 1.0625V2.0625H377.087V1.0625V0.0625H375.525V1.0625ZM377.087 1.0625H376.087V2.625H377.087H378.087V1.0625H377.087ZM377.087 2.625V3.625H378.65V2.625V1.625H377.087V2.625ZM378.65 2.625H377.65V4.1875H378.65H379.65V2.625H378.65ZM378.65 4.1875V5.1875H380.212V4.1875V3.1875H378.65V4.1875Z" fill="#222256" mask="url(#path-1-outside-1_43_4908)"/>
</g>
<defs>
<filter id="filter0_d_43_4908" x="0.5625" y="0.0625" width="380.65" height="14.9375" filterUnits="userSpaceOnUse" color-interpolation-filters="sRGB">
<feFlood flood-opacity="0" result="BackgroundImageFix"/>
<feColorMatrix in="SourceAlpha" type="matrix" values="0 0 0 0 0 0 0 0 0 0 0 0 0 0 0 0 0 0 127 0" result="hardAlpha"/>
<feOffset dy="2"/>
<feComposite in2="hardAlpha" operator="out"/>
<feColorMatrix type="matrix" values="0 0 0 0 0.388235 0 0 0 0 0.745098 0 0 0 0 0.027451 0 0 0 1 0"/>
<feBlend mode="normal" in2="BackgroundImageFix" result="effect1_dropShadow_43_4908"/>
<feBlend mode="normal" in="SourceGraphic" in2="effect1_dropShadow_43_4908" result="shape"/>
</filter>
</defs>
</svg>
