<svg width="720" height="36" viewBox="0 0 720 36" fill="none" xmlns="http://www.w3.org/2000/svg">
<g clip-path="url(#clip0_43_10047)">
<g filter="url(#filter0_d_43_10047)">
<path d="M7.99976 3.33569V32.6664H10.6677V29.9984H13.3344V27.3317H16.0023V24.6664H18.6677L18.669 24.6639V22.0024H21.337V19.3345H23.9985V16.6678C23.1102 16.6691 22.2239 16.6665 21.337 16.6665V13.9998H18.6692V11.3331H16.0025V8.66515H13.3346V5.99848H10.6679V3.33573L7.99976 3.33569Z" fill="white"/>
<path d="M18.669 22.0024V24.6639L18.6677 24.6664H16.0023V27.3317H13.3344V29.9984H10.6677V32.6664H7.99976V3.33569L10.6679 3.33573V5.99848H13.3346V8.66515H16.0025V11.3331H18.6692V13.9998H21.337V16.6665C22.2239 16.6665 23.1102 16.6691 23.9985 16.6678V19.3345H21.337M18.669 22.0024L18.6677 21.9999M18.669 22.0024H21.337V19.3345M21.337 19.3345L21.3345 19.3331" stroke="#7E27E0" stroke-width="3"/>
</g>
</g>
<g filter="url(#filter1_d_43_10047)">
<mask id="path-3-outside-1_43_10047" maskUnits="userSpaceOnUse" x="78" y="0" width="561" height="32" fill="black">
<rect fill="white" x="78" width="561" height="32"/>
<path d="M99.5312 6.5625V30H91.7188V6.5625H87.8125V30H80V2.65625H103.457V6.5625H107.344V30H103.438V6.5625H99.5312ZM142.594 30H115.25V2.65625H142.594V6.5625H126.969V14.375H138.688V18.2812H126.969V26.0938H142.594V30ZM150.5 30V2.65625H173.938V6.5625H177.844V30H170.031V6.5625H162.219L162.238 30H150.5ZM213.094 2.65625V6.5625H205.281V30H193.562V6.5625H185.75V2.65625H213.094ZM244.438 30H224.906V26.0938H221V6.5625H224.906V2.65625H244.438V6.5625H248.344V26.0938H244.438V30ZM240.531 26.0938V6.5625H232.719V26.0938H240.531ZM256.25 30V2.65625H279.688V6.5625H283.594V14.375H279.688V18.2812H283.594V30H271.875V18.2812H264.082V30H256.25ZM267.969 6.5625V14.375H275.781V6.5625H267.969ZM291.5 22.1875H299.312V26.0938H311.031V18.2812H295.406V14.375H291.5V6.5625H295.406V2.65625H314.938V6.5625H318.844V10.4688H311.031V6.5625H303.219V14.375H314.938V18.2812H318.844V26.0938H314.938V30H295.406V26.0938H291.5V22.1875ZM362 6.5625H365.906V2.65625H385.457V6.5625H389.344V10.4688H385.438V6.5625H373.719V14.375H389.344V26.0938H385.438V30H365.906V26.0938H362V18.2812H365.906V14.375H362V6.5625ZM373.719 18.2812V26.0938H381.531V18.2812H373.719ZM444.219 26.0938V6.5625H440.312V2.65625H459.844V6.5625H455.938V26.0938H452.031V30H440.293V26.0938H436.406V22.1875H440.312V26.0938H444.219ZM479.469 2.65625V26.0938H487.281V2.65625H495.094V26.0938H491.188V30H471.656V26.0938H467.75V2.65625H479.469ZM503 30V2.65625H526.438V6.5625H530.344V26.0938H526.438V30H503ZM514.738 26.0938H522.531V6.5625H514.719L514.738 26.0938ZM565.594 14.375V26.0938H561.688V30H542.156V26.0938H538.25V6.5625H542.156V2.65625H561.707V6.5625H565.594V10.4688H561.688V6.5625H549.969V26.0938H557.781V18.2812H553.875L553.895 14.375H565.594ZM600.844 30H573.5V2.65625H600.844V6.5625H585.219V14.375H596.938V18.2812H585.219V26.0938H600.844V30ZM608.75 22.1875H616.562V26.0938H628.281V18.2812H612.656V14.375H608.75V6.5625H612.656V2.65625H632.188V6.5625H636.094V10.4688H628.281V6.5625H620.469V14.375H632.188V18.2812H636.094V26.0938H632.188V30H612.656V26.0938H608.75V22.1875Z"/>
</mask>
<path d="M99.5312 6.5625V30H91.7188V6.5625H87.8125V30H80V2.65625H103.457V6.5625H107.344V30H103.438V6.5625H99.5312ZM142.594 30H115.25V2.65625H142.594V6.5625H126.969V14.375H138.688V18.2812H126.969V26.0938H142.594V30ZM150.5 30V2.65625H173.938V6.5625H177.844V30H170.031V6.5625H162.219L162.238 30H150.5ZM213.094 2.65625V6.5625H205.281V30H193.562V6.5625H185.75V2.65625H213.094ZM244.438 30H224.906V26.0938H221V6.5625H224.906V2.65625H244.438V6.5625H248.344V26.0938H244.438V30ZM240.531 26.0938V6.5625H232.719V26.0938H240.531ZM256.25 30V2.65625H279.688V6.5625H283.594V14.375H279.688V18.2812H283.594V30H271.875V18.2812H264.082V30H256.25ZM267.969 6.5625V14.375H275.781V6.5625H267.969ZM291.5 22.1875H299.312V26.0938H311.031V18.2812H295.406V14.375H291.5V6.5625H295.406V2.65625H314.938V6.5625H318.844V10.4688H311.031V6.5625H303.219V14.375H314.938V18.2812H318.844V26.0938H314.938V30H295.406V26.0938H291.5V22.1875ZM362 6.5625H365.906V2.65625H385.457V6.5625H389.344V10.4688H385.438V6.5625H373.719V14.375H389.344V26.0938H385.438V30H365.906V26.0938H362V18.2812H365.906V14.375H362V6.5625ZM373.719 18.2812V26.0938H381.531V18.2812H373.719ZM444.219 26.0938V6.5625H440.312V2.65625H459.844V6.5625H455.938V26.0938H452.031V30H440.293V26.0938H436.406V22.1875H440.312V26.0938H444.219ZM479.469 2.65625V26.0938H487.281V2.65625H495.094V26.0938H491.188V30H471.656V26.0938H467.75V2.65625H479.469ZM503 30V2.65625H526.438V6.5625H530.344V26.0938H526.438V30H503ZM514.738 26.0938H522.531V6.5625H514.719L514.738 26.0938ZM565.594 14.375V26.0938H561.688V30H542.156V26.0938H538.25V6.5625H542.156V2.65625H561.707V6.5625H565.594V10.4688H561.688V6.5625H549.969V26.0938H557.781V18.2812H553.875L553.895 14.375H565.594ZM600.844 30H573.5V2.65625H600.844V6.5625H585.219V14.375H596.938V18.2812H585.219V26.0938H600.844V30ZM608.75 22.1875H616.562V26.0938H628.281V18.2812H612.656V14.375H608.75V6.5625H612.656V2.65625H632.188V6.5625H636.094V10.4688H628.281V6.5625H620.469V14.375H632.188V18.2812H636.094V26.0938H632.188V30H612.656V26.0938H608.75V22.1875Z" fill="white"/>
<path d="M99.5312 6.5625V4.5625H97.5312V6.5625H99.5312ZM99.5312 30V32H101.531V30H99.5312ZM91.7188 30H89.7188V32H91.7188V30ZM91.7188 6.5625H93.7188V4.5625H91.7188V6.5625ZM87.8125 6.5625V4.5625H85.8125V6.5625H87.8125ZM87.8125 30V32H89.8125V30H87.8125ZM80 30H78V32H80V30ZM80 2.65625V0.65625H78V2.65625H80ZM103.457 2.65625H105.457V0.65625H103.457V2.65625ZM103.457 6.5625H101.457V8.5625H103.457V6.5625ZM107.344 6.5625H109.344V4.5625H107.344V6.5625ZM107.344 30V32H109.344V30H107.344ZM103.438 30H101.438V32H103.438V30ZM103.438 6.5625H105.438V4.5625H103.438V6.5625ZM99.5312 6.5625H97.5312V30H99.5312H101.531V6.5625H99.5312ZM99.5312 30V28H91.7188V30V32H99.5312V30ZM91.7188 30H93.7188V6.5625H91.7188H89.7188V30H91.7188ZM91.7188 6.5625V4.5625H87.8125V6.5625V8.5625H91.7188V6.5625ZM87.8125 6.5625H85.8125V30H87.8125H89.8125V6.5625H87.8125ZM87.8125 30V28H80V30V32H87.8125V30ZM80 30H82V2.65625H80H78V30H80ZM80 2.65625V4.65625H103.457V2.65625V0.65625H80V2.65625ZM103.457 2.65625H101.457V6.5625H103.457H105.457V2.65625H103.457ZM103.457 6.5625V8.5625H107.344V6.5625V4.5625H103.457V6.5625ZM107.344 6.5625H105.344V30H107.344H109.344V6.5625H107.344ZM107.344 30V28H103.438V30V32H107.344V30ZM103.438 30H105.438V6.5625H103.438H101.438V30H103.438ZM103.438 6.5625V4.5625H99.5312V6.5625V8.5625H103.438V6.5625ZM142.594 30V32H144.594V30H142.594ZM115.25 30H113.25V32H115.25V30ZM115.25 2.65625V0.65625H113.25V2.65625H115.25ZM142.594 2.65625H144.594V0.65625H142.594V2.65625ZM142.594 6.5625V8.5625H144.594V6.5625H142.594ZM126.969 6.5625V4.5625H124.969V6.5625H126.969ZM126.969 14.375H124.969V16.375H126.969V14.375ZM138.688 14.375H140.688V12.375H138.688V14.375ZM138.688 18.2812V20.2812H140.688V18.2812H138.688ZM126.969 18.2812V16.2812H124.969V18.2812H126.969ZM126.969 26.0938H124.969V28.0938H126.969V26.0938ZM142.594 26.0938H144.594V24.0938H142.594V26.0938ZM142.594 30V28H115.25V30V32H142.594V30ZM115.25 30H117.25V2.65625H115.25H113.25V30H115.25ZM115.25 2.65625V4.65625H142.594V2.65625V0.65625H115.25V2.65625ZM142.594 2.65625H140.594V6.5625H142.594H144.594V2.65625H142.594ZM142.594 6.5625V4.5625H126.969V6.5625V8.5625H142.594V6.5625ZM126.969 6.5625H124.969V14.375H126.969H128.969V6.5625H126.969ZM126.969 14.375V16.375H138.688V14.375V12.375H126.969V14.375ZM138.688 14.375H136.688V18.2812H138.688H140.688V14.375H138.688ZM138.688 18.2812V16.2812H126.969V18.2812V20.2812H138.688V18.2812ZM126.969 18.2812H124.969V26.0938H126.969H128.969V18.2812H126.969ZM126.969 26.0938V28.0938H142.594V26.0938V24.0938H126.969V26.0938ZM142.594 26.0938H140.594V30H142.594H144.594V26.0938H142.594ZM150.5 30H148.5V32H150.5V30ZM150.5 2.65625V0.65625H148.5V2.65625H150.5ZM173.938 2.65625H175.938V0.65625H173.938V2.65625ZM173.938 6.5625H171.938V8.5625H173.938V6.5625ZM177.844 6.5625H179.844V4.5625H177.844V6.5625ZM177.844 30V32H179.844V30H177.844ZM170.031 30H168.031V32H170.031V30ZM170.031 6.5625H172.031V4.5625H170.031V6.5625ZM162.219 6.5625V4.5625H160.217L160.219 6.56417L162.219 6.5625ZM162.238 30V32H164.24L164.238 29.9983L162.238 30ZM150.5 30H152.5V2.65625H150.5H148.5V30H150.5ZM150.5 2.65625V4.65625H173.938V2.65625V0.65625H150.5V2.65625ZM173.938 2.65625H171.938V6.5625H173.938H175.938V2.65625H173.938ZM173.938 6.5625V8.5625H177.844V6.5625V4.5625H173.938V6.5625ZM177.844 6.5625H175.844V30H177.844H179.844V6.5625H177.844ZM177.844 30V28H170.031V30V32H177.844V30ZM170.031 30H172.031V6.5625H170.031H168.031V30H170.031ZM170.031 6.5625V4.5625H162.219V6.5625V8.5625H170.031V6.5625ZM162.219 6.5625L160.219 6.56417L160.238 30.0017L162.238 30L164.238 29.9983L164.219 6.56083L162.219 6.5625ZM162.238 30V28H150.5V30V32H162.238V30ZM213.094 2.65625H215.094V0.65625H213.094V2.65625ZM213.094 6.5625V8.5625H215.094V6.5625H213.094ZM205.281 6.5625V4.5625H203.281V6.5625H205.281ZM205.281 30V32H207.281V30H205.281ZM193.562 30H191.562V32H193.562V30ZM193.562 6.5625H195.562V4.5625H193.562V6.5625ZM185.75 6.5625H183.75V8.5625H185.75V6.5625ZM185.75 2.65625V0.65625H183.75V2.65625H185.75ZM213.094 2.65625H211.094V6.5625H213.094H215.094V2.65625H213.094ZM213.094 6.5625V4.5625H205.281V6.5625V8.5625H213.094V6.5625ZM205.281 6.5625H203.281V30H205.281H207.281V6.5625H205.281ZM205.281 30V28H193.562V30V32H205.281V30ZM193.562 30H195.562V6.5625H193.562H191.562V30H193.562ZM193.562 6.5625V4.5625H185.75V6.5625V8.5625H193.562V6.5625ZM185.75 6.5625H187.75V2.65625H185.75H183.75V6.5625H185.75ZM185.75 2.65625V4.65625H213.094V2.65625V0.65625H185.75V2.65625ZM244.438 30V32H246.438V30H244.438ZM224.906 30H222.906V32H224.906V30ZM224.906 26.0938H226.906V24.0938H224.906V26.0938ZM221 26.0938H219V28.0938H221V26.0938ZM221 6.5625V4.5625H219V6.5625H221ZM224.906 6.5625V8.5625H226.906V6.5625H224.906ZM224.906 2.65625V0.65625H222.906V2.65625H224.906ZM244.438 2.65625H246.438V0.65625H244.438V2.65625ZM244.438 6.5625H242.438V8.5625H244.438V6.5625ZM248.344 6.5625H250.344V4.5625H248.344V6.5625ZM248.344 26.0938V28.0938H250.344V26.0938H248.344ZM244.438 26.0938V24.0938H242.438V26.0938H244.438ZM240.531 26.0938V28.0938H242.531V26.0938H240.531ZM240.531 6.5625H242.531V4.5625H240.531V6.5625ZM232.719 6.5625V4.5625H230.719V6.5625H232.719ZM232.719 26.0938H230.719V28.0938H232.719V26.0938ZM244.438 30V28H224.906V30V32H244.438V30ZM224.906 30H226.906V26.0938H224.906H222.906V30H224.906ZM224.906 26.0938V24.0938H221V26.0938V28.0938H224.906V26.0938ZM221 26.0938H223V6.5625H221H219V26.0938H221ZM221 6.5625V8.5625H224.906V6.5625V4.5625H221V6.5625ZM224.906 6.5625H226.906V2.65625H224.906H222.906V6.5625H224.906ZM224.906 2.65625V4.65625H244.438V2.65625V0.65625H224.906V2.65625ZM244.438 2.65625H242.438V6.5625H244.438H246.438V2.65625H244.438ZM244.438 6.5625V8.5625H248.344V6.5625V4.5625H244.438V6.5625ZM248.344 6.5625H246.344V26.0938H248.344H250.344V6.5625H248.344ZM248.344 26.0938V24.0938H244.438V26.0938V28.0938H248.344V26.0938ZM244.438 26.0938H242.438V30H244.438H246.438V26.0938H244.438ZM240.531 26.0938H242.531V6.5625H240.531H238.531V26.0938H240.531ZM240.531 6.5625V4.5625H232.719V6.5625V8.5625H240.531V6.5625ZM232.719 6.5625H230.719V26.0938H232.719H234.719V6.5625H232.719ZM232.719 26.0938V28.0938H240.531V26.0938V24.0938H232.719V26.0938ZM256.25 30H254.25V32H256.25V30ZM256.25 2.65625V0.65625H254.25V2.65625H256.25ZM279.688 2.65625H281.688V0.65625H279.688V2.65625ZM279.688 6.5625H277.688V8.5625H279.688V6.5625ZM283.594 6.5625H285.594V4.5625H283.594V6.5625ZM283.594 14.375V16.375H285.594V14.375H283.594ZM279.688 14.375V12.375H277.688V14.375H279.688ZM279.688 18.2812H277.688V20.2812H279.688V18.2812ZM283.594 18.2812H285.594V16.2812H283.594V18.2812ZM283.594 30V32H285.594V30H283.594ZM271.875 30H269.875V32H271.875V30ZM271.875 18.2812H273.875V16.2812H271.875V18.2812ZM264.082 18.2812V16.2812H262.082V18.2812H264.082ZM264.082 30V32H266.082V30H264.082ZM267.969 6.5625V4.5625H265.969V6.5625H267.969ZM267.969 14.375H265.969V16.375H267.969V14.375ZM275.781 14.375V16.375H277.781V14.375H275.781ZM275.781 6.5625H277.781V4.5625H275.781V6.5625ZM256.25 30H258.25V2.65625H256.25H254.25V30H256.25ZM256.25 2.65625V4.65625H279.688V2.65625V0.65625H256.25V2.65625ZM279.688 2.65625H277.688V6.5625H279.688H281.688V2.65625H279.688ZM279.688 6.5625V8.5625H283.594V6.5625V4.5625H279.688V6.5625ZM283.594 6.5625H281.594V14.375H283.594H285.594V6.5625H283.594ZM283.594 14.375V12.375H279.688V14.375V16.375H283.594V14.375ZM279.688 14.375H277.688V18.2812H279.688H281.688V14.375H279.688ZM279.688 18.2812V20.2812H283.594V18.2812V16.2812H279.688V18.2812ZM283.594 18.2812H281.594V30H283.594H285.594V18.2812H283.594ZM283.594 30V28H271.875V30V32H283.594V30ZM271.875 30H273.875V18.2812H271.875H269.875V30H271.875ZM271.875 18.2812V16.2812H264.082V18.2812V20.2812H271.875V18.2812ZM264.082 18.2812H262.082V30H264.082H266.082V18.2812H264.082ZM264.082 30V28H256.25V30V32H264.082V30ZM267.969 6.5625H265.969V14.375H267.969H269.969V6.5625H267.969ZM267.969 14.375V16.375H275.781V14.375V12.375H267.969V14.375ZM275.781 14.375H277.781V6.5625H275.781H273.781V14.375H275.781ZM275.781 6.5625V4.5625H267.969V6.5625V8.5625H275.781V6.5625ZM291.5 22.1875V20.1875H289.5V22.1875H291.5ZM299.312 22.1875H301.312V20.1875H299.312V22.1875ZM299.312 26.0938H297.312V28.0938H299.312V26.0938ZM311.031 26.0938V28.0938H313.031V26.0938H311.031ZM311.031 18.2812H313.031V16.2812H311.031V18.2812ZM295.406 18.2812H293.406V20.2812H295.406V18.2812ZM295.406 14.375H297.406V12.375H295.406V14.375ZM291.5 14.375H289.5V16.375H291.5V14.375ZM291.5 6.5625V4.5625H289.5V6.5625H291.5ZM295.406 6.5625V8.5625H297.406V6.5625H295.406ZM295.406 2.65625V0.65625H293.406V2.65625H295.406ZM314.938 2.65625H316.938V0.65625H314.938V2.65625ZM314.938 6.5625H312.938V8.5625H314.938V6.5625ZM318.844 6.5625H320.844V4.5625H318.844V6.5625ZM318.844 10.4688V12.4688H320.844V10.4688H318.844ZM311.031 10.4688H309.031V12.4688H311.031V10.4688ZM311.031 6.5625H313.031V4.5625H311.031V6.5625ZM303.219 6.5625V4.5625H301.219V6.5625H303.219ZM303.219 14.375H301.219V16.375H303.219V14.375ZM314.938 14.375H316.938V12.375H314.938V14.375ZM314.938 18.2812H312.938V20.2812H314.938V18.2812ZM318.844 18.2812H320.844V16.2812H318.844V18.2812ZM318.844 26.0938V28.0938H320.844V26.0938H318.844ZM314.938 26.0938V24.0938H312.938V26.0938H314.938ZM314.938 30V32H316.938V30H314.938ZM295.406 30H293.406V32H295.406V30ZM295.406 26.0938H297.406V24.0938H295.406V26.0938ZM291.5 26.0938H289.5V28.0938H291.5V26.0938ZM291.5 22.1875V24.1875H299.312V22.1875V20.1875H291.5V22.1875ZM299.312 22.1875H297.312V26.0938H299.312H301.312V22.1875H299.312ZM299.312 26.0938V28.0938H311.031V26.0938V24.0938H299.312V26.0938ZM311.031 26.0938H313.031V18.2812H311.031H309.031V26.0938H311.031ZM311.031 18.2812V16.2812H295.406V18.2812V20.2812H311.031V18.2812ZM295.406 18.2812H297.406V14.375H295.406H293.406V18.2812H295.406ZM295.406 14.375V12.375H291.5V14.375V16.375H295.406V14.375ZM291.5 14.375H293.5V6.5625H291.5H289.5V14.375H291.5ZM291.5 6.5625V8.5625H295.406V6.5625V4.5625H291.5V6.5625ZM295.406 6.5625H297.406V2.65625H295.406H293.406V6.5625H295.406ZM295.406 2.65625V4.65625H314.938V2.65625V0.65625H295.406V2.65625ZM314.938 2.65625H312.938V6.5625H314.938H316.938V2.65625H314.938ZM314.938 6.5625V8.5625H318.844V6.5625V4.5625H314.938V6.5625ZM318.844 6.5625H316.844V10.4688H318.844H320.844V6.5625H318.844ZM318.844 10.4688V8.46875H311.031V10.4688V12.4688H318.844V10.4688ZM311.031 10.4688H313.031V6.5625H311.031H309.031V10.4688H311.031ZM311.031 6.5625V4.5625H303.219V6.5625V8.5625H311.031V6.5625ZM303.219 6.5625H301.219V14.375H303.219H305.219V6.5625H303.219ZM303.219 14.375V16.375H314.938V14.375V12.375H303.219V14.375ZM314.938 14.375H312.938V18.2812H314.938H316.938V14.375H314.938ZM314.938 18.2812V20.2812H318.844V18.2812V16.2812H314.938V18.2812ZM318.844 18.2812H316.844V26.0938H318.844H320.844V18.2812H318.844ZM318.844 26.0938V24.0938H314.938V26.0938V28.0938H318.844V26.0938ZM314.938 26.0938H312.938V30H314.938H316.938V26.0938H314.938ZM314.938 30V28H295.406V30V32H314.938V30ZM295.406 30H297.406V26.0938H295.406H293.406V30H295.406ZM295.406 26.0938V24.0938H291.5V26.0938V28.0938H295.406V26.0938ZM291.5 26.0938H293.5V22.1875H291.5H289.5V26.0938H291.5ZM362 6.5625V4.5625H360V6.5625H362ZM365.906 6.5625V8.5625H367.906V6.5625H365.906ZM365.906 2.65625V0.65625H363.906V2.65625H365.906ZM385.457 2.65625H387.457V0.65625H385.457V2.65625ZM385.457 6.5625H383.457V8.5625H385.457V6.5625ZM389.344 6.5625H391.344V4.5625H389.344V6.5625ZM389.344 10.4688V12.4688H391.344V10.4688H389.344ZM385.438 10.4688H383.438V12.4688H385.438V10.4688ZM385.438 6.5625H387.438V4.5625H385.438V6.5625ZM373.719 6.5625V4.5625H371.719V6.5625H373.719ZM373.719 14.375H371.719V16.375H373.719V14.375ZM389.344 14.375H391.344V12.375H389.344V14.375ZM389.344 26.0938V28.0938H391.344V26.0938H389.344ZM385.438 26.0938V24.0938H383.438V26.0938H385.438ZM385.438 30V32H387.438V30H385.438ZM365.906 30H363.906V32H365.906V30ZM365.906 26.0938H367.906V24.0938H365.906V26.0938ZM362 26.0938H360V28.0938H362V26.0938ZM362 18.2812V16.2812H360V18.2812H362ZM365.906 18.2812V20.2812H367.906V18.2812H365.906ZM365.906 14.375H367.906V12.375H365.906V14.375ZM362 14.375H360V16.375H362V14.375ZM373.719 18.2812V16.2812H371.719V18.2812H373.719ZM373.719 26.0938H371.719V28.0938H373.719V26.0938ZM381.531 26.0938V28.0938H383.531V26.0938H381.531ZM381.531 18.2812H383.531V16.2812H381.531V18.2812ZM362 6.5625V8.5625H365.906V6.5625V4.5625H362V6.5625ZM365.906 6.5625H367.906V2.65625H365.906H363.906V6.5625H365.906ZM365.906 2.65625V4.65625H385.457V2.65625V0.65625H365.906V2.65625ZM385.457 2.65625H383.457V6.5625H385.457H387.457V2.65625H385.457ZM385.457 6.5625V8.5625H389.344V6.5625V4.5625H385.457V6.5625ZM389.344 6.5625H387.344V10.4688H389.344H391.344V6.5625H389.344ZM389.344 10.4688V8.46875H385.438V10.4688V12.4688H389.344V10.4688ZM385.438 10.4688H387.438V6.5625H385.438H383.438V10.4688H385.438ZM385.438 6.5625V4.5625H373.719V6.5625V8.5625H385.438V6.5625ZM373.719 6.5625H371.719V14.375H373.719H375.719V6.5625H373.719ZM373.719 14.375V16.375H389.344V14.375V12.375H373.719V14.375ZM389.344 14.375H387.344V26.0938H389.344H391.344V14.375H389.344ZM389.344 26.0938V24.0938H385.438V26.0938V28.0938H389.344V26.0938ZM385.438 26.0938H383.438V30H385.438H387.438V26.0938H385.438ZM385.438 30V28H365.906V30V32H385.438V30ZM365.906 30H367.906V26.0938H365.906H363.906V30H365.906ZM365.906 26.0938V24.0938H362V26.0938V28.0938H365.906V26.0938ZM362 26.0938H364V18.2812H362H360V26.0938H362ZM362 18.2812V20.2812H365.906V18.2812V16.2812H362V18.2812ZM365.906 18.2812H367.906V14.375H365.906H363.906V18.2812H365.906ZM365.906 14.375V12.375H362V14.375V16.375H365.906V14.375ZM362 14.375H364V6.5625H362H360V14.375H362ZM373.719 18.2812H371.719V26.0938H373.719H375.719V18.2812H373.719ZM373.719 26.0938V28.0938H381.531V26.0938V24.0938H373.719V26.0938ZM381.531 26.0938H383.531V18.2812H381.531H379.531V26.0938H381.531ZM381.531 18.2812V16.2812H373.719V18.2812V20.2812H381.531V18.2812ZM444.219 26.0938V28.0938H446.219V26.0938H444.219ZM444.219 6.5625H446.219V4.5625H444.219V6.5625ZM440.312 6.5625H438.312V8.5625H440.312V6.5625ZM440.312 2.65625V0.65625H438.312V2.65625H440.312ZM459.844 2.65625H461.844V0.65625H459.844V2.65625ZM459.844 6.5625V8.5625H461.844V6.5625H459.844ZM455.938 6.5625V4.5625H453.938V6.5625H455.938ZM455.938 26.0938V28.0938H457.938V26.0938H455.938ZM452.031 26.0938V24.0938H450.031V26.0938H452.031ZM452.031 30V32H454.031V30H452.031ZM440.293 30H438.293V32H440.293V30ZM440.293 26.0938H442.293V24.0938H440.293V26.0938ZM436.406 26.0938H434.406V28.0938H436.406V26.0938ZM436.406 22.1875V20.1875H434.406V22.1875H436.406ZM440.312 22.1875H442.312V20.1875H440.312V22.1875ZM440.312 26.0938H438.312V28.0938H440.312V26.0938ZM444.219 26.0938H446.219V6.5625H444.219H442.219V26.0938H444.219ZM444.219 6.5625V4.5625H440.312V6.5625V8.5625H444.219V6.5625ZM440.312 6.5625H442.312V2.65625H440.312H438.312V6.5625H440.312ZM440.312 2.65625V4.65625H459.844V2.65625V0.65625H440.312V2.65625ZM459.844 2.65625H457.844V6.5625H459.844H461.844V2.65625H459.844ZM459.844 6.5625V4.5625H455.938V6.5625V8.5625H459.844V6.5625ZM455.938 6.5625H453.938V26.0938H455.938H457.938V6.5625H455.938ZM455.938 26.0938V24.0938H452.031V26.0938V28.0938H455.938V26.0938ZM452.031 26.0938H450.031V30H452.031H454.031V26.0938H452.031ZM452.031 30V28H440.293V30V32H452.031V30ZM440.293 30H442.293V26.0938H440.293H438.293V30H440.293ZM440.293 26.0938V24.0938H436.406V26.0938V28.0938H440.293V26.0938ZM436.406 26.0938H438.406V22.1875H436.406H434.406V26.0938H436.406ZM436.406 22.1875V24.1875H440.312V22.1875V20.1875H436.406V22.1875ZM440.312 22.1875H438.312V26.0938H440.312H442.312V22.1875H440.312ZM440.312 26.0938V28.0938H444.219V26.0938V24.0938H440.312V26.0938ZM479.469 2.65625H481.469V0.65625H479.469V2.65625ZM479.469 26.0938H477.469V28.0938H479.469V26.0938ZM487.281 26.0938V28.0938H489.281V26.0938H487.281ZM487.281 2.65625V0.65625H485.281V2.65625H487.281ZM495.094 2.65625H497.094V0.65625H495.094V2.65625ZM495.094 26.0938V28.0938H497.094V26.0938H495.094ZM491.188 26.0938V24.0938H489.188V26.0938H491.188ZM491.188 30V32H493.188V30H491.188ZM471.656 30H469.656V32H471.656V30ZM471.656 26.0938H473.656V24.0938H471.656V26.0938ZM467.75 26.0938H465.75V28.0938H467.75V26.0938ZM467.75 2.65625V0.65625H465.75V2.65625H467.75ZM479.469 2.65625H477.469V26.0938H479.469H481.469V2.65625H479.469ZM479.469 26.0938V28.0938H487.281V26.0938V24.0938H479.469V26.0938ZM487.281 26.0938H489.281V2.65625H487.281H485.281V26.0938H487.281ZM487.281 2.65625V4.65625H495.094V2.65625V0.65625H487.281V2.65625ZM495.094 2.65625H493.094V26.0938H495.094H497.094V2.65625H495.094ZM495.094 26.0938V24.0938H491.188V26.0938V28.0938H495.094V26.0938ZM491.188 26.0938H489.188V30H491.188H493.188V26.0938H491.188ZM491.188 30V28H471.656V30V32H491.188V30ZM471.656 30H473.656V26.0938H471.656H469.656V30H471.656ZM471.656 26.0938V24.0938H467.75V26.0938V28.0938H471.656V26.0938ZM467.75 26.0938H469.75V2.65625H467.75H465.75V26.0938H467.75ZM467.75 2.65625V4.65625H479.469V2.65625V0.65625H467.75V2.65625ZM503 30H501V32H503V30ZM503 2.65625V0.65625H501V2.65625H503ZM526.438 2.65625H528.438V0.65625H526.438V2.65625ZM526.438 6.5625H524.438V8.5625H526.438V6.5625ZM530.344 6.5625H532.344V4.5625H530.344V6.5625ZM530.344 26.0938V28.0938H532.344V26.0938H530.344ZM526.438 26.0938V24.0938H524.438V26.0938H526.438ZM526.438 30V32H528.438V30H526.438ZM514.738 26.0938L512.738 26.0958L512.74 28.0938H514.738V26.0938ZM522.531 26.0938V28.0938H524.531V26.0938H522.531ZM522.531 6.5625H524.531V4.5625H522.531V6.5625ZM514.719 6.5625V4.5625H512.717L512.719 6.5645L514.719 6.5625ZM503 30H505V2.65625H503H501V30H503ZM503 2.65625V4.65625H526.438V2.65625V0.65625H503V2.65625ZM526.438 2.65625H524.438V6.5625H526.438H528.438V2.65625H526.438ZM526.438 6.5625V8.5625H530.344V6.5625V4.5625H526.438V6.5625ZM530.344 6.5625H528.344V26.0938H530.344H532.344V6.5625H530.344ZM530.344 26.0938V24.0938H526.438V26.0938V28.0938H530.344V26.0938ZM526.438 26.0938H524.438V30H526.438H528.438V26.0938H526.438ZM526.438 30V28H503V30V32H526.438V30ZM514.738 26.0938V28.0938H522.531V26.0938V24.0938H514.738V26.0938ZM522.531 26.0938H524.531V6.5625H522.531H520.531V26.0938H522.531ZM522.531 6.5625V4.5625H514.719V6.5625V8.5625H522.531V6.5625ZM514.719 6.5625L512.719 6.5645L512.738 26.0958L514.738 26.0938L516.738 26.0917L516.719 6.5605L514.719 6.5625ZM565.594 14.375H567.594V12.375H565.594V14.375ZM565.594 26.0938V28.0938H567.594V26.0938H565.594ZM561.688 26.0938V24.0938H559.688V26.0938H561.688ZM561.688 30V32H563.688V30H561.688ZM542.156 30H540.156V32H542.156V30ZM542.156 26.0938H544.156V24.0938H542.156V26.0938ZM538.25 26.0938H536.25V28.0938H538.25V26.0938ZM538.25 6.5625V4.5625H536.25V6.5625H538.25ZM542.156 6.5625V8.5625H544.156V6.5625H542.156ZM542.156 2.65625V0.65625H540.156V2.65625H542.156ZM561.707 2.65625H563.707V0.65625H561.707V2.65625ZM561.707 6.5625H559.707V8.5625H561.707V6.5625ZM565.594 6.5625H567.594V4.5625H565.594V6.5625ZM565.594 10.4688V12.4688H567.594V10.4688H565.594ZM561.688 10.4688H559.688V12.4688H561.688V10.4688ZM561.688 6.5625H563.688V4.5625H561.688V6.5625ZM549.969 6.5625V4.5625H547.969V6.5625H549.969ZM549.969 26.0938H547.969V28.0938H549.969V26.0938ZM557.781 26.0938V28.0938H559.781V26.0938H557.781ZM557.781 18.2812H559.781V16.2812H557.781V18.2812ZM553.875 18.2812L551.875 18.2712L551.865 20.2812H553.875V18.2812ZM553.895 14.375V12.375H551.905L551.895 14.365L553.895 14.375ZM565.594 14.375H563.594V26.0938H565.594H567.594V14.375H565.594ZM565.594 26.0938V24.0938H561.688V26.0938V28.0938H565.594V26.0938ZM561.688 26.0938H559.688V30H561.688H563.688V26.0938H561.688ZM561.688 30V28H542.156V30V32H561.688V30ZM542.156 30H544.156V26.0938H542.156H540.156V30H542.156ZM542.156 26.0938V24.0938H538.25V26.0938V28.0938H542.156V26.0938ZM538.25 26.0938H540.25V6.5625H538.25H536.25V26.0938H538.25ZM538.25 6.5625V8.5625H542.156V6.5625V4.5625H538.25V6.5625ZM542.156 6.5625H544.156V2.65625H542.156H540.156V6.5625H542.156ZM542.156 2.65625V4.65625H561.707V2.65625V0.65625H542.156V2.65625ZM561.707 2.65625H559.707V6.5625H561.707H563.707V2.65625H561.707ZM561.707 6.5625V8.5625H565.594V6.5625V4.5625H561.707V6.5625ZM565.594 6.5625H563.594V10.4688H565.594H567.594V6.5625H565.594ZM565.594 10.4688V8.46875H561.688V10.4688V12.4688H565.594V10.4688ZM561.688 10.4688H563.688V6.5625H561.688H559.688V10.4688H561.688ZM561.688 6.5625V4.5625H549.969V6.5625V8.5625H561.688V6.5625ZM549.969 6.5625H547.969V26.0938H549.969H551.969V6.5625H549.969ZM549.969 26.0938V28.0938H557.781V26.0938V24.0938H549.969V26.0938ZM557.781 26.0938H559.781V18.2812H557.781H555.781V26.0938H557.781ZM557.781 18.2812V16.2812H553.875V18.2812V20.2812H557.781V18.2812ZM553.875 18.2812L555.875 18.2913L555.895 14.385L553.895 14.375L551.895 14.365L551.875 18.2712L553.875 18.2812ZM553.895 14.375V16.375H565.594V14.375V12.375H553.895V14.375ZM600.844 30V32H602.844V30H600.844ZM573.5 30H571.5V32H573.5V30ZM573.5 2.65625V0.65625H571.5V2.65625H573.5ZM600.844 2.65625H602.844V0.65625H600.844V2.65625ZM600.844 6.5625V8.5625H602.844V6.5625H600.844ZM585.219 6.5625V4.5625H583.219V6.5625H585.219ZM585.219 14.375H583.219V16.375H585.219V14.375ZM596.938 14.375H598.938V12.375H596.938V14.375ZM596.938 18.2812V20.2812H598.938V18.2812H596.938ZM585.219 18.2812V16.2812H583.219V18.2812H585.219ZM585.219 26.0938H583.219V28.0938H585.219V26.0938ZM600.844 26.0938H602.844V24.0938H600.844V26.0938ZM600.844 30V28H573.5V30V32H600.844V30ZM573.5 30H575.5V2.65625H573.5H571.5V30H573.5ZM573.5 2.65625V4.65625H600.844V2.65625V0.65625H573.5V2.65625ZM600.844 2.65625H598.844V6.5625H600.844H602.844V2.65625H600.844ZM600.844 6.5625V4.5625H585.219V6.5625V8.5625H600.844V6.5625ZM585.219 6.5625H583.219V14.375H585.219H587.219V6.5625H585.219ZM585.219 14.375V16.375H596.938V14.375V12.375H585.219V14.375ZM596.938 14.375H594.938V18.2812H596.938H598.938V14.375H596.938ZM596.938 18.2812V16.2812H585.219V18.2812V20.2812H596.938V18.2812ZM585.219 18.2812H583.219V26.0938H585.219H587.219V18.2812H585.219ZM585.219 26.0938V28.0938H600.844V26.0938V24.0938H585.219V26.0938ZM600.844 26.0938H598.844V30H600.844H602.844V26.0938H600.844ZM608.75 22.1875V20.1875H606.75V22.1875H608.75ZM616.562 22.1875H618.562V20.1875H616.562V22.1875ZM616.562 26.0938H614.562V28.0938H616.562V26.0938ZM628.281 26.0938V28.0938H630.281V26.0938H628.281ZM628.281 18.2812H630.281V16.2812H628.281V18.2812ZM612.656 18.2812H610.656V20.2812H612.656V18.2812ZM612.656 14.375H614.656V12.375H612.656V14.375ZM608.75 14.375H606.75V16.375H608.75V14.375ZM608.75 6.5625V4.5625H606.75V6.5625H608.75ZM612.656 6.5625V8.5625H614.656V6.5625H612.656ZM612.656 2.65625V0.65625H610.656V2.65625H612.656ZM632.188 2.65625H634.188V0.65625H632.188V2.65625ZM632.188 6.5625H630.188V8.5625H632.188V6.5625ZM636.094 6.5625H638.094V4.5625H636.094V6.5625ZM636.094 10.4688V12.4688H638.094V10.4688H636.094ZM628.281 10.4688H626.281V12.4688H628.281V10.4688ZM628.281 6.5625H630.281V4.5625H628.281V6.5625ZM620.469 6.5625V4.5625H618.469V6.5625H620.469ZM620.469 14.375H618.469V16.375H620.469V14.375ZM632.188 14.375H634.188V12.375H632.188V14.375ZM632.188 18.2812H630.188V20.2812H632.188V18.2812ZM636.094 18.2812H638.094V16.2812H636.094V18.2812ZM636.094 26.0938V28.0938H638.094V26.0938H636.094ZM632.188 26.0938V24.0938H630.188V26.0938H632.188ZM632.188 30V32H634.188V30H632.188ZM612.656 30H610.656V32H612.656V30ZM612.656 26.0938H614.656V24.0938H612.656V26.0938ZM608.75 26.0938H606.75V28.0938H608.75V26.0938ZM608.75 22.1875V24.1875H616.562V22.1875V20.1875H608.75V22.1875ZM616.562 22.1875H614.562V26.0938H616.562H618.562V22.1875H616.562ZM616.562 26.0938V28.0938H628.281V26.0938V24.0938H616.562V26.0938ZM628.281 26.0938H630.281V18.2812H628.281H626.281V26.0938H628.281ZM628.281 18.2812V16.2812H612.656V18.2812V20.2812H628.281V18.2812ZM612.656 18.2812H614.656V14.375H612.656H610.656V18.2812H612.656ZM612.656 14.375V12.375H608.75V14.375V16.375H612.656V14.375ZM608.75 14.375H610.75V6.5625H608.75H606.75V14.375H608.75ZM608.75 6.5625V8.5625H612.656V6.5625V4.5625H608.75V6.5625ZM612.656 6.5625H614.656V2.65625H612.656H610.656V6.5625H612.656ZM612.656 2.65625V4.65625H632.188V2.65625V0.65625H612.656V2.65625ZM632.188 2.65625H630.188V6.5625H632.188H634.188V2.65625H632.188ZM632.188 6.5625V8.5625H636.094V6.5625V4.5625H632.188V6.5625ZM636.094 6.5625H634.094V10.4688H636.094H638.094V6.5625H636.094ZM636.094 10.4688V8.46875H628.281V10.4688V12.4688H636.094V10.4688ZM628.281 10.4688H630.281V6.5625H628.281H626.281V10.4688H628.281ZM628.281 6.5625V4.5625H620.469V6.5625V8.5625H628.281V6.5625ZM620.469 6.5625H618.469V14.375H620.469H622.469V6.5625H620.469ZM620.469 14.375V16.375H632.188V14.375V12.375H620.469V14.375ZM632.188 14.375H630.188V18.2812H632.188H634.188V14.375H632.188ZM632.188 18.2812V20.2812H636.094V18.2812V16.2812H632.188V18.2812ZM636.094 18.2812H634.094V26.0938H636.094H638.094V18.2812H636.094ZM636.094 26.0938V24.0938H632.188V26.0938V28.0938H636.094V26.0938ZM632.188 26.0938H630.188V30H632.188H634.188V26.0938H632.188ZM632.188 30V28H612.656V30V32H632.188V30ZM612.656 30H614.656V26.0938H612.656H610.656V30H612.656ZM612.656 26.0938V24.0938H608.75V26.0938V28.0938H612.656V26.0938ZM608.75 26.0938H610.75V22.1875H608.75H606.75V26.0938H608.75Z" fill="#7E27E0" mask="url(#path-3-outside-1_43_10047)"/>
</g>
<g clip-path="url(#clip1_43_10047)">
<g filter="url(#filter2_d_43_10047)">
<path d="M712 3.33569V32.6664H709.332V29.9984H706.666V27.3317H703.998V24.6664H701.332L701.331 24.6639V22.0024H698.663V19.3345H696.001V16.6678C696.89 16.6691 697.776 16.6665 698.663 16.6665V13.9998H701.331V11.3331H703.998V8.66515H706.665V5.99848H709.332V3.33573L712 3.33569Z" fill="white"/>
<path d="M701.331 22.0024V24.6639L701.332 24.6664H703.998V27.3317H706.666V29.9984H709.332V32.6664H712V3.33569L709.332 3.33573V5.99848H706.665V8.66515H703.998V11.3331H701.331V13.9998H698.663V16.6665C697.776 16.6665 696.89 16.6691 696.001 16.6678V19.3345H698.663M701.331 22.0024L701.332 21.9999M701.331 22.0024H698.663V19.3345M698.663 19.3345L698.665 19.3331" stroke="#7E27E0" stroke-width="3"/>
</g>
</g>
<defs>
<filter id="filter0_d_43_10047" x="6.49976" y="1.83569" width="18.9988" height="36.3308" filterUnits="userSpaceOnUse" color-interpolation-filters="sRGB">
<feFlood flood-opacity="0" result="BackgroundImageFix"/>
<feColorMatrix in="SourceAlpha" type="matrix" values="0 0 0 0 0 0 0 0 0 0 0 0 0 0 0 0 0 0 127 0" result="hardAlpha"/>
<feOffset dy="4"/>
<feComposite in2="hardAlpha" operator="out"/>
<feColorMatrix type="matrix" values="0 0 0 0 0.0892909 0 0 0 0 0.725962 0 0 0 0 0.0314118 0 0 0 1 0"/>
<feBlend mode="normal" in2="BackgroundImageFix" result="effect1_dropShadow_43_10047"/>
<feBlend mode="normal" in="SourceGraphic" in2="effect1_dropShadow_43_10047" result="shape"/>
</filter>
<filter id="filter1_d_43_10047" x="78" y="0.65625" width="560.094" height="35.3438" filterUnits="userSpaceOnUse" color-interpolation-filters="sRGB">
<feFlood flood-opacity="0" result="BackgroundImageFix"/>
<feColorMatrix in="SourceAlpha" type="matrix" values="0 0 0 0 0 0 0 0 0 0 0 0 0 0 0 0 0 0 127 0" result="hardAlpha"/>
<feOffset dy="4"/>
<feComposite in2="hardAlpha" operator="out"/>
<feColorMatrix type="matrix" values="0 0 0 0 0.0892909 0 0 0 0 0.725962 0 0 0 0 0.0314118 0 0 0 1 0"/>
<feBlend mode="normal" in2="BackgroundImageFix" result="effect1_dropShadow_43_10047"/>
<feBlend mode="normal" in="SourceGraphic" in2="effect1_dropShadow_43_10047" result="shape"/>
</filter>
<filter id="filter2_d_43_10047" x="694.501" y="1.83569" width="18.9987" height="36.3308" filterUnits="userSpaceOnUse" color-interpolation-filters="sRGB">
<feFlood flood-opacity="0" result="BackgroundImageFix"/>
<feColorMatrix in="SourceAlpha" type="matrix" values="0 0 0 0 0 0 0 0 0 0 0 0 0 0 0 0 0 0 127 0" result="hardAlpha"/>
<feOffset dy="4"/>
<feComposite in2="hardAlpha" operator="out"/>
<feColorMatrix type="matrix" values="0 0 0 0 0.0892909 0 0 0 0 0.725962 0 0 0 0 0.0314118 0 0 0 1 0"/>
<feBlend mode="normal" in2="BackgroundImageFix" result="effect1_dropShadow_43_10047"/>
<feBlend mode="normal" in="SourceGraphic" in2="effect1_dropShadow_43_10047" result="shape"/>
</filter>
<clipPath id="clip0_43_10047">
<rect width="32" height="32" fill="white" transform="translate(0 2)"/>
</clipPath>
<clipPath id="clip1_43_10047">
<rect width="32" height="32" fill="white" transform="matrix(-1 0 0 1 720 2)"/>
</clipPath>
</defs>
</svg>
