<svg width="800" height="36" viewBox="0 0 800 36" fill="none" xmlns="http://www.w3.org/2000/svg">
<g clip-path="url(#clip0_43_10047)">
<g filter="url(#filter0_d_43_10047)">
<path d="M87.9998 3.33569V32.6664H90.6677V29.9984H93.3344V27.3317H96.0023V24.6664H98.6677L98.669 24.6639V22.0024H101.337V19.3345H103.999V16.6678C103.11 16.6691 102.224 16.6665 101.337 16.6665V13.9998H98.6692V11.3331H96.0025V8.66515H93.3346V5.99848H90.6679V3.33573L87.9998 3.33569Z" fill="white"/>
<path d="M98.669 22.0024V24.6639L98.6677 24.6664H96.0023V27.3317H93.3344V29.9984H90.6677V32.6664H87.9998V3.33569L90.6679 3.33573V5.99848H93.3346V8.66515H96.0025V11.3331H98.6692V13.9998H101.337V16.6665C102.224 16.6665 103.11 16.6691 103.999 16.6678V19.3345H101.337M98.669 22.0024L98.6677 21.9999M98.669 22.0024H101.337V19.3345M101.337 19.3345L101.335 19.3331" stroke="#7E27E0" stroke-width="3"/>
</g>
</g>
<g filter="url(#filter1_d_43_10047)">
<mask id="path-3-outside-1_43_10047" maskUnits="userSpaceOnUse" x="158" y="0" width="561" height="32" fill="black">
<rect fill="white" x="158" width="561" height="32"/>
<path d="M179.531 6.5625V30H171.719V6.5625H167.812V30H160V2.65625H183.457V6.5625H187.344V30H183.438V6.5625H179.531ZM222.594 30H195.25V2.65625H222.594V6.5625H206.969V14.375H218.688V18.2812H206.969V26.0938H222.594V30ZM230.5 30V2.65625H253.938V6.5625H257.844V30H250.031V6.5625H242.219L242.238 30H230.5ZM293.094 2.65625V6.5625H285.281V30H273.562V6.5625H265.75V2.65625H293.094ZM324.438 30H304.906V26.0938H301V6.5625H304.906V2.65625H324.438V6.5625H328.344V26.0938H324.438V30ZM320.531 26.0938V6.5625H312.719V26.0938H320.531ZM336.25 30V2.65625H359.688V6.5625H363.594V14.375H359.688V18.2812H363.594V30H351.875V18.2812H344.082V30H336.25ZM347.969 6.5625V14.375H355.781V6.5625H347.969ZM371.5 22.1875H379.312V26.0938H391.031V18.2812H375.406V14.375H371.5V6.5625H375.406V2.65625H394.938V6.5625H398.844V10.4688H391.031V6.5625H383.219V14.375H394.938V18.2812H398.844V26.0938H394.938V30H375.406V26.0938H371.5V22.1875ZM442 6.5625H445.906V2.65625H465.457V6.5625H469.344V10.4688H465.438V6.5625H453.719V14.375H469.344V26.0938H465.438V30H445.906V26.0938H442V18.2812H445.906V14.375H442V6.5625ZM453.719 18.2812V26.0938H461.531V18.2812H453.719ZM524.219 26.0938V6.5625H520.312V2.65625H539.844V6.5625H535.938V26.0938H532.031V30H520.293V26.0938H516.406V22.1875H520.312V26.0938H524.219ZM559.469 2.65625V26.0938H567.281V2.65625H575.094V26.0938H571.188V30H551.656V26.0938H547.75V2.65625H559.469ZM583 30V2.65625H606.438V6.5625H610.344V26.0938H606.438V30H583ZM594.738 26.0938H602.531V6.5625H594.719L594.738 26.0938ZM645.594 14.375V26.0938H641.688V30H622.156V26.0938H618.25V6.5625H622.156V2.65625H641.707V6.5625H645.594V10.4688H641.688V6.5625H629.969V26.0938H637.781V18.2812H633.875L633.895 14.375H645.594ZM680.844 30H653.5V2.65625H680.844V6.5625H665.219V14.375H676.938V18.2812H665.219V26.0938H680.844V30ZM688.75 22.1875H696.562V26.0938H708.281V18.2812H692.656V14.375H688.75V6.5625H692.656V2.65625H712.188V6.5625H716.094V10.4688H708.281V6.5625H700.469V14.375H712.188V18.2812H716.094V26.0938H712.188V30H692.656V26.0938H688.75V22.1875Z"/>
</mask>
<path d="M179.531 6.5625V30H171.719V6.5625H167.812V30H160V2.65625H183.457V6.5625H187.344V30H183.438V6.5625H179.531ZM222.594 30H195.25V2.65625H222.594V6.5625H206.969V14.375H218.688V18.2812H206.969V26.0938H222.594V30ZM230.5 30V2.65625H253.938V6.5625H257.844V30H250.031V6.5625H242.219L242.238 30H230.5ZM293.094 2.65625V6.5625H285.281V30H273.562V6.5625H265.75V2.65625H293.094ZM324.438 30H304.906V26.0938H301V6.5625H304.906V2.65625H324.438V6.5625H328.344V26.0938H324.438V30ZM320.531 26.0938V6.5625H312.719V26.0938H320.531ZM336.25 30V2.65625H359.688V6.5625H363.594V14.375H359.688V18.2812H363.594V30H351.875V18.2812H344.082V30H336.25ZM347.969 6.5625V14.375H355.781V6.5625H347.969ZM371.5 22.1875H379.312V26.0938H391.031V18.2812H375.406V14.375H371.5V6.5625H375.406V2.65625H394.938V6.5625H398.844V10.4688H391.031V6.5625H383.219V14.375H394.938V18.2812H398.844V26.0938H394.938V30H375.406V26.0938H371.5V22.1875ZM442 6.5625H445.906V2.65625H465.457V6.5625H469.344V10.4688H465.438V6.5625H453.719V14.375H469.344V26.0938H465.438V30H445.906V26.0938H442V18.2812H445.906V14.375H442V6.5625ZM453.719 18.2812V26.0938H461.531V18.2812H453.719ZM524.219 26.0938V6.5625H520.312V2.65625H539.844V6.5625H535.938V26.0938H532.031V30H520.293V26.0938H516.406V22.1875H520.312V26.0938H524.219ZM559.469 2.65625V26.0938H567.281V2.65625H575.094V26.0938H571.188V30H551.656V26.0938H547.75V2.65625H559.469ZM583 30V2.65625H606.438V6.5625H610.344V26.0938H606.438V30H583ZM594.738 26.0938H602.531V6.5625H594.719L594.738 26.0938ZM645.594 14.375V26.0938H641.688V30H622.156V26.0938H618.25V6.5625H622.156V2.65625H641.707V6.5625H645.594V10.4688H641.688V6.5625H629.969V26.0938H637.781V18.2812H633.875L633.895 14.375H645.594ZM680.844 30H653.5V2.65625H680.844V6.5625H665.219V14.375H676.938V18.2812H665.219V26.0938H680.844V30ZM688.75 22.1875H696.562V26.0938H708.281V18.2812H692.656V14.375H688.75V6.5625H692.656V2.65625H712.188V6.5625H716.094V10.4688H708.281V6.5625H700.469V14.375H712.188V18.2812H716.094V26.0938H712.188V30H692.656V26.0938H688.75V22.1875Z" fill="white"/>
<path d="M179.531 6.5625V4.5625H177.531V6.5625H179.531ZM179.531 30V32H181.531V30H179.531ZM171.719 30H169.719V32H171.719V30ZM171.719 6.5625H173.719V4.5625H171.719V6.5625ZM167.812 6.5625V4.5625H165.812V6.5625H167.812ZM167.812 30V32H169.812V30H167.812ZM160 30H158V32H160V30ZM160 2.65625V0.65625H158V2.65625H160ZM183.457 2.65625H185.457V0.65625H183.457V2.65625ZM183.457 6.5625H181.457V8.5625H183.457V6.5625ZM187.344 6.5625H189.344V4.5625H187.344V6.5625ZM187.344 30V32H189.344V30H187.344ZM183.438 30H181.438V32H183.438V30ZM183.438 6.5625H185.438V4.5625H183.438V6.5625ZM179.531 6.5625H177.531V30H179.531H181.531V6.5625H179.531ZM179.531 30V28H171.719V30V32H179.531V30ZM171.719 30H173.719V6.5625H171.719H169.719V30H171.719ZM171.719 6.5625V4.5625H167.812V6.5625V8.5625H171.719V6.5625ZM167.812 6.5625H165.812V30H167.812H169.812V6.5625H167.812ZM167.812 30V28H160V30V32H167.812V30ZM160 30H162V2.65625H160H158V30H160ZM160 2.65625V4.65625H183.457V2.65625V0.65625H160V2.65625ZM183.457 2.65625H181.457V6.5625H183.457H185.457V2.65625H183.457ZM183.457 6.5625V8.5625H187.344V6.5625V4.5625H183.457V6.5625ZM187.344 6.5625H185.344V30H187.344H189.344V6.5625H187.344ZM187.344 30V28H183.438V30V32H187.344V30ZM183.438 30H185.438V6.5625H183.438H181.438V30H183.438ZM183.438 6.5625V4.5625H179.531V6.5625V8.5625H183.438V6.5625ZM222.594 30V32H224.594V30H222.594ZM195.25 30H193.25V32H195.25V30ZM195.25 2.65625V0.65625H193.25V2.65625H195.25ZM222.594 2.65625H224.594V0.65625H222.594V2.65625ZM222.594 6.5625V8.5625H224.594V6.5625H222.594ZM206.969 6.5625V4.5625H204.969V6.5625H206.969ZM206.969 14.375H204.969V16.375H206.969V14.375ZM218.688 14.375H220.688V12.375H218.688V14.375ZM218.688 18.2812V20.2812H220.688V18.2812H218.688ZM206.969 18.2812V16.2812H204.969V18.2812H206.969ZM206.969 26.0938H204.969V28.0938H206.969V26.0938ZM222.594 26.0938H224.594V24.0938H222.594V26.0938ZM222.594 30V28H195.25V30V32H222.594V30ZM195.25 30H197.25V2.65625H195.25H193.25V30H195.25ZM195.25 2.65625V4.65625H222.594V2.65625V0.65625H195.25V2.65625ZM222.594 2.65625H220.594V6.5625H222.594H224.594V2.65625H222.594ZM222.594 6.5625V4.5625H206.969V6.5625V8.5625H222.594V6.5625ZM206.969 6.5625H204.969V14.375H206.969H208.969V6.5625H206.969ZM206.969 14.375V16.375H218.688V14.375V12.375H206.969V14.375ZM218.688 14.375H216.688V18.2812H218.688H220.688V14.375H218.688ZM218.688 18.2812V16.2812H206.969V18.2812V20.2812H218.688V18.2812ZM206.969 18.2812H204.969V26.0938H206.969H208.969V18.2812H206.969ZM206.969 26.0938V28.0938H222.594V26.0938V24.0938H206.969V26.0938ZM222.594 26.0938H220.594V30H222.594H224.594V26.0938H222.594ZM230.5 30H228.5V32H230.5V30ZM230.5 2.65625V0.65625H228.5V2.65625H230.5ZM253.938 2.65625H255.938V0.65625H253.938V2.65625ZM253.938 6.5625H251.938V8.5625H253.938V6.5625ZM257.844 6.5625H259.844V4.5625H257.844V6.5625ZM257.844 30V32H259.844V30H257.844ZM250.031 30H248.031V32H250.031V30ZM250.031 6.5625H252.031V4.5625H250.031V6.5625ZM242.219 6.5625V4.5625H240.217L240.219 6.56417L242.219 6.5625ZM242.238 30V32H244.24L244.238 29.9983L242.238 30ZM230.5 30H232.5V2.65625H230.5H228.5V30H230.5ZM230.5 2.65625V4.65625H253.938V2.65625V0.65625H230.5V2.65625ZM253.938 2.65625H251.938V6.5625H253.938H255.938V2.65625H253.938ZM253.938 6.5625V8.5625H257.844V6.5625V4.5625H253.938V6.5625ZM257.844 6.5625H255.844V30H257.844H259.844V6.5625H257.844ZM257.844 30V28H250.031V30V32H257.844V30ZM250.031 30H252.031V6.5625H250.031H248.031V30H250.031ZM250.031 6.5625V4.5625H242.219V6.5625V8.5625H250.031V6.5625ZM242.219 6.5625L240.219 6.56417L240.238 30.0017L242.238 30L244.238 29.9983L244.219 6.56083L242.219 6.5625ZM242.238 30V28H230.5V30V32H242.238V30ZM293.094 2.65625H295.094V0.65625H293.094V2.65625ZM293.094 6.5625V8.5625H295.094V6.5625H293.094ZM285.281 6.5625V4.5625H283.281V6.5625H285.281ZM285.281 30V32H287.281V30H285.281ZM273.562 30H271.562V32H273.562V30ZM273.562 6.5625H275.562V4.5625H273.562V6.5625ZM265.75 6.5625H263.75V8.5625H265.75V6.5625ZM265.75 2.65625V0.65625H263.75V2.65625H265.75ZM293.094 2.65625H291.094V6.5625H293.094H295.094V2.65625H293.094ZM293.094 6.5625V4.5625H285.281V6.5625V8.5625H293.094V6.5625ZM285.281 6.5625H283.281V30H285.281H287.281V6.5625H285.281ZM285.281 30V28H273.562V30V32H285.281V30ZM273.562 30H275.562V6.5625H273.562H271.562V30H273.562ZM273.562 6.5625V4.5625H265.75V6.5625V8.5625H273.562V6.5625ZM265.75 6.5625H267.75V2.65625H265.75H263.75V6.5625H265.75ZM265.75 2.65625V4.65625H293.094V2.65625V0.65625H265.75V2.65625ZM324.438 30V32H326.438V30H324.438ZM304.906 30H302.906V32H304.906V30ZM304.906 26.0938H306.906V24.0938H304.906V26.0938ZM301 26.0938H299V28.0938H301V26.0938ZM301 6.5625V4.5625H299V6.5625H301ZM304.906 6.5625V8.5625H306.906V6.5625H304.906ZM304.906 2.65625V0.65625H302.906V2.65625H304.906ZM324.438 2.65625H326.438V0.65625H324.438V2.65625ZM324.438 6.5625H322.438V8.5625H324.438V6.5625ZM328.344 6.5625H330.344V4.5625H328.344V6.5625ZM328.344 26.0938V28.0938H330.344V26.0938H328.344ZM324.438 26.0938V24.0938H322.438V26.0938H324.438ZM320.531 26.0938V28.0938H322.531V26.0938H320.531ZM320.531 6.5625H322.531V4.5625H320.531V6.5625ZM312.719 6.5625V4.5625H310.719V6.5625H312.719ZM312.719 26.0938H310.719V28.0938H312.719V26.0938ZM324.438 30V28H304.906V30V32H324.438V30ZM304.906 30H306.906V26.0938H304.906H302.906V30H304.906ZM304.906 26.0938V24.0938H301V26.0938V28.0938H304.906V26.0938ZM301 26.0938H303V6.5625H301H299V26.0938H301ZM301 6.5625V8.5625H304.906V6.5625V4.5625H301V6.5625ZM304.906 6.5625H306.906V2.65625H304.906H302.906V6.5625H304.906ZM304.906 2.65625V4.65625H324.438V2.65625V0.65625H304.906V2.65625ZM324.438 2.65625H322.438V6.5625H324.438H326.438V2.65625H324.438ZM324.438 6.5625V8.5625H328.344V6.5625V4.5625H324.438V6.5625ZM328.344 6.5625H326.344V26.0938H328.344H330.344V6.5625H328.344ZM328.344 26.0938V24.0938H324.438V26.0938V28.0938H328.344V26.0938ZM324.438 26.0938H322.438V30H324.438H326.438V26.0938H324.438ZM320.531 26.0938H322.531V6.5625H320.531H318.531V26.0938H320.531ZM320.531 6.5625V4.5625H312.719V6.5625V8.5625H320.531V6.5625ZM312.719 6.5625H310.719V26.0938H312.719H314.719V6.5625H312.719ZM312.719 26.0938V28.0938H320.531V26.0938V24.0938H312.719V26.0938ZM336.25 30H334.25V32H336.25V30ZM336.25 2.65625V0.65625H334.25V2.65625H336.25ZM359.688 2.65625H361.688V0.65625H359.688V2.65625ZM359.688 6.5625H357.688V8.5625H359.688V6.5625ZM363.594 6.5625H365.594V4.5625H363.594V6.5625ZM363.594 14.375V16.375H365.594V14.375H363.594ZM359.688 14.375V12.375H357.688V14.375H359.688ZM359.688 18.2812H357.688V20.2812H359.688V18.2812ZM363.594 18.2812H365.594V16.2812H363.594V18.2812ZM363.594 30V32H365.594V30H363.594ZM351.875 30H349.875V32H351.875V30ZM351.875 18.2812H353.875V16.2812H351.875V18.2812ZM344.082 18.2812V16.2812H342.082V18.2812H344.082ZM344.082 30V32H346.082V30H344.082ZM347.969 6.5625V4.5625H345.969V6.5625H347.969ZM347.969 14.375H345.969V16.375H347.969V14.375ZM355.781 14.375V16.375H357.781V14.375H355.781ZM355.781 6.5625H357.781V4.5625H355.781V6.5625ZM336.25 30H338.25V2.65625H336.25H334.25V30H336.25ZM336.25 2.65625V4.65625H359.688V2.65625V0.65625H336.25V2.65625ZM359.688 2.65625H357.688V6.5625H359.688H361.688V2.65625H359.688ZM359.688 6.5625V8.5625H363.594V6.5625V4.5625H359.688V6.5625ZM363.594 6.5625H361.594V14.375H363.594H365.594V6.5625H363.594ZM363.594 14.375V12.375H359.688V14.375V16.375H363.594V14.375ZM359.688 14.375H357.688V18.2812H359.688H361.688V14.375H359.688ZM359.688 18.2812V20.2812H363.594V18.2812V16.2812H359.688V18.2812ZM363.594 18.2812H361.594V30H363.594H365.594V18.2812H363.594ZM363.594 30V28H351.875V30V32H363.594V30ZM351.875 30H353.875V18.2812H351.875H349.875V30H351.875ZM351.875 18.2812V16.2812H344.082V18.2812V20.2812H351.875V18.2812ZM344.082 18.2812H342.082V30H344.082H346.082V18.2812H344.082ZM344.082 30V28H336.25V30V32H344.082V30ZM347.969 6.5625H345.969V14.375H347.969H349.969V6.5625H347.969ZM347.969 14.375V16.375H355.781V14.375V12.375H347.969V14.375ZM355.781 14.375H357.781V6.5625H355.781H353.781V14.375H355.781ZM355.781 6.5625V4.5625H347.969V6.5625V8.5625H355.781V6.5625ZM371.5 22.1875V20.1875H369.5V22.1875H371.5ZM379.312 22.1875H381.312V20.1875H379.312V22.1875ZM379.312 26.0938H377.312V28.0938H379.312V26.0938ZM391.031 26.0938V28.0938H393.031V26.0938H391.031ZM391.031 18.2812H393.031V16.2812H391.031V18.2812ZM375.406 18.2812H373.406V20.2812H375.406V18.2812ZM375.406 14.375H377.406V12.375H375.406V14.375ZM371.5 14.375H369.5V16.375H371.5V14.375ZM371.5 6.5625V4.5625H369.5V6.5625H371.5ZM375.406 6.5625V8.5625H377.406V6.5625H375.406ZM375.406 2.65625V0.65625H373.406V2.65625H375.406ZM394.938 2.65625H396.938V0.65625H394.938V2.65625ZM394.938 6.5625H392.938V8.5625H394.938V6.5625ZM398.844 6.5625H400.844V4.5625H398.844V6.5625ZM398.844 10.4688V12.4688H400.844V10.4688H398.844ZM391.031 10.4688H389.031V12.4688H391.031V10.4688ZM391.031 6.5625H393.031V4.5625H391.031V6.5625ZM383.219 6.5625V4.5625H381.219V6.5625H383.219ZM383.219 14.375H381.219V16.375H383.219V14.375ZM394.938 14.375H396.938V12.375H394.938V14.375ZM394.938 18.2812H392.938V20.2812H394.938V18.2812ZM398.844 18.2812H400.844V16.2812H398.844V18.2812ZM398.844 26.0938V28.0938H400.844V26.0938H398.844ZM394.938 26.0938V24.0938H392.938V26.0938H394.938ZM394.938 30V32H396.938V30H394.938ZM375.406 30H373.406V32H375.406V30ZM375.406 26.0938H377.406V24.0938H375.406V26.0938ZM371.5 26.0938H369.5V28.0938H371.5V26.0938ZM371.5 22.1875V24.1875H379.312V22.1875V20.1875H371.5V22.1875ZM379.312 22.1875H377.312V26.0938H379.312H381.312V22.1875H379.312ZM379.312 26.0938V28.0938H391.031V26.0938V24.0938H379.312V26.0938ZM391.031 26.0938H393.031V18.2812H391.031H389.031V26.0938H391.031ZM391.031 18.2812V16.2812H375.406V18.2812V20.2812H391.031V18.2812ZM375.406 18.2812H377.406V14.375H375.406H373.406V18.2812H375.406ZM375.406 14.375V12.375H371.5V14.375V16.375H375.406V14.375ZM371.5 14.375H373.5V6.5625H371.5H369.5V14.375H371.5ZM371.5 6.5625V8.5625H375.406V6.5625V4.5625H371.5V6.5625ZM375.406 6.5625H377.406V2.65625H375.406H373.406V6.5625H375.406ZM375.406 2.65625V4.65625H394.938V2.65625V0.65625H375.406V2.65625ZM394.938 2.65625H392.938V6.5625H394.938H396.938V2.65625H394.938ZM394.938 6.5625V8.5625H398.844V6.5625V4.5625H394.938V6.5625ZM398.844 6.5625H396.844V10.4688H398.844H400.844V6.5625H398.844ZM398.844 10.4688V8.46875H391.031V10.4688V12.4688H398.844V10.4688ZM391.031 10.4688H393.031V6.5625H391.031H389.031V10.4688H391.031ZM391.031 6.5625V4.5625H383.219V6.5625V8.5625H391.031V6.5625ZM383.219 6.5625H381.219V14.375H383.219H385.219V6.5625H383.219ZM383.219 14.375V16.375H394.938V14.375V12.375H383.219V14.375ZM394.938 14.375H392.938V18.2812H394.938H396.938V14.375H394.938ZM394.938 18.2812V20.2812H398.844V18.2812V16.2812H394.938V18.2812ZM398.844 18.2812H396.844V26.0938H398.844H400.844V18.2812H398.844ZM398.844 26.0938V24.0938H394.938V26.0938V28.0938H398.844V26.0938ZM394.938 26.0938H392.938V30H394.938H396.938V26.0938H394.938ZM394.938 30V28H375.406V30V32H394.938V30ZM375.406 30H377.406V26.0938H375.406H373.406V30H375.406ZM375.406 26.0938V24.0938H371.5V26.0938V28.0938H375.406V26.0938ZM371.5 26.0938H373.5V22.1875H371.5H369.5V26.0938H371.5ZM442 6.5625V4.5625H440V6.5625H442ZM445.906 6.5625V8.5625H447.906V6.5625H445.906ZM445.906 2.65625V0.65625H443.906V2.65625H445.906ZM465.457 2.65625H467.457V0.65625H465.457V2.65625ZM465.457 6.5625H463.457V8.5625H465.457V6.5625ZM469.344 6.5625H471.344V4.5625H469.344V6.5625ZM469.344 10.4688V12.4688H471.344V10.4688H469.344ZM465.438 10.4688H463.438V12.4688H465.438V10.4688ZM465.438 6.5625H467.438V4.5625H465.438V6.5625ZM453.719 6.5625V4.5625H451.719V6.5625H453.719ZM453.719 14.375H451.719V16.375H453.719V14.375ZM469.344 14.375H471.344V12.375H469.344V14.375ZM469.344 26.0938V28.0938H471.344V26.0938H469.344ZM465.438 26.0938V24.0938H463.438V26.0938H465.438ZM465.438 30V32H467.438V30H465.438ZM445.906 30H443.906V32H445.906V30ZM445.906 26.0938H447.906V24.0938H445.906V26.0938ZM442 26.0938H440V28.0938H442V26.0938ZM442 18.2812V16.2812H440V18.2812H442ZM445.906 18.2812V20.2812H447.906V18.2812H445.906ZM445.906 14.375H447.906V12.375H445.906V14.375ZM442 14.375H440V16.375H442V14.375ZM453.719 18.2812V16.2812H451.719V18.2812H453.719ZM453.719 26.0938H451.719V28.0938H453.719V26.0938ZM461.531 26.0938V28.0938H463.531V26.0938H461.531ZM461.531 18.2812H463.531V16.2812H461.531V18.2812ZM442 6.5625V8.5625H445.906V6.5625V4.5625H442V6.5625ZM445.906 6.5625H447.906V2.65625H445.906H443.906V6.5625H445.906ZM445.906 2.65625V4.65625H465.457V2.65625V0.65625H445.906V2.65625ZM465.457 2.65625H463.457V6.5625H465.457H467.457V2.65625H465.457ZM465.457 6.5625V8.5625H469.344V6.5625V4.5625H465.457V6.5625ZM469.344 6.5625H467.344V10.4688H469.344H471.344V6.5625H469.344ZM469.344 10.4688V8.46875H465.438V10.4688V12.4688H469.344V10.4688ZM465.438 10.4688H467.438V6.5625H465.438H463.438V10.4688H465.438ZM465.438 6.5625V4.5625H453.719V6.5625V8.5625H465.438V6.5625ZM453.719 6.5625H451.719V14.375H453.719H455.719V6.5625H453.719ZM453.719 14.375V16.375H469.344V14.375V12.375H453.719V14.375ZM469.344 14.375H467.344V26.0938H469.344H471.344V14.375H469.344ZM469.344 26.0938V24.0938H465.438V26.0938V28.0938H469.344V26.0938ZM465.438 26.0938H463.438V30H465.438H467.438V26.0938H465.438ZM465.438 30V28H445.906V30V32H465.438V30ZM445.906 30H447.906V26.0938H445.906H443.906V30H445.906ZM445.906 26.0938V24.0938H442V26.0938V28.0938H445.906V26.0938ZM442 26.0938H444V18.2812H442H440V26.0938H442ZM442 18.2812V20.2812H445.906V18.2812V16.2812H442V18.2812ZM445.906 18.2812H447.906V14.375H445.906H443.906V18.2812H445.906ZM445.906 14.375V12.375H442V14.375V16.375H445.906V14.375ZM442 14.375H444V6.5625H442H440V14.375H442ZM453.719 18.2812H451.719V26.0938H453.719H455.719V18.2812H453.719ZM453.719 26.0938V28.0938H461.531V26.0938V24.0938H453.719V26.0938ZM461.531 26.0938H463.531V18.2812H461.531H459.531V26.0938H461.531ZM461.531 18.2812V16.2812H453.719V18.2812V20.2812H461.531V18.2812ZM524.219 26.0938V28.0938H526.219V26.0938H524.219ZM524.219 6.5625H526.219V4.5625H524.219V6.5625ZM520.312 6.5625H518.312V8.5625H520.312V6.5625ZM520.312 2.65625V0.65625H518.312V2.65625H520.312ZM539.844 2.65625H541.844V0.65625H539.844V2.65625ZM539.844 6.5625V8.5625H541.844V6.5625H539.844ZM535.938 6.5625V4.5625H533.938V6.5625H535.938ZM535.938 26.0938V28.0938H537.938V26.0938H535.938ZM532.031 26.0938V24.0938H530.031V26.0938H532.031ZM532.031 30V32H534.031V30H532.031ZM520.293 30H518.293V32H520.293V30ZM520.293 26.0938H522.293V24.0938H520.293V26.0938ZM516.406 26.0938H514.406V28.0938H516.406V26.0938ZM516.406 22.1875V20.1875H514.406V22.1875H516.406ZM520.312 22.1875H522.312V20.1875H520.312V22.1875ZM520.312 26.0938H518.312V28.0938H520.312V26.0938ZM524.219 26.0938H526.219V6.5625H524.219H522.219V26.0938H524.219ZM524.219 6.5625V4.5625H520.312V6.5625V8.5625H524.219V6.5625ZM520.312 6.5625H522.312V2.65625H520.312H518.312V6.5625H520.312ZM520.312 2.65625V4.65625H539.844V2.65625V0.65625H520.312V2.65625ZM539.844 2.65625H537.844V6.5625H539.844H541.844V2.65625H539.844ZM539.844 6.5625V4.5625H535.938V6.5625V8.5625H539.844V6.5625ZM535.938 6.5625H533.938V26.0938H535.938H537.938V6.5625H535.938ZM535.938 26.0938V24.0938H532.031V26.0938V28.0938H535.938V26.0938ZM532.031 26.0938H530.031V30H532.031H534.031V26.0938H532.031ZM532.031 30V28H520.293V30V32H532.031V30ZM520.293 30H522.293V26.0938H520.293H518.293V30H520.293ZM520.293 26.0938V24.0938H516.406V26.0938V28.0938H520.293V26.0938ZM516.406 26.0938H518.406V22.1875H516.406H514.406V26.0938H516.406ZM516.406 22.1875V24.1875H520.312V22.1875V20.1875H516.406V22.1875ZM520.312 22.1875H518.312V26.0938H520.312H522.312V22.1875H520.312ZM520.312 26.0938V28.0938H524.219V26.0938V24.0938H520.312V26.0938ZM559.469 2.65625H561.469V0.65625H559.469V2.65625ZM559.469 26.0938H557.469V28.0938H559.469V26.0938ZM567.281 26.0938V28.0938H569.281V26.0938H567.281ZM567.281 2.65625V0.65625H565.281V2.65625H567.281ZM575.094 2.65625H577.094V0.65625H575.094V2.65625ZM575.094 26.0938V28.0938H577.094V26.0938H575.094ZM571.188 26.0938V24.0938H569.188V26.0938H571.188ZM571.188 30V32H573.188V30H571.188ZM551.656 30H549.656V32H551.656V30ZM551.656 26.0938H553.656V24.0938H551.656V26.0938ZM547.75 26.0938H545.75V28.0938H547.75V26.0938ZM547.75 2.65625V0.65625H545.75V2.65625H547.75ZM559.469 2.65625H557.469V26.0938H559.469H561.469V2.65625H559.469ZM559.469 26.0938V28.0938H567.281V26.0938V24.0938H559.469V26.0938ZM567.281 26.0938H569.281V2.65625H567.281H565.281V26.0938H567.281ZM567.281 2.65625V4.65625H575.094V2.65625V0.65625H567.281V2.65625ZM575.094 2.65625H573.094V26.0938H575.094H577.094V2.65625H575.094ZM575.094 26.0938V24.0938H571.188V26.0938V28.0938H575.094V26.0938ZM571.188 26.0938H569.188V30H571.188H573.188V26.0938H571.188ZM571.188 30V28H551.656V30V32H571.188V30ZM551.656 30H553.656V26.0938H551.656H549.656V30H551.656ZM551.656 26.0938V24.0938H547.75V26.0938V28.0938H551.656V26.0938ZM547.75 26.0938H549.75V2.65625H547.75H545.75V26.0938H547.75ZM547.75 2.65625V4.65625H559.469V2.65625V0.65625H547.75V2.65625ZM583 30H581V32H583V30ZM583 2.65625V0.65625H581V2.65625H583ZM606.438 2.65625H608.438V0.65625H606.438V2.65625ZM606.438 6.5625H604.438V8.5625H606.438V6.5625ZM610.344 6.5625H612.344V4.5625H610.344V6.5625ZM610.344 26.0938V28.0938H612.344V26.0938H610.344ZM606.438 26.0938V24.0938H604.438V26.0938H606.438ZM606.438 30V32H608.438V30H606.438ZM594.738 26.0938L592.738 26.0958L592.74 28.0938H594.738V26.0938ZM602.531 26.0938V28.0938H604.531V26.0938H602.531ZM602.531 6.5625H604.531V4.5625H602.531V6.5625ZM594.719 6.5625V4.5625H592.717L592.719 6.5645L594.719 6.5625ZM583 30H585V2.65625H583H581V30H583ZM583 2.65625V4.65625H606.438V2.65625V0.65625H583V2.65625ZM606.438 2.65625H604.438V6.5625H606.438H608.438V2.65625H606.438ZM606.438 6.5625V8.5625H610.344V6.5625V4.5625H606.438V6.5625ZM610.344 6.5625H608.344V26.0938H610.344H612.344V6.5625H610.344ZM610.344 26.0938V24.0938H606.438V26.0938V28.0938H610.344V26.0938ZM606.438 26.0938H604.438V30H606.438H608.438V26.0938H606.438ZM606.438 30V28H583V30V32H606.438V30ZM594.738 26.0938V28.0938H602.531V26.0938V24.0938H594.738V26.0938ZM602.531 26.0938H604.531V6.5625H602.531H600.531V26.0938H602.531ZM602.531 6.5625V4.5625H594.719V6.5625V8.5625H602.531V6.5625ZM594.719 6.5625L592.719 6.5645L592.738 26.0958L594.738 26.0938L596.738 26.0917L596.719 6.5605L594.719 6.5625ZM645.594 14.375H647.594V12.375H645.594V14.375ZM645.594 26.0938V28.0938H647.594V26.0938H645.594ZM641.688 26.0938V24.0938H639.688V26.0938H641.688ZM641.688 30V32H643.688V30H641.688ZM622.156 30H620.156V32H622.156V30ZM622.156 26.0938H624.156V24.0938H622.156V26.0938ZM618.25 26.0938H616.25V28.0938H618.25V26.0938ZM618.25 6.5625V4.5625H616.25V6.5625H618.25ZM622.156 6.5625V8.5625H624.156V6.5625H622.156ZM622.156 2.65625V0.65625H620.156V2.65625H622.156ZM641.707 2.65625H643.707V0.65625H641.707V2.65625ZM641.707 6.5625H639.707V8.5625H641.707V6.5625ZM645.594 6.5625H647.594V4.5625H645.594V6.5625ZM645.594 10.4688V12.4688H647.594V10.4688H645.594ZM641.688 10.4688H639.688V12.4688H641.688V10.4688ZM641.688 6.5625H643.688V4.5625H641.688V6.5625ZM629.969 6.5625V4.5625H627.969V6.5625H629.969ZM629.969 26.0938H627.969V28.0938H629.969V26.0938ZM637.781 26.0938V28.0938H639.781V26.0938H637.781ZM637.781 18.2812H639.781V16.2812H637.781V18.2812ZM633.875 18.2812L631.875 18.2712L631.865 20.2812H633.875V18.2812ZM633.895 14.375V12.375H631.905L631.895 14.365L633.895 14.375ZM645.594 14.375H643.594V26.0938H645.594H647.594V14.375H645.594ZM645.594 26.0938V24.0938H641.688V26.0938V28.0938H645.594V26.0938ZM641.688 26.0938H639.688V30H641.688H643.688V26.0938H641.688ZM641.688 30V28H622.156V30V32H641.688V30ZM622.156 30H624.156V26.0938H622.156H620.156V30H622.156ZM622.156 26.0938V24.0938H618.25V26.0938V28.0938H622.156V26.0938ZM618.25 26.0938H620.25V6.5625H618.25H616.25V26.0938H618.25ZM618.25 6.5625V8.5625H622.156V6.5625V4.5625H618.25V6.5625ZM622.156 6.5625H624.156V2.65625H622.156H620.156V6.5625H622.156ZM622.156 2.65625V4.65625H641.707V2.65625V0.65625H622.156V2.65625ZM641.707 2.65625H639.707V6.5625H641.707H643.707V2.65625H641.707ZM641.707 6.5625V8.5625H645.594V6.5625V4.5625H641.707V6.5625ZM645.594 6.5625H643.594V10.4688H645.594H647.594V6.5625H645.594ZM645.594 10.4688V8.46875H641.688V10.4688V12.4688H645.594V10.4688ZM641.688 10.4688H643.688V6.5625H641.688H639.688V10.4688H641.688ZM641.688 6.5625V4.5625H629.969V6.5625V8.5625H641.688V6.5625ZM629.969 6.5625H627.969V26.0938H629.969H631.969V6.5625H629.969ZM629.969 26.0938V28.0938H637.781V26.0938V24.0938H629.969V26.0938ZM637.781 26.0938H639.781V18.2812H637.781H635.781V26.0938H637.781ZM637.781 18.2812V16.2812H633.875V18.2812V20.2812H637.781V18.2812ZM633.875 18.2812L635.875 18.2913L635.895 14.385L633.895 14.375L631.895 14.365L631.875 18.2712L633.875 18.2812ZM633.895 14.375V16.375H645.594V14.375V12.375H633.895V14.375ZM680.844 30V32H682.844V30H680.844ZM653.5 30H651.5V32H653.5V30ZM653.5 2.65625V0.65625H651.5V2.65625H653.5ZM680.844 2.65625H682.844V0.65625H680.844V2.65625ZM680.844 6.5625V8.5625H682.844V6.5625H680.844ZM665.219 6.5625V4.5625H663.219V6.5625H665.219ZM665.219 14.375H663.219V16.375H665.219V14.375ZM676.938 14.375H678.938V12.375H676.938V14.375ZM676.938 18.2812V20.2812H678.938V18.2812H676.938ZM665.219 18.2812V16.2812H663.219V18.2812H665.219ZM665.219 26.0938H663.219V28.0938H665.219V26.0938ZM680.844 26.0938H682.844V24.0938H680.844V26.0938ZM680.844 30V28H653.5V30V32H680.844V30ZM653.5 30H655.5V2.65625H653.5H651.5V30H653.5ZM653.5 2.65625V4.65625H680.844V2.65625V0.65625H653.5V2.65625ZM680.844 2.65625H678.844V6.5625H680.844H682.844V2.65625H680.844ZM680.844 6.5625V4.5625H665.219V6.5625V8.5625H680.844V6.5625ZM665.219 6.5625H663.219V14.375H665.219H667.219V6.5625H665.219ZM665.219 14.375V16.375H676.938V14.375V12.375H665.219V14.375ZM676.938 14.375H674.938V18.2812H676.938H678.938V14.375H676.938ZM676.938 18.2812V16.2812H665.219V18.2812V20.2812H676.938V18.2812ZM665.219 18.2812H663.219V26.0938H665.219H667.219V18.2812H665.219ZM665.219 26.0938V28.0938H680.844V26.0938V24.0938H665.219V26.0938ZM680.844 26.0938H678.844V30H680.844H682.844V26.0938H680.844ZM688.75 22.1875V20.1875H686.75V22.1875H688.75ZM696.562 22.1875H698.562V20.1875H696.562V22.1875ZM696.562 26.0938H694.562V28.0938H696.562V26.0938ZM708.281 26.0938V28.0938H710.281V26.0938H708.281ZM708.281 18.2812H710.281V16.2812H708.281V18.2812ZM692.656 18.2812H690.656V20.2812H692.656V18.2812ZM692.656 14.375H694.656V12.375H692.656V14.375ZM688.75 14.375H686.75V16.375H688.75V14.375ZM688.75 6.5625V4.5625H686.75V6.5625H688.75ZM692.656 6.5625V8.5625H694.656V6.5625H692.656ZM692.656 2.65625V0.65625H690.656V2.65625H692.656ZM712.188 2.65625H714.188V0.65625H712.188V2.65625ZM712.188 6.5625H710.188V8.5625H712.188V6.5625ZM716.094 6.5625H718.094V4.5625H716.094V6.5625ZM716.094 10.4688V12.4688H718.094V10.4688H716.094ZM708.281 10.4688H706.281V12.4688H708.281V10.4688ZM708.281 6.5625H710.281V4.5625H708.281V6.5625ZM700.469 6.5625V4.5625H698.469V6.5625H700.469ZM700.469 14.375H698.469V16.375H700.469V14.375ZM712.188 14.375H714.188V12.375H712.188V14.375ZM712.188 18.2812H710.188V20.2812H712.188V18.2812ZM716.094 18.2812H718.094V16.2812H716.094V18.2812ZM716.094 26.0938V28.0938H718.094V26.0938H716.094ZM712.188 26.0938V24.0938H710.188V26.0938H712.188ZM712.188 30V32H714.188V30H712.188ZM692.656 30H690.656V32H692.656V30ZM692.656 26.0938H694.656V24.0938H692.656V26.0938ZM688.75 26.0938H686.75V28.0938H688.75V26.0938ZM688.75 22.1875V24.1875H696.562V22.1875V20.1875H688.75V22.1875ZM696.562 22.1875H694.562V26.0938H696.562H698.562V22.1875H696.562ZM696.562 26.0938V28.0938H708.281V26.0938V24.0938H696.562V26.0938ZM708.281 26.0938H710.281V18.2812H708.281H706.281V26.0938H708.281ZM708.281 18.2812V16.2812H692.656V18.2812V20.2812H708.281V18.2812ZM692.656 18.2812H694.656V14.375H692.656H690.656V18.2812H692.656ZM692.656 14.375V12.375H688.75V14.375V16.375H692.656V14.375ZM688.75 14.375H690.75V6.5625H688.75H686.75V14.375H688.75ZM688.75 6.5625V8.5625H692.656V6.5625V4.5625H688.75V6.5625ZM692.656 6.5625H694.656V2.65625H692.656H690.656V6.5625H692.656ZM692.656 2.65625V4.65625H712.188V2.65625V0.65625H692.656V2.65625ZM712.188 2.65625H710.188V6.5625H712.188H714.188V2.65625H712.188ZM712.188 6.5625V8.5625H716.094V6.5625V4.5625H712.188V6.5625ZM716.094 6.5625H714.094V10.4688H716.094H718.094V6.5625H716.094ZM716.094 10.4688V8.46875H708.281V10.4688V12.4688H716.094V10.4688ZM708.281 10.4688H710.281V6.5625H708.281H706.281V10.4688H708.281ZM708.281 6.5625V4.5625H700.469V6.5625V8.5625H708.281V6.5625ZM700.469 6.5625H698.469V14.375H700.469H702.469V6.5625H700.469ZM700.469 14.375V16.375H712.188V14.375V12.375H700.469V14.375ZM712.188 14.375H710.188V18.2812H712.188H714.188V14.375H712.188ZM712.188 18.2812V20.2812H716.094V18.2812V16.2812H712.188V18.2812ZM716.094 18.2812H714.094V26.0938H716.094H718.094V18.2812H716.094ZM716.094 26.0938V24.0938H712.188V26.0938V28.0938H716.094V26.0938ZM712.188 26.0938H710.188V30H712.188H714.188V26.0938H712.188ZM712.188 30V28H692.656V30V32H712.188V30ZM692.656 30H694.656V26.0938H692.656H690.656V30H692.656ZM692.656 26.0938V24.0938H688.75V26.0938V28.0938H692.656V26.0938ZM688.75 26.0938H690.75V22.1875H688.75H686.75V26.0938H688.75Z" fill="#7E27E0" mask="url(#path-3-outside-1_43_10047)"/>
</g>
<g clip-path="url(#clip1_43_10047)">
<g filter="url(#filter2_d_43_10047)">
<path d="M792 3.33569V32.6664H789.332V29.9984H786.666V27.3317H783.998V24.6664H781.332L781.331 24.6639V22.0024H778.663V19.3345H776.001V16.6678C776.89 16.6691 777.776 16.6665 778.663 16.6665V13.9998H781.331V11.3331H783.998V8.66515H786.665V5.99848H789.332V3.33573L792 3.33569Z" fill="white"/>
<path d="M781.331 22.0024V24.6639L781.332 24.6664H783.998V27.3317H786.666V29.9984H789.332V32.6664H792V3.33569L789.332 3.33573V5.99848H786.665V8.66515H783.998V11.3331H781.331V13.9998H778.663V16.6665C777.776 16.6665 776.89 16.6691 776.001 16.6678V19.3345H778.663M781.331 22.0024L781.332 21.9999M781.331 22.0024H778.663V19.3345M778.663 19.3345L778.665 19.3331" stroke="#7E27E0" stroke-width="3"/>
</g>
</g>
<defs>
<filter id="filter0_d_43_10047" x="86.4998" y="1.83569" width="18.9988" height="36.3308" filterUnits="userSpaceOnUse" color-interpolation-filters="sRGB">
<feFlood flood-opacity="0" result="BackgroundImageFix"/>
<feColorMatrix in="SourceAlpha" type="matrix" values="0 0 0 0 0 0 0 0 0 0 0 0 0 0 0 0 0 0 127 0" result="hardAlpha"/>
<feOffset dy="4"/>
<feComposite in2="hardAlpha" operator="out"/>
<feColorMatrix type="matrix" values="0 0 0 0 0.0892909 0 0 0 0 0.725962 0 0 0 0 0.0314118 0 0 0 1 0"/>
<feBlend mode="normal" in2="BackgroundImageFix" result="effect1_dropShadow_43_10047"/>
<feBlend mode="normal" in="SourceGraphic" in2="effect1_dropShadow_43_10047" result="shape"/>
</filter>
<filter id="filter1_d_43_10047" x="158" y="0.65625" width="560.094" height="35.3438" filterUnits="userSpaceOnUse" color-interpolation-filters="sRGB">
<feFlood flood-opacity="0" result="BackgroundImageFix"/>
<feColorMatrix in="SourceAlpha" type="matrix" values="0 0 0 0 0 0 0 0 0 0 0 0 0 0 0 0 0 0 127 0" result="hardAlpha"/>
<feOffset dy="4"/>
<feComposite in2="hardAlpha" operator="out"/>
<feColorMatrix type="matrix" values="0 0 0 0 0.0892909 0 0 0 0 0.725962 0 0 0 0 0.0314118 0 0 0 1 0"/>
<feBlend mode="normal" in2="BackgroundImageFix" result="effect1_dropShadow_43_10047"/>
<feBlend mode="normal" in="SourceGraphic" in2="effect1_dropShadow_43_10047" result="shape"/>
</filter>
<filter id="filter2_d_43_10047" x="774.501" y="1.83569" width="18.9987" height="36.3308" filterUnits="userSpaceOnUse" color-interpolation-filters="sRGB">
<feFlood flood-opacity="0" result="BackgroundImageFix"/>
<feColorMatrix in="SourceAlpha" type="matrix" values="0 0 0 0 0 0 0 0 0 0 0 0 0 0 0 0 0 0 127 0" result="hardAlpha"/>
<feOffset dy="4"/>
<feComposite in2="hardAlpha" operator="out"/>
<feColorMatrix type="matrix" values="0 0 0 0 0.0892909 0 0 0 0 0.725962 0 0 0 0 0.0314118 0 0 0 1 0"/>
<feBlend mode="normal" in2="BackgroundImageFix" result="effect1_dropShadow_43_10047"/>
<feBlend mode="normal" in="SourceGraphic" in2="effect1_dropShadow_43_10047" result="shape"/>
</filter>
<clipPath id="clip0_43_10047">
<rect width="32" height="32" fill="white" transform="translate(80 2)"/>
</clipPath>
<clipPath id="clip1_43_10047">
<rect width="32" height="32" fill="white" transform="matrix(-1 0 0 1 800 2)"/>
</clipPath>
</defs>
</svg>
