<svg width="732" height="36" viewBox="0 0 732 36" fill="none" xmlns="http://www.w3.org/2000/svg">
<g clip-path="url(#clip0_43_6448)">
<g filter="url(#filter0_d_43_6448)">
<path d="M200 3.33569V32.6664H202.668V29.9984H205.334V27.3317H208.002V24.6664H210.668L210.669 24.6639V22.0024H213.337V19.3345H215.999V16.6678C215.11 16.6691 214.224 16.6665 213.337 16.6665V13.9998H210.669V11.3331H208.002V8.66515H205.335V5.99848H202.668V3.33573L200 3.33569Z" fill="#FFE14C"/>
<path d="M210.669 22.0024V24.6639L210.668 24.6664H208.002V27.3317H205.334V29.9984H202.668V32.6664H200V3.33569L202.668 3.33573V5.99848H205.335V8.66515H208.002V11.3331H210.669V13.9998H213.337V16.6665C214.224 16.6665 215.11 16.6691 215.999 16.6678V19.3345H213.337M210.669 22.0024L210.668 21.9999M210.669 22.0024H213.337V19.3345M213.337 19.3345L213.335 19.3331" stroke="#222256" stroke-width="3"/>
</g>
</g>
<g filter="url(#filter1_d_43_6448)">
<mask id="path-3-outside-1_43_6448" maskUnits="userSpaceOnUse" x="270" y="0" width="188" height="32" fill="black">
<rect fill="white" x="270" width="188" height="32"/>
<path d="M283.988 18.2812L284.027 30H272.25V2.65625H295.688V6.5625H299.594V14.375H295.688V18.2812H283.988ZM283.969 6.5625V14.375H291.781V6.5625H283.969ZM303.5 30V2.65625H326.938V6.5625H330.844V14.375H326.938V18.2812H330.844V30H319.125V18.2812H311.332V30H303.5ZM315.219 6.5625V14.375H323.031V6.5625H315.219ZM358.188 2.65625V6.5625H354.281V26.0938H358.188V30H338.656V26.0938H342.562V6.5625H338.656V2.65625H358.188ZM366 30V22.1875H369.906V18.2812H373.812V14.375H377.719V10.4688H381.625V6.5625H366V2.65625H393.344V10.4688H389.438V14.375H385.531V18.2812H381.625V22.1875H377.719V26.0938H393.344V30H366ZM424.594 30H397.25V2.65625H424.594V6.5625H408.969V14.375H420.688V18.2812H408.969V26.0938H424.594V30ZM428.5 22.1875H436.312V26.0938H448.031V18.2812H432.406V14.375H428.5V6.5625H432.406V2.65625H451.938V6.5625H455.844V10.4688H448.031V6.5625H440.219V14.375H451.938V18.2812H455.844V26.0938H451.938V30H432.406V26.0938H428.5V22.1875Z"/>
</mask>
<path d="M283.988 18.2812L284.027 30H272.25V2.65625H295.688V6.5625H299.594V14.375H295.688V18.2812H283.988ZM283.969 6.5625V14.375H291.781V6.5625H283.969ZM303.5 30V2.65625H326.938V6.5625H330.844V14.375H326.938V18.2812H330.844V30H319.125V18.2812H311.332V30H303.5ZM315.219 6.5625V14.375H323.031V6.5625H315.219ZM358.188 2.65625V6.5625H354.281V26.0938H358.188V30H338.656V26.0938H342.562V6.5625H338.656V2.65625H358.188ZM366 30V22.1875H369.906V18.2812H373.812V14.375H377.719V10.4688H381.625V6.5625H366V2.65625H393.344V10.4688H389.438V14.375H385.531V18.2812H381.625V22.1875H377.719V26.0938H393.344V30H366ZM424.594 30H397.25V2.65625H424.594V6.5625H408.969V14.375H420.688V18.2812H408.969V26.0938H424.594V30ZM428.5 22.1875H436.312V26.0938H448.031V18.2812H432.406V14.375H428.5V6.5625H432.406V2.65625H451.938V6.5625H455.844V10.4688H448.031V6.5625H440.219V14.375H451.938V18.2812H455.844V26.0938H451.938V30H432.406V26.0938H428.5V22.1875Z" fill="#FFE14C"/>
<path d="M283.988 18.2812V16.2812H281.982L281.988 18.2879L283.988 18.2812ZM284.027 30V32H286.034L286.027 29.9933L284.027 30ZM272.25 30H270.25V32H272.25V30ZM272.25 2.65625V0.65625H270.25V2.65625H272.25ZM295.688 2.65625H297.688V0.65625H295.688V2.65625ZM295.688 6.5625H293.688V8.5625H295.688V6.5625ZM299.594 6.5625H301.594V4.5625H299.594V6.5625ZM299.594 14.375V16.375H301.594V14.375H299.594ZM295.688 14.375V12.375H293.688V14.375H295.688ZM295.688 18.2812V20.2812H297.688V18.2812H295.688ZM283.969 6.5625V4.5625H281.969V6.5625H283.969ZM283.969 14.375H281.969V16.375H283.969V14.375ZM291.781 14.375V16.375H293.781V14.375H291.781ZM291.781 6.5625H293.781V4.5625H291.781V6.5625ZM283.988 18.2812L281.988 18.2879L282.027 30.0067L284.027 30L286.027 29.9933L285.988 18.2746L283.988 18.2812ZM284.027 30V28H272.25V30V32H284.027V30ZM272.25 30H274.25V2.65625H272.25H270.25V30H272.25ZM272.25 2.65625V4.65625H295.688V2.65625V0.65625H272.25V2.65625ZM295.688 2.65625H293.688V6.5625H295.688H297.688V2.65625H295.688ZM295.688 6.5625V8.5625H299.594V6.5625V4.5625H295.688V6.5625ZM299.594 6.5625H297.594V14.375H299.594H301.594V6.5625H299.594ZM299.594 14.375V12.375H295.688V14.375V16.375H299.594V14.375ZM295.688 14.375H293.688V18.2812H295.688H297.688V14.375H295.688ZM295.688 18.2812V16.2812H283.988V18.2812V20.2812H295.688V18.2812ZM283.969 6.5625H281.969V14.375H283.969H285.969V6.5625H283.969ZM283.969 14.375V16.375H291.781V14.375V12.375H283.969V14.375ZM291.781 14.375H293.781V6.5625H291.781H289.781V14.375H291.781ZM291.781 6.5625V4.5625H283.969V6.5625V8.5625H291.781V6.5625ZM303.5 30H301.5V32H303.5V30ZM303.5 2.65625V0.65625H301.5V2.65625H303.5ZM326.938 2.65625H328.938V0.65625H326.938V2.65625ZM326.938 6.5625H324.938V8.5625H326.938V6.5625ZM330.844 6.5625H332.844V4.5625H330.844V6.5625ZM330.844 14.375V16.375H332.844V14.375H330.844ZM326.938 14.375V12.375H324.938V14.375H326.938ZM326.938 18.2812H324.938V20.2812H326.938V18.2812ZM330.844 18.2812H332.844V16.2812H330.844V18.2812ZM330.844 30V32H332.844V30H330.844ZM319.125 30H317.125V32H319.125V30ZM319.125 18.2812H321.125V16.2812H319.125V18.2812ZM311.332 18.2812V16.2812H309.332V18.2812H311.332ZM311.332 30V32H313.332V30H311.332ZM315.219 6.5625V4.5625H313.219V6.5625H315.219ZM315.219 14.375H313.219V16.375H315.219V14.375ZM323.031 14.375V16.375H325.031V14.375H323.031ZM323.031 6.5625H325.031V4.5625H323.031V6.5625ZM303.5 30H305.5V2.65625H303.5H301.5V30H303.5ZM303.5 2.65625V4.65625H326.938V2.65625V0.65625H303.5V2.65625ZM326.938 2.65625H324.938V6.5625H326.938H328.938V2.65625H326.938ZM326.938 6.5625V8.5625H330.844V6.5625V4.5625H326.938V6.5625ZM330.844 6.5625H328.844V14.375H330.844H332.844V6.5625H330.844ZM330.844 14.375V12.375H326.938V14.375V16.375H330.844V14.375ZM326.938 14.375H324.938V18.2812H326.938H328.938V14.375H326.938ZM326.938 18.2812V20.2812H330.844V18.2812V16.2812H326.938V18.2812ZM330.844 18.2812H328.844V30H330.844H332.844V18.2812H330.844ZM330.844 30V28H319.125V30V32H330.844V30ZM319.125 30H321.125V18.2812H319.125H317.125V30H319.125ZM319.125 18.2812V16.2812H311.332V18.2812V20.2812H319.125V18.2812ZM311.332 18.2812H309.332V30H311.332H313.332V18.2812H311.332ZM311.332 30V28H303.5V30V32H311.332V30ZM315.219 6.5625H313.219V14.375H315.219H317.219V6.5625H315.219ZM315.219 14.375V16.375H323.031V14.375V12.375H315.219V14.375ZM323.031 14.375H325.031V6.5625H323.031H321.031V14.375H323.031ZM323.031 6.5625V4.5625H315.219V6.5625V8.5625H323.031V6.5625ZM358.188 2.65625H360.188V0.65625H358.188V2.65625ZM358.188 6.5625V8.5625H360.188V6.5625H358.188ZM354.281 6.5625V4.5625H352.281V6.5625H354.281ZM354.281 26.0938H352.281V28.0938H354.281V26.0938ZM358.188 26.0938H360.188V24.0938H358.188V26.0938ZM358.188 30V32H360.188V30H358.188ZM338.656 30H336.656V32H338.656V30ZM338.656 26.0938V24.0938H336.656V26.0938H338.656ZM342.562 26.0938V28.0938H344.562V26.0938H342.562ZM342.562 6.5625H344.562V4.5625H342.562V6.5625ZM338.656 6.5625H336.656V8.5625H338.656V6.5625ZM338.656 2.65625V0.65625H336.656V2.65625H338.656ZM358.188 2.65625H356.188V6.5625H358.188H360.188V2.65625H358.188ZM358.188 6.5625V4.5625H354.281V6.5625V8.5625H358.188V6.5625ZM354.281 6.5625H352.281V26.0938H354.281H356.281V6.5625H354.281ZM354.281 26.0938V28.0938H358.188V26.0938V24.0938H354.281V26.0938ZM358.188 26.0938H356.188V30H358.188H360.188V26.0938H358.188ZM358.188 30V28H338.656V30V32H358.188V30ZM338.656 30H340.656V26.0938H338.656H336.656V30H338.656ZM338.656 26.0938V28.0938H342.562V26.0938V24.0938H338.656V26.0938ZM342.562 26.0938H344.562V6.5625H342.562H340.562V26.0938H342.562ZM342.562 6.5625V4.5625H338.656V6.5625V8.5625H342.562V6.5625ZM338.656 6.5625H340.656V2.65625H338.656H336.656V6.5625H338.656ZM338.656 2.65625V4.65625H358.188V2.65625V0.65625H338.656V2.65625ZM366 30H364V32H366V30ZM366 22.1875V20.1875H364V22.1875H366ZM369.906 22.1875V24.1875H371.906V22.1875H369.906ZM369.906 18.2812V16.2812H367.906V18.2812H369.906ZM373.812 18.2812V20.2812H375.812V18.2812H373.812ZM373.812 14.375V12.375H371.812V14.375H373.812ZM377.719 14.375V16.375H379.719V14.375H377.719ZM377.719 10.4688V8.46875H375.719V10.4688H377.719ZM381.625 10.4688V12.4688H383.625V10.4688H381.625ZM381.625 6.5625H383.625V4.5625H381.625V6.5625ZM366 6.5625H364V8.5625H366V6.5625ZM366 2.65625V0.65625H364V2.65625H366ZM393.344 2.65625H395.344V0.65625H393.344V2.65625ZM393.344 10.4688V12.4688H395.344V10.4688H393.344ZM389.438 10.4688V8.46875H387.438V10.4688H389.438ZM389.438 14.375V16.375H391.438V14.375H389.438ZM385.531 14.375V12.375H383.531V14.375H385.531ZM385.531 18.2812V20.2812H387.531V18.2812H385.531ZM381.625 18.2812V16.2812H379.625V18.2812H381.625ZM381.625 22.1875V24.1875H383.625V22.1875H381.625ZM377.719 22.1875V20.1875H375.719V22.1875H377.719ZM377.719 26.0938H375.719V28.0938H377.719V26.0938ZM393.344 26.0938H395.344V24.0938H393.344V26.0938ZM393.344 30V32H395.344V30H393.344ZM366 30H368V22.1875H366H364V30H366ZM366 22.1875V24.1875H369.906V22.1875V20.1875H366V22.1875ZM369.906 22.1875H371.906V18.2812H369.906H367.906V22.1875H369.906ZM369.906 18.2812V20.2812H373.812V18.2812V16.2812H369.906V18.2812ZM373.812 18.2812H375.812V14.375H373.812H371.812V18.2812H373.812ZM373.812 14.375V16.375H377.719V14.375V12.375H373.812V14.375ZM377.719 14.375H379.719V10.4688H377.719H375.719V14.375H377.719ZM377.719 10.4688V12.4688H381.625V10.4688V8.46875H377.719V10.4688ZM381.625 10.4688H383.625V6.5625H381.625H379.625V10.4688H381.625ZM381.625 6.5625V4.5625H366V6.5625V8.5625H381.625V6.5625ZM366 6.5625H368V2.65625H366H364V6.5625H366ZM366 2.65625V4.65625H393.344V2.65625V0.65625H366V2.65625ZM393.344 2.65625H391.344V10.4688H393.344H395.344V2.65625H393.344ZM393.344 10.4688V8.46875H389.438V10.4688V12.4688H393.344V10.4688ZM389.438 10.4688H387.438V14.375H389.438H391.438V10.4688H389.438ZM389.438 14.375V12.375H385.531V14.375V16.375H389.438V14.375ZM385.531 14.375H383.531V18.2812H385.531H387.531V14.375H385.531ZM385.531 18.2812V16.2812H381.625V18.2812V20.2812H385.531V18.2812ZM381.625 18.2812H379.625V22.1875H381.625H383.625V18.2812H381.625ZM381.625 22.1875V20.1875H377.719V22.1875V24.1875H381.625V22.1875ZM377.719 22.1875H375.719V26.0938H377.719H379.719V22.1875H377.719ZM377.719 26.0938V28.0938H393.344V26.0938V24.0938H377.719V26.0938ZM393.344 26.0938H391.344V30H393.344H395.344V26.0938H393.344ZM393.344 30V28H366V30V32H393.344V30ZM424.594 30V32H426.594V30H424.594ZM397.25 30H395.25V32H397.25V30ZM397.25 2.65625V0.65625H395.25V2.65625H397.25ZM424.594 2.65625H426.594V0.65625H424.594V2.65625ZM424.594 6.5625V8.5625H426.594V6.5625H424.594ZM408.969 6.5625V4.5625H406.969V6.5625H408.969ZM408.969 14.375H406.969V16.375H408.969V14.375ZM420.688 14.375H422.688V12.375H420.688V14.375ZM420.688 18.2812V20.2812H422.688V18.2812H420.688ZM408.969 18.2812V16.2812H406.969V18.2812H408.969ZM408.969 26.0938H406.969V28.0938H408.969V26.0938ZM424.594 26.0938H426.594V24.0938H424.594V26.0938ZM424.594 30V28H397.25V30V32H424.594V30ZM397.25 30H399.25V2.65625H397.25H395.25V30H397.25ZM397.25 2.65625V4.65625H424.594V2.65625V0.65625H397.25V2.65625ZM424.594 2.65625H422.594V6.5625H424.594H426.594V2.65625H424.594ZM424.594 6.5625V4.5625H408.969V6.5625V8.5625H424.594V6.5625ZM408.969 6.5625H406.969V14.375H408.969H410.969V6.5625H408.969ZM408.969 14.375V16.375H420.688V14.375V12.375H408.969V14.375ZM420.688 14.375H418.688V18.2812H420.688H422.688V14.375H420.688ZM420.688 18.2812V16.2812H408.969V18.2812V20.2812H420.688V18.2812ZM408.969 18.2812H406.969V26.0938H408.969H410.969V18.2812H408.969ZM408.969 26.0938V28.0938H424.594V26.0938V24.0938H408.969V26.0938ZM424.594 26.0938H422.594V30H424.594H426.594V26.0938H424.594ZM428.5 22.1875V20.1875H426.5V22.1875H428.5ZM436.312 22.1875H438.312V20.1875H436.312V22.1875ZM436.312 26.0938H434.312V28.0938H436.312V26.0938ZM448.031 26.0938V28.0938H450.031V26.0938H448.031ZM448.031 18.2812H450.031V16.2812H448.031V18.2812ZM432.406 18.2812H430.406V20.2812H432.406V18.2812ZM432.406 14.375H434.406V12.375H432.406V14.375ZM428.5 14.375H426.5V16.375H428.5V14.375ZM428.5 6.5625V4.5625H426.5V6.5625H428.5ZM432.406 6.5625V8.5625H434.406V6.5625H432.406ZM432.406 2.65625V0.65625H430.406V2.65625H432.406ZM451.938 2.65625H453.938V0.65625H451.938V2.65625ZM451.938 6.5625H449.938V8.5625H451.938V6.5625ZM455.844 6.5625H457.844V4.5625H455.844V6.5625ZM455.844 10.4688V12.4688H457.844V10.4688H455.844ZM448.031 10.4688H446.031V12.4688H448.031V10.4688ZM448.031 6.5625H450.031V4.5625H448.031V6.5625ZM440.219 6.5625V4.5625H438.219V6.5625H440.219ZM440.219 14.375H438.219V16.375H440.219V14.375ZM451.938 14.375H453.938V12.375H451.938V14.375ZM451.938 18.2812H449.938V20.2812H451.938V18.2812ZM455.844 18.2812H457.844V16.2812H455.844V18.2812ZM455.844 26.0938V28.0938H457.844V26.0938H455.844ZM451.938 26.0938V24.0938H449.938V26.0938H451.938ZM451.938 30V32H453.938V30H451.938ZM432.406 30H430.406V32H432.406V30ZM432.406 26.0938H434.406V24.0938H432.406V26.0938ZM428.5 26.0938H426.5V28.0938H428.5V26.0938ZM428.5 22.1875V24.1875H436.312V22.1875V20.1875H428.5V22.1875ZM436.312 22.1875H434.312V26.0938H436.312H438.312V22.1875H436.312ZM436.312 26.0938V28.0938H448.031V26.0938V24.0938H436.312V26.0938ZM448.031 26.0938H450.031V18.2812H448.031H446.031V26.0938H448.031ZM448.031 18.2812V16.2812H432.406V18.2812V20.2812H448.031V18.2812ZM432.406 18.2812H434.406V14.375H432.406H430.406V18.2812H432.406ZM432.406 14.375V12.375H428.5V14.375V16.375H432.406V14.375ZM428.5 14.375H430.5V6.5625H428.5H426.5V14.375H428.5ZM428.5 6.5625V8.5625H432.406V6.5625V4.5625H428.5V6.5625ZM432.406 6.5625H434.406V2.65625H432.406H430.406V6.5625H432.406ZM432.406 2.65625V4.65625H451.938V2.65625V0.65625H432.406V2.65625ZM451.938 2.65625H449.938V6.5625H451.938H453.938V2.65625H451.938ZM451.938 6.5625V8.5625H455.844V6.5625V4.5625H451.938V6.5625ZM455.844 6.5625H453.844V10.4688H455.844H457.844V6.5625H455.844ZM455.844 10.4688V8.46875H448.031V10.4688V12.4688H455.844V10.4688ZM448.031 10.4688H450.031V6.5625H448.031H446.031V10.4688H448.031ZM448.031 6.5625V4.5625H440.219V6.5625V8.5625H448.031V6.5625ZM440.219 6.5625H438.219V14.375H440.219H442.219V6.5625H440.219ZM440.219 14.375V16.375H451.938V14.375V12.375H440.219V14.375ZM451.938 14.375H449.938V18.2812H451.938H453.938V14.375H451.938ZM451.938 18.2812V20.2812H455.844V18.2812V16.2812H451.938V18.2812ZM455.844 18.2812H453.844V26.0938H455.844H457.844V18.2812H455.844ZM455.844 26.0938V24.0938H451.938V26.0938V28.0938H455.844V26.0938ZM451.938 26.0938H449.938V30H451.938H453.938V26.0938H451.938ZM451.938 30V28H432.406V30V32H451.938V30ZM432.406 30H434.406V26.0938H432.406H430.406V30H432.406ZM432.406 26.0938V24.0938H428.5V26.0938V28.0938H432.406V26.0938ZM428.5 26.0938H430.5V22.1875H428.5H426.5V26.0938H428.5Z" fill="#222256" mask="url(#path-3-outside-1_43_6448)"/>
</g>
<g clip-path="url(#clip1_43_6448)">
<g filter="url(#filter2_d_43_6448)">
<path d="M532 3.33569V32.6664H529.332V29.9984H526.666V27.3317H523.998V24.6664H521.332L521.331 24.6639V22.0024H518.663V19.3345H516.001V16.6678C516.89 16.6691 517.776 16.6665 518.663 16.6665V13.9998H521.331V11.3331H523.998V8.66515H526.665V5.99848H529.332V3.33573L532 3.33569Z" fill="#FFE14C"/>
<path d="M521.331 22.0024V24.6639L521.332 24.6664H523.998V27.3317H526.666V29.9984H529.332V32.6664H532V3.33569L529.332 3.33573V5.99848H526.665V8.66515H523.998V11.3331H521.331V13.9998H518.663V16.6665C517.776 16.6665 516.89 16.6691 516.001 16.6678V19.3345H518.663M521.331 22.0024L521.332 21.9999M521.331 22.0024H518.663V19.3345M518.663 19.3345L518.665 19.3331" stroke="#222256" stroke-width="3"/>
</g>
</g>
<defs>
<filter id="filter0_d_43_6448" x="198.5" y="1.83569" width="18.9987" height="34.3308" filterUnits="userSpaceOnUse" color-interpolation-filters="sRGB">
<feFlood flood-opacity="0" result="BackgroundImageFix"/>
<feColorMatrix in="SourceAlpha" type="matrix" values="0 0 0 0 0 0 0 0 0 0 0 0 0 0 0 0 0 0 127 0" result="hardAlpha"/>
<feOffset dy="2"/>
<feComposite in2="hardAlpha" operator="out"/>
<feColorMatrix type="matrix" values="0 0 0 0 1 0 0 0 0 0.447059 0 0 0 0 0.152941 0 0 0 1 0"/>
<feBlend mode="normal" in2="BackgroundImageFix" result="effect1_dropShadow_43_6448"/>
<feBlend mode="normal" in="SourceGraphic" in2="effect1_dropShadow_43_6448" result="shape"/>
</filter>
<filter id="filter1_d_43_6448" x="270.25" y="0.65625" width="187.594" height="35.3438" filterUnits="userSpaceOnUse" color-interpolation-filters="sRGB">
<feFlood flood-opacity="0" result="BackgroundImageFix"/>
<feColorMatrix in="SourceAlpha" type="matrix" values="0 0 0 0 0 0 0 0 0 0 0 0 0 0 0 0 0 0 127 0" result="hardAlpha"/>
<feOffset dy="4"/>
<feComposite in2="hardAlpha" operator="out"/>
<feColorMatrix type="matrix" values="0 0 0 0 1 0 0 0 0 0.447059 0 0 0 0 0.152941 0 0 0 1 0"/>
<feBlend mode="normal" in2="BackgroundImageFix" result="effect1_dropShadow_43_6448"/>
<feBlend mode="normal" in="SourceGraphic" in2="effect1_dropShadow_43_6448" result="shape"/>
</filter>
<filter id="filter2_d_43_6448" x="514.502" y="1.83569" width="18.9987" height="34.3308" filterUnits="userSpaceOnUse" color-interpolation-filters="sRGB">
<feFlood flood-opacity="0" result="BackgroundImageFix"/>
<feColorMatrix in="SourceAlpha" type="matrix" values="0 0 0 0 0 0 0 0 0 0 0 0 0 0 0 0 0 0 127 0" result="hardAlpha"/>
<feOffset dy="2"/>
<feComposite in2="hardAlpha" operator="out"/>
<feColorMatrix type="matrix" values="0 0 0 0 1 0 0 0 0 0.447059 0 0 0 0 0.152941 0 0 0 1 0"/>
<feBlend mode="normal" in2="BackgroundImageFix" result="effect1_dropShadow_43_6448"/>
<feBlend mode="normal" in="SourceGraphic" in2="effect1_dropShadow_43_6448" result="shape"/>
</filter>
<clipPath id="clip0_43_6448">
<rect width="32" height="32" fill="white" transform="translate(192 2)"/>
</clipPath>
<clipPath id="clip1_43_6448">
<rect width="32" height="32" fill="white" transform="matrix(-1 0 0 1 540 2)"/>
</clipPath>
</defs>
</svg>
