<svg width="733" height="36" viewBox="0 0 733 36" fill="none" xmlns="http://www.w3.org/2000/svg">
<g clip-path="url(#clip0_43_10036)">
<g filter="url(#filter0_d_43_10036)">
<path d="M155.5 3.33569V32.6664H158.168V29.9984H160.834V27.3317H163.502V24.6664H166.168L166.169 24.6639V22.0024H168.837V19.3345H171.499V16.6678C170.61 16.6691 169.724 16.6665 168.837 16.6665V13.9998H166.169V11.3331H163.502V8.66515H160.835V5.99848H158.168V3.33573L155.5 3.33569Z" fill="white"/>
<path d="M166.169 22.0024V24.6639L166.168 24.6664H163.502V27.3317H160.834V29.9984H158.168V32.6664H155.5V3.33569L158.168 3.33573V5.99848H160.835V8.66515H163.502V11.3331H166.169V13.9998H168.837V16.6665C169.724 16.6665 170.61 16.6691 171.499 16.6678V19.3345H168.837M166.169 22.0024L166.168 21.9999M166.169 22.0024H168.837V19.3345M168.837 19.3345L168.835 19.3331" stroke="#7E27E0" stroke-width="3"/>
</g>
</g>
<g filter="url(#filter1_d_43_10036)">
<mask id="path-3-outside-1_43_10036" maskUnits="userSpaceOnUse" x="225.5" y="0" width="279" height="32" fill="black">
<rect fill="white" x="225.5" width="279" height="32"/>
<path d="M227.5 22.1875H235.312V26.0938H247.031V18.2812H231.406V14.375H227.5V6.5625H231.406V2.65625H250.938V6.5625H254.844V10.4688H247.031V6.5625H239.219V14.375H250.938V18.2812H254.844V26.0938H250.938V30H231.406V26.0938H227.5V22.1875ZM274.469 6.5625V26.0938H290.094V30H266.656V26.0938H262.75V6.5625H266.656V2.65625H290.094V6.5625H274.469ZM325.344 2.65625V30H317.531V18.2812H309.719V30H298V2.65625H309.719V14.375H317.531V2.65625H325.344ZM360.594 30H333.25V2.65625H360.594V6.5625H344.969V14.375H356.688V18.2812H344.969V26.0938H360.594V30ZM368.5 30V2.65625H391.938V6.5625H395.844V26.0938H391.938V30H368.5ZM380.238 26.0938H388.031V6.5625H380.219L380.238 26.0938ZM415.469 2.65625V26.0938H423.281V2.65625H431.094V26.0938H427.188V30H407.656V26.0938H403.75V2.65625H415.469ZM466.344 30H439V2.65625H450.719V26.0938H466.344V30ZM501.594 30H474.25V2.65625H501.594V6.5625H485.969V14.375H497.688V18.2812H485.969V26.0938H501.594V30Z"/>
</mask>
<path d="M227.5 22.1875H235.312V26.0938H247.031V18.2812H231.406V14.375H227.5V6.5625H231.406V2.65625H250.938V6.5625H254.844V10.4688H247.031V6.5625H239.219V14.375H250.938V18.2812H254.844V26.0938H250.938V30H231.406V26.0938H227.5V22.1875ZM274.469 6.5625V26.0938H290.094V30H266.656V26.0938H262.75V6.5625H266.656V2.65625H290.094V6.5625H274.469ZM325.344 2.65625V30H317.531V18.2812H309.719V30H298V2.65625H309.719V14.375H317.531V2.65625H325.344ZM360.594 30H333.25V2.65625H360.594V6.5625H344.969V14.375H356.688V18.2812H344.969V26.0938H360.594V30ZM368.5 30V2.65625H391.938V6.5625H395.844V26.0938H391.938V30H368.5ZM380.238 26.0938H388.031V6.5625H380.219L380.238 26.0938ZM415.469 2.65625V26.0938H423.281V2.65625H431.094V26.0938H427.188V30H407.656V26.0938H403.75V2.65625H415.469ZM466.344 30H439V2.65625H450.719V26.0938H466.344V30ZM501.594 30H474.25V2.65625H501.594V6.5625H485.969V14.375H497.688V18.2812H485.969V26.0938H501.594V30Z" fill="white"/>
<path d="M227.5 22.1875V20.1875H225.5V22.1875H227.5ZM235.312 22.1875H237.312V20.1875H235.312V22.1875ZM235.312 26.0938H233.312V28.0938H235.312V26.0938ZM247.031 26.0938V28.0938H249.031V26.0938H247.031ZM247.031 18.2812H249.031V16.2812H247.031V18.2812ZM231.406 18.2812H229.406V20.2812H231.406V18.2812ZM231.406 14.375H233.406V12.375H231.406V14.375ZM227.5 14.375H225.5V16.375H227.5V14.375ZM227.5 6.5625V4.5625H225.5V6.5625H227.5ZM231.406 6.5625V8.5625H233.406V6.5625H231.406ZM231.406 2.65625V0.65625H229.406V2.65625H231.406ZM250.938 2.65625H252.938V0.65625H250.938V2.65625ZM250.938 6.5625H248.938V8.5625H250.938V6.5625ZM254.844 6.5625H256.844V4.5625H254.844V6.5625ZM254.844 10.4688V12.4688H256.844V10.4688H254.844ZM247.031 10.4688H245.031V12.4688H247.031V10.4688ZM247.031 6.5625H249.031V4.5625H247.031V6.5625ZM239.219 6.5625V4.5625H237.219V6.5625H239.219ZM239.219 14.375H237.219V16.375H239.219V14.375ZM250.938 14.375H252.938V12.375H250.938V14.375ZM250.938 18.2812H248.938V20.2812H250.938V18.2812ZM254.844 18.2812H256.844V16.2812H254.844V18.2812ZM254.844 26.0938V28.0938H256.844V26.0938H254.844ZM250.938 26.0938V24.0938H248.938V26.0938H250.938ZM250.938 30V32H252.938V30H250.938ZM231.406 30H229.406V32H231.406V30ZM231.406 26.0938H233.406V24.0938H231.406V26.0938ZM227.5 26.0938H225.5V28.0938H227.5V26.0938ZM227.5 22.1875V24.1875H235.312V22.1875V20.1875H227.5V22.1875ZM235.312 22.1875H233.312V26.0938H235.312H237.312V22.1875H235.312ZM235.312 26.0938V28.0938H247.031V26.0938V24.0938H235.312V26.0938ZM247.031 26.0938H249.031V18.2812H247.031H245.031V26.0938H247.031ZM247.031 18.2812V16.2812H231.406V18.2812V20.2812H247.031V18.2812ZM231.406 18.2812H233.406V14.375H231.406H229.406V18.2812H231.406ZM231.406 14.375V12.375H227.5V14.375V16.375H231.406V14.375ZM227.5 14.375H229.5V6.5625H227.5H225.5V14.375H227.5ZM227.5 6.5625V8.5625H231.406V6.5625V4.5625H227.5V6.5625ZM231.406 6.5625H233.406V2.65625H231.406H229.406V6.5625H231.406ZM231.406 2.65625V4.65625H250.938V2.65625V0.65625H231.406V2.65625ZM250.938 2.65625H248.938V6.5625H250.938H252.938V2.65625H250.938ZM250.938 6.5625V8.5625H254.844V6.5625V4.5625H250.938V6.5625ZM254.844 6.5625H252.844V10.4688H254.844H256.844V6.5625H254.844ZM254.844 10.4688V8.46875H247.031V10.4688V12.4688H254.844V10.4688ZM247.031 10.4688H249.031V6.5625H247.031H245.031V10.4688H247.031ZM247.031 6.5625V4.5625H239.219V6.5625V8.5625H247.031V6.5625ZM239.219 6.5625H237.219V14.375H239.219H241.219V6.5625H239.219ZM239.219 14.375V16.375H250.938V14.375V12.375H239.219V14.375ZM250.938 14.375H248.938V18.2812H250.938H252.938V14.375H250.938ZM250.938 18.2812V20.2812H254.844V18.2812V16.2812H250.938V18.2812ZM254.844 18.2812H252.844V26.0938H254.844H256.844V18.2812H254.844ZM254.844 26.0938V24.0938H250.938V26.0938V28.0938H254.844V26.0938ZM250.938 26.0938H248.938V30H250.938H252.938V26.0938H250.938ZM250.938 30V28H231.406V30V32H250.938V30ZM231.406 30H233.406V26.0938H231.406H229.406V30H231.406ZM231.406 26.0938V24.0938H227.5V26.0938V28.0938H231.406V26.0938ZM227.5 26.0938H229.5V22.1875H227.5H225.5V26.0938H227.5ZM274.469 6.5625V4.5625H272.469V6.5625H274.469ZM274.469 26.0938H272.469V28.0938H274.469V26.0938ZM290.094 26.0938H292.094V24.0938H290.094V26.0938ZM290.094 30V32H292.094V30H290.094ZM266.656 30H264.656V32H266.656V30ZM266.656 26.0938H268.656V24.0938H266.656V26.0938ZM262.75 26.0938H260.75V28.0938H262.75V26.0938ZM262.75 6.5625V4.5625H260.75V6.5625H262.75ZM266.656 6.5625V8.5625H268.656V6.5625H266.656ZM266.656 2.65625V0.65625H264.656V2.65625H266.656ZM290.094 2.65625H292.094V0.65625H290.094V2.65625ZM290.094 6.5625V8.5625H292.094V6.5625H290.094ZM274.469 6.5625H272.469V26.0938H274.469H276.469V6.5625H274.469ZM274.469 26.0938V28.0938H290.094V26.0938V24.0938H274.469V26.0938ZM290.094 26.0938H288.094V30H290.094H292.094V26.0938H290.094ZM290.094 30V28H266.656V30V32H290.094V30ZM266.656 30H268.656V26.0938H266.656H264.656V30H266.656ZM266.656 26.0938V24.0938H262.75V26.0938V28.0938H266.656V26.0938ZM262.75 26.0938H264.75V6.5625H262.75H260.75V26.0938H262.75ZM262.75 6.5625V8.5625H266.656V6.5625V4.5625H262.75V6.5625ZM266.656 6.5625H268.656V2.65625H266.656H264.656V6.5625H266.656ZM266.656 2.65625V4.65625H290.094V2.65625V0.65625H266.656V2.65625ZM290.094 2.65625H288.094V6.5625H290.094H292.094V2.65625H290.094ZM290.094 6.5625V4.5625H274.469V6.5625V8.5625H290.094V6.5625ZM325.344 2.65625H327.344V0.65625H325.344V2.65625ZM325.344 30V32H327.344V30H325.344ZM317.531 30H315.531V32H317.531V30ZM317.531 18.2812H319.531V16.2812H317.531V18.2812ZM309.719 18.2812V16.2812H307.719V18.2812H309.719ZM309.719 30V32H311.719V30H309.719ZM298 30H296V32H298V30ZM298 2.65625V0.65625H296V2.65625H298ZM309.719 2.65625H311.719V0.65625H309.719V2.65625ZM309.719 14.375H307.719V16.375H309.719V14.375ZM317.531 14.375V16.375H319.531V14.375H317.531ZM317.531 2.65625V0.65625H315.531V2.65625H317.531ZM325.344 2.65625H323.344V30H325.344H327.344V2.65625H325.344ZM325.344 30V28H317.531V30V32H325.344V30ZM317.531 30H319.531V18.2812H317.531H315.531V30H317.531ZM317.531 18.2812V16.2812H309.719V18.2812V20.2812H317.531V18.2812ZM309.719 18.2812H307.719V30H309.719H311.719V18.2812H309.719ZM309.719 30V28H298V30V32H309.719V30ZM298 30H300V2.65625H298H296V30H298ZM298 2.65625V4.65625H309.719V2.65625V0.65625H298V2.65625ZM309.719 2.65625H307.719V14.375H309.719H311.719V2.65625H309.719ZM309.719 14.375V16.375H317.531V14.375V12.375H309.719V14.375ZM317.531 14.375H319.531V2.65625H317.531H315.531V14.375H317.531ZM317.531 2.65625V4.65625H325.344V2.65625V0.65625H317.531V2.65625ZM360.594 30V32H362.594V30H360.594ZM333.25 30H331.25V32H333.25V30ZM333.25 2.65625V0.65625H331.25V2.65625H333.25ZM360.594 2.65625H362.594V0.65625H360.594V2.65625ZM360.594 6.5625V8.5625H362.594V6.5625H360.594ZM344.969 6.5625V4.5625H342.969V6.5625H344.969ZM344.969 14.375H342.969V16.375H344.969V14.375ZM356.688 14.375H358.688V12.375H356.688V14.375ZM356.688 18.2812V20.2812H358.688V18.2812H356.688ZM344.969 18.2812V16.2812H342.969V18.2812H344.969ZM344.969 26.0938H342.969V28.0938H344.969V26.0938ZM360.594 26.0938H362.594V24.0938H360.594V26.0938ZM360.594 30V28H333.25V30V32H360.594V30ZM333.25 30H335.25V2.65625H333.25H331.25V30H333.25ZM333.25 2.65625V4.65625H360.594V2.65625V0.65625H333.25V2.65625ZM360.594 2.65625H358.594V6.5625H360.594H362.594V2.65625H360.594ZM360.594 6.5625V4.5625H344.969V6.5625V8.5625H360.594V6.5625ZM344.969 6.5625H342.969V14.375H344.969H346.969V6.5625H344.969ZM344.969 14.375V16.375H356.688V14.375V12.375H344.969V14.375ZM356.688 14.375H354.688V18.2812H356.688H358.688V14.375H356.688ZM356.688 18.2812V16.2812H344.969V18.2812V20.2812H356.688V18.2812ZM344.969 18.2812H342.969V26.0938H344.969H346.969V18.2812H344.969ZM344.969 26.0938V28.0938H360.594V26.0938V24.0938H344.969V26.0938ZM360.594 26.0938H358.594V30H360.594H362.594V26.0938H360.594ZM368.5 30H366.5V32H368.5V30ZM368.5 2.65625V0.65625H366.5V2.65625H368.5ZM391.938 2.65625H393.938V0.65625H391.938V2.65625ZM391.938 6.5625H389.938V8.5625H391.938V6.5625ZM395.844 6.5625H397.844V4.5625H395.844V6.5625ZM395.844 26.0938V28.0938H397.844V26.0938H395.844ZM391.938 26.0938V24.0938H389.938V26.0938H391.938ZM391.938 30V32H393.938V30H391.938ZM380.238 26.0938L378.238 26.0958L378.24 28.0938H380.238V26.0938ZM388.031 26.0938V28.0938H390.031V26.0938H388.031ZM388.031 6.5625H390.031V4.5625H388.031V6.5625ZM380.219 6.5625V4.5625H378.217L378.219 6.5645L380.219 6.5625ZM368.5 30H370.5V2.65625H368.5H366.5V30H368.5ZM368.5 2.65625V4.65625H391.938V2.65625V0.65625H368.5V2.65625ZM391.938 2.65625H389.938V6.5625H391.938H393.938V2.65625H391.938ZM391.938 6.5625V8.5625H395.844V6.5625V4.5625H391.938V6.5625ZM395.844 6.5625H393.844V26.0938H395.844H397.844V6.5625H395.844ZM395.844 26.0938V24.0938H391.938V26.0938V28.0938H395.844V26.0938ZM391.938 26.0938H389.938V30H391.938H393.938V26.0938H391.938ZM391.938 30V28H368.5V30V32H391.938V30ZM380.238 26.0938V28.0938H388.031V26.0938V24.0938H380.238V26.0938ZM388.031 26.0938H390.031V6.5625H388.031H386.031V26.0938H388.031ZM388.031 6.5625V4.5625H380.219V6.5625V8.5625H388.031V6.5625ZM380.219 6.5625L378.219 6.5645L378.238 26.0958L380.238 26.0938L382.238 26.0917L382.219 6.5605L380.219 6.5625ZM415.469 2.65625H417.469V0.65625H415.469V2.65625ZM415.469 26.0938H413.469V28.0938H415.469V26.0938ZM423.281 26.0938V28.0938H425.281V26.0938H423.281ZM423.281 2.65625V0.65625H421.281V2.65625H423.281ZM431.094 2.65625H433.094V0.65625H431.094V2.65625ZM431.094 26.0938V28.0938H433.094V26.0938H431.094ZM427.188 26.0938V24.0938H425.188V26.0938H427.188ZM427.188 30V32H429.188V30H427.188ZM407.656 30H405.656V32H407.656V30ZM407.656 26.0938H409.656V24.0938H407.656V26.0938ZM403.75 26.0938H401.75V28.0938H403.75V26.0938ZM403.75 2.65625V0.65625H401.75V2.65625H403.75ZM415.469 2.65625H413.469V26.0938H415.469H417.469V2.65625H415.469ZM415.469 26.0938V28.0938H423.281V26.0938V24.0938H415.469V26.0938ZM423.281 26.0938H425.281V2.65625H423.281H421.281V26.0938H423.281ZM423.281 2.65625V4.65625H431.094V2.65625V0.65625H423.281V2.65625ZM431.094 2.65625H429.094V26.0938H431.094H433.094V2.65625H431.094ZM431.094 26.0938V24.0938H427.188V26.0938V28.0938H431.094V26.0938ZM427.188 26.0938H425.188V30H427.188H429.188V26.0938H427.188ZM427.188 30V28H407.656V30V32H427.188V30ZM407.656 30H409.656V26.0938H407.656H405.656V30H407.656ZM407.656 26.0938V24.0938H403.75V26.0938V28.0938H407.656V26.0938ZM403.75 26.0938H405.75V2.65625H403.75H401.75V26.0938H403.75ZM403.75 2.65625V4.65625H415.469V2.65625V0.65625H403.75V2.65625ZM466.344 30V32H468.344V30H466.344ZM439 30H437V32H439V30ZM439 2.65625V0.65625H437V2.65625H439ZM450.719 2.65625H452.719V0.65625H450.719V2.65625ZM450.719 26.0938H448.719V28.0938H450.719V26.0938ZM466.344 26.0938H468.344V24.0938H466.344V26.0938ZM466.344 30V28H439V30V32H466.344V30ZM439 30H441V2.65625H439H437V30H439ZM439 2.65625V4.65625H450.719V2.65625V0.65625H439V2.65625ZM450.719 2.65625H448.719V26.0938H450.719H452.719V2.65625H450.719ZM450.719 26.0938V28.0938H466.344V26.0938V24.0938H450.719V26.0938ZM466.344 26.0938H464.344V30H466.344H468.344V26.0938H466.344ZM501.594 30V32H503.594V30H501.594ZM474.25 30H472.25V32H474.25V30ZM474.25 2.65625V0.65625H472.25V2.65625H474.25ZM501.594 2.65625H503.594V0.65625H501.594V2.65625ZM501.594 6.5625V8.5625H503.594V6.5625H501.594ZM485.969 6.5625V4.5625H483.969V6.5625H485.969ZM485.969 14.375H483.969V16.375H485.969V14.375ZM497.688 14.375H499.688V12.375H497.688V14.375ZM497.688 18.2812V20.2812H499.688V18.2812H497.688ZM485.969 18.2812V16.2812H483.969V18.2812H485.969ZM485.969 26.0938H483.969V28.0938H485.969V26.0938ZM501.594 26.0938H503.594V24.0938H501.594V26.0938ZM501.594 30V28H474.25V30V32H501.594V30ZM474.25 30H476.25V2.65625H474.25H472.25V30H474.25ZM474.25 2.65625V4.65625H501.594V2.65625V0.65625H474.25V2.65625ZM501.594 2.65625H499.594V6.5625H501.594H503.594V2.65625H501.594ZM501.594 6.5625V4.5625H485.969V6.5625V8.5625H501.594V6.5625ZM485.969 6.5625H483.969V14.375H485.969H487.969V6.5625H485.969ZM485.969 14.375V16.375H497.688V14.375V12.375H485.969V14.375ZM497.688 14.375H495.688V18.2812H497.688H499.688V14.375H497.688ZM497.688 18.2812V16.2812H485.969V18.2812V20.2812H497.688V18.2812ZM485.969 18.2812H483.969V26.0938H485.969H487.969V18.2812H485.969ZM485.969 26.0938V28.0938H501.594V26.0938V24.0938H485.969V26.0938ZM501.594 26.0938H499.594V30H501.594H503.594V26.0938H501.594Z" fill="#7E27E0" mask="url(#path-3-outside-1_43_10036)"/>
</g>
<g clip-path="url(#clip1_43_10036)">
<g filter="url(#filter2_d_43_10036)">
<path d="M577.5 3.33569V32.6664H574.832V29.9984H572.166V27.3317H569.498V24.6664H566.832L566.831 24.6639V22.0024H564.163V19.3345H561.501V16.6678C562.39 16.6691 563.276 16.6665 564.163 16.6665V13.9998H566.831V11.3331H569.498V8.66515H572.165V5.99848H574.832V3.33573L577.5 3.33569Z" fill="white"/>
<path d="M566.831 22.0024V24.6639L566.832 24.6664H569.498V27.3317H572.166V29.9984H574.832V32.6664H577.5V3.33569L574.832 3.33573V5.99848H572.165V8.66515H569.498V11.3331H566.831V13.9998H564.163V16.6665C563.276 16.6665 562.39 16.6691 561.501 16.6678V19.3345H564.163M566.831 22.0024L566.832 21.9999M566.831 22.0024H564.163V19.3345M564.163 19.3345L564.165 19.3331" stroke="#7E27E0" stroke-width="3"/>
</g>
</g>
<defs>
<filter id="filter0_d_43_10036" x="154" y="1.83569" width="18.9987" height="36.3308" filterUnits="userSpaceOnUse" color-interpolation-filters="sRGB">
<feFlood flood-opacity="0" result="BackgroundImageFix"/>
<feColorMatrix in="SourceAlpha" type="matrix" values="0 0 0 0 0 0 0 0 0 0 0 0 0 0 0 0 0 0 127 0" result="hardAlpha"/>
<feOffset dy="4"/>
<feComposite in2="hardAlpha" operator="out"/>
<feColorMatrix type="matrix" values="0 0 0 0 0.0892909 0 0 0 0 0.725962 0 0 0 0 0.0314118 0 0 0 1 0"/>
<feBlend mode="normal" in2="BackgroundImageFix" result="effect1_dropShadow_43_10036"/>
<feBlend mode="normal" in="SourceGraphic" in2="effect1_dropShadow_43_10036" result="shape"/>
</filter>
<filter id="filter1_d_43_10036" x="225.5" y="0.65625" width="278.094" height="35.3438" filterUnits="userSpaceOnUse" color-interpolation-filters="sRGB">
<feFlood flood-opacity="0" result="BackgroundImageFix"/>
<feColorMatrix in="SourceAlpha" type="matrix" values="0 0 0 0 0 0 0 0 0 0 0 0 0 0 0 0 0 0 127 0" result="hardAlpha"/>
<feOffset dy="4"/>
<feComposite in2="hardAlpha" operator="out"/>
<feColorMatrix type="matrix" values="0 0 0 0 0.0892909 0 0 0 0 0.725962 0 0 0 0 0.0314118 0 0 0 1 0"/>
<feBlend mode="normal" in2="BackgroundImageFix" result="effect1_dropShadow_43_10036"/>
<feBlend mode="normal" in="SourceGraphic" in2="effect1_dropShadow_43_10036" result="shape"/>
</filter>
<filter id="filter2_d_43_10036" x="560.002" y="1.83569" width="18.9987" height="36.3308" filterUnits="userSpaceOnUse" color-interpolation-filters="sRGB">
<feFlood flood-opacity="0" result="BackgroundImageFix"/>
<feColorMatrix in="SourceAlpha" type="matrix" values="0 0 0 0 0 0 0 0 0 0 0 0 0 0 0 0 0 0 127 0" result="hardAlpha"/>
<feOffset dy="4"/>
<feComposite in2="hardAlpha" operator="out"/>
<feColorMatrix type="matrix" values="0 0 0 0 0.0892909 0 0 0 0 0.725962 0 0 0 0 0.0314118 0 0 0 1 0"/>
<feBlend mode="normal" in2="BackgroundImageFix" result="effect1_dropShadow_43_10036"/>
<feBlend mode="normal" in="SourceGraphic" in2="effect1_dropShadow_43_10036" result="shape"/>
</filter>
<clipPath id="clip0_43_10036">
<rect width="32" height="32" fill="white" transform="translate(147.5 2)"/>
</clipPath>
<clipPath id="clip1_43_10036">
<rect width="32" height="32" fill="white" transform="matrix(-1 0 0 1 585.5 2)"/>
</clipPath>
</defs>
</svg>
