<svg width="847" height="56" viewBox="0 0 847 56" fill="none" xmlns="http://www.w3.org/2000/svg">
<g filter="url(#filter0_dd_306_145)">
<path d="M0.437531 35.7813H14.6563V42.8906H35.9844V28.6719H7.54691V21.5625H0.437531V7.34375H7.54691V0.234378H43.0938V7.34375H50.2032V14.4531H35.9844V7.34375H21.7657V21.5625H43.0938V28.6719H50.2032V42.8906H43.0938V50H7.54691V42.8906H0.437531V35.7813ZM99.9688 50H64.4219V42.8906H57.3125V7.34375H64.4219V0.234378H99.9688V7.34375H107.078V42.8906H99.9688V50ZM92.8594 42.8906V7.34375H78.6407V42.8906H92.8594ZM163.953 50H114.188V0.234378H135.516V42.8906H163.953V50ZM171.063 50V7.34375H178.172V0.234378H213.719V7.34375H220.828V50H206.609V28.6719H192.391V50H171.063ZM192.391 8.44571V21.5625H206.609V8.44571H192.391ZM227.938 50V0.234378H270.594V7.34375H277.703V50H263.484V7.34375H249.266L249.301 50H227.938ZM284.812 50V7.34375H291.922V0.234378H327.469V7.34375H334.578V50H320.359V28.6719H306.141V50H284.812ZM306.141 8.44571V21.5625H320.359V8.44571H306.141ZM448.328 21.5625V42.8906H441.219V50H405.672V42.8906H398.562V7.34375H405.672V0.234378H441.254V7.34375H448.328V14.4531H441.219V7.34375H419.891V42.8906H434.109V28.6719H427L427.036 21.5625H448.328ZM455.438 50V7.34375H462.547V0.234378H498.094V7.34375H505.203V50H490.984V28.6719H476.766V50H455.438ZM476.766 8.44571V21.5625H490.984V8.44571H476.766ZM547.859 7.34375V50H533.641V7.34375H526.531V50H512.312V0.234378H555.004V7.34375H562.078V50H554.969V7.34375H547.859ZM618.953 50H569.188V0.234378H618.953V7.34375H590.516V21.5625H611.844V28.6719H590.516V42.8906H618.953V50ZM704.266 42.8906V7.34375H697.156V0.234378H732.703V7.34375H725.594V42.8906H718.484V50H697.121V42.8906H690.047V35.7813H697.156V42.8906H704.266ZM739.812 50V7.34375H746.922V0.234378H782.469V7.34375H789.578V50H775.359V28.6719H761.141V50H739.812ZM761.141 8.44571V21.5625H775.359V8.44571H761.141ZM832.234 7.34375V50H818.016V7.34375H810.906V50H796.688V0.234378H839.379V7.34375H846.453V50H839.344V7.34375H832.234Z" fill="url(#paint0_linear_306_145)"/>
</g>
<defs>
<filter id="filter0_dd_306_145" x="0.4375" y="0.234375" width="846.016" height="55.4531" filterUnits="userSpaceOnUse" color-interpolation-filters="sRGB">
<feFlood flood-opacity="0" result="BackgroundImageFix"/>
<feColorMatrix in="SourceAlpha" type="matrix" values="0 0 0 0 0 0 0 0 0 0 0 0 0 0 0 0 0 0 127 0" result="hardAlpha"/>
<feOffset dy="5.6875"/>
<feComposite in2="hardAlpha" operator="out"/>
<feColorMatrix type="matrix" values="0 0 0 0 0.87451 0 0 0 0 1 0 0 0 0 0.341176 0 0 0 1 0"/>
<feBlend mode="normal" in2="BackgroundImageFix" result="effect1_dropShadow_306_145"/>
<feColorMatrix in="SourceAlpha" type="matrix" values="0 0 0 0 0 0 0 0 0 0 0 0 0 0 0 0 0 0 127 0" result="hardAlpha"/>
<feOffset dy="4.55"/>
<feComposite in2="hardAlpha" operator="out"/>
<feColorMatrix type="matrix" values="0 0 0 0 0.735577 0 0 0 0 0.131772 0 0 0 0 0.0848743 0 0 0 1 0"/>
<feBlend mode="normal" in2="effect1_dropShadow_306_145" result="effect2_dropShadow_306_145"/>
<feBlend mode="normal" in="SourceGraphic" in2="effect2_dropShadow_306_145" result="shape"/>
</filter>
<linearGradient id="paint0_linear_306_145" x1="427" y1="84" x2="427" y2="-25" gradientUnits="userSpaceOnUse">
<stop stop-color="#FF472F"/>
<stop offset="1" stop-color="#FFF710"/>
</linearGradient>
</defs>
</svg>
