<svg width="263" height="15" viewBox="0 0 263 15" fill="none" xmlns="http://www.w3.org/2000/svg">
<g filter="url(#filter0_d_43_4730)">
<mask id="path-1-outside-1_43_4730" maskUnits="userSpaceOnUse" x="0" y="0" width="263" height="13" fill="black">
<rect fill="white" width="263" height="13"/>
<path d="M1 8.875H4.125V10.4375H8.8125V7.3125H2.5625V5.75H1V2.625H2.5625V1.0625H10.375V2.625H11.9375V4.1875H8.8125V2.625H5.6875V5.75H10.375V7.3125H11.9375V10.4375H10.375V12H2.5625V10.4375H1V8.875ZM22.875 12H15.0625V10.4375H13.5V2.625H15.0625V1.0625H22.875V2.625H24.4375V10.4375H22.875V12ZM21.3125 10.4375V2.625H18.1875V10.4375H21.3125ZM36.9375 12H26V1.0625H30.6875V10.4375H36.9375V12ZM38.5 12V2.625H40.0625V1.0625H47.875V2.625H49.4375V12H46.3125V7.3125H43.1875V12H38.5ZM43.1875 2.86719V5.75H46.3125V2.86719H43.1875ZM51 12V1.0625H60.375V2.625H61.9375V12H58.8125V2.625H55.6875L55.6953 12H51ZM63.5 12V2.625H65.0625V1.0625H72.875V2.625H74.4375V12H71.3125V7.3125H68.1875V12H63.5ZM68.1875 2.86719V5.75H71.3125V2.86719H68.1875ZM99.4375 5.75V10.4375H97.875V12H90.0625V10.4375H88.5V2.625H90.0625V1.0625H97.8828V2.625H99.4375V4.1875H97.875V2.625H93.1875V10.4375H96.3125V7.3125H94.75L94.7578 5.75H99.4375ZM101 12V2.625H102.562V1.0625H110.375V2.625H111.938V12H108.812V7.3125H105.688V12H101ZM105.688 2.86719V5.75H108.812V2.86719H105.688ZM121.312 2.625V12H118.188V2.625H116.625V12H113.5V1.0625H122.883V2.625H124.438V12H122.875V2.625H121.312ZM136.938 12H126V1.0625H136.938V2.625H130.688V5.75H135.375V7.3125H130.688V10.4375H136.938V12ZM155.688 10.4375V2.625H154.125V1.0625H161.938V2.625H160.375V10.4375H158.812V12H154.117V10.4375H152.562V8.875H154.125V10.4375H155.688ZM163.5 12V2.625H165.062V1.0625H172.875V2.625H174.438V12H171.312V7.3125H168.188V12H163.5ZM168.188 2.86719V5.75H171.312V2.86719H168.188ZM183.812 2.625V12H180.688V2.625H179.125V12H176V1.0625H185.383V2.625H186.938V12H185.375V2.625H183.812ZM193.188 8.875H196.312V12H193.188V8.875ZM193.188 2.625H196.312V5.75H193.188V2.625ZM213.5 12V2.625H215.062V1.0625H222.875V2.625H224.438V12H221.312V7.3125H218.188V12H213.5ZM218.188 2.86719V5.75H221.312V2.86719H218.188ZM230.695 7.3125L230.711 12H226V1.0625H235.375V2.625H236.938V5.75H235.375V7.3125H230.695ZM230.688 2.625V5.75H233.812V2.625H230.688ZM238.5 12V2.625H240.062V1.0625H247.875V2.625H249.438V12H246.312V7.3125H243.188V12H238.5ZM243.188 2.86719V5.75H246.312V2.86719H243.188ZM255.688 2.625V10.4375H261.938V12H252.562V10.4375H251V2.625H252.562V1.0625H261.938V2.625H255.688Z"/>
</mask>
<path d="M1 8.875H4.125V10.4375H8.8125V7.3125H2.5625V5.75H1V2.625H2.5625V1.0625H10.375V2.625H11.9375V4.1875H8.8125V2.625H5.6875V5.75H10.375V7.3125H11.9375V10.4375H10.375V12H2.5625V10.4375H1V8.875ZM22.875 12H15.0625V10.4375H13.5V2.625H15.0625V1.0625H22.875V2.625H24.4375V10.4375H22.875V12ZM21.3125 10.4375V2.625H18.1875V10.4375H21.3125ZM36.9375 12H26V1.0625H30.6875V10.4375H36.9375V12ZM38.5 12V2.625H40.0625V1.0625H47.875V2.625H49.4375V12H46.3125V7.3125H43.1875V12H38.5ZM43.1875 2.86719V5.75H46.3125V2.86719H43.1875ZM51 12V1.0625H60.375V2.625H61.9375V12H58.8125V2.625H55.6875L55.6953 12H51ZM63.5 12V2.625H65.0625V1.0625H72.875V2.625H74.4375V12H71.3125V7.3125H68.1875V12H63.5ZM68.1875 2.86719V5.75H71.3125V2.86719H68.1875ZM99.4375 5.75V10.4375H97.875V12H90.0625V10.4375H88.5V2.625H90.0625V1.0625H97.8828V2.625H99.4375V4.1875H97.875V2.625H93.1875V10.4375H96.3125V7.3125H94.75L94.7578 5.75H99.4375ZM101 12V2.625H102.562V1.0625H110.375V2.625H111.938V12H108.812V7.3125H105.688V12H101ZM105.688 2.86719V5.75H108.812V2.86719H105.688ZM121.312 2.625V12H118.188V2.625H116.625V12H113.5V1.0625H122.883V2.625H124.438V12H122.875V2.625H121.312ZM136.938 12H126V1.0625H136.938V2.625H130.688V5.75H135.375V7.3125H130.688V10.4375H136.938V12ZM155.688 10.4375V2.625H154.125V1.0625H161.938V2.625H160.375V10.4375H158.812V12H154.117V10.4375H152.562V8.875H154.125V10.4375H155.688ZM163.5 12V2.625H165.062V1.0625H172.875V2.625H174.438V12H171.312V7.3125H168.188V12H163.5ZM168.188 2.86719V5.75H171.312V2.86719H168.188ZM183.812 2.625V12H180.688V2.625H179.125V12H176V1.0625H185.383V2.625H186.938V12H185.375V2.625H183.812ZM193.188 8.875H196.312V12H193.188V8.875ZM193.188 2.625H196.312V5.75H193.188V2.625ZM213.5 12V2.625H215.062V1.0625H222.875V2.625H224.438V12H221.312V7.3125H218.188V12H213.5ZM218.188 2.86719V5.75H221.312V2.86719H218.188ZM230.695 7.3125L230.711 12H226V1.0625H235.375V2.625H236.938V5.75H235.375V7.3125H230.695ZM230.688 2.625V5.75H233.812V2.625H230.688ZM238.5 12V2.625H240.062V1.0625H247.875V2.625H249.438V12H246.312V7.3125H243.188V12H238.5ZM243.188 2.86719V5.75H246.312V2.86719H243.188ZM255.688 2.625V10.4375H261.938V12H252.562V10.4375H251V2.625H252.562V1.0625H261.938V2.625H255.688Z" fill="#1C1C1C"/>
<path d="M1 8.875V7.875H0V8.875H1ZM4.125 8.875H5.125V7.875H4.125V8.875ZM4.125 10.4375H3.125V11.4375H4.125V10.4375ZM8.8125 10.4375V11.4375H9.8125V10.4375H8.8125ZM8.8125 7.3125H9.8125V6.3125H8.8125V7.3125ZM2.5625 7.3125H1.5625V8.3125H2.5625V7.3125ZM2.5625 5.75H3.5625V4.75H2.5625V5.75ZM1 5.75H0V6.75H1V5.75ZM1 2.625V1.625H0V2.625H1ZM2.5625 2.625V3.625H3.5625V2.625H2.5625ZM2.5625 1.0625V0.0625H1.5625V1.0625H2.5625ZM10.375 1.0625H11.375V0.0625H10.375V1.0625ZM10.375 2.625H9.375V3.625H10.375V2.625ZM11.9375 2.625H12.9375V1.625H11.9375V2.625ZM11.9375 4.1875V5.1875H12.9375V4.1875H11.9375ZM8.8125 4.1875H7.8125V5.1875H8.8125V4.1875ZM8.8125 2.625H9.8125V1.625H8.8125V2.625ZM5.6875 2.625V1.625H4.6875V2.625H5.6875ZM5.6875 5.75H4.6875V6.75H5.6875V5.75ZM10.375 5.75H11.375V4.75H10.375V5.75ZM10.375 7.3125H9.375V8.3125H10.375V7.3125ZM11.9375 7.3125H12.9375V6.3125H11.9375V7.3125ZM11.9375 10.4375V11.4375H12.9375V10.4375H11.9375ZM10.375 10.4375V9.4375H9.375V10.4375H10.375ZM10.375 12V13H11.375V12H10.375ZM2.5625 12H1.5625V13H2.5625V12ZM2.5625 10.4375H3.5625V9.4375H2.5625V10.4375ZM1 10.4375H0V11.4375H1V10.4375ZM1 8.875V9.875H4.125V8.875V7.875H1V8.875ZM4.125 8.875H3.125V10.4375H4.125H5.125V8.875H4.125ZM4.125 10.4375V11.4375H8.8125V10.4375V9.4375H4.125V10.4375ZM8.8125 10.4375H9.8125V7.3125H8.8125H7.8125V10.4375H8.8125ZM8.8125 7.3125V6.3125H2.5625V7.3125V8.3125H8.8125V7.3125ZM2.5625 7.3125H3.5625V5.75H2.5625H1.5625V7.3125H2.5625ZM2.5625 5.75V4.75H1V5.75V6.75H2.5625V5.75ZM1 5.75H2V2.625H1H0V5.75H1ZM1 2.625V3.625H2.5625V2.625V1.625H1V2.625ZM2.5625 2.625H3.5625V1.0625H2.5625H1.5625V2.625H2.5625ZM2.5625 1.0625V2.0625H10.375V1.0625V0.0625H2.5625V1.0625ZM10.375 1.0625H9.375V2.625H10.375H11.375V1.0625H10.375ZM10.375 2.625V3.625H11.9375V2.625V1.625H10.375V2.625ZM11.9375 2.625H10.9375V4.1875H11.9375H12.9375V2.625H11.9375ZM11.9375 4.1875V3.1875H8.8125V4.1875V5.1875H11.9375V4.1875ZM8.8125 4.1875H9.8125V2.625H8.8125H7.8125V4.1875H8.8125ZM8.8125 2.625V1.625H5.6875V2.625V3.625H8.8125V2.625ZM5.6875 2.625H4.6875V5.75H5.6875H6.6875V2.625H5.6875ZM5.6875 5.75V6.75H10.375V5.75V4.75H5.6875V5.75ZM10.375 5.75H9.375V7.3125H10.375H11.375V5.75H10.375ZM10.375 7.3125V8.3125H11.9375V7.3125V6.3125H10.375V7.3125ZM11.9375 7.3125H10.9375V10.4375H11.9375H12.9375V7.3125H11.9375ZM11.9375 10.4375V9.4375H10.375V10.4375V11.4375H11.9375V10.4375ZM10.375 10.4375H9.375V12H10.375H11.375V10.4375H10.375ZM10.375 12V11H2.5625V12V13H10.375V12ZM2.5625 12H3.5625V10.4375H2.5625H1.5625V12H2.5625ZM2.5625 10.4375V9.4375H1V10.4375V11.4375H2.5625V10.4375ZM1 10.4375H2V8.875H1H0V10.4375H1ZM22.875 12V13H23.875V12H22.875ZM15.0625 12H14.0625V13H15.0625V12ZM15.0625 10.4375H16.0625V9.4375H15.0625V10.4375ZM13.5 10.4375H12.5V11.4375H13.5V10.4375ZM13.5 2.625V1.625H12.5V2.625H13.5ZM15.0625 2.625V3.625H16.0625V2.625H15.0625ZM15.0625 1.0625V0.0625H14.0625V1.0625H15.0625ZM22.875 1.0625H23.875V0.0625H22.875V1.0625ZM22.875 2.625H21.875V3.625H22.875V2.625ZM24.4375 2.625H25.4375V1.625H24.4375V2.625ZM24.4375 10.4375V11.4375H25.4375V10.4375H24.4375ZM22.875 10.4375V9.4375H21.875V10.4375H22.875ZM21.3125 10.4375V11.4375H22.3125V10.4375H21.3125ZM21.3125 2.625H22.3125V1.625H21.3125V2.625ZM18.1875 2.625V1.625H17.1875V2.625H18.1875ZM18.1875 10.4375H17.1875V11.4375H18.1875V10.4375ZM22.875 12V11H15.0625V12V13H22.875V12ZM15.0625 12H16.0625V10.4375H15.0625H14.0625V12H15.0625ZM15.0625 10.4375V9.4375H13.5V10.4375V11.4375H15.0625V10.4375ZM13.5 10.4375H14.5V2.625H13.5H12.5V10.4375H13.5ZM13.5 2.625V3.625H15.0625V2.625V1.625H13.5V2.625ZM15.0625 2.625H16.0625V1.0625H15.0625H14.0625V2.625H15.0625ZM15.0625 1.0625V2.0625H22.875V1.0625V0.0625H15.0625V1.0625ZM22.875 1.0625H21.875V2.625H22.875H23.875V1.0625H22.875ZM22.875 2.625V3.625H24.4375V2.625V1.625H22.875V2.625ZM24.4375 2.625H23.4375V10.4375H24.4375H25.4375V2.625H24.4375ZM24.4375 10.4375V9.4375H22.875V10.4375V11.4375H24.4375V10.4375ZM22.875 10.4375H21.875V12H22.875H23.875V10.4375H22.875ZM21.3125 10.4375H22.3125V2.625H21.3125H20.3125V10.4375H21.3125ZM21.3125 2.625V1.625H18.1875V2.625V3.625H21.3125V2.625ZM18.1875 2.625H17.1875V10.4375H18.1875H19.1875V2.625H18.1875ZM18.1875 10.4375V11.4375H21.3125V10.4375V9.4375H18.1875V10.4375ZM36.9375 12V13H37.9375V12H36.9375ZM26 12H25V13H26V12ZM26 1.0625V0.0625H25V1.0625H26ZM30.6875 1.0625H31.6875V0.0625H30.6875V1.0625ZM30.6875 10.4375H29.6875V11.4375H30.6875V10.4375ZM36.9375 10.4375H37.9375V9.4375H36.9375V10.4375ZM36.9375 12V11H26V12V13H36.9375V12ZM26 12H27V1.0625H26H25V12H26ZM26 1.0625V2.0625H30.6875V1.0625V0.0625H26V1.0625ZM30.6875 1.0625H29.6875V10.4375H30.6875H31.6875V1.0625H30.6875ZM30.6875 10.4375V11.4375H36.9375V10.4375V9.4375H30.6875V10.4375ZM36.9375 10.4375H35.9375V12H36.9375H37.9375V10.4375H36.9375ZM38.5 12H37.5V13H38.5V12ZM38.5 2.625V1.625H37.5V2.625H38.5ZM40.0625 2.625V3.625H41.0625V2.625H40.0625ZM40.0625 1.0625V0.0625H39.0625V1.0625H40.0625ZM47.875 1.0625H48.875V0.0625H47.875V1.0625ZM47.875 2.625H46.875V3.625H47.875V2.625ZM49.4375 2.625H50.4375V1.625H49.4375V2.625ZM49.4375 12V13H50.4375V12H49.4375ZM46.3125 12H45.3125V13H46.3125V12ZM46.3125 7.3125H47.3125V6.3125H46.3125V7.3125ZM43.1875 7.3125V6.3125H42.1875V7.3125H43.1875ZM43.1875 12V13H44.1875V12H43.1875ZM43.1875 2.86719V1.86719H42.1875V2.86719H43.1875ZM43.1875 5.75H42.1875V6.75H43.1875V5.75ZM46.3125 5.75V6.75H47.3125V5.75H46.3125ZM46.3125 2.86719H47.3125V1.86719H46.3125V2.86719ZM38.5 12H39.5V2.625H38.5H37.5V12H38.5ZM38.5 2.625V3.625H40.0625V2.625V1.625H38.5V2.625ZM40.0625 2.625H41.0625V1.0625H40.0625H39.0625V2.625H40.0625ZM40.0625 1.0625V2.0625H47.875V1.0625V0.0625H40.0625V1.0625ZM47.875 1.0625H46.875V2.625H47.875H48.875V1.0625H47.875ZM47.875 2.625V3.625H49.4375V2.625V1.625H47.875V2.625ZM49.4375 2.625H48.4375V12H49.4375H50.4375V2.625H49.4375ZM49.4375 12V11H46.3125V12V13H49.4375V12ZM46.3125 12H47.3125V7.3125H46.3125H45.3125V12H46.3125ZM46.3125 7.3125V6.3125H43.1875V7.3125V8.3125H46.3125V7.3125ZM43.1875 7.3125H42.1875V12H43.1875H44.1875V7.3125H43.1875ZM43.1875 12V11H38.5V12V13H43.1875V12ZM43.1875 2.86719H42.1875V5.75H43.1875H44.1875V2.86719H43.1875ZM43.1875 5.75V6.75H46.3125V5.75V4.75H43.1875V5.75ZM46.3125 5.75H47.3125V2.86719H46.3125H45.3125V5.75H46.3125ZM46.3125 2.86719V1.86719H43.1875V2.86719V3.86719H46.3125V2.86719ZM51 12H50V13H51V12ZM51 1.0625V0.0625H50V1.0625H51ZM60.375 1.0625H61.375V0.0625H60.375V1.0625ZM60.375 2.625H59.375V3.625H60.375V2.625ZM61.9375 2.625H62.9375V1.625H61.9375V2.625ZM61.9375 12V13H62.9375V12H61.9375ZM58.8125 12H57.8125V13H58.8125V12ZM58.8125 2.625H59.8125V1.625H58.8125V2.625ZM55.6875 2.625V1.625H54.6867L54.6875 2.62583L55.6875 2.625ZM55.6953 12V13H56.6961L56.6953 11.9992L55.6953 12ZM51 12H52V1.0625H51H50V12H51ZM51 1.0625V2.0625H60.375V1.0625V0.0625H51V1.0625ZM60.375 1.0625H59.375V2.625H60.375H61.375V1.0625H60.375ZM60.375 2.625V3.625H61.9375V2.625V1.625H60.375V2.625ZM61.9375 2.625H60.9375V12H61.9375H62.9375V2.625H61.9375ZM61.9375 12V11H58.8125V12V13H61.9375V12ZM58.8125 12H59.8125V2.625H58.8125H57.8125V12H58.8125ZM58.8125 2.625V1.625H55.6875V2.625V3.625H58.8125V2.625ZM55.6875 2.625L54.6875 2.62583L54.6953 12.0008L55.6953 12L56.6953 11.9992L56.6875 2.62417L55.6875 2.625ZM55.6953 12V11H51V12V13H55.6953V12ZM63.5 12H62.5V13H63.5V12ZM63.5 2.625V1.625H62.5V2.625H63.5ZM65.0625 2.625V3.625H66.0625V2.625H65.0625ZM65.0625 1.0625V0.0625H64.0625V1.0625H65.0625ZM72.875 1.0625H73.875V0.0625H72.875V1.0625ZM72.875 2.625H71.875V3.625H72.875V2.625ZM74.4375 2.625H75.4375V1.625H74.4375V2.625ZM74.4375 12V13H75.4375V12H74.4375ZM71.3125 12H70.3125V13H71.3125V12ZM71.3125 7.3125H72.3125V6.3125H71.3125V7.3125ZM68.1875 7.3125V6.3125H67.1875V7.3125H68.1875ZM68.1875 12V13H69.1875V12H68.1875ZM68.1875 2.86719V1.86719H67.1875V2.86719H68.1875ZM68.1875 5.75H67.1875V6.75H68.1875V5.75ZM71.3125 5.75V6.75H72.3125V5.75H71.3125ZM71.3125 2.86719H72.3125V1.86719H71.3125V2.86719ZM63.5 12H64.5V2.625H63.5H62.5V12H63.5ZM63.5 2.625V3.625H65.0625V2.625V1.625H63.5V2.625ZM65.0625 2.625H66.0625V1.0625H65.0625H64.0625V2.625H65.0625ZM65.0625 1.0625V2.0625H72.875V1.0625V0.0625H65.0625V1.0625ZM72.875 1.0625H71.875V2.625H72.875H73.875V1.0625H72.875ZM72.875 2.625V3.625H74.4375V2.625V1.625H72.875V2.625ZM74.4375 2.625H73.4375V12H74.4375H75.4375V2.625H74.4375ZM74.4375 12V11H71.3125V12V13H74.4375V12ZM71.3125 12H72.3125V7.3125H71.3125H70.3125V12H71.3125ZM71.3125 7.3125V6.3125H68.1875V7.3125V8.3125H71.3125V7.3125ZM68.1875 7.3125H67.1875V12H68.1875H69.1875V7.3125H68.1875ZM68.1875 12V11H63.5V12V13H68.1875V12ZM68.1875 2.86719H67.1875V5.75H68.1875H69.1875V2.86719H68.1875ZM68.1875 5.75V6.75H71.3125V5.75V4.75H68.1875V5.75ZM71.3125 5.75H72.3125V2.86719H71.3125H70.3125V5.75H71.3125ZM71.3125 2.86719V1.86719H68.1875V2.86719V3.86719H71.3125V2.86719ZM99.4375 5.75H100.438V4.75H99.4375V5.75ZM99.4375 10.4375V11.4375H100.438V10.4375H99.4375ZM97.875 10.4375V9.4375H96.875V10.4375H97.875ZM97.875 12V13H98.875V12H97.875ZM90.0625 12H89.0625V13H90.0625V12ZM90.0625 10.4375H91.0625V9.4375H90.0625V10.4375ZM88.5 10.4375H87.5V11.4375H88.5V10.4375ZM88.5 2.625V1.625H87.5V2.625H88.5ZM90.0625 2.625V3.625H91.0625V2.625H90.0625ZM90.0625 1.0625V0.0625H89.0625V1.0625H90.0625ZM97.8828 1.0625H98.8828V0.0625H97.8828V1.0625ZM97.8828 2.625H96.8828V3.625H97.8828V2.625ZM99.4375 2.625H100.438V1.625H99.4375V2.625ZM99.4375 4.1875V5.1875H100.438V4.1875H99.4375ZM97.875 4.1875H96.875V5.1875H97.875V4.1875ZM97.875 2.625H98.875V1.625H97.875V2.625ZM93.1875 2.625V1.625H92.1875V2.625H93.1875ZM93.1875 10.4375H92.1875V11.4375H93.1875V10.4375ZM96.3125 10.4375V11.4375H97.3125V10.4375H96.3125ZM96.3125 7.3125H97.3125V6.3125H96.3125V7.3125ZM94.75 7.3125L93.75 7.3075L93.745 8.3125H94.75V7.3125ZM94.7578 5.75V4.75H93.7628L93.7578 5.745L94.7578 5.75ZM99.4375 5.75H98.4375V10.4375H99.4375H100.438V5.75H99.4375ZM99.4375 10.4375V9.4375H97.875V10.4375V11.4375H99.4375V10.4375ZM97.875 10.4375H96.875V12H97.875H98.875V10.4375H97.875ZM97.875 12V11H90.0625V12V13H97.875V12ZM90.0625 12H91.0625V10.4375H90.0625H89.0625V12H90.0625ZM90.0625 10.4375V9.4375H88.5V10.4375V11.4375H90.0625V10.4375ZM88.5 10.4375H89.5V2.625H88.5H87.5V10.4375H88.5ZM88.5 2.625V3.625H90.0625V2.625V1.625H88.5V2.625ZM90.0625 2.625H91.0625V1.0625H90.0625H89.0625V2.625H90.0625ZM90.0625 1.0625V2.0625H97.8828V1.0625V0.0625H90.0625V1.0625ZM97.8828 1.0625H96.8828V2.625H97.8828H98.8828V1.0625H97.8828ZM97.8828 2.625V3.625H99.4375V2.625V1.625H97.8828V2.625ZM99.4375 2.625H98.4375V4.1875H99.4375H100.438V2.625H99.4375ZM99.4375 4.1875V3.1875H97.875V4.1875V5.1875H99.4375V4.1875ZM97.875 4.1875H98.875V2.625H97.875H96.875V4.1875H97.875ZM97.875 2.625V1.625H93.1875V2.625V3.625H97.875V2.625ZM93.1875 2.625H92.1875V10.4375H93.1875H94.1875V2.625H93.1875ZM93.1875 10.4375V11.4375H96.3125V10.4375V9.4375H93.1875V10.4375ZM96.3125 10.4375H97.3125V7.3125H96.3125H95.3125V10.4375H96.3125ZM96.3125 7.3125V6.3125H94.75V7.3125V8.3125H96.3125V7.3125ZM94.75 7.3125L95.75 7.3175L95.7578 5.755L94.7578 5.75L93.7578 5.745L93.75 7.3075L94.75 7.3125ZM94.7578 5.75V6.75H99.4375V5.75V4.75H94.7578V5.75ZM101 12H100V13H101V12ZM101 2.625V1.625H100V2.625H101ZM102.562 2.625V3.625H103.562V2.625H102.562ZM102.562 1.0625V0.0625H101.562V1.0625H102.562ZM110.375 1.0625H111.375V0.0625H110.375V1.0625ZM110.375 2.625H109.375V3.625H110.375V2.625ZM111.938 2.625H112.938V1.625H111.938V2.625ZM111.938 12V13H112.938V12H111.938ZM108.812 12H107.812V13H108.812V12ZM108.812 7.3125H109.812V6.3125H108.812V7.3125ZM105.688 7.3125V6.3125H104.688V7.3125H105.688ZM105.688 12V13H106.688V12H105.688ZM105.688 2.86719V1.86719H104.688V2.86719H105.688ZM105.688 5.75H104.688V6.75H105.688V5.75ZM108.812 5.75V6.75H109.812V5.75H108.812ZM108.812 2.86719H109.812V1.86719H108.812V2.86719ZM101 12H102V2.625H101H100V12H101ZM101 2.625V3.625H102.562V2.625V1.625H101V2.625ZM102.562 2.625H103.562V1.0625H102.562H101.562V2.625H102.562ZM102.562 1.0625V2.0625H110.375V1.0625V0.0625H102.562V1.0625ZM110.375 1.0625H109.375V2.625H110.375H111.375V1.0625H110.375ZM110.375 2.625V3.625H111.938V2.625V1.625H110.375V2.625ZM111.938 2.625H110.938V12H111.938H112.938V2.625H111.938ZM111.938 12V11H108.812V12V13H111.938V12ZM108.812 12H109.812V7.3125H108.812H107.812V12H108.812ZM108.812 7.3125V6.3125H105.688V7.3125V8.3125H108.812V7.3125ZM105.688 7.3125H104.688V12H105.688H106.688V7.3125H105.688ZM105.688 12V11H101V12V13H105.688V12ZM105.688 2.86719H104.688V5.75H105.688H106.688V2.86719H105.688ZM105.688 5.75V6.75H108.812V5.75V4.75H105.688V5.75ZM108.812 5.75H109.812V2.86719H108.812H107.812V5.75H108.812ZM108.812 2.86719V1.86719H105.688V2.86719V3.86719H108.812V2.86719ZM121.312 2.625V1.625H120.312V2.625H121.312ZM121.312 12V13H122.312V12H121.312ZM118.188 12H117.188V13H118.188V12ZM118.188 2.625H119.188V1.625H118.188V2.625ZM116.625 2.625V1.625H115.625V2.625H116.625ZM116.625 12V13H117.625V12H116.625ZM113.5 12H112.5V13H113.5V12ZM113.5 1.0625V0.0625H112.5V1.0625H113.5ZM122.883 1.0625H123.883V0.0625H122.883V1.0625ZM122.883 2.625H121.883V3.625H122.883V2.625ZM124.438 2.625H125.438V1.625H124.438V2.625ZM124.438 12V13H125.438V12H124.438ZM122.875 12H121.875V13H122.875V12ZM122.875 2.625H123.875V1.625H122.875V2.625ZM121.312 2.625H120.312V12H121.312H122.312V2.625H121.312ZM121.312 12V11H118.188V12V13H121.312V12ZM118.188 12H119.188V2.625H118.188H117.188V12H118.188ZM118.188 2.625V1.625H116.625V2.625V3.625H118.188V2.625ZM116.625 2.625H115.625V12H116.625H117.625V2.625H116.625ZM116.625 12V11H113.5V12V13H116.625V12ZM113.5 12H114.5V1.0625H113.5H112.5V12H113.5ZM113.5 1.0625V2.0625H122.883V1.0625V0.0625H113.5V1.0625ZM122.883 1.0625H121.883V2.625H122.883H123.883V1.0625H122.883ZM122.883 2.625V3.625H124.438V2.625V1.625H122.883V2.625ZM124.438 2.625H123.438V12H124.438H125.438V2.625H124.438ZM124.438 12V11H122.875V12V13H124.438V12ZM122.875 12H123.875V2.625H122.875H121.875V12H122.875ZM122.875 2.625V1.625H121.312V2.625V3.625H122.875V2.625ZM136.938 12V13H137.938V12H136.938ZM126 12H125V13H126V12ZM126 1.0625V0.0625H125V1.0625H126ZM136.938 1.0625H137.938V0.0625H136.938V1.0625ZM136.938 2.625V3.625H137.938V2.625H136.938ZM130.688 2.625V1.625H129.688V2.625H130.688ZM130.688 5.75H129.688V6.75H130.688V5.75ZM135.375 5.75H136.375V4.75H135.375V5.75ZM135.375 7.3125V8.3125H136.375V7.3125H135.375ZM130.688 7.3125V6.3125H129.688V7.3125H130.688ZM130.688 10.4375H129.688V11.4375H130.688V10.4375ZM136.938 10.4375H137.938V9.4375H136.938V10.4375ZM136.938 12V11H126V12V13H136.938V12ZM126 12H127V1.0625H126H125V12H126ZM126 1.0625V2.0625H136.938V1.0625V0.0625H126V1.0625ZM136.938 1.0625H135.938V2.625H136.938H137.938V1.0625H136.938ZM136.938 2.625V1.625H130.688V2.625V3.625H136.938V2.625ZM130.688 2.625H129.688V5.75H130.688H131.688V2.625H130.688ZM130.688 5.75V6.75H135.375V5.75V4.75H130.688V5.75ZM135.375 5.75H134.375V7.3125H135.375H136.375V5.75H135.375ZM135.375 7.3125V6.3125H130.688V7.3125V8.3125H135.375V7.3125ZM130.688 7.3125H129.688V10.4375H130.688H131.688V7.3125H130.688ZM130.688 10.4375V11.4375H136.938V10.4375V9.4375H130.688V10.4375ZM136.938 10.4375H135.938V12H136.938H137.938V10.4375H136.938ZM155.688 10.4375V11.4375H156.688V10.4375H155.688ZM155.688 2.625H156.688V1.625H155.688V2.625ZM154.125 2.625H153.125V3.625H154.125V2.625ZM154.125 1.0625V0.0625H153.125V1.0625H154.125ZM161.938 1.0625H162.938V0.0625H161.938V1.0625ZM161.938 2.625V3.625H162.938V2.625H161.938ZM160.375 2.625V1.625H159.375V2.625H160.375ZM160.375 10.4375V11.4375H161.375V10.4375H160.375ZM158.812 10.4375V9.4375H157.812V10.4375H158.812ZM158.812 12V13H159.812V12H158.812ZM154.117 12H153.117V13H154.117V12ZM154.117 10.4375H155.117V9.4375H154.117V10.4375ZM152.562 10.4375H151.562V11.4375H152.562V10.4375ZM152.562 8.875V7.875H151.562V8.875H152.562ZM154.125 8.875H155.125V7.875H154.125V8.875ZM154.125 10.4375H153.125V11.4375H154.125V10.4375ZM155.688 10.4375H156.688V2.625H155.688H154.688V10.4375H155.688ZM155.688 2.625V1.625H154.125V2.625V3.625H155.688V2.625ZM154.125 2.625H155.125V1.0625H154.125H153.125V2.625H154.125ZM154.125 1.0625V2.0625H161.938V1.0625V0.0625H154.125V1.0625ZM161.938 1.0625H160.938V2.625H161.938H162.938V1.0625H161.938ZM161.938 2.625V1.625H160.375V2.625V3.625H161.938V2.625ZM160.375 2.625H159.375V10.4375H160.375H161.375V2.625H160.375ZM160.375 10.4375V9.4375H158.812V10.4375V11.4375H160.375V10.4375ZM158.812 10.4375H157.812V12H158.812H159.812V10.4375H158.812ZM158.812 12V11H154.117V12V13H158.812V12ZM154.117 12H155.117V10.4375H154.117H153.117V12H154.117ZM154.117 10.4375V9.4375H152.562V10.4375V11.4375H154.117V10.4375ZM152.562 10.4375H153.562V8.875H152.562H151.562V10.4375H152.562ZM152.562 8.875V9.875H154.125V8.875V7.875H152.562V8.875ZM154.125 8.875H153.125V10.4375H154.125H155.125V8.875H154.125ZM154.125 10.4375V11.4375H155.688V10.4375V9.4375H154.125V10.4375ZM163.5 12H162.5V13H163.5V12ZM163.5 2.625V1.625H162.5V2.625H163.5ZM165.062 2.625V3.625H166.062V2.625H165.062ZM165.062 1.0625V0.0625H164.062V1.0625H165.062ZM172.875 1.0625H173.875V0.0625H172.875V1.0625ZM172.875 2.625H171.875V3.625H172.875V2.625ZM174.438 2.625H175.438V1.625H174.438V2.625ZM174.438 12V13H175.438V12H174.438ZM171.312 12H170.312V13H171.312V12ZM171.312 7.3125H172.312V6.3125H171.312V7.3125ZM168.188 7.3125V6.3125H167.188V7.3125H168.188ZM168.188 12V13H169.188V12H168.188ZM168.188 2.86719V1.86719H167.188V2.86719H168.188ZM168.188 5.75H167.188V6.75H168.188V5.75ZM171.312 5.75V6.75H172.312V5.75H171.312ZM171.312 2.86719H172.312V1.86719H171.312V2.86719ZM163.5 12H164.5V2.625H163.5H162.5V12H163.5ZM163.5 2.625V3.625H165.062V2.625V1.625H163.5V2.625ZM165.062 2.625H166.062V1.0625H165.062H164.062V2.625H165.062ZM165.062 1.0625V2.0625H172.875V1.0625V0.0625H165.062V1.0625ZM172.875 1.0625H171.875V2.625H172.875H173.875V1.0625H172.875ZM172.875 2.625V3.625H174.438V2.625V1.625H172.875V2.625ZM174.438 2.625H173.438V12H174.438H175.438V2.625H174.438ZM174.438 12V11H171.312V12V13H174.438V12ZM171.312 12H172.312V7.3125H171.312H170.312V12H171.312ZM171.312 7.3125V6.3125H168.188V7.3125V8.3125H171.312V7.3125ZM168.188 7.3125H167.188V12H168.188H169.188V7.3125H168.188ZM168.188 12V11H163.5V12V13H168.188V12ZM168.188 2.86719H167.188V5.75H168.188H169.188V2.86719H168.188ZM168.188 5.75V6.75H171.312V5.75V4.75H168.188V5.75ZM171.312 5.75H172.312V2.86719H171.312H170.312V5.75H171.312ZM171.312 2.86719V1.86719H168.188V2.86719V3.86719H171.312V2.86719ZM183.812 2.625V1.625H182.812V2.625H183.812ZM183.812 12V13H184.812V12H183.812ZM180.688 12H179.688V13H180.688V12ZM180.688 2.625H181.688V1.625H180.688V2.625ZM179.125 2.625V1.625H178.125V2.625H179.125ZM179.125 12V13H180.125V12H179.125ZM176 12H175V13H176V12ZM176 1.0625V0.0625H175V1.0625H176ZM185.383 1.0625H186.383V0.0625H185.383V1.0625ZM185.383 2.625H184.383V3.625H185.383V2.625ZM186.938 2.625H187.938V1.625H186.938V2.625ZM186.938 12V13H187.938V12H186.938ZM185.375 12H184.375V13H185.375V12ZM185.375 2.625H186.375V1.625H185.375V2.625ZM183.812 2.625H182.812V12H183.812H184.812V2.625H183.812ZM183.812 12V11H180.688V12V13H183.812V12ZM180.688 12H181.688V2.625H180.688H179.688V12H180.688ZM180.688 2.625V1.625H179.125V2.625V3.625H180.688V2.625ZM179.125 2.625H178.125V12H179.125H180.125V2.625H179.125ZM179.125 12V11H176V12V13H179.125V12ZM176 12H177V1.0625H176H175V12H176ZM176 1.0625V2.0625H185.383V1.0625V0.0625H176V1.0625ZM185.383 1.0625H184.383V2.625H185.383H186.383V1.0625H185.383ZM185.383 2.625V3.625H186.938V2.625V1.625H185.383V2.625ZM186.938 2.625H185.938V12H186.938H187.938V2.625H186.938ZM186.938 12V11H185.375V12V13H186.938V12ZM185.375 12H186.375V2.625H185.375H184.375V12H185.375ZM185.375 2.625V1.625H183.812V2.625V3.625H185.375V2.625ZM193.188 8.875V7.875H192.188V8.875H193.188ZM196.312 8.875H197.312V7.875H196.312V8.875ZM196.312 12V13H197.312V12H196.312ZM193.188 12H192.188V13H193.188V12ZM193.188 2.625V1.625H192.188V2.625H193.188ZM196.312 2.625H197.312V1.625H196.312V2.625ZM196.312 5.75V6.75H197.312V5.75H196.312ZM193.188 5.75H192.188V6.75H193.188V5.75ZM193.188 8.875V9.875H196.312V8.875V7.875H193.188V8.875ZM196.312 8.875H195.312V12H196.312H197.312V8.875H196.312ZM196.312 12V11H193.188V12V13H196.312V12ZM193.188 12H194.188V8.875H193.188H192.188V12H193.188ZM193.188 2.625V3.625H196.312V2.625V1.625H193.188V2.625ZM196.312 2.625H195.312V5.75H196.312H197.312V2.625H196.312ZM196.312 5.75V4.75H193.188V5.75V6.75H196.312V5.75ZM193.188 5.75H194.188V2.625H193.188H192.188V5.75H193.188ZM213.5 12H212.5V13H213.5V12ZM213.5 2.625V1.625H212.5V2.625H213.5ZM215.062 2.625V3.625H216.062V2.625H215.062ZM215.062 1.0625V0.0625H214.062V1.0625H215.062ZM222.875 1.0625H223.875V0.0625H222.875V1.0625ZM222.875 2.625H221.875V3.625H222.875V2.625ZM224.438 2.625H225.438V1.625H224.438V2.625ZM224.438 12V13H225.438V12H224.438ZM221.312 12H220.312V13H221.312V12ZM221.312 7.3125H222.312V6.3125H221.312V7.3125ZM218.188 7.3125V6.3125H217.188V7.3125H218.188ZM218.188 12V13H219.188V12H218.188ZM218.188 2.86719V1.86719H217.188V2.86719H218.188ZM218.188 5.75H217.188V6.75H218.188V5.75ZM221.312 5.75V6.75H222.312V5.75H221.312ZM221.312 2.86719H222.312V1.86719H221.312V2.86719ZM213.5 12H214.5V2.625H213.5H212.5V12H213.5ZM213.5 2.625V3.625H215.062V2.625V1.625H213.5V2.625ZM215.062 2.625H216.062V1.0625H215.062H214.062V2.625H215.062ZM215.062 1.0625V2.0625H222.875V1.0625V0.0625H215.062V1.0625ZM222.875 1.0625H221.875V2.625H222.875H223.875V1.0625H222.875ZM222.875 2.625V3.625H224.438V2.625V1.625H222.875V2.625ZM224.438 2.625H223.438V12H224.438H225.438V2.625H224.438ZM224.438 12V11H221.312V12V13H224.438V12ZM221.312 12H222.312V7.3125H221.312H220.312V12H221.312ZM221.312 7.3125V6.3125H218.188V7.3125V8.3125H221.312V7.3125ZM218.188 7.3125H217.188V12H218.188H219.188V7.3125H218.188ZM218.188 12V11H213.5V12V13H218.188V12ZM218.188 2.86719H217.188V5.75H218.188H219.188V2.86719H218.188ZM218.188 5.75V6.75H221.312V5.75V4.75H218.188V5.75ZM221.312 5.75H222.312V2.86719H221.312H220.312V5.75H221.312ZM221.312 2.86719V1.86719H218.188V2.86719V3.86719H221.312V2.86719ZM230.695 7.3125V6.3125H229.692L229.695 7.31583L230.695 7.3125ZM230.711 12V13H231.714L231.711 11.9967L230.711 12ZM226 12H225V13H226V12ZM226 1.0625V0.0625H225V1.0625H226ZM235.375 1.0625H236.375V0.0625H235.375V1.0625ZM235.375 2.625H234.375V3.625H235.375V2.625ZM236.938 2.625H237.938V1.625H236.938V2.625ZM236.938 5.75V6.75H237.938V5.75H236.938ZM235.375 5.75V4.75H234.375V5.75H235.375ZM235.375 7.3125V8.3125H236.375V7.3125H235.375ZM230.688 2.625V1.625H229.688V2.625H230.688ZM230.688 5.75H229.688V6.75H230.688V5.75ZM233.812 5.75V6.75H234.812V5.75H233.812ZM233.812 2.625H234.812V1.625H233.812V2.625ZM230.695 7.3125L229.695 7.31583L229.711 12.0033L230.711 12L231.711 11.9967L231.695 7.30917L230.695 7.3125ZM230.711 12V11H226V12V13H230.711V12ZM226 12H227V1.0625H226H225V12H226ZM226 1.0625V2.0625H235.375V1.0625V0.0625H226V1.0625ZM235.375 1.0625H234.375V2.625H235.375H236.375V1.0625H235.375ZM235.375 2.625V3.625H236.938V2.625V1.625H235.375V2.625ZM236.938 2.625H235.938V5.75H236.938H237.938V2.625H236.938ZM236.938 5.75V4.75H235.375V5.75V6.75H236.938V5.75ZM235.375 5.75H234.375V7.3125H235.375H236.375V5.75H235.375ZM235.375 7.3125V6.3125H230.695V7.3125V8.3125H235.375V7.3125ZM230.688 2.625H229.688V5.75H230.688H231.688V2.625H230.688ZM230.688 5.75V6.75H233.812V5.75V4.75H230.688V5.75ZM233.812 5.75H234.812V2.625H233.812H232.812V5.75H233.812ZM233.812 2.625V1.625H230.688V2.625V3.625H233.812V2.625ZM238.5 12H237.5V13H238.5V12ZM238.5 2.625V1.625H237.5V2.625H238.5ZM240.062 2.625V3.625H241.062V2.625H240.062ZM240.062 1.0625V0.0625H239.062V1.0625H240.062ZM247.875 1.0625H248.875V0.0625H247.875V1.0625ZM247.875 2.625H246.875V3.625H247.875V2.625ZM249.438 2.625H250.438V1.625H249.438V2.625ZM249.438 12V13H250.438V12H249.438ZM246.312 12H245.312V13H246.312V12ZM246.312 7.3125H247.312V6.3125H246.312V7.3125ZM243.188 7.3125V6.3125H242.188V7.3125H243.188ZM243.188 12V13H244.188V12H243.188ZM243.188 2.86719V1.86719H242.188V2.86719H243.188ZM243.188 5.75H242.188V6.75H243.188V5.75ZM246.312 5.75V6.75H247.312V5.75H246.312ZM246.312 2.86719H247.312V1.86719H246.312V2.86719ZM238.5 12H239.5V2.625H238.5H237.5V12H238.5ZM238.5 2.625V3.625H240.062V2.625V1.625H238.5V2.625ZM240.062 2.625H241.062V1.0625H240.062H239.062V2.625H240.062ZM240.062 1.0625V2.0625H247.875V1.0625V0.0625H240.062V1.0625ZM247.875 1.0625H246.875V2.625H247.875H248.875V1.0625H247.875ZM247.875 2.625V3.625H249.438V2.625V1.625H247.875V2.625ZM249.438 2.625H248.438V12H249.438H250.438V2.625H249.438ZM249.438 12V11H246.312V12V13H249.438V12ZM246.312 12H247.312V7.3125H246.312H245.312V12H246.312ZM246.312 7.3125V6.3125H243.188V7.3125V8.3125H246.312V7.3125ZM243.188 7.3125H242.188V12H243.188H244.188V7.3125H243.188ZM243.188 12V11H238.5V12V13H243.188V12ZM243.188 2.86719H242.188V5.75H243.188H244.188V2.86719H243.188ZM243.188 5.75V6.75H246.312V5.75V4.75H243.188V5.75ZM246.312 5.75H247.312V2.86719H246.312H245.312V5.75H246.312ZM246.312 2.86719V1.86719H243.188V2.86719V3.86719H246.312V2.86719ZM255.688 2.625V1.625H254.688V2.625H255.688ZM255.688 10.4375H254.688V11.4375H255.688V10.4375ZM261.938 10.4375H262.938V9.4375H261.938V10.4375ZM261.938 12V13H262.938V12H261.938ZM252.562 12H251.562V13H252.562V12ZM252.562 10.4375H253.562V9.4375H252.562V10.4375ZM251 10.4375H250V11.4375H251V10.4375ZM251 2.625V1.625H250V2.625H251ZM252.562 2.625V3.625H253.562V2.625H252.562ZM252.562 1.0625V0.0625H251.562V1.0625H252.562ZM261.938 1.0625H262.938V0.0625H261.938V1.0625ZM261.938 2.625V3.625H262.938V2.625H261.938ZM255.688 2.625H254.688V10.4375H255.688H256.688V2.625H255.688ZM255.688 10.4375V11.4375H261.938V10.4375V9.4375H255.688V10.4375ZM261.938 10.4375H260.938V12H261.938H262.938V10.4375H261.938ZM261.938 12V11H252.562V12V13H261.938V12ZM252.562 12H253.562V10.4375H252.562H251.562V12H252.562ZM252.562 10.4375V9.4375H251V10.4375V11.4375H252.562V10.4375ZM251 10.4375H252V2.625H251H250V10.4375H251ZM251 2.625V3.625H252.562V2.625V1.625H251V2.625ZM252.562 2.625H253.562V1.0625H252.562H251.562V2.625H252.562ZM252.562 1.0625V2.0625H261.938V1.0625V0.0625H252.562V1.0625ZM261.938 1.0625H260.938V2.625H261.938H262.938V1.0625H261.938ZM261.938 2.625V1.625H255.688V2.625V3.625H261.938V2.625Z" fill="white" mask="url(#path-1-outside-1_43_4730)"/>
</g>
<defs>
<filter id="filter0_d_43_4730" x="0" y="0.0625" width="262.938" height="14.9375" filterUnits="userSpaceOnUse" color-interpolation-filters="sRGB">
<feFlood flood-opacity="0" result="BackgroundImageFix"/>
<feColorMatrix in="SourceAlpha" type="matrix" values="0 0 0 0 0 0 0 0 0 0 0 0 0 0 0 0 0 0 127 0" result="hardAlpha"/>
<feOffset dy="2"/>
<feComposite in2="hardAlpha" operator="out"/>
<feColorMatrix type="matrix" values="0 0 0 0 0.152941 0 0 0 0 0.0117647 0 0 0 0 0 0 0 0 1 0"/>
<feBlend mode="normal" in2="BackgroundImageFix" result="effect1_dropShadow_43_4730"/>
<feBlend mode="normal" in="SourceGraphic" in2="effect1_dropShadow_43_4730" result="shape"/>
</filter>
</defs>
</svg>
