<svg width="889" height="57" viewBox="0 0 889 57" fill="none" xmlns="http://www.w3.org/2000/svg">
<g filter="url(#filter0_dd_24_1171)">
<path d="M3.05176e-05 36.25H14.2188V43.3594H35.5469V29.1406H7.10941V22.0313H3.05176e-05V7.8125H7.10941V0.703128H42.6563V7.8125H49.7657V14.9219H35.5469V7.8125H21.3282V22.0313H42.6563V29.1406H49.7657V43.3594H42.6563V50.4688H7.10941V43.3594H3.05176e-05V36.25ZM99.5313 50.4688H63.9844V43.3594H56.875V7.8125H63.9844V0.703128H99.5313V7.8125H106.641V43.3594H99.5313V50.4688ZM92.4219 43.3594V7.8125H78.2032V43.3594H92.4219ZM163.516 50.4688H113.75V0.703128H135.078V43.3594H163.516V50.4688ZM170.625 50.4688V7.8125H177.734V0.703128H213.281V7.8125H220.391V50.4688H206.172V29.1406H191.953V50.4688H170.625ZM191.953 8.91446V22.0313H206.172V8.91446H191.953ZM227.5 50.4688V0.703128H270.156V7.8125H277.266V50.4688H263.047V7.8125H248.828L248.864 50.4688H227.5ZM284.375 50.4688V7.8125H291.484V0.703128H327.031V7.8125H334.141V50.4688H319.922V29.1406H305.703V50.4688H284.375ZM305.703 8.91446V22.0313H319.922V8.91446H305.703ZM447.891 22.0313V43.3594H440.781V50.4688H405.234V43.3594H398.125V7.8125H405.234V0.703128H440.817V7.8125H447.891V14.9219H440.781V7.8125H419.453V43.3594H433.672V29.1406H426.562L426.598 22.0313H447.891ZM455 50.4688V7.8125H462.109V0.703128H497.656V7.8125H504.766V50.4688H490.547V29.1406H476.328V50.4688H455ZM476.328 8.91446V22.0313H490.547V8.91446H476.328ZM547.422 7.8125V50.4688H533.203V7.8125H526.094V50.4688H511.875V0.703128H554.567V7.8125H561.641V50.4688H554.531V7.8125H547.422ZM618.516 50.4688H568.75V0.703128H618.516V7.8125H590.078V22.0313H611.406V29.1406H590.078V43.3594H618.516V50.4688ZM703.828 43.3594V7.8125H696.719V0.703128H732.266V7.8125H725.156V43.3594H718.047V50.4688H696.683V43.3594H689.609V36.25H696.719V43.3594H703.828ZM739.375 50.4688V7.8125H746.484V0.703128H782.031V7.8125H789.141V50.4688H774.922V29.1406H760.703V50.4688H739.375ZM760.703 8.91446V22.0313H774.922V8.91446H760.703ZM831.797 7.8125V50.4688H817.578V7.8125H810.469V50.4688H796.25V0.703128H838.942V7.8125H846.016V50.4688H838.906V7.8125H831.797ZM874.453 36.25H888.672V50.4688H874.453V36.25ZM874.453 7.8125H888.672V22.0313H874.453V7.8125Z" fill="url(#paint0_linear_24_1171)"/>
</g>
<defs>
<filter id="filter0_dd_24_1171" x="0" y="0.703125" width="888.672" height="55.4531" filterUnits="userSpaceOnUse" color-interpolation-filters="sRGB">
<feFlood flood-opacity="0" result="BackgroundImageFix"/>
<feColorMatrix in="SourceAlpha" type="matrix" values="0 0 0 0 0 0 0 0 0 0 0 0 0 0 0 0 0 0 127 0" result="hardAlpha"/>
<feOffset dy="5.6875"/>
<feComposite in2="hardAlpha" operator="out"/>
<feColorMatrix type="matrix" values="0 0 0 0 0.87451 0 0 0 0 1 0 0 0 0 0.341176 0 0 0 1 0"/>
<feBlend mode="normal" in2="BackgroundImageFix" result="effect1_dropShadow_24_1171"/>
<feColorMatrix in="SourceAlpha" type="matrix" values="0 0 0 0 0 0 0 0 0 0 0 0 0 0 0 0 0 0 127 0" result="hardAlpha"/>
<feOffset dy="4.55"/>
<feComposite in2="hardAlpha" operator="out"/>
<feColorMatrix type="matrix" values="0 0 0 0 0.735577 0 0 0 0 0.131772 0 0 0 0 0.0848743 0 0 0 1 0"/>
<feBlend mode="normal" in2="effect1_dropShadow_24_1171" result="effect2_dropShadow_24_1171"/>
<feBlend mode="normal" in="SourceGraphic" in2="effect2_dropShadow_24_1171" result="shape"/>
</filter>
<linearGradient id="paint0_linear_24_1171" x1="455" y1="84.4688" x2="455" y2="-24.5312" gradientUnits="userSpaceOnUse">
<stop stop-color="#FF472F"/>
<stop offset="1" stop-color="#FFF710"/>
</linearGradient>
</defs>
</svg>
