<svg width="468" height="170" viewBox="0 0 468 170" fill="none" xmlns="http://www.w3.org/2000/svg">
<path d="M201.87 57.2713C202.805 57.8278 203.675 58.3391 204.537 58.8643C206.172 59.8557 207.79 60.8748 209.442 61.8348C210.071 62.2 210.384 62.687 210.43 63.3861C210.443 63.5843 210.454 63.7861 210.454 63.9843C210.461 74.12 210.457 84.2522 210.475 94.3878C210.478 97.5322 210.534 100.673 210.576 103.817C210.579 104.2 210.659 104.579 210.666 104.958C210.67 105.306 210.76 105.358 211.063 105.181C211.95 104.656 212.847 104.151 213.741 103.64C223.09 98.2904 232.44 92.9409 241.786 87.5878C241.977 87.4765 242.21 87.4209 242.221 87.1078C242.231 86.767 241.957 86.753 241.772 86.6557C236.986 84.0817 232.197 81.5148 227.414 78.9374C227.08 78.7565 226.969 78.7357 226.903 79.1774C226.791 79.9217 226.746 80.6626 226.743 81.4104C226.732 83.073 226.715 84.7391 226.708 86.4017C226.704 87.087 226.45 87.5565 225.821 87.9287C223.428 89.3374 221.07 90.8017 218.697 92.2487C218.249 92.5235 218.186 92.5061 218.172 91.967C218.144 90.6522 218.141 89.3374 218.141 88.0226C218.141 83.4313 218.144 78.8365 218.155 74.2452C218.162 71.3617 220.009 68.993 222.746 68.3461C224.252 67.9913 225.699 68.2417 227.049 68.9513C231.282 71.1843 235.501 73.4452 239.723 75.6957C243.285 77.5948 246.85 79.4939 250.412 81.4C252.193 82.353 253.525 83.6922 253.894 85.7583C254.377 88.4574 253.483 90.6522 251.177 92.1235C249.104 93.4452 246.934 94.6104 244.802 95.8383C233.991 102.05 223.181 108.259 212.37 114.471C211.261 115.108 210.158 115.776 208.871 116.002C205.87 116.53 202.843 114.555 202.089 111.588C201.936 110.99 201.863 110.381 201.859 109.762C201.845 106.652 201.797 103.539 201.817 100.43C201.915 86.2696 201.828 72.1096 201.859 57.9496C201.87 57.7513 201.87 57.5565 201.87 57.2713Z" fill="#60E15E"/>
<g clip-path="url(#clip0_1_11)">
<path d="M123.528 89.269C123.13 86.4878 123.473 83.6894 123.359 80.9025C123.319 79.9021 123.602 79.4848 124.705 79.4419C128.141 79.3076 130.948 77.8126 133.189 75.2115C134.503 73.6851 135.464 71.8644 135.913 70.015C136.387 68.057 135.998 65.9018 136.098 63.8352C136.161 62.5489 135.653 62.2088 134.435 62.2345C131.154 62.3031 127.869 62.2117 124.591 62.286C123.636 62.306 123.305 62.043 123.33 61.114C123.37 59.6877 123.242 58.2528 123.368 56.8379C123.488 55.4888 123.128 55.0229 121.69 55.0486C116.839 55.1343 111.986 55.1201 107.135 55.04C105.798 55.0171 105.36 55.3344 105.378 56.7493C105.48 65.7875 105.509 74.8256 105.515 83.8638C105.518 86.7822 105.761 89.6663 106.627 92.4503C107.833 96.3291 110.045 99.3762 114.067 100.768C113.635 104.993 115.124 108.692 118.071 111.45C121.453 114.614 125.72 115.723 130.37 114.534C136.041 113.085 140.031 107.831 140.003 101.88C139.974 96.029 135.947 90.9954 130.308 89.4433C128.007 88.8116 125.786 89.1832 123.528 89.269Z" fill="#EC8C0D"/>
<path d="M76 78.8332C76.0772 78.05 76.6688 78.1786 77.1748 78.1786C79.6472 78.1729 82.1196 78.1786 84.592 78.1586C84.8836 78.1558 85.338 78.3644 85.4324 77.9071C85.5324 77.4183 85.0036 77.4698 84.7435 77.3783C83.1686 76.8238 81.6423 76.1692 80.316 75.1373C76.5202 72.1875 75.6913 68.1143 76.1658 63.6467C76.6946 58.6646 79.7787 55.8805 85.4009 55.306C90.5659 54.78 95.7594 55.1088 100.939 55.043C101.184 55.0402 101.41 55.0916 101.542 55.3317C101.525 62.5205 101.507 69.7093 101.496 76.8981C101.493 79.1534 101.496 79.1419 99.1665 79.1305C96.6111 79.1191 94.053 79.1276 91.2604 79.1276C93.1783 80.0737 94.9991 80.7112 96.574 81.8659C100.95 85.0816 102.07 89.6607 101.29 94.6028C100.644 98.6932 97.9145 100.64 94.1444 101.64C91.7092 102.286 89.2539 102.166 86.7986 102.209C83.9432 102.26 81.0849 102.246 78.2295 102.206C76.0086 102.175 76.0543 102.769 76.0457 99.9594C76.0257 93.2937 76.0543 86.628 76.0572 79.9623C76.0543 79.5907 76.02 79.2134 76 78.8332ZM93.5128 65.3446C91.4205 66.0049 90.6059 64.4985 89.5969 63.1408C89.8198 65.7962 87.9134 65.1902 86.3013 65.3589C86.9301 65.8448 87.3131 66.1764 87.7333 66.4508C88.2163 66.768 88.5622 67.1196 88.2306 67.717C88.0477 68.0486 87.9648 68.3573 88.3135 68.586C88.5993 68.7746 88.9281 68.8032 89.2282 68.5459C89.8884 67.98 90.4058 68.3087 90.9517 68.7775C91.2118 69.0004 91.4805 69.352 92.1379 69.1576C91.0946 67.4512 91.8149 66.3021 93.5128 65.3446Z" fill="#FDFCFB"/>
<path d="M114.064 100.768C110.042 99.3762 107.833 96.3291 106.624 92.4503C105.758 89.6663 105.515 86.7822 105.512 83.8638C105.506 74.8256 105.478 65.7875 105.375 56.7493C105.358 55.3344 105.795 55.0171 107.133 55.04C111.983 55.1201 116.836 55.1343 121.687 55.0486C123.125 55.0229 123.485 55.4888 123.365 56.8379C123.239 58.2528 123.368 59.6877 123.328 61.114C123.302 62.043 123.633 62.306 124.588 62.286C127.869 62.2145 131.154 62.3031 134.432 62.2345C135.65 62.2088 136.158 62.5489 136.096 63.8352C135.993 65.899 136.384 68.0542 135.91 70.015C135.461 71.8644 134.501 73.6851 133.186 75.2115C130.945 77.8126 128.138 79.3076 124.702 79.4419C123.602 79.4848 123.316 79.9021 123.356 80.9025C123.47 83.6894 123.13 86.4849 123.525 89.269C123.436 89.3719 123.365 89.5291 123.253 89.5662C117.883 91.4099 114.956 95.2544 114.064 100.768Z" fill="#FDFCFB"/>
<path d="M114.064 100.768C114.959 95.2544 117.883 91.4099 123.256 89.5662C123.368 89.5291 123.439 89.3719 123.528 89.269C125.789 89.1832 128.009 88.8116 130.305 89.4462C135.941 90.9983 139.971 96.0319 140 101.883C140.029 107.834 136.038 113.088 130.368 114.537C125.717 115.726 121.45 114.617 118.068 111.453C115.121 108.692 113.632 104.99 114.064 100.768ZM127.038 97.1638C126.477 97.4725 126.497 98.0556 126.349 98.5301C125.68 100.657 125.691 100.66 123.428 100.642C123.285 100.642 123.139 100.62 123.002 100.645C122.659 100.708 122.153 100.454 122.024 100.96C121.898 101.451 122.401 101.509 122.716 101.703C124.657 102.903 124.76 103.209 123.951 105.384C123.771 105.87 123.599 106.339 123.831 106.991C124.537 106.516 125.28 106.165 125.826 105.616C126.729 104.71 127.446 104.981 128.27 105.69C128.807 106.153 129.196 106.954 130.279 106.699C130.119 106.148 130.059 105.562 129.793 105.096C128.938 103.607 129.622 102.766 130.859 101.989C131.285 101.72 132.225 101.666 132.011 100.965C131.822 100.345 131.011 100.774 130.485 100.677C130.302 100.642 130.102 100.645 129.916 100.677C128.758 100.871 128.155 100.371 127.895 99.2418C127.729 98.5215 127.604 97.7498 127.038 97.1638Z" fill="#D42B14"/>
<path d="M127.038 97.1638C127.601 97.7497 127.729 98.5215 127.895 99.2418C128.155 100.371 128.761 100.871 129.916 100.677C130.102 100.645 130.302 100.642 130.485 100.677C131.011 100.774 131.822 100.345 132.011 100.965C132.225 101.666 131.285 101.72 130.859 101.989C129.622 102.769 128.938 103.609 129.793 105.096C130.062 105.562 130.119 106.148 130.279 106.699C129.196 106.954 128.807 106.153 128.27 105.69C127.446 104.981 126.732 104.71 125.826 105.616C125.28 106.165 124.537 106.516 123.831 106.991C123.599 106.339 123.768 105.87 123.951 105.384C124.76 103.209 124.657 102.903 122.716 101.703C122.401 101.509 121.898 101.451 122.024 100.96C122.153 100.454 122.659 100.708 123.002 100.645C123.139 100.62 123.288 100.642 123.428 100.642C125.691 100.66 125.677 100.654 126.349 98.5301C126.497 98.0556 126.477 97.4725 127.038 97.1638Z" fill="#EC8C0D"/>
</g>
<g clip-path="url(#clip1_1_11)">
<path d="M351.899 61.7821C357.696 61.7881 363.027 62.409 368.197 64.003C374.239 65.8657 377.857 69.9433 378.746 76.2298C379.027 78.206 378.937 80.2478 378.884 82.2597C378.848 83.6985 378.734 85.1672 378.394 86.5582C377.534 90.0866 375.648 92.9284 372.424 94.797C371.97 95.0597 371.588 95.5612 371.319 96.0388C369.624 99.0358 367.642 101.818 365.194 104.254C360.728 108.701 355.361 111.418 349.182 112.51C343.815 113.46 338.442 113.466 333.158 112.015C325.176 109.83 319.11 105.119 315.176 97.8119C313.194 94.1284 312.525 90.1463 312.866 85.9851C313.087 83.2806 313.648 80.6537 314.74 78.1642C316.388 74.4209 319.134 71.6448 322.615 69.603C328.358 66.2299 334.531 63.9851 341.087 62.7851C344.788 62.0866 348.531 61.8119 351.899 61.7821ZM352.209 64.594C351.779 64.594 351.343 64.5881 350.913 64.594C350.484 64.606 350.048 64.6418 349.618 64.6597C344.454 64.8627 339.415 65.7821 334.507 67.4C331.254 68.4687 328.06 69.7164 325.104 71.4716C321.17 73.8119 319.099 77.2985 319.224 81.9134C319.301 84.7313 319.797 87.5015 320.83 90.1463C321.576 92.0448 322.675 93.7164 324.233 95.0597C327.499 97.8657 331.701 98.2478 335.188 94.9224C337.648 92.5761 340.358 90.5224 343.152 88.594C346.161 86.5164 349.493 85.8298 353.021 86.8866C354.681 87.3821 356.269 88.1522 357.839 88.9045C360.191 90.0269 362.501 91.2388 364.83 92.4149C367.982 94.009 371.14 92.7134 372.854 90.9522C374.31 89.4478 375.296 87.6687 375.719 85.6209C376.269 82.9463 376.239 80.2299 376.03 77.5254C375.624 72.2 372.657 68.3851 367.558 66.7851C362.567 65.209 357.427 64.6119 352.209 64.594ZM350.143 99.0358C350.34 99.0358 350.543 99.0597 350.74 99.0298C351.66 98.9164 352.591 98.8388 353.493 98.6478C354.143 98.5104 354.37 98.0328 354.215 97.4418C354.078 96.9224 353.678 96.6955 353.045 96.791C352.896 96.8149 352.746 96.8328 352.603 96.8627C349.779 97.4179 347.087 97.0418 344.531 95.7045C344.358 95.6149 344.173 95.5194 343.988 95.4597C343.337 95.2627 342.806 95.5791 342.687 96.2418C342.585 96.8209 342.997 97.0836 343.415 97.3045C345.516 98.4269 347.737 99.1075 350.143 99.0358Z" fill="white"/>
</g>
<defs>
<clipPath id="clip0_1_11">
<rect width="64" height="60" fill="white" transform="translate(76 55)"/>
</clipPath>
<clipPath id="clip1_1_11">
<rect width="80" height="80" fill="white" transform="translate(306 47)"/>
</clipPath>
</defs>
</svg>
