<svg width="400" height="400" viewBox="0 0 400 400" fill="none" xmlns="http://www.w3.org/2000/svg">
<path d="M0 0H400V400H0V0Z" fill="url(#paint0_linear_714_4)"/>
<path d="M260.652 142.592H305V160.051C305 183.729 286.227 202.867 263.001 202.867H260.652V142.592ZM197.538 117.235H260.652V282.043H253.142C207.391 282.043 198.24 249.514 198.24 220.568L197.538 117.235ZM95 154.553C95 183.972 115.646 194.738 138.64 198.326H95V282.522H136.999C179.235 282.522 184.159 263.384 184.159 245.204C184.159 222.956 169.145 207.413 145.912 201.43H184.159V117.235H142.16C99.9295 117.235 95 136.373 95 154.553Z" fill="white"/>
<path d="M143.731 143L135.242 169L157.463 152.945H130L152.22 169L143.731 143Z" fill="#DC332B"/>
<circle cx="273.5" cy="281.5" r="45.5" fill="#DC332B"/>
<path d="M273.34 263L261.384 299.62L292.68 277.007H254L285.296 299.62L273.34 263Z" fill="#FACE39"/>
<defs>
<linearGradient id="paint0_linear_714_4" x1="-32" y1="-33.5" x2="400" y2="395" gradientUnits="userSpaceOnUse">
<stop offset="0.2" stop-color="#CB0417"/>
<stop offset="0.899293" stop-color="#FFD706"/>
</linearGradient>
</defs>
</svg>
